; NON-PLATED HOLES START AT T1
; THROUGH (PLATED) HOLES START AT T100
M48
INCH
T100C0.030000
T101C0.091667
T102C0.031497
T103C0.035000
T104C0.038000
T105C0.080000
T106C0.041000
%
T100
X016444Y007986
X016444Y008986
X005446Y008986
X004444Y008986
T101
X012611Y004986
X010527Y008695
X012611Y008695
X008444Y004986
X008444Y006847
X012611Y006847
X008444Y008695
X010527Y004986
X010527Y006847
T102
X016444Y004986
X016444Y004002
T103
X007444Y019986
X004444Y004986
X012444Y015986
X011444Y011986
X007444Y015986
X007444Y012986
X007444Y013986
X011444Y013986
X010444Y019986
X007444Y011986
X012444Y019986
X011444Y012986
X002444Y006986
X003444Y004986
X002444Y010986
X010444Y015986
T104
X004444Y019986
X004444Y018986
X015444Y018986
X015444Y019986
T105
X012544Y001986
X007444Y001986
T106
X003444Y011986
X002444Y015986
X014444Y015986
X016444Y015986
X004444Y015986
X015444Y011986
T00
M30
