G04 MADE WITH FRITZING*
G04 WWW.FRITZING.ORG*
G04 DOUBLE SIDED*
G04 HOLES PLATED*
G04 CONTOUR ON CENTER OF CONTOUR VECTOR*
%ASAXBY*%
%FSLAX23Y23*%
%MOIN*%
%OFA0B0*%
%SFA1.0B1.0*%
%ADD10C,0.075000*%
%ADD11C,0.147222*%
%ADD12C,0.078000*%
%ADD13C,0.062992*%
%ADD14C,0.100000*%
%ADD15C,0.070000*%
%ADD16C,0.099000*%
%ADD17R,0.062992X0.062992*%
%ADD18R,0.075000X0.075000*%
%ADD19R,0.099000X0.099000*%
%ADD20C,0.024000*%
%ADD21R,0.001000X0.001000*%
%LNCOPPER1*%
G90*
G70*
G54D10*
X834Y2062D03*
G54D11*
X1261Y499D03*
X1053Y499D03*
X844Y499D03*
X1261Y685D03*
X1053Y685D03*
X844Y685D03*
X1261Y870D03*
X1053Y870D03*
X844Y870D03*
X1261Y499D03*
X1053Y499D03*
X844Y499D03*
X1261Y685D03*
X1053Y685D03*
X844Y685D03*
X1261Y870D03*
X1053Y870D03*
X844Y870D03*
G54D12*
X1544Y1999D03*
X1544Y1899D03*
X444Y1999D03*
X444Y1899D03*
G54D13*
X1644Y400D03*
X1644Y499D03*
G54D14*
X744Y199D03*
X1254Y199D03*
X744Y199D03*
X1254Y199D03*
G54D10*
X444Y499D03*
X344Y499D03*
X744Y1399D03*
X744Y1299D03*
X744Y1199D03*
G54D15*
X1644Y899D03*
X1644Y799D03*
G54D10*
X1244Y1999D03*
X1244Y1599D03*
X1044Y1599D03*
X1044Y1999D03*
X744Y1599D03*
X744Y1999D03*
X244Y699D03*
X244Y1099D03*
G54D15*
X444Y899D03*
X545Y899D03*
G54D16*
X244Y1599D03*
X444Y1599D03*
X344Y1199D03*
X1444Y1599D03*
X1644Y1599D03*
X1544Y1199D03*
G54D10*
X1144Y1399D03*
X1144Y1299D03*
X1144Y1199D03*
G54D17*
X1644Y400D03*
G54D18*
X444Y499D03*
G54D19*
X444Y1599D03*
X1644Y1599D03*
G54D20*
X1445Y498D02*
X1544Y498D01*
D02*
X1544Y498D02*
X1629Y499D01*
D02*
X1293Y652D02*
X1445Y498D01*
D02*
X352Y483D02*
X345Y498D01*
D02*
X545Y698D02*
X644Y698D01*
D02*
X445Y698D02*
X545Y698D01*
D02*
X644Y698D02*
X810Y840D01*
D02*
X345Y498D02*
X445Y698D01*
D02*
X1091Y711D02*
X1164Y761D01*
X1164Y761D02*
X1145Y999D01*
D02*
X1344Y999D02*
X1530Y1184D01*
D02*
X1145Y999D02*
X1344Y999D01*
D02*
X434Y909D02*
X257Y1086D01*
D02*
X344Y2098D02*
X144Y1899D01*
D02*
X644Y2098D02*
X344Y2098D01*
D02*
X732Y2011D02*
X644Y2098D01*
D02*
X45Y1298D02*
X232Y1111D01*
D02*
X45Y1600D02*
X45Y1298D01*
D02*
X144Y1698D02*
X45Y1600D01*
D02*
X144Y1899D02*
X144Y1698D01*
D02*
X1645Y998D02*
X1645Y1099D01*
D02*
X1644Y914D02*
X1645Y998D01*
D02*
X1645Y1099D02*
X1645Y1198D01*
D02*
X1645Y1299D02*
X1445Y1299D01*
D02*
X1645Y1198D02*
X1645Y1299D01*
D02*
X1244Y1099D02*
X1045Y1099D01*
D02*
X1445Y1299D02*
X1244Y1099D01*
D02*
X1045Y1099D02*
X444Y1099D01*
D02*
X444Y1099D02*
X359Y1184D01*
D02*
X1257Y1986D02*
X1344Y1899D01*
D02*
X1344Y1899D02*
X1344Y1499D01*
D02*
X1344Y1499D02*
X1344Y1399D01*
D02*
X1344Y1399D02*
X1245Y1298D01*
D02*
X1245Y1298D02*
X1157Y1211D01*
D02*
X459Y1613D02*
X644Y1798D01*
D02*
X644Y1798D02*
X1045Y1798D01*
D02*
X1045Y1798D02*
X1232Y1986D01*
D02*
X877Y531D02*
X945Y599D01*
D02*
X945Y599D02*
X948Y737D01*
D02*
X948Y737D02*
X1024Y834D01*
D02*
X1659Y1584D02*
X1744Y1499D01*
D02*
X1744Y1499D02*
X1744Y1298D01*
D02*
X1744Y1198D02*
X1744Y1099D01*
D02*
X1744Y1298D02*
X1744Y1198D01*
D02*
X1745Y898D02*
X1645Y799D01*
D02*
X1745Y998D02*
X1745Y898D01*
D02*
X1744Y1099D02*
X1745Y998D01*
D02*
X1645Y799D02*
X1659Y797D01*
D02*
X425Y1999D02*
X345Y1999D01*
D02*
X244Y1898D02*
X244Y1619D01*
D02*
X345Y1999D02*
X244Y1898D01*
D02*
X1057Y2011D02*
X1144Y2098D01*
D02*
X1144Y2098D02*
X1645Y2099D01*
D02*
X1845Y1899D02*
X1845Y1698D01*
D02*
X1645Y2099D02*
X1845Y1899D01*
D02*
X1845Y1298D02*
X1845Y799D01*
D02*
X1845Y1698D02*
X1845Y1298D01*
D02*
X1845Y399D02*
X1645Y199D01*
D02*
X1645Y199D02*
X1294Y199D01*
D02*
X1845Y799D02*
X1845Y399D01*
D02*
X845Y199D02*
X784Y199D01*
D02*
X1045Y299D02*
X845Y199D01*
D02*
X1544Y298D02*
X1045Y299D01*
D02*
X1633Y389D02*
X1544Y298D01*
D02*
X244Y1499D02*
X544Y1199D01*
D02*
X544Y1199D02*
X727Y1199D01*
D02*
X244Y1578D02*
X244Y1499D01*
D02*
X1145Y1698D02*
X1232Y1611D01*
D02*
X745Y1698D02*
X1145Y1698D01*
D02*
X644Y1599D02*
X745Y1698D01*
D02*
X644Y1398D02*
X644Y1599D01*
D02*
X732Y1311D02*
X644Y1398D01*
D02*
X944Y1599D02*
X845Y1398D01*
D02*
X845Y1398D02*
X762Y1398D01*
D02*
X1027Y1599D02*
X944Y1599D01*
D02*
X1046Y1398D02*
X1132Y1311D01*
D02*
X1045Y1581D02*
X1046Y1398D01*
D02*
X244Y398D02*
X644Y99D01*
D02*
X644Y99D02*
X845Y99D01*
D02*
X244Y681D02*
X244Y398D01*
D02*
X845Y99D02*
X1045Y199D01*
D02*
X1045Y199D02*
X1214Y199D01*
D02*
X1645Y1899D02*
X1644Y1619D01*
D02*
X1558Y1985D02*
X1645Y1899D01*
G36*
X666Y2125D02*
X666Y2105D01*
X668Y2105D01*
X668Y2103D01*
X670Y2103D01*
X670Y2101D01*
X672Y2101D01*
X672Y2099D01*
X674Y2099D01*
X674Y2097D01*
X676Y2097D01*
X676Y2095D01*
X678Y2095D01*
X678Y2093D01*
X680Y2093D01*
X680Y2091D01*
X682Y2091D01*
X682Y2089D01*
X684Y2089D01*
X684Y2087D01*
X686Y2087D01*
X686Y2085D01*
X688Y2085D01*
X688Y2083D01*
X690Y2083D01*
X690Y2081D01*
X692Y2081D01*
X692Y2079D01*
X694Y2079D01*
X694Y2077D01*
X696Y2077D01*
X696Y2075D01*
X700Y2075D01*
X700Y2073D01*
X702Y2073D01*
X702Y2071D01*
X704Y2071D01*
X704Y2069D01*
X706Y2069D01*
X706Y2067D01*
X708Y2067D01*
X708Y2065D01*
X710Y2065D01*
X710Y2063D01*
X712Y2063D01*
X712Y2061D01*
X714Y2061D01*
X714Y2059D01*
X716Y2059D01*
X716Y2057D01*
X718Y2057D01*
X718Y2055D01*
X720Y2055D01*
X720Y2053D01*
X722Y2053D01*
X722Y2051D01*
X724Y2051D01*
X724Y2049D01*
X726Y2049D01*
X726Y2047D01*
X728Y2047D01*
X728Y2045D01*
X756Y2045D01*
X756Y2043D01*
X764Y2043D01*
X764Y2041D01*
X766Y2041D01*
X766Y2039D01*
X770Y2039D01*
X770Y2037D01*
X772Y2037D01*
X772Y2035D01*
X776Y2035D01*
X776Y2033D01*
X778Y2033D01*
X778Y2031D01*
X780Y2031D01*
X780Y2029D01*
X782Y2029D01*
X782Y2025D01*
X784Y2025D01*
X784Y2023D01*
X786Y2023D01*
X786Y2019D01*
X788Y2019D01*
X788Y2015D01*
X790Y2015D01*
X790Y2007D01*
X792Y2007D01*
X792Y1989D01*
X790Y1989D01*
X790Y1983D01*
X788Y1983D01*
X788Y1977D01*
X786Y1977D01*
X786Y1975D01*
X784Y1975D01*
X784Y1971D01*
X782Y1971D01*
X782Y1969D01*
X780Y1969D01*
X780Y1965D01*
X778Y1965D01*
X778Y1963D01*
X774Y1963D01*
X774Y1961D01*
X772Y1961D01*
X772Y1959D01*
X770Y1959D01*
X770Y1957D01*
X766Y1957D01*
X766Y1955D01*
X762Y1955D01*
X762Y1953D01*
X754Y1953D01*
X754Y1951D01*
X1034Y1951D01*
X1034Y1953D01*
X1028Y1953D01*
X1028Y1955D01*
X1024Y1955D01*
X1024Y1957D01*
X1020Y1957D01*
X1020Y1959D01*
X1016Y1959D01*
X1016Y1961D01*
X1014Y1961D01*
X1014Y1963D01*
X1012Y1963D01*
X1012Y1965D01*
X1010Y1965D01*
X1010Y1967D01*
X1008Y1967D01*
X1008Y1969D01*
X1006Y1969D01*
X1006Y1973D01*
X1004Y1973D01*
X1004Y1975D01*
X1002Y1975D01*
X1002Y1979D01*
X1000Y1979D01*
X1000Y1985D01*
X998Y1985D01*
X998Y1997D01*
X996Y1997D01*
X996Y1999D01*
X998Y1999D01*
X998Y2011D01*
X1000Y2011D01*
X1000Y2017D01*
X1002Y2017D01*
X1002Y2021D01*
X1004Y2021D01*
X1004Y2025D01*
X1006Y2025D01*
X1006Y2027D01*
X1008Y2027D01*
X1008Y2029D01*
X1010Y2029D01*
X1010Y2031D01*
X1012Y2031D01*
X1012Y2033D01*
X1014Y2033D01*
X1014Y2035D01*
X1016Y2035D01*
X1016Y2037D01*
X1018Y2037D01*
X1018Y2039D01*
X1022Y2039D01*
X1022Y2041D01*
X1026Y2041D01*
X1026Y2043D01*
X1032Y2043D01*
X1032Y2045D01*
X1062Y2045D01*
X1062Y2047D01*
X1064Y2047D01*
X1064Y2049D01*
X1066Y2049D01*
X1066Y2051D01*
X1068Y2051D01*
X1068Y2053D01*
X1070Y2053D01*
X1070Y2055D01*
X1072Y2055D01*
X1072Y2057D01*
X1074Y2057D01*
X1074Y2059D01*
X1076Y2059D01*
X1076Y2061D01*
X1078Y2061D01*
X1078Y2063D01*
X1080Y2063D01*
X1080Y2065D01*
X1082Y2065D01*
X1082Y2067D01*
X1084Y2067D01*
X1084Y2069D01*
X1086Y2069D01*
X1086Y2071D01*
X1088Y2071D01*
X1088Y2073D01*
X1090Y2073D01*
X1090Y2075D01*
X1092Y2075D01*
X1092Y2077D01*
X1094Y2077D01*
X1094Y2079D01*
X1096Y2079D01*
X1096Y2081D01*
X1098Y2081D01*
X1098Y2083D01*
X1100Y2083D01*
X1100Y2085D01*
X1102Y2085D01*
X1102Y2087D01*
X1104Y2087D01*
X1104Y2089D01*
X1106Y2089D01*
X1106Y2091D01*
X1108Y2091D01*
X1108Y2093D01*
X1110Y2093D01*
X1110Y2095D01*
X1112Y2095D01*
X1112Y2097D01*
X1114Y2097D01*
X1114Y2099D01*
X1116Y2099D01*
X1116Y2101D01*
X1118Y2101D01*
X1118Y2103D01*
X1120Y2103D01*
X1120Y2105D01*
X1122Y2105D01*
X1122Y2125D01*
X666Y2125D01*
G37*
D02*
G36*
X1518Y2077D02*
X1518Y2075D01*
X1152Y2075D01*
X1152Y2073D01*
X1150Y2073D01*
X1150Y2071D01*
X1148Y2071D01*
X1148Y2069D01*
X1146Y2069D01*
X1146Y2067D01*
X1144Y2067D01*
X1144Y2065D01*
X1142Y2065D01*
X1142Y2063D01*
X1140Y2063D01*
X1140Y2061D01*
X1138Y2061D01*
X1138Y2059D01*
X1136Y2059D01*
X1136Y2057D01*
X1134Y2057D01*
X1134Y2055D01*
X1132Y2055D01*
X1132Y2053D01*
X1130Y2053D01*
X1130Y2051D01*
X1128Y2051D01*
X1128Y2049D01*
X1126Y2049D01*
X1126Y2047D01*
X1556Y2047D01*
X1556Y2045D01*
X1562Y2045D01*
X1562Y2043D01*
X1566Y2043D01*
X1566Y2041D01*
X1570Y2041D01*
X1570Y2039D01*
X1572Y2039D01*
X1572Y2037D01*
X1576Y2037D01*
X1576Y2035D01*
X1578Y2035D01*
X1578Y2033D01*
X1580Y2033D01*
X1580Y2031D01*
X1582Y2031D01*
X1582Y2029D01*
X1584Y2029D01*
X1584Y2025D01*
X1586Y2025D01*
X1586Y2023D01*
X1588Y2023D01*
X1588Y2019D01*
X1590Y2019D01*
X1590Y2013D01*
X1592Y2013D01*
X1592Y2005D01*
X1594Y2005D01*
X1594Y1979D01*
X1596Y1979D01*
X1596Y1977D01*
X1598Y1977D01*
X1598Y1975D01*
X1600Y1975D01*
X1600Y1973D01*
X1602Y1973D01*
X1602Y1971D01*
X1604Y1971D01*
X1604Y1969D01*
X1606Y1969D01*
X1606Y1967D01*
X1608Y1967D01*
X1608Y1965D01*
X1610Y1965D01*
X1610Y1963D01*
X1612Y1963D01*
X1612Y1961D01*
X1614Y1961D01*
X1614Y1959D01*
X1616Y1959D01*
X1616Y1957D01*
X1618Y1957D01*
X1618Y1955D01*
X1620Y1955D01*
X1620Y1953D01*
X1622Y1953D01*
X1622Y1951D01*
X1624Y1951D01*
X1624Y1949D01*
X1626Y1949D01*
X1626Y1947D01*
X1628Y1947D01*
X1628Y1945D01*
X1630Y1945D01*
X1630Y1943D01*
X1632Y1943D01*
X1632Y1941D01*
X1634Y1941D01*
X1634Y1939D01*
X1636Y1939D01*
X1636Y1937D01*
X1638Y1937D01*
X1638Y1935D01*
X1640Y1935D01*
X1640Y1933D01*
X1642Y1933D01*
X1642Y1931D01*
X1644Y1931D01*
X1644Y1929D01*
X1646Y1929D01*
X1646Y1927D01*
X1648Y1927D01*
X1648Y1925D01*
X1650Y1925D01*
X1650Y1923D01*
X1652Y1923D01*
X1652Y1921D01*
X1654Y1921D01*
X1654Y1919D01*
X1656Y1919D01*
X1656Y1917D01*
X1658Y1917D01*
X1658Y1915D01*
X1660Y1915D01*
X1660Y1913D01*
X1662Y1913D01*
X1662Y1911D01*
X1664Y1911D01*
X1664Y1907D01*
X1666Y1907D01*
X1666Y1657D01*
X1704Y1657D01*
X1704Y1569D01*
X1706Y1569D01*
X1706Y1567D01*
X1708Y1567D01*
X1708Y1565D01*
X1710Y1565D01*
X1710Y1563D01*
X1712Y1563D01*
X1712Y1561D01*
X1714Y1561D01*
X1714Y1559D01*
X1716Y1559D01*
X1716Y1557D01*
X1718Y1557D01*
X1718Y1555D01*
X1720Y1555D01*
X1720Y1553D01*
X1722Y1553D01*
X1722Y1551D01*
X1724Y1551D01*
X1724Y1549D01*
X1726Y1549D01*
X1726Y1547D01*
X1728Y1547D01*
X1728Y1545D01*
X1730Y1545D01*
X1730Y1543D01*
X1732Y1543D01*
X1732Y1541D01*
X1734Y1541D01*
X1734Y1539D01*
X1736Y1539D01*
X1736Y1537D01*
X1738Y1537D01*
X1738Y1535D01*
X1740Y1535D01*
X1740Y1533D01*
X1742Y1533D01*
X1742Y1531D01*
X1744Y1531D01*
X1744Y1529D01*
X1746Y1529D01*
X1746Y1527D01*
X1748Y1527D01*
X1748Y1525D01*
X1750Y1525D01*
X1750Y1523D01*
X1752Y1523D01*
X1752Y1521D01*
X1754Y1521D01*
X1754Y1519D01*
X1756Y1519D01*
X1756Y1517D01*
X1758Y1517D01*
X1758Y1515D01*
X1760Y1515D01*
X1760Y1513D01*
X1762Y1513D01*
X1762Y1509D01*
X1764Y1509D01*
X1764Y1505D01*
X1766Y1505D01*
X1766Y889D01*
X1764Y889D01*
X1764Y885D01*
X1762Y885D01*
X1762Y883D01*
X1760Y883D01*
X1760Y881D01*
X1758Y881D01*
X1758Y879D01*
X1756Y879D01*
X1756Y877D01*
X1754Y877D01*
X1754Y875D01*
X1752Y875D01*
X1752Y873D01*
X1750Y873D01*
X1750Y871D01*
X1748Y871D01*
X1748Y869D01*
X1746Y869D01*
X1746Y867D01*
X1744Y867D01*
X1744Y865D01*
X1742Y865D01*
X1742Y863D01*
X1740Y863D01*
X1740Y861D01*
X1738Y861D01*
X1738Y859D01*
X1736Y859D01*
X1736Y857D01*
X1734Y857D01*
X1734Y855D01*
X1732Y855D01*
X1732Y853D01*
X1730Y853D01*
X1730Y851D01*
X1728Y851D01*
X1728Y849D01*
X1726Y849D01*
X1726Y847D01*
X1724Y847D01*
X1724Y845D01*
X1722Y845D01*
X1722Y843D01*
X1720Y843D01*
X1720Y841D01*
X1718Y841D01*
X1718Y839D01*
X1716Y839D01*
X1716Y837D01*
X1714Y837D01*
X1714Y835D01*
X1712Y835D01*
X1712Y833D01*
X1710Y833D01*
X1710Y831D01*
X1708Y831D01*
X1708Y829D01*
X1706Y829D01*
X1706Y827D01*
X1704Y827D01*
X1704Y825D01*
X1702Y825D01*
X1702Y823D01*
X1700Y823D01*
X1700Y821D01*
X1698Y821D01*
X1698Y819D01*
X1696Y819D01*
X1696Y817D01*
X1694Y817D01*
X1694Y815D01*
X1692Y815D01*
X1692Y813D01*
X1690Y813D01*
X1690Y793D01*
X1688Y793D01*
X1688Y785D01*
X1686Y785D01*
X1686Y779D01*
X1684Y779D01*
X1684Y775D01*
X1682Y775D01*
X1682Y773D01*
X1680Y773D01*
X1680Y769D01*
X1678Y769D01*
X1678Y767D01*
X1676Y767D01*
X1676Y765D01*
X1674Y765D01*
X1674Y763D01*
X1670Y763D01*
X1670Y761D01*
X1668Y761D01*
X1668Y759D01*
X1664Y759D01*
X1664Y757D01*
X1660Y757D01*
X1660Y755D01*
X1652Y755D01*
X1652Y753D01*
X1822Y753D01*
X1822Y1891D01*
X1820Y1891D01*
X1820Y1893D01*
X1818Y1893D01*
X1818Y1895D01*
X1816Y1895D01*
X1816Y1897D01*
X1814Y1897D01*
X1814Y1899D01*
X1812Y1899D01*
X1812Y1901D01*
X1810Y1901D01*
X1810Y1903D01*
X1808Y1903D01*
X1808Y1905D01*
X1806Y1905D01*
X1806Y1907D01*
X1804Y1907D01*
X1804Y1909D01*
X1802Y1909D01*
X1802Y1911D01*
X1800Y1911D01*
X1800Y1913D01*
X1798Y1913D01*
X1798Y1915D01*
X1796Y1915D01*
X1796Y1917D01*
X1794Y1917D01*
X1794Y1919D01*
X1792Y1919D01*
X1792Y1921D01*
X1790Y1921D01*
X1790Y1923D01*
X1788Y1923D01*
X1788Y1925D01*
X1786Y1925D01*
X1786Y1927D01*
X1784Y1927D01*
X1784Y1929D01*
X1782Y1929D01*
X1782Y1931D01*
X1780Y1931D01*
X1780Y1933D01*
X1778Y1933D01*
X1778Y1935D01*
X1776Y1935D01*
X1776Y1937D01*
X1774Y1937D01*
X1774Y1939D01*
X1772Y1939D01*
X1772Y1941D01*
X1770Y1941D01*
X1770Y1943D01*
X1768Y1943D01*
X1768Y1945D01*
X1766Y1945D01*
X1766Y1947D01*
X1764Y1947D01*
X1764Y1949D01*
X1762Y1949D01*
X1762Y1951D01*
X1760Y1951D01*
X1760Y1953D01*
X1758Y1953D01*
X1758Y1955D01*
X1756Y1955D01*
X1756Y1957D01*
X1752Y1957D01*
X1752Y1959D01*
X1750Y1959D01*
X1750Y1961D01*
X1748Y1961D01*
X1748Y1963D01*
X1746Y1963D01*
X1746Y1965D01*
X1744Y1965D01*
X1744Y1967D01*
X1742Y1967D01*
X1742Y1969D01*
X1740Y1969D01*
X1740Y1971D01*
X1738Y1971D01*
X1738Y1973D01*
X1736Y1973D01*
X1736Y1975D01*
X1734Y1975D01*
X1734Y1977D01*
X1732Y1977D01*
X1732Y1979D01*
X1730Y1979D01*
X1730Y1981D01*
X1728Y1981D01*
X1728Y1983D01*
X1726Y1983D01*
X1726Y1985D01*
X1724Y1985D01*
X1724Y1987D01*
X1722Y1987D01*
X1722Y1989D01*
X1720Y1989D01*
X1720Y1991D01*
X1718Y1991D01*
X1718Y1993D01*
X1716Y1993D01*
X1716Y1995D01*
X1714Y1995D01*
X1714Y1997D01*
X1712Y1997D01*
X1712Y1999D01*
X1710Y1999D01*
X1710Y2001D01*
X1708Y2001D01*
X1708Y2003D01*
X1706Y2003D01*
X1706Y2005D01*
X1704Y2005D01*
X1704Y2007D01*
X1702Y2007D01*
X1702Y2011D01*
X1700Y2011D01*
X1700Y2013D01*
X1698Y2013D01*
X1698Y2015D01*
X1696Y2015D01*
X1696Y2017D01*
X1694Y2017D01*
X1694Y2019D01*
X1692Y2019D01*
X1692Y2021D01*
X1690Y2021D01*
X1690Y2023D01*
X1688Y2023D01*
X1688Y2025D01*
X1686Y2025D01*
X1686Y2027D01*
X1684Y2027D01*
X1684Y2029D01*
X1682Y2029D01*
X1682Y2031D01*
X1680Y2031D01*
X1680Y2033D01*
X1678Y2033D01*
X1678Y2035D01*
X1676Y2035D01*
X1676Y2037D01*
X1674Y2037D01*
X1674Y2039D01*
X1672Y2039D01*
X1672Y2041D01*
X1670Y2041D01*
X1670Y2043D01*
X1668Y2043D01*
X1668Y2045D01*
X1666Y2045D01*
X1666Y2047D01*
X1664Y2047D01*
X1664Y2049D01*
X1662Y2049D01*
X1662Y2051D01*
X1660Y2051D01*
X1660Y2053D01*
X1658Y2053D01*
X1658Y2055D01*
X1656Y2055D01*
X1656Y2057D01*
X1654Y2057D01*
X1654Y2059D01*
X1652Y2059D01*
X1652Y2061D01*
X1650Y2061D01*
X1650Y2063D01*
X1648Y2063D01*
X1648Y2065D01*
X1646Y2065D01*
X1646Y2067D01*
X1644Y2067D01*
X1644Y2069D01*
X1642Y2069D01*
X1642Y2071D01*
X1640Y2071D01*
X1640Y2073D01*
X1638Y2073D01*
X1638Y2075D01*
X1636Y2075D01*
X1636Y2077D01*
X1518Y2077D01*
G37*
D02*
G36*
X1706Y2077D02*
X1706Y2067D01*
X1708Y2067D01*
X1708Y2065D01*
X1710Y2065D01*
X1710Y2063D01*
X1712Y2063D01*
X1712Y2061D01*
X1714Y2061D01*
X1714Y2059D01*
X1716Y2059D01*
X1716Y2057D01*
X1718Y2057D01*
X1718Y2055D01*
X1720Y2055D01*
X1720Y2053D01*
X1722Y2053D01*
X1722Y2051D01*
X1724Y2051D01*
X1724Y2049D01*
X1726Y2049D01*
X1726Y2047D01*
X1728Y2047D01*
X1728Y2045D01*
X1730Y2045D01*
X1730Y2043D01*
X1732Y2043D01*
X1732Y2041D01*
X1734Y2041D01*
X1734Y2039D01*
X1736Y2039D01*
X1736Y2037D01*
X1738Y2037D01*
X1738Y2035D01*
X1740Y2035D01*
X1740Y2033D01*
X1742Y2033D01*
X1742Y2031D01*
X1744Y2031D01*
X1744Y2029D01*
X1746Y2029D01*
X1746Y2025D01*
X1748Y2025D01*
X1748Y2023D01*
X1750Y2023D01*
X1750Y2021D01*
X1752Y2021D01*
X1752Y2019D01*
X1754Y2019D01*
X1754Y2017D01*
X1756Y2017D01*
X1756Y2015D01*
X1758Y2015D01*
X1758Y2013D01*
X1760Y2013D01*
X1760Y2011D01*
X1762Y2011D01*
X1762Y2009D01*
X1764Y2009D01*
X1764Y2007D01*
X1766Y2007D01*
X1766Y2005D01*
X1768Y2005D01*
X1768Y2003D01*
X1770Y2003D01*
X1770Y2001D01*
X1772Y2001D01*
X1772Y1999D01*
X1776Y1999D01*
X1776Y1997D01*
X1778Y1997D01*
X1778Y1995D01*
X1780Y1995D01*
X1780Y1993D01*
X1782Y1993D01*
X1782Y1991D01*
X1784Y1991D01*
X1784Y1989D01*
X1786Y1989D01*
X1786Y1987D01*
X1788Y1987D01*
X1788Y1985D01*
X1790Y1985D01*
X1790Y1983D01*
X1792Y1983D01*
X1792Y1981D01*
X1794Y1981D01*
X1794Y1979D01*
X1796Y1979D01*
X1796Y1977D01*
X1798Y1977D01*
X1798Y1975D01*
X1800Y1975D01*
X1800Y1973D01*
X1802Y1973D01*
X1802Y1971D01*
X1804Y1971D01*
X1804Y1969D01*
X1806Y1969D01*
X1806Y1967D01*
X1808Y1967D01*
X1808Y1965D01*
X1810Y1965D01*
X1810Y1963D01*
X1812Y1963D01*
X1812Y1961D01*
X1814Y1961D01*
X1814Y1959D01*
X1816Y1959D01*
X1816Y1957D01*
X1818Y1957D01*
X1818Y1955D01*
X1820Y1955D01*
X1820Y1953D01*
X1822Y1953D01*
X1822Y1951D01*
X1824Y1951D01*
X1824Y1949D01*
X1826Y1949D01*
X1826Y1947D01*
X1828Y1947D01*
X1828Y1945D01*
X1830Y1945D01*
X1830Y1943D01*
X1832Y1943D01*
X1832Y1941D01*
X1834Y1941D01*
X1834Y1939D01*
X1836Y1939D01*
X1836Y1937D01*
X1838Y1937D01*
X1838Y1935D01*
X1840Y1935D01*
X1840Y1933D01*
X1842Y1933D01*
X1842Y1931D01*
X1844Y1931D01*
X1844Y1929D01*
X1846Y1929D01*
X1846Y1927D01*
X1848Y1927D01*
X1848Y1925D01*
X1850Y1925D01*
X1850Y1923D01*
X1852Y1923D01*
X1852Y1921D01*
X1854Y1921D01*
X1854Y1919D01*
X1856Y1919D01*
X1856Y1917D01*
X1858Y1917D01*
X1858Y1915D01*
X1860Y1915D01*
X1860Y1913D01*
X1862Y1913D01*
X1862Y1911D01*
X1864Y1911D01*
X1864Y1907D01*
X1866Y1907D01*
X1866Y1297D01*
X1868Y1297D01*
X1868Y797D01*
X1866Y797D01*
X1866Y389D01*
X1864Y389D01*
X1864Y387D01*
X1862Y387D01*
X1862Y383D01*
X1860Y383D01*
X1860Y381D01*
X1858Y381D01*
X1858Y379D01*
X1856Y379D01*
X1856Y377D01*
X1854Y377D01*
X1854Y375D01*
X1852Y375D01*
X1852Y373D01*
X1850Y373D01*
X1850Y371D01*
X1848Y371D01*
X1848Y369D01*
X1846Y369D01*
X1846Y367D01*
X1844Y367D01*
X1844Y365D01*
X1842Y365D01*
X1842Y363D01*
X1840Y363D01*
X1840Y361D01*
X1838Y361D01*
X1838Y359D01*
X1836Y359D01*
X1836Y357D01*
X1834Y357D01*
X1834Y355D01*
X1832Y355D01*
X1832Y353D01*
X1830Y353D01*
X1830Y351D01*
X1828Y351D01*
X1828Y349D01*
X1826Y349D01*
X1826Y347D01*
X1824Y347D01*
X1824Y345D01*
X1822Y345D01*
X1822Y343D01*
X1820Y343D01*
X1820Y341D01*
X1818Y341D01*
X1818Y339D01*
X1816Y339D01*
X1816Y337D01*
X1814Y337D01*
X1814Y335D01*
X1812Y335D01*
X1812Y333D01*
X1810Y333D01*
X1810Y331D01*
X1808Y331D01*
X1808Y329D01*
X1806Y329D01*
X1806Y327D01*
X1804Y327D01*
X1804Y325D01*
X1802Y325D01*
X1802Y323D01*
X1800Y323D01*
X1800Y321D01*
X1798Y321D01*
X1798Y319D01*
X1796Y319D01*
X1796Y317D01*
X1794Y317D01*
X1794Y315D01*
X1792Y315D01*
X1792Y313D01*
X1790Y313D01*
X1790Y311D01*
X1788Y311D01*
X1788Y309D01*
X1786Y309D01*
X1786Y307D01*
X1784Y307D01*
X1784Y305D01*
X1782Y305D01*
X1782Y303D01*
X1780Y303D01*
X1780Y301D01*
X1778Y301D01*
X1778Y299D01*
X1776Y299D01*
X1776Y297D01*
X1774Y297D01*
X1774Y295D01*
X1772Y295D01*
X1772Y293D01*
X1770Y293D01*
X1770Y291D01*
X1768Y291D01*
X1768Y289D01*
X1766Y289D01*
X1766Y287D01*
X1764Y287D01*
X1764Y285D01*
X1762Y285D01*
X1762Y283D01*
X1760Y283D01*
X1760Y281D01*
X1758Y281D01*
X1758Y279D01*
X1756Y279D01*
X1756Y277D01*
X1754Y277D01*
X1754Y275D01*
X1752Y275D01*
X1752Y273D01*
X1750Y273D01*
X1750Y271D01*
X1748Y271D01*
X1748Y269D01*
X1746Y269D01*
X1746Y267D01*
X1744Y267D01*
X1744Y265D01*
X1742Y265D01*
X1742Y263D01*
X1740Y263D01*
X1740Y261D01*
X1738Y261D01*
X1738Y259D01*
X1736Y259D01*
X1736Y257D01*
X1734Y257D01*
X1734Y255D01*
X1732Y255D01*
X1732Y253D01*
X1730Y253D01*
X1730Y251D01*
X1728Y251D01*
X1728Y249D01*
X1726Y249D01*
X1726Y247D01*
X1724Y247D01*
X1724Y245D01*
X1722Y245D01*
X1722Y243D01*
X1720Y243D01*
X1720Y241D01*
X1718Y241D01*
X1718Y239D01*
X1716Y239D01*
X1716Y237D01*
X1714Y237D01*
X1714Y235D01*
X1712Y235D01*
X1712Y233D01*
X1710Y233D01*
X1710Y231D01*
X1708Y231D01*
X1708Y229D01*
X1706Y229D01*
X1706Y227D01*
X1704Y227D01*
X1704Y225D01*
X1702Y225D01*
X1702Y223D01*
X1700Y223D01*
X1700Y221D01*
X1698Y221D01*
X1698Y219D01*
X1696Y219D01*
X1696Y217D01*
X1694Y217D01*
X1694Y215D01*
X1692Y215D01*
X1692Y213D01*
X1690Y213D01*
X1690Y211D01*
X1688Y211D01*
X1688Y209D01*
X1686Y209D01*
X1686Y207D01*
X1684Y207D01*
X1684Y205D01*
X1682Y205D01*
X1682Y203D01*
X1680Y203D01*
X1680Y201D01*
X1678Y201D01*
X1678Y199D01*
X1676Y199D01*
X1676Y197D01*
X1674Y197D01*
X1674Y195D01*
X1672Y195D01*
X1672Y193D01*
X1670Y193D01*
X1670Y191D01*
X1668Y191D01*
X1668Y189D01*
X1666Y189D01*
X1666Y187D01*
X1664Y187D01*
X1664Y185D01*
X1662Y185D01*
X1662Y183D01*
X1660Y183D01*
X1660Y181D01*
X1656Y181D01*
X1656Y179D01*
X1652Y179D01*
X1652Y177D01*
X1314Y177D01*
X1314Y139D01*
X1796Y139D01*
X1796Y141D01*
X1800Y141D01*
X1800Y143D01*
X1802Y143D01*
X1802Y145D01*
X1804Y145D01*
X1804Y147D01*
X1806Y147D01*
X1806Y149D01*
X1808Y149D01*
X1808Y151D01*
X1810Y151D01*
X1810Y153D01*
X1812Y153D01*
X1812Y155D01*
X1814Y155D01*
X1814Y157D01*
X1816Y157D01*
X1816Y159D01*
X1818Y159D01*
X1818Y161D01*
X1820Y161D01*
X1820Y163D01*
X1822Y163D01*
X1822Y165D01*
X1824Y165D01*
X1824Y167D01*
X1826Y167D01*
X1826Y169D01*
X1828Y169D01*
X1828Y173D01*
X1830Y173D01*
X1830Y175D01*
X1832Y175D01*
X1832Y177D01*
X1834Y177D01*
X1834Y179D01*
X1836Y179D01*
X1836Y181D01*
X1838Y181D01*
X1838Y183D01*
X1840Y183D01*
X1840Y187D01*
X1842Y187D01*
X1842Y189D01*
X1844Y189D01*
X1844Y191D01*
X1846Y191D01*
X1846Y193D01*
X1848Y193D01*
X1848Y197D01*
X1850Y197D01*
X1850Y199D01*
X1852Y199D01*
X1852Y201D01*
X1854Y201D01*
X1854Y205D01*
X1856Y205D01*
X1856Y207D01*
X1858Y207D01*
X1858Y211D01*
X1860Y211D01*
X1860Y213D01*
X1862Y213D01*
X1862Y217D01*
X1864Y217D01*
X1864Y219D01*
X1866Y219D01*
X1866Y223D01*
X1868Y223D01*
X1868Y225D01*
X1870Y225D01*
X1870Y229D01*
X1872Y229D01*
X1872Y231D01*
X1874Y231D01*
X1874Y235D01*
X1876Y235D01*
X1876Y239D01*
X1878Y239D01*
X1878Y243D01*
X1880Y243D01*
X1880Y245D01*
X1882Y245D01*
X1882Y249D01*
X1884Y249D01*
X1884Y253D01*
X1886Y253D01*
X1886Y257D01*
X1888Y257D01*
X1888Y261D01*
X1890Y261D01*
X1890Y265D01*
X1892Y265D01*
X1892Y269D01*
X1894Y269D01*
X1894Y275D01*
X1896Y275D01*
X1896Y279D01*
X1898Y279D01*
X1898Y283D01*
X1900Y283D01*
X1900Y289D01*
X1902Y289D01*
X1902Y293D01*
X1904Y293D01*
X1904Y299D01*
X1906Y299D01*
X1906Y305D01*
X1908Y305D01*
X1908Y311D01*
X1910Y311D01*
X1910Y317D01*
X1912Y317D01*
X1912Y323D01*
X1914Y323D01*
X1914Y331D01*
X1916Y331D01*
X1916Y339D01*
X1918Y339D01*
X1918Y347D01*
X1920Y347D01*
X1920Y357D01*
X1922Y357D01*
X1922Y367D01*
X1924Y367D01*
X1924Y381D01*
X1926Y381D01*
X1926Y399D01*
X1928Y399D01*
X1928Y1767D01*
X1926Y1767D01*
X1926Y1785D01*
X1924Y1785D01*
X1924Y1799D01*
X1922Y1799D01*
X1922Y1811D01*
X1920Y1811D01*
X1920Y1819D01*
X1918Y1819D01*
X1918Y1829D01*
X1916Y1829D01*
X1916Y1837D01*
X1914Y1837D01*
X1914Y1843D01*
X1912Y1843D01*
X1912Y1849D01*
X1910Y1849D01*
X1910Y1857D01*
X1908Y1857D01*
X1908Y1861D01*
X1906Y1861D01*
X1906Y1867D01*
X1904Y1867D01*
X1904Y1873D01*
X1902Y1873D01*
X1902Y1879D01*
X1900Y1879D01*
X1900Y1883D01*
X1898Y1883D01*
X1898Y1889D01*
X1896Y1889D01*
X1896Y1893D01*
X1894Y1893D01*
X1894Y1897D01*
X1892Y1897D01*
X1892Y1901D01*
X1890Y1901D01*
X1890Y1905D01*
X1888Y1905D01*
X1888Y1909D01*
X1886Y1909D01*
X1886Y1913D01*
X1884Y1913D01*
X1884Y1917D01*
X1882Y1917D01*
X1882Y1921D01*
X1880Y1921D01*
X1880Y1925D01*
X1878Y1925D01*
X1878Y1927D01*
X1876Y1927D01*
X1876Y1931D01*
X1874Y1931D01*
X1874Y1935D01*
X1872Y1935D01*
X1872Y1939D01*
X1870Y1939D01*
X1870Y1941D01*
X1868Y1941D01*
X1868Y1945D01*
X1866Y1945D01*
X1866Y1947D01*
X1864Y1947D01*
X1864Y1951D01*
X1862Y1951D01*
X1862Y1953D01*
X1860Y1953D01*
X1860Y1957D01*
X1858Y1957D01*
X1858Y1959D01*
X1856Y1959D01*
X1856Y1963D01*
X1854Y1963D01*
X1854Y1965D01*
X1852Y1965D01*
X1852Y1967D01*
X1850Y1967D01*
X1850Y1971D01*
X1848Y1971D01*
X1848Y1973D01*
X1846Y1973D01*
X1846Y1975D01*
X1844Y1975D01*
X1844Y1977D01*
X1842Y1977D01*
X1842Y1981D01*
X1840Y1981D01*
X1840Y1983D01*
X1838Y1983D01*
X1838Y1985D01*
X1836Y1985D01*
X1836Y1987D01*
X1834Y1987D01*
X1834Y1989D01*
X1832Y1989D01*
X1832Y1993D01*
X1830Y1993D01*
X1830Y1995D01*
X1828Y1995D01*
X1828Y1997D01*
X1826Y1997D01*
X1826Y1999D01*
X1824Y1999D01*
X1824Y2001D01*
X1822Y2001D01*
X1822Y2003D01*
X1820Y2003D01*
X1820Y2005D01*
X1818Y2005D01*
X1818Y2007D01*
X1816Y2007D01*
X1816Y2009D01*
X1814Y2009D01*
X1814Y2011D01*
X1812Y2011D01*
X1812Y2013D01*
X1810Y2013D01*
X1810Y2015D01*
X1808Y2015D01*
X1808Y2017D01*
X1806Y2017D01*
X1806Y2019D01*
X1804Y2019D01*
X1804Y2021D01*
X1802Y2021D01*
X1802Y2023D01*
X1800Y2023D01*
X1800Y2025D01*
X1798Y2025D01*
X1798Y2027D01*
X1796Y2027D01*
X1796Y2029D01*
X1794Y2029D01*
X1794Y2031D01*
X1790Y2031D01*
X1790Y2033D01*
X1788Y2033D01*
X1788Y2035D01*
X1786Y2035D01*
X1786Y2037D01*
X1784Y2037D01*
X1784Y2039D01*
X1782Y2039D01*
X1782Y2041D01*
X1778Y2041D01*
X1778Y2043D01*
X1776Y2043D01*
X1776Y2045D01*
X1774Y2045D01*
X1774Y2047D01*
X1770Y2047D01*
X1770Y2049D01*
X1768Y2049D01*
X1768Y2051D01*
X1766Y2051D01*
X1766Y2053D01*
X1762Y2053D01*
X1762Y2055D01*
X1760Y2055D01*
X1760Y2057D01*
X1756Y2057D01*
X1756Y2059D01*
X1754Y2059D01*
X1754Y2061D01*
X1750Y2061D01*
X1750Y2063D01*
X1748Y2063D01*
X1748Y2065D01*
X1744Y2065D01*
X1744Y2067D01*
X1742Y2067D01*
X1742Y2069D01*
X1738Y2069D01*
X1738Y2071D01*
X1734Y2071D01*
X1734Y2073D01*
X1732Y2073D01*
X1732Y2075D01*
X1728Y2075D01*
X1728Y2077D01*
X1706Y2077D01*
G37*
D02*
G36*
X352Y2075D02*
X352Y2073D01*
X350Y2073D01*
X350Y2071D01*
X348Y2071D01*
X348Y2069D01*
X346Y2069D01*
X346Y2067D01*
X344Y2067D01*
X344Y2065D01*
X342Y2065D01*
X342Y2063D01*
X340Y2063D01*
X340Y2061D01*
X338Y2061D01*
X338Y2059D01*
X336Y2059D01*
X336Y2057D01*
X334Y2057D01*
X334Y2055D01*
X332Y2055D01*
X332Y2053D01*
X330Y2053D01*
X330Y2051D01*
X328Y2051D01*
X328Y2049D01*
X326Y2049D01*
X326Y2047D01*
X456Y2047D01*
X456Y2045D01*
X462Y2045D01*
X462Y2043D01*
X466Y2043D01*
X466Y2041D01*
X470Y2041D01*
X470Y2039D01*
X472Y2039D01*
X472Y2037D01*
X476Y2037D01*
X476Y2035D01*
X478Y2035D01*
X478Y2033D01*
X480Y2033D01*
X480Y2031D01*
X482Y2031D01*
X482Y2029D01*
X484Y2029D01*
X484Y2025D01*
X486Y2025D01*
X486Y2023D01*
X488Y2023D01*
X488Y2019D01*
X490Y2019D01*
X490Y2013D01*
X492Y2013D01*
X492Y2005D01*
X494Y2005D01*
X494Y1993D01*
X492Y1993D01*
X492Y1983D01*
X490Y1983D01*
X490Y1979D01*
X488Y1979D01*
X488Y1975D01*
X486Y1975D01*
X486Y1971D01*
X484Y1971D01*
X484Y1969D01*
X482Y1969D01*
X482Y1967D01*
X480Y1967D01*
X480Y1963D01*
X478Y1963D01*
X478Y1961D01*
X474Y1961D01*
X474Y1959D01*
X472Y1959D01*
X472Y1951D01*
X734Y1951D01*
X734Y1953D01*
X728Y1953D01*
X728Y1955D01*
X724Y1955D01*
X724Y1957D01*
X720Y1957D01*
X720Y1959D01*
X716Y1959D01*
X716Y1961D01*
X714Y1961D01*
X714Y1963D01*
X712Y1963D01*
X712Y1965D01*
X710Y1965D01*
X710Y1967D01*
X708Y1967D01*
X708Y1969D01*
X706Y1969D01*
X706Y1973D01*
X704Y1973D01*
X704Y1975D01*
X702Y1975D01*
X702Y1979D01*
X700Y1979D01*
X700Y1985D01*
X698Y1985D01*
X698Y1997D01*
X696Y1997D01*
X696Y2017D01*
X694Y2017D01*
X694Y2019D01*
X692Y2019D01*
X692Y2021D01*
X690Y2021D01*
X690Y2023D01*
X688Y2023D01*
X688Y2025D01*
X686Y2025D01*
X686Y2027D01*
X682Y2027D01*
X682Y2029D01*
X680Y2029D01*
X680Y2031D01*
X678Y2031D01*
X678Y2033D01*
X676Y2033D01*
X676Y2035D01*
X674Y2035D01*
X674Y2037D01*
X672Y2037D01*
X672Y2039D01*
X670Y2039D01*
X670Y2041D01*
X668Y2041D01*
X668Y2043D01*
X666Y2043D01*
X666Y2045D01*
X664Y2045D01*
X664Y2047D01*
X662Y2047D01*
X662Y2049D01*
X660Y2049D01*
X660Y2051D01*
X658Y2051D01*
X658Y2053D01*
X656Y2053D01*
X656Y2055D01*
X654Y2055D01*
X654Y2057D01*
X652Y2057D01*
X652Y2059D01*
X650Y2059D01*
X650Y2061D01*
X648Y2061D01*
X648Y2063D01*
X646Y2063D01*
X646Y2065D01*
X644Y2065D01*
X644Y2067D01*
X642Y2067D01*
X642Y2069D01*
X640Y2069D01*
X640Y2071D01*
X638Y2071D01*
X638Y2073D01*
X636Y2073D01*
X636Y2075D01*
X352Y2075D01*
G37*
D02*
G36*
X324Y2047D02*
X324Y2045D01*
X322Y2045D01*
X322Y2043D01*
X320Y2043D01*
X320Y2041D01*
X318Y2041D01*
X318Y2039D01*
X316Y2039D01*
X316Y2037D01*
X314Y2037D01*
X314Y2035D01*
X312Y2035D01*
X312Y2033D01*
X310Y2033D01*
X310Y2031D01*
X308Y2031D01*
X308Y2029D01*
X306Y2029D01*
X306Y2027D01*
X304Y2027D01*
X304Y2025D01*
X302Y2025D01*
X302Y2023D01*
X300Y2023D01*
X300Y2021D01*
X298Y2021D01*
X298Y2019D01*
X296Y2019D01*
X296Y2017D01*
X294Y2017D01*
X294Y2015D01*
X292Y2015D01*
X292Y2013D01*
X290Y2013D01*
X290Y2011D01*
X288Y2011D01*
X288Y2009D01*
X286Y2009D01*
X286Y2007D01*
X284Y2007D01*
X284Y2005D01*
X282Y2005D01*
X282Y2003D01*
X280Y2003D01*
X280Y2001D01*
X278Y2001D01*
X278Y1999D01*
X276Y1999D01*
X276Y1997D01*
X274Y1997D01*
X274Y1995D01*
X272Y1995D01*
X272Y1993D01*
X270Y1993D01*
X270Y1991D01*
X268Y1991D01*
X268Y1989D01*
X266Y1989D01*
X266Y1987D01*
X264Y1987D01*
X264Y1985D01*
X262Y1985D01*
X262Y1983D01*
X260Y1983D01*
X260Y1981D01*
X258Y1981D01*
X258Y1979D01*
X256Y1979D01*
X256Y1977D01*
X252Y1977D01*
X252Y1975D01*
X250Y1975D01*
X250Y1973D01*
X248Y1973D01*
X248Y1971D01*
X246Y1971D01*
X246Y1969D01*
X244Y1969D01*
X244Y1967D01*
X242Y1967D01*
X242Y1965D01*
X240Y1965D01*
X240Y1963D01*
X238Y1963D01*
X238Y1961D01*
X236Y1961D01*
X236Y1959D01*
X234Y1959D01*
X234Y1957D01*
X232Y1957D01*
X232Y1955D01*
X230Y1955D01*
X230Y1953D01*
X228Y1953D01*
X228Y1951D01*
X226Y1951D01*
X226Y1949D01*
X224Y1949D01*
X224Y1947D01*
X222Y1947D01*
X222Y1945D01*
X220Y1945D01*
X220Y1943D01*
X218Y1943D01*
X218Y1941D01*
X216Y1941D01*
X216Y1939D01*
X214Y1939D01*
X214Y1937D01*
X212Y1937D01*
X212Y1935D01*
X210Y1935D01*
X210Y1933D01*
X208Y1933D01*
X208Y1931D01*
X206Y1931D01*
X206Y1929D01*
X204Y1929D01*
X204Y1927D01*
X202Y1927D01*
X202Y1925D01*
X200Y1925D01*
X200Y1923D01*
X198Y1923D01*
X198Y1921D01*
X196Y1921D01*
X196Y1919D01*
X194Y1919D01*
X194Y1917D01*
X192Y1917D01*
X192Y1915D01*
X190Y1915D01*
X190Y1913D01*
X188Y1913D01*
X188Y1911D01*
X186Y1911D01*
X186Y1909D01*
X184Y1909D01*
X184Y1907D01*
X182Y1907D01*
X182Y1905D01*
X180Y1905D01*
X180Y1903D01*
X178Y1903D01*
X178Y1901D01*
X176Y1901D01*
X176Y1899D01*
X174Y1899D01*
X174Y1897D01*
X172Y1897D01*
X172Y1895D01*
X170Y1895D01*
X170Y1893D01*
X168Y1893D01*
X168Y1891D01*
X166Y1891D01*
X166Y1693D01*
X164Y1693D01*
X164Y1687D01*
X162Y1687D01*
X162Y1685D01*
X160Y1685D01*
X160Y1683D01*
X158Y1683D01*
X158Y1681D01*
X156Y1681D01*
X156Y1679D01*
X154Y1679D01*
X154Y1677D01*
X152Y1677D01*
X152Y1675D01*
X150Y1675D01*
X150Y1673D01*
X148Y1673D01*
X148Y1671D01*
X146Y1671D01*
X146Y1669D01*
X144Y1669D01*
X144Y1667D01*
X142Y1667D01*
X142Y1665D01*
X140Y1665D01*
X140Y1663D01*
X138Y1663D01*
X138Y1661D01*
X136Y1661D01*
X136Y1659D01*
X134Y1659D01*
X134Y1657D01*
X132Y1657D01*
X132Y1655D01*
X130Y1655D01*
X130Y1653D01*
X128Y1653D01*
X128Y1651D01*
X126Y1651D01*
X126Y1649D01*
X124Y1649D01*
X124Y1647D01*
X122Y1647D01*
X122Y1645D01*
X120Y1645D01*
X120Y1643D01*
X118Y1643D01*
X118Y1641D01*
X116Y1641D01*
X116Y1639D01*
X114Y1639D01*
X114Y1637D01*
X112Y1637D01*
X112Y1635D01*
X110Y1635D01*
X110Y1633D01*
X108Y1633D01*
X108Y1631D01*
X106Y1631D01*
X106Y1629D01*
X104Y1629D01*
X104Y1627D01*
X102Y1627D01*
X102Y1625D01*
X100Y1625D01*
X100Y1623D01*
X98Y1623D01*
X98Y1621D01*
X96Y1621D01*
X96Y1619D01*
X94Y1619D01*
X94Y1617D01*
X92Y1617D01*
X92Y1615D01*
X90Y1615D01*
X90Y1613D01*
X88Y1613D01*
X88Y1611D01*
X86Y1611D01*
X86Y1609D01*
X84Y1609D01*
X84Y1607D01*
X82Y1607D01*
X82Y1605D01*
X80Y1605D01*
X80Y1603D01*
X78Y1603D01*
X78Y1601D01*
X76Y1601D01*
X76Y1599D01*
X74Y1599D01*
X74Y1597D01*
X72Y1597D01*
X72Y1595D01*
X70Y1595D01*
X70Y1593D01*
X68Y1593D01*
X68Y1305D01*
X70Y1305D01*
X70Y1303D01*
X72Y1303D01*
X72Y1301D01*
X74Y1301D01*
X74Y1299D01*
X76Y1299D01*
X76Y1297D01*
X78Y1297D01*
X78Y1295D01*
X80Y1295D01*
X80Y1293D01*
X82Y1293D01*
X82Y1291D01*
X84Y1291D01*
X84Y1289D01*
X86Y1289D01*
X86Y1287D01*
X88Y1287D01*
X88Y1285D01*
X90Y1285D01*
X90Y1283D01*
X92Y1283D01*
X92Y1281D01*
X94Y1281D01*
X94Y1279D01*
X96Y1279D01*
X96Y1277D01*
X98Y1277D01*
X98Y1275D01*
X100Y1275D01*
X100Y1273D01*
X102Y1273D01*
X102Y1271D01*
X104Y1271D01*
X104Y1269D01*
X106Y1269D01*
X106Y1267D01*
X108Y1267D01*
X108Y1265D01*
X110Y1265D01*
X110Y1263D01*
X112Y1263D01*
X112Y1261D01*
X114Y1261D01*
X114Y1259D01*
X116Y1259D01*
X116Y1257D01*
X358Y1257D01*
X358Y1255D01*
X366Y1255D01*
X366Y1253D01*
X370Y1253D01*
X370Y1251D01*
X374Y1251D01*
X374Y1249D01*
X376Y1249D01*
X376Y1247D01*
X380Y1247D01*
X380Y1245D01*
X382Y1245D01*
X382Y1243D01*
X384Y1243D01*
X384Y1241D01*
X386Y1241D01*
X386Y1239D01*
X388Y1239D01*
X388Y1237D01*
X390Y1237D01*
X390Y1235D01*
X392Y1235D01*
X392Y1233D01*
X394Y1233D01*
X394Y1229D01*
X396Y1229D01*
X396Y1227D01*
X398Y1227D01*
X398Y1223D01*
X400Y1223D01*
X400Y1217D01*
X402Y1217D01*
X402Y1207D01*
X404Y1207D01*
X404Y1169D01*
X406Y1169D01*
X406Y1167D01*
X408Y1167D01*
X408Y1165D01*
X410Y1165D01*
X410Y1163D01*
X412Y1163D01*
X412Y1161D01*
X414Y1161D01*
X414Y1159D01*
X416Y1159D01*
X416Y1157D01*
X418Y1157D01*
X418Y1155D01*
X420Y1155D01*
X420Y1153D01*
X422Y1153D01*
X422Y1151D01*
X734Y1151D01*
X734Y1153D01*
X728Y1153D01*
X728Y1155D01*
X724Y1155D01*
X724Y1157D01*
X720Y1157D01*
X720Y1159D01*
X716Y1159D01*
X716Y1161D01*
X714Y1161D01*
X714Y1163D01*
X712Y1163D01*
X712Y1165D01*
X710Y1165D01*
X710Y1167D01*
X708Y1167D01*
X708Y1169D01*
X706Y1169D01*
X706Y1173D01*
X704Y1173D01*
X704Y1175D01*
X702Y1175D01*
X702Y1177D01*
X536Y1177D01*
X536Y1179D01*
X532Y1179D01*
X532Y1181D01*
X530Y1181D01*
X530Y1183D01*
X528Y1183D01*
X528Y1185D01*
X526Y1185D01*
X526Y1187D01*
X524Y1187D01*
X524Y1189D01*
X522Y1189D01*
X522Y1191D01*
X520Y1191D01*
X520Y1193D01*
X518Y1193D01*
X518Y1195D01*
X516Y1195D01*
X516Y1197D01*
X514Y1197D01*
X514Y1199D01*
X512Y1199D01*
X512Y1201D01*
X510Y1201D01*
X510Y1203D01*
X508Y1203D01*
X508Y1205D01*
X506Y1205D01*
X506Y1207D01*
X504Y1207D01*
X504Y1209D01*
X502Y1209D01*
X502Y1211D01*
X500Y1211D01*
X500Y1213D01*
X498Y1213D01*
X498Y1215D01*
X496Y1215D01*
X496Y1217D01*
X494Y1217D01*
X494Y1219D01*
X492Y1219D01*
X492Y1221D01*
X490Y1221D01*
X490Y1223D01*
X488Y1223D01*
X488Y1225D01*
X486Y1225D01*
X486Y1227D01*
X484Y1227D01*
X484Y1229D01*
X482Y1229D01*
X482Y1231D01*
X480Y1231D01*
X480Y1233D01*
X478Y1233D01*
X478Y1235D01*
X476Y1235D01*
X476Y1237D01*
X474Y1237D01*
X474Y1239D01*
X472Y1239D01*
X472Y1241D01*
X470Y1241D01*
X470Y1243D01*
X468Y1243D01*
X468Y1245D01*
X466Y1245D01*
X466Y1247D01*
X464Y1247D01*
X464Y1249D01*
X462Y1249D01*
X462Y1251D01*
X460Y1251D01*
X460Y1253D01*
X458Y1253D01*
X458Y1255D01*
X456Y1255D01*
X456Y1257D01*
X454Y1257D01*
X454Y1259D01*
X452Y1259D01*
X452Y1261D01*
X450Y1261D01*
X450Y1263D01*
X448Y1263D01*
X448Y1265D01*
X446Y1265D01*
X446Y1267D01*
X444Y1267D01*
X444Y1269D01*
X442Y1269D01*
X442Y1271D01*
X440Y1271D01*
X440Y1273D01*
X438Y1273D01*
X438Y1275D01*
X436Y1275D01*
X436Y1277D01*
X434Y1277D01*
X434Y1279D01*
X432Y1279D01*
X432Y1281D01*
X430Y1281D01*
X430Y1283D01*
X428Y1283D01*
X428Y1285D01*
X426Y1285D01*
X426Y1287D01*
X424Y1287D01*
X424Y1289D01*
X422Y1289D01*
X422Y1291D01*
X420Y1291D01*
X420Y1293D01*
X418Y1293D01*
X418Y1295D01*
X416Y1295D01*
X416Y1297D01*
X414Y1297D01*
X414Y1299D01*
X412Y1299D01*
X412Y1301D01*
X410Y1301D01*
X410Y1303D01*
X408Y1303D01*
X408Y1305D01*
X406Y1305D01*
X406Y1307D01*
X404Y1307D01*
X404Y1309D01*
X402Y1309D01*
X402Y1311D01*
X400Y1311D01*
X400Y1313D01*
X398Y1313D01*
X398Y1315D01*
X396Y1315D01*
X396Y1317D01*
X394Y1317D01*
X394Y1319D01*
X392Y1319D01*
X392Y1321D01*
X390Y1321D01*
X390Y1323D01*
X388Y1323D01*
X388Y1325D01*
X386Y1325D01*
X386Y1327D01*
X384Y1327D01*
X384Y1329D01*
X382Y1329D01*
X382Y1331D01*
X380Y1331D01*
X380Y1333D01*
X378Y1333D01*
X378Y1335D01*
X376Y1335D01*
X376Y1337D01*
X374Y1337D01*
X374Y1339D01*
X372Y1339D01*
X372Y1341D01*
X370Y1341D01*
X370Y1343D01*
X368Y1343D01*
X368Y1345D01*
X366Y1345D01*
X366Y1347D01*
X364Y1347D01*
X364Y1349D01*
X362Y1349D01*
X362Y1351D01*
X360Y1351D01*
X360Y1353D01*
X358Y1353D01*
X358Y1355D01*
X356Y1355D01*
X356Y1357D01*
X354Y1357D01*
X354Y1359D01*
X352Y1359D01*
X352Y1361D01*
X350Y1361D01*
X350Y1363D01*
X348Y1363D01*
X348Y1365D01*
X346Y1365D01*
X346Y1367D01*
X344Y1367D01*
X344Y1369D01*
X342Y1369D01*
X342Y1371D01*
X340Y1371D01*
X340Y1373D01*
X338Y1373D01*
X338Y1375D01*
X336Y1375D01*
X336Y1377D01*
X334Y1377D01*
X334Y1379D01*
X332Y1379D01*
X332Y1381D01*
X330Y1381D01*
X330Y1383D01*
X328Y1383D01*
X328Y1385D01*
X326Y1385D01*
X326Y1387D01*
X324Y1387D01*
X324Y1389D01*
X322Y1389D01*
X322Y1391D01*
X320Y1391D01*
X320Y1393D01*
X318Y1393D01*
X318Y1395D01*
X316Y1395D01*
X316Y1397D01*
X314Y1397D01*
X314Y1399D01*
X312Y1399D01*
X312Y1401D01*
X310Y1401D01*
X310Y1403D01*
X308Y1403D01*
X308Y1405D01*
X306Y1405D01*
X306Y1407D01*
X304Y1407D01*
X304Y1409D01*
X302Y1409D01*
X302Y1411D01*
X300Y1411D01*
X300Y1413D01*
X298Y1413D01*
X298Y1415D01*
X296Y1415D01*
X296Y1417D01*
X294Y1417D01*
X294Y1419D01*
X292Y1419D01*
X292Y1421D01*
X290Y1421D01*
X290Y1423D01*
X288Y1423D01*
X288Y1425D01*
X286Y1425D01*
X286Y1427D01*
X284Y1427D01*
X284Y1429D01*
X282Y1429D01*
X282Y1431D01*
X280Y1431D01*
X280Y1433D01*
X278Y1433D01*
X278Y1435D01*
X276Y1435D01*
X276Y1437D01*
X274Y1437D01*
X274Y1439D01*
X272Y1439D01*
X272Y1441D01*
X270Y1441D01*
X270Y1443D01*
X268Y1443D01*
X268Y1445D01*
X266Y1445D01*
X266Y1447D01*
X264Y1447D01*
X264Y1449D01*
X262Y1449D01*
X262Y1451D01*
X260Y1451D01*
X260Y1453D01*
X258Y1453D01*
X258Y1455D01*
X256Y1455D01*
X256Y1457D01*
X254Y1457D01*
X254Y1459D01*
X252Y1459D01*
X252Y1461D01*
X250Y1461D01*
X250Y1463D01*
X248Y1463D01*
X248Y1465D01*
X246Y1465D01*
X246Y1467D01*
X244Y1467D01*
X244Y1469D01*
X242Y1469D01*
X242Y1471D01*
X240Y1471D01*
X240Y1473D01*
X238Y1473D01*
X238Y1475D01*
X236Y1475D01*
X236Y1477D01*
X234Y1477D01*
X234Y1479D01*
X232Y1479D01*
X232Y1481D01*
X230Y1481D01*
X230Y1483D01*
X228Y1483D01*
X228Y1485D01*
X226Y1485D01*
X226Y1489D01*
X224Y1489D01*
X224Y1493D01*
X222Y1493D01*
X222Y1543D01*
X220Y1543D01*
X220Y1545D01*
X216Y1545D01*
X216Y1547D01*
X212Y1547D01*
X212Y1549D01*
X210Y1549D01*
X210Y1551D01*
X208Y1551D01*
X208Y1553D01*
X206Y1553D01*
X206Y1555D01*
X202Y1555D01*
X202Y1557D01*
X200Y1557D01*
X200Y1561D01*
X198Y1561D01*
X198Y1563D01*
X196Y1563D01*
X196Y1565D01*
X194Y1565D01*
X194Y1569D01*
X192Y1569D01*
X192Y1573D01*
X190Y1573D01*
X190Y1577D01*
X188Y1577D01*
X188Y1583D01*
X186Y1583D01*
X186Y1597D01*
X184Y1597D01*
X184Y1599D01*
X186Y1599D01*
X186Y1613D01*
X188Y1613D01*
X188Y1619D01*
X190Y1619D01*
X190Y1625D01*
X192Y1625D01*
X192Y1627D01*
X194Y1627D01*
X194Y1631D01*
X196Y1631D01*
X196Y1633D01*
X198Y1633D01*
X198Y1637D01*
X200Y1637D01*
X200Y1639D01*
X202Y1639D01*
X202Y1641D01*
X204Y1641D01*
X204Y1643D01*
X206Y1643D01*
X206Y1645D01*
X210Y1645D01*
X210Y1647D01*
X212Y1647D01*
X212Y1649D01*
X216Y1649D01*
X216Y1651D01*
X218Y1651D01*
X218Y1653D01*
X222Y1653D01*
X222Y1905D01*
X224Y1905D01*
X224Y1909D01*
X226Y1909D01*
X226Y1911D01*
X228Y1911D01*
X228Y1913D01*
X230Y1913D01*
X230Y1915D01*
X232Y1915D01*
X232Y1917D01*
X234Y1917D01*
X234Y1919D01*
X236Y1919D01*
X236Y1921D01*
X238Y1921D01*
X238Y1923D01*
X240Y1923D01*
X240Y1925D01*
X242Y1925D01*
X242Y1927D01*
X244Y1927D01*
X244Y1929D01*
X246Y1929D01*
X246Y1931D01*
X248Y1931D01*
X248Y1933D01*
X250Y1933D01*
X250Y1935D01*
X252Y1935D01*
X252Y1937D01*
X254Y1937D01*
X254Y1939D01*
X256Y1939D01*
X256Y1941D01*
X258Y1941D01*
X258Y1943D01*
X260Y1943D01*
X260Y1945D01*
X262Y1945D01*
X262Y1947D01*
X264Y1947D01*
X264Y1949D01*
X266Y1949D01*
X266Y1951D01*
X268Y1951D01*
X268Y1953D01*
X270Y1953D01*
X270Y1955D01*
X272Y1955D01*
X272Y1957D01*
X274Y1957D01*
X274Y1959D01*
X276Y1959D01*
X276Y1961D01*
X278Y1961D01*
X278Y1963D01*
X280Y1963D01*
X280Y1965D01*
X282Y1965D01*
X282Y1967D01*
X284Y1967D01*
X284Y1969D01*
X286Y1969D01*
X286Y1971D01*
X288Y1971D01*
X288Y1973D01*
X290Y1973D01*
X290Y1975D01*
X292Y1975D01*
X292Y1977D01*
X294Y1977D01*
X294Y1979D01*
X296Y1979D01*
X296Y1981D01*
X298Y1981D01*
X298Y1983D01*
X300Y1983D01*
X300Y1985D01*
X302Y1985D01*
X302Y1987D01*
X304Y1987D01*
X304Y1989D01*
X306Y1989D01*
X306Y1991D01*
X308Y1991D01*
X308Y1993D01*
X310Y1993D01*
X310Y1995D01*
X312Y1995D01*
X312Y1997D01*
X314Y1997D01*
X314Y1999D01*
X316Y1999D01*
X316Y2001D01*
X318Y2001D01*
X318Y2003D01*
X320Y2003D01*
X320Y2005D01*
X322Y2005D01*
X322Y2007D01*
X324Y2007D01*
X324Y2009D01*
X326Y2009D01*
X326Y2011D01*
X328Y2011D01*
X328Y2013D01*
X330Y2013D01*
X330Y2015D01*
X332Y2015D01*
X332Y2017D01*
X334Y2017D01*
X334Y2019D01*
X340Y2019D01*
X340Y2021D01*
X402Y2021D01*
X402Y2025D01*
X404Y2025D01*
X404Y2027D01*
X406Y2027D01*
X406Y2029D01*
X408Y2029D01*
X408Y2033D01*
X412Y2033D01*
X412Y2035D01*
X414Y2035D01*
X414Y2037D01*
X416Y2037D01*
X416Y2039D01*
X420Y2039D01*
X420Y2041D01*
X422Y2041D01*
X422Y2043D01*
X428Y2043D01*
X428Y2045D01*
X434Y2045D01*
X434Y2047D01*
X324Y2047D01*
G37*
D02*
G36*
X1124Y2047D02*
X1124Y2045D01*
X1256Y2045D01*
X1256Y2043D01*
X1264Y2043D01*
X1264Y2041D01*
X1266Y2041D01*
X1266Y2039D01*
X1270Y2039D01*
X1270Y2037D01*
X1272Y2037D01*
X1272Y2035D01*
X1276Y2035D01*
X1276Y2033D01*
X1278Y2033D01*
X1278Y2031D01*
X1280Y2031D01*
X1280Y2029D01*
X1282Y2029D01*
X1282Y2025D01*
X1284Y2025D01*
X1284Y2023D01*
X1286Y2023D01*
X1286Y2019D01*
X1288Y2019D01*
X1288Y2015D01*
X1290Y2015D01*
X1290Y2007D01*
X1292Y2007D01*
X1292Y1981D01*
X1294Y1981D01*
X1294Y1979D01*
X1296Y1979D01*
X1296Y1977D01*
X1298Y1977D01*
X1298Y1975D01*
X1300Y1975D01*
X1300Y1973D01*
X1302Y1973D01*
X1302Y1971D01*
X1304Y1971D01*
X1304Y1969D01*
X1306Y1969D01*
X1306Y1967D01*
X1308Y1967D01*
X1308Y1965D01*
X1310Y1965D01*
X1310Y1963D01*
X1312Y1963D01*
X1312Y1961D01*
X1314Y1961D01*
X1314Y1959D01*
X1316Y1959D01*
X1316Y1957D01*
X1318Y1957D01*
X1318Y1955D01*
X1320Y1955D01*
X1320Y1953D01*
X1322Y1953D01*
X1322Y1951D01*
X1324Y1951D01*
X1324Y1949D01*
X1326Y1949D01*
X1326Y1947D01*
X1328Y1947D01*
X1328Y1945D01*
X1330Y1945D01*
X1330Y1943D01*
X1332Y1943D01*
X1332Y1941D01*
X1334Y1941D01*
X1334Y1939D01*
X1336Y1939D01*
X1336Y1937D01*
X1338Y1937D01*
X1338Y1935D01*
X1340Y1935D01*
X1340Y1933D01*
X1342Y1933D01*
X1342Y1931D01*
X1344Y1931D01*
X1344Y1929D01*
X1346Y1929D01*
X1346Y1927D01*
X1348Y1927D01*
X1348Y1925D01*
X1350Y1925D01*
X1350Y1923D01*
X1352Y1923D01*
X1352Y1921D01*
X1354Y1921D01*
X1354Y1919D01*
X1356Y1919D01*
X1356Y1917D01*
X1358Y1917D01*
X1358Y1915D01*
X1360Y1915D01*
X1360Y1911D01*
X1362Y1911D01*
X1362Y1909D01*
X1364Y1909D01*
X1364Y1903D01*
X1366Y1903D01*
X1366Y1849D01*
X1538Y1849D01*
X1538Y1851D01*
X1530Y1851D01*
X1530Y1853D01*
X1524Y1853D01*
X1524Y1855D01*
X1520Y1855D01*
X1520Y1857D01*
X1516Y1857D01*
X1516Y1859D01*
X1514Y1859D01*
X1514Y1861D01*
X1512Y1861D01*
X1512Y1863D01*
X1510Y1863D01*
X1510Y1865D01*
X1508Y1865D01*
X1508Y1867D01*
X1506Y1867D01*
X1506Y1869D01*
X1504Y1869D01*
X1504Y1873D01*
X1502Y1873D01*
X1502Y1877D01*
X1500Y1877D01*
X1500Y1881D01*
X1498Y1881D01*
X1498Y1887D01*
X1496Y1887D01*
X1496Y1909D01*
X1498Y1909D01*
X1498Y1917D01*
X1500Y1917D01*
X1500Y1921D01*
X1502Y1921D01*
X1502Y1925D01*
X1504Y1925D01*
X1504Y1927D01*
X1506Y1927D01*
X1506Y1929D01*
X1508Y1929D01*
X1508Y1933D01*
X1512Y1933D01*
X1512Y1935D01*
X1514Y1935D01*
X1514Y1937D01*
X1516Y1937D01*
X1516Y1959D01*
X1514Y1959D01*
X1514Y1961D01*
X1512Y1961D01*
X1512Y1963D01*
X1510Y1963D01*
X1510Y1965D01*
X1508Y1965D01*
X1508Y1967D01*
X1506Y1967D01*
X1506Y1969D01*
X1504Y1969D01*
X1504Y1973D01*
X1502Y1973D01*
X1502Y1977D01*
X1500Y1977D01*
X1500Y1981D01*
X1498Y1981D01*
X1498Y1987D01*
X1496Y1987D01*
X1496Y2009D01*
X1498Y2009D01*
X1498Y2017D01*
X1500Y2017D01*
X1500Y2021D01*
X1502Y2021D01*
X1502Y2025D01*
X1504Y2025D01*
X1504Y2027D01*
X1506Y2027D01*
X1506Y2029D01*
X1508Y2029D01*
X1508Y2033D01*
X1512Y2033D01*
X1512Y2035D01*
X1514Y2035D01*
X1514Y2037D01*
X1516Y2037D01*
X1516Y2039D01*
X1520Y2039D01*
X1520Y2041D01*
X1522Y2041D01*
X1522Y2043D01*
X1528Y2043D01*
X1528Y2045D01*
X1534Y2045D01*
X1534Y2047D01*
X1124Y2047D01*
G37*
D02*
G36*
X1122Y2045D02*
X1122Y2043D01*
X1120Y2043D01*
X1120Y2041D01*
X1118Y2041D01*
X1118Y2039D01*
X1116Y2039D01*
X1116Y2037D01*
X1114Y2037D01*
X1114Y2035D01*
X1112Y2035D01*
X1112Y2033D01*
X1110Y2033D01*
X1110Y2031D01*
X1108Y2031D01*
X1108Y2029D01*
X1106Y2029D01*
X1106Y2027D01*
X1104Y2027D01*
X1104Y2025D01*
X1102Y2025D01*
X1102Y2023D01*
X1100Y2023D01*
X1100Y2021D01*
X1098Y2021D01*
X1098Y2019D01*
X1096Y2019D01*
X1096Y2017D01*
X1094Y2017D01*
X1094Y2015D01*
X1092Y2015D01*
X1092Y1989D01*
X1090Y1989D01*
X1090Y1983D01*
X1088Y1983D01*
X1088Y1977D01*
X1086Y1977D01*
X1086Y1975D01*
X1084Y1975D01*
X1084Y1971D01*
X1082Y1971D01*
X1082Y1969D01*
X1080Y1969D01*
X1080Y1965D01*
X1078Y1965D01*
X1078Y1963D01*
X1074Y1963D01*
X1074Y1961D01*
X1072Y1961D01*
X1072Y1959D01*
X1070Y1959D01*
X1070Y1957D01*
X1066Y1957D01*
X1066Y1955D01*
X1062Y1955D01*
X1062Y1953D01*
X1054Y1953D01*
X1054Y1951D01*
X1168Y1951D01*
X1168Y1953D01*
X1170Y1953D01*
X1170Y1955D01*
X1172Y1955D01*
X1172Y1957D01*
X1174Y1957D01*
X1174Y1959D01*
X1176Y1959D01*
X1176Y1961D01*
X1178Y1961D01*
X1178Y1963D01*
X1180Y1963D01*
X1180Y1965D01*
X1182Y1965D01*
X1182Y1967D01*
X1184Y1967D01*
X1184Y1969D01*
X1186Y1969D01*
X1186Y1971D01*
X1188Y1971D01*
X1188Y1973D01*
X1190Y1973D01*
X1190Y1975D01*
X1192Y1975D01*
X1192Y1977D01*
X1194Y1977D01*
X1194Y1979D01*
X1196Y1979D01*
X1196Y1999D01*
X1198Y1999D01*
X1198Y2011D01*
X1200Y2011D01*
X1200Y2017D01*
X1202Y2017D01*
X1202Y2021D01*
X1204Y2021D01*
X1204Y2025D01*
X1206Y2025D01*
X1206Y2027D01*
X1208Y2027D01*
X1208Y2029D01*
X1210Y2029D01*
X1210Y2031D01*
X1212Y2031D01*
X1212Y2033D01*
X1214Y2033D01*
X1214Y2035D01*
X1216Y2035D01*
X1216Y2037D01*
X1218Y2037D01*
X1218Y2039D01*
X1222Y2039D01*
X1222Y2041D01*
X1226Y2041D01*
X1226Y2043D01*
X1232Y2043D01*
X1232Y2045D01*
X1122Y2045D01*
G37*
D02*
G36*
X354Y1977D02*
X354Y1975D01*
X352Y1975D01*
X352Y1973D01*
X350Y1973D01*
X350Y1971D01*
X348Y1971D01*
X348Y1969D01*
X346Y1969D01*
X346Y1967D01*
X344Y1967D01*
X344Y1965D01*
X342Y1965D01*
X342Y1963D01*
X340Y1963D01*
X340Y1961D01*
X338Y1961D01*
X338Y1959D01*
X336Y1959D01*
X336Y1957D01*
X334Y1957D01*
X334Y1955D01*
X332Y1955D01*
X332Y1953D01*
X330Y1953D01*
X330Y1951D01*
X328Y1951D01*
X328Y1949D01*
X326Y1949D01*
X326Y1947D01*
X324Y1947D01*
X324Y1945D01*
X322Y1945D01*
X322Y1943D01*
X320Y1943D01*
X320Y1941D01*
X318Y1941D01*
X318Y1939D01*
X316Y1939D01*
X316Y1937D01*
X314Y1937D01*
X314Y1935D01*
X312Y1935D01*
X312Y1933D01*
X310Y1933D01*
X310Y1931D01*
X308Y1931D01*
X308Y1929D01*
X306Y1929D01*
X306Y1927D01*
X304Y1927D01*
X304Y1925D01*
X302Y1925D01*
X302Y1923D01*
X300Y1923D01*
X300Y1921D01*
X298Y1921D01*
X298Y1919D01*
X296Y1919D01*
X296Y1917D01*
X294Y1917D01*
X294Y1915D01*
X292Y1915D01*
X292Y1913D01*
X290Y1913D01*
X290Y1911D01*
X288Y1911D01*
X288Y1909D01*
X286Y1909D01*
X286Y1907D01*
X284Y1907D01*
X284Y1905D01*
X282Y1905D01*
X282Y1903D01*
X280Y1903D01*
X280Y1901D01*
X278Y1901D01*
X278Y1899D01*
X276Y1899D01*
X276Y1897D01*
X274Y1897D01*
X274Y1895D01*
X272Y1895D01*
X272Y1893D01*
X270Y1893D01*
X270Y1891D01*
X268Y1891D01*
X268Y1889D01*
X266Y1889D01*
X266Y1849D01*
X438Y1849D01*
X438Y1851D01*
X430Y1851D01*
X430Y1853D01*
X424Y1853D01*
X424Y1855D01*
X420Y1855D01*
X420Y1857D01*
X416Y1857D01*
X416Y1859D01*
X414Y1859D01*
X414Y1861D01*
X412Y1861D01*
X412Y1863D01*
X410Y1863D01*
X410Y1865D01*
X408Y1865D01*
X408Y1867D01*
X406Y1867D01*
X406Y1869D01*
X404Y1869D01*
X404Y1873D01*
X402Y1873D01*
X402Y1877D01*
X400Y1877D01*
X400Y1881D01*
X398Y1881D01*
X398Y1887D01*
X396Y1887D01*
X396Y1909D01*
X398Y1909D01*
X398Y1917D01*
X400Y1917D01*
X400Y1921D01*
X402Y1921D01*
X402Y1925D01*
X404Y1925D01*
X404Y1927D01*
X406Y1927D01*
X406Y1929D01*
X408Y1929D01*
X408Y1933D01*
X412Y1933D01*
X412Y1935D01*
X414Y1935D01*
X414Y1937D01*
X416Y1937D01*
X416Y1959D01*
X414Y1959D01*
X414Y1961D01*
X412Y1961D01*
X412Y1963D01*
X410Y1963D01*
X410Y1965D01*
X408Y1965D01*
X408Y1967D01*
X406Y1967D01*
X406Y1969D01*
X404Y1969D01*
X404Y1973D01*
X402Y1973D01*
X402Y1977D01*
X354Y1977D01*
G37*
D02*
G36*
X472Y1951D02*
X472Y1949D01*
X1166Y1949D01*
X1166Y1951D01*
X472Y1951D01*
G37*
D02*
G36*
X472Y1951D02*
X472Y1949D01*
X1166Y1949D01*
X1166Y1951D01*
X472Y1951D01*
G37*
D02*
G36*
X472Y1951D02*
X472Y1949D01*
X1166Y1949D01*
X1166Y1951D01*
X472Y1951D01*
G37*
D02*
G36*
X1228Y1951D02*
X1228Y1949D01*
X1226Y1949D01*
X1226Y1947D01*
X1224Y1947D01*
X1224Y1945D01*
X1222Y1945D01*
X1222Y1943D01*
X1220Y1943D01*
X1220Y1941D01*
X1218Y1941D01*
X1218Y1939D01*
X1216Y1939D01*
X1216Y1937D01*
X1214Y1937D01*
X1214Y1935D01*
X1212Y1935D01*
X1212Y1933D01*
X1210Y1933D01*
X1210Y1931D01*
X1208Y1931D01*
X1208Y1929D01*
X1206Y1929D01*
X1206Y1927D01*
X1204Y1927D01*
X1204Y1925D01*
X1202Y1925D01*
X1202Y1923D01*
X1200Y1923D01*
X1200Y1921D01*
X1198Y1921D01*
X1198Y1919D01*
X1196Y1919D01*
X1196Y1917D01*
X1194Y1917D01*
X1194Y1915D01*
X1192Y1915D01*
X1192Y1913D01*
X1190Y1913D01*
X1190Y1911D01*
X1188Y1911D01*
X1188Y1909D01*
X1186Y1909D01*
X1186Y1907D01*
X1184Y1907D01*
X1184Y1905D01*
X1182Y1905D01*
X1182Y1903D01*
X1180Y1903D01*
X1180Y1901D01*
X1178Y1901D01*
X1178Y1899D01*
X1176Y1899D01*
X1176Y1897D01*
X1174Y1897D01*
X1174Y1895D01*
X1172Y1895D01*
X1172Y1893D01*
X1170Y1893D01*
X1170Y1891D01*
X1168Y1891D01*
X1168Y1889D01*
X1166Y1889D01*
X1166Y1887D01*
X1164Y1887D01*
X1164Y1885D01*
X1162Y1885D01*
X1162Y1883D01*
X1160Y1883D01*
X1160Y1881D01*
X1158Y1881D01*
X1158Y1879D01*
X1156Y1879D01*
X1156Y1877D01*
X1154Y1877D01*
X1154Y1875D01*
X1152Y1875D01*
X1152Y1873D01*
X1150Y1873D01*
X1150Y1871D01*
X1148Y1871D01*
X1148Y1869D01*
X1146Y1869D01*
X1146Y1867D01*
X1144Y1867D01*
X1144Y1865D01*
X1142Y1865D01*
X1142Y1863D01*
X1140Y1863D01*
X1140Y1861D01*
X1138Y1861D01*
X1138Y1859D01*
X1136Y1859D01*
X1136Y1857D01*
X1134Y1857D01*
X1134Y1855D01*
X1132Y1855D01*
X1132Y1853D01*
X1130Y1853D01*
X1130Y1851D01*
X1128Y1851D01*
X1128Y1849D01*
X1126Y1849D01*
X1126Y1847D01*
X1124Y1847D01*
X1124Y1845D01*
X1122Y1845D01*
X1122Y1843D01*
X1120Y1843D01*
X1120Y1841D01*
X1118Y1841D01*
X1118Y1839D01*
X1116Y1839D01*
X1116Y1837D01*
X1114Y1837D01*
X1114Y1835D01*
X1112Y1835D01*
X1112Y1833D01*
X1110Y1833D01*
X1110Y1831D01*
X1108Y1831D01*
X1108Y1829D01*
X1106Y1829D01*
X1106Y1827D01*
X1104Y1827D01*
X1104Y1825D01*
X1102Y1825D01*
X1102Y1823D01*
X1100Y1823D01*
X1100Y1821D01*
X1098Y1821D01*
X1098Y1819D01*
X1096Y1819D01*
X1096Y1817D01*
X1094Y1817D01*
X1094Y1815D01*
X1092Y1815D01*
X1092Y1813D01*
X1090Y1813D01*
X1090Y1811D01*
X1088Y1811D01*
X1088Y1809D01*
X1086Y1809D01*
X1086Y1807D01*
X1084Y1807D01*
X1084Y1805D01*
X1082Y1805D01*
X1082Y1803D01*
X1080Y1803D01*
X1080Y1801D01*
X1078Y1801D01*
X1078Y1799D01*
X1076Y1799D01*
X1076Y1797D01*
X1074Y1797D01*
X1074Y1795D01*
X1072Y1795D01*
X1072Y1793D01*
X1070Y1793D01*
X1070Y1791D01*
X1068Y1791D01*
X1068Y1789D01*
X1066Y1789D01*
X1066Y1787D01*
X1064Y1787D01*
X1064Y1785D01*
X1062Y1785D01*
X1062Y1783D01*
X1060Y1783D01*
X1060Y1781D01*
X1058Y1781D01*
X1058Y1779D01*
X1054Y1779D01*
X1054Y1777D01*
X652Y1777D01*
X652Y1775D01*
X650Y1775D01*
X650Y1773D01*
X648Y1773D01*
X648Y1771D01*
X646Y1771D01*
X646Y1769D01*
X644Y1769D01*
X644Y1767D01*
X642Y1767D01*
X642Y1765D01*
X640Y1765D01*
X640Y1763D01*
X638Y1763D01*
X638Y1761D01*
X636Y1761D01*
X636Y1759D01*
X634Y1759D01*
X634Y1757D01*
X632Y1757D01*
X632Y1755D01*
X630Y1755D01*
X630Y1753D01*
X628Y1753D01*
X628Y1751D01*
X626Y1751D01*
X626Y1749D01*
X624Y1749D01*
X624Y1747D01*
X622Y1747D01*
X622Y1745D01*
X620Y1745D01*
X620Y1743D01*
X618Y1743D01*
X618Y1741D01*
X616Y1741D01*
X616Y1739D01*
X614Y1739D01*
X614Y1737D01*
X612Y1737D01*
X612Y1735D01*
X610Y1735D01*
X610Y1733D01*
X608Y1733D01*
X608Y1731D01*
X606Y1731D01*
X606Y1729D01*
X604Y1729D01*
X604Y1727D01*
X602Y1727D01*
X602Y1725D01*
X600Y1725D01*
X600Y1723D01*
X598Y1723D01*
X598Y1721D01*
X596Y1721D01*
X596Y1719D01*
X1154Y1719D01*
X1154Y1717D01*
X1156Y1717D01*
X1156Y1715D01*
X1160Y1715D01*
X1160Y1713D01*
X1162Y1713D01*
X1162Y1711D01*
X1164Y1711D01*
X1164Y1709D01*
X1166Y1709D01*
X1166Y1707D01*
X1168Y1707D01*
X1168Y1705D01*
X1170Y1705D01*
X1170Y1703D01*
X1172Y1703D01*
X1172Y1701D01*
X1174Y1701D01*
X1174Y1699D01*
X1176Y1699D01*
X1176Y1697D01*
X1178Y1697D01*
X1178Y1695D01*
X1180Y1695D01*
X1180Y1693D01*
X1182Y1693D01*
X1182Y1691D01*
X1184Y1691D01*
X1184Y1689D01*
X1186Y1689D01*
X1186Y1687D01*
X1188Y1687D01*
X1188Y1685D01*
X1190Y1685D01*
X1190Y1683D01*
X1192Y1683D01*
X1192Y1681D01*
X1194Y1681D01*
X1194Y1679D01*
X1196Y1679D01*
X1196Y1677D01*
X1198Y1677D01*
X1198Y1675D01*
X1200Y1675D01*
X1200Y1673D01*
X1202Y1673D01*
X1202Y1671D01*
X1204Y1671D01*
X1204Y1669D01*
X1206Y1669D01*
X1206Y1667D01*
X1208Y1667D01*
X1208Y1665D01*
X1210Y1665D01*
X1210Y1663D01*
X1212Y1663D01*
X1212Y1661D01*
X1214Y1661D01*
X1214Y1659D01*
X1216Y1659D01*
X1216Y1657D01*
X1218Y1657D01*
X1218Y1655D01*
X1220Y1655D01*
X1220Y1653D01*
X1222Y1653D01*
X1222Y1651D01*
X1224Y1651D01*
X1224Y1649D01*
X1226Y1649D01*
X1226Y1647D01*
X1228Y1647D01*
X1228Y1645D01*
X1256Y1645D01*
X1256Y1643D01*
X1264Y1643D01*
X1264Y1641D01*
X1266Y1641D01*
X1266Y1639D01*
X1270Y1639D01*
X1270Y1637D01*
X1272Y1637D01*
X1272Y1635D01*
X1276Y1635D01*
X1276Y1633D01*
X1278Y1633D01*
X1278Y1631D01*
X1280Y1631D01*
X1280Y1629D01*
X1282Y1629D01*
X1282Y1625D01*
X1284Y1625D01*
X1284Y1623D01*
X1286Y1623D01*
X1286Y1619D01*
X1288Y1619D01*
X1288Y1615D01*
X1290Y1615D01*
X1290Y1607D01*
X1292Y1607D01*
X1292Y1589D01*
X1290Y1589D01*
X1290Y1583D01*
X1288Y1583D01*
X1288Y1577D01*
X1286Y1577D01*
X1286Y1575D01*
X1284Y1575D01*
X1284Y1571D01*
X1282Y1571D01*
X1282Y1569D01*
X1280Y1569D01*
X1280Y1565D01*
X1278Y1565D01*
X1278Y1563D01*
X1274Y1563D01*
X1274Y1561D01*
X1272Y1561D01*
X1272Y1559D01*
X1270Y1559D01*
X1270Y1557D01*
X1266Y1557D01*
X1266Y1555D01*
X1262Y1555D01*
X1262Y1553D01*
X1254Y1553D01*
X1254Y1551D01*
X1322Y1551D01*
X1322Y1891D01*
X1320Y1891D01*
X1320Y1893D01*
X1318Y1893D01*
X1318Y1895D01*
X1316Y1895D01*
X1316Y1897D01*
X1314Y1897D01*
X1314Y1899D01*
X1312Y1899D01*
X1312Y1901D01*
X1310Y1901D01*
X1310Y1903D01*
X1308Y1903D01*
X1308Y1905D01*
X1306Y1905D01*
X1306Y1907D01*
X1304Y1907D01*
X1304Y1909D01*
X1302Y1909D01*
X1302Y1911D01*
X1300Y1911D01*
X1300Y1913D01*
X1298Y1913D01*
X1298Y1915D01*
X1296Y1915D01*
X1296Y1917D01*
X1294Y1917D01*
X1294Y1919D01*
X1292Y1919D01*
X1292Y1921D01*
X1290Y1921D01*
X1290Y1923D01*
X1288Y1923D01*
X1288Y1925D01*
X1286Y1925D01*
X1286Y1927D01*
X1284Y1927D01*
X1284Y1929D01*
X1282Y1929D01*
X1282Y1931D01*
X1280Y1931D01*
X1280Y1933D01*
X1278Y1933D01*
X1278Y1935D01*
X1276Y1935D01*
X1276Y1937D01*
X1274Y1937D01*
X1274Y1939D01*
X1272Y1939D01*
X1272Y1941D01*
X1270Y1941D01*
X1270Y1943D01*
X1268Y1943D01*
X1268Y1945D01*
X1266Y1945D01*
X1266Y1947D01*
X1264Y1947D01*
X1264Y1949D01*
X1262Y1949D01*
X1262Y1951D01*
X1228Y1951D01*
G37*
D02*
G36*
X472Y1949D02*
X472Y1937D01*
X476Y1937D01*
X476Y1935D01*
X478Y1935D01*
X478Y1933D01*
X480Y1933D01*
X480Y1931D01*
X482Y1931D01*
X482Y1929D01*
X484Y1929D01*
X484Y1925D01*
X486Y1925D01*
X486Y1923D01*
X488Y1923D01*
X488Y1919D01*
X490Y1919D01*
X490Y1913D01*
X492Y1913D01*
X492Y1905D01*
X494Y1905D01*
X494Y1893D01*
X492Y1893D01*
X492Y1883D01*
X490Y1883D01*
X490Y1879D01*
X488Y1879D01*
X488Y1875D01*
X486Y1875D01*
X486Y1871D01*
X484Y1871D01*
X484Y1869D01*
X482Y1869D01*
X482Y1867D01*
X480Y1867D01*
X480Y1863D01*
X478Y1863D01*
X478Y1861D01*
X474Y1861D01*
X474Y1859D01*
X472Y1859D01*
X472Y1857D01*
X468Y1857D01*
X468Y1855D01*
X464Y1855D01*
X464Y1853D01*
X460Y1853D01*
X460Y1851D01*
X452Y1851D01*
X452Y1849D01*
X1066Y1849D01*
X1066Y1851D01*
X1068Y1851D01*
X1068Y1853D01*
X1070Y1853D01*
X1070Y1855D01*
X1072Y1855D01*
X1072Y1857D01*
X1074Y1857D01*
X1074Y1859D01*
X1076Y1859D01*
X1076Y1861D01*
X1078Y1861D01*
X1078Y1863D01*
X1080Y1863D01*
X1080Y1865D01*
X1082Y1865D01*
X1082Y1867D01*
X1084Y1867D01*
X1084Y1869D01*
X1086Y1869D01*
X1086Y1871D01*
X1088Y1871D01*
X1088Y1873D01*
X1090Y1873D01*
X1090Y1875D01*
X1092Y1875D01*
X1092Y1877D01*
X1094Y1877D01*
X1094Y1879D01*
X1096Y1879D01*
X1096Y1881D01*
X1098Y1881D01*
X1098Y1883D01*
X1100Y1883D01*
X1100Y1885D01*
X1102Y1885D01*
X1102Y1887D01*
X1104Y1887D01*
X1104Y1889D01*
X1106Y1889D01*
X1106Y1891D01*
X1108Y1891D01*
X1108Y1893D01*
X1110Y1893D01*
X1110Y1895D01*
X1112Y1895D01*
X1112Y1897D01*
X1114Y1897D01*
X1114Y1899D01*
X1116Y1899D01*
X1116Y1901D01*
X1118Y1901D01*
X1118Y1903D01*
X1120Y1903D01*
X1120Y1905D01*
X1122Y1905D01*
X1122Y1907D01*
X1124Y1907D01*
X1124Y1909D01*
X1126Y1909D01*
X1126Y1911D01*
X1128Y1911D01*
X1128Y1913D01*
X1130Y1913D01*
X1130Y1915D01*
X1132Y1915D01*
X1132Y1917D01*
X1134Y1917D01*
X1134Y1919D01*
X1136Y1919D01*
X1136Y1921D01*
X1138Y1921D01*
X1138Y1923D01*
X1140Y1923D01*
X1140Y1925D01*
X1142Y1925D01*
X1142Y1927D01*
X1144Y1927D01*
X1144Y1929D01*
X1146Y1929D01*
X1146Y1931D01*
X1148Y1931D01*
X1148Y1933D01*
X1150Y1933D01*
X1150Y1935D01*
X1152Y1935D01*
X1152Y1937D01*
X1154Y1937D01*
X1154Y1939D01*
X1156Y1939D01*
X1156Y1941D01*
X1158Y1941D01*
X1158Y1943D01*
X1160Y1943D01*
X1160Y1945D01*
X1162Y1945D01*
X1162Y1947D01*
X1164Y1947D01*
X1164Y1949D01*
X472Y1949D01*
G37*
D02*
G36*
X1594Y1899D02*
X1594Y1893D01*
X1592Y1893D01*
X1592Y1883D01*
X1590Y1883D01*
X1590Y1879D01*
X1588Y1879D01*
X1588Y1875D01*
X1586Y1875D01*
X1586Y1871D01*
X1584Y1871D01*
X1584Y1869D01*
X1582Y1869D01*
X1582Y1867D01*
X1580Y1867D01*
X1580Y1863D01*
X1578Y1863D01*
X1578Y1861D01*
X1574Y1861D01*
X1574Y1859D01*
X1572Y1859D01*
X1572Y1857D01*
X1568Y1857D01*
X1568Y1855D01*
X1564Y1855D01*
X1564Y1853D01*
X1560Y1853D01*
X1560Y1851D01*
X1552Y1851D01*
X1552Y1849D01*
X1622Y1849D01*
X1622Y1891D01*
X1620Y1891D01*
X1620Y1893D01*
X1618Y1893D01*
X1618Y1895D01*
X1616Y1895D01*
X1616Y1897D01*
X1614Y1897D01*
X1614Y1899D01*
X1594Y1899D01*
G37*
D02*
G36*
X266Y1849D02*
X266Y1847D01*
X1064Y1847D01*
X1064Y1849D01*
X266Y1849D01*
G37*
D02*
G36*
X266Y1849D02*
X266Y1847D01*
X1064Y1847D01*
X1064Y1849D01*
X266Y1849D01*
G37*
D02*
G36*
X1366Y1849D02*
X1366Y1847D01*
X1622Y1847D01*
X1622Y1849D01*
X1366Y1849D01*
G37*
D02*
G36*
X1366Y1849D02*
X1366Y1847D01*
X1622Y1847D01*
X1622Y1849D01*
X1366Y1849D01*
G37*
D02*
G36*
X266Y1847D02*
X266Y1653D01*
X270Y1653D01*
X270Y1651D01*
X274Y1651D01*
X274Y1649D01*
X276Y1649D01*
X276Y1647D01*
X280Y1647D01*
X280Y1645D01*
X282Y1645D01*
X282Y1643D01*
X284Y1643D01*
X284Y1641D01*
X286Y1641D01*
X286Y1639D01*
X288Y1639D01*
X288Y1637D01*
X290Y1637D01*
X290Y1635D01*
X292Y1635D01*
X292Y1633D01*
X294Y1633D01*
X294Y1629D01*
X296Y1629D01*
X296Y1627D01*
X298Y1627D01*
X298Y1623D01*
X300Y1623D01*
X300Y1617D01*
X302Y1617D01*
X302Y1607D01*
X304Y1607D01*
X304Y1589D01*
X302Y1589D01*
X302Y1581D01*
X300Y1581D01*
X300Y1575D01*
X298Y1575D01*
X298Y1571D01*
X296Y1571D01*
X296Y1567D01*
X294Y1567D01*
X294Y1565D01*
X292Y1565D01*
X292Y1561D01*
X290Y1561D01*
X290Y1559D01*
X288Y1559D01*
X288Y1557D01*
X286Y1557D01*
X286Y1555D01*
X284Y1555D01*
X284Y1553D01*
X282Y1553D01*
X282Y1551D01*
X278Y1551D01*
X278Y1549D01*
X276Y1549D01*
X276Y1547D01*
X272Y1547D01*
X272Y1545D01*
X268Y1545D01*
X268Y1543D01*
X266Y1543D01*
X266Y1539D01*
X384Y1539D01*
X384Y1657D01*
X472Y1657D01*
X472Y1659D01*
X474Y1659D01*
X474Y1661D01*
X476Y1661D01*
X476Y1663D01*
X478Y1663D01*
X478Y1665D01*
X480Y1665D01*
X480Y1667D01*
X482Y1667D01*
X482Y1669D01*
X484Y1669D01*
X484Y1671D01*
X486Y1671D01*
X486Y1673D01*
X488Y1673D01*
X488Y1675D01*
X490Y1675D01*
X490Y1677D01*
X492Y1677D01*
X492Y1679D01*
X494Y1679D01*
X494Y1681D01*
X496Y1681D01*
X496Y1683D01*
X498Y1683D01*
X498Y1685D01*
X500Y1685D01*
X500Y1687D01*
X502Y1687D01*
X502Y1689D01*
X504Y1689D01*
X504Y1691D01*
X506Y1691D01*
X506Y1693D01*
X508Y1693D01*
X508Y1695D01*
X510Y1695D01*
X510Y1697D01*
X512Y1697D01*
X512Y1699D01*
X514Y1699D01*
X514Y1701D01*
X516Y1701D01*
X516Y1703D01*
X518Y1703D01*
X518Y1705D01*
X520Y1705D01*
X520Y1707D01*
X522Y1707D01*
X522Y1709D01*
X524Y1709D01*
X524Y1711D01*
X526Y1711D01*
X526Y1713D01*
X528Y1713D01*
X528Y1715D01*
X530Y1715D01*
X530Y1717D01*
X532Y1717D01*
X532Y1719D01*
X534Y1719D01*
X534Y1721D01*
X536Y1721D01*
X536Y1723D01*
X538Y1723D01*
X538Y1725D01*
X540Y1725D01*
X540Y1727D01*
X542Y1727D01*
X542Y1729D01*
X544Y1729D01*
X544Y1731D01*
X546Y1731D01*
X546Y1733D01*
X548Y1733D01*
X548Y1735D01*
X550Y1735D01*
X550Y1737D01*
X552Y1737D01*
X552Y1739D01*
X554Y1739D01*
X554Y1741D01*
X556Y1741D01*
X556Y1743D01*
X558Y1743D01*
X558Y1745D01*
X560Y1745D01*
X560Y1747D01*
X562Y1747D01*
X562Y1749D01*
X564Y1749D01*
X564Y1751D01*
X566Y1751D01*
X566Y1753D01*
X568Y1753D01*
X568Y1755D01*
X570Y1755D01*
X570Y1757D01*
X572Y1757D01*
X572Y1759D01*
X574Y1759D01*
X574Y1761D01*
X576Y1761D01*
X576Y1763D01*
X578Y1763D01*
X578Y1765D01*
X580Y1765D01*
X580Y1767D01*
X582Y1767D01*
X582Y1769D01*
X584Y1769D01*
X584Y1771D01*
X586Y1771D01*
X586Y1773D01*
X588Y1773D01*
X588Y1775D01*
X590Y1775D01*
X590Y1777D01*
X592Y1777D01*
X592Y1779D01*
X594Y1779D01*
X594Y1781D01*
X596Y1781D01*
X596Y1783D01*
X598Y1783D01*
X598Y1785D01*
X600Y1785D01*
X600Y1787D01*
X602Y1787D01*
X602Y1789D01*
X604Y1789D01*
X604Y1791D01*
X606Y1791D01*
X606Y1793D01*
X608Y1793D01*
X608Y1795D01*
X610Y1795D01*
X610Y1797D01*
X612Y1797D01*
X612Y1799D01*
X614Y1799D01*
X614Y1801D01*
X616Y1801D01*
X616Y1803D01*
X618Y1803D01*
X618Y1805D01*
X620Y1805D01*
X620Y1807D01*
X622Y1807D01*
X622Y1809D01*
X624Y1809D01*
X624Y1811D01*
X626Y1811D01*
X626Y1813D01*
X628Y1813D01*
X628Y1815D01*
X630Y1815D01*
X630Y1817D01*
X634Y1817D01*
X634Y1819D01*
X642Y1819D01*
X642Y1821D01*
X1038Y1821D01*
X1038Y1823D01*
X1040Y1823D01*
X1040Y1825D01*
X1042Y1825D01*
X1042Y1827D01*
X1044Y1827D01*
X1044Y1829D01*
X1046Y1829D01*
X1046Y1831D01*
X1048Y1831D01*
X1048Y1833D01*
X1050Y1833D01*
X1050Y1835D01*
X1052Y1835D01*
X1052Y1837D01*
X1054Y1837D01*
X1054Y1839D01*
X1056Y1839D01*
X1056Y1841D01*
X1058Y1841D01*
X1058Y1843D01*
X1060Y1843D01*
X1060Y1845D01*
X1062Y1845D01*
X1062Y1847D01*
X266Y1847D01*
G37*
D02*
G36*
X1366Y1847D02*
X1366Y1657D01*
X1458Y1657D01*
X1458Y1655D01*
X1466Y1655D01*
X1466Y1653D01*
X1470Y1653D01*
X1470Y1651D01*
X1474Y1651D01*
X1474Y1649D01*
X1476Y1649D01*
X1476Y1647D01*
X1480Y1647D01*
X1480Y1645D01*
X1482Y1645D01*
X1482Y1643D01*
X1484Y1643D01*
X1484Y1641D01*
X1486Y1641D01*
X1486Y1639D01*
X1488Y1639D01*
X1488Y1637D01*
X1490Y1637D01*
X1490Y1635D01*
X1492Y1635D01*
X1492Y1633D01*
X1494Y1633D01*
X1494Y1629D01*
X1496Y1629D01*
X1496Y1627D01*
X1498Y1627D01*
X1498Y1623D01*
X1500Y1623D01*
X1500Y1617D01*
X1502Y1617D01*
X1502Y1607D01*
X1504Y1607D01*
X1504Y1589D01*
X1502Y1589D01*
X1502Y1581D01*
X1500Y1581D01*
X1500Y1575D01*
X1498Y1575D01*
X1498Y1571D01*
X1496Y1571D01*
X1496Y1567D01*
X1494Y1567D01*
X1494Y1565D01*
X1492Y1565D01*
X1492Y1561D01*
X1490Y1561D01*
X1490Y1559D01*
X1488Y1559D01*
X1488Y1557D01*
X1486Y1557D01*
X1486Y1555D01*
X1484Y1555D01*
X1484Y1553D01*
X1482Y1553D01*
X1482Y1551D01*
X1478Y1551D01*
X1478Y1549D01*
X1476Y1549D01*
X1476Y1547D01*
X1472Y1547D01*
X1472Y1545D01*
X1468Y1545D01*
X1468Y1543D01*
X1464Y1543D01*
X1464Y1541D01*
X1456Y1541D01*
X1456Y1539D01*
X1584Y1539D01*
X1584Y1657D01*
X1622Y1657D01*
X1622Y1847D01*
X1366Y1847D01*
G37*
D02*
G36*
X594Y1719D02*
X594Y1717D01*
X592Y1717D01*
X592Y1715D01*
X590Y1715D01*
X590Y1713D01*
X588Y1713D01*
X588Y1711D01*
X586Y1711D01*
X586Y1709D01*
X584Y1709D01*
X584Y1707D01*
X582Y1707D01*
X582Y1705D01*
X580Y1705D01*
X580Y1703D01*
X578Y1703D01*
X578Y1701D01*
X576Y1701D01*
X576Y1699D01*
X574Y1699D01*
X574Y1697D01*
X572Y1697D01*
X572Y1695D01*
X570Y1695D01*
X570Y1693D01*
X568Y1693D01*
X568Y1691D01*
X566Y1691D01*
X566Y1689D01*
X564Y1689D01*
X564Y1687D01*
X562Y1687D01*
X562Y1685D01*
X560Y1685D01*
X560Y1683D01*
X558Y1683D01*
X558Y1681D01*
X556Y1681D01*
X556Y1679D01*
X554Y1679D01*
X554Y1677D01*
X552Y1677D01*
X552Y1675D01*
X550Y1675D01*
X550Y1673D01*
X548Y1673D01*
X548Y1671D01*
X546Y1671D01*
X546Y1669D01*
X544Y1669D01*
X544Y1667D01*
X542Y1667D01*
X542Y1665D01*
X540Y1665D01*
X540Y1663D01*
X538Y1663D01*
X538Y1659D01*
X536Y1659D01*
X536Y1657D01*
X534Y1657D01*
X534Y1655D01*
X532Y1655D01*
X532Y1653D01*
X530Y1653D01*
X530Y1651D01*
X528Y1651D01*
X528Y1649D01*
X526Y1649D01*
X526Y1647D01*
X524Y1647D01*
X524Y1645D01*
X522Y1645D01*
X522Y1643D01*
X520Y1643D01*
X520Y1641D01*
X518Y1641D01*
X518Y1639D01*
X516Y1639D01*
X516Y1637D01*
X514Y1637D01*
X514Y1635D01*
X512Y1635D01*
X512Y1633D01*
X510Y1633D01*
X510Y1631D01*
X508Y1631D01*
X508Y1629D01*
X506Y1629D01*
X506Y1627D01*
X504Y1627D01*
X504Y1539D01*
X622Y1539D01*
X622Y1605D01*
X624Y1605D01*
X624Y1609D01*
X626Y1609D01*
X626Y1613D01*
X628Y1613D01*
X628Y1615D01*
X630Y1615D01*
X630Y1617D01*
X632Y1617D01*
X632Y1619D01*
X634Y1619D01*
X634Y1621D01*
X636Y1621D01*
X636Y1623D01*
X638Y1623D01*
X638Y1625D01*
X640Y1625D01*
X640Y1627D01*
X642Y1627D01*
X642Y1629D01*
X644Y1629D01*
X644Y1631D01*
X646Y1631D01*
X646Y1633D01*
X648Y1633D01*
X648Y1635D01*
X650Y1635D01*
X650Y1637D01*
X652Y1637D01*
X652Y1639D01*
X654Y1639D01*
X654Y1641D01*
X656Y1641D01*
X656Y1643D01*
X658Y1643D01*
X658Y1645D01*
X660Y1645D01*
X660Y1647D01*
X662Y1647D01*
X662Y1649D01*
X666Y1649D01*
X666Y1651D01*
X668Y1651D01*
X668Y1653D01*
X670Y1653D01*
X670Y1655D01*
X672Y1655D01*
X672Y1657D01*
X674Y1657D01*
X674Y1659D01*
X676Y1659D01*
X676Y1661D01*
X678Y1661D01*
X678Y1663D01*
X680Y1663D01*
X680Y1665D01*
X682Y1665D01*
X682Y1667D01*
X684Y1667D01*
X684Y1669D01*
X686Y1669D01*
X686Y1671D01*
X688Y1671D01*
X688Y1673D01*
X690Y1673D01*
X690Y1675D01*
X692Y1675D01*
X692Y1677D01*
X694Y1677D01*
X694Y1679D01*
X696Y1679D01*
X696Y1681D01*
X698Y1681D01*
X698Y1683D01*
X700Y1683D01*
X700Y1685D01*
X702Y1685D01*
X702Y1687D01*
X704Y1687D01*
X704Y1689D01*
X706Y1689D01*
X706Y1691D01*
X708Y1691D01*
X708Y1693D01*
X710Y1693D01*
X710Y1695D01*
X712Y1695D01*
X712Y1697D01*
X714Y1697D01*
X714Y1699D01*
X716Y1699D01*
X716Y1701D01*
X718Y1701D01*
X718Y1703D01*
X720Y1703D01*
X720Y1705D01*
X722Y1705D01*
X722Y1707D01*
X724Y1707D01*
X724Y1709D01*
X726Y1709D01*
X726Y1711D01*
X728Y1711D01*
X728Y1713D01*
X730Y1713D01*
X730Y1715D01*
X734Y1715D01*
X734Y1717D01*
X738Y1717D01*
X738Y1719D01*
X594Y1719D01*
G37*
D02*
G36*
X752Y1675D02*
X752Y1673D01*
X750Y1673D01*
X750Y1671D01*
X748Y1671D01*
X748Y1669D01*
X746Y1669D01*
X746Y1667D01*
X744Y1667D01*
X744Y1665D01*
X742Y1665D01*
X742Y1645D01*
X1056Y1645D01*
X1056Y1643D01*
X1064Y1643D01*
X1064Y1641D01*
X1066Y1641D01*
X1066Y1639D01*
X1070Y1639D01*
X1070Y1637D01*
X1072Y1637D01*
X1072Y1635D01*
X1076Y1635D01*
X1076Y1633D01*
X1078Y1633D01*
X1078Y1631D01*
X1080Y1631D01*
X1080Y1629D01*
X1082Y1629D01*
X1082Y1625D01*
X1084Y1625D01*
X1084Y1623D01*
X1086Y1623D01*
X1086Y1619D01*
X1088Y1619D01*
X1088Y1615D01*
X1090Y1615D01*
X1090Y1607D01*
X1092Y1607D01*
X1092Y1589D01*
X1090Y1589D01*
X1090Y1583D01*
X1088Y1583D01*
X1088Y1577D01*
X1086Y1577D01*
X1086Y1575D01*
X1084Y1575D01*
X1084Y1571D01*
X1082Y1571D01*
X1082Y1569D01*
X1080Y1569D01*
X1080Y1565D01*
X1078Y1565D01*
X1078Y1563D01*
X1074Y1563D01*
X1074Y1561D01*
X1072Y1561D01*
X1072Y1559D01*
X1070Y1559D01*
X1070Y1557D01*
X1066Y1557D01*
X1066Y1551D01*
X1234Y1551D01*
X1234Y1553D01*
X1228Y1553D01*
X1228Y1555D01*
X1224Y1555D01*
X1224Y1557D01*
X1220Y1557D01*
X1220Y1559D01*
X1216Y1559D01*
X1216Y1561D01*
X1214Y1561D01*
X1214Y1563D01*
X1212Y1563D01*
X1212Y1565D01*
X1210Y1565D01*
X1210Y1567D01*
X1208Y1567D01*
X1208Y1569D01*
X1206Y1569D01*
X1206Y1573D01*
X1204Y1573D01*
X1204Y1575D01*
X1202Y1575D01*
X1202Y1579D01*
X1200Y1579D01*
X1200Y1585D01*
X1198Y1585D01*
X1198Y1597D01*
X1196Y1597D01*
X1196Y1617D01*
X1194Y1617D01*
X1194Y1619D01*
X1192Y1619D01*
X1192Y1621D01*
X1190Y1621D01*
X1190Y1623D01*
X1188Y1623D01*
X1188Y1625D01*
X1186Y1625D01*
X1186Y1627D01*
X1184Y1627D01*
X1184Y1629D01*
X1182Y1629D01*
X1182Y1631D01*
X1180Y1631D01*
X1180Y1633D01*
X1178Y1633D01*
X1178Y1635D01*
X1176Y1635D01*
X1176Y1637D01*
X1174Y1637D01*
X1174Y1639D01*
X1172Y1639D01*
X1172Y1641D01*
X1170Y1641D01*
X1170Y1643D01*
X1168Y1643D01*
X1168Y1645D01*
X1166Y1645D01*
X1166Y1647D01*
X1164Y1647D01*
X1164Y1649D01*
X1162Y1649D01*
X1162Y1651D01*
X1160Y1651D01*
X1160Y1653D01*
X1158Y1653D01*
X1158Y1655D01*
X1156Y1655D01*
X1156Y1657D01*
X1154Y1657D01*
X1154Y1659D01*
X1152Y1659D01*
X1152Y1661D01*
X1150Y1661D01*
X1150Y1663D01*
X1148Y1663D01*
X1148Y1665D01*
X1146Y1665D01*
X1146Y1667D01*
X1144Y1667D01*
X1144Y1669D01*
X1142Y1669D01*
X1142Y1671D01*
X1140Y1671D01*
X1140Y1673D01*
X1138Y1673D01*
X1138Y1675D01*
X752Y1675D01*
G37*
D02*
G36*
X1366Y1657D02*
X1366Y1599D01*
X1386Y1599D01*
X1386Y1613D01*
X1388Y1613D01*
X1388Y1619D01*
X1390Y1619D01*
X1390Y1625D01*
X1392Y1625D01*
X1392Y1627D01*
X1394Y1627D01*
X1394Y1631D01*
X1396Y1631D01*
X1396Y1633D01*
X1398Y1633D01*
X1398Y1637D01*
X1400Y1637D01*
X1400Y1639D01*
X1402Y1639D01*
X1402Y1641D01*
X1404Y1641D01*
X1404Y1643D01*
X1406Y1643D01*
X1406Y1645D01*
X1410Y1645D01*
X1410Y1647D01*
X1412Y1647D01*
X1412Y1649D01*
X1416Y1649D01*
X1416Y1651D01*
X1418Y1651D01*
X1418Y1653D01*
X1424Y1653D01*
X1424Y1655D01*
X1430Y1655D01*
X1430Y1657D01*
X1366Y1657D01*
G37*
D02*
G36*
X756Y1645D02*
X756Y1643D01*
X764Y1643D01*
X764Y1641D01*
X766Y1641D01*
X766Y1639D01*
X770Y1639D01*
X770Y1637D01*
X772Y1637D01*
X772Y1635D01*
X776Y1635D01*
X776Y1633D01*
X778Y1633D01*
X778Y1631D01*
X780Y1631D01*
X780Y1629D01*
X782Y1629D01*
X782Y1625D01*
X784Y1625D01*
X784Y1623D01*
X786Y1623D01*
X786Y1619D01*
X788Y1619D01*
X788Y1615D01*
X790Y1615D01*
X790Y1607D01*
X792Y1607D01*
X792Y1589D01*
X790Y1589D01*
X790Y1583D01*
X788Y1583D01*
X788Y1577D01*
X786Y1577D01*
X786Y1575D01*
X784Y1575D01*
X784Y1571D01*
X782Y1571D01*
X782Y1569D01*
X780Y1569D01*
X780Y1565D01*
X778Y1565D01*
X778Y1563D01*
X774Y1563D01*
X774Y1561D01*
X772Y1561D01*
X772Y1559D01*
X770Y1559D01*
X770Y1557D01*
X766Y1557D01*
X766Y1555D01*
X762Y1555D01*
X762Y1553D01*
X754Y1553D01*
X754Y1551D01*
X896Y1551D01*
X896Y1553D01*
X898Y1553D01*
X898Y1557D01*
X900Y1557D01*
X900Y1561D01*
X902Y1561D01*
X902Y1565D01*
X904Y1565D01*
X904Y1569D01*
X906Y1569D01*
X906Y1573D01*
X908Y1573D01*
X908Y1577D01*
X910Y1577D01*
X910Y1581D01*
X912Y1581D01*
X912Y1585D01*
X914Y1585D01*
X914Y1589D01*
X916Y1589D01*
X916Y1593D01*
X918Y1593D01*
X918Y1597D01*
X920Y1597D01*
X920Y1601D01*
X922Y1601D01*
X922Y1605D01*
X924Y1605D01*
X924Y1609D01*
X926Y1609D01*
X926Y1613D01*
X928Y1613D01*
X928Y1615D01*
X932Y1615D01*
X932Y1617D01*
X934Y1617D01*
X934Y1619D01*
X940Y1619D01*
X940Y1621D01*
X1004Y1621D01*
X1004Y1625D01*
X1006Y1625D01*
X1006Y1627D01*
X1008Y1627D01*
X1008Y1629D01*
X1010Y1629D01*
X1010Y1631D01*
X1012Y1631D01*
X1012Y1633D01*
X1014Y1633D01*
X1014Y1635D01*
X1016Y1635D01*
X1016Y1637D01*
X1018Y1637D01*
X1018Y1639D01*
X1022Y1639D01*
X1022Y1641D01*
X1026Y1641D01*
X1026Y1643D01*
X1032Y1643D01*
X1032Y1645D01*
X756Y1645D01*
G37*
D02*
G36*
X678Y1603D02*
X678Y1601D01*
X676Y1601D01*
X676Y1599D01*
X674Y1599D01*
X674Y1597D01*
X672Y1597D01*
X672Y1595D01*
X670Y1595D01*
X670Y1593D01*
X668Y1593D01*
X668Y1591D01*
X666Y1591D01*
X666Y1551D01*
X734Y1551D01*
X734Y1553D01*
X728Y1553D01*
X728Y1555D01*
X724Y1555D01*
X724Y1557D01*
X720Y1557D01*
X720Y1559D01*
X716Y1559D01*
X716Y1561D01*
X714Y1561D01*
X714Y1563D01*
X712Y1563D01*
X712Y1565D01*
X710Y1565D01*
X710Y1567D01*
X708Y1567D01*
X708Y1569D01*
X706Y1569D01*
X706Y1573D01*
X704Y1573D01*
X704Y1575D01*
X702Y1575D01*
X702Y1579D01*
X700Y1579D01*
X700Y1585D01*
X698Y1585D01*
X698Y1597D01*
X696Y1597D01*
X696Y1599D01*
X698Y1599D01*
X698Y1603D01*
X678Y1603D01*
G37*
D02*
G36*
X1366Y1597D02*
X1366Y1539D01*
X1434Y1539D01*
X1434Y1541D01*
X1426Y1541D01*
X1426Y1543D01*
X1420Y1543D01*
X1420Y1545D01*
X1416Y1545D01*
X1416Y1547D01*
X1412Y1547D01*
X1412Y1549D01*
X1410Y1549D01*
X1410Y1551D01*
X1408Y1551D01*
X1408Y1553D01*
X1406Y1553D01*
X1406Y1555D01*
X1402Y1555D01*
X1402Y1557D01*
X1400Y1557D01*
X1400Y1561D01*
X1398Y1561D01*
X1398Y1563D01*
X1396Y1563D01*
X1396Y1565D01*
X1394Y1565D01*
X1394Y1569D01*
X1392Y1569D01*
X1392Y1573D01*
X1390Y1573D01*
X1390Y1577D01*
X1388Y1577D01*
X1388Y1583D01*
X1386Y1583D01*
X1386Y1597D01*
X1366Y1597D01*
G37*
D02*
G36*
X958Y1577D02*
X958Y1575D01*
X956Y1575D01*
X956Y1571D01*
X954Y1571D01*
X954Y1567D01*
X952Y1567D01*
X952Y1563D01*
X950Y1563D01*
X950Y1559D01*
X948Y1559D01*
X948Y1555D01*
X946Y1555D01*
X946Y1551D01*
X944Y1551D01*
X944Y1547D01*
X942Y1547D01*
X942Y1543D01*
X940Y1543D01*
X940Y1539D01*
X938Y1539D01*
X938Y1535D01*
X936Y1535D01*
X936Y1531D01*
X934Y1531D01*
X934Y1527D01*
X932Y1527D01*
X932Y1523D01*
X930Y1523D01*
X930Y1519D01*
X928Y1519D01*
X928Y1515D01*
X926Y1515D01*
X926Y1511D01*
X924Y1511D01*
X924Y1507D01*
X922Y1507D01*
X922Y1503D01*
X920Y1503D01*
X920Y1499D01*
X918Y1499D01*
X918Y1495D01*
X916Y1495D01*
X916Y1491D01*
X914Y1491D01*
X914Y1487D01*
X912Y1487D01*
X912Y1481D01*
X910Y1481D01*
X910Y1477D01*
X908Y1477D01*
X908Y1473D01*
X906Y1473D01*
X906Y1469D01*
X904Y1469D01*
X904Y1465D01*
X902Y1465D01*
X902Y1461D01*
X900Y1461D01*
X900Y1457D01*
X898Y1457D01*
X898Y1453D01*
X896Y1453D01*
X896Y1449D01*
X894Y1449D01*
X894Y1445D01*
X892Y1445D01*
X892Y1441D01*
X890Y1441D01*
X890Y1437D01*
X888Y1437D01*
X888Y1433D01*
X886Y1433D01*
X886Y1429D01*
X884Y1429D01*
X884Y1425D01*
X882Y1425D01*
X882Y1421D01*
X880Y1421D01*
X880Y1417D01*
X878Y1417D01*
X878Y1413D01*
X876Y1413D01*
X876Y1409D01*
X874Y1409D01*
X874Y1405D01*
X872Y1405D01*
X872Y1401D01*
X870Y1401D01*
X870Y1397D01*
X868Y1397D01*
X868Y1393D01*
X866Y1393D01*
X866Y1389D01*
X864Y1389D01*
X864Y1385D01*
X862Y1385D01*
X862Y1383D01*
X860Y1383D01*
X860Y1381D01*
X858Y1381D01*
X858Y1379D01*
X856Y1379D01*
X856Y1377D01*
X850Y1377D01*
X850Y1375D01*
X784Y1375D01*
X784Y1371D01*
X782Y1371D01*
X782Y1369D01*
X780Y1369D01*
X780Y1365D01*
X778Y1365D01*
X778Y1363D01*
X774Y1363D01*
X774Y1361D01*
X772Y1361D01*
X772Y1359D01*
X770Y1359D01*
X770Y1337D01*
X772Y1337D01*
X772Y1335D01*
X776Y1335D01*
X776Y1333D01*
X778Y1333D01*
X778Y1331D01*
X780Y1331D01*
X780Y1329D01*
X782Y1329D01*
X782Y1325D01*
X784Y1325D01*
X784Y1323D01*
X786Y1323D01*
X786Y1319D01*
X788Y1319D01*
X788Y1315D01*
X790Y1315D01*
X790Y1307D01*
X792Y1307D01*
X792Y1289D01*
X790Y1289D01*
X790Y1283D01*
X788Y1283D01*
X788Y1277D01*
X786Y1277D01*
X786Y1275D01*
X784Y1275D01*
X784Y1271D01*
X782Y1271D01*
X782Y1269D01*
X780Y1269D01*
X780Y1265D01*
X778Y1265D01*
X778Y1263D01*
X774Y1263D01*
X774Y1261D01*
X772Y1261D01*
X772Y1259D01*
X770Y1259D01*
X770Y1237D01*
X772Y1237D01*
X772Y1235D01*
X776Y1235D01*
X776Y1233D01*
X778Y1233D01*
X778Y1231D01*
X780Y1231D01*
X780Y1229D01*
X782Y1229D01*
X782Y1225D01*
X784Y1225D01*
X784Y1223D01*
X786Y1223D01*
X786Y1219D01*
X788Y1219D01*
X788Y1215D01*
X790Y1215D01*
X790Y1207D01*
X792Y1207D01*
X792Y1189D01*
X790Y1189D01*
X790Y1183D01*
X788Y1183D01*
X788Y1177D01*
X786Y1177D01*
X786Y1175D01*
X784Y1175D01*
X784Y1171D01*
X782Y1171D01*
X782Y1169D01*
X780Y1169D01*
X780Y1165D01*
X778Y1165D01*
X778Y1163D01*
X774Y1163D01*
X774Y1161D01*
X772Y1161D01*
X772Y1159D01*
X770Y1159D01*
X770Y1157D01*
X766Y1157D01*
X766Y1155D01*
X762Y1155D01*
X762Y1153D01*
X754Y1153D01*
X754Y1151D01*
X1134Y1151D01*
X1134Y1153D01*
X1128Y1153D01*
X1128Y1155D01*
X1124Y1155D01*
X1124Y1157D01*
X1120Y1157D01*
X1120Y1159D01*
X1116Y1159D01*
X1116Y1161D01*
X1114Y1161D01*
X1114Y1163D01*
X1112Y1163D01*
X1112Y1165D01*
X1110Y1165D01*
X1110Y1167D01*
X1108Y1167D01*
X1108Y1169D01*
X1106Y1169D01*
X1106Y1173D01*
X1104Y1173D01*
X1104Y1175D01*
X1102Y1175D01*
X1102Y1179D01*
X1100Y1179D01*
X1100Y1185D01*
X1098Y1185D01*
X1098Y1197D01*
X1096Y1197D01*
X1096Y1199D01*
X1098Y1199D01*
X1098Y1211D01*
X1100Y1211D01*
X1100Y1217D01*
X1102Y1217D01*
X1102Y1221D01*
X1104Y1221D01*
X1104Y1225D01*
X1106Y1225D01*
X1106Y1227D01*
X1108Y1227D01*
X1108Y1229D01*
X1110Y1229D01*
X1110Y1231D01*
X1112Y1231D01*
X1112Y1233D01*
X1114Y1233D01*
X1114Y1235D01*
X1116Y1235D01*
X1116Y1237D01*
X1118Y1237D01*
X1118Y1239D01*
X1120Y1239D01*
X1120Y1259D01*
X1116Y1259D01*
X1116Y1261D01*
X1114Y1261D01*
X1114Y1263D01*
X1112Y1263D01*
X1112Y1265D01*
X1110Y1265D01*
X1110Y1267D01*
X1108Y1267D01*
X1108Y1269D01*
X1106Y1269D01*
X1106Y1273D01*
X1104Y1273D01*
X1104Y1275D01*
X1102Y1275D01*
X1102Y1279D01*
X1100Y1279D01*
X1100Y1285D01*
X1098Y1285D01*
X1098Y1297D01*
X1096Y1297D01*
X1096Y1317D01*
X1094Y1317D01*
X1094Y1319D01*
X1092Y1319D01*
X1092Y1321D01*
X1090Y1321D01*
X1090Y1323D01*
X1088Y1323D01*
X1088Y1325D01*
X1086Y1325D01*
X1086Y1327D01*
X1084Y1327D01*
X1084Y1329D01*
X1082Y1329D01*
X1082Y1331D01*
X1080Y1331D01*
X1080Y1333D01*
X1078Y1333D01*
X1078Y1335D01*
X1076Y1335D01*
X1076Y1337D01*
X1074Y1337D01*
X1074Y1339D01*
X1072Y1339D01*
X1072Y1341D01*
X1070Y1341D01*
X1070Y1343D01*
X1068Y1343D01*
X1068Y1345D01*
X1066Y1345D01*
X1066Y1347D01*
X1064Y1347D01*
X1064Y1349D01*
X1062Y1349D01*
X1062Y1351D01*
X1060Y1351D01*
X1060Y1353D01*
X1058Y1353D01*
X1058Y1355D01*
X1056Y1355D01*
X1056Y1357D01*
X1054Y1357D01*
X1054Y1359D01*
X1052Y1359D01*
X1052Y1361D01*
X1050Y1361D01*
X1050Y1363D01*
X1048Y1363D01*
X1048Y1365D01*
X1046Y1365D01*
X1046Y1367D01*
X1044Y1367D01*
X1044Y1369D01*
X1042Y1369D01*
X1042Y1371D01*
X1040Y1371D01*
X1040Y1373D01*
X1038Y1373D01*
X1038Y1375D01*
X1036Y1375D01*
X1036Y1377D01*
X1034Y1377D01*
X1034Y1379D01*
X1032Y1379D01*
X1032Y1381D01*
X1030Y1381D01*
X1030Y1383D01*
X1028Y1383D01*
X1028Y1385D01*
X1026Y1385D01*
X1026Y1389D01*
X1024Y1389D01*
X1024Y1499D01*
X1022Y1499D01*
X1022Y1557D01*
X1020Y1557D01*
X1020Y1559D01*
X1016Y1559D01*
X1016Y1561D01*
X1014Y1561D01*
X1014Y1563D01*
X1012Y1563D01*
X1012Y1565D01*
X1010Y1565D01*
X1010Y1567D01*
X1008Y1567D01*
X1008Y1569D01*
X1006Y1569D01*
X1006Y1573D01*
X1004Y1573D01*
X1004Y1575D01*
X1002Y1575D01*
X1002Y1577D01*
X958Y1577D01*
G37*
D02*
G36*
X666Y1551D02*
X666Y1549D01*
X896Y1549D01*
X896Y1551D01*
X666Y1551D01*
G37*
D02*
G36*
X666Y1551D02*
X666Y1549D01*
X896Y1549D01*
X896Y1551D01*
X666Y1551D01*
G37*
D02*
G36*
X1066Y1551D02*
X1066Y1549D01*
X1322Y1549D01*
X1322Y1551D01*
X1066Y1551D01*
G37*
D02*
G36*
X1066Y1551D02*
X1066Y1549D01*
X1322Y1549D01*
X1322Y1551D01*
X1066Y1551D01*
G37*
D02*
G36*
X666Y1549D02*
X666Y1445D01*
X756Y1445D01*
X756Y1443D01*
X764Y1443D01*
X764Y1441D01*
X766Y1441D01*
X766Y1439D01*
X770Y1439D01*
X770Y1437D01*
X772Y1437D01*
X772Y1435D01*
X776Y1435D01*
X776Y1433D01*
X778Y1433D01*
X778Y1431D01*
X780Y1431D01*
X780Y1429D01*
X782Y1429D01*
X782Y1425D01*
X784Y1425D01*
X784Y1423D01*
X786Y1423D01*
X786Y1419D01*
X832Y1419D01*
X832Y1423D01*
X834Y1423D01*
X834Y1427D01*
X836Y1427D01*
X836Y1431D01*
X838Y1431D01*
X838Y1435D01*
X840Y1435D01*
X840Y1439D01*
X842Y1439D01*
X842Y1443D01*
X844Y1443D01*
X844Y1447D01*
X846Y1447D01*
X846Y1451D01*
X848Y1451D01*
X848Y1455D01*
X850Y1455D01*
X850Y1459D01*
X852Y1459D01*
X852Y1463D01*
X854Y1463D01*
X854Y1469D01*
X856Y1469D01*
X856Y1473D01*
X858Y1473D01*
X858Y1477D01*
X860Y1477D01*
X860Y1481D01*
X862Y1481D01*
X862Y1485D01*
X864Y1485D01*
X864Y1489D01*
X866Y1489D01*
X866Y1493D01*
X868Y1493D01*
X868Y1497D01*
X870Y1497D01*
X870Y1501D01*
X872Y1501D01*
X872Y1505D01*
X874Y1505D01*
X874Y1509D01*
X876Y1509D01*
X876Y1513D01*
X878Y1513D01*
X878Y1517D01*
X880Y1517D01*
X880Y1521D01*
X882Y1521D01*
X882Y1525D01*
X884Y1525D01*
X884Y1529D01*
X886Y1529D01*
X886Y1533D01*
X888Y1533D01*
X888Y1537D01*
X890Y1537D01*
X890Y1541D01*
X892Y1541D01*
X892Y1545D01*
X894Y1545D01*
X894Y1549D01*
X666Y1549D01*
G37*
D02*
G36*
X1066Y1549D02*
X1066Y1501D01*
X1068Y1501D01*
X1068Y1445D01*
X1156Y1445D01*
X1156Y1443D01*
X1164Y1443D01*
X1164Y1441D01*
X1166Y1441D01*
X1166Y1439D01*
X1170Y1439D01*
X1170Y1437D01*
X1172Y1437D01*
X1172Y1435D01*
X1176Y1435D01*
X1176Y1433D01*
X1178Y1433D01*
X1178Y1431D01*
X1180Y1431D01*
X1180Y1429D01*
X1182Y1429D01*
X1182Y1425D01*
X1184Y1425D01*
X1184Y1423D01*
X1186Y1423D01*
X1186Y1419D01*
X1188Y1419D01*
X1188Y1415D01*
X1190Y1415D01*
X1190Y1407D01*
X1192Y1407D01*
X1192Y1389D01*
X1190Y1389D01*
X1190Y1383D01*
X1188Y1383D01*
X1188Y1377D01*
X1186Y1377D01*
X1186Y1375D01*
X1184Y1375D01*
X1184Y1371D01*
X1182Y1371D01*
X1182Y1369D01*
X1180Y1369D01*
X1180Y1365D01*
X1178Y1365D01*
X1178Y1363D01*
X1174Y1363D01*
X1174Y1361D01*
X1172Y1361D01*
X1172Y1359D01*
X1170Y1359D01*
X1170Y1337D01*
X1172Y1337D01*
X1172Y1335D01*
X1176Y1335D01*
X1176Y1333D01*
X1178Y1333D01*
X1178Y1331D01*
X1180Y1331D01*
X1180Y1329D01*
X1182Y1329D01*
X1182Y1325D01*
X1184Y1325D01*
X1184Y1323D01*
X1186Y1323D01*
X1186Y1319D01*
X1188Y1319D01*
X1188Y1315D01*
X1190Y1315D01*
X1190Y1307D01*
X1192Y1307D01*
X1192Y1295D01*
X1212Y1295D01*
X1212Y1297D01*
X1214Y1297D01*
X1214Y1299D01*
X1216Y1299D01*
X1216Y1301D01*
X1218Y1301D01*
X1218Y1303D01*
X1220Y1303D01*
X1220Y1305D01*
X1222Y1305D01*
X1222Y1307D01*
X1224Y1307D01*
X1224Y1309D01*
X1226Y1309D01*
X1226Y1311D01*
X1228Y1311D01*
X1228Y1313D01*
X1230Y1313D01*
X1230Y1315D01*
X1232Y1315D01*
X1232Y1317D01*
X1234Y1317D01*
X1234Y1319D01*
X1236Y1319D01*
X1236Y1321D01*
X1238Y1321D01*
X1238Y1323D01*
X1240Y1323D01*
X1240Y1325D01*
X1242Y1325D01*
X1242Y1327D01*
X1244Y1327D01*
X1244Y1329D01*
X1246Y1329D01*
X1246Y1331D01*
X1248Y1331D01*
X1248Y1333D01*
X1250Y1333D01*
X1250Y1335D01*
X1252Y1335D01*
X1252Y1337D01*
X1254Y1337D01*
X1254Y1339D01*
X1256Y1339D01*
X1256Y1341D01*
X1258Y1341D01*
X1258Y1343D01*
X1260Y1343D01*
X1260Y1345D01*
X1262Y1345D01*
X1262Y1347D01*
X1264Y1347D01*
X1264Y1349D01*
X1266Y1349D01*
X1266Y1351D01*
X1268Y1351D01*
X1268Y1353D01*
X1270Y1353D01*
X1270Y1355D01*
X1272Y1355D01*
X1272Y1357D01*
X1274Y1357D01*
X1274Y1359D01*
X1276Y1359D01*
X1276Y1361D01*
X1278Y1361D01*
X1278Y1363D01*
X1280Y1363D01*
X1280Y1365D01*
X1282Y1365D01*
X1282Y1367D01*
X1284Y1367D01*
X1284Y1369D01*
X1286Y1369D01*
X1286Y1371D01*
X1288Y1371D01*
X1288Y1373D01*
X1290Y1373D01*
X1290Y1377D01*
X1292Y1377D01*
X1292Y1379D01*
X1294Y1379D01*
X1294Y1381D01*
X1296Y1381D01*
X1296Y1383D01*
X1298Y1383D01*
X1298Y1385D01*
X1300Y1385D01*
X1300Y1387D01*
X1302Y1387D01*
X1302Y1389D01*
X1304Y1389D01*
X1304Y1391D01*
X1306Y1391D01*
X1306Y1393D01*
X1308Y1393D01*
X1308Y1395D01*
X1310Y1395D01*
X1310Y1397D01*
X1312Y1397D01*
X1312Y1399D01*
X1314Y1399D01*
X1314Y1401D01*
X1316Y1401D01*
X1316Y1403D01*
X1318Y1403D01*
X1318Y1405D01*
X1320Y1405D01*
X1320Y1407D01*
X1322Y1407D01*
X1322Y1549D01*
X1066Y1549D01*
G37*
D02*
G36*
X266Y1539D02*
X266Y1537D01*
X622Y1537D01*
X622Y1539D01*
X266Y1539D01*
G37*
D02*
G36*
X266Y1539D02*
X266Y1537D01*
X622Y1537D01*
X622Y1539D01*
X266Y1539D01*
G37*
D02*
G36*
X1366Y1539D02*
X1366Y1537D01*
X1674Y1537D01*
X1674Y1539D01*
X1366Y1539D01*
G37*
D02*
G36*
X1366Y1539D02*
X1366Y1537D01*
X1674Y1537D01*
X1674Y1539D01*
X1366Y1539D01*
G37*
D02*
G36*
X266Y1537D02*
X266Y1507D01*
X268Y1507D01*
X268Y1505D01*
X270Y1505D01*
X270Y1503D01*
X272Y1503D01*
X272Y1501D01*
X274Y1501D01*
X274Y1499D01*
X276Y1499D01*
X276Y1497D01*
X278Y1497D01*
X278Y1495D01*
X280Y1495D01*
X280Y1493D01*
X282Y1493D01*
X282Y1491D01*
X284Y1491D01*
X284Y1489D01*
X286Y1489D01*
X286Y1487D01*
X288Y1487D01*
X288Y1485D01*
X290Y1485D01*
X290Y1483D01*
X292Y1483D01*
X292Y1481D01*
X294Y1481D01*
X294Y1479D01*
X296Y1479D01*
X296Y1477D01*
X298Y1477D01*
X298Y1475D01*
X300Y1475D01*
X300Y1473D01*
X302Y1473D01*
X302Y1471D01*
X304Y1471D01*
X304Y1469D01*
X306Y1469D01*
X306Y1467D01*
X308Y1467D01*
X308Y1465D01*
X310Y1465D01*
X310Y1463D01*
X312Y1463D01*
X312Y1461D01*
X314Y1461D01*
X314Y1459D01*
X316Y1459D01*
X316Y1457D01*
X318Y1457D01*
X318Y1455D01*
X320Y1455D01*
X320Y1453D01*
X322Y1453D01*
X322Y1451D01*
X324Y1451D01*
X324Y1449D01*
X326Y1449D01*
X326Y1447D01*
X328Y1447D01*
X328Y1445D01*
X330Y1445D01*
X330Y1443D01*
X332Y1443D01*
X332Y1441D01*
X334Y1441D01*
X334Y1439D01*
X336Y1439D01*
X336Y1437D01*
X338Y1437D01*
X338Y1435D01*
X340Y1435D01*
X340Y1433D01*
X342Y1433D01*
X342Y1431D01*
X344Y1431D01*
X344Y1429D01*
X346Y1429D01*
X346Y1427D01*
X348Y1427D01*
X348Y1425D01*
X350Y1425D01*
X350Y1423D01*
X352Y1423D01*
X352Y1421D01*
X354Y1421D01*
X354Y1419D01*
X356Y1419D01*
X356Y1417D01*
X358Y1417D01*
X358Y1415D01*
X360Y1415D01*
X360Y1413D01*
X362Y1413D01*
X362Y1411D01*
X364Y1411D01*
X364Y1409D01*
X366Y1409D01*
X366Y1407D01*
X368Y1407D01*
X368Y1405D01*
X370Y1405D01*
X370Y1403D01*
X372Y1403D01*
X372Y1401D01*
X374Y1401D01*
X374Y1399D01*
X376Y1399D01*
X376Y1397D01*
X378Y1397D01*
X378Y1395D01*
X380Y1395D01*
X380Y1393D01*
X382Y1393D01*
X382Y1391D01*
X384Y1391D01*
X384Y1389D01*
X386Y1389D01*
X386Y1387D01*
X388Y1387D01*
X388Y1385D01*
X390Y1385D01*
X390Y1383D01*
X392Y1383D01*
X392Y1381D01*
X394Y1381D01*
X394Y1379D01*
X396Y1379D01*
X396Y1377D01*
X398Y1377D01*
X398Y1375D01*
X400Y1375D01*
X400Y1373D01*
X402Y1373D01*
X402Y1371D01*
X404Y1371D01*
X404Y1369D01*
X406Y1369D01*
X406Y1367D01*
X408Y1367D01*
X408Y1365D01*
X410Y1365D01*
X410Y1363D01*
X412Y1363D01*
X412Y1361D01*
X414Y1361D01*
X414Y1359D01*
X416Y1359D01*
X416Y1357D01*
X418Y1357D01*
X418Y1355D01*
X420Y1355D01*
X420Y1353D01*
X422Y1353D01*
X422Y1351D01*
X424Y1351D01*
X424Y1349D01*
X426Y1349D01*
X426Y1347D01*
X428Y1347D01*
X428Y1345D01*
X430Y1345D01*
X430Y1343D01*
X432Y1343D01*
X432Y1341D01*
X434Y1341D01*
X434Y1339D01*
X436Y1339D01*
X436Y1337D01*
X438Y1337D01*
X438Y1335D01*
X440Y1335D01*
X440Y1333D01*
X442Y1333D01*
X442Y1331D01*
X444Y1331D01*
X444Y1329D01*
X446Y1329D01*
X446Y1327D01*
X448Y1327D01*
X448Y1325D01*
X450Y1325D01*
X450Y1323D01*
X452Y1323D01*
X452Y1321D01*
X454Y1321D01*
X454Y1319D01*
X456Y1319D01*
X456Y1317D01*
X458Y1317D01*
X458Y1315D01*
X460Y1315D01*
X460Y1313D01*
X462Y1313D01*
X462Y1311D01*
X464Y1311D01*
X464Y1309D01*
X466Y1309D01*
X466Y1307D01*
X468Y1307D01*
X468Y1305D01*
X470Y1305D01*
X470Y1303D01*
X472Y1303D01*
X472Y1301D01*
X474Y1301D01*
X474Y1299D01*
X476Y1299D01*
X476Y1297D01*
X478Y1297D01*
X478Y1295D01*
X480Y1295D01*
X480Y1293D01*
X482Y1293D01*
X482Y1291D01*
X484Y1291D01*
X484Y1289D01*
X486Y1289D01*
X486Y1287D01*
X488Y1287D01*
X488Y1285D01*
X490Y1285D01*
X490Y1283D01*
X492Y1283D01*
X492Y1281D01*
X494Y1281D01*
X494Y1279D01*
X496Y1279D01*
X496Y1277D01*
X498Y1277D01*
X498Y1275D01*
X500Y1275D01*
X500Y1273D01*
X502Y1273D01*
X502Y1271D01*
X504Y1271D01*
X504Y1269D01*
X506Y1269D01*
X506Y1267D01*
X508Y1267D01*
X508Y1265D01*
X510Y1265D01*
X510Y1263D01*
X512Y1263D01*
X512Y1261D01*
X514Y1261D01*
X514Y1259D01*
X516Y1259D01*
X516Y1257D01*
X518Y1257D01*
X518Y1255D01*
X520Y1255D01*
X520Y1253D01*
X522Y1253D01*
X522Y1251D01*
X524Y1251D01*
X524Y1249D01*
X526Y1249D01*
X526Y1247D01*
X528Y1247D01*
X528Y1245D01*
X530Y1245D01*
X530Y1243D01*
X532Y1243D01*
X532Y1241D01*
X534Y1241D01*
X534Y1239D01*
X536Y1239D01*
X536Y1237D01*
X538Y1237D01*
X538Y1235D01*
X540Y1235D01*
X540Y1233D01*
X542Y1233D01*
X542Y1231D01*
X544Y1231D01*
X544Y1229D01*
X546Y1229D01*
X546Y1227D01*
X548Y1227D01*
X548Y1225D01*
X550Y1225D01*
X550Y1223D01*
X552Y1223D01*
X552Y1221D01*
X704Y1221D01*
X704Y1225D01*
X706Y1225D01*
X706Y1227D01*
X708Y1227D01*
X708Y1229D01*
X710Y1229D01*
X710Y1231D01*
X712Y1231D01*
X712Y1233D01*
X714Y1233D01*
X714Y1235D01*
X716Y1235D01*
X716Y1237D01*
X718Y1237D01*
X718Y1239D01*
X720Y1239D01*
X720Y1259D01*
X716Y1259D01*
X716Y1261D01*
X714Y1261D01*
X714Y1263D01*
X712Y1263D01*
X712Y1265D01*
X710Y1265D01*
X710Y1267D01*
X708Y1267D01*
X708Y1269D01*
X706Y1269D01*
X706Y1273D01*
X704Y1273D01*
X704Y1275D01*
X702Y1275D01*
X702Y1279D01*
X700Y1279D01*
X700Y1285D01*
X698Y1285D01*
X698Y1297D01*
X696Y1297D01*
X696Y1317D01*
X692Y1317D01*
X692Y1319D01*
X690Y1319D01*
X690Y1321D01*
X688Y1321D01*
X688Y1323D01*
X686Y1323D01*
X686Y1325D01*
X684Y1325D01*
X684Y1327D01*
X682Y1327D01*
X682Y1329D01*
X680Y1329D01*
X680Y1331D01*
X678Y1331D01*
X678Y1333D01*
X676Y1333D01*
X676Y1335D01*
X674Y1335D01*
X674Y1337D01*
X672Y1337D01*
X672Y1339D01*
X670Y1339D01*
X670Y1341D01*
X668Y1341D01*
X668Y1343D01*
X666Y1343D01*
X666Y1345D01*
X664Y1345D01*
X664Y1347D01*
X662Y1347D01*
X662Y1349D01*
X660Y1349D01*
X660Y1351D01*
X658Y1351D01*
X658Y1353D01*
X656Y1353D01*
X656Y1355D01*
X654Y1355D01*
X654Y1357D01*
X652Y1357D01*
X652Y1359D01*
X650Y1359D01*
X650Y1361D01*
X648Y1361D01*
X648Y1363D01*
X646Y1363D01*
X646Y1365D01*
X644Y1365D01*
X644Y1367D01*
X642Y1367D01*
X642Y1369D01*
X640Y1369D01*
X640Y1371D01*
X638Y1371D01*
X638Y1373D01*
X636Y1373D01*
X636Y1375D01*
X634Y1375D01*
X634Y1377D01*
X632Y1377D01*
X632Y1379D01*
X630Y1379D01*
X630Y1381D01*
X628Y1381D01*
X628Y1383D01*
X626Y1383D01*
X626Y1385D01*
X624Y1385D01*
X624Y1389D01*
X622Y1389D01*
X622Y1537D01*
X266Y1537D01*
G37*
D02*
G36*
X1366Y1537D02*
X1366Y1391D01*
X1364Y1391D01*
X1364Y1387D01*
X1362Y1387D01*
X1362Y1385D01*
X1360Y1385D01*
X1360Y1383D01*
X1358Y1383D01*
X1358Y1381D01*
X1356Y1381D01*
X1356Y1379D01*
X1354Y1379D01*
X1354Y1377D01*
X1352Y1377D01*
X1352Y1375D01*
X1350Y1375D01*
X1350Y1373D01*
X1348Y1373D01*
X1348Y1371D01*
X1346Y1371D01*
X1346Y1369D01*
X1344Y1369D01*
X1344Y1367D01*
X1342Y1367D01*
X1342Y1365D01*
X1340Y1365D01*
X1340Y1363D01*
X1338Y1363D01*
X1338Y1359D01*
X1336Y1359D01*
X1336Y1357D01*
X1334Y1357D01*
X1334Y1355D01*
X1332Y1355D01*
X1332Y1353D01*
X1330Y1353D01*
X1330Y1351D01*
X1328Y1351D01*
X1328Y1349D01*
X1326Y1349D01*
X1326Y1347D01*
X1324Y1347D01*
X1324Y1345D01*
X1322Y1345D01*
X1322Y1343D01*
X1320Y1343D01*
X1320Y1341D01*
X1318Y1341D01*
X1318Y1339D01*
X1316Y1339D01*
X1316Y1337D01*
X1314Y1337D01*
X1314Y1335D01*
X1312Y1335D01*
X1312Y1333D01*
X1310Y1333D01*
X1310Y1331D01*
X1308Y1331D01*
X1308Y1329D01*
X1306Y1329D01*
X1306Y1327D01*
X1304Y1327D01*
X1304Y1325D01*
X1302Y1325D01*
X1302Y1323D01*
X1300Y1323D01*
X1300Y1321D01*
X1650Y1321D01*
X1650Y1319D01*
X1656Y1319D01*
X1656Y1317D01*
X1658Y1317D01*
X1658Y1315D01*
X1660Y1315D01*
X1660Y1313D01*
X1662Y1313D01*
X1662Y1311D01*
X1664Y1311D01*
X1664Y1307D01*
X1666Y1307D01*
X1666Y1299D01*
X1668Y1299D01*
X1668Y1097D01*
X1666Y1097D01*
X1666Y937D01*
X1668Y937D01*
X1668Y935D01*
X1672Y935D01*
X1672Y933D01*
X1674Y933D01*
X1674Y931D01*
X1676Y931D01*
X1676Y929D01*
X1678Y929D01*
X1678Y927D01*
X1680Y927D01*
X1680Y925D01*
X1682Y925D01*
X1682Y921D01*
X1684Y921D01*
X1684Y917D01*
X1686Y917D01*
X1686Y913D01*
X1688Y913D01*
X1688Y903D01*
X1690Y903D01*
X1690Y893D01*
X1688Y893D01*
X1688Y891D01*
X1708Y891D01*
X1708Y893D01*
X1710Y893D01*
X1710Y895D01*
X1712Y895D01*
X1712Y897D01*
X1714Y897D01*
X1714Y899D01*
X1716Y899D01*
X1716Y901D01*
X1718Y901D01*
X1718Y903D01*
X1720Y903D01*
X1720Y905D01*
X1722Y905D01*
X1722Y1491D01*
X1720Y1491D01*
X1720Y1493D01*
X1718Y1493D01*
X1718Y1495D01*
X1716Y1495D01*
X1716Y1497D01*
X1714Y1497D01*
X1714Y1499D01*
X1712Y1499D01*
X1712Y1501D01*
X1710Y1501D01*
X1710Y1503D01*
X1708Y1503D01*
X1708Y1505D01*
X1706Y1505D01*
X1706Y1507D01*
X1704Y1507D01*
X1704Y1509D01*
X1702Y1509D01*
X1702Y1511D01*
X1700Y1511D01*
X1700Y1513D01*
X1698Y1513D01*
X1698Y1515D01*
X1696Y1515D01*
X1696Y1517D01*
X1694Y1517D01*
X1694Y1519D01*
X1692Y1519D01*
X1692Y1521D01*
X1690Y1521D01*
X1690Y1523D01*
X1688Y1523D01*
X1688Y1525D01*
X1686Y1525D01*
X1686Y1527D01*
X1684Y1527D01*
X1684Y1529D01*
X1682Y1529D01*
X1682Y1531D01*
X1680Y1531D01*
X1680Y1533D01*
X1678Y1533D01*
X1678Y1535D01*
X1676Y1535D01*
X1676Y1537D01*
X1366Y1537D01*
G37*
D02*
G36*
X666Y1445D02*
X666Y1405D01*
X668Y1405D01*
X668Y1403D01*
X670Y1403D01*
X670Y1401D01*
X672Y1401D01*
X672Y1399D01*
X674Y1399D01*
X674Y1397D01*
X676Y1397D01*
X676Y1395D01*
X678Y1395D01*
X678Y1393D01*
X698Y1393D01*
X698Y1397D01*
X696Y1397D01*
X696Y1399D01*
X698Y1399D01*
X698Y1411D01*
X700Y1411D01*
X700Y1417D01*
X702Y1417D01*
X702Y1421D01*
X704Y1421D01*
X704Y1425D01*
X706Y1425D01*
X706Y1427D01*
X708Y1427D01*
X708Y1429D01*
X710Y1429D01*
X710Y1431D01*
X712Y1431D01*
X712Y1433D01*
X714Y1433D01*
X714Y1435D01*
X716Y1435D01*
X716Y1437D01*
X718Y1437D01*
X718Y1439D01*
X722Y1439D01*
X722Y1441D01*
X726Y1441D01*
X726Y1443D01*
X732Y1443D01*
X732Y1445D01*
X666Y1445D01*
G37*
D02*
G36*
X1068Y1445D02*
X1068Y1405D01*
X1070Y1405D01*
X1070Y1403D01*
X1072Y1403D01*
X1072Y1401D01*
X1074Y1401D01*
X1074Y1399D01*
X1076Y1399D01*
X1076Y1397D01*
X1078Y1397D01*
X1078Y1395D01*
X1098Y1395D01*
X1098Y1397D01*
X1096Y1397D01*
X1096Y1399D01*
X1098Y1399D01*
X1098Y1411D01*
X1100Y1411D01*
X1100Y1417D01*
X1102Y1417D01*
X1102Y1421D01*
X1104Y1421D01*
X1104Y1425D01*
X1106Y1425D01*
X1106Y1427D01*
X1108Y1427D01*
X1108Y1429D01*
X1110Y1429D01*
X1110Y1431D01*
X1112Y1431D01*
X1112Y1433D01*
X1114Y1433D01*
X1114Y1435D01*
X1116Y1435D01*
X1116Y1437D01*
X1118Y1437D01*
X1118Y1439D01*
X1122Y1439D01*
X1122Y1441D01*
X1126Y1441D01*
X1126Y1443D01*
X1132Y1443D01*
X1132Y1445D01*
X1068Y1445D01*
G37*
D02*
G36*
X1298Y1321D02*
X1298Y1319D01*
X1296Y1319D01*
X1296Y1317D01*
X1294Y1317D01*
X1294Y1315D01*
X1292Y1315D01*
X1292Y1313D01*
X1290Y1313D01*
X1290Y1311D01*
X1288Y1311D01*
X1288Y1309D01*
X1286Y1309D01*
X1286Y1307D01*
X1284Y1307D01*
X1284Y1305D01*
X1282Y1305D01*
X1282Y1303D01*
X1280Y1303D01*
X1280Y1301D01*
X1278Y1301D01*
X1278Y1299D01*
X1276Y1299D01*
X1276Y1297D01*
X1274Y1297D01*
X1274Y1295D01*
X1272Y1295D01*
X1272Y1293D01*
X1270Y1293D01*
X1270Y1291D01*
X1268Y1291D01*
X1268Y1289D01*
X1266Y1289D01*
X1266Y1287D01*
X1264Y1287D01*
X1264Y1285D01*
X1262Y1285D01*
X1262Y1283D01*
X1260Y1283D01*
X1260Y1281D01*
X1258Y1281D01*
X1258Y1279D01*
X1256Y1279D01*
X1256Y1277D01*
X1254Y1277D01*
X1254Y1275D01*
X1252Y1275D01*
X1252Y1273D01*
X1250Y1273D01*
X1250Y1271D01*
X1248Y1271D01*
X1248Y1269D01*
X1246Y1269D01*
X1246Y1267D01*
X1244Y1267D01*
X1244Y1265D01*
X1242Y1265D01*
X1242Y1263D01*
X1240Y1263D01*
X1240Y1261D01*
X1238Y1261D01*
X1238Y1259D01*
X1236Y1259D01*
X1236Y1257D01*
X1234Y1257D01*
X1234Y1255D01*
X1232Y1255D01*
X1232Y1253D01*
X1230Y1253D01*
X1230Y1251D01*
X1228Y1251D01*
X1228Y1249D01*
X1226Y1249D01*
X1226Y1247D01*
X1224Y1247D01*
X1224Y1245D01*
X1222Y1245D01*
X1222Y1243D01*
X1220Y1243D01*
X1220Y1241D01*
X1218Y1241D01*
X1218Y1239D01*
X1216Y1239D01*
X1216Y1237D01*
X1214Y1237D01*
X1214Y1235D01*
X1212Y1235D01*
X1212Y1233D01*
X1210Y1233D01*
X1210Y1231D01*
X1208Y1231D01*
X1208Y1229D01*
X1206Y1229D01*
X1206Y1227D01*
X1204Y1227D01*
X1204Y1225D01*
X1202Y1225D01*
X1202Y1223D01*
X1200Y1223D01*
X1200Y1221D01*
X1198Y1221D01*
X1198Y1219D01*
X1196Y1219D01*
X1196Y1217D01*
X1194Y1217D01*
X1194Y1215D01*
X1192Y1215D01*
X1192Y1189D01*
X1190Y1189D01*
X1190Y1183D01*
X1188Y1183D01*
X1188Y1177D01*
X1186Y1177D01*
X1186Y1175D01*
X1184Y1175D01*
X1184Y1171D01*
X1182Y1171D01*
X1182Y1169D01*
X1180Y1169D01*
X1180Y1165D01*
X1178Y1165D01*
X1178Y1163D01*
X1174Y1163D01*
X1174Y1161D01*
X1172Y1161D01*
X1172Y1159D01*
X1170Y1159D01*
X1170Y1157D01*
X1166Y1157D01*
X1166Y1155D01*
X1162Y1155D01*
X1162Y1153D01*
X1154Y1153D01*
X1154Y1151D01*
X1266Y1151D01*
X1266Y1153D01*
X1268Y1153D01*
X1268Y1155D01*
X1270Y1155D01*
X1270Y1157D01*
X1272Y1157D01*
X1272Y1159D01*
X1274Y1159D01*
X1274Y1161D01*
X1276Y1161D01*
X1276Y1163D01*
X1278Y1163D01*
X1278Y1165D01*
X1280Y1165D01*
X1280Y1167D01*
X1282Y1167D01*
X1282Y1169D01*
X1284Y1169D01*
X1284Y1171D01*
X1286Y1171D01*
X1286Y1173D01*
X1288Y1173D01*
X1288Y1175D01*
X1290Y1175D01*
X1290Y1177D01*
X1292Y1177D01*
X1292Y1179D01*
X1294Y1179D01*
X1294Y1181D01*
X1296Y1181D01*
X1296Y1183D01*
X1298Y1183D01*
X1298Y1185D01*
X1300Y1185D01*
X1300Y1187D01*
X1302Y1187D01*
X1302Y1189D01*
X1304Y1189D01*
X1304Y1191D01*
X1306Y1191D01*
X1306Y1193D01*
X1308Y1193D01*
X1308Y1195D01*
X1310Y1195D01*
X1310Y1197D01*
X1312Y1197D01*
X1312Y1199D01*
X1314Y1199D01*
X1314Y1201D01*
X1316Y1201D01*
X1316Y1203D01*
X1318Y1203D01*
X1318Y1205D01*
X1320Y1205D01*
X1320Y1207D01*
X1322Y1207D01*
X1322Y1209D01*
X1324Y1209D01*
X1324Y1211D01*
X1328Y1211D01*
X1328Y1213D01*
X1330Y1213D01*
X1330Y1215D01*
X1332Y1215D01*
X1332Y1217D01*
X1334Y1217D01*
X1334Y1219D01*
X1336Y1219D01*
X1336Y1221D01*
X1338Y1221D01*
X1338Y1223D01*
X1340Y1223D01*
X1340Y1225D01*
X1342Y1225D01*
X1342Y1227D01*
X1344Y1227D01*
X1344Y1229D01*
X1346Y1229D01*
X1346Y1231D01*
X1348Y1231D01*
X1348Y1233D01*
X1350Y1233D01*
X1350Y1235D01*
X1352Y1235D01*
X1352Y1237D01*
X1354Y1237D01*
X1354Y1239D01*
X1356Y1239D01*
X1356Y1241D01*
X1358Y1241D01*
X1358Y1243D01*
X1360Y1243D01*
X1360Y1245D01*
X1362Y1245D01*
X1362Y1247D01*
X1364Y1247D01*
X1364Y1249D01*
X1366Y1249D01*
X1366Y1251D01*
X1368Y1251D01*
X1368Y1253D01*
X1370Y1253D01*
X1370Y1255D01*
X1372Y1255D01*
X1372Y1257D01*
X1374Y1257D01*
X1374Y1259D01*
X1376Y1259D01*
X1376Y1261D01*
X1378Y1261D01*
X1378Y1263D01*
X1380Y1263D01*
X1380Y1265D01*
X1382Y1265D01*
X1382Y1267D01*
X1384Y1267D01*
X1384Y1269D01*
X1386Y1269D01*
X1386Y1271D01*
X1388Y1271D01*
X1388Y1273D01*
X1390Y1273D01*
X1390Y1275D01*
X1392Y1275D01*
X1392Y1277D01*
X1394Y1277D01*
X1394Y1279D01*
X1396Y1279D01*
X1396Y1281D01*
X1398Y1281D01*
X1398Y1283D01*
X1400Y1283D01*
X1400Y1285D01*
X1402Y1285D01*
X1402Y1287D01*
X1404Y1287D01*
X1404Y1289D01*
X1406Y1289D01*
X1406Y1291D01*
X1408Y1291D01*
X1408Y1293D01*
X1410Y1293D01*
X1410Y1295D01*
X1412Y1295D01*
X1412Y1297D01*
X1414Y1297D01*
X1414Y1299D01*
X1416Y1299D01*
X1416Y1301D01*
X1418Y1301D01*
X1418Y1303D01*
X1420Y1303D01*
X1420Y1305D01*
X1422Y1305D01*
X1422Y1307D01*
X1424Y1307D01*
X1424Y1309D01*
X1426Y1309D01*
X1426Y1311D01*
X1428Y1311D01*
X1428Y1313D01*
X1430Y1313D01*
X1430Y1315D01*
X1432Y1315D01*
X1432Y1317D01*
X1436Y1317D01*
X1436Y1319D01*
X1442Y1319D01*
X1442Y1321D01*
X1298Y1321D01*
G37*
D02*
G36*
X1454Y1277D02*
X1454Y1275D01*
X1452Y1275D01*
X1452Y1273D01*
X1450Y1273D01*
X1450Y1271D01*
X1448Y1271D01*
X1448Y1269D01*
X1446Y1269D01*
X1446Y1267D01*
X1444Y1267D01*
X1444Y1265D01*
X1442Y1265D01*
X1442Y1263D01*
X1440Y1263D01*
X1440Y1261D01*
X1438Y1261D01*
X1438Y1259D01*
X1436Y1259D01*
X1436Y1257D01*
X1558Y1257D01*
X1558Y1255D01*
X1566Y1255D01*
X1566Y1253D01*
X1570Y1253D01*
X1570Y1251D01*
X1574Y1251D01*
X1574Y1249D01*
X1576Y1249D01*
X1576Y1247D01*
X1580Y1247D01*
X1580Y1245D01*
X1582Y1245D01*
X1582Y1243D01*
X1584Y1243D01*
X1584Y1241D01*
X1586Y1241D01*
X1586Y1239D01*
X1588Y1239D01*
X1588Y1237D01*
X1590Y1237D01*
X1590Y1235D01*
X1592Y1235D01*
X1592Y1233D01*
X1594Y1233D01*
X1594Y1229D01*
X1596Y1229D01*
X1596Y1227D01*
X1598Y1227D01*
X1598Y1223D01*
X1600Y1223D01*
X1600Y1217D01*
X1602Y1217D01*
X1602Y1207D01*
X1622Y1207D01*
X1622Y1277D01*
X1454Y1277D01*
G37*
D02*
G36*
X118Y1257D02*
X118Y1255D01*
X120Y1255D01*
X120Y1253D01*
X122Y1253D01*
X122Y1251D01*
X124Y1251D01*
X124Y1249D01*
X126Y1249D01*
X126Y1247D01*
X128Y1247D01*
X128Y1245D01*
X130Y1245D01*
X130Y1243D01*
X132Y1243D01*
X132Y1241D01*
X134Y1241D01*
X134Y1239D01*
X136Y1239D01*
X136Y1237D01*
X138Y1237D01*
X138Y1235D01*
X140Y1235D01*
X140Y1233D01*
X142Y1233D01*
X142Y1231D01*
X144Y1231D01*
X144Y1229D01*
X146Y1229D01*
X146Y1227D01*
X148Y1227D01*
X148Y1225D01*
X150Y1225D01*
X150Y1223D01*
X152Y1223D01*
X152Y1221D01*
X154Y1221D01*
X154Y1219D01*
X156Y1219D01*
X156Y1217D01*
X158Y1217D01*
X158Y1215D01*
X160Y1215D01*
X160Y1213D01*
X162Y1213D01*
X162Y1211D01*
X164Y1211D01*
X164Y1209D01*
X166Y1209D01*
X166Y1207D01*
X168Y1207D01*
X168Y1205D01*
X170Y1205D01*
X170Y1203D01*
X172Y1203D01*
X172Y1201D01*
X174Y1201D01*
X174Y1199D01*
X176Y1199D01*
X176Y1197D01*
X178Y1197D01*
X178Y1195D01*
X180Y1195D01*
X180Y1193D01*
X182Y1193D01*
X182Y1191D01*
X184Y1191D01*
X184Y1189D01*
X186Y1189D01*
X186Y1187D01*
X188Y1187D01*
X188Y1185D01*
X190Y1185D01*
X190Y1183D01*
X192Y1183D01*
X192Y1181D01*
X194Y1181D01*
X194Y1179D01*
X196Y1179D01*
X196Y1177D01*
X198Y1177D01*
X198Y1175D01*
X200Y1175D01*
X200Y1173D01*
X202Y1173D01*
X202Y1171D01*
X204Y1171D01*
X204Y1169D01*
X206Y1169D01*
X206Y1167D01*
X208Y1167D01*
X208Y1165D01*
X210Y1165D01*
X210Y1163D01*
X212Y1163D01*
X212Y1161D01*
X214Y1161D01*
X214Y1159D01*
X216Y1159D01*
X216Y1157D01*
X218Y1157D01*
X218Y1155D01*
X220Y1155D01*
X220Y1153D01*
X222Y1153D01*
X222Y1151D01*
X224Y1151D01*
X224Y1149D01*
X226Y1149D01*
X226Y1147D01*
X228Y1147D01*
X228Y1145D01*
X256Y1145D01*
X256Y1143D01*
X264Y1143D01*
X264Y1141D01*
X266Y1141D01*
X266Y1139D01*
X270Y1139D01*
X270Y1137D01*
X272Y1137D01*
X272Y1135D01*
X276Y1135D01*
X276Y1133D01*
X278Y1133D01*
X278Y1131D01*
X280Y1131D01*
X280Y1129D01*
X282Y1129D01*
X282Y1125D01*
X284Y1125D01*
X284Y1123D01*
X286Y1123D01*
X286Y1119D01*
X288Y1119D01*
X288Y1115D01*
X290Y1115D01*
X290Y1107D01*
X292Y1107D01*
X292Y1081D01*
X294Y1081D01*
X294Y1079D01*
X296Y1079D01*
X296Y1077D01*
X436Y1077D01*
X436Y1079D01*
X432Y1079D01*
X432Y1081D01*
X430Y1081D01*
X430Y1083D01*
X428Y1083D01*
X428Y1085D01*
X426Y1085D01*
X426Y1087D01*
X424Y1087D01*
X424Y1089D01*
X422Y1089D01*
X422Y1091D01*
X420Y1091D01*
X420Y1093D01*
X418Y1093D01*
X418Y1095D01*
X416Y1095D01*
X416Y1097D01*
X414Y1097D01*
X414Y1099D01*
X412Y1099D01*
X412Y1101D01*
X410Y1101D01*
X410Y1103D01*
X408Y1103D01*
X408Y1105D01*
X406Y1105D01*
X406Y1107D01*
X404Y1107D01*
X404Y1109D01*
X402Y1109D01*
X402Y1111D01*
X400Y1111D01*
X400Y1113D01*
X398Y1113D01*
X398Y1115D01*
X396Y1115D01*
X396Y1117D01*
X394Y1117D01*
X394Y1119D01*
X392Y1119D01*
X392Y1121D01*
X390Y1121D01*
X390Y1123D01*
X388Y1123D01*
X388Y1125D01*
X386Y1125D01*
X386Y1127D01*
X384Y1127D01*
X384Y1129D01*
X382Y1129D01*
X382Y1131D01*
X380Y1131D01*
X380Y1133D01*
X378Y1133D01*
X378Y1135D01*
X376Y1135D01*
X376Y1137D01*
X374Y1137D01*
X374Y1139D01*
X334Y1139D01*
X334Y1141D01*
X326Y1141D01*
X326Y1143D01*
X320Y1143D01*
X320Y1145D01*
X316Y1145D01*
X316Y1147D01*
X312Y1147D01*
X312Y1149D01*
X310Y1149D01*
X310Y1151D01*
X308Y1151D01*
X308Y1153D01*
X306Y1153D01*
X306Y1155D01*
X302Y1155D01*
X302Y1157D01*
X300Y1157D01*
X300Y1161D01*
X298Y1161D01*
X298Y1163D01*
X296Y1163D01*
X296Y1165D01*
X294Y1165D01*
X294Y1169D01*
X292Y1169D01*
X292Y1173D01*
X290Y1173D01*
X290Y1177D01*
X288Y1177D01*
X288Y1183D01*
X286Y1183D01*
X286Y1197D01*
X284Y1197D01*
X284Y1199D01*
X286Y1199D01*
X286Y1213D01*
X288Y1213D01*
X288Y1219D01*
X290Y1219D01*
X290Y1225D01*
X292Y1225D01*
X292Y1227D01*
X294Y1227D01*
X294Y1231D01*
X296Y1231D01*
X296Y1233D01*
X298Y1233D01*
X298Y1237D01*
X300Y1237D01*
X300Y1239D01*
X302Y1239D01*
X302Y1241D01*
X304Y1241D01*
X304Y1243D01*
X306Y1243D01*
X306Y1245D01*
X310Y1245D01*
X310Y1247D01*
X312Y1247D01*
X312Y1249D01*
X316Y1249D01*
X316Y1251D01*
X318Y1251D01*
X318Y1253D01*
X324Y1253D01*
X324Y1255D01*
X330Y1255D01*
X330Y1257D01*
X118Y1257D01*
G37*
D02*
G36*
X1434Y1257D02*
X1434Y1255D01*
X1432Y1255D01*
X1432Y1253D01*
X1430Y1253D01*
X1430Y1251D01*
X1428Y1251D01*
X1428Y1249D01*
X1426Y1249D01*
X1426Y1247D01*
X1424Y1247D01*
X1424Y1245D01*
X1422Y1245D01*
X1422Y1243D01*
X1420Y1243D01*
X1420Y1241D01*
X1418Y1241D01*
X1418Y1239D01*
X1416Y1239D01*
X1416Y1237D01*
X1414Y1237D01*
X1414Y1235D01*
X1412Y1235D01*
X1412Y1233D01*
X1410Y1233D01*
X1410Y1231D01*
X1408Y1231D01*
X1408Y1229D01*
X1406Y1229D01*
X1406Y1227D01*
X1404Y1227D01*
X1404Y1225D01*
X1402Y1225D01*
X1402Y1223D01*
X1400Y1223D01*
X1400Y1221D01*
X1398Y1221D01*
X1398Y1219D01*
X1396Y1219D01*
X1396Y1217D01*
X1394Y1217D01*
X1394Y1215D01*
X1392Y1215D01*
X1392Y1213D01*
X1390Y1213D01*
X1390Y1211D01*
X1388Y1211D01*
X1388Y1209D01*
X1386Y1209D01*
X1386Y1207D01*
X1384Y1207D01*
X1384Y1205D01*
X1382Y1205D01*
X1382Y1203D01*
X1380Y1203D01*
X1380Y1201D01*
X1378Y1201D01*
X1378Y1199D01*
X1376Y1199D01*
X1376Y1197D01*
X1374Y1197D01*
X1374Y1195D01*
X1372Y1195D01*
X1372Y1193D01*
X1370Y1193D01*
X1370Y1191D01*
X1368Y1191D01*
X1368Y1189D01*
X1366Y1189D01*
X1366Y1187D01*
X1364Y1187D01*
X1364Y1185D01*
X1362Y1185D01*
X1362Y1183D01*
X1360Y1183D01*
X1360Y1181D01*
X1358Y1181D01*
X1358Y1179D01*
X1356Y1179D01*
X1356Y1177D01*
X1354Y1177D01*
X1354Y1175D01*
X1352Y1175D01*
X1352Y1173D01*
X1350Y1173D01*
X1350Y1171D01*
X1348Y1171D01*
X1348Y1169D01*
X1346Y1169D01*
X1346Y1167D01*
X1344Y1167D01*
X1344Y1165D01*
X1342Y1165D01*
X1342Y1163D01*
X1340Y1163D01*
X1340Y1161D01*
X1338Y1161D01*
X1338Y1159D01*
X1336Y1159D01*
X1336Y1157D01*
X1334Y1157D01*
X1334Y1155D01*
X1332Y1155D01*
X1332Y1153D01*
X1330Y1153D01*
X1330Y1151D01*
X1328Y1151D01*
X1328Y1149D01*
X1326Y1149D01*
X1326Y1147D01*
X1324Y1147D01*
X1324Y1145D01*
X1322Y1145D01*
X1322Y1143D01*
X1320Y1143D01*
X1320Y1141D01*
X1318Y1141D01*
X1318Y1139D01*
X1316Y1139D01*
X1316Y1137D01*
X1314Y1137D01*
X1314Y1135D01*
X1312Y1135D01*
X1312Y1133D01*
X1310Y1133D01*
X1310Y1131D01*
X1308Y1131D01*
X1308Y1129D01*
X1306Y1129D01*
X1306Y1127D01*
X1304Y1127D01*
X1304Y1125D01*
X1302Y1125D01*
X1302Y1123D01*
X1300Y1123D01*
X1300Y1121D01*
X1298Y1121D01*
X1298Y1119D01*
X1294Y1119D01*
X1294Y1117D01*
X1292Y1117D01*
X1292Y1115D01*
X1290Y1115D01*
X1290Y1113D01*
X1288Y1113D01*
X1288Y1111D01*
X1286Y1111D01*
X1286Y1109D01*
X1284Y1109D01*
X1284Y1107D01*
X1282Y1107D01*
X1282Y1105D01*
X1280Y1105D01*
X1280Y1103D01*
X1278Y1103D01*
X1278Y1101D01*
X1276Y1101D01*
X1276Y1099D01*
X1274Y1099D01*
X1274Y1097D01*
X1272Y1097D01*
X1272Y1095D01*
X1270Y1095D01*
X1270Y1093D01*
X1268Y1093D01*
X1268Y1091D01*
X1266Y1091D01*
X1266Y1089D01*
X1264Y1089D01*
X1264Y1087D01*
X1262Y1087D01*
X1262Y1085D01*
X1260Y1085D01*
X1260Y1083D01*
X1258Y1083D01*
X1258Y1081D01*
X1256Y1081D01*
X1256Y1079D01*
X1252Y1079D01*
X1252Y1077D01*
X1392Y1077D01*
X1392Y1079D01*
X1394Y1079D01*
X1394Y1081D01*
X1396Y1081D01*
X1396Y1083D01*
X1398Y1083D01*
X1398Y1085D01*
X1400Y1085D01*
X1400Y1087D01*
X1402Y1087D01*
X1402Y1089D01*
X1404Y1089D01*
X1404Y1091D01*
X1406Y1091D01*
X1406Y1093D01*
X1408Y1093D01*
X1408Y1095D01*
X1410Y1095D01*
X1410Y1097D01*
X1412Y1097D01*
X1412Y1099D01*
X1414Y1099D01*
X1414Y1101D01*
X1416Y1101D01*
X1416Y1103D01*
X1418Y1103D01*
X1418Y1105D01*
X1420Y1105D01*
X1420Y1107D01*
X1422Y1107D01*
X1422Y1109D01*
X1424Y1109D01*
X1424Y1111D01*
X1426Y1111D01*
X1426Y1113D01*
X1428Y1113D01*
X1428Y1115D01*
X1430Y1115D01*
X1430Y1117D01*
X1432Y1117D01*
X1432Y1119D01*
X1434Y1119D01*
X1434Y1121D01*
X1436Y1121D01*
X1436Y1123D01*
X1438Y1123D01*
X1438Y1125D01*
X1440Y1125D01*
X1440Y1127D01*
X1442Y1127D01*
X1442Y1129D01*
X1444Y1129D01*
X1444Y1131D01*
X1446Y1131D01*
X1446Y1133D01*
X1448Y1133D01*
X1448Y1135D01*
X1450Y1135D01*
X1450Y1137D01*
X1452Y1137D01*
X1452Y1139D01*
X1454Y1139D01*
X1454Y1141D01*
X1456Y1141D01*
X1456Y1143D01*
X1458Y1143D01*
X1458Y1145D01*
X1460Y1145D01*
X1460Y1147D01*
X1462Y1147D01*
X1462Y1149D01*
X1464Y1149D01*
X1464Y1151D01*
X1466Y1151D01*
X1466Y1153D01*
X1468Y1153D01*
X1468Y1155D01*
X1470Y1155D01*
X1470Y1157D01*
X1472Y1157D01*
X1472Y1159D01*
X1474Y1159D01*
X1474Y1161D01*
X1476Y1161D01*
X1476Y1163D01*
X1478Y1163D01*
X1478Y1165D01*
X1480Y1165D01*
X1480Y1167D01*
X1482Y1167D01*
X1482Y1169D01*
X1484Y1169D01*
X1484Y1171D01*
X1486Y1171D01*
X1486Y1197D01*
X1484Y1197D01*
X1484Y1199D01*
X1486Y1199D01*
X1486Y1213D01*
X1488Y1213D01*
X1488Y1219D01*
X1490Y1219D01*
X1490Y1225D01*
X1492Y1225D01*
X1492Y1227D01*
X1494Y1227D01*
X1494Y1231D01*
X1496Y1231D01*
X1496Y1233D01*
X1498Y1233D01*
X1498Y1237D01*
X1500Y1237D01*
X1500Y1239D01*
X1502Y1239D01*
X1502Y1241D01*
X1504Y1241D01*
X1504Y1243D01*
X1506Y1243D01*
X1506Y1245D01*
X1510Y1245D01*
X1510Y1247D01*
X1512Y1247D01*
X1512Y1249D01*
X1516Y1249D01*
X1516Y1251D01*
X1518Y1251D01*
X1518Y1253D01*
X1524Y1253D01*
X1524Y1255D01*
X1530Y1255D01*
X1530Y1257D01*
X1434Y1257D01*
G37*
D02*
G36*
X40Y1253D02*
X40Y853D01*
X438Y853D01*
X438Y855D01*
X430Y855D01*
X430Y857D01*
X424Y857D01*
X424Y859D01*
X422Y859D01*
X422Y861D01*
X418Y861D01*
X418Y863D01*
X416Y863D01*
X416Y865D01*
X414Y865D01*
X414Y867D01*
X412Y867D01*
X412Y869D01*
X410Y869D01*
X410Y871D01*
X408Y871D01*
X408Y873D01*
X406Y873D01*
X406Y877D01*
X404Y877D01*
X404Y881D01*
X402Y881D01*
X402Y887D01*
X400Y887D01*
X400Y913D01*
X398Y913D01*
X398Y915D01*
X396Y915D01*
X396Y917D01*
X394Y917D01*
X394Y919D01*
X392Y919D01*
X392Y921D01*
X390Y921D01*
X390Y923D01*
X388Y923D01*
X388Y925D01*
X386Y925D01*
X386Y927D01*
X384Y927D01*
X384Y929D01*
X382Y929D01*
X382Y931D01*
X380Y931D01*
X380Y933D01*
X378Y933D01*
X378Y935D01*
X376Y935D01*
X376Y937D01*
X374Y937D01*
X374Y939D01*
X372Y939D01*
X372Y941D01*
X370Y941D01*
X370Y943D01*
X368Y943D01*
X368Y945D01*
X366Y945D01*
X366Y947D01*
X364Y947D01*
X364Y949D01*
X362Y949D01*
X362Y951D01*
X360Y951D01*
X360Y953D01*
X358Y953D01*
X358Y955D01*
X356Y955D01*
X356Y957D01*
X354Y957D01*
X354Y959D01*
X352Y959D01*
X352Y961D01*
X350Y961D01*
X350Y963D01*
X348Y963D01*
X348Y965D01*
X346Y965D01*
X346Y967D01*
X344Y967D01*
X344Y969D01*
X342Y969D01*
X342Y971D01*
X340Y971D01*
X340Y973D01*
X338Y973D01*
X338Y975D01*
X336Y975D01*
X336Y977D01*
X334Y977D01*
X334Y979D01*
X332Y979D01*
X332Y981D01*
X330Y981D01*
X330Y983D01*
X328Y983D01*
X328Y985D01*
X326Y985D01*
X326Y987D01*
X324Y987D01*
X324Y989D01*
X322Y989D01*
X322Y991D01*
X320Y991D01*
X320Y993D01*
X318Y993D01*
X318Y995D01*
X316Y995D01*
X316Y997D01*
X314Y997D01*
X314Y999D01*
X312Y999D01*
X312Y1001D01*
X310Y1001D01*
X310Y1003D01*
X308Y1003D01*
X308Y1005D01*
X306Y1005D01*
X306Y1007D01*
X304Y1007D01*
X304Y1009D01*
X302Y1009D01*
X302Y1011D01*
X300Y1011D01*
X300Y1013D01*
X298Y1013D01*
X298Y1015D01*
X296Y1015D01*
X296Y1017D01*
X294Y1017D01*
X294Y1019D01*
X292Y1019D01*
X292Y1021D01*
X290Y1021D01*
X290Y1023D01*
X288Y1023D01*
X288Y1025D01*
X286Y1025D01*
X286Y1027D01*
X284Y1027D01*
X284Y1029D01*
X282Y1029D01*
X282Y1031D01*
X280Y1031D01*
X280Y1033D01*
X278Y1033D01*
X278Y1035D01*
X276Y1035D01*
X276Y1037D01*
X274Y1037D01*
X274Y1039D01*
X272Y1039D01*
X272Y1041D01*
X270Y1041D01*
X270Y1043D01*
X268Y1043D01*
X268Y1045D01*
X266Y1045D01*
X266Y1047D01*
X264Y1047D01*
X264Y1049D01*
X262Y1049D01*
X262Y1051D01*
X234Y1051D01*
X234Y1053D01*
X228Y1053D01*
X228Y1055D01*
X224Y1055D01*
X224Y1057D01*
X220Y1057D01*
X220Y1059D01*
X216Y1059D01*
X216Y1061D01*
X214Y1061D01*
X214Y1063D01*
X212Y1063D01*
X212Y1065D01*
X210Y1065D01*
X210Y1067D01*
X208Y1067D01*
X208Y1069D01*
X206Y1069D01*
X206Y1073D01*
X204Y1073D01*
X204Y1075D01*
X202Y1075D01*
X202Y1079D01*
X200Y1079D01*
X200Y1085D01*
X198Y1085D01*
X198Y1097D01*
X196Y1097D01*
X196Y1117D01*
X194Y1117D01*
X194Y1119D01*
X192Y1119D01*
X192Y1121D01*
X190Y1121D01*
X190Y1123D01*
X188Y1123D01*
X188Y1125D01*
X186Y1125D01*
X186Y1127D01*
X184Y1127D01*
X184Y1129D01*
X182Y1129D01*
X182Y1131D01*
X180Y1131D01*
X180Y1133D01*
X178Y1133D01*
X178Y1135D01*
X176Y1135D01*
X176Y1137D01*
X174Y1137D01*
X174Y1139D01*
X172Y1139D01*
X172Y1141D01*
X170Y1141D01*
X170Y1143D01*
X168Y1143D01*
X168Y1145D01*
X166Y1145D01*
X166Y1147D01*
X164Y1147D01*
X164Y1149D01*
X162Y1149D01*
X162Y1151D01*
X160Y1151D01*
X160Y1153D01*
X158Y1153D01*
X158Y1155D01*
X156Y1155D01*
X156Y1157D01*
X154Y1157D01*
X154Y1159D01*
X152Y1159D01*
X152Y1161D01*
X150Y1161D01*
X150Y1163D01*
X148Y1163D01*
X148Y1165D01*
X146Y1165D01*
X146Y1167D01*
X144Y1167D01*
X144Y1169D01*
X142Y1169D01*
X142Y1171D01*
X140Y1171D01*
X140Y1173D01*
X138Y1173D01*
X138Y1175D01*
X136Y1175D01*
X136Y1177D01*
X134Y1177D01*
X134Y1179D01*
X132Y1179D01*
X132Y1181D01*
X130Y1181D01*
X130Y1183D01*
X128Y1183D01*
X128Y1185D01*
X126Y1185D01*
X126Y1187D01*
X124Y1187D01*
X124Y1189D01*
X122Y1189D01*
X122Y1191D01*
X120Y1191D01*
X120Y1193D01*
X118Y1193D01*
X118Y1195D01*
X116Y1195D01*
X116Y1197D01*
X114Y1197D01*
X114Y1199D01*
X112Y1199D01*
X112Y1201D01*
X110Y1201D01*
X110Y1203D01*
X108Y1203D01*
X108Y1205D01*
X106Y1205D01*
X106Y1207D01*
X104Y1207D01*
X104Y1209D01*
X102Y1209D01*
X102Y1211D01*
X100Y1211D01*
X100Y1213D01*
X98Y1213D01*
X98Y1215D01*
X96Y1215D01*
X96Y1217D01*
X94Y1217D01*
X94Y1219D01*
X92Y1219D01*
X92Y1221D01*
X90Y1221D01*
X90Y1223D01*
X88Y1223D01*
X88Y1225D01*
X86Y1225D01*
X86Y1227D01*
X84Y1227D01*
X84Y1229D01*
X82Y1229D01*
X82Y1231D01*
X80Y1231D01*
X80Y1233D01*
X78Y1233D01*
X78Y1235D01*
X76Y1235D01*
X76Y1237D01*
X74Y1237D01*
X74Y1239D01*
X72Y1239D01*
X72Y1241D01*
X70Y1241D01*
X70Y1243D01*
X68Y1243D01*
X68Y1245D01*
X66Y1245D01*
X66Y1247D01*
X64Y1247D01*
X64Y1249D01*
X62Y1249D01*
X62Y1251D01*
X60Y1251D01*
X60Y1253D01*
X40Y1253D01*
G37*
D02*
G36*
X1602Y1189D02*
X1602Y1181D01*
X1600Y1181D01*
X1600Y1175D01*
X1598Y1175D01*
X1598Y1171D01*
X1596Y1171D01*
X1596Y1167D01*
X1594Y1167D01*
X1594Y1165D01*
X1592Y1165D01*
X1592Y1161D01*
X1590Y1161D01*
X1590Y1159D01*
X1588Y1159D01*
X1588Y1157D01*
X1586Y1157D01*
X1586Y1155D01*
X1584Y1155D01*
X1584Y1153D01*
X1582Y1153D01*
X1582Y1151D01*
X1578Y1151D01*
X1578Y1149D01*
X1576Y1149D01*
X1576Y1147D01*
X1572Y1147D01*
X1572Y1145D01*
X1568Y1145D01*
X1568Y1143D01*
X1564Y1143D01*
X1564Y1141D01*
X1556Y1141D01*
X1556Y1139D01*
X1516Y1139D01*
X1516Y1137D01*
X1514Y1137D01*
X1514Y1135D01*
X1512Y1135D01*
X1512Y1133D01*
X1510Y1133D01*
X1510Y1131D01*
X1508Y1131D01*
X1508Y1129D01*
X1506Y1129D01*
X1506Y1127D01*
X1504Y1127D01*
X1504Y1125D01*
X1502Y1125D01*
X1502Y1123D01*
X1500Y1123D01*
X1500Y1121D01*
X1498Y1121D01*
X1498Y1119D01*
X1496Y1119D01*
X1496Y1117D01*
X1494Y1117D01*
X1494Y1115D01*
X1492Y1115D01*
X1492Y1113D01*
X1490Y1113D01*
X1490Y1111D01*
X1488Y1111D01*
X1488Y1109D01*
X1486Y1109D01*
X1486Y1107D01*
X1484Y1107D01*
X1484Y1105D01*
X1482Y1105D01*
X1482Y1103D01*
X1480Y1103D01*
X1480Y1101D01*
X1478Y1101D01*
X1478Y1099D01*
X1476Y1099D01*
X1476Y1097D01*
X1474Y1097D01*
X1474Y1095D01*
X1472Y1095D01*
X1472Y1093D01*
X1470Y1093D01*
X1470Y1091D01*
X1468Y1091D01*
X1468Y1089D01*
X1466Y1089D01*
X1466Y1087D01*
X1464Y1087D01*
X1464Y1085D01*
X1462Y1085D01*
X1462Y1083D01*
X1460Y1083D01*
X1460Y1081D01*
X1458Y1081D01*
X1458Y1079D01*
X1456Y1079D01*
X1456Y1077D01*
X1454Y1077D01*
X1454Y1075D01*
X1452Y1075D01*
X1452Y1073D01*
X1450Y1073D01*
X1450Y1071D01*
X1448Y1071D01*
X1448Y1069D01*
X1446Y1069D01*
X1446Y1067D01*
X1444Y1067D01*
X1444Y1065D01*
X1442Y1065D01*
X1442Y1063D01*
X1440Y1063D01*
X1440Y1061D01*
X1438Y1061D01*
X1438Y1059D01*
X1436Y1059D01*
X1436Y1057D01*
X1434Y1057D01*
X1434Y1055D01*
X1432Y1055D01*
X1432Y1053D01*
X1430Y1053D01*
X1430Y1051D01*
X1428Y1051D01*
X1428Y1049D01*
X1426Y1049D01*
X1426Y1047D01*
X1424Y1047D01*
X1424Y1045D01*
X1422Y1045D01*
X1422Y1043D01*
X1420Y1043D01*
X1420Y1041D01*
X1418Y1041D01*
X1418Y1039D01*
X1416Y1039D01*
X1416Y1037D01*
X1414Y1037D01*
X1414Y1035D01*
X1412Y1035D01*
X1412Y1033D01*
X1410Y1033D01*
X1410Y1031D01*
X1408Y1031D01*
X1408Y1029D01*
X1406Y1029D01*
X1406Y1027D01*
X1404Y1027D01*
X1404Y1025D01*
X1402Y1025D01*
X1402Y1023D01*
X1400Y1023D01*
X1400Y1021D01*
X1398Y1021D01*
X1398Y1019D01*
X1396Y1019D01*
X1396Y1017D01*
X1394Y1017D01*
X1394Y1015D01*
X1392Y1015D01*
X1392Y1013D01*
X1390Y1013D01*
X1390Y1011D01*
X1388Y1011D01*
X1388Y1009D01*
X1386Y1009D01*
X1386Y1007D01*
X1384Y1007D01*
X1384Y1005D01*
X1382Y1005D01*
X1382Y1003D01*
X1380Y1003D01*
X1380Y1001D01*
X1378Y1001D01*
X1378Y999D01*
X1376Y999D01*
X1376Y997D01*
X1374Y997D01*
X1374Y995D01*
X1372Y995D01*
X1372Y993D01*
X1370Y993D01*
X1370Y991D01*
X1368Y991D01*
X1368Y989D01*
X1366Y989D01*
X1366Y987D01*
X1364Y987D01*
X1364Y985D01*
X1362Y985D01*
X1362Y983D01*
X1360Y983D01*
X1360Y981D01*
X1356Y981D01*
X1356Y979D01*
X1352Y979D01*
X1352Y977D01*
X1170Y977D01*
X1170Y953D01*
X1272Y953D01*
X1272Y951D01*
X1282Y951D01*
X1282Y949D01*
X1288Y949D01*
X1288Y947D01*
X1294Y947D01*
X1294Y945D01*
X1298Y945D01*
X1298Y943D01*
X1302Y943D01*
X1302Y941D01*
X1306Y941D01*
X1306Y939D01*
X1308Y939D01*
X1308Y937D01*
X1312Y937D01*
X1312Y935D01*
X1314Y935D01*
X1314Y933D01*
X1316Y933D01*
X1316Y931D01*
X1318Y931D01*
X1318Y929D01*
X1320Y929D01*
X1320Y927D01*
X1322Y927D01*
X1322Y925D01*
X1324Y925D01*
X1324Y923D01*
X1326Y923D01*
X1326Y921D01*
X1328Y921D01*
X1328Y917D01*
X1330Y917D01*
X1330Y915D01*
X1332Y915D01*
X1332Y911D01*
X1334Y911D01*
X1334Y909D01*
X1336Y909D01*
X1336Y905D01*
X1338Y905D01*
X1338Y899D01*
X1340Y899D01*
X1340Y893D01*
X1342Y893D01*
X1342Y885D01*
X1344Y885D01*
X1344Y853D01*
X1342Y853D01*
X1342Y845D01*
X1340Y845D01*
X1340Y839D01*
X1338Y839D01*
X1338Y835D01*
X1336Y835D01*
X1336Y831D01*
X1334Y831D01*
X1334Y827D01*
X1332Y827D01*
X1332Y823D01*
X1330Y823D01*
X1330Y821D01*
X1328Y821D01*
X1328Y817D01*
X1326Y817D01*
X1326Y815D01*
X1324Y815D01*
X1324Y813D01*
X1322Y813D01*
X1322Y811D01*
X1320Y811D01*
X1320Y809D01*
X1318Y809D01*
X1318Y807D01*
X1316Y807D01*
X1316Y805D01*
X1314Y805D01*
X1314Y803D01*
X1310Y803D01*
X1310Y801D01*
X1308Y801D01*
X1308Y799D01*
X1304Y799D01*
X1304Y797D01*
X1302Y797D01*
X1302Y795D01*
X1298Y795D01*
X1298Y793D01*
X1294Y793D01*
X1294Y791D01*
X1288Y791D01*
X1288Y789D01*
X1280Y789D01*
X1280Y787D01*
X1268Y787D01*
X1268Y767D01*
X1278Y767D01*
X1278Y765D01*
X1286Y765D01*
X1286Y763D01*
X1292Y763D01*
X1292Y761D01*
X1296Y761D01*
X1296Y759D01*
X1300Y759D01*
X1300Y757D01*
X1304Y757D01*
X1304Y755D01*
X1308Y755D01*
X1308Y753D01*
X1638Y753D01*
X1638Y755D01*
X1630Y755D01*
X1630Y757D01*
X1624Y757D01*
X1624Y759D01*
X1622Y759D01*
X1622Y761D01*
X1618Y761D01*
X1618Y763D01*
X1616Y763D01*
X1616Y765D01*
X1614Y765D01*
X1614Y767D01*
X1612Y767D01*
X1612Y769D01*
X1610Y769D01*
X1610Y771D01*
X1608Y771D01*
X1608Y773D01*
X1606Y773D01*
X1606Y777D01*
X1604Y777D01*
X1604Y781D01*
X1602Y781D01*
X1602Y787D01*
X1600Y787D01*
X1600Y809D01*
X1602Y809D01*
X1602Y815D01*
X1604Y815D01*
X1604Y819D01*
X1606Y819D01*
X1606Y823D01*
X1608Y823D01*
X1608Y825D01*
X1610Y825D01*
X1610Y829D01*
X1612Y829D01*
X1612Y831D01*
X1614Y831D01*
X1614Y833D01*
X1618Y833D01*
X1618Y835D01*
X1620Y835D01*
X1620Y837D01*
X1624Y837D01*
X1624Y859D01*
X1622Y859D01*
X1622Y861D01*
X1618Y861D01*
X1618Y863D01*
X1616Y863D01*
X1616Y865D01*
X1614Y865D01*
X1614Y867D01*
X1612Y867D01*
X1612Y869D01*
X1610Y869D01*
X1610Y871D01*
X1608Y871D01*
X1608Y873D01*
X1606Y873D01*
X1606Y877D01*
X1604Y877D01*
X1604Y881D01*
X1602Y881D01*
X1602Y887D01*
X1600Y887D01*
X1600Y909D01*
X1602Y909D01*
X1602Y915D01*
X1604Y915D01*
X1604Y919D01*
X1606Y919D01*
X1606Y923D01*
X1608Y923D01*
X1608Y925D01*
X1610Y925D01*
X1610Y929D01*
X1612Y929D01*
X1612Y931D01*
X1614Y931D01*
X1614Y933D01*
X1618Y933D01*
X1618Y935D01*
X1620Y935D01*
X1620Y937D01*
X1622Y937D01*
X1622Y1189D01*
X1602Y1189D01*
G37*
D02*
G36*
X424Y1151D02*
X424Y1149D01*
X1264Y1149D01*
X1264Y1151D01*
X424Y1151D01*
G37*
D02*
G36*
X424Y1151D02*
X424Y1149D01*
X1264Y1149D01*
X1264Y1151D01*
X424Y1151D01*
G37*
D02*
G36*
X424Y1151D02*
X424Y1149D01*
X1264Y1149D01*
X1264Y1151D01*
X424Y1151D01*
G37*
D02*
G36*
X426Y1149D02*
X426Y1147D01*
X428Y1147D01*
X428Y1145D01*
X430Y1145D01*
X430Y1143D01*
X432Y1143D01*
X432Y1141D01*
X434Y1141D01*
X434Y1139D01*
X436Y1139D01*
X436Y1137D01*
X438Y1137D01*
X438Y1135D01*
X440Y1135D01*
X440Y1133D01*
X442Y1133D01*
X442Y1131D01*
X444Y1131D01*
X444Y1129D01*
X446Y1129D01*
X446Y1127D01*
X448Y1127D01*
X448Y1125D01*
X450Y1125D01*
X450Y1123D01*
X452Y1123D01*
X452Y1121D01*
X1236Y1121D01*
X1236Y1123D01*
X1238Y1123D01*
X1238Y1125D01*
X1240Y1125D01*
X1240Y1127D01*
X1242Y1127D01*
X1242Y1129D01*
X1244Y1129D01*
X1244Y1131D01*
X1246Y1131D01*
X1246Y1133D01*
X1248Y1133D01*
X1248Y1135D01*
X1250Y1135D01*
X1250Y1137D01*
X1252Y1137D01*
X1252Y1139D01*
X1254Y1139D01*
X1254Y1141D01*
X1256Y1141D01*
X1256Y1143D01*
X1258Y1143D01*
X1258Y1145D01*
X1260Y1145D01*
X1260Y1147D01*
X1262Y1147D01*
X1262Y1149D01*
X426Y1149D01*
G37*
D02*
G36*
X298Y1077D02*
X298Y1075D01*
X1390Y1075D01*
X1390Y1077D01*
X298Y1077D01*
G37*
D02*
G36*
X298Y1077D02*
X298Y1075D01*
X1390Y1075D01*
X1390Y1077D01*
X298Y1077D01*
G37*
D02*
G36*
X300Y1075D02*
X300Y1073D01*
X302Y1073D01*
X302Y1071D01*
X304Y1071D01*
X304Y1069D01*
X306Y1069D01*
X306Y1067D01*
X308Y1067D01*
X308Y1065D01*
X310Y1065D01*
X310Y1063D01*
X312Y1063D01*
X312Y1061D01*
X314Y1061D01*
X314Y1059D01*
X316Y1059D01*
X316Y1057D01*
X318Y1057D01*
X318Y1055D01*
X320Y1055D01*
X320Y1053D01*
X322Y1053D01*
X322Y1051D01*
X324Y1051D01*
X324Y1049D01*
X326Y1049D01*
X326Y1047D01*
X328Y1047D01*
X328Y1045D01*
X330Y1045D01*
X330Y1043D01*
X332Y1043D01*
X332Y1041D01*
X334Y1041D01*
X334Y1039D01*
X336Y1039D01*
X336Y1037D01*
X338Y1037D01*
X338Y1035D01*
X340Y1035D01*
X340Y1033D01*
X342Y1033D01*
X342Y1031D01*
X344Y1031D01*
X344Y1029D01*
X346Y1029D01*
X346Y1027D01*
X348Y1027D01*
X348Y1025D01*
X350Y1025D01*
X350Y1023D01*
X352Y1023D01*
X352Y1021D01*
X354Y1021D01*
X354Y1019D01*
X356Y1019D01*
X356Y1017D01*
X358Y1017D01*
X358Y1015D01*
X360Y1015D01*
X360Y1013D01*
X362Y1013D01*
X362Y1011D01*
X364Y1011D01*
X364Y1009D01*
X366Y1009D01*
X366Y1007D01*
X368Y1007D01*
X368Y1005D01*
X370Y1005D01*
X370Y1003D01*
X372Y1003D01*
X372Y1001D01*
X374Y1001D01*
X374Y999D01*
X376Y999D01*
X376Y997D01*
X378Y997D01*
X378Y995D01*
X380Y995D01*
X380Y993D01*
X382Y993D01*
X382Y991D01*
X384Y991D01*
X384Y989D01*
X386Y989D01*
X386Y987D01*
X388Y987D01*
X388Y985D01*
X390Y985D01*
X390Y983D01*
X392Y983D01*
X392Y981D01*
X394Y981D01*
X394Y979D01*
X396Y979D01*
X396Y977D01*
X398Y977D01*
X398Y975D01*
X400Y975D01*
X400Y973D01*
X402Y973D01*
X402Y971D01*
X404Y971D01*
X404Y969D01*
X406Y969D01*
X406Y967D01*
X408Y967D01*
X408Y965D01*
X410Y965D01*
X410Y963D01*
X412Y963D01*
X412Y961D01*
X414Y961D01*
X414Y959D01*
X416Y959D01*
X416Y957D01*
X418Y957D01*
X418Y955D01*
X420Y955D01*
X420Y953D01*
X1062Y953D01*
X1062Y951D01*
X1074Y951D01*
X1074Y949D01*
X1080Y949D01*
X1080Y947D01*
X1086Y947D01*
X1086Y945D01*
X1090Y945D01*
X1090Y943D01*
X1094Y943D01*
X1094Y941D01*
X1096Y941D01*
X1096Y939D01*
X1100Y939D01*
X1100Y937D01*
X1102Y937D01*
X1102Y935D01*
X1106Y935D01*
X1106Y933D01*
X1108Y933D01*
X1108Y931D01*
X1128Y931D01*
X1128Y949D01*
X1126Y949D01*
X1126Y975D01*
X1124Y975D01*
X1124Y1007D01*
X1126Y1007D01*
X1126Y1011D01*
X1128Y1011D01*
X1128Y1013D01*
X1130Y1013D01*
X1130Y1015D01*
X1132Y1015D01*
X1132Y1017D01*
X1134Y1017D01*
X1134Y1019D01*
X1138Y1019D01*
X1138Y1021D01*
X1336Y1021D01*
X1336Y1023D01*
X1338Y1023D01*
X1338Y1025D01*
X1340Y1025D01*
X1340Y1027D01*
X1342Y1027D01*
X1342Y1029D01*
X1344Y1029D01*
X1344Y1031D01*
X1346Y1031D01*
X1346Y1033D01*
X1348Y1033D01*
X1348Y1035D01*
X1350Y1035D01*
X1350Y1037D01*
X1352Y1037D01*
X1352Y1039D01*
X1354Y1039D01*
X1354Y1041D01*
X1356Y1041D01*
X1356Y1043D01*
X1358Y1043D01*
X1358Y1045D01*
X1360Y1045D01*
X1360Y1047D01*
X1362Y1047D01*
X1362Y1049D01*
X1364Y1049D01*
X1364Y1051D01*
X1366Y1051D01*
X1366Y1053D01*
X1368Y1053D01*
X1368Y1055D01*
X1370Y1055D01*
X1370Y1057D01*
X1372Y1057D01*
X1372Y1059D01*
X1374Y1059D01*
X1374Y1061D01*
X1376Y1061D01*
X1376Y1063D01*
X1378Y1063D01*
X1378Y1065D01*
X1380Y1065D01*
X1380Y1067D01*
X1382Y1067D01*
X1382Y1069D01*
X1384Y1069D01*
X1384Y1071D01*
X1386Y1071D01*
X1386Y1073D01*
X1388Y1073D01*
X1388Y1075D01*
X300Y1075D01*
G37*
D02*
G36*
X422Y953D02*
X422Y951D01*
X424Y951D01*
X424Y949D01*
X426Y949D01*
X426Y947D01*
X428Y947D01*
X428Y945D01*
X430Y945D01*
X430Y943D01*
X554Y943D01*
X554Y941D01*
X562Y941D01*
X562Y939D01*
X566Y939D01*
X566Y937D01*
X568Y937D01*
X568Y935D01*
X572Y935D01*
X572Y933D01*
X574Y933D01*
X574Y931D01*
X576Y931D01*
X576Y929D01*
X578Y929D01*
X578Y927D01*
X580Y927D01*
X580Y925D01*
X582Y925D01*
X582Y921D01*
X584Y921D01*
X584Y917D01*
X586Y917D01*
X586Y913D01*
X588Y913D01*
X588Y905D01*
X590Y905D01*
X590Y891D01*
X588Y891D01*
X588Y883D01*
X586Y883D01*
X586Y879D01*
X584Y879D01*
X584Y875D01*
X582Y875D01*
X582Y873D01*
X580Y873D01*
X580Y869D01*
X578Y869D01*
X578Y867D01*
X576Y867D01*
X576Y865D01*
X574Y865D01*
X574Y863D01*
X570Y863D01*
X570Y861D01*
X568Y861D01*
X568Y859D01*
X564Y859D01*
X564Y857D01*
X560Y857D01*
X560Y855D01*
X552Y855D01*
X552Y853D01*
X762Y853D01*
X762Y867D01*
X760Y867D01*
X760Y873D01*
X762Y873D01*
X762Y887D01*
X764Y887D01*
X764Y895D01*
X766Y895D01*
X766Y901D01*
X768Y901D01*
X768Y905D01*
X770Y905D01*
X770Y909D01*
X772Y909D01*
X772Y913D01*
X774Y913D01*
X774Y915D01*
X776Y915D01*
X776Y919D01*
X778Y919D01*
X778Y921D01*
X780Y921D01*
X780Y923D01*
X782Y923D01*
X782Y925D01*
X784Y925D01*
X784Y927D01*
X786Y927D01*
X786Y929D01*
X788Y929D01*
X788Y931D01*
X790Y931D01*
X790Y933D01*
X792Y933D01*
X792Y935D01*
X794Y935D01*
X794Y937D01*
X798Y937D01*
X798Y939D01*
X800Y939D01*
X800Y941D01*
X804Y941D01*
X804Y943D01*
X808Y943D01*
X808Y945D01*
X812Y945D01*
X812Y947D01*
X816Y947D01*
X816Y949D01*
X824Y949D01*
X824Y951D01*
X834Y951D01*
X834Y953D01*
X422Y953D01*
G37*
D02*
G36*
X854Y953D02*
X854Y951D01*
X866Y951D01*
X866Y949D01*
X872Y949D01*
X872Y947D01*
X878Y947D01*
X878Y945D01*
X882Y945D01*
X882Y943D01*
X886Y943D01*
X886Y941D01*
X888Y941D01*
X888Y939D01*
X892Y939D01*
X892Y937D01*
X894Y937D01*
X894Y935D01*
X898Y935D01*
X898Y933D01*
X900Y933D01*
X900Y931D01*
X902Y931D01*
X902Y929D01*
X904Y929D01*
X904Y927D01*
X906Y927D01*
X906Y925D01*
X908Y925D01*
X908Y923D01*
X910Y923D01*
X910Y919D01*
X912Y919D01*
X912Y917D01*
X914Y917D01*
X914Y913D01*
X916Y913D01*
X916Y911D01*
X918Y911D01*
X918Y907D01*
X920Y907D01*
X920Y903D01*
X922Y903D01*
X922Y897D01*
X924Y897D01*
X924Y891D01*
X926Y891D01*
X926Y881D01*
X928Y881D01*
X928Y857D01*
X926Y857D01*
X926Y847D01*
X924Y847D01*
X924Y841D01*
X922Y841D01*
X922Y835D01*
X920Y835D01*
X920Y831D01*
X918Y831D01*
X918Y827D01*
X916Y827D01*
X916Y825D01*
X914Y825D01*
X914Y821D01*
X912Y821D01*
X912Y819D01*
X910Y819D01*
X910Y817D01*
X908Y817D01*
X908Y813D01*
X906Y813D01*
X906Y811D01*
X904Y811D01*
X904Y809D01*
X902Y809D01*
X902Y807D01*
X900Y807D01*
X900Y805D01*
X896Y805D01*
X896Y803D01*
X894Y803D01*
X894Y801D01*
X892Y801D01*
X892Y799D01*
X888Y799D01*
X888Y797D01*
X884Y797D01*
X884Y795D01*
X880Y795D01*
X880Y793D01*
X876Y793D01*
X876Y791D01*
X872Y791D01*
X872Y789D01*
X864Y789D01*
X864Y787D01*
X852Y787D01*
X852Y767D01*
X862Y767D01*
X862Y765D01*
X870Y765D01*
X870Y763D01*
X876Y763D01*
X876Y761D01*
X880Y761D01*
X880Y759D01*
X884Y759D01*
X884Y757D01*
X888Y757D01*
X888Y755D01*
X890Y755D01*
X890Y753D01*
X894Y753D01*
X894Y751D01*
X896Y751D01*
X896Y749D01*
X898Y749D01*
X898Y747D01*
X900Y747D01*
X900Y745D01*
X904Y745D01*
X904Y741D01*
X906Y741D01*
X906Y739D01*
X926Y739D01*
X926Y743D01*
X928Y743D01*
X928Y747D01*
X930Y747D01*
X930Y751D01*
X932Y751D01*
X932Y753D01*
X934Y753D01*
X934Y757D01*
X936Y757D01*
X936Y759D01*
X938Y759D01*
X938Y761D01*
X940Y761D01*
X940Y763D01*
X942Y763D01*
X942Y767D01*
X944Y767D01*
X944Y769D01*
X946Y769D01*
X946Y771D01*
X948Y771D01*
X948Y773D01*
X950Y773D01*
X950Y777D01*
X952Y777D01*
X952Y779D01*
X954Y779D01*
X954Y781D01*
X956Y781D01*
X956Y783D01*
X958Y783D01*
X958Y787D01*
X960Y787D01*
X960Y789D01*
X962Y789D01*
X962Y791D01*
X964Y791D01*
X964Y793D01*
X966Y793D01*
X966Y797D01*
X968Y797D01*
X968Y799D01*
X970Y799D01*
X970Y801D01*
X972Y801D01*
X972Y803D01*
X974Y803D01*
X974Y807D01*
X976Y807D01*
X976Y809D01*
X978Y809D01*
X978Y835D01*
X976Y835D01*
X976Y839D01*
X974Y839D01*
X974Y845D01*
X972Y845D01*
X972Y853D01*
X970Y853D01*
X970Y885D01*
X972Y885D01*
X972Y893D01*
X974Y893D01*
X974Y899D01*
X976Y899D01*
X976Y905D01*
X978Y905D01*
X978Y909D01*
X980Y909D01*
X980Y911D01*
X982Y911D01*
X982Y915D01*
X984Y915D01*
X984Y917D01*
X986Y917D01*
X986Y921D01*
X988Y921D01*
X988Y923D01*
X990Y923D01*
X990Y925D01*
X992Y925D01*
X992Y927D01*
X994Y927D01*
X994Y929D01*
X996Y929D01*
X996Y931D01*
X998Y931D01*
X998Y933D01*
X1000Y933D01*
X1000Y935D01*
X1002Y935D01*
X1002Y937D01*
X1006Y937D01*
X1006Y939D01*
X1008Y939D01*
X1008Y941D01*
X1012Y941D01*
X1012Y943D01*
X1016Y943D01*
X1016Y945D01*
X1020Y945D01*
X1020Y947D01*
X1026Y947D01*
X1026Y949D01*
X1032Y949D01*
X1032Y951D01*
X1042Y951D01*
X1042Y953D01*
X854Y953D01*
G37*
D02*
G36*
X1170Y953D02*
X1170Y951D01*
X1172Y951D01*
X1172Y925D01*
X1174Y925D01*
X1174Y917D01*
X1194Y917D01*
X1194Y921D01*
X1196Y921D01*
X1196Y923D01*
X1198Y923D01*
X1198Y925D01*
X1200Y925D01*
X1200Y927D01*
X1202Y927D01*
X1202Y929D01*
X1204Y929D01*
X1204Y931D01*
X1206Y931D01*
X1206Y933D01*
X1208Y933D01*
X1208Y935D01*
X1212Y935D01*
X1212Y937D01*
X1214Y937D01*
X1214Y939D01*
X1218Y939D01*
X1218Y941D01*
X1220Y941D01*
X1220Y943D01*
X1224Y943D01*
X1224Y945D01*
X1228Y945D01*
X1228Y947D01*
X1234Y947D01*
X1234Y949D01*
X1240Y949D01*
X1240Y951D01*
X1250Y951D01*
X1250Y953D01*
X1170Y953D01*
G37*
D02*
G36*
X454Y943D02*
X454Y941D01*
X462Y941D01*
X462Y939D01*
X466Y939D01*
X466Y937D01*
X468Y937D01*
X468Y935D01*
X472Y935D01*
X472Y933D01*
X474Y933D01*
X474Y931D01*
X476Y931D01*
X476Y929D01*
X478Y929D01*
X478Y927D01*
X480Y927D01*
X480Y925D01*
X482Y925D01*
X482Y921D01*
X484Y921D01*
X484Y917D01*
X504Y917D01*
X504Y919D01*
X506Y919D01*
X506Y923D01*
X508Y923D01*
X508Y925D01*
X510Y925D01*
X510Y927D01*
X512Y927D01*
X512Y931D01*
X516Y931D01*
X516Y933D01*
X518Y933D01*
X518Y935D01*
X520Y935D01*
X520Y937D01*
X524Y937D01*
X524Y939D01*
X528Y939D01*
X528Y941D01*
X534Y941D01*
X534Y943D01*
X454Y943D01*
G37*
D02*
G36*
X484Y879D02*
X484Y875D01*
X482Y875D01*
X482Y873D01*
X480Y873D01*
X480Y869D01*
X478Y869D01*
X478Y867D01*
X476Y867D01*
X476Y865D01*
X474Y865D01*
X474Y863D01*
X470Y863D01*
X470Y861D01*
X468Y861D01*
X468Y859D01*
X464Y859D01*
X464Y857D01*
X460Y857D01*
X460Y855D01*
X452Y855D01*
X452Y853D01*
X538Y853D01*
X538Y855D01*
X530Y855D01*
X530Y857D01*
X526Y857D01*
X526Y859D01*
X522Y859D01*
X522Y861D01*
X518Y861D01*
X518Y863D01*
X516Y863D01*
X516Y865D01*
X514Y865D01*
X514Y867D01*
X512Y867D01*
X512Y869D01*
X510Y869D01*
X510Y871D01*
X508Y871D01*
X508Y873D01*
X506Y873D01*
X506Y877D01*
X504Y877D01*
X504Y879D01*
X484Y879D01*
G37*
D02*
G36*
X40Y853D02*
X40Y851D01*
X762Y851D01*
X762Y853D01*
X40Y853D01*
G37*
D02*
G36*
X40Y853D02*
X40Y851D01*
X762Y851D01*
X762Y853D01*
X40Y853D01*
G37*
D02*
G36*
X40Y853D02*
X40Y851D01*
X762Y851D01*
X762Y853D01*
X40Y853D01*
G37*
D02*
G36*
X40Y851D02*
X40Y745D01*
X256Y745D01*
X256Y743D01*
X264Y743D01*
X264Y741D01*
X266Y741D01*
X266Y739D01*
X270Y739D01*
X270Y737D01*
X272Y737D01*
X272Y735D01*
X276Y735D01*
X276Y733D01*
X278Y733D01*
X278Y731D01*
X280Y731D01*
X280Y729D01*
X282Y729D01*
X282Y725D01*
X284Y725D01*
X284Y723D01*
X286Y723D01*
X286Y719D01*
X288Y719D01*
X288Y715D01*
X290Y715D01*
X290Y707D01*
X292Y707D01*
X292Y689D01*
X290Y689D01*
X290Y683D01*
X288Y683D01*
X288Y677D01*
X286Y677D01*
X286Y675D01*
X284Y675D01*
X284Y671D01*
X282Y671D01*
X282Y669D01*
X280Y669D01*
X280Y665D01*
X278Y665D01*
X278Y663D01*
X274Y663D01*
X274Y661D01*
X272Y661D01*
X272Y659D01*
X270Y659D01*
X270Y657D01*
X266Y657D01*
X266Y451D01*
X334Y451D01*
X334Y453D01*
X328Y453D01*
X328Y455D01*
X324Y455D01*
X324Y457D01*
X320Y457D01*
X320Y459D01*
X316Y459D01*
X316Y461D01*
X314Y461D01*
X314Y463D01*
X312Y463D01*
X312Y465D01*
X310Y465D01*
X310Y467D01*
X308Y467D01*
X308Y469D01*
X306Y469D01*
X306Y473D01*
X304Y473D01*
X304Y475D01*
X302Y475D01*
X302Y479D01*
X300Y479D01*
X300Y485D01*
X298Y485D01*
X298Y497D01*
X296Y497D01*
X296Y499D01*
X298Y499D01*
X298Y511D01*
X300Y511D01*
X300Y517D01*
X302Y517D01*
X302Y521D01*
X304Y521D01*
X304Y525D01*
X306Y525D01*
X306Y527D01*
X308Y527D01*
X308Y529D01*
X310Y529D01*
X310Y531D01*
X312Y531D01*
X312Y533D01*
X314Y533D01*
X314Y535D01*
X316Y535D01*
X316Y537D01*
X318Y537D01*
X318Y539D01*
X322Y539D01*
X322Y541D01*
X326Y541D01*
X326Y543D01*
X332Y543D01*
X332Y545D01*
X344Y545D01*
X344Y547D01*
X346Y547D01*
X346Y551D01*
X348Y551D01*
X348Y555D01*
X350Y555D01*
X350Y559D01*
X352Y559D01*
X352Y563D01*
X354Y563D01*
X354Y567D01*
X356Y567D01*
X356Y571D01*
X358Y571D01*
X358Y575D01*
X360Y575D01*
X360Y579D01*
X362Y579D01*
X362Y583D01*
X364Y583D01*
X364Y587D01*
X366Y587D01*
X366Y591D01*
X368Y591D01*
X368Y595D01*
X370Y595D01*
X370Y599D01*
X372Y599D01*
X372Y603D01*
X374Y603D01*
X374Y607D01*
X376Y607D01*
X376Y611D01*
X378Y611D01*
X378Y615D01*
X380Y615D01*
X380Y619D01*
X382Y619D01*
X382Y623D01*
X384Y623D01*
X384Y627D01*
X386Y627D01*
X386Y631D01*
X388Y631D01*
X388Y635D01*
X390Y635D01*
X390Y639D01*
X392Y639D01*
X392Y643D01*
X394Y643D01*
X394Y647D01*
X396Y647D01*
X396Y651D01*
X398Y651D01*
X398Y655D01*
X400Y655D01*
X400Y659D01*
X402Y659D01*
X402Y663D01*
X404Y663D01*
X404Y667D01*
X406Y667D01*
X406Y671D01*
X408Y671D01*
X408Y675D01*
X410Y675D01*
X410Y679D01*
X412Y679D01*
X412Y683D01*
X414Y683D01*
X414Y687D01*
X416Y687D01*
X416Y691D01*
X418Y691D01*
X418Y695D01*
X420Y695D01*
X420Y699D01*
X422Y699D01*
X422Y703D01*
X424Y703D01*
X424Y707D01*
X426Y707D01*
X426Y711D01*
X428Y711D01*
X428Y713D01*
X430Y713D01*
X430Y715D01*
X434Y715D01*
X434Y717D01*
X438Y717D01*
X438Y719D01*
X636Y719D01*
X636Y721D01*
X638Y721D01*
X638Y723D01*
X640Y723D01*
X640Y725D01*
X644Y725D01*
X644Y727D01*
X646Y727D01*
X646Y729D01*
X648Y729D01*
X648Y731D01*
X650Y731D01*
X650Y733D01*
X652Y733D01*
X652Y735D01*
X654Y735D01*
X654Y737D01*
X658Y737D01*
X658Y739D01*
X660Y739D01*
X660Y741D01*
X662Y741D01*
X662Y743D01*
X664Y743D01*
X664Y745D01*
X666Y745D01*
X666Y747D01*
X668Y747D01*
X668Y749D01*
X672Y749D01*
X672Y751D01*
X674Y751D01*
X674Y753D01*
X676Y753D01*
X676Y755D01*
X678Y755D01*
X678Y757D01*
X680Y757D01*
X680Y759D01*
X684Y759D01*
X684Y761D01*
X686Y761D01*
X686Y763D01*
X688Y763D01*
X688Y765D01*
X690Y765D01*
X690Y767D01*
X692Y767D01*
X692Y769D01*
X694Y769D01*
X694Y771D01*
X698Y771D01*
X698Y773D01*
X700Y773D01*
X700Y775D01*
X702Y775D01*
X702Y777D01*
X704Y777D01*
X704Y779D01*
X706Y779D01*
X706Y781D01*
X708Y781D01*
X708Y783D01*
X712Y783D01*
X712Y785D01*
X714Y785D01*
X714Y787D01*
X716Y787D01*
X716Y789D01*
X718Y789D01*
X718Y791D01*
X720Y791D01*
X720Y793D01*
X722Y793D01*
X722Y795D01*
X726Y795D01*
X726Y797D01*
X728Y797D01*
X728Y799D01*
X730Y799D01*
X730Y801D01*
X732Y801D01*
X732Y803D01*
X734Y803D01*
X734Y805D01*
X736Y805D01*
X736Y807D01*
X740Y807D01*
X740Y809D01*
X742Y809D01*
X742Y811D01*
X744Y811D01*
X744Y813D01*
X746Y813D01*
X746Y815D01*
X748Y815D01*
X748Y817D01*
X750Y817D01*
X750Y819D01*
X754Y819D01*
X754Y821D01*
X756Y821D01*
X756Y823D01*
X758Y823D01*
X758Y825D01*
X760Y825D01*
X760Y827D01*
X762Y827D01*
X762Y829D01*
X764Y829D01*
X764Y851D01*
X40Y851D01*
G37*
D02*
G36*
X1182Y811D02*
X1182Y799D01*
X1184Y799D01*
X1184Y775D01*
X1186Y775D01*
X1186Y755D01*
X1184Y755D01*
X1184Y751D01*
X1182Y751D01*
X1182Y747D01*
X1180Y747D01*
X1180Y745D01*
X1178Y745D01*
X1178Y743D01*
X1176Y743D01*
X1176Y741D01*
X1172Y741D01*
X1172Y739D01*
X1170Y739D01*
X1170Y737D01*
X1166Y737D01*
X1166Y735D01*
X1164Y735D01*
X1164Y733D01*
X1160Y733D01*
X1160Y731D01*
X1158Y731D01*
X1158Y729D01*
X1154Y729D01*
X1154Y727D01*
X1152Y727D01*
X1152Y725D01*
X1150Y725D01*
X1150Y723D01*
X1146Y723D01*
X1146Y721D01*
X1144Y721D01*
X1144Y719D01*
X1140Y719D01*
X1140Y717D01*
X1138Y717D01*
X1138Y715D01*
X1136Y715D01*
X1136Y671D01*
X1134Y671D01*
X1134Y661D01*
X1132Y661D01*
X1132Y655D01*
X1130Y655D01*
X1130Y651D01*
X1128Y651D01*
X1128Y647D01*
X1126Y647D01*
X1126Y643D01*
X1124Y643D01*
X1124Y639D01*
X1122Y639D01*
X1122Y637D01*
X1120Y637D01*
X1120Y633D01*
X1118Y633D01*
X1118Y631D01*
X1116Y631D01*
X1116Y629D01*
X1114Y629D01*
X1114Y627D01*
X1112Y627D01*
X1112Y625D01*
X1110Y625D01*
X1110Y623D01*
X1108Y623D01*
X1108Y621D01*
X1106Y621D01*
X1106Y619D01*
X1104Y619D01*
X1104Y617D01*
X1100Y617D01*
X1100Y615D01*
X1098Y615D01*
X1098Y613D01*
X1094Y613D01*
X1094Y611D01*
X1090Y611D01*
X1090Y609D01*
X1086Y609D01*
X1086Y607D01*
X1082Y607D01*
X1082Y605D01*
X1074Y605D01*
X1074Y603D01*
X1066Y603D01*
X1066Y601D01*
X1248Y601D01*
X1248Y603D01*
X1238Y603D01*
X1238Y605D01*
X1232Y605D01*
X1232Y607D01*
X1228Y607D01*
X1228Y609D01*
X1224Y609D01*
X1224Y611D01*
X1220Y611D01*
X1220Y613D01*
X1216Y613D01*
X1216Y615D01*
X1214Y615D01*
X1214Y617D01*
X1210Y617D01*
X1210Y619D01*
X1208Y619D01*
X1208Y621D01*
X1206Y621D01*
X1206Y623D01*
X1204Y623D01*
X1204Y625D01*
X1202Y625D01*
X1202Y627D01*
X1200Y627D01*
X1200Y629D01*
X1198Y629D01*
X1198Y631D01*
X1196Y631D01*
X1196Y633D01*
X1194Y633D01*
X1194Y637D01*
X1192Y637D01*
X1192Y639D01*
X1190Y639D01*
X1190Y643D01*
X1188Y643D01*
X1188Y645D01*
X1186Y645D01*
X1186Y649D01*
X1184Y649D01*
X1184Y655D01*
X1182Y655D01*
X1182Y661D01*
X1180Y661D01*
X1180Y669D01*
X1178Y669D01*
X1178Y699D01*
X1180Y699D01*
X1180Y707D01*
X1182Y707D01*
X1182Y713D01*
X1184Y713D01*
X1184Y719D01*
X1186Y719D01*
X1186Y723D01*
X1188Y723D01*
X1188Y727D01*
X1190Y727D01*
X1190Y729D01*
X1192Y729D01*
X1192Y733D01*
X1194Y733D01*
X1194Y735D01*
X1196Y735D01*
X1196Y739D01*
X1198Y739D01*
X1198Y741D01*
X1200Y741D01*
X1200Y743D01*
X1202Y743D01*
X1202Y745D01*
X1204Y745D01*
X1204Y747D01*
X1206Y747D01*
X1206Y749D01*
X1210Y749D01*
X1210Y751D01*
X1212Y751D01*
X1212Y753D01*
X1214Y753D01*
X1214Y755D01*
X1218Y755D01*
X1218Y757D01*
X1222Y757D01*
X1222Y759D01*
X1226Y759D01*
X1226Y761D01*
X1230Y761D01*
X1230Y763D01*
X1236Y763D01*
X1236Y765D01*
X1244Y765D01*
X1244Y767D01*
X1254Y767D01*
X1254Y787D01*
X1242Y787D01*
X1242Y789D01*
X1234Y789D01*
X1234Y791D01*
X1228Y791D01*
X1228Y793D01*
X1224Y793D01*
X1224Y795D01*
X1220Y795D01*
X1220Y797D01*
X1218Y797D01*
X1218Y799D01*
X1214Y799D01*
X1214Y801D01*
X1212Y801D01*
X1212Y803D01*
X1208Y803D01*
X1208Y805D01*
X1206Y805D01*
X1206Y807D01*
X1204Y807D01*
X1204Y809D01*
X1202Y809D01*
X1202Y811D01*
X1182Y811D01*
G37*
D02*
G36*
X788Y793D02*
X788Y791D01*
X786Y791D01*
X786Y789D01*
X784Y789D01*
X784Y787D01*
X782Y787D01*
X782Y785D01*
X778Y785D01*
X778Y783D01*
X776Y783D01*
X776Y781D01*
X774Y781D01*
X774Y779D01*
X772Y779D01*
X772Y777D01*
X770Y777D01*
X770Y775D01*
X768Y775D01*
X768Y773D01*
X764Y773D01*
X764Y771D01*
X762Y771D01*
X762Y769D01*
X760Y769D01*
X760Y767D01*
X758Y767D01*
X758Y765D01*
X756Y765D01*
X756Y763D01*
X754Y763D01*
X754Y761D01*
X750Y761D01*
X750Y759D01*
X748Y759D01*
X748Y757D01*
X746Y757D01*
X746Y755D01*
X744Y755D01*
X744Y753D01*
X742Y753D01*
X742Y751D01*
X740Y751D01*
X740Y749D01*
X736Y749D01*
X736Y747D01*
X734Y747D01*
X734Y745D01*
X732Y745D01*
X732Y743D01*
X730Y743D01*
X730Y741D01*
X728Y741D01*
X728Y739D01*
X726Y739D01*
X726Y737D01*
X722Y737D01*
X722Y735D01*
X720Y735D01*
X720Y733D01*
X718Y733D01*
X718Y731D01*
X716Y731D01*
X716Y729D01*
X714Y729D01*
X714Y727D01*
X712Y727D01*
X712Y725D01*
X708Y725D01*
X708Y723D01*
X706Y723D01*
X706Y721D01*
X704Y721D01*
X704Y719D01*
X702Y719D01*
X702Y717D01*
X700Y717D01*
X700Y715D01*
X696Y715D01*
X696Y713D01*
X694Y713D01*
X694Y711D01*
X692Y711D01*
X692Y709D01*
X690Y709D01*
X690Y707D01*
X688Y707D01*
X688Y705D01*
X686Y705D01*
X686Y703D01*
X682Y703D01*
X682Y701D01*
X680Y701D01*
X680Y699D01*
X678Y699D01*
X678Y697D01*
X676Y697D01*
X676Y695D01*
X674Y695D01*
X674Y693D01*
X672Y693D01*
X672Y691D01*
X668Y691D01*
X668Y689D01*
X666Y689D01*
X666Y687D01*
X664Y687D01*
X664Y685D01*
X662Y685D01*
X662Y683D01*
X660Y683D01*
X660Y681D01*
X658Y681D01*
X658Y679D01*
X654Y679D01*
X654Y677D01*
X648Y677D01*
X648Y675D01*
X458Y675D01*
X458Y673D01*
X456Y673D01*
X456Y669D01*
X454Y669D01*
X454Y665D01*
X452Y665D01*
X452Y661D01*
X450Y661D01*
X450Y657D01*
X448Y657D01*
X448Y653D01*
X446Y653D01*
X446Y649D01*
X444Y649D01*
X444Y645D01*
X442Y645D01*
X442Y641D01*
X440Y641D01*
X440Y637D01*
X438Y637D01*
X438Y633D01*
X436Y633D01*
X436Y629D01*
X434Y629D01*
X434Y625D01*
X432Y625D01*
X432Y621D01*
X430Y621D01*
X430Y617D01*
X428Y617D01*
X428Y613D01*
X426Y613D01*
X426Y609D01*
X424Y609D01*
X424Y605D01*
X422Y605D01*
X422Y601D01*
X832Y601D01*
X832Y603D01*
X822Y603D01*
X822Y605D01*
X816Y605D01*
X816Y607D01*
X810Y607D01*
X810Y609D01*
X806Y609D01*
X806Y611D01*
X802Y611D01*
X802Y613D01*
X800Y613D01*
X800Y615D01*
X796Y615D01*
X796Y617D01*
X794Y617D01*
X794Y619D01*
X792Y619D01*
X792Y621D01*
X790Y621D01*
X790Y623D01*
X786Y623D01*
X786Y625D01*
X784Y625D01*
X784Y627D01*
X782Y627D01*
X782Y631D01*
X780Y631D01*
X780Y633D01*
X778Y633D01*
X778Y635D01*
X776Y635D01*
X776Y639D01*
X774Y639D01*
X774Y641D01*
X772Y641D01*
X772Y645D01*
X770Y645D01*
X770Y649D01*
X768Y649D01*
X768Y653D01*
X766Y653D01*
X766Y659D01*
X764Y659D01*
X764Y667D01*
X762Y667D01*
X762Y681D01*
X760Y681D01*
X760Y687D01*
X762Y687D01*
X762Y703D01*
X764Y703D01*
X764Y711D01*
X766Y711D01*
X766Y715D01*
X768Y715D01*
X768Y721D01*
X770Y721D01*
X770Y725D01*
X772Y725D01*
X772Y727D01*
X774Y727D01*
X774Y731D01*
X776Y731D01*
X776Y733D01*
X778Y733D01*
X778Y737D01*
X780Y737D01*
X780Y739D01*
X782Y739D01*
X782Y741D01*
X784Y741D01*
X784Y743D01*
X786Y743D01*
X786Y745D01*
X788Y745D01*
X788Y747D01*
X790Y747D01*
X790Y749D01*
X792Y749D01*
X792Y751D01*
X796Y751D01*
X796Y753D01*
X798Y753D01*
X798Y755D01*
X802Y755D01*
X802Y757D01*
X804Y757D01*
X804Y759D01*
X808Y759D01*
X808Y761D01*
X814Y761D01*
X814Y763D01*
X818Y763D01*
X818Y765D01*
X826Y765D01*
X826Y767D01*
X836Y767D01*
X836Y787D01*
X826Y787D01*
X826Y789D01*
X818Y789D01*
X818Y791D01*
X812Y791D01*
X812Y793D01*
X788Y793D01*
G37*
D02*
G36*
X1310Y753D02*
X1310Y751D01*
X1822Y751D01*
X1822Y753D01*
X1310Y753D01*
G37*
D02*
G36*
X1310Y753D02*
X1310Y751D01*
X1822Y751D01*
X1822Y753D01*
X1310Y753D01*
G37*
D02*
G36*
X1312Y751D02*
X1312Y749D01*
X1316Y749D01*
X1316Y747D01*
X1318Y747D01*
X1318Y745D01*
X1320Y745D01*
X1320Y743D01*
X1322Y743D01*
X1322Y741D01*
X1324Y741D01*
X1324Y739D01*
X1326Y739D01*
X1326Y735D01*
X1328Y735D01*
X1328Y733D01*
X1330Y733D01*
X1330Y731D01*
X1332Y731D01*
X1332Y727D01*
X1334Y727D01*
X1334Y723D01*
X1336Y723D01*
X1336Y719D01*
X1338Y719D01*
X1338Y715D01*
X1340Y715D01*
X1340Y709D01*
X1342Y709D01*
X1342Y701D01*
X1344Y701D01*
X1344Y669D01*
X1342Y669D01*
X1342Y661D01*
X1340Y661D01*
X1340Y635D01*
X1342Y635D01*
X1342Y633D01*
X1344Y633D01*
X1344Y631D01*
X1346Y631D01*
X1346Y629D01*
X1348Y629D01*
X1348Y627D01*
X1350Y627D01*
X1350Y625D01*
X1352Y625D01*
X1352Y623D01*
X1354Y623D01*
X1354Y621D01*
X1356Y621D01*
X1356Y619D01*
X1358Y619D01*
X1358Y617D01*
X1360Y617D01*
X1360Y615D01*
X1362Y615D01*
X1362Y613D01*
X1364Y613D01*
X1364Y611D01*
X1366Y611D01*
X1366Y609D01*
X1368Y609D01*
X1368Y607D01*
X1370Y607D01*
X1370Y605D01*
X1372Y605D01*
X1372Y603D01*
X1374Y603D01*
X1374Y601D01*
X1376Y601D01*
X1376Y599D01*
X1378Y599D01*
X1378Y597D01*
X1380Y597D01*
X1380Y595D01*
X1382Y595D01*
X1382Y591D01*
X1384Y591D01*
X1384Y589D01*
X1386Y589D01*
X1386Y587D01*
X1388Y587D01*
X1388Y585D01*
X1390Y585D01*
X1390Y583D01*
X1392Y583D01*
X1392Y581D01*
X1394Y581D01*
X1394Y579D01*
X1396Y579D01*
X1396Y577D01*
X1398Y577D01*
X1398Y575D01*
X1400Y575D01*
X1400Y573D01*
X1402Y573D01*
X1402Y571D01*
X1404Y571D01*
X1404Y569D01*
X1406Y569D01*
X1406Y567D01*
X1408Y567D01*
X1408Y565D01*
X1410Y565D01*
X1410Y563D01*
X1412Y563D01*
X1412Y561D01*
X1414Y561D01*
X1414Y559D01*
X1416Y559D01*
X1416Y557D01*
X1418Y557D01*
X1418Y555D01*
X1420Y555D01*
X1420Y553D01*
X1422Y553D01*
X1422Y551D01*
X1424Y551D01*
X1424Y549D01*
X1426Y549D01*
X1426Y547D01*
X1428Y547D01*
X1428Y545D01*
X1430Y545D01*
X1430Y543D01*
X1432Y543D01*
X1432Y541D01*
X1434Y541D01*
X1434Y539D01*
X1656Y539D01*
X1656Y537D01*
X1662Y537D01*
X1662Y535D01*
X1666Y535D01*
X1666Y533D01*
X1668Y533D01*
X1668Y531D01*
X1670Y531D01*
X1670Y529D01*
X1674Y529D01*
X1674Y527D01*
X1676Y527D01*
X1676Y523D01*
X1678Y523D01*
X1678Y521D01*
X1680Y521D01*
X1680Y517D01*
X1682Y517D01*
X1682Y513D01*
X1684Y513D01*
X1684Y507D01*
X1686Y507D01*
X1686Y491D01*
X1684Y491D01*
X1684Y483D01*
X1682Y483D01*
X1682Y479D01*
X1680Y479D01*
X1680Y475D01*
X1678Y475D01*
X1678Y473D01*
X1676Y473D01*
X1676Y471D01*
X1674Y471D01*
X1674Y469D01*
X1672Y469D01*
X1672Y467D01*
X1670Y467D01*
X1670Y465D01*
X1668Y465D01*
X1668Y463D01*
X1664Y463D01*
X1664Y461D01*
X1660Y461D01*
X1660Y441D01*
X1686Y441D01*
X1686Y359D01*
X1634Y359D01*
X1634Y357D01*
X1632Y357D01*
X1632Y355D01*
X1630Y355D01*
X1630Y353D01*
X1628Y353D01*
X1628Y351D01*
X1626Y351D01*
X1626Y349D01*
X1624Y349D01*
X1624Y347D01*
X1622Y347D01*
X1622Y345D01*
X1620Y345D01*
X1620Y343D01*
X1618Y343D01*
X1618Y341D01*
X1616Y341D01*
X1616Y339D01*
X1614Y339D01*
X1614Y337D01*
X1612Y337D01*
X1612Y335D01*
X1610Y335D01*
X1610Y333D01*
X1608Y333D01*
X1608Y331D01*
X1606Y331D01*
X1606Y329D01*
X1604Y329D01*
X1604Y327D01*
X1602Y327D01*
X1602Y325D01*
X1600Y325D01*
X1600Y323D01*
X1598Y323D01*
X1598Y321D01*
X1596Y321D01*
X1596Y319D01*
X1594Y319D01*
X1594Y317D01*
X1592Y317D01*
X1592Y315D01*
X1590Y315D01*
X1590Y311D01*
X1588Y311D01*
X1588Y309D01*
X1586Y309D01*
X1586Y307D01*
X1584Y307D01*
X1584Y305D01*
X1582Y305D01*
X1582Y303D01*
X1580Y303D01*
X1580Y301D01*
X1578Y301D01*
X1578Y299D01*
X1576Y299D01*
X1576Y297D01*
X1574Y297D01*
X1574Y295D01*
X1572Y295D01*
X1572Y293D01*
X1570Y293D01*
X1570Y291D01*
X1568Y291D01*
X1568Y289D01*
X1566Y289D01*
X1566Y287D01*
X1564Y287D01*
X1564Y285D01*
X1562Y285D01*
X1562Y283D01*
X1560Y283D01*
X1560Y281D01*
X1558Y281D01*
X1558Y279D01*
X1554Y279D01*
X1554Y277D01*
X1548Y277D01*
X1548Y275D01*
X1692Y275D01*
X1692Y277D01*
X1694Y277D01*
X1694Y279D01*
X1696Y279D01*
X1696Y281D01*
X1698Y281D01*
X1698Y283D01*
X1700Y283D01*
X1700Y285D01*
X1702Y285D01*
X1702Y287D01*
X1704Y287D01*
X1704Y289D01*
X1706Y289D01*
X1706Y291D01*
X1708Y291D01*
X1708Y293D01*
X1710Y293D01*
X1710Y295D01*
X1712Y295D01*
X1712Y297D01*
X1714Y297D01*
X1714Y299D01*
X1716Y299D01*
X1716Y301D01*
X1718Y301D01*
X1718Y303D01*
X1720Y303D01*
X1720Y305D01*
X1722Y305D01*
X1722Y307D01*
X1724Y307D01*
X1724Y309D01*
X1726Y309D01*
X1726Y311D01*
X1728Y311D01*
X1728Y313D01*
X1730Y313D01*
X1730Y315D01*
X1732Y315D01*
X1732Y317D01*
X1734Y317D01*
X1734Y319D01*
X1736Y319D01*
X1736Y321D01*
X1738Y321D01*
X1738Y323D01*
X1740Y323D01*
X1740Y325D01*
X1742Y325D01*
X1742Y327D01*
X1744Y327D01*
X1744Y329D01*
X1746Y329D01*
X1746Y331D01*
X1748Y331D01*
X1748Y333D01*
X1750Y333D01*
X1750Y335D01*
X1752Y335D01*
X1752Y337D01*
X1754Y337D01*
X1754Y339D01*
X1756Y339D01*
X1756Y341D01*
X1758Y341D01*
X1758Y343D01*
X1760Y343D01*
X1760Y345D01*
X1762Y345D01*
X1762Y347D01*
X1764Y347D01*
X1764Y349D01*
X1766Y349D01*
X1766Y351D01*
X1768Y351D01*
X1768Y353D01*
X1770Y353D01*
X1770Y355D01*
X1772Y355D01*
X1772Y357D01*
X1774Y357D01*
X1774Y359D01*
X1776Y359D01*
X1776Y361D01*
X1778Y361D01*
X1778Y363D01*
X1780Y363D01*
X1780Y365D01*
X1782Y365D01*
X1782Y367D01*
X1784Y367D01*
X1784Y369D01*
X1786Y369D01*
X1786Y371D01*
X1788Y371D01*
X1788Y373D01*
X1790Y373D01*
X1790Y375D01*
X1792Y375D01*
X1792Y377D01*
X1794Y377D01*
X1794Y379D01*
X1796Y379D01*
X1796Y381D01*
X1798Y381D01*
X1798Y383D01*
X1800Y383D01*
X1800Y385D01*
X1802Y385D01*
X1802Y387D01*
X1804Y387D01*
X1804Y389D01*
X1806Y389D01*
X1806Y391D01*
X1808Y391D01*
X1808Y393D01*
X1810Y393D01*
X1810Y395D01*
X1812Y395D01*
X1812Y397D01*
X1814Y397D01*
X1814Y399D01*
X1816Y399D01*
X1816Y401D01*
X1818Y401D01*
X1818Y403D01*
X1820Y403D01*
X1820Y405D01*
X1822Y405D01*
X1822Y751D01*
X1312Y751D01*
G37*
D02*
G36*
X40Y745D02*
X40Y385D01*
X42Y385D01*
X42Y369D01*
X44Y369D01*
X44Y359D01*
X46Y359D01*
X46Y349D01*
X48Y349D01*
X48Y341D01*
X50Y341D01*
X50Y333D01*
X52Y333D01*
X52Y325D01*
X54Y325D01*
X54Y319D01*
X56Y319D01*
X56Y313D01*
X58Y313D01*
X58Y307D01*
X60Y307D01*
X60Y301D01*
X62Y301D01*
X62Y295D01*
X64Y295D01*
X64Y289D01*
X66Y289D01*
X66Y285D01*
X68Y285D01*
X68Y279D01*
X70Y279D01*
X70Y275D01*
X72Y275D01*
X72Y271D01*
X74Y271D01*
X74Y267D01*
X76Y267D01*
X76Y263D01*
X78Y263D01*
X78Y259D01*
X80Y259D01*
X80Y255D01*
X82Y255D01*
X82Y251D01*
X84Y251D01*
X84Y247D01*
X86Y247D01*
X86Y243D01*
X88Y243D01*
X88Y239D01*
X90Y239D01*
X90Y237D01*
X92Y237D01*
X92Y233D01*
X94Y233D01*
X94Y229D01*
X96Y229D01*
X96Y227D01*
X98Y227D01*
X98Y223D01*
X100Y223D01*
X100Y219D01*
X102Y219D01*
X102Y217D01*
X104Y217D01*
X104Y213D01*
X106Y213D01*
X106Y211D01*
X108Y211D01*
X108Y209D01*
X110Y209D01*
X110Y205D01*
X112Y205D01*
X112Y203D01*
X114Y203D01*
X114Y199D01*
X116Y199D01*
X116Y197D01*
X118Y197D01*
X118Y195D01*
X120Y195D01*
X120Y191D01*
X122Y191D01*
X122Y189D01*
X124Y189D01*
X124Y187D01*
X126Y187D01*
X126Y185D01*
X128Y185D01*
X128Y181D01*
X130Y181D01*
X130Y179D01*
X132Y179D01*
X132Y177D01*
X134Y177D01*
X134Y175D01*
X136Y175D01*
X136Y173D01*
X138Y173D01*
X138Y171D01*
X140Y171D01*
X140Y169D01*
X142Y169D01*
X142Y165D01*
X144Y165D01*
X144Y163D01*
X146Y163D01*
X146Y161D01*
X148Y161D01*
X148Y159D01*
X150Y159D01*
X150Y157D01*
X152Y157D01*
X152Y155D01*
X154Y155D01*
X154Y153D01*
X156Y153D01*
X156Y151D01*
X158Y151D01*
X158Y149D01*
X160Y149D01*
X160Y147D01*
X164Y147D01*
X164Y145D01*
X166Y145D01*
X166Y143D01*
X168Y143D01*
X168Y141D01*
X170Y141D01*
X170Y139D01*
X172Y139D01*
X172Y137D01*
X174Y137D01*
X174Y135D01*
X176Y135D01*
X176Y133D01*
X178Y133D01*
X178Y131D01*
X182Y131D01*
X182Y129D01*
X184Y129D01*
X184Y127D01*
X186Y127D01*
X186Y125D01*
X188Y125D01*
X188Y123D01*
X192Y123D01*
X192Y121D01*
X194Y121D01*
X194Y119D01*
X196Y119D01*
X196Y117D01*
X200Y117D01*
X200Y115D01*
X202Y115D01*
X202Y113D01*
X206Y113D01*
X206Y111D01*
X208Y111D01*
X208Y109D01*
X210Y109D01*
X210Y107D01*
X214Y107D01*
X214Y105D01*
X216Y105D01*
X216Y103D01*
X220Y103D01*
X220Y101D01*
X224Y101D01*
X224Y99D01*
X226Y99D01*
X226Y97D01*
X230Y97D01*
X230Y95D01*
X234Y95D01*
X234Y93D01*
X236Y93D01*
X236Y91D01*
X240Y91D01*
X240Y89D01*
X244Y89D01*
X244Y87D01*
X248Y87D01*
X248Y85D01*
X252Y85D01*
X252Y83D01*
X256Y83D01*
X256Y81D01*
X260Y81D01*
X260Y79D01*
X264Y79D01*
X264Y77D01*
X636Y77D01*
X636Y79D01*
X632Y79D01*
X632Y81D01*
X630Y81D01*
X630Y83D01*
X626Y83D01*
X626Y85D01*
X624Y85D01*
X624Y87D01*
X622Y87D01*
X622Y89D01*
X618Y89D01*
X618Y91D01*
X616Y91D01*
X616Y93D01*
X614Y93D01*
X614Y95D01*
X610Y95D01*
X610Y97D01*
X608Y97D01*
X608Y99D01*
X606Y99D01*
X606Y101D01*
X602Y101D01*
X602Y103D01*
X600Y103D01*
X600Y105D01*
X598Y105D01*
X598Y107D01*
X594Y107D01*
X594Y109D01*
X592Y109D01*
X592Y111D01*
X590Y111D01*
X590Y113D01*
X586Y113D01*
X586Y115D01*
X584Y115D01*
X584Y117D01*
X582Y117D01*
X582Y119D01*
X578Y119D01*
X578Y121D01*
X576Y121D01*
X576Y123D01*
X574Y123D01*
X574Y125D01*
X570Y125D01*
X570Y127D01*
X568Y127D01*
X568Y129D01*
X566Y129D01*
X566Y131D01*
X562Y131D01*
X562Y133D01*
X560Y133D01*
X560Y135D01*
X558Y135D01*
X558Y137D01*
X554Y137D01*
X554Y139D01*
X552Y139D01*
X552Y141D01*
X550Y141D01*
X550Y143D01*
X546Y143D01*
X546Y145D01*
X544Y145D01*
X544Y147D01*
X542Y147D01*
X542Y149D01*
X538Y149D01*
X538Y151D01*
X536Y151D01*
X536Y153D01*
X534Y153D01*
X534Y155D01*
X530Y155D01*
X530Y157D01*
X528Y157D01*
X528Y159D01*
X526Y159D01*
X526Y161D01*
X522Y161D01*
X522Y163D01*
X520Y163D01*
X520Y165D01*
X518Y165D01*
X518Y167D01*
X514Y167D01*
X514Y169D01*
X512Y169D01*
X512Y171D01*
X510Y171D01*
X510Y173D01*
X506Y173D01*
X506Y175D01*
X504Y175D01*
X504Y177D01*
X502Y177D01*
X502Y179D01*
X498Y179D01*
X498Y181D01*
X496Y181D01*
X496Y183D01*
X494Y183D01*
X494Y185D01*
X490Y185D01*
X490Y187D01*
X488Y187D01*
X488Y189D01*
X486Y189D01*
X486Y191D01*
X482Y191D01*
X482Y193D01*
X480Y193D01*
X480Y195D01*
X478Y195D01*
X478Y197D01*
X474Y197D01*
X474Y199D01*
X472Y199D01*
X472Y201D01*
X470Y201D01*
X470Y203D01*
X466Y203D01*
X466Y205D01*
X464Y205D01*
X464Y207D01*
X462Y207D01*
X462Y209D01*
X458Y209D01*
X458Y211D01*
X456Y211D01*
X456Y213D01*
X454Y213D01*
X454Y215D01*
X450Y215D01*
X450Y217D01*
X448Y217D01*
X448Y219D01*
X446Y219D01*
X446Y221D01*
X442Y221D01*
X442Y223D01*
X440Y223D01*
X440Y225D01*
X438Y225D01*
X438Y227D01*
X434Y227D01*
X434Y229D01*
X432Y229D01*
X432Y231D01*
X430Y231D01*
X430Y233D01*
X426Y233D01*
X426Y235D01*
X424Y235D01*
X424Y237D01*
X422Y237D01*
X422Y239D01*
X418Y239D01*
X418Y241D01*
X416Y241D01*
X416Y243D01*
X414Y243D01*
X414Y245D01*
X410Y245D01*
X410Y247D01*
X408Y247D01*
X408Y249D01*
X406Y249D01*
X406Y251D01*
X402Y251D01*
X402Y253D01*
X400Y253D01*
X400Y255D01*
X398Y255D01*
X398Y257D01*
X394Y257D01*
X394Y259D01*
X392Y259D01*
X392Y261D01*
X390Y261D01*
X390Y263D01*
X386Y263D01*
X386Y265D01*
X384Y265D01*
X384Y267D01*
X382Y267D01*
X382Y269D01*
X378Y269D01*
X378Y271D01*
X376Y271D01*
X376Y273D01*
X374Y273D01*
X374Y275D01*
X370Y275D01*
X370Y277D01*
X368Y277D01*
X368Y279D01*
X366Y279D01*
X366Y281D01*
X362Y281D01*
X362Y283D01*
X360Y283D01*
X360Y285D01*
X358Y285D01*
X358Y287D01*
X354Y287D01*
X354Y289D01*
X352Y289D01*
X352Y291D01*
X350Y291D01*
X350Y293D01*
X346Y293D01*
X346Y295D01*
X344Y295D01*
X344Y297D01*
X342Y297D01*
X342Y299D01*
X338Y299D01*
X338Y301D01*
X336Y301D01*
X336Y303D01*
X334Y303D01*
X334Y305D01*
X330Y305D01*
X330Y307D01*
X328Y307D01*
X328Y309D01*
X324Y309D01*
X324Y311D01*
X322Y311D01*
X322Y313D01*
X320Y313D01*
X320Y315D01*
X316Y315D01*
X316Y317D01*
X314Y317D01*
X314Y319D01*
X312Y319D01*
X312Y321D01*
X308Y321D01*
X308Y323D01*
X306Y323D01*
X306Y325D01*
X304Y325D01*
X304Y327D01*
X300Y327D01*
X300Y329D01*
X298Y329D01*
X298Y331D01*
X296Y331D01*
X296Y333D01*
X292Y333D01*
X292Y335D01*
X290Y335D01*
X290Y337D01*
X288Y337D01*
X288Y339D01*
X284Y339D01*
X284Y341D01*
X282Y341D01*
X282Y343D01*
X280Y343D01*
X280Y345D01*
X276Y345D01*
X276Y347D01*
X274Y347D01*
X274Y349D01*
X272Y349D01*
X272Y351D01*
X268Y351D01*
X268Y353D01*
X266Y353D01*
X266Y355D01*
X264Y355D01*
X264Y357D01*
X260Y357D01*
X260Y359D01*
X258Y359D01*
X258Y361D01*
X256Y361D01*
X256Y363D01*
X252Y363D01*
X252Y365D01*
X250Y365D01*
X250Y367D01*
X248Y367D01*
X248Y369D01*
X244Y369D01*
X244Y371D01*
X242Y371D01*
X242Y373D01*
X240Y373D01*
X240Y375D01*
X236Y375D01*
X236Y377D01*
X234Y377D01*
X234Y379D01*
X232Y379D01*
X232Y381D01*
X230Y381D01*
X230Y383D01*
X228Y383D01*
X228Y385D01*
X226Y385D01*
X226Y387D01*
X224Y387D01*
X224Y391D01*
X222Y391D01*
X222Y657D01*
X220Y657D01*
X220Y659D01*
X216Y659D01*
X216Y661D01*
X214Y661D01*
X214Y663D01*
X212Y663D01*
X212Y665D01*
X210Y665D01*
X210Y667D01*
X208Y667D01*
X208Y669D01*
X206Y669D01*
X206Y673D01*
X204Y673D01*
X204Y675D01*
X202Y675D01*
X202Y679D01*
X200Y679D01*
X200Y685D01*
X198Y685D01*
X198Y697D01*
X196Y697D01*
X196Y699D01*
X198Y699D01*
X198Y711D01*
X200Y711D01*
X200Y717D01*
X202Y717D01*
X202Y721D01*
X204Y721D01*
X204Y725D01*
X206Y725D01*
X206Y727D01*
X208Y727D01*
X208Y729D01*
X210Y729D01*
X210Y731D01*
X212Y731D01*
X212Y733D01*
X214Y733D01*
X214Y735D01*
X216Y735D01*
X216Y737D01*
X218Y737D01*
X218Y739D01*
X222Y739D01*
X222Y741D01*
X226Y741D01*
X226Y743D01*
X232Y743D01*
X232Y745D01*
X40Y745D01*
G37*
D02*
G36*
X968Y633D02*
X968Y613D01*
X966Y613D01*
X966Y601D01*
X1040Y601D01*
X1040Y603D01*
X1030Y603D01*
X1030Y605D01*
X1024Y605D01*
X1024Y607D01*
X1018Y607D01*
X1018Y609D01*
X1014Y609D01*
X1014Y611D01*
X1012Y611D01*
X1012Y613D01*
X1008Y613D01*
X1008Y615D01*
X1006Y615D01*
X1006Y617D01*
X1002Y617D01*
X1002Y619D01*
X1000Y619D01*
X1000Y621D01*
X998Y621D01*
X998Y623D01*
X996Y623D01*
X996Y625D01*
X994Y625D01*
X994Y627D01*
X992Y627D01*
X992Y629D01*
X990Y629D01*
X990Y631D01*
X988Y631D01*
X988Y633D01*
X968Y633D01*
G37*
D02*
G36*
X904Y627D02*
X904Y625D01*
X902Y625D01*
X902Y623D01*
X900Y623D01*
X900Y621D01*
X898Y621D01*
X898Y619D01*
X894Y619D01*
X894Y617D01*
X892Y617D01*
X892Y615D01*
X890Y615D01*
X890Y613D01*
X886Y613D01*
X886Y611D01*
X882Y611D01*
X882Y609D01*
X878Y609D01*
X878Y607D01*
X874Y607D01*
X874Y605D01*
X866Y605D01*
X866Y603D01*
X858Y603D01*
X858Y601D01*
X916Y601D01*
X916Y603D01*
X918Y603D01*
X918Y605D01*
X920Y605D01*
X920Y607D01*
X922Y607D01*
X922Y615D01*
X924Y615D01*
X924Y627D01*
X904Y627D01*
G37*
D02*
G36*
X1284Y605D02*
X1284Y603D01*
X1274Y603D01*
X1274Y601D01*
X1312Y601D01*
X1312Y603D01*
X1310Y603D01*
X1310Y605D01*
X1284Y605D01*
G37*
D02*
G36*
X420Y601D02*
X420Y599D01*
X914Y599D01*
X914Y601D01*
X420Y601D01*
G37*
D02*
G36*
X420Y601D02*
X420Y599D01*
X914Y599D01*
X914Y601D01*
X420Y601D01*
G37*
D02*
G36*
X966Y601D02*
X966Y599D01*
X1314Y599D01*
X1314Y601D01*
X966Y601D01*
G37*
D02*
G36*
X966Y601D02*
X966Y599D01*
X1314Y599D01*
X1314Y601D01*
X966Y601D01*
G37*
D02*
G36*
X966Y601D02*
X966Y599D01*
X1314Y599D01*
X1314Y601D01*
X966Y601D01*
G37*
D02*
G36*
X420Y599D02*
X420Y597D01*
X418Y597D01*
X418Y593D01*
X416Y593D01*
X416Y589D01*
X414Y589D01*
X414Y585D01*
X412Y585D01*
X412Y581D01*
X862Y581D01*
X862Y579D01*
X870Y579D01*
X870Y577D01*
X892Y577D01*
X892Y579D01*
X894Y579D01*
X894Y581D01*
X896Y581D01*
X896Y583D01*
X898Y583D01*
X898Y585D01*
X900Y585D01*
X900Y587D01*
X902Y587D01*
X902Y589D01*
X904Y589D01*
X904Y591D01*
X906Y591D01*
X906Y593D01*
X908Y593D01*
X908Y595D01*
X910Y595D01*
X910Y597D01*
X912Y597D01*
X912Y599D01*
X420Y599D01*
G37*
D02*
G36*
X966Y599D02*
X966Y591D01*
X964Y591D01*
X964Y587D01*
X962Y587D01*
X962Y583D01*
X960Y583D01*
X960Y581D01*
X1278Y581D01*
X1278Y579D01*
X1286Y579D01*
X1286Y577D01*
X1292Y577D01*
X1292Y575D01*
X1296Y575D01*
X1296Y573D01*
X1300Y573D01*
X1300Y571D01*
X1304Y571D01*
X1304Y569D01*
X1308Y569D01*
X1308Y567D01*
X1310Y567D01*
X1310Y565D01*
X1312Y565D01*
X1312Y563D01*
X1316Y563D01*
X1316Y561D01*
X1318Y561D01*
X1318Y559D01*
X1320Y559D01*
X1320Y557D01*
X1322Y557D01*
X1322Y555D01*
X1324Y555D01*
X1324Y553D01*
X1326Y553D01*
X1326Y549D01*
X1328Y549D01*
X1328Y547D01*
X1330Y547D01*
X1330Y543D01*
X1332Y543D01*
X1332Y541D01*
X1334Y541D01*
X1334Y537D01*
X1336Y537D01*
X1336Y533D01*
X1338Y533D01*
X1338Y529D01*
X1340Y529D01*
X1340Y523D01*
X1342Y523D01*
X1342Y515D01*
X1344Y515D01*
X1344Y483D01*
X1342Y483D01*
X1342Y473D01*
X1340Y473D01*
X1340Y469D01*
X1338Y469D01*
X1338Y463D01*
X1336Y463D01*
X1336Y459D01*
X1334Y459D01*
X1334Y455D01*
X1332Y455D01*
X1332Y453D01*
X1330Y453D01*
X1330Y449D01*
X1328Y449D01*
X1328Y447D01*
X1326Y447D01*
X1326Y445D01*
X1324Y445D01*
X1324Y443D01*
X1322Y443D01*
X1322Y441D01*
X1320Y441D01*
X1320Y439D01*
X1318Y439D01*
X1318Y437D01*
X1316Y437D01*
X1316Y435D01*
X1314Y435D01*
X1314Y433D01*
X1312Y433D01*
X1312Y431D01*
X1310Y431D01*
X1310Y429D01*
X1306Y429D01*
X1306Y427D01*
X1302Y427D01*
X1302Y425D01*
X1300Y425D01*
X1300Y423D01*
X1296Y423D01*
X1296Y421D01*
X1290Y421D01*
X1290Y419D01*
X1284Y419D01*
X1284Y417D01*
X1274Y417D01*
X1274Y415D01*
X1602Y415D01*
X1602Y441D01*
X1628Y441D01*
X1628Y461D01*
X1624Y461D01*
X1624Y463D01*
X1622Y463D01*
X1622Y465D01*
X1618Y465D01*
X1618Y467D01*
X1616Y467D01*
X1616Y469D01*
X1614Y469D01*
X1614Y471D01*
X1612Y471D01*
X1612Y475D01*
X1440Y475D01*
X1440Y477D01*
X1436Y477D01*
X1436Y479D01*
X1432Y479D01*
X1432Y481D01*
X1430Y481D01*
X1430Y483D01*
X1428Y483D01*
X1428Y485D01*
X1426Y485D01*
X1426Y487D01*
X1424Y487D01*
X1424Y489D01*
X1422Y489D01*
X1422Y491D01*
X1420Y491D01*
X1420Y493D01*
X1418Y493D01*
X1418Y495D01*
X1416Y495D01*
X1416Y497D01*
X1414Y497D01*
X1414Y499D01*
X1412Y499D01*
X1412Y501D01*
X1410Y501D01*
X1410Y503D01*
X1408Y503D01*
X1408Y505D01*
X1406Y505D01*
X1406Y507D01*
X1404Y507D01*
X1404Y509D01*
X1402Y509D01*
X1402Y511D01*
X1400Y511D01*
X1400Y513D01*
X1398Y513D01*
X1398Y515D01*
X1396Y515D01*
X1396Y517D01*
X1394Y517D01*
X1394Y519D01*
X1392Y519D01*
X1392Y521D01*
X1390Y521D01*
X1390Y523D01*
X1388Y523D01*
X1388Y525D01*
X1386Y525D01*
X1386Y527D01*
X1384Y527D01*
X1384Y529D01*
X1382Y529D01*
X1382Y531D01*
X1380Y531D01*
X1380Y533D01*
X1378Y533D01*
X1378Y535D01*
X1376Y535D01*
X1376Y537D01*
X1374Y537D01*
X1374Y539D01*
X1372Y539D01*
X1372Y541D01*
X1370Y541D01*
X1370Y543D01*
X1368Y543D01*
X1368Y545D01*
X1366Y545D01*
X1366Y547D01*
X1364Y547D01*
X1364Y549D01*
X1362Y549D01*
X1362Y551D01*
X1360Y551D01*
X1360Y553D01*
X1358Y553D01*
X1358Y555D01*
X1356Y555D01*
X1356Y557D01*
X1354Y557D01*
X1354Y559D01*
X1352Y559D01*
X1352Y561D01*
X1350Y561D01*
X1350Y563D01*
X1348Y563D01*
X1348Y565D01*
X1346Y565D01*
X1346Y567D01*
X1344Y567D01*
X1344Y569D01*
X1342Y569D01*
X1342Y571D01*
X1340Y571D01*
X1340Y573D01*
X1338Y573D01*
X1338Y575D01*
X1336Y575D01*
X1336Y579D01*
X1334Y579D01*
X1334Y581D01*
X1332Y581D01*
X1332Y583D01*
X1330Y583D01*
X1330Y585D01*
X1328Y585D01*
X1328Y587D01*
X1326Y587D01*
X1326Y589D01*
X1324Y589D01*
X1324Y591D01*
X1322Y591D01*
X1322Y593D01*
X1320Y593D01*
X1320Y595D01*
X1318Y595D01*
X1318Y597D01*
X1316Y597D01*
X1316Y599D01*
X966Y599D01*
G37*
D02*
G36*
X410Y581D02*
X410Y577D01*
X408Y577D01*
X408Y573D01*
X406Y573D01*
X406Y569D01*
X404Y569D01*
X404Y565D01*
X402Y565D01*
X402Y545D01*
X492Y545D01*
X492Y451D01*
X774Y451D01*
X774Y455D01*
X772Y455D01*
X772Y459D01*
X770Y459D01*
X770Y463D01*
X768Y463D01*
X768Y467D01*
X766Y467D01*
X766Y473D01*
X764Y473D01*
X764Y481D01*
X762Y481D01*
X762Y495D01*
X760Y495D01*
X760Y501D01*
X762Y501D01*
X762Y517D01*
X764Y517D01*
X764Y525D01*
X766Y525D01*
X766Y529D01*
X768Y529D01*
X768Y535D01*
X770Y535D01*
X770Y539D01*
X772Y539D01*
X772Y541D01*
X774Y541D01*
X774Y545D01*
X776Y545D01*
X776Y547D01*
X778Y547D01*
X778Y551D01*
X780Y551D01*
X780Y553D01*
X782Y553D01*
X782Y555D01*
X784Y555D01*
X784Y557D01*
X786Y557D01*
X786Y559D01*
X788Y559D01*
X788Y561D01*
X790Y561D01*
X790Y563D01*
X792Y563D01*
X792Y565D01*
X796Y565D01*
X796Y567D01*
X798Y567D01*
X798Y569D01*
X802Y569D01*
X802Y571D01*
X806Y571D01*
X806Y573D01*
X810Y573D01*
X810Y575D01*
X814Y575D01*
X814Y577D01*
X820Y577D01*
X820Y579D01*
X828Y579D01*
X828Y581D01*
X410Y581D01*
G37*
D02*
G36*
X958Y581D02*
X958Y579D01*
X956Y579D01*
X956Y577D01*
X954Y577D01*
X954Y575D01*
X952Y575D01*
X952Y573D01*
X950Y573D01*
X950Y571D01*
X948Y571D01*
X948Y569D01*
X946Y569D01*
X946Y567D01*
X944Y567D01*
X944Y565D01*
X942Y565D01*
X942Y563D01*
X940Y563D01*
X940Y561D01*
X938Y561D01*
X938Y559D01*
X936Y559D01*
X936Y557D01*
X934Y557D01*
X934Y555D01*
X932Y555D01*
X932Y553D01*
X930Y553D01*
X930Y551D01*
X928Y551D01*
X928Y549D01*
X926Y549D01*
X926Y547D01*
X924Y547D01*
X924Y521D01*
X926Y521D01*
X926Y511D01*
X928Y511D01*
X928Y487D01*
X926Y487D01*
X926Y477D01*
X924Y477D01*
X924Y471D01*
X922Y471D01*
X922Y465D01*
X920Y465D01*
X920Y461D01*
X918Y461D01*
X918Y457D01*
X916Y457D01*
X916Y453D01*
X914Y453D01*
X914Y451D01*
X912Y451D01*
X912Y449D01*
X910Y449D01*
X910Y445D01*
X908Y445D01*
X908Y443D01*
X906Y443D01*
X906Y441D01*
X904Y441D01*
X904Y439D01*
X902Y439D01*
X902Y437D01*
X900Y437D01*
X900Y435D01*
X898Y435D01*
X898Y433D01*
X896Y433D01*
X896Y431D01*
X892Y431D01*
X892Y429D01*
X890Y429D01*
X890Y427D01*
X886Y427D01*
X886Y425D01*
X882Y425D01*
X882Y423D01*
X878Y423D01*
X878Y421D01*
X874Y421D01*
X874Y419D01*
X868Y419D01*
X868Y417D01*
X858Y417D01*
X858Y415D01*
X1040Y415D01*
X1040Y417D01*
X1030Y417D01*
X1030Y419D01*
X1024Y419D01*
X1024Y421D01*
X1018Y421D01*
X1018Y423D01*
X1014Y423D01*
X1014Y425D01*
X1012Y425D01*
X1012Y427D01*
X1008Y427D01*
X1008Y429D01*
X1004Y429D01*
X1004Y431D01*
X1002Y431D01*
X1002Y433D01*
X1000Y433D01*
X1000Y435D01*
X998Y435D01*
X998Y437D01*
X996Y437D01*
X996Y439D01*
X992Y439D01*
X992Y443D01*
X990Y443D01*
X990Y445D01*
X988Y445D01*
X988Y447D01*
X986Y447D01*
X986Y449D01*
X984Y449D01*
X984Y453D01*
X982Y453D01*
X982Y455D01*
X980Y455D01*
X980Y459D01*
X978Y459D01*
X978Y463D01*
X976Y463D01*
X976Y467D01*
X974Y467D01*
X974Y473D01*
X972Y473D01*
X972Y481D01*
X970Y481D01*
X970Y515D01*
X972Y515D01*
X972Y523D01*
X974Y523D01*
X974Y529D01*
X976Y529D01*
X976Y533D01*
X978Y533D01*
X978Y537D01*
X980Y537D01*
X980Y541D01*
X982Y541D01*
X982Y545D01*
X984Y545D01*
X984Y547D01*
X986Y547D01*
X986Y549D01*
X988Y549D01*
X988Y553D01*
X990Y553D01*
X990Y555D01*
X992Y555D01*
X992Y557D01*
X994Y557D01*
X994Y559D01*
X996Y559D01*
X996Y561D01*
X998Y561D01*
X998Y563D01*
X1002Y563D01*
X1002Y565D01*
X1004Y565D01*
X1004Y567D01*
X1006Y567D01*
X1006Y569D01*
X1010Y569D01*
X1010Y571D01*
X1014Y571D01*
X1014Y573D01*
X1018Y573D01*
X1018Y575D01*
X1022Y575D01*
X1022Y577D01*
X1028Y577D01*
X1028Y579D01*
X1036Y579D01*
X1036Y581D01*
X958Y581D01*
G37*
D02*
G36*
X1070Y581D02*
X1070Y579D01*
X1078Y579D01*
X1078Y577D01*
X1084Y577D01*
X1084Y575D01*
X1088Y575D01*
X1088Y573D01*
X1092Y573D01*
X1092Y571D01*
X1096Y571D01*
X1096Y569D01*
X1098Y569D01*
X1098Y567D01*
X1102Y567D01*
X1102Y565D01*
X1104Y565D01*
X1104Y563D01*
X1106Y563D01*
X1106Y561D01*
X1110Y561D01*
X1110Y559D01*
X1112Y559D01*
X1112Y557D01*
X1114Y557D01*
X1114Y553D01*
X1116Y553D01*
X1116Y551D01*
X1118Y551D01*
X1118Y549D01*
X1120Y549D01*
X1120Y547D01*
X1122Y547D01*
X1122Y543D01*
X1124Y543D01*
X1124Y541D01*
X1126Y541D01*
X1126Y537D01*
X1128Y537D01*
X1128Y533D01*
X1130Y533D01*
X1130Y527D01*
X1132Y527D01*
X1132Y521D01*
X1134Y521D01*
X1134Y513D01*
X1136Y513D01*
X1136Y485D01*
X1134Y485D01*
X1134Y475D01*
X1132Y475D01*
X1132Y469D01*
X1130Y469D01*
X1130Y465D01*
X1128Y465D01*
X1128Y461D01*
X1126Y461D01*
X1126Y457D01*
X1124Y457D01*
X1124Y453D01*
X1122Y453D01*
X1122Y451D01*
X1120Y451D01*
X1120Y447D01*
X1118Y447D01*
X1118Y445D01*
X1116Y445D01*
X1116Y443D01*
X1114Y443D01*
X1114Y441D01*
X1112Y441D01*
X1112Y439D01*
X1110Y439D01*
X1110Y437D01*
X1108Y437D01*
X1108Y435D01*
X1106Y435D01*
X1106Y433D01*
X1104Y433D01*
X1104Y431D01*
X1100Y431D01*
X1100Y429D01*
X1098Y429D01*
X1098Y427D01*
X1094Y427D01*
X1094Y425D01*
X1090Y425D01*
X1090Y423D01*
X1086Y423D01*
X1086Y421D01*
X1082Y421D01*
X1082Y419D01*
X1076Y419D01*
X1076Y417D01*
X1066Y417D01*
X1066Y415D01*
X1248Y415D01*
X1248Y417D01*
X1238Y417D01*
X1238Y419D01*
X1232Y419D01*
X1232Y421D01*
X1228Y421D01*
X1228Y423D01*
X1224Y423D01*
X1224Y425D01*
X1220Y425D01*
X1220Y427D01*
X1216Y427D01*
X1216Y429D01*
X1214Y429D01*
X1214Y431D01*
X1210Y431D01*
X1210Y433D01*
X1208Y433D01*
X1208Y435D01*
X1206Y435D01*
X1206Y437D01*
X1204Y437D01*
X1204Y439D01*
X1202Y439D01*
X1202Y441D01*
X1200Y441D01*
X1200Y443D01*
X1198Y443D01*
X1198Y445D01*
X1196Y445D01*
X1196Y447D01*
X1194Y447D01*
X1194Y451D01*
X1192Y451D01*
X1192Y453D01*
X1190Y453D01*
X1190Y457D01*
X1188Y457D01*
X1188Y459D01*
X1186Y459D01*
X1186Y463D01*
X1184Y463D01*
X1184Y469D01*
X1182Y469D01*
X1182Y475D01*
X1180Y475D01*
X1180Y483D01*
X1178Y483D01*
X1178Y513D01*
X1180Y513D01*
X1180Y521D01*
X1182Y521D01*
X1182Y527D01*
X1184Y527D01*
X1184Y533D01*
X1186Y533D01*
X1186Y537D01*
X1188Y537D01*
X1188Y541D01*
X1190Y541D01*
X1190Y543D01*
X1192Y543D01*
X1192Y547D01*
X1194Y547D01*
X1194Y549D01*
X1196Y549D01*
X1196Y551D01*
X1198Y551D01*
X1198Y555D01*
X1200Y555D01*
X1200Y557D01*
X1202Y557D01*
X1202Y559D01*
X1204Y559D01*
X1204Y561D01*
X1208Y561D01*
X1208Y563D01*
X1210Y563D01*
X1210Y565D01*
X1212Y565D01*
X1212Y567D01*
X1216Y567D01*
X1216Y569D01*
X1218Y569D01*
X1218Y571D01*
X1222Y571D01*
X1222Y573D01*
X1226Y573D01*
X1226Y575D01*
X1230Y575D01*
X1230Y577D01*
X1236Y577D01*
X1236Y579D01*
X1244Y579D01*
X1244Y581D01*
X1070Y581D01*
G37*
D02*
G36*
X1436Y539D02*
X1436Y537D01*
X1438Y537D01*
X1438Y535D01*
X1440Y535D01*
X1440Y533D01*
X1442Y533D01*
X1442Y531D01*
X1444Y531D01*
X1444Y529D01*
X1446Y529D01*
X1446Y527D01*
X1448Y527D01*
X1448Y525D01*
X1450Y525D01*
X1450Y523D01*
X1452Y523D01*
X1452Y521D01*
X1454Y521D01*
X1454Y519D01*
X1600Y519D01*
X1600Y521D01*
X1610Y521D01*
X1610Y523D01*
X1612Y523D01*
X1612Y525D01*
X1614Y525D01*
X1614Y527D01*
X1616Y527D01*
X1616Y529D01*
X1618Y529D01*
X1618Y531D01*
X1620Y531D01*
X1620Y533D01*
X1624Y533D01*
X1624Y535D01*
X1628Y535D01*
X1628Y537D01*
X1634Y537D01*
X1634Y539D01*
X1436Y539D01*
G37*
D02*
G36*
X374Y463D02*
X374Y461D01*
X372Y461D01*
X372Y459D01*
X370Y459D01*
X370Y457D01*
X366Y457D01*
X366Y455D01*
X362Y455D01*
X362Y453D01*
X354Y453D01*
X354Y451D01*
X396Y451D01*
X396Y463D01*
X374Y463D01*
G37*
D02*
G36*
X266Y451D02*
X266Y449D01*
X776Y449D01*
X776Y451D01*
X266Y451D01*
G37*
D02*
G36*
X266Y451D02*
X266Y449D01*
X776Y449D01*
X776Y451D01*
X266Y451D01*
G37*
D02*
G36*
X266Y451D02*
X266Y449D01*
X776Y449D01*
X776Y451D01*
X266Y451D01*
G37*
D02*
G36*
X266Y449D02*
X266Y415D01*
X830Y415D01*
X830Y417D01*
X822Y417D01*
X822Y419D01*
X816Y419D01*
X816Y421D01*
X810Y421D01*
X810Y423D01*
X806Y423D01*
X806Y425D01*
X802Y425D01*
X802Y427D01*
X800Y427D01*
X800Y429D01*
X796Y429D01*
X796Y431D01*
X794Y431D01*
X794Y433D01*
X792Y433D01*
X792Y435D01*
X788Y435D01*
X788Y437D01*
X786Y437D01*
X786Y439D01*
X784Y439D01*
X784Y441D01*
X782Y441D01*
X782Y445D01*
X780Y445D01*
X780Y447D01*
X778Y447D01*
X778Y449D01*
X266Y449D01*
G37*
D02*
G36*
X266Y415D02*
X266Y413D01*
X1602Y413D01*
X1602Y415D01*
X266Y415D01*
G37*
D02*
G36*
X266Y415D02*
X266Y413D01*
X1602Y413D01*
X1602Y415D01*
X266Y415D01*
G37*
D02*
G36*
X266Y415D02*
X266Y413D01*
X1602Y413D01*
X1602Y415D01*
X266Y415D01*
G37*
D02*
G36*
X266Y415D02*
X266Y413D01*
X1602Y413D01*
X1602Y415D01*
X266Y415D01*
G37*
D02*
G36*
X266Y413D02*
X266Y409D01*
X268Y409D01*
X268Y407D01*
X270Y407D01*
X270Y405D01*
X272Y405D01*
X272Y403D01*
X276Y403D01*
X276Y401D01*
X278Y401D01*
X278Y399D01*
X280Y399D01*
X280Y397D01*
X284Y397D01*
X284Y395D01*
X286Y395D01*
X286Y393D01*
X288Y393D01*
X288Y391D01*
X292Y391D01*
X292Y389D01*
X294Y389D01*
X294Y387D01*
X296Y387D01*
X296Y385D01*
X300Y385D01*
X300Y383D01*
X302Y383D01*
X302Y381D01*
X304Y381D01*
X304Y379D01*
X308Y379D01*
X308Y377D01*
X310Y377D01*
X310Y375D01*
X312Y375D01*
X312Y373D01*
X316Y373D01*
X316Y371D01*
X318Y371D01*
X318Y369D01*
X320Y369D01*
X320Y367D01*
X324Y367D01*
X324Y365D01*
X326Y365D01*
X326Y363D01*
X328Y363D01*
X328Y361D01*
X332Y361D01*
X332Y359D01*
X334Y359D01*
X334Y357D01*
X336Y357D01*
X336Y355D01*
X340Y355D01*
X340Y353D01*
X342Y353D01*
X342Y351D01*
X344Y351D01*
X344Y349D01*
X348Y349D01*
X348Y347D01*
X350Y347D01*
X350Y345D01*
X352Y345D01*
X352Y343D01*
X356Y343D01*
X356Y341D01*
X358Y341D01*
X358Y339D01*
X362Y339D01*
X362Y337D01*
X364Y337D01*
X364Y335D01*
X366Y335D01*
X366Y333D01*
X370Y333D01*
X370Y331D01*
X372Y331D01*
X372Y329D01*
X374Y329D01*
X374Y327D01*
X378Y327D01*
X378Y325D01*
X380Y325D01*
X380Y323D01*
X382Y323D01*
X382Y321D01*
X1366Y321D01*
X1366Y319D01*
X1536Y319D01*
X1536Y321D01*
X1538Y321D01*
X1538Y323D01*
X1540Y323D01*
X1540Y325D01*
X1542Y325D01*
X1542Y327D01*
X1544Y327D01*
X1544Y329D01*
X1546Y329D01*
X1546Y331D01*
X1548Y331D01*
X1548Y335D01*
X1550Y335D01*
X1550Y337D01*
X1552Y337D01*
X1552Y339D01*
X1554Y339D01*
X1554Y341D01*
X1556Y341D01*
X1556Y343D01*
X1558Y343D01*
X1558Y345D01*
X1560Y345D01*
X1560Y347D01*
X1562Y347D01*
X1562Y349D01*
X1564Y349D01*
X1564Y351D01*
X1566Y351D01*
X1566Y353D01*
X1568Y353D01*
X1568Y355D01*
X1570Y355D01*
X1570Y357D01*
X1572Y357D01*
X1572Y359D01*
X1574Y359D01*
X1574Y361D01*
X1576Y361D01*
X1576Y363D01*
X1578Y363D01*
X1578Y365D01*
X1580Y365D01*
X1580Y367D01*
X1582Y367D01*
X1582Y369D01*
X1584Y369D01*
X1584Y371D01*
X1586Y371D01*
X1586Y373D01*
X1588Y373D01*
X1588Y375D01*
X1590Y375D01*
X1590Y377D01*
X1592Y377D01*
X1592Y379D01*
X1594Y379D01*
X1594Y381D01*
X1596Y381D01*
X1596Y383D01*
X1598Y383D01*
X1598Y385D01*
X1600Y385D01*
X1600Y387D01*
X1602Y387D01*
X1602Y413D01*
X266Y413D01*
G37*
D02*
G36*
X386Y321D02*
X386Y319D01*
X388Y319D01*
X388Y317D01*
X390Y317D01*
X390Y315D01*
X394Y315D01*
X394Y313D01*
X396Y313D01*
X396Y311D01*
X398Y311D01*
X398Y309D01*
X402Y309D01*
X402Y307D01*
X404Y307D01*
X404Y305D01*
X406Y305D01*
X406Y303D01*
X410Y303D01*
X410Y301D01*
X412Y301D01*
X412Y299D01*
X414Y299D01*
X414Y297D01*
X418Y297D01*
X418Y295D01*
X420Y295D01*
X420Y293D01*
X422Y293D01*
X422Y291D01*
X426Y291D01*
X426Y289D01*
X428Y289D01*
X428Y287D01*
X430Y287D01*
X430Y285D01*
X434Y285D01*
X434Y283D01*
X436Y283D01*
X436Y281D01*
X438Y281D01*
X438Y279D01*
X442Y279D01*
X442Y277D01*
X444Y277D01*
X444Y275D01*
X446Y275D01*
X446Y273D01*
X450Y273D01*
X450Y271D01*
X452Y271D01*
X452Y269D01*
X454Y269D01*
X454Y267D01*
X458Y267D01*
X458Y265D01*
X460Y265D01*
X460Y263D01*
X462Y263D01*
X462Y261D01*
X466Y261D01*
X466Y259D01*
X804Y259D01*
X804Y221D01*
X844Y221D01*
X844Y223D01*
X848Y223D01*
X848Y225D01*
X852Y225D01*
X852Y227D01*
X856Y227D01*
X856Y229D01*
X860Y229D01*
X860Y231D01*
X864Y231D01*
X864Y233D01*
X868Y233D01*
X868Y235D01*
X872Y235D01*
X872Y237D01*
X876Y237D01*
X876Y239D01*
X880Y239D01*
X880Y241D01*
X884Y241D01*
X884Y243D01*
X888Y243D01*
X888Y245D01*
X892Y245D01*
X892Y247D01*
X896Y247D01*
X896Y249D01*
X900Y249D01*
X900Y251D01*
X904Y251D01*
X904Y253D01*
X908Y253D01*
X908Y255D01*
X912Y255D01*
X912Y257D01*
X916Y257D01*
X916Y259D01*
X920Y259D01*
X920Y261D01*
X924Y261D01*
X924Y263D01*
X928Y263D01*
X928Y265D01*
X932Y265D01*
X932Y267D01*
X936Y267D01*
X936Y269D01*
X940Y269D01*
X940Y271D01*
X944Y271D01*
X944Y273D01*
X948Y273D01*
X948Y275D01*
X952Y275D01*
X952Y277D01*
X956Y277D01*
X956Y279D01*
X960Y279D01*
X960Y281D01*
X964Y281D01*
X964Y283D01*
X968Y283D01*
X968Y285D01*
X972Y285D01*
X972Y287D01*
X976Y287D01*
X976Y289D01*
X980Y289D01*
X980Y291D01*
X984Y291D01*
X984Y293D01*
X988Y293D01*
X988Y295D01*
X992Y295D01*
X992Y297D01*
X996Y297D01*
X996Y299D01*
X1000Y299D01*
X1000Y301D01*
X1004Y301D01*
X1004Y303D01*
X1008Y303D01*
X1008Y305D01*
X1012Y305D01*
X1012Y307D01*
X1016Y307D01*
X1016Y309D01*
X1020Y309D01*
X1020Y311D01*
X1024Y311D01*
X1024Y313D01*
X1028Y313D01*
X1028Y315D01*
X1032Y315D01*
X1032Y317D01*
X1036Y317D01*
X1036Y319D01*
X1040Y319D01*
X1040Y321D01*
X386Y321D01*
G37*
D02*
G36*
X1314Y277D02*
X1314Y275D01*
X1360Y275D01*
X1360Y277D01*
X1314Y277D01*
G37*
D02*
G36*
X1314Y275D02*
X1314Y273D01*
X1690Y273D01*
X1690Y275D01*
X1314Y275D01*
G37*
D02*
G36*
X1314Y275D02*
X1314Y273D01*
X1690Y273D01*
X1690Y275D01*
X1314Y275D01*
G37*
D02*
G36*
X1314Y273D02*
X1314Y221D01*
X1638Y221D01*
X1638Y223D01*
X1640Y223D01*
X1640Y225D01*
X1642Y225D01*
X1642Y227D01*
X1644Y227D01*
X1644Y229D01*
X1646Y229D01*
X1646Y231D01*
X1648Y231D01*
X1648Y233D01*
X1650Y233D01*
X1650Y235D01*
X1652Y235D01*
X1652Y237D01*
X1654Y237D01*
X1654Y239D01*
X1656Y239D01*
X1656Y241D01*
X1658Y241D01*
X1658Y243D01*
X1660Y243D01*
X1660Y245D01*
X1662Y245D01*
X1662Y247D01*
X1664Y247D01*
X1664Y249D01*
X1666Y249D01*
X1666Y251D01*
X1668Y251D01*
X1668Y253D01*
X1670Y253D01*
X1670Y255D01*
X1672Y255D01*
X1672Y257D01*
X1674Y257D01*
X1674Y259D01*
X1676Y259D01*
X1676Y261D01*
X1678Y261D01*
X1678Y263D01*
X1680Y263D01*
X1680Y265D01*
X1682Y265D01*
X1682Y267D01*
X1684Y267D01*
X1684Y269D01*
X1686Y269D01*
X1686Y271D01*
X1688Y271D01*
X1688Y273D01*
X1314Y273D01*
G37*
D02*
G36*
X468Y259D02*
X468Y257D01*
X470Y257D01*
X470Y255D01*
X474Y255D01*
X474Y253D01*
X476Y253D01*
X476Y251D01*
X478Y251D01*
X478Y249D01*
X482Y249D01*
X482Y247D01*
X484Y247D01*
X484Y245D01*
X486Y245D01*
X486Y243D01*
X490Y243D01*
X490Y241D01*
X492Y241D01*
X492Y239D01*
X494Y239D01*
X494Y237D01*
X498Y237D01*
X498Y235D01*
X500Y235D01*
X500Y233D01*
X502Y233D01*
X502Y231D01*
X506Y231D01*
X506Y229D01*
X508Y229D01*
X508Y227D01*
X510Y227D01*
X510Y225D01*
X514Y225D01*
X514Y223D01*
X516Y223D01*
X516Y221D01*
X518Y221D01*
X518Y219D01*
X522Y219D01*
X522Y217D01*
X524Y217D01*
X524Y215D01*
X526Y215D01*
X526Y213D01*
X530Y213D01*
X530Y211D01*
X532Y211D01*
X532Y209D01*
X534Y209D01*
X534Y207D01*
X538Y207D01*
X538Y205D01*
X540Y205D01*
X540Y203D01*
X542Y203D01*
X542Y201D01*
X546Y201D01*
X546Y199D01*
X548Y199D01*
X548Y197D01*
X550Y197D01*
X550Y195D01*
X554Y195D01*
X554Y193D01*
X556Y193D01*
X556Y191D01*
X558Y191D01*
X558Y189D01*
X562Y189D01*
X562Y187D01*
X564Y187D01*
X564Y185D01*
X566Y185D01*
X566Y183D01*
X570Y183D01*
X570Y181D01*
X572Y181D01*
X572Y179D01*
X574Y179D01*
X574Y177D01*
X578Y177D01*
X578Y175D01*
X580Y175D01*
X580Y173D01*
X582Y173D01*
X582Y171D01*
X586Y171D01*
X586Y169D01*
X588Y169D01*
X588Y167D01*
X590Y167D01*
X590Y165D01*
X594Y165D01*
X594Y163D01*
X596Y163D01*
X596Y161D01*
X598Y161D01*
X598Y159D01*
X602Y159D01*
X602Y157D01*
X604Y157D01*
X604Y155D01*
X606Y155D01*
X606Y153D01*
X610Y153D01*
X610Y151D01*
X612Y151D01*
X612Y149D01*
X614Y149D01*
X614Y147D01*
X618Y147D01*
X618Y145D01*
X620Y145D01*
X620Y143D01*
X622Y143D01*
X622Y141D01*
X626Y141D01*
X626Y139D01*
X628Y139D01*
X628Y137D01*
X630Y137D01*
X630Y135D01*
X634Y135D01*
X634Y133D01*
X636Y133D01*
X636Y131D01*
X638Y131D01*
X638Y129D01*
X642Y129D01*
X642Y127D01*
X644Y127D01*
X644Y125D01*
X646Y125D01*
X646Y123D01*
X650Y123D01*
X650Y121D01*
X684Y121D01*
X684Y259D01*
X468Y259D01*
G37*
D02*
G36*
X1048Y177D02*
X1048Y175D01*
X1044Y175D01*
X1044Y173D01*
X1040Y173D01*
X1040Y171D01*
X1036Y171D01*
X1036Y169D01*
X1032Y169D01*
X1032Y167D01*
X1028Y167D01*
X1028Y165D01*
X1024Y165D01*
X1024Y163D01*
X1020Y163D01*
X1020Y161D01*
X1016Y161D01*
X1016Y159D01*
X1012Y159D01*
X1012Y157D01*
X1008Y157D01*
X1008Y155D01*
X1004Y155D01*
X1004Y153D01*
X1000Y153D01*
X1000Y151D01*
X996Y151D01*
X996Y149D01*
X992Y149D01*
X992Y147D01*
X988Y147D01*
X988Y145D01*
X984Y145D01*
X984Y143D01*
X980Y143D01*
X980Y141D01*
X976Y141D01*
X976Y139D01*
X1194Y139D01*
X1194Y177D01*
X1048Y177D01*
G37*
D02*
G36*
X972Y139D02*
X972Y137D01*
X1794Y137D01*
X1794Y139D01*
X972Y139D01*
G37*
D02*
G36*
X972Y139D02*
X972Y137D01*
X1794Y137D01*
X1794Y139D01*
X972Y139D01*
G37*
D02*
G36*
X968Y137D02*
X968Y135D01*
X964Y135D01*
X964Y133D01*
X960Y133D01*
X960Y131D01*
X956Y131D01*
X956Y129D01*
X952Y129D01*
X952Y127D01*
X948Y127D01*
X948Y125D01*
X944Y125D01*
X944Y123D01*
X940Y123D01*
X940Y121D01*
X936Y121D01*
X936Y119D01*
X932Y119D01*
X932Y117D01*
X928Y117D01*
X928Y115D01*
X924Y115D01*
X924Y113D01*
X920Y113D01*
X920Y111D01*
X916Y111D01*
X916Y109D01*
X912Y109D01*
X912Y107D01*
X908Y107D01*
X908Y105D01*
X904Y105D01*
X904Y103D01*
X900Y103D01*
X900Y101D01*
X896Y101D01*
X896Y99D01*
X892Y99D01*
X892Y97D01*
X888Y97D01*
X888Y95D01*
X884Y95D01*
X884Y93D01*
X880Y93D01*
X880Y91D01*
X876Y91D01*
X876Y89D01*
X872Y89D01*
X872Y87D01*
X868Y87D01*
X868Y85D01*
X864Y85D01*
X864Y83D01*
X860Y83D01*
X860Y81D01*
X856Y81D01*
X856Y79D01*
X852Y79D01*
X852Y77D01*
X1704Y77D01*
X1704Y79D01*
X1708Y79D01*
X1708Y81D01*
X1712Y81D01*
X1712Y83D01*
X1716Y83D01*
X1716Y85D01*
X1720Y85D01*
X1720Y87D01*
X1722Y87D01*
X1722Y89D01*
X1726Y89D01*
X1726Y91D01*
X1730Y91D01*
X1730Y93D01*
X1734Y93D01*
X1734Y95D01*
X1736Y95D01*
X1736Y97D01*
X1740Y97D01*
X1740Y99D01*
X1744Y99D01*
X1744Y101D01*
X1746Y101D01*
X1746Y103D01*
X1750Y103D01*
X1750Y105D01*
X1752Y105D01*
X1752Y107D01*
X1756Y107D01*
X1756Y109D01*
X1758Y109D01*
X1758Y111D01*
X1762Y111D01*
X1762Y113D01*
X1764Y113D01*
X1764Y115D01*
X1768Y115D01*
X1768Y117D01*
X1770Y117D01*
X1770Y119D01*
X1772Y119D01*
X1772Y121D01*
X1776Y121D01*
X1776Y123D01*
X1778Y123D01*
X1778Y125D01*
X1780Y125D01*
X1780Y127D01*
X1782Y127D01*
X1782Y129D01*
X1786Y129D01*
X1786Y131D01*
X1788Y131D01*
X1788Y133D01*
X1790Y133D01*
X1790Y135D01*
X1792Y135D01*
X1792Y137D01*
X968Y137D01*
G37*
D02*
G36*
X268Y77D02*
X268Y75D01*
X1698Y75D01*
X1698Y77D01*
X268Y77D01*
G37*
D02*
G36*
X268Y77D02*
X268Y75D01*
X1698Y75D01*
X1698Y77D01*
X268Y77D01*
G37*
D02*
G36*
X272Y75D02*
X272Y73D01*
X276Y73D01*
X276Y71D01*
X282Y71D01*
X282Y69D01*
X286Y69D01*
X286Y67D01*
X292Y67D01*
X292Y65D01*
X296Y65D01*
X296Y63D01*
X302Y63D01*
X302Y61D01*
X308Y61D01*
X308Y59D01*
X314Y59D01*
X314Y57D01*
X322Y57D01*
X322Y55D01*
X328Y55D01*
X328Y53D01*
X336Y53D01*
X336Y51D01*
X344Y51D01*
X344Y49D01*
X352Y49D01*
X352Y47D01*
X364Y47D01*
X364Y45D01*
X376Y45D01*
X376Y43D01*
X392Y43D01*
X392Y41D01*
X1576Y41D01*
X1576Y43D01*
X1592Y43D01*
X1592Y45D01*
X1602Y45D01*
X1602Y47D01*
X1614Y47D01*
X1614Y49D01*
X1622Y49D01*
X1622Y51D01*
X1632Y51D01*
X1632Y53D01*
X1638Y53D01*
X1638Y55D01*
X1646Y55D01*
X1646Y57D01*
X1652Y57D01*
X1652Y59D01*
X1658Y59D01*
X1658Y61D01*
X1664Y61D01*
X1664Y63D01*
X1670Y63D01*
X1670Y65D01*
X1674Y65D01*
X1674Y67D01*
X1680Y67D01*
X1680Y69D01*
X1686Y69D01*
X1686Y71D01*
X1690Y71D01*
X1690Y73D01*
X1694Y73D01*
X1694Y75D01*
X272Y75D01*
G37*
D02*
G54D21*
X696Y249D02*
X794Y249D01*
X1205Y249D02*
X1304Y249D01*
X695Y248D02*
X794Y248D01*
X1205Y248D02*
X1304Y248D01*
X695Y247D02*
X794Y247D01*
X1205Y247D02*
X1304Y247D01*
X695Y246D02*
X794Y246D01*
X1205Y246D02*
X1304Y246D01*
X695Y245D02*
X794Y245D01*
X1205Y245D02*
X1304Y245D01*
X695Y244D02*
X794Y244D01*
X1205Y244D02*
X1304Y244D01*
X695Y243D02*
X794Y243D01*
X1205Y243D02*
X1304Y243D01*
X695Y242D02*
X794Y242D01*
X1205Y242D02*
X1304Y242D01*
X695Y241D02*
X794Y241D01*
X1205Y241D02*
X1304Y241D01*
X695Y240D02*
X794Y240D01*
X1205Y240D02*
X1304Y240D01*
X695Y239D02*
X741Y239D01*
X748Y239D02*
X794Y239D01*
X1205Y239D02*
X1251Y239D01*
X1258Y239D02*
X1304Y239D01*
X695Y238D02*
X735Y238D01*
X755Y238D02*
X794Y238D01*
X1205Y238D02*
X1245Y238D01*
X1264Y238D02*
X1304Y238D01*
X695Y237D02*
X731Y237D01*
X758Y237D02*
X794Y237D01*
X1205Y237D02*
X1241Y237D01*
X1268Y237D02*
X1304Y237D01*
X695Y236D02*
X729Y236D01*
X761Y236D02*
X794Y236D01*
X1205Y236D02*
X1239Y236D01*
X1271Y236D02*
X1304Y236D01*
X695Y235D02*
X727Y235D01*
X763Y235D02*
X794Y235D01*
X1205Y235D02*
X1236Y235D01*
X1273Y235D02*
X1304Y235D01*
X695Y234D02*
X725Y234D01*
X765Y234D02*
X794Y234D01*
X1205Y234D02*
X1235Y234D01*
X1275Y234D02*
X1304Y234D01*
X695Y233D02*
X723Y233D01*
X766Y233D02*
X794Y233D01*
X1205Y233D02*
X1233Y233D01*
X1276Y233D02*
X1304Y233D01*
X695Y232D02*
X721Y232D01*
X768Y232D02*
X794Y232D01*
X1205Y232D02*
X1231Y232D01*
X1278Y232D02*
X1304Y232D01*
X695Y231D02*
X720Y231D01*
X769Y231D02*
X794Y231D01*
X1205Y231D02*
X1230Y231D01*
X1279Y231D02*
X1304Y231D01*
X695Y230D02*
X719Y230D01*
X771Y230D02*
X794Y230D01*
X1205Y230D02*
X1229Y230D01*
X1281Y230D02*
X1304Y230D01*
X695Y229D02*
X718Y229D01*
X772Y229D02*
X794Y229D01*
X1205Y229D02*
X1228Y229D01*
X1282Y229D02*
X1304Y229D01*
X695Y228D02*
X717Y228D01*
X773Y228D02*
X794Y228D01*
X1205Y228D02*
X1226Y228D01*
X1283Y228D02*
X1304Y228D01*
X695Y227D02*
X716Y227D01*
X774Y227D02*
X794Y227D01*
X1205Y227D02*
X1225Y227D01*
X1284Y227D02*
X1304Y227D01*
X695Y226D02*
X715Y226D01*
X775Y226D02*
X794Y226D01*
X1205Y226D02*
X1225Y226D01*
X1285Y226D02*
X1304Y226D01*
X695Y225D02*
X714Y225D01*
X776Y225D02*
X794Y225D01*
X1205Y225D02*
X1224Y225D01*
X1286Y225D02*
X1304Y225D01*
X695Y224D02*
X713Y224D01*
X777Y224D02*
X794Y224D01*
X1205Y224D02*
X1223Y224D01*
X1286Y224D02*
X1304Y224D01*
X695Y223D02*
X712Y223D01*
X777Y223D02*
X794Y223D01*
X1205Y223D02*
X1222Y223D01*
X1287Y223D02*
X1304Y223D01*
X695Y222D02*
X711Y222D01*
X778Y222D02*
X794Y222D01*
X1205Y222D02*
X1221Y222D01*
X1288Y222D02*
X1304Y222D01*
X695Y221D02*
X711Y221D01*
X779Y221D02*
X794Y221D01*
X1205Y221D02*
X1221Y221D01*
X1289Y221D02*
X1304Y221D01*
X695Y220D02*
X710Y220D01*
X779Y220D02*
X794Y220D01*
X1205Y220D02*
X1220Y220D01*
X1289Y220D02*
X1304Y220D01*
X695Y219D02*
X710Y219D01*
X780Y219D02*
X794Y219D01*
X1205Y219D02*
X1219Y219D01*
X1290Y219D02*
X1304Y219D01*
X695Y218D02*
X709Y218D01*
X781Y218D02*
X794Y218D01*
X1205Y218D02*
X1219Y218D01*
X1290Y218D02*
X1304Y218D01*
X695Y217D02*
X709Y217D01*
X781Y217D02*
X794Y217D01*
X1205Y217D02*
X1218Y217D01*
X1291Y217D02*
X1304Y217D01*
X695Y216D02*
X708Y216D01*
X781Y216D02*
X794Y216D01*
X1205Y216D02*
X1218Y216D01*
X1291Y216D02*
X1304Y216D01*
X695Y215D02*
X708Y215D01*
X782Y215D02*
X794Y215D01*
X1205Y215D02*
X1217Y215D01*
X1292Y215D02*
X1304Y215D01*
X695Y214D02*
X707Y214D01*
X782Y214D02*
X794Y214D01*
X1205Y214D02*
X1217Y214D01*
X1292Y214D02*
X1304Y214D01*
X695Y213D02*
X707Y213D01*
X783Y213D02*
X794Y213D01*
X1205Y213D02*
X1217Y213D01*
X1293Y213D02*
X1304Y213D01*
X695Y212D02*
X706Y212D01*
X783Y212D02*
X794Y212D01*
X1205Y212D02*
X1216Y212D01*
X1293Y212D02*
X1304Y212D01*
X695Y211D02*
X706Y211D01*
X783Y211D02*
X794Y211D01*
X1205Y211D02*
X1216Y211D01*
X1293Y211D02*
X1304Y211D01*
X695Y210D02*
X706Y210D01*
X784Y210D02*
X794Y210D01*
X1205Y210D02*
X1216Y210D01*
X1294Y210D02*
X1304Y210D01*
X695Y209D02*
X706Y209D01*
X784Y209D02*
X794Y209D01*
X1205Y209D02*
X1215Y209D01*
X1294Y209D02*
X1304Y209D01*
X695Y208D02*
X705Y208D01*
X784Y208D02*
X794Y208D01*
X1205Y208D02*
X1215Y208D01*
X1294Y208D02*
X1304Y208D01*
X695Y207D02*
X705Y207D01*
X784Y207D02*
X794Y207D01*
X1205Y207D02*
X1215Y207D01*
X1294Y207D02*
X1304Y207D01*
X695Y206D02*
X705Y206D01*
X785Y206D02*
X794Y206D01*
X1205Y206D02*
X1215Y206D01*
X1294Y206D02*
X1304Y206D01*
X695Y205D02*
X705Y205D01*
X785Y205D02*
X794Y205D01*
X1205Y205D02*
X1215Y205D01*
X1295Y205D02*
X1304Y205D01*
X695Y204D02*
X705Y204D01*
X785Y204D02*
X794Y204D01*
X1205Y204D02*
X1214Y204D01*
X1295Y204D02*
X1304Y204D01*
X695Y203D02*
X704Y203D01*
X785Y203D02*
X794Y203D01*
X1205Y203D02*
X1214Y203D01*
X1295Y203D02*
X1304Y203D01*
X695Y202D02*
X704Y202D01*
X785Y202D02*
X794Y202D01*
X1205Y202D02*
X1214Y202D01*
X1295Y202D02*
X1304Y202D01*
X695Y201D02*
X704Y201D01*
X785Y201D02*
X794Y201D01*
X1205Y201D02*
X1214Y201D01*
X1295Y201D02*
X1304Y201D01*
X695Y200D02*
X704Y200D01*
X785Y200D02*
X794Y200D01*
X1205Y200D02*
X1214Y200D01*
X1295Y200D02*
X1304Y200D01*
X695Y199D02*
X704Y199D01*
X785Y199D02*
X794Y199D01*
X1205Y199D02*
X1214Y199D01*
X1295Y199D02*
X1304Y199D01*
X695Y198D02*
X704Y198D01*
X785Y198D02*
X794Y198D01*
X1205Y198D02*
X1214Y198D01*
X1295Y198D02*
X1304Y198D01*
X695Y197D02*
X704Y197D01*
X785Y197D02*
X794Y197D01*
X1205Y197D02*
X1214Y197D01*
X1295Y197D02*
X1304Y197D01*
X695Y196D02*
X704Y196D01*
X785Y196D02*
X794Y196D01*
X1205Y196D02*
X1214Y196D01*
X1295Y196D02*
X1304Y196D01*
X695Y195D02*
X704Y195D01*
X785Y195D02*
X794Y195D01*
X1205Y195D02*
X1214Y195D01*
X1295Y195D02*
X1304Y195D01*
X695Y194D02*
X705Y194D01*
X785Y194D02*
X794Y194D01*
X1205Y194D02*
X1215Y194D01*
X1295Y194D02*
X1304Y194D01*
X695Y193D02*
X705Y193D01*
X785Y193D02*
X794Y193D01*
X1205Y193D02*
X1215Y193D01*
X1295Y193D02*
X1304Y193D01*
X695Y192D02*
X705Y192D01*
X785Y192D02*
X794Y192D01*
X1205Y192D02*
X1215Y192D01*
X1294Y192D02*
X1304Y192D01*
X695Y191D02*
X705Y191D01*
X784Y191D02*
X794Y191D01*
X1205Y191D02*
X1215Y191D01*
X1294Y191D02*
X1304Y191D01*
X695Y190D02*
X705Y190D01*
X784Y190D02*
X794Y190D01*
X1205Y190D02*
X1215Y190D01*
X1294Y190D02*
X1304Y190D01*
X695Y189D02*
X706Y189D01*
X784Y189D02*
X794Y189D01*
X1205Y189D02*
X1215Y189D01*
X1294Y189D02*
X1304Y189D01*
X695Y188D02*
X706Y188D01*
X784Y188D02*
X794Y188D01*
X1205Y188D02*
X1216Y188D01*
X1294Y188D02*
X1304Y188D01*
X695Y187D02*
X706Y187D01*
X783Y187D02*
X794Y187D01*
X1205Y187D02*
X1216Y187D01*
X1293Y187D02*
X1304Y187D01*
X695Y186D02*
X707Y186D01*
X783Y186D02*
X794Y186D01*
X1205Y186D02*
X1216Y186D01*
X1293Y186D02*
X1304Y186D01*
X695Y185D02*
X707Y185D01*
X783Y185D02*
X794Y185D01*
X1205Y185D02*
X1217Y185D01*
X1292Y185D02*
X1304Y185D01*
X695Y184D02*
X707Y184D01*
X782Y184D02*
X794Y184D01*
X1205Y184D02*
X1217Y184D01*
X1292Y184D02*
X1304Y184D01*
X695Y183D02*
X708Y183D01*
X782Y183D02*
X794Y183D01*
X1205Y183D02*
X1218Y183D01*
X1292Y183D02*
X1304Y183D01*
X695Y182D02*
X708Y182D01*
X781Y182D02*
X794Y182D01*
X1205Y182D02*
X1218Y182D01*
X1291Y182D02*
X1304Y182D01*
X695Y181D02*
X709Y181D01*
X781Y181D02*
X794Y181D01*
X1205Y181D02*
X1219Y181D01*
X1291Y181D02*
X1304Y181D01*
X695Y180D02*
X709Y180D01*
X780Y180D02*
X794Y180D01*
X1205Y180D02*
X1219Y180D01*
X1290Y180D02*
X1304Y180D01*
X695Y179D02*
X710Y179D01*
X780Y179D02*
X794Y179D01*
X1205Y179D02*
X1220Y179D01*
X1290Y179D02*
X1304Y179D01*
X695Y178D02*
X710Y178D01*
X779Y178D02*
X794Y178D01*
X1205Y178D02*
X1220Y178D01*
X1289Y178D02*
X1304Y178D01*
X695Y177D02*
X711Y177D01*
X779Y177D02*
X794Y177D01*
X1205Y177D02*
X1221Y177D01*
X1288Y177D02*
X1304Y177D01*
X695Y176D02*
X712Y176D01*
X778Y176D02*
X794Y176D01*
X1205Y176D02*
X1222Y176D01*
X1288Y176D02*
X1304Y176D01*
X695Y175D02*
X712Y175D01*
X777Y175D02*
X794Y175D01*
X1205Y175D02*
X1222Y175D01*
X1287Y175D02*
X1304Y175D01*
X695Y174D02*
X713Y174D01*
X776Y174D02*
X794Y174D01*
X1205Y174D02*
X1223Y174D01*
X1286Y174D02*
X1304Y174D01*
X695Y173D02*
X714Y173D01*
X775Y173D02*
X794Y173D01*
X1205Y173D02*
X1224Y173D01*
X1285Y173D02*
X1304Y173D01*
X695Y172D02*
X715Y172D01*
X775Y172D02*
X794Y172D01*
X1205Y172D02*
X1225Y172D01*
X1284Y172D02*
X1304Y172D01*
X695Y171D02*
X716Y171D01*
X774Y171D02*
X794Y171D01*
X1205Y171D02*
X1226Y171D01*
X1284Y171D02*
X1304Y171D01*
X695Y170D02*
X717Y170D01*
X773Y170D02*
X794Y170D01*
X1205Y170D02*
X1227Y170D01*
X1282Y170D02*
X1304Y170D01*
X695Y169D02*
X718Y169D01*
X771Y169D02*
X794Y169D01*
X1205Y169D02*
X1228Y169D01*
X1281Y169D02*
X1304Y169D01*
X695Y168D02*
X719Y168D01*
X770Y168D02*
X794Y168D01*
X1205Y168D02*
X1229Y168D01*
X1280Y168D02*
X1304Y168D01*
X695Y167D02*
X721Y167D01*
X769Y167D02*
X794Y167D01*
X1205Y167D02*
X1230Y167D01*
X1279Y167D02*
X1304Y167D01*
X695Y166D02*
X722Y166D01*
X768Y166D02*
X794Y166D01*
X1205Y166D02*
X1232Y166D01*
X1277Y166D02*
X1304Y166D01*
X695Y165D02*
X724Y165D01*
X766Y165D02*
X794Y165D01*
X1205Y165D02*
X1233Y165D01*
X1276Y165D02*
X1304Y165D01*
X695Y164D02*
X725Y164D01*
X764Y164D02*
X794Y164D01*
X1205Y164D02*
X1235Y164D01*
X1274Y164D02*
X1304Y164D01*
X695Y163D02*
X727Y163D01*
X762Y163D02*
X794Y163D01*
X1205Y163D02*
X1237Y163D01*
X1272Y163D02*
X1304Y163D01*
X695Y162D02*
X730Y162D01*
X760Y162D02*
X794Y162D01*
X1205Y162D02*
X1239Y162D01*
X1270Y162D02*
X1304Y162D01*
X695Y161D02*
X732Y161D01*
X757Y161D02*
X794Y161D01*
X1205Y161D02*
X1242Y161D01*
X1267Y161D02*
X1304Y161D01*
X695Y160D02*
X736Y160D01*
X753Y160D02*
X794Y160D01*
X1205Y160D02*
X1246Y160D01*
X1263Y160D02*
X1304Y160D01*
X695Y159D02*
X794Y159D01*
X1205Y159D02*
X1304Y159D01*
X695Y158D02*
X794Y158D01*
X1205Y158D02*
X1304Y158D01*
X695Y157D02*
X794Y157D01*
X1205Y157D02*
X1304Y157D01*
X695Y156D02*
X794Y156D01*
X1205Y156D02*
X1304Y156D01*
X695Y155D02*
X794Y155D01*
X1205Y155D02*
X1304Y155D01*
X695Y154D02*
X794Y154D01*
X1205Y154D02*
X1304Y154D01*
X695Y153D02*
X794Y153D01*
X1205Y153D02*
X1304Y153D01*
X695Y152D02*
X794Y152D01*
X1205Y152D02*
X1304Y152D01*
X695Y151D02*
X794Y151D01*
X1205Y151D02*
X1304Y151D01*
X695Y150D02*
X794Y150D01*
X1205Y150D02*
X1304Y150D01*
D02*
G04 End of Copper1*
M02*