G04 MADE WITH FRITZING*
G04 WWW.FRITZING.ORG*
G04 DOUBLE SIDED*
G04 HOLES PLATED*
G04 CONTOUR ON CENTER OF CONTOUR VECTOR*
%ASAXBY*%
%FSLAX23Y23*%
%MOIN*%
%OFA0B0*%
%SFA1.0B1.0*%
%ADD10C,0.075000*%
%ADD11C,0.147222*%
%ADD12C,0.078000*%
%ADD13C,0.062992*%
%ADD14C,0.100000*%
%ADD15C,0.070000*%
%ADD16C,0.099000*%
%ADD17R,0.062992X0.062992*%
%ADD18R,0.075000X0.075000*%
%ADD19R,0.099000X0.099000*%
%ADD20C,0.024000*%
%ADD21R,0.001000X0.001000*%
%LNCOPPER0*%
G90*
G70*
G54D10*
X1633Y2043D03*
G54D11*
X1261Y499D03*
X1053Y499D03*
X844Y499D03*
X1261Y685D03*
X1053Y685D03*
X844Y685D03*
X1261Y870D03*
X1053Y870D03*
X844Y870D03*
X1261Y499D03*
X1053Y499D03*
X844Y499D03*
X1261Y685D03*
X1053Y685D03*
X844Y685D03*
X1261Y870D03*
X1053Y870D03*
X844Y870D03*
G54D12*
X1544Y1999D03*
X1544Y1899D03*
X444Y1999D03*
X444Y1899D03*
G54D13*
X1644Y400D03*
X1644Y499D03*
G54D14*
X744Y199D03*
X1254Y199D03*
G54D10*
X444Y499D03*
X344Y499D03*
X744Y1399D03*
X744Y1299D03*
X744Y1199D03*
G54D15*
X1644Y899D03*
X1644Y799D03*
G54D10*
X1244Y1999D03*
X1244Y1599D03*
X1044Y1599D03*
X1044Y1999D03*
X744Y1599D03*
X744Y1999D03*
X244Y699D03*
X244Y1099D03*
G54D15*
X444Y899D03*
X545Y899D03*
G54D16*
X244Y1599D03*
X444Y1599D03*
X344Y1199D03*
X1444Y1599D03*
X1644Y1599D03*
X1544Y1199D03*
G54D10*
X1144Y1399D03*
X1144Y1299D03*
X1144Y1199D03*
G54D17*
X1644Y400D03*
G54D18*
X444Y499D03*
G54D19*
X444Y1599D03*
X1644Y1599D03*
G54D20*
X762Y1599D02*
X845Y1599D01*
D02*
X644Y498D02*
X544Y198D01*
D02*
X1046Y1398D02*
X1127Y1398D01*
D02*
X845Y1599D02*
X1046Y1398D01*
D02*
X811Y654D02*
X644Y498D01*
D02*
X345Y1898D02*
X425Y1899D01*
D02*
X44Y398D02*
X44Y1599D01*
D02*
X244Y198D02*
X44Y398D01*
D02*
X544Y198D02*
X244Y198D01*
D02*
X44Y1599D02*
X345Y1898D01*
D02*
X1744Y1699D02*
X1744Y1098D01*
D02*
X1558Y1885D02*
X1744Y1699D01*
D02*
X1344Y1098D02*
X1089Y898D01*
D02*
X1744Y1098D02*
X1344Y1098D01*
D02*
X1545Y599D02*
X1644Y698D01*
D02*
X1644Y698D02*
X1645Y800D01*
D02*
X1645Y800D02*
X1653Y811D01*
D02*
X1545Y498D02*
X1545Y599D01*
D02*
X1633Y411D02*
X1545Y498D01*
D02*
X346Y998D02*
X346Y799D01*
D02*
X346Y799D02*
X445Y698D01*
D02*
X445Y698D02*
X444Y516D01*
D02*
X730Y1288D02*
X346Y998D01*
D02*
X1445Y698D02*
X1295Y838D01*
D02*
X1445Y399D02*
X1445Y698D01*
D02*
X1282Y228D02*
X1445Y399D01*
D02*
X1544Y1499D02*
X1544Y1399D01*
D02*
X1544Y1399D02*
X1244Y1099D01*
D02*
X845Y1099D02*
X757Y1186D01*
D02*
X1244Y1099D02*
X845Y1099D01*
D02*
X1630Y1584D02*
X1544Y1499D01*
D02*
X1345Y1699D02*
X744Y1699D01*
D02*
X744Y1699D02*
X544Y1499D01*
D02*
X544Y1499D02*
X144Y1199D01*
D02*
X144Y1199D02*
X144Y399D01*
D02*
X144Y399D02*
X244Y298D01*
D02*
X244Y298D02*
X444Y298D01*
D02*
X444Y298D02*
X544Y498D01*
D02*
X1430Y1613D02*
X1345Y1699D01*
D02*
X544Y498D02*
X545Y884D01*
G36*
X386Y2125D02*
X386Y2123D01*
X372Y2123D01*
X372Y2121D01*
X360Y2121D01*
X360Y2119D01*
X350Y2119D01*
X350Y2117D01*
X342Y2117D01*
X342Y2115D01*
X332Y2115D01*
X332Y2113D01*
X326Y2113D01*
X326Y2111D01*
X318Y2111D01*
X318Y2109D01*
X312Y2109D01*
X312Y2107D01*
X306Y2107D01*
X306Y2105D01*
X300Y2105D01*
X300Y2103D01*
X296Y2103D01*
X296Y2101D01*
X290Y2101D01*
X290Y2099D01*
X284Y2099D01*
X284Y2097D01*
X280Y2097D01*
X280Y2095D01*
X276Y2095D01*
X276Y2093D01*
X270Y2093D01*
X270Y2091D01*
X266Y2091D01*
X266Y2089D01*
X262Y2089D01*
X262Y2087D01*
X258Y2087D01*
X258Y2085D01*
X254Y2085D01*
X254Y2083D01*
X250Y2083D01*
X250Y2081D01*
X246Y2081D01*
X246Y2079D01*
X242Y2079D01*
X242Y2077D01*
X238Y2077D01*
X238Y2075D01*
X236Y2075D01*
X236Y2073D01*
X232Y2073D01*
X232Y2071D01*
X228Y2071D01*
X228Y2069D01*
X226Y2069D01*
X226Y2067D01*
X222Y2067D01*
X222Y2065D01*
X220Y2065D01*
X220Y2063D01*
X216Y2063D01*
X216Y2061D01*
X212Y2061D01*
X212Y2059D01*
X210Y2059D01*
X210Y2057D01*
X208Y2057D01*
X208Y2055D01*
X204Y2055D01*
X204Y2053D01*
X202Y2053D01*
X202Y2051D01*
X198Y2051D01*
X198Y2049D01*
X196Y2049D01*
X196Y2047D01*
X1556Y2047D01*
X1556Y2045D01*
X1562Y2045D01*
X1562Y2043D01*
X1566Y2043D01*
X1566Y2041D01*
X1570Y2041D01*
X1570Y2039D01*
X1572Y2039D01*
X1572Y2037D01*
X1576Y2037D01*
X1576Y2035D01*
X1578Y2035D01*
X1578Y2033D01*
X1580Y2033D01*
X1580Y2031D01*
X1582Y2031D01*
X1582Y2029D01*
X1584Y2029D01*
X1584Y2025D01*
X1586Y2025D01*
X1586Y2023D01*
X1588Y2023D01*
X1588Y2019D01*
X1590Y2019D01*
X1590Y2013D01*
X1592Y2013D01*
X1592Y2005D01*
X1594Y2005D01*
X1594Y1993D01*
X1592Y1993D01*
X1592Y1983D01*
X1590Y1983D01*
X1590Y1979D01*
X1588Y1979D01*
X1588Y1975D01*
X1586Y1975D01*
X1586Y1971D01*
X1584Y1971D01*
X1584Y1969D01*
X1582Y1969D01*
X1582Y1967D01*
X1580Y1967D01*
X1580Y1963D01*
X1578Y1963D01*
X1578Y1961D01*
X1574Y1961D01*
X1574Y1959D01*
X1572Y1959D01*
X1572Y1937D01*
X1576Y1937D01*
X1576Y1935D01*
X1578Y1935D01*
X1578Y1933D01*
X1580Y1933D01*
X1580Y1931D01*
X1582Y1931D01*
X1582Y1929D01*
X1584Y1929D01*
X1584Y1925D01*
X1586Y1925D01*
X1586Y1923D01*
X1588Y1923D01*
X1588Y1919D01*
X1590Y1919D01*
X1590Y1913D01*
X1592Y1913D01*
X1592Y1905D01*
X1594Y1905D01*
X1594Y1879D01*
X1596Y1879D01*
X1596Y1877D01*
X1598Y1877D01*
X1598Y1875D01*
X1600Y1875D01*
X1600Y1873D01*
X1602Y1873D01*
X1602Y1871D01*
X1604Y1871D01*
X1604Y1869D01*
X1606Y1869D01*
X1606Y1867D01*
X1608Y1867D01*
X1608Y1865D01*
X1610Y1865D01*
X1610Y1863D01*
X1612Y1863D01*
X1612Y1861D01*
X1614Y1861D01*
X1614Y1859D01*
X1616Y1859D01*
X1616Y1857D01*
X1618Y1857D01*
X1618Y1855D01*
X1620Y1855D01*
X1620Y1853D01*
X1622Y1853D01*
X1622Y1851D01*
X1624Y1851D01*
X1624Y1849D01*
X1626Y1849D01*
X1626Y1847D01*
X1628Y1847D01*
X1628Y1845D01*
X1630Y1845D01*
X1630Y1843D01*
X1632Y1843D01*
X1632Y1841D01*
X1634Y1841D01*
X1634Y1839D01*
X1636Y1839D01*
X1636Y1837D01*
X1638Y1837D01*
X1638Y1835D01*
X1640Y1835D01*
X1640Y1833D01*
X1642Y1833D01*
X1642Y1831D01*
X1644Y1831D01*
X1644Y1829D01*
X1646Y1829D01*
X1646Y1827D01*
X1648Y1827D01*
X1648Y1825D01*
X1650Y1825D01*
X1650Y1823D01*
X1652Y1823D01*
X1652Y1821D01*
X1654Y1821D01*
X1654Y1819D01*
X1656Y1819D01*
X1656Y1817D01*
X1658Y1817D01*
X1658Y1815D01*
X1660Y1815D01*
X1660Y1813D01*
X1662Y1813D01*
X1662Y1811D01*
X1664Y1811D01*
X1664Y1809D01*
X1666Y1809D01*
X1666Y1807D01*
X1668Y1807D01*
X1668Y1805D01*
X1670Y1805D01*
X1670Y1803D01*
X1672Y1803D01*
X1672Y1801D01*
X1674Y1801D01*
X1674Y1799D01*
X1676Y1799D01*
X1676Y1797D01*
X1678Y1797D01*
X1678Y1795D01*
X1680Y1795D01*
X1680Y1793D01*
X1682Y1793D01*
X1682Y1791D01*
X1684Y1791D01*
X1684Y1789D01*
X1686Y1789D01*
X1686Y1787D01*
X1688Y1787D01*
X1688Y1785D01*
X1690Y1785D01*
X1690Y1783D01*
X1692Y1783D01*
X1692Y1781D01*
X1694Y1781D01*
X1694Y1779D01*
X1696Y1779D01*
X1696Y1777D01*
X1698Y1777D01*
X1698Y1775D01*
X1700Y1775D01*
X1700Y1773D01*
X1702Y1773D01*
X1702Y1771D01*
X1704Y1771D01*
X1704Y1769D01*
X1706Y1769D01*
X1706Y1767D01*
X1708Y1767D01*
X1708Y1765D01*
X1710Y1765D01*
X1710Y1763D01*
X1712Y1763D01*
X1712Y1761D01*
X1714Y1761D01*
X1714Y1759D01*
X1716Y1759D01*
X1716Y1757D01*
X1718Y1757D01*
X1718Y1755D01*
X1720Y1755D01*
X1720Y1753D01*
X1722Y1753D01*
X1722Y1751D01*
X1724Y1751D01*
X1724Y1749D01*
X1726Y1749D01*
X1726Y1747D01*
X1728Y1747D01*
X1728Y1745D01*
X1730Y1745D01*
X1730Y1743D01*
X1732Y1743D01*
X1732Y1741D01*
X1734Y1741D01*
X1734Y1739D01*
X1736Y1739D01*
X1736Y1737D01*
X1738Y1737D01*
X1738Y1735D01*
X1740Y1735D01*
X1740Y1733D01*
X1742Y1733D01*
X1742Y1731D01*
X1744Y1731D01*
X1744Y1729D01*
X1746Y1729D01*
X1746Y1727D01*
X1748Y1727D01*
X1748Y1725D01*
X1750Y1725D01*
X1750Y1723D01*
X1752Y1723D01*
X1752Y1721D01*
X1754Y1721D01*
X1754Y1719D01*
X1756Y1719D01*
X1756Y1717D01*
X1758Y1717D01*
X1758Y1715D01*
X1760Y1715D01*
X1760Y1713D01*
X1762Y1713D01*
X1762Y1709D01*
X1764Y1709D01*
X1764Y1705D01*
X1766Y1705D01*
X1766Y1091D01*
X1764Y1091D01*
X1764Y1087D01*
X1762Y1087D01*
X1762Y1083D01*
X1760Y1083D01*
X1760Y1081D01*
X1756Y1081D01*
X1756Y1079D01*
X1754Y1079D01*
X1754Y1077D01*
X1352Y1077D01*
X1352Y1075D01*
X1348Y1075D01*
X1348Y1073D01*
X1346Y1073D01*
X1346Y1071D01*
X1344Y1071D01*
X1344Y1069D01*
X1340Y1069D01*
X1340Y1067D01*
X1338Y1067D01*
X1338Y1065D01*
X1336Y1065D01*
X1336Y1063D01*
X1334Y1063D01*
X1334Y1061D01*
X1330Y1061D01*
X1330Y1059D01*
X1328Y1059D01*
X1328Y1057D01*
X1326Y1057D01*
X1326Y1055D01*
X1324Y1055D01*
X1324Y1053D01*
X1320Y1053D01*
X1320Y1051D01*
X1318Y1051D01*
X1318Y1049D01*
X1316Y1049D01*
X1316Y1047D01*
X1314Y1047D01*
X1314Y1045D01*
X1310Y1045D01*
X1310Y1043D01*
X1308Y1043D01*
X1308Y1041D01*
X1306Y1041D01*
X1306Y1039D01*
X1302Y1039D01*
X1302Y1037D01*
X1300Y1037D01*
X1300Y1035D01*
X1298Y1035D01*
X1298Y1033D01*
X1296Y1033D01*
X1296Y1031D01*
X1292Y1031D01*
X1292Y1029D01*
X1290Y1029D01*
X1290Y1027D01*
X1288Y1027D01*
X1288Y1025D01*
X1286Y1025D01*
X1286Y1023D01*
X1282Y1023D01*
X1282Y1021D01*
X1280Y1021D01*
X1280Y1019D01*
X1278Y1019D01*
X1278Y1017D01*
X1274Y1017D01*
X1274Y1015D01*
X1272Y1015D01*
X1272Y1013D01*
X1270Y1013D01*
X1270Y1011D01*
X1268Y1011D01*
X1268Y1009D01*
X1264Y1009D01*
X1264Y1007D01*
X1262Y1007D01*
X1262Y1005D01*
X1260Y1005D01*
X1260Y1003D01*
X1258Y1003D01*
X1258Y1001D01*
X1254Y1001D01*
X1254Y999D01*
X1252Y999D01*
X1252Y997D01*
X1250Y997D01*
X1250Y995D01*
X1246Y995D01*
X1246Y993D01*
X1244Y993D01*
X1244Y991D01*
X1242Y991D01*
X1242Y989D01*
X1240Y989D01*
X1240Y987D01*
X1236Y987D01*
X1236Y985D01*
X1234Y985D01*
X1234Y983D01*
X1232Y983D01*
X1232Y981D01*
X1230Y981D01*
X1230Y979D01*
X1226Y979D01*
X1226Y977D01*
X1224Y977D01*
X1224Y975D01*
X1222Y975D01*
X1222Y973D01*
X1218Y973D01*
X1218Y971D01*
X1216Y971D01*
X1216Y969D01*
X1214Y969D01*
X1214Y967D01*
X1212Y967D01*
X1212Y965D01*
X1208Y965D01*
X1208Y963D01*
X1206Y963D01*
X1206Y961D01*
X1204Y961D01*
X1204Y959D01*
X1202Y959D01*
X1202Y957D01*
X1198Y957D01*
X1198Y955D01*
X1196Y955D01*
X1196Y953D01*
X1272Y953D01*
X1272Y951D01*
X1282Y951D01*
X1282Y949D01*
X1288Y949D01*
X1288Y947D01*
X1294Y947D01*
X1294Y945D01*
X1298Y945D01*
X1298Y943D01*
X1654Y943D01*
X1654Y941D01*
X1662Y941D01*
X1662Y939D01*
X1666Y939D01*
X1666Y937D01*
X1668Y937D01*
X1668Y935D01*
X1672Y935D01*
X1672Y933D01*
X1674Y933D01*
X1674Y931D01*
X1676Y931D01*
X1676Y929D01*
X1678Y929D01*
X1678Y927D01*
X1680Y927D01*
X1680Y925D01*
X1682Y925D01*
X1682Y921D01*
X1684Y921D01*
X1684Y917D01*
X1686Y917D01*
X1686Y913D01*
X1688Y913D01*
X1688Y903D01*
X1690Y903D01*
X1690Y893D01*
X1688Y893D01*
X1688Y885D01*
X1686Y885D01*
X1686Y879D01*
X1684Y879D01*
X1684Y875D01*
X1682Y875D01*
X1682Y873D01*
X1680Y873D01*
X1680Y869D01*
X1678Y869D01*
X1678Y867D01*
X1676Y867D01*
X1676Y865D01*
X1674Y865D01*
X1674Y863D01*
X1670Y863D01*
X1670Y861D01*
X1668Y861D01*
X1668Y859D01*
X1664Y859D01*
X1664Y839D01*
X1666Y839D01*
X1666Y837D01*
X1668Y837D01*
X1668Y835D01*
X1672Y835D01*
X1672Y833D01*
X1674Y833D01*
X1674Y831D01*
X1676Y831D01*
X1676Y829D01*
X1678Y829D01*
X1678Y827D01*
X1680Y827D01*
X1680Y825D01*
X1682Y825D01*
X1682Y821D01*
X1684Y821D01*
X1684Y817D01*
X1686Y817D01*
X1686Y813D01*
X1688Y813D01*
X1688Y803D01*
X1690Y803D01*
X1690Y793D01*
X1688Y793D01*
X1688Y785D01*
X1686Y785D01*
X1686Y779D01*
X1684Y779D01*
X1684Y775D01*
X1682Y775D01*
X1682Y773D01*
X1680Y773D01*
X1680Y769D01*
X1678Y769D01*
X1678Y767D01*
X1676Y767D01*
X1676Y765D01*
X1674Y765D01*
X1674Y763D01*
X1670Y763D01*
X1670Y761D01*
X1668Y761D01*
X1668Y759D01*
X1666Y759D01*
X1666Y693D01*
X1664Y693D01*
X1664Y687D01*
X1662Y687D01*
X1662Y685D01*
X1660Y685D01*
X1660Y681D01*
X1658Y681D01*
X1658Y679D01*
X1656Y679D01*
X1656Y677D01*
X1654Y677D01*
X1654Y675D01*
X1652Y675D01*
X1652Y673D01*
X1650Y673D01*
X1650Y671D01*
X1648Y671D01*
X1648Y669D01*
X1646Y669D01*
X1646Y667D01*
X1644Y667D01*
X1644Y665D01*
X1642Y665D01*
X1642Y663D01*
X1640Y663D01*
X1640Y661D01*
X1638Y661D01*
X1638Y659D01*
X1636Y659D01*
X1636Y657D01*
X1634Y657D01*
X1634Y655D01*
X1632Y655D01*
X1632Y653D01*
X1630Y653D01*
X1630Y651D01*
X1628Y651D01*
X1628Y649D01*
X1626Y649D01*
X1626Y647D01*
X1624Y647D01*
X1624Y645D01*
X1622Y645D01*
X1622Y643D01*
X1620Y643D01*
X1620Y641D01*
X1618Y641D01*
X1618Y639D01*
X1616Y639D01*
X1616Y637D01*
X1614Y637D01*
X1614Y635D01*
X1612Y635D01*
X1612Y633D01*
X1610Y633D01*
X1610Y631D01*
X1608Y631D01*
X1608Y629D01*
X1606Y629D01*
X1606Y627D01*
X1604Y627D01*
X1604Y625D01*
X1602Y625D01*
X1602Y623D01*
X1600Y623D01*
X1600Y621D01*
X1598Y621D01*
X1598Y619D01*
X1596Y619D01*
X1596Y617D01*
X1594Y617D01*
X1594Y615D01*
X1592Y615D01*
X1592Y613D01*
X1590Y613D01*
X1590Y611D01*
X1588Y611D01*
X1588Y609D01*
X1586Y609D01*
X1586Y607D01*
X1584Y607D01*
X1584Y605D01*
X1582Y605D01*
X1582Y603D01*
X1580Y603D01*
X1580Y601D01*
X1578Y601D01*
X1578Y599D01*
X1576Y599D01*
X1576Y597D01*
X1574Y597D01*
X1574Y595D01*
X1572Y595D01*
X1572Y593D01*
X1570Y593D01*
X1570Y591D01*
X1568Y591D01*
X1568Y589D01*
X1566Y589D01*
X1566Y539D01*
X1656Y539D01*
X1656Y537D01*
X1662Y537D01*
X1662Y535D01*
X1666Y535D01*
X1666Y533D01*
X1668Y533D01*
X1668Y531D01*
X1670Y531D01*
X1670Y529D01*
X1674Y529D01*
X1674Y527D01*
X1676Y527D01*
X1676Y523D01*
X1678Y523D01*
X1678Y521D01*
X1680Y521D01*
X1680Y517D01*
X1682Y517D01*
X1682Y513D01*
X1684Y513D01*
X1684Y507D01*
X1686Y507D01*
X1686Y491D01*
X1684Y491D01*
X1684Y483D01*
X1682Y483D01*
X1682Y479D01*
X1680Y479D01*
X1680Y475D01*
X1678Y475D01*
X1678Y473D01*
X1676Y473D01*
X1676Y471D01*
X1674Y471D01*
X1674Y469D01*
X1672Y469D01*
X1672Y467D01*
X1670Y467D01*
X1670Y465D01*
X1668Y465D01*
X1668Y463D01*
X1664Y463D01*
X1664Y461D01*
X1660Y461D01*
X1660Y441D01*
X1686Y441D01*
X1686Y359D01*
X1922Y359D01*
X1922Y367D01*
X1924Y367D01*
X1924Y381D01*
X1926Y381D01*
X1926Y399D01*
X1928Y399D01*
X1928Y1767D01*
X1926Y1767D01*
X1926Y1785D01*
X1924Y1785D01*
X1924Y1799D01*
X1922Y1799D01*
X1922Y1811D01*
X1920Y1811D01*
X1920Y1819D01*
X1918Y1819D01*
X1918Y1829D01*
X1916Y1829D01*
X1916Y1837D01*
X1914Y1837D01*
X1914Y1843D01*
X1912Y1843D01*
X1912Y1849D01*
X1910Y1849D01*
X1910Y1857D01*
X1908Y1857D01*
X1908Y1861D01*
X1906Y1861D01*
X1906Y1867D01*
X1904Y1867D01*
X1904Y1873D01*
X1902Y1873D01*
X1902Y1879D01*
X1900Y1879D01*
X1900Y1883D01*
X1898Y1883D01*
X1898Y1889D01*
X1896Y1889D01*
X1896Y1893D01*
X1894Y1893D01*
X1894Y1897D01*
X1892Y1897D01*
X1892Y1901D01*
X1890Y1901D01*
X1890Y1905D01*
X1888Y1905D01*
X1888Y1909D01*
X1886Y1909D01*
X1886Y1913D01*
X1884Y1913D01*
X1884Y1917D01*
X1882Y1917D01*
X1882Y1921D01*
X1880Y1921D01*
X1880Y1925D01*
X1878Y1925D01*
X1878Y1927D01*
X1876Y1927D01*
X1876Y1931D01*
X1874Y1931D01*
X1874Y1935D01*
X1872Y1935D01*
X1872Y1939D01*
X1870Y1939D01*
X1870Y1941D01*
X1868Y1941D01*
X1868Y1945D01*
X1866Y1945D01*
X1866Y1947D01*
X1864Y1947D01*
X1864Y1951D01*
X1862Y1951D01*
X1862Y1953D01*
X1860Y1953D01*
X1860Y1957D01*
X1858Y1957D01*
X1858Y1959D01*
X1856Y1959D01*
X1856Y1963D01*
X1854Y1963D01*
X1854Y1965D01*
X1852Y1965D01*
X1852Y1967D01*
X1850Y1967D01*
X1850Y1971D01*
X1848Y1971D01*
X1848Y1973D01*
X1846Y1973D01*
X1846Y1975D01*
X1844Y1975D01*
X1844Y1977D01*
X1842Y1977D01*
X1842Y1981D01*
X1840Y1981D01*
X1840Y1983D01*
X1838Y1983D01*
X1838Y1985D01*
X1836Y1985D01*
X1836Y1987D01*
X1834Y1987D01*
X1834Y1989D01*
X1832Y1989D01*
X1832Y1993D01*
X1830Y1993D01*
X1830Y1995D01*
X1828Y1995D01*
X1828Y1997D01*
X1826Y1997D01*
X1826Y1999D01*
X1824Y1999D01*
X1824Y2001D01*
X1822Y2001D01*
X1822Y2003D01*
X1820Y2003D01*
X1820Y2005D01*
X1818Y2005D01*
X1818Y2007D01*
X1816Y2007D01*
X1816Y2009D01*
X1814Y2009D01*
X1814Y2011D01*
X1812Y2011D01*
X1812Y2013D01*
X1810Y2013D01*
X1810Y2015D01*
X1808Y2015D01*
X1808Y2017D01*
X1806Y2017D01*
X1806Y2019D01*
X1804Y2019D01*
X1804Y2021D01*
X1802Y2021D01*
X1802Y2023D01*
X1800Y2023D01*
X1800Y2025D01*
X1798Y2025D01*
X1798Y2027D01*
X1796Y2027D01*
X1796Y2029D01*
X1794Y2029D01*
X1794Y2031D01*
X1790Y2031D01*
X1790Y2033D01*
X1788Y2033D01*
X1788Y2035D01*
X1786Y2035D01*
X1786Y2037D01*
X1784Y2037D01*
X1784Y2039D01*
X1782Y2039D01*
X1782Y2041D01*
X1778Y2041D01*
X1778Y2043D01*
X1776Y2043D01*
X1776Y2045D01*
X1774Y2045D01*
X1774Y2047D01*
X1770Y2047D01*
X1770Y2049D01*
X1768Y2049D01*
X1768Y2051D01*
X1766Y2051D01*
X1766Y2053D01*
X1762Y2053D01*
X1762Y2055D01*
X1760Y2055D01*
X1760Y2057D01*
X1756Y2057D01*
X1756Y2059D01*
X1754Y2059D01*
X1754Y2061D01*
X1750Y2061D01*
X1750Y2063D01*
X1748Y2063D01*
X1748Y2065D01*
X1744Y2065D01*
X1744Y2067D01*
X1742Y2067D01*
X1742Y2069D01*
X1738Y2069D01*
X1738Y2071D01*
X1734Y2071D01*
X1734Y2073D01*
X1732Y2073D01*
X1732Y2075D01*
X1728Y2075D01*
X1728Y2077D01*
X1724Y2077D01*
X1724Y2079D01*
X1720Y2079D01*
X1720Y2081D01*
X1716Y2081D01*
X1716Y2083D01*
X1712Y2083D01*
X1712Y2085D01*
X1708Y2085D01*
X1708Y2087D01*
X1704Y2087D01*
X1704Y2089D01*
X1700Y2089D01*
X1700Y2091D01*
X1696Y2091D01*
X1696Y2093D01*
X1692Y2093D01*
X1692Y2095D01*
X1686Y2095D01*
X1686Y2097D01*
X1682Y2097D01*
X1682Y2099D01*
X1676Y2099D01*
X1676Y2101D01*
X1672Y2101D01*
X1672Y2103D01*
X1666Y2103D01*
X1666Y2105D01*
X1660Y2105D01*
X1660Y2107D01*
X1654Y2107D01*
X1654Y2109D01*
X1648Y2109D01*
X1648Y2111D01*
X1640Y2111D01*
X1640Y2113D01*
X1634Y2113D01*
X1634Y2115D01*
X1626Y2115D01*
X1626Y2117D01*
X1616Y2117D01*
X1616Y2119D01*
X1606Y2119D01*
X1606Y2121D01*
X1596Y2121D01*
X1596Y2123D01*
X1580Y2123D01*
X1580Y2125D01*
X386Y2125D01*
G37*
D02*
G36*
X194Y2047D02*
X194Y2045D01*
X190Y2045D01*
X190Y2043D01*
X188Y2043D01*
X188Y2041D01*
X186Y2041D01*
X186Y2039D01*
X182Y2039D01*
X182Y2037D01*
X180Y2037D01*
X180Y2035D01*
X178Y2035D01*
X178Y2033D01*
X176Y2033D01*
X176Y2031D01*
X174Y2031D01*
X174Y2029D01*
X172Y2029D01*
X172Y2027D01*
X168Y2027D01*
X168Y2025D01*
X166Y2025D01*
X166Y2023D01*
X164Y2023D01*
X164Y2021D01*
X162Y2021D01*
X162Y2019D01*
X160Y2019D01*
X160Y2017D01*
X158Y2017D01*
X158Y2015D01*
X156Y2015D01*
X156Y2013D01*
X154Y2013D01*
X154Y2011D01*
X152Y2011D01*
X152Y2009D01*
X150Y2009D01*
X150Y2007D01*
X148Y2007D01*
X148Y2005D01*
X146Y2005D01*
X146Y2003D01*
X144Y2003D01*
X144Y2001D01*
X142Y2001D01*
X142Y1999D01*
X140Y1999D01*
X140Y1997D01*
X138Y1997D01*
X138Y1993D01*
X136Y1993D01*
X136Y1991D01*
X134Y1991D01*
X134Y1989D01*
X132Y1989D01*
X132Y1987D01*
X130Y1987D01*
X130Y1985D01*
X128Y1985D01*
X128Y1983D01*
X126Y1983D01*
X126Y1979D01*
X124Y1979D01*
X124Y1977D01*
X122Y1977D01*
X122Y1975D01*
X120Y1975D01*
X120Y1973D01*
X118Y1973D01*
X118Y1969D01*
X116Y1969D01*
X116Y1967D01*
X114Y1967D01*
X114Y1965D01*
X112Y1965D01*
X112Y1961D01*
X110Y1961D01*
X110Y1959D01*
X108Y1959D01*
X108Y1955D01*
X106Y1955D01*
X106Y1953D01*
X104Y1953D01*
X104Y1949D01*
X102Y1949D01*
X102Y1947D01*
X100Y1947D01*
X100Y1943D01*
X98Y1943D01*
X98Y1941D01*
X96Y1941D01*
X96Y1937D01*
X94Y1937D01*
X94Y1933D01*
X92Y1933D01*
X92Y1931D01*
X90Y1931D01*
X90Y1927D01*
X88Y1927D01*
X88Y1923D01*
X86Y1923D01*
X86Y1919D01*
X84Y1919D01*
X84Y1917D01*
X82Y1917D01*
X82Y1913D01*
X80Y1913D01*
X80Y1909D01*
X78Y1909D01*
X78Y1905D01*
X76Y1905D01*
X76Y1901D01*
X74Y1901D01*
X74Y1895D01*
X72Y1895D01*
X72Y1891D01*
X70Y1891D01*
X70Y1887D01*
X68Y1887D01*
X68Y1881D01*
X66Y1881D01*
X66Y1877D01*
X64Y1877D01*
X64Y1871D01*
X62Y1871D01*
X62Y1867D01*
X60Y1867D01*
X60Y1861D01*
X58Y1861D01*
X58Y1855D01*
X56Y1855D01*
X56Y1849D01*
X54Y1849D01*
X54Y1841D01*
X52Y1841D01*
X52Y1835D01*
X50Y1835D01*
X50Y1827D01*
X48Y1827D01*
X48Y1817D01*
X46Y1817D01*
X46Y1807D01*
X44Y1807D01*
X44Y1797D01*
X42Y1797D01*
X42Y1783D01*
X40Y1783D01*
X40Y1645D01*
X60Y1645D01*
X60Y1647D01*
X62Y1647D01*
X62Y1649D01*
X64Y1649D01*
X64Y1651D01*
X66Y1651D01*
X66Y1653D01*
X68Y1653D01*
X68Y1655D01*
X70Y1655D01*
X70Y1657D01*
X72Y1657D01*
X72Y1659D01*
X74Y1659D01*
X74Y1661D01*
X76Y1661D01*
X76Y1663D01*
X78Y1663D01*
X78Y1665D01*
X80Y1665D01*
X80Y1667D01*
X82Y1667D01*
X82Y1669D01*
X84Y1669D01*
X84Y1671D01*
X86Y1671D01*
X86Y1673D01*
X88Y1673D01*
X88Y1675D01*
X90Y1675D01*
X90Y1677D01*
X92Y1677D01*
X92Y1679D01*
X94Y1679D01*
X94Y1681D01*
X96Y1681D01*
X96Y1683D01*
X98Y1683D01*
X98Y1685D01*
X100Y1685D01*
X100Y1687D01*
X102Y1687D01*
X102Y1689D01*
X104Y1689D01*
X104Y1691D01*
X106Y1691D01*
X106Y1693D01*
X108Y1693D01*
X108Y1695D01*
X110Y1695D01*
X110Y1697D01*
X112Y1697D01*
X112Y1699D01*
X114Y1699D01*
X114Y1701D01*
X116Y1701D01*
X116Y1703D01*
X118Y1703D01*
X118Y1705D01*
X120Y1705D01*
X120Y1707D01*
X122Y1707D01*
X122Y1709D01*
X124Y1709D01*
X124Y1711D01*
X126Y1711D01*
X126Y1713D01*
X128Y1713D01*
X128Y1715D01*
X130Y1715D01*
X130Y1717D01*
X132Y1717D01*
X132Y1719D01*
X134Y1719D01*
X134Y1721D01*
X136Y1721D01*
X136Y1723D01*
X138Y1723D01*
X138Y1725D01*
X140Y1725D01*
X140Y1727D01*
X142Y1727D01*
X142Y1729D01*
X146Y1729D01*
X146Y1731D01*
X148Y1731D01*
X148Y1733D01*
X150Y1733D01*
X150Y1735D01*
X152Y1735D01*
X152Y1737D01*
X154Y1737D01*
X154Y1739D01*
X156Y1739D01*
X156Y1741D01*
X158Y1741D01*
X158Y1743D01*
X160Y1743D01*
X160Y1745D01*
X162Y1745D01*
X162Y1747D01*
X164Y1747D01*
X164Y1749D01*
X166Y1749D01*
X166Y1751D01*
X168Y1751D01*
X168Y1753D01*
X170Y1753D01*
X170Y1755D01*
X172Y1755D01*
X172Y1757D01*
X174Y1757D01*
X174Y1759D01*
X176Y1759D01*
X176Y1761D01*
X178Y1761D01*
X178Y1763D01*
X180Y1763D01*
X180Y1765D01*
X182Y1765D01*
X182Y1767D01*
X184Y1767D01*
X184Y1769D01*
X186Y1769D01*
X186Y1771D01*
X188Y1771D01*
X188Y1773D01*
X190Y1773D01*
X190Y1775D01*
X192Y1775D01*
X192Y1777D01*
X194Y1777D01*
X194Y1779D01*
X196Y1779D01*
X196Y1781D01*
X198Y1781D01*
X198Y1783D01*
X200Y1783D01*
X200Y1785D01*
X202Y1785D01*
X202Y1787D01*
X204Y1787D01*
X204Y1789D01*
X206Y1789D01*
X206Y1791D01*
X208Y1791D01*
X208Y1793D01*
X210Y1793D01*
X210Y1795D01*
X212Y1795D01*
X212Y1797D01*
X214Y1797D01*
X214Y1799D01*
X216Y1799D01*
X216Y1801D01*
X218Y1801D01*
X218Y1803D01*
X220Y1803D01*
X220Y1805D01*
X222Y1805D01*
X222Y1807D01*
X224Y1807D01*
X224Y1809D01*
X226Y1809D01*
X226Y1811D01*
X228Y1811D01*
X228Y1813D01*
X230Y1813D01*
X230Y1815D01*
X232Y1815D01*
X232Y1817D01*
X234Y1817D01*
X234Y1819D01*
X236Y1819D01*
X236Y1821D01*
X238Y1821D01*
X238Y1823D01*
X240Y1823D01*
X240Y1825D01*
X242Y1825D01*
X242Y1827D01*
X244Y1827D01*
X244Y1829D01*
X246Y1829D01*
X246Y1831D01*
X248Y1831D01*
X248Y1833D01*
X250Y1833D01*
X250Y1835D01*
X252Y1835D01*
X252Y1837D01*
X254Y1837D01*
X254Y1839D01*
X256Y1839D01*
X256Y1841D01*
X258Y1841D01*
X258Y1843D01*
X260Y1843D01*
X260Y1845D01*
X262Y1845D01*
X262Y1847D01*
X264Y1847D01*
X264Y1849D01*
X266Y1849D01*
X266Y1851D01*
X268Y1851D01*
X268Y1853D01*
X270Y1853D01*
X270Y1855D01*
X272Y1855D01*
X272Y1857D01*
X274Y1857D01*
X274Y1859D01*
X276Y1859D01*
X276Y1861D01*
X278Y1861D01*
X278Y1863D01*
X280Y1863D01*
X280Y1865D01*
X282Y1865D01*
X282Y1867D01*
X284Y1867D01*
X284Y1869D01*
X286Y1869D01*
X286Y1871D01*
X288Y1871D01*
X288Y1873D01*
X290Y1873D01*
X290Y1875D01*
X292Y1875D01*
X292Y1877D01*
X294Y1877D01*
X294Y1879D01*
X296Y1879D01*
X296Y1881D01*
X298Y1881D01*
X298Y1883D01*
X300Y1883D01*
X300Y1885D01*
X302Y1885D01*
X302Y1887D01*
X304Y1887D01*
X304Y1889D01*
X306Y1889D01*
X306Y1891D01*
X308Y1891D01*
X308Y1893D01*
X310Y1893D01*
X310Y1895D01*
X312Y1895D01*
X312Y1897D01*
X314Y1897D01*
X314Y1899D01*
X316Y1899D01*
X316Y1901D01*
X318Y1901D01*
X318Y1903D01*
X320Y1903D01*
X320Y1905D01*
X322Y1905D01*
X322Y1907D01*
X324Y1907D01*
X324Y1909D01*
X326Y1909D01*
X326Y1911D01*
X328Y1911D01*
X328Y1913D01*
X330Y1913D01*
X330Y1915D01*
X332Y1915D01*
X332Y1917D01*
X336Y1917D01*
X336Y1919D01*
X400Y1919D01*
X400Y1921D01*
X402Y1921D01*
X402Y1925D01*
X404Y1925D01*
X404Y1927D01*
X406Y1927D01*
X406Y1929D01*
X408Y1929D01*
X408Y1933D01*
X412Y1933D01*
X412Y1935D01*
X414Y1935D01*
X414Y1937D01*
X416Y1937D01*
X416Y1959D01*
X414Y1959D01*
X414Y1961D01*
X412Y1961D01*
X412Y1963D01*
X410Y1963D01*
X410Y1965D01*
X408Y1965D01*
X408Y1967D01*
X406Y1967D01*
X406Y1969D01*
X404Y1969D01*
X404Y1973D01*
X402Y1973D01*
X402Y1977D01*
X400Y1977D01*
X400Y1981D01*
X398Y1981D01*
X398Y1987D01*
X396Y1987D01*
X396Y2009D01*
X398Y2009D01*
X398Y2017D01*
X400Y2017D01*
X400Y2021D01*
X402Y2021D01*
X402Y2025D01*
X404Y2025D01*
X404Y2027D01*
X406Y2027D01*
X406Y2029D01*
X408Y2029D01*
X408Y2033D01*
X412Y2033D01*
X412Y2035D01*
X414Y2035D01*
X414Y2037D01*
X416Y2037D01*
X416Y2039D01*
X420Y2039D01*
X420Y2041D01*
X422Y2041D01*
X422Y2043D01*
X428Y2043D01*
X428Y2045D01*
X434Y2045D01*
X434Y2047D01*
X194Y2047D01*
G37*
D02*
G36*
X456Y2047D02*
X456Y2045D01*
X1256Y2045D01*
X1256Y2043D01*
X1264Y2043D01*
X1264Y2041D01*
X1266Y2041D01*
X1266Y2039D01*
X1270Y2039D01*
X1270Y2037D01*
X1272Y2037D01*
X1272Y2035D01*
X1276Y2035D01*
X1276Y2033D01*
X1278Y2033D01*
X1278Y2031D01*
X1280Y2031D01*
X1280Y2029D01*
X1282Y2029D01*
X1282Y2025D01*
X1284Y2025D01*
X1284Y2023D01*
X1286Y2023D01*
X1286Y2019D01*
X1288Y2019D01*
X1288Y2015D01*
X1290Y2015D01*
X1290Y2007D01*
X1292Y2007D01*
X1292Y1989D01*
X1290Y1989D01*
X1290Y1983D01*
X1288Y1983D01*
X1288Y1977D01*
X1286Y1977D01*
X1286Y1975D01*
X1284Y1975D01*
X1284Y1971D01*
X1282Y1971D01*
X1282Y1969D01*
X1280Y1969D01*
X1280Y1965D01*
X1278Y1965D01*
X1278Y1963D01*
X1274Y1963D01*
X1274Y1961D01*
X1272Y1961D01*
X1272Y1959D01*
X1270Y1959D01*
X1270Y1957D01*
X1266Y1957D01*
X1266Y1955D01*
X1262Y1955D01*
X1262Y1953D01*
X1254Y1953D01*
X1254Y1951D01*
X1516Y1951D01*
X1516Y1959D01*
X1514Y1959D01*
X1514Y1961D01*
X1512Y1961D01*
X1512Y1963D01*
X1510Y1963D01*
X1510Y1965D01*
X1508Y1965D01*
X1508Y1967D01*
X1506Y1967D01*
X1506Y1969D01*
X1504Y1969D01*
X1504Y1973D01*
X1502Y1973D01*
X1502Y1977D01*
X1500Y1977D01*
X1500Y1981D01*
X1498Y1981D01*
X1498Y1987D01*
X1496Y1987D01*
X1496Y2009D01*
X1498Y2009D01*
X1498Y2017D01*
X1500Y2017D01*
X1500Y2021D01*
X1502Y2021D01*
X1502Y2025D01*
X1504Y2025D01*
X1504Y2027D01*
X1506Y2027D01*
X1506Y2029D01*
X1508Y2029D01*
X1508Y2033D01*
X1512Y2033D01*
X1512Y2035D01*
X1514Y2035D01*
X1514Y2037D01*
X1516Y2037D01*
X1516Y2039D01*
X1520Y2039D01*
X1520Y2041D01*
X1522Y2041D01*
X1522Y2043D01*
X1528Y2043D01*
X1528Y2045D01*
X1534Y2045D01*
X1534Y2047D01*
X456Y2047D01*
G37*
D02*
G36*
X462Y2045D02*
X462Y2043D01*
X466Y2043D01*
X466Y2041D01*
X470Y2041D01*
X470Y2039D01*
X472Y2039D01*
X472Y2037D01*
X476Y2037D01*
X476Y2035D01*
X478Y2035D01*
X478Y2033D01*
X480Y2033D01*
X480Y2031D01*
X482Y2031D01*
X482Y2029D01*
X484Y2029D01*
X484Y2025D01*
X486Y2025D01*
X486Y2023D01*
X488Y2023D01*
X488Y2019D01*
X490Y2019D01*
X490Y2013D01*
X492Y2013D01*
X492Y2005D01*
X494Y2005D01*
X494Y1993D01*
X492Y1993D01*
X492Y1983D01*
X490Y1983D01*
X490Y1979D01*
X488Y1979D01*
X488Y1975D01*
X486Y1975D01*
X486Y1971D01*
X484Y1971D01*
X484Y1969D01*
X482Y1969D01*
X482Y1967D01*
X480Y1967D01*
X480Y1963D01*
X478Y1963D01*
X478Y1961D01*
X474Y1961D01*
X474Y1959D01*
X472Y1959D01*
X472Y1951D01*
X734Y1951D01*
X734Y1953D01*
X728Y1953D01*
X728Y1955D01*
X724Y1955D01*
X724Y1957D01*
X720Y1957D01*
X720Y1959D01*
X716Y1959D01*
X716Y1961D01*
X714Y1961D01*
X714Y1963D01*
X712Y1963D01*
X712Y1965D01*
X710Y1965D01*
X710Y1967D01*
X708Y1967D01*
X708Y1969D01*
X706Y1969D01*
X706Y1973D01*
X704Y1973D01*
X704Y1975D01*
X702Y1975D01*
X702Y1979D01*
X700Y1979D01*
X700Y1985D01*
X698Y1985D01*
X698Y1997D01*
X696Y1997D01*
X696Y1999D01*
X698Y1999D01*
X698Y2011D01*
X700Y2011D01*
X700Y2017D01*
X702Y2017D01*
X702Y2021D01*
X704Y2021D01*
X704Y2025D01*
X706Y2025D01*
X706Y2027D01*
X708Y2027D01*
X708Y2029D01*
X710Y2029D01*
X710Y2031D01*
X712Y2031D01*
X712Y2033D01*
X714Y2033D01*
X714Y2035D01*
X716Y2035D01*
X716Y2037D01*
X718Y2037D01*
X718Y2039D01*
X722Y2039D01*
X722Y2041D01*
X726Y2041D01*
X726Y2043D01*
X732Y2043D01*
X732Y2045D01*
X462Y2045D01*
G37*
D02*
G36*
X756Y2045D02*
X756Y2043D01*
X764Y2043D01*
X764Y2041D01*
X766Y2041D01*
X766Y2039D01*
X770Y2039D01*
X770Y2037D01*
X772Y2037D01*
X772Y2035D01*
X776Y2035D01*
X776Y2033D01*
X778Y2033D01*
X778Y2031D01*
X780Y2031D01*
X780Y2029D01*
X782Y2029D01*
X782Y2025D01*
X784Y2025D01*
X784Y2023D01*
X786Y2023D01*
X786Y2019D01*
X788Y2019D01*
X788Y2015D01*
X790Y2015D01*
X790Y2007D01*
X792Y2007D01*
X792Y1989D01*
X790Y1989D01*
X790Y1983D01*
X788Y1983D01*
X788Y1977D01*
X786Y1977D01*
X786Y1975D01*
X784Y1975D01*
X784Y1971D01*
X782Y1971D01*
X782Y1969D01*
X780Y1969D01*
X780Y1965D01*
X778Y1965D01*
X778Y1963D01*
X774Y1963D01*
X774Y1961D01*
X772Y1961D01*
X772Y1959D01*
X770Y1959D01*
X770Y1957D01*
X766Y1957D01*
X766Y1955D01*
X762Y1955D01*
X762Y1953D01*
X754Y1953D01*
X754Y1951D01*
X1034Y1951D01*
X1034Y1953D01*
X1028Y1953D01*
X1028Y1955D01*
X1024Y1955D01*
X1024Y1957D01*
X1020Y1957D01*
X1020Y1959D01*
X1016Y1959D01*
X1016Y1961D01*
X1014Y1961D01*
X1014Y1963D01*
X1012Y1963D01*
X1012Y1965D01*
X1010Y1965D01*
X1010Y1967D01*
X1008Y1967D01*
X1008Y1969D01*
X1006Y1969D01*
X1006Y1973D01*
X1004Y1973D01*
X1004Y1975D01*
X1002Y1975D01*
X1002Y1979D01*
X1000Y1979D01*
X1000Y1985D01*
X998Y1985D01*
X998Y1997D01*
X996Y1997D01*
X996Y1999D01*
X998Y1999D01*
X998Y2011D01*
X1000Y2011D01*
X1000Y2017D01*
X1002Y2017D01*
X1002Y2021D01*
X1004Y2021D01*
X1004Y2025D01*
X1006Y2025D01*
X1006Y2027D01*
X1008Y2027D01*
X1008Y2029D01*
X1010Y2029D01*
X1010Y2031D01*
X1012Y2031D01*
X1012Y2033D01*
X1014Y2033D01*
X1014Y2035D01*
X1016Y2035D01*
X1016Y2037D01*
X1018Y2037D01*
X1018Y2039D01*
X1022Y2039D01*
X1022Y2041D01*
X1026Y2041D01*
X1026Y2043D01*
X1032Y2043D01*
X1032Y2045D01*
X756Y2045D01*
G37*
D02*
G36*
X1056Y2045D02*
X1056Y2043D01*
X1064Y2043D01*
X1064Y2041D01*
X1066Y2041D01*
X1066Y2039D01*
X1070Y2039D01*
X1070Y2037D01*
X1072Y2037D01*
X1072Y2035D01*
X1076Y2035D01*
X1076Y2033D01*
X1078Y2033D01*
X1078Y2031D01*
X1080Y2031D01*
X1080Y2029D01*
X1082Y2029D01*
X1082Y2025D01*
X1084Y2025D01*
X1084Y2023D01*
X1086Y2023D01*
X1086Y2019D01*
X1088Y2019D01*
X1088Y2015D01*
X1090Y2015D01*
X1090Y2007D01*
X1092Y2007D01*
X1092Y1989D01*
X1090Y1989D01*
X1090Y1983D01*
X1088Y1983D01*
X1088Y1977D01*
X1086Y1977D01*
X1086Y1975D01*
X1084Y1975D01*
X1084Y1971D01*
X1082Y1971D01*
X1082Y1969D01*
X1080Y1969D01*
X1080Y1965D01*
X1078Y1965D01*
X1078Y1963D01*
X1074Y1963D01*
X1074Y1961D01*
X1072Y1961D01*
X1072Y1959D01*
X1070Y1959D01*
X1070Y1957D01*
X1066Y1957D01*
X1066Y1955D01*
X1062Y1955D01*
X1062Y1953D01*
X1054Y1953D01*
X1054Y1951D01*
X1234Y1951D01*
X1234Y1953D01*
X1228Y1953D01*
X1228Y1955D01*
X1224Y1955D01*
X1224Y1957D01*
X1220Y1957D01*
X1220Y1959D01*
X1216Y1959D01*
X1216Y1961D01*
X1214Y1961D01*
X1214Y1963D01*
X1212Y1963D01*
X1212Y1965D01*
X1210Y1965D01*
X1210Y1967D01*
X1208Y1967D01*
X1208Y1969D01*
X1206Y1969D01*
X1206Y1973D01*
X1204Y1973D01*
X1204Y1975D01*
X1202Y1975D01*
X1202Y1979D01*
X1200Y1979D01*
X1200Y1985D01*
X1198Y1985D01*
X1198Y1997D01*
X1196Y1997D01*
X1196Y1999D01*
X1198Y1999D01*
X1198Y2011D01*
X1200Y2011D01*
X1200Y2017D01*
X1202Y2017D01*
X1202Y2021D01*
X1204Y2021D01*
X1204Y2025D01*
X1206Y2025D01*
X1206Y2027D01*
X1208Y2027D01*
X1208Y2029D01*
X1210Y2029D01*
X1210Y2031D01*
X1212Y2031D01*
X1212Y2033D01*
X1214Y2033D01*
X1214Y2035D01*
X1216Y2035D01*
X1216Y2037D01*
X1218Y2037D01*
X1218Y2039D01*
X1222Y2039D01*
X1222Y2041D01*
X1226Y2041D01*
X1226Y2043D01*
X1232Y2043D01*
X1232Y2045D01*
X1056Y2045D01*
G37*
D02*
G36*
X472Y1951D02*
X472Y1949D01*
X1516Y1949D01*
X1516Y1951D01*
X472Y1951D01*
G37*
D02*
G36*
X472Y1951D02*
X472Y1949D01*
X1516Y1949D01*
X1516Y1951D01*
X472Y1951D01*
G37*
D02*
G36*
X472Y1951D02*
X472Y1949D01*
X1516Y1949D01*
X1516Y1951D01*
X472Y1951D01*
G37*
D02*
G36*
X472Y1951D02*
X472Y1949D01*
X1516Y1949D01*
X1516Y1951D01*
X472Y1951D01*
G37*
D02*
G36*
X472Y1949D02*
X472Y1937D01*
X476Y1937D01*
X476Y1935D01*
X478Y1935D01*
X478Y1933D01*
X480Y1933D01*
X480Y1931D01*
X482Y1931D01*
X482Y1929D01*
X484Y1929D01*
X484Y1925D01*
X486Y1925D01*
X486Y1923D01*
X488Y1923D01*
X488Y1919D01*
X490Y1919D01*
X490Y1913D01*
X492Y1913D01*
X492Y1905D01*
X494Y1905D01*
X494Y1893D01*
X492Y1893D01*
X492Y1883D01*
X490Y1883D01*
X490Y1879D01*
X488Y1879D01*
X488Y1875D01*
X486Y1875D01*
X486Y1871D01*
X484Y1871D01*
X484Y1869D01*
X482Y1869D01*
X482Y1867D01*
X480Y1867D01*
X480Y1863D01*
X478Y1863D01*
X478Y1861D01*
X474Y1861D01*
X474Y1859D01*
X472Y1859D01*
X472Y1857D01*
X468Y1857D01*
X468Y1855D01*
X464Y1855D01*
X464Y1853D01*
X460Y1853D01*
X460Y1851D01*
X452Y1851D01*
X452Y1849D01*
X1538Y1849D01*
X1538Y1851D01*
X1530Y1851D01*
X1530Y1853D01*
X1524Y1853D01*
X1524Y1855D01*
X1520Y1855D01*
X1520Y1857D01*
X1516Y1857D01*
X1516Y1859D01*
X1514Y1859D01*
X1514Y1861D01*
X1512Y1861D01*
X1512Y1863D01*
X1510Y1863D01*
X1510Y1865D01*
X1508Y1865D01*
X1508Y1867D01*
X1506Y1867D01*
X1506Y1869D01*
X1504Y1869D01*
X1504Y1873D01*
X1502Y1873D01*
X1502Y1877D01*
X1500Y1877D01*
X1500Y1881D01*
X1498Y1881D01*
X1498Y1887D01*
X1496Y1887D01*
X1496Y1909D01*
X1498Y1909D01*
X1498Y1917D01*
X1500Y1917D01*
X1500Y1921D01*
X1502Y1921D01*
X1502Y1925D01*
X1504Y1925D01*
X1504Y1927D01*
X1506Y1927D01*
X1506Y1929D01*
X1508Y1929D01*
X1508Y1933D01*
X1512Y1933D01*
X1512Y1935D01*
X1514Y1935D01*
X1514Y1937D01*
X1516Y1937D01*
X1516Y1949D01*
X472Y1949D01*
G37*
D02*
G36*
X352Y1875D02*
X352Y1873D01*
X350Y1873D01*
X350Y1871D01*
X348Y1871D01*
X348Y1869D01*
X346Y1869D01*
X346Y1867D01*
X344Y1867D01*
X344Y1865D01*
X342Y1865D01*
X342Y1863D01*
X340Y1863D01*
X340Y1861D01*
X338Y1861D01*
X338Y1859D01*
X336Y1859D01*
X336Y1857D01*
X334Y1857D01*
X334Y1855D01*
X332Y1855D01*
X332Y1853D01*
X330Y1853D01*
X330Y1851D01*
X328Y1851D01*
X328Y1849D01*
X438Y1849D01*
X438Y1851D01*
X430Y1851D01*
X430Y1853D01*
X424Y1853D01*
X424Y1855D01*
X420Y1855D01*
X420Y1857D01*
X416Y1857D01*
X416Y1859D01*
X414Y1859D01*
X414Y1861D01*
X412Y1861D01*
X412Y1863D01*
X410Y1863D01*
X410Y1865D01*
X408Y1865D01*
X408Y1867D01*
X406Y1867D01*
X406Y1869D01*
X404Y1869D01*
X404Y1873D01*
X402Y1873D01*
X402Y1875D01*
X352Y1875D01*
G37*
D02*
G36*
X326Y1849D02*
X326Y1847D01*
X1564Y1847D01*
X1564Y1849D01*
X326Y1849D01*
G37*
D02*
G36*
X326Y1849D02*
X326Y1847D01*
X1564Y1847D01*
X1564Y1849D01*
X326Y1849D01*
G37*
D02*
G36*
X324Y1847D02*
X324Y1845D01*
X322Y1845D01*
X322Y1843D01*
X320Y1843D01*
X320Y1841D01*
X318Y1841D01*
X318Y1839D01*
X316Y1839D01*
X316Y1837D01*
X314Y1837D01*
X314Y1835D01*
X312Y1835D01*
X312Y1833D01*
X310Y1833D01*
X310Y1831D01*
X308Y1831D01*
X308Y1829D01*
X306Y1829D01*
X306Y1827D01*
X304Y1827D01*
X304Y1825D01*
X302Y1825D01*
X302Y1823D01*
X300Y1823D01*
X300Y1821D01*
X298Y1821D01*
X298Y1819D01*
X296Y1819D01*
X296Y1817D01*
X294Y1817D01*
X294Y1815D01*
X292Y1815D01*
X292Y1813D01*
X290Y1813D01*
X290Y1811D01*
X288Y1811D01*
X288Y1809D01*
X286Y1809D01*
X286Y1807D01*
X284Y1807D01*
X284Y1805D01*
X282Y1805D01*
X282Y1803D01*
X280Y1803D01*
X280Y1801D01*
X278Y1801D01*
X278Y1799D01*
X276Y1799D01*
X276Y1797D01*
X274Y1797D01*
X274Y1795D01*
X272Y1795D01*
X272Y1793D01*
X270Y1793D01*
X270Y1791D01*
X268Y1791D01*
X268Y1789D01*
X266Y1789D01*
X266Y1787D01*
X264Y1787D01*
X264Y1785D01*
X262Y1785D01*
X262Y1783D01*
X260Y1783D01*
X260Y1781D01*
X258Y1781D01*
X258Y1779D01*
X256Y1779D01*
X256Y1777D01*
X254Y1777D01*
X254Y1775D01*
X252Y1775D01*
X252Y1773D01*
X250Y1773D01*
X250Y1771D01*
X248Y1771D01*
X248Y1769D01*
X246Y1769D01*
X246Y1767D01*
X244Y1767D01*
X244Y1765D01*
X242Y1765D01*
X242Y1763D01*
X240Y1763D01*
X240Y1761D01*
X238Y1761D01*
X238Y1759D01*
X236Y1759D01*
X236Y1757D01*
X234Y1757D01*
X234Y1755D01*
X232Y1755D01*
X232Y1753D01*
X230Y1753D01*
X230Y1751D01*
X228Y1751D01*
X228Y1749D01*
X226Y1749D01*
X226Y1747D01*
X224Y1747D01*
X224Y1745D01*
X222Y1745D01*
X222Y1743D01*
X220Y1743D01*
X220Y1741D01*
X218Y1741D01*
X218Y1739D01*
X216Y1739D01*
X216Y1737D01*
X214Y1737D01*
X214Y1735D01*
X212Y1735D01*
X212Y1733D01*
X210Y1733D01*
X210Y1731D01*
X208Y1731D01*
X208Y1729D01*
X206Y1729D01*
X206Y1727D01*
X204Y1727D01*
X204Y1725D01*
X202Y1725D01*
X202Y1723D01*
X200Y1723D01*
X200Y1721D01*
X1350Y1721D01*
X1350Y1719D01*
X1356Y1719D01*
X1356Y1717D01*
X1358Y1717D01*
X1358Y1715D01*
X1360Y1715D01*
X1360Y1713D01*
X1362Y1713D01*
X1362Y1711D01*
X1364Y1711D01*
X1364Y1709D01*
X1366Y1709D01*
X1366Y1707D01*
X1368Y1707D01*
X1368Y1705D01*
X1370Y1705D01*
X1370Y1703D01*
X1372Y1703D01*
X1372Y1701D01*
X1374Y1701D01*
X1374Y1699D01*
X1376Y1699D01*
X1376Y1697D01*
X1378Y1697D01*
X1378Y1695D01*
X1380Y1695D01*
X1380Y1693D01*
X1382Y1693D01*
X1382Y1691D01*
X1384Y1691D01*
X1384Y1689D01*
X1386Y1689D01*
X1386Y1687D01*
X1388Y1687D01*
X1388Y1685D01*
X1390Y1685D01*
X1390Y1683D01*
X1392Y1683D01*
X1392Y1681D01*
X1394Y1681D01*
X1394Y1679D01*
X1396Y1679D01*
X1396Y1677D01*
X1398Y1677D01*
X1398Y1675D01*
X1400Y1675D01*
X1400Y1673D01*
X1402Y1673D01*
X1402Y1671D01*
X1404Y1671D01*
X1404Y1669D01*
X1406Y1669D01*
X1406Y1667D01*
X1408Y1667D01*
X1408Y1665D01*
X1410Y1665D01*
X1410Y1663D01*
X1412Y1663D01*
X1412Y1661D01*
X1414Y1661D01*
X1414Y1659D01*
X1416Y1659D01*
X1416Y1657D01*
X1458Y1657D01*
X1458Y1655D01*
X1466Y1655D01*
X1466Y1653D01*
X1470Y1653D01*
X1470Y1651D01*
X1474Y1651D01*
X1474Y1649D01*
X1476Y1649D01*
X1476Y1647D01*
X1480Y1647D01*
X1480Y1645D01*
X1482Y1645D01*
X1482Y1643D01*
X1484Y1643D01*
X1484Y1641D01*
X1486Y1641D01*
X1486Y1639D01*
X1488Y1639D01*
X1488Y1637D01*
X1490Y1637D01*
X1490Y1635D01*
X1492Y1635D01*
X1492Y1633D01*
X1494Y1633D01*
X1494Y1629D01*
X1496Y1629D01*
X1496Y1627D01*
X1498Y1627D01*
X1498Y1623D01*
X1500Y1623D01*
X1500Y1617D01*
X1502Y1617D01*
X1502Y1607D01*
X1504Y1607D01*
X1504Y1589D01*
X1502Y1589D01*
X1502Y1581D01*
X1500Y1581D01*
X1500Y1575D01*
X1498Y1575D01*
X1498Y1571D01*
X1496Y1571D01*
X1496Y1567D01*
X1494Y1567D01*
X1494Y1565D01*
X1492Y1565D01*
X1492Y1561D01*
X1490Y1561D01*
X1490Y1559D01*
X1488Y1559D01*
X1488Y1557D01*
X1486Y1557D01*
X1486Y1555D01*
X1484Y1555D01*
X1484Y1553D01*
X1482Y1553D01*
X1482Y1551D01*
X1478Y1551D01*
X1478Y1549D01*
X1476Y1549D01*
X1476Y1547D01*
X1472Y1547D01*
X1472Y1545D01*
X1468Y1545D01*
X1468Y1543D01*
X1464Y1543D01*
X1464Y1541D01*
X1456Y1541D01*
X1456Y1539D01*
X1554Y1539D01*
X1554Y1541D01*
X1556Y1541D01*
X1556Y1543D01*
X1558Y1543D01*
X1558Y1545D01*
X1560Y1545D01*
X1560Y1547D01*
X1562Y1547D01*
X1562Y1549D01*
X1564Y1549D01*
X1564Y1551D01*
X1566Y1551D01*
X1566Y1553D01*
X1568Y1553D01*
X1568Y1555D01*
X1570Y1555D01*
X1570Y1557D01*
X1572Y1557D01*
X1572Y1559D01*
X1574Y1559D01*
X1574Y1561D01*
X1576Y1561D01*
X1576Y1563D01*
X1578Y1563D01*
X1578Y1565D01*
X1580Y1565D01*
X1580Y1567D01*
X1582Y1567D01*
X1582Y1569D01*
X1584Y1569D01*
X1584Y1657D01*
X1722Y1657D01*
X1722Y1691D01*
X1720Y1691D01*
X1720Y1693D01*
X1718Y1693D01*
X1718Y1695D01*
X1716Y1695D01*
X1716Y1697D01*
X1714Y1697D01*
X1714Y1699D01*
X1712Y1699D01*
X1712Y1701D01*
X1710Y1701D01*
X1710Y1703D01*
X1708Y1703D01*
X1708Y1705D01*
X1706Y1705D01*
X1706Y1707D01*
X1704Y1707D01*
X1704Y1709D01*
X1702Y1709D01*
X1702Y1711D01*
X1700Y1711D01*
X1700Y1713D01*
X1698Y1713D01*
X1698Y1715D01*
X1696Y1715D01*
X1696Y1717D01*
X1694Y1717D01*
X1694Y1719D01*
X1692Y1719D01*
X1692Y1721D01*
X1690Y1721D01*
X1690Y1723D01*
X1688Y1723D01*
X1688Y1725D01*
X1686Y1725D01*
X1686Y1727D01*
X1684Y1727D01*
X1684Y1729D01*
X1682Y1729D01*
X1682Y1731D01*
X1680Y1731D01*
X1680Y1733D01*
X1678Y1733D01*
X1678Y1735D01*
X1676Y1735D01*
X1676Y1737D01*
X1674Y1737D01*
X1674Y1739D01*
X1672Y1739D01*
X1672Y1741D01*
X1670Y1741D01*
X1670Y1743D01*
X1668Y1743D01*
X1668Y1745D01*
X1666Y1745D01*
X1666Y1747D01*
X1664Y1747D01*
X1664Y1749D01*
X1662Y1749D01*
X1662Y1751D01*
X1660Y1751D01*
X1660Y1753D01*
X1658Y1753D01*
X1658Y1755D01*
X1656Y1755D01*
X1656Y1757D01*
X1654Y1757D01*
X1654Y1759D01*
X1652Y1759D01*
X1652Y1761D01*
X1650Y1761D01*
X1650Y1763D01*
X1648Y1763D01*
X1648Y1765D01*
X1646Y1765D01*
X1646Y1767D01*
X1644Y1767D01*
X1644Y1769D01*
X1642Y1769D01*
X1642Y1771D01*
X1640Y1771D01*
X1640Y1773D01*
X1638Y1773D01*
X1638Y1775D01*
X1636Y1775D01*
X1636Y1777D01*
X1634Y1777D01*
X1634Y1779D01*
X1632Y1779D01*
X1632Y1781D01*
X1630Y1781D01*
X1630Y1783D01*
X1628Y1783D01*
X1628Y1785D01*
X1626Y1785D01*
X1626Y1787D01*
X1624Y1787D01*
X1624Y1789D01*
X1622Y1789D01*
X1622Y1791D01*
X1620Y1791D01*
X1620Y1793D01*
X1618Y1793D01*
X1618Y1795D01*
X1616Y1795D01*
X1616Y1797D01*
X1614Y1797D01*
X1614Y1799D01*
X1612Y1799D01*
X1612Y1801D01*
X1610Y1801D01*
X1610Y1803D01*
X1608Y1803D01*
X1608Y1805D01*
X1606Y1805D01*
X1606Y1807D01*
X1604Y1807D01*
X1604Y1809D01*
X1602Y1809D01*
X1602Y1811D01*
X1600Y1811D01*
X1600Y1813D01*
X1598Y1813D01*
X1598Y1815D01*
X1596Y1815D01*
X1596Y1817D01*
X1594Y1817D01*
X1594Y1819D01*
X1592Y1819D01*
X1592Y1821D01*
X1590Y1821D01*
X1590Y1823D01*
X1588Y1823D01*
X1588Y1825D01*
X1586Y1825D01*
X1586Y1827D01*
X1584Y1827D01*
X1584Y1829D01*
X1582Y1829D01*
X1582Y1831D01*
X1580Y1831D01*
X1580Y1833D01*
X1578Y1833D01*
X1578Y1835D01*
X1576Y1835D01*
X1576Y1837D01*
X1574Y1837D01*
X1574Y1839D01*
X1572Y1839D01*
X1572Y1841D01*
X1570Y1841D01*
X1570Y1843D01*
X1568Y1843D01*
X1568Y1845D01*
X1566Y1845D01*
X1566Y1847D01*
X324Y1847D01*
G37*
D02*
G36*
X198Y1721D02*
X198Y1719D01*
X196Y1719D01*
X196Y1717D01*
X194Y1717D01*
X194Y1715D01*
X192Y1715D01*
X192Y1713D01*
X190Y1713D01*
X190Y1711D01*
X188Y1711D01*
X188Y1709D01*
X186Y1709D01*
X186Y1707D01*
X184Y1707D01*
X184Y1705D01*
X182Y1705D01*
X182Y1703D01*
X180Y1703D01*
X180Y1701D01*
X178Y1701D01*
X178Y1699D01*
X176Y1699D01*
X176Y1697D01*
X174Y1697D01*
X174Y1695D01*
X172Y1695D01*
X172Y1693D01*
X170Y1693D01*
X170Y1691D01*
X168Y1691D01*
X168Y1689D01*
X166Y1689D01*
X166Y1687D01*
X164Y1687D01*
X164Y1685D01*
X162Y1685D01*
X162Y1683D01*
X160Y1683D01*
X160Y1681D01*
X158Y1681D01*
X158Y1679D01*
X156Y1679D01*
X156Y1677D01*
X154Y1677D01*
X154Y1675D01*
X152Y1675D01*
X152Y1673D01*
X150Y1673D01*
X150Y1671D01*
X148Y1671D01*
X148Y1669D01*
X146Y1669D01*
X146Y1667D01*
X144Y1667D01*
X144Y1665D01*
X142Y1665D01*
X142Y1663D01*
X140Y1663D01*
X140Y1661D01*
X138Y1661D01*
X138Y1659D01*
X136Y1659D01*
X136Y1657D01*
X504Y1657D01*
X504Y1539D01*
X554Y1539D01*
X554Y1541D01*
X556Y1541D01*
X556Y1543D01*
X558Y1543D01*
X558Y1545D01*
X560Y1545D01*
X560Y1547D01*
X562Y1547D01*
X562Y1549D01*
X564Y1549D01*
X564Y1551D01*
X566Y1551D01*
X566Y1553D01*
X568Y1553D01*
X568Y1555D01*
X570Y1555D01*
X570Y1557D01*
X572Y1557D01*
X572Y1559D01*
X574Y1559D01*
X574Y1561D01*
X576Y1561D01*
X576Y1563D01*
X578Y1563D01*
X578Y1565D01*
X580Y1565D01*
X580Y1567D01*
X582Y1567D01*
X582Y1569D01*
X584Y1569D01*
X584Y1571D01*
X586Y1571D01*
X586Y1573D01*
X588Y1573D01*
X588Y1575D01*
X590Y1575D01*
X590Y1577D01*
X592Y1577D01*
X592Y1579D01*
X594Y1579D01*
X594Y1581D01*
X596Y1581D01*
X596Y1583D01*
X598Y1583D01*
X598Y1585D01*
X600Y1585D01*
X600Y1587D01*
X602Y1587D01*
X602Y1589D01*
X604Y1589D01*
X604Y1591D01*
X606Y1591D01*
X606Y1593D01*
X608Y1593D01*
X608Y1595D01*
X610Y1595D01*
X610Y1597D01*
X612Y1597D01*
X612Y1599D01*
X614Y1599D01*
X614Y1601D01*
X616Y1601D01*
X616Y1603D01*
X618Y1603D01*
X618Y1605D01*
X620Y1605D01*
X620Y1607D01*
X622Y1607D01*
X622Y1609D01*
X624Y1609D01*
X624Y1611D01*
X626Y1611D01*
X626Y1613D01*
X628Y1613D01*
X628Y1615D01*
X630Y1615D01*
X630Y1617D01*
X632Y1617D01*
X632Y1619D01*
X634Y1619D01*
X634Y1621D01*
X636Y1621D01*
X636Y1623D01*
X638Y1623D01*
X638Y1625D01*
X640Y1625D01*
X640Y1627D01*
X642Y1627D01*
X642Y1629D01*
X644Y1629D01*
X644Y1631D01*
X646Y1631D01*
X646Y1633D01*
X648Y1633D01*
X648Y1635D01*
X650Y1635D01*
X650Y1637D01*
X652Y1637D01*
X652Y1639D01*
X654Y1639D01*
X654Y1641D01*
X656Y1641D01*
X656Y1643D01*
X658Y1643D01*
X658Y1645D01*
X660Y1645D01*
X660Y1647D01*
X662Y1647D01*
X662Y1649D01*
X664Y1649D01*
X664Y1651D01*
X666Y1651D01*
X666Y1653D01*
X668Y1653D01*
X668Y1655D01*
X670Y1655D01*
X670Y1657D01*
X672Y1657D01*
X672Y1659D01*
X674Y1659D01*
X674Y1661D01*
X676Y1661D01*
X676Y1663D01*
X678Y1663D01*
X678Y1665D01*
X680Y1665D01*
X680Y1667D01*
X682Y1667D01*
X682Y1669D01*
X684Y1669D01*
X684Y1671D01*
X686Y1671D01*
X686Y1673D01*
X688Y1673D01*
X688Y1675D01*
X690Y1675D01*
X690Y1677D01*
X692Y1677D01*
X692Y1679D01*
X694Y1679D01*
X694Y1681D01*
X696Y1681D01*
X696Y1683D01*
X698Y1683D01*
X698Y1685D01*
X700Y1685D01*
X700Y1687D01*
X702Y1687D01*
X702Y1689D01*
X704Y1689D01*
X704Y1691D01*
X706Y1691D01*
X706Y1693D01*
X708Y1693D01*
X708Y1695D01*
X710Y1695D01*
X710Y1697D01*
X712Y1697D01*
X712Y1699D01*
X714Y1699D01*
X714Y1701D01*
X716Y1701D01*
X716Y1703D01*
X718Y1703D01*
X718Y1705D01*
X720Y1705D01*
X720Y1707D01*
X722Y1707D01*
X722Y1709D01*
X724Y1709D01*
X724Y1711D01*
X726Y1711D01*
X726Y1713D01*
X728Y1713D01*
X728Y1715D01*
X730Y1715D01*
X730Y1717D01*
X734Y1717D01*
X734Y1719D01*
X738Y1719D01*
X738Y1721D01*
X198Y1721D01*
G37*
D02*
G36*
X752Y1677D02*
X752Y1675D01*
X750Y1675D01*
X750Y1673D01*
X748Y1673D01*
X748Y1671D01*
X746Y1671D01*
X746Y1669D01*
X744Y1669D01*
X744Y1667D01*
X742Y1667D01*
X742Y1665D01*
X740Y1665D01*
X740Y1645D01*
X1256Y1645D01*
X1256Y1643D01*
X1264Y1643D01*
X1264Y1641D01*
X1266Y1641D01*
X1266Y1639D01*
X1270Y1639D01*
X1270Y1637D01*
X1272Y1637D01*
X1272Y1635D01*
X1276Y1635D01*
X1276Y1633D01*
X1278Y1633D01*
X1278Y1631D01*
X1280Y1631D01*
X1280Y1629D01*
X1282Y1629D01*
X1282Y1625D01*
X1284Y1625D01*
X1284Y1623D01*
X1286Y1623D01*
X1286Y1619D01*
X1288Y1619D01*
X1288Y1615D01*
X1290Y1615D01*
X1290Y1607D01*
X1292Y1607D01*
X1292Y1589D01*
X1290Y1589D01*
X1290Y1583D01*
X1288Y1583D01*
X1288Y1577D01*
X1286Y1577D01*
X1286Y1575D01*
X1284Y1575D01*
X1284Y1571D01*
X1282Y1571D01*
X1282Y1569D01*
X1280Y1569D01*
X1280Y1565D01*
X1278Y1565D01*
X1278Y1563D01*
X1274Y1563D01*
X1274Y1561D01*
X1272Y1561D01*
X1272Y1559D01*
X1270Y1559D01*
X1270Y1557D01*
X1266Y1557D01*
X1266Y1555D01*
X1262Y1555D01*
X1262Y1553D01*
X1254Y1553D01*
X1254Y1551D01*
X1408Y1551D01*
X1408Y1553D01*
X1406Y1553D01*
X1406Y1555D01*
X1402Y1555D01*
X1402Y1557D01*
X1400Y1557D01*
X1400Y1561D01*
X1398Y1561D01*
X1398Y1563D01*
X1396Y1563D01*
X1396Y1565D01*
X1394Y1565D01*
X1394Y1569D01*
X1392Y1569D01*
X1392Y1573D01*
X1390Y1573D01*
X1390Y1577D01*
X1388Y1577D01*
X1388Y1583D01*
X1386Y1583D01*
X1386Y1597D01*
X1384Y1597D01*
X1384Y1599D01*
X1386Y1599D01*
X1386Y1627D01*
X1384Y1627D01*
X1384Y1629D01*
X1382Y1629D01*
X1382Y1631D01*
X1380Y1631D01*
X1380Y1633D01*
X1378Y1633D01*
X1378Y1635D01*
X1376Y1635D01*
X1376Y1637D01*
X1374Y1637D01*
X1374Y1639D01*
X1372Y1639D01*
X1372Y1641D01*
X1370Y1641D01*
X1370Y1643D01*
X1368Y1643D01*
X1368Y1645D01*
X1366Y1645D01*
X1366Y1647D01*
X1364Y1647D01*
X1364Y1649D01*
X1362Y1649D01*
X1362Y1651D01*
X1360Y1651D01*
X1360Y1653D01*
X1358Y1653D01*
X1358Y1655D01*
X1356Y1655D01*
X1356Y1657D01*
X1354Y1657D01*
X1354Y1659D01*
X1352Y1659D01*
X1352Y1661D01*
X1350Y1661D01*
X1350Y1663D01*
X1348Y1663D01*
X1348Y1665D01*
X1346Y1665D01*
X1346Y1667D01*
X1344Y1667D01*
X1344Y1669D01*
X1342Y1669D01*
X1342Y1671D01*
X1340Y1671D01*
X1340Y1673D01*
X1338Y1673D01*
X1338Y1675D01*
X1336Y1675D01*
X1336Y1677D01*
X752Y1677D01*
G37*
D02*
G36*
X134Y1657D02*
X134Y1655D01*
X132Y1655D01*
X132Y1653D01*
X128Y1653D01*
X128Y1651D01*
X126Y1651D01*
X126Y1649D01*
X124Y1649D01*
X124Y1647D01*
X122Y1647D01*
X122Y1645D01*
X120Y1645D01*
X120Y1643D01*
X118Y1643D01*
X118Y1641D01*
X116Y1641D01*
X116Y1639D01*
X114Y1639D01*
X114Y1637D01*
X112Y1637D01*
X112Y1635D01*
X110Y1635D01*
X110Y1633D01*
X108Y1633D01*
X108Y1631D01*
X106Y1631D01*
X106Y1629D01*
X104Y1629D01*
X104Y1627D01*
X102Y1627D01*
X102Y1625D01*
X100Y1625D01*
X100Y1623D01*
X98Y1623D01*
X98Y1621D01*
X96Y1621D01*
X96Y1619D01*
X94Y1619D01*
X94Y1617D01*
X92Y1617D01*
X92Y1615D01*
X90Y1615D01*
X90Y1613D01*
X88Y1613D01*
X88Y1611D01*
X86Y1611D01*
X86Y1609D01*
X84Y1609D01*
X84Y1607D01*
X82Y1607D01*
X82Y1605D01*
X80Y1605D01*
X80Y1603D01*
X78Y1603D01*
X78Y1601D01*
X76Y1601D01*
X76Y1599D01*
X74Y1599D01*
X74Y1597D01*
X72Y1597D01*
X72Y1595D01*
X70Y1595D01*
X70Y1593D01*
X68Y1593D01*
X68Y1591D01*
X66Y1591D01*
X66Y1539D01*
X234Y1539D01*
X234Y1541D01*
X226Y1541D01*
X226Y1543D01*
X220Y1543D01*
X220Y1545D01*
X216Y1545D01*
X216Y1547D01*
X212Y1547D01*
X212Y1549D01*
X210Y1549D01*
X210Y1551D01*
X208Y1551D01*
X208Y1553D01*
X206Y1553D01*
X206Y1555D01*
X202Y1555D01*
X202Y1557D01*
X200Y1557D01*
X200Y1561D01*
X198Y1561D01*
X198Y1563D01*
X196Y1563D01*
X196Y1565D01*
X194Y1565D01*
X194Y1569D01*
X192Y1569D01*
X192Y1573D01*
X190Y1573D01*
X190Y1577D01*
X188Y1577D01*
X188Y1583D01*
X186Y1583D01*
X186Y1597D01*
X184Y1597D01*
X184Y1599D01*
X186Y1599D01*
X186Y1613D01*
X188Y1613D01*
X188Y1619D01*
X190Y1619D01*
X190Y1625D01*
X192Y1625D01*
X192Y1627D01*
X194Y1627D01*
X194Y1631D01*
X196Y1631D01*
X196Y1633D01*
X198Y1633D01*
X198Y1637D01*
X200Y1637D01*
X200Y1639D01*
X202Y1639D01*
X202Y1641D01*
X204Y1641D01*
X204Y1643D01*
X206Y1643D01*
X206Y1645D01*
X210Y1645D01*
X210Y1647D01*
X212Y1647D01*
X212Y1649D01*
X216Y1649D01*
X216Y1651D01*
X218Y1651D01*
X218Y1653D01*
X224Y1653D01*
X224Y1655D01*
X230Y1655D01*
X230Y1657D01*
X134Y1657D01*
G37*
D02*
G36*
X258Y1657D02*
X258Y1655D01*
X266Y1655D01*
X266Y1653D01*
X270Y1653D01*
X270Y1651D01*
X274Y1651D01*
X274Y1649D01*
X276Y1649D01*
X276Y1647D01*
X280Y1647D01*
X280Y1645D01*
X282Y1645D01*
X282Y1643D01*
X284Y1643D01*
X284Y1641D01*
X286Y1641D01*
X286Y1639D01*
X288Y1639D01*
X288Y1637D01*
X290Y1637D01*
X290Y1635D01*
X292Y1635D01*
X292Y1633D01*
X294Y1633D01*
X294Y1629D01*
X296Y1629D01*
X296Y1627D01*
X298Y1627D01*
X298Y1623D01*
X300Y1623D01*
X300Y1617D01*
X302Y1617D01*
X302Y1607D01*
X304Y1607D01*
X304Y1589D01*
X302Y1589D01*
X302Y1581D01*
X300Y1581D01*
X300Y1575D01*
X298Y1575D01*
X298Y1571D01*
X296Y1571D01*
X296Y1567D01*
X294Y1567D01*
X294Y1565D01*
X292Y1565D01*
X292Y1561D01*
X290Y1561D01*
X290Y1559D01*
X288Y1559D01*
X288Y1557D01*
X286Y1557D01*
X286Y1555D01*
X284Y1555D01*
X284Y1553D01*
X282Y1553D01*
X282Y1551D01*
X278Y1551D01*
X278Y1549D01*
X276Y1549D01*
X276Y1547D01*
X272Y1547D01*
X272Y1545D01*
X268Y1545D01*
X268Y1543D01*
X264Y1543D01*
X264Y1541D01*
X256Y1541D01*
X256Y1539D01*
X384Y1539D01*
X384Y1657D01*
X258Y1657D01*
G37*
D02*
G36*
X756Y1645D02*
X756Y1643D01*
X764Y1643D01*
X764Y1641D01*
X766Y1641D01*
X766Y1639D01*
X770Y1639D01*
X770Y1637D01*
X772Y1637D01*
X772Y1635D01*
X776Y1635D01*
X776Y1633D01*
X778Y1633D01*
X778Y1631D01*
X780Y1631D01*
X780Y1629D01*
X782Y1629D01*
X782Y1625D01*
X784Y1625D01*
X784Y1623D01*
X786Y1623D01*
X786Y1621D01*
X848Y1621D01*
X848Y1619D01*
X854Y1619D01*
X854Y1617D01*
X858Y1617D01*
X858Y1615D01*
X860Y1615D01*
X860Y1613D01*
X862Y1613D01*
X862Y1611D01*
X864Y1611D01*
X864Y1609D01*
X866Y1609D01*
X866Y1607D01*
X868Y1607D01*
X868Y1605D01*
X870Y1605D01*
X870Y1603D01*
X872Y1603D01*
X872Y1601D01*
X874Y1601D01*
X874Y1599D01*
X876Y1599D01*
X876Y1597D01*
X878Y1597D01*
X878Y1595D01*
X880Y1595D01*
X880Y1593D01*
X882Y1593D01*
X882Y1591D01*
X884Y1591D01*
X884Y1589D01*
X886Y1589D01*
X886Y1587D01*
X888Y1587D01*
X888Y1585D01*
X890Y1585D01*
X890Y1583D01*
X892Y1583D01*
X892Y1581D01*
X894Y1581D01*
X894Y1579D01*
X896Y1579D01*
X896Y1577D01*
X898Y1577D01*
X898Y1575D01*
X900Y1575D01*
X900Y1573D01*
X902Y1573D01*
X902Y1571D01*
X904Y1571D01*
X904Y1569D01*
X906Y1569D01*
X906Y1567D01*
X908Y1567D01*
X908Y1565D01*
X910Y1565D01*
X910Y1563D01*
X912Y1563D01*
X912Y1561D01*
X914Y1561D01*
X914Y1559D01*
X916Y1559D01*
X916Y1557D01*
X918Y1557D01*
X918Y1555D01*
X920Y1555D01*
X920Y1553D01*
X922Y1553D01*
X922Y1551D01*
X1034Y1551D01*
X1034Y1553D01*
X1028Y1553D01*
X1028Y1555D01*
X1024Y1555D01*
X1024Y1557D01*
X1020Y1557D01*
X1020Y1559D01*
X1016Y1559D01*
X1016Y1561D01*
X1014Y1561D01*
X1014Y1563D01*
X1012Y1563D01*
X1012Y1565D01*
X1010Y1565D01*
X1010Y1567D01*
X1008Y1567D01*
X1008Y1569D01*
X1006Y1569D01*
X1006Y1573D01*
X1004Y1573D01*
X1004Y1575D01*
X1002Y1575D01*
X1002Y1579D01*
X1000Y1579D01*
X1000Y1585D01*
X998Y1585D01*
X998Y1597D01*
X996Y1597D01*
X996Y1599D01*
X998Y1599D01*
X998Y1611D01*
X1000Y1611D01*
X1000Y1617D01*
X1002Y1617D01*
X1002Y1621D01*
X1004Y1621D01*
X1004Y1625D01*
X1006Y1625D01*
X1006Y1627D01*
X1008Y1627D01*
X1008Y1629D01*
X1010Y1629D01*
X1010Y1631D01*
X1012Y1631D01*
X1012Y1633D01*
X1014Y1633D01*
X1014Y1635D01*
X1016Y1635D01*
X1016Y1637D01*
X1018Y1637D01*
X1018Y1639D01*
X1022Y1639D01*
X1022Y1641D01*
X1026Y1641D01*
X1026Y1643D01*
X1032Y1643D01*
X1032Y1645D01*
X756Y1645D01*
G37*
D02*
G36*
X1056Y1645D02*
X1056Y1643D01*
X1064Y1643D01*
X1064Y1641D01*
X1066Y1641D01*
X1066Y1639D01*
X1070Y1639D01*
X1070Y1637D01*
X1072Y1637D01*
X1072Y1635D01*
X1076Y1635D01*
X1076Y1633D01*
X1078Y1633D01*
X1078Y1631D01*
X1080Y1631D01*
X1080Y1629D01*
X1082Y1629D01*
X1082Y1625D01*
X1084Y1625D01*
X1084Y1623D01*
X1086Y1623D01*
X1086Y1619D01*
X1088Y1619D01*
X1088Y1615D01*
X1090Y1615D01*
X1090Y1607D01*
X1092Y1607D01*
X1092Y1589D01*
X1090Y1589D01*
X1090Y1583D01*
X1088Y1583D01*
X1088Y1577D01*
X1086Y1577D01*
X1086Y1575D01*
X1084Y1575D01*
X1084Y1571D01*
X1082Y1571D01*
X1082Y1569D01*
X1080Y1569D01*
X1080Y1565D01*
X1078Y1565D01*
X1078Y1563D01*
X1074Y1563D01*
X1074Y1561D01*
X1072Y1561D01*
X1072Y1559D01*
X1070Y1559D01*
X1070Y1557D01*
X1066Y1557D01*
X1066Y1555D01*
X1062Y1555D01*
X1062Y1553D01*
X1054Y1553D01*
X1054Y1551D01*
X1234Y1551D01*
X1234Y1553D01*
X1228Y1553D01*
X1228Y1555D01*
X1224Y1555D01*
X1224Y1557D01*
X1220Y1557D01*
X1220Y1559D01*
X1216Y1559D01*
X1216Y1561D01*
X1214Y1561D01*
X1214Y1563D01*
X1212Y1563D01*
X1212Y1565D01*
X1210Y1565D01*
X1210Y1567D01*
X1208Y1567D01*
X1208Y1569D01*
X1206Y1569D01*
X1206Y1573D01*
X1204Y1573D01*
X1204Y1575D01*
X1202Y1575D01*
X1202Y1579D01*
X1200Y1579D01*
X1200Y1585D01*
X1198Y1585D01*
X1198Y1597D01*
X1196Y1597D01*
X1196Y1599D01*
X1198Y1599D01*
X1198Y1611D01*
X1200Y1611D01*
X1200Y1617D01*
X1202Y1617D01*
X1202Y1621D01*
X1204Y1621D01*
X1204Y1625D01*
X1206Y1625D01*
X1206Y1627D01*
X1208Y1627D01*
X1208Y1629D01*
X1210Y1629D01*
X1210Y1631D01*
X1212Y1631D01*
X1212Y1633D01*
X1214Y1633D01*
X1214Y1635D01*
X1216Y1635D01*
X1216Y1637D01*
X1218Y1637D01*
X1218Y1639D01*
X1222Y1639D01*
X1222Y1641D01*
X1226Y1641D01*
X1226Y1643D01*
X1232Y1643D01*
X1232Y1645D01*
X1056Y1645D01*
G37*
D02*
G36*
X678Y1603D02*
X678Y1601D01*
X676Y1601D01*
X676Y1599D01*
X674Y1599D01*
X674Y1597D01*
X672Y1597D01*
X672Y1595D01*
X670Y1595D01*
X670Y1593D01*
X668Y1593D01*
X668Y1591D01*
X666Y1591D01*
X666Y1589D01*
X664Y1589D01*
X664Y1587D01*
X662Y1587D01*
X662Y1585D01*
X660Y1585D01*
X660Y1583D01*
X658Y1583D01*
X658Y1581D01*
X656Y1581D01*
X656Y1579D01*
X654Y1579D01*
X654Y1577D01*
X652Y1577D01*
X652Y1575D01*
X650Y1575D01*
X650Y1573D01*
X648Y1573D01*
X648Y1571D01*
X646Y1571D01*
X646Y1569D01*
X644Y1569D01*
X644Y1567D01*
X642Y1567D01*
X642Y1565D01*
X640Y1565D01*
X640Y1563D01*
X638Y1563D01*
X638Y1561D01*
X636Y1561D01*
X636Y1559D01*
X634Y1559D01*
X634Y1557D01*
X632Y1557D01*
X632Y1555D01*
X630Y1555D01*
X630Y1553D01*
X628Y1553D01*
X628Y1551D01*
X734Y1551D01*
X734Y1553D01*
X728Y1553D01*
X728Y1555D01*
X724Y1555D01*
X724Y1557D01*
X720Y1557D01*
X720Y1559D01*
X716Y1559D01*
X716Y1561D01*
X714Y1561D01*
X714Y1563D01*
X712Y1563D01*
X712Y1565D01*
X710Y1565D01*
X710Y1567D01*
X708Y1567D01*
X708Y1569D01*
X706Y1569D01*
X706Y1573D01*
X704Y1573D01*
X704Y1575D01*
X702Y1575D01*
X702Y1579D01*
X700Y1579D01*
X700Y1585D01*
X698Y1585D01*
X698Y1597D01*
X696Y1597D01*
X696Y1599D01*
X698Y1599D01*
X698Y1603D01*
X678Y1603D01*
G37*
D02*
G36*
X786Y1577D02*
X786Y1575D01*
X784Y1575D01*
X784Y1571D01*
X782Y1571D01*
X782Y1569D01*
X780Y1569D01*
X780Y1565D01*
X778Y1565D01*
X778Y1563D01*
X774Y1563D01*
X774Y1561D01*
X772Y1561D01*
X772Y1559D01*
X770Y1559D01*
X770Y1557D01*
X766Y1557D01*
X766Y1555D01*
X762Y1555D01*
X762Y1553D01*
X754Y1553D01*
X754Y1551D01*
X860Y1551D01*
X860Y1553D01*
X858Y1553D01*
X858Y1555D01*
X856Y1555D01*
X856Y1557D01*
X854Y1557D01*
X854Y1559D01*
X852Y1559D01*
X852Y1561D01*
X850Y1561D01*
X850Y1563D01*
X848Y1563D01*
X848Y1565D01*
X846Y1565D01*
X846Y1567D01*
X844Y1567D01*
X844Y1569D01*
X842Y1569D01*
X842Y1571D01*
X840Y1571D01*
X840Y1573D01*
X838Y1573D01*
X838Y1575D01*
X836Y1575D01*
X836Y1577D01*
X786Y1577D01*
G37*
D02*
G36*
X626Y1551D02*
X626Y1549D01*
X862Y1549D01*
X862Y1551D01*
X626Y1551D01*
G37*
D02*
G36*
X626Y1551D02*
X626Y1549D01*
X862Y1549D01*
X862Y1551D01*
X626Y1551D01*
G37*
D02*
G36*
X924Y1551D02*
X924Y1549D01*
X1410Y1549D01*
X1410Y1551D01*
X924Y1551D01*
G37*
D02*
G36*
X924Y1551D02*
X924Y1549D01*
X1410Y1549D01*
X1410Y1551D01*
X924Y1551D01*
G37*
D02*
G36*
X924Y1551D02*
X924Y1549D01*
X1410Y1549D01*
X1410Y1551D01*
X924Y1551D01*
G37*
D02*
G36*
X624Y1549D02*
X624Y1547D01*
X622Y1547D01*
X622Y1545D01*
X620Y1545D01*
X620Y1543D01*
X618Y1543D01*
X618Y1541D01*
X616Y1541D01*
X616Y1539D01*
X614Y1539D01*
X614Y1537D01*
X612Y1537D01*
X612Y1535D01*
X610Y1535D01*
X610Y1533D01*
X608Y1533D01*
X608Y1531D01*
X606Y1531D01*
X606Y1529D01*
X604Y1529D01*
X604Y1527D01*
X602Y1527D01*
X602Y1525D01*
X600Y1525D01*
X600Y1523D01*
X598Y1523D01*
X598Y1521D01*
X596Y1521D01*
X596Y1519D01*
X594Y1519D01*
X594Y1517D01*
X592Y1517D01*
X592Y1515D01*
X590Y1515D01*
X590Y1513D01*
X588Y1513D01*
X588Y1511D01*
X586Y1511D01*
X586Y1509D01*
X584Y1509D01*
X584Y1507D01*
X582Y1507D01*
X582Y1505D01*
X580Y1505D01*
X580Y1503D01*
X578Y1503D01*
X578Y1501D01*
X576Y1501D01*
X576Y1499D01*
X574Y1499D01*
X574Y1497D01*
X572Y1497D01*
X572Y1495D01*
X570Y1495D01*
X570Y1493D01*
X568Y1493D01*
X568Y1491D01*
X566Y1491D01*
X566Y1489D01*
X564Y1489D01*
X564Y1487D01*
X562Y1487D01*
X562Y1485D01*
X560Y1485D01*
X560Y1483D01*
X558Y1483D01*
X558Y1481D01*
X556Y1481D01*
X556Y1479D01*
X552Y1479D01*
X552Y1477D01*
X550Y1477D01*
X550Y1475D01*
X548Y1475D01*
X548Y1473D01*
X544Y1473D01*
X544Y1471D01*
X542Y1471D01*
X542Y1469D01*
X540Y1469D01*
X540Y1467D01*
X536Y1467D01*
X536Y1465D01*
X534Y1465D01*
X534Y1463D01*
X532Y1463D01*
X532Y1461D01*
X528Y1461D01*
X528Y1459D01*
X526Y1459D01*
X526Y1457D01*
X524Y1457D01*
X524Y1455D01*
X520Y1455D01*
X520Y1453D01*
X518Y1453D01*
X518Y1451D01*
X516Y1451D01*
X516Y1449D01*
X512Y1449D01*
X512Y1447D01*
X510Y1447D01*
X510Y1445D01*
X756Y1445D01*
X756Y1443D01*
X764Y1443D01*
X764Y1441D01*
X766Y1441D01*
X766Y1439D01*
X770Y1439D01*
X770Y1437D01*
X772Y1437D01*
X772Y1435D01*
X776Y1435D01*
X776Y1433D01*
X778Y1433D01*
X778Y1431D01*
X780Y1431D01*
X780Y1429D01*
X782Y1429D01*
X782Y1425D01*
X784Y1425D01*
X784Y1423D01*
X786Y1423D01*
X786Y1419D01*
X788Y1419D01*
X788Y1415D01*
X790Y1415D01*
X790Y1407D01*
X792Y1407D01*
X792Y1389D01*
X790Y1389D01*
X790Y1383D01*
X788Y1383D01*
X788Y1377D01*
X786Y1377D01*
X786Y1375D01*
X784Y1375D01*
X784Y1371D01*
X782Y1371D01*
X782Y1369D01*
X780Y1369D01*
X780Y1365D01*
X778Y1365D01*
X778Y1363D01*
X774Y1363D01*
X774Y1361D01*
X772Y1361D01*
X772Y1359D01*
X770Y1359D01*
X770Y1337D01*
X772Y1337D01*
X772Y1335D01*
X776Y1335D01*
X776Y1333D01*
X778Y1333D01*
X778Y1331D01*
X780Y1331D01*
X780Y1329D01*
X782Y1329D01*
X782Y1325D01*
X784Y1325D01*
X784Y1323D01*
X786Y1323D01*
X786Y1319D01*
X788Y1319D01*
X788Y1315D01*
X790Y1315D01*
X790Y1307D01*
X792Y1307D01*
X792Y1289D01*
X790Y1289D01*
X790Y1283D01*
X788Y1283D01*
X788Y1277D01*
X786Y1277D01*
X786Y1275D01*
X784Y1275D01*
X784Y1271D01*
X782Y1271D01*
X782Y1269D01*
X780Y1269D01*
X780Y1265D01*
X778Y1265D01*
X778Y1263D01*
X774Y1263D01*
X774Y1261D01*
X772Y1261D01*
X772Y1259D01*
X770Y1259D01*
X770Y1237D01*
X772Y1237D01*
X772Y1235D01*
X776Y1235D01*
X776Y1233D01*
X778Y1233D01*
X778Y1231D01*
X780Y1231D01*
X780Y1229D01*
X782Y1229D01*
X782Y1225D01*
X784Y1225D01*
X784Y1223D01*
X786Y1223D01*
X786Y1219D01*
X788Y1219D01*
X788Y1215D01*
X790Y1215D01*
X790Y1207D01*
X792Y1207D01*
X792Y1181D01*
X794Y1181D01*
X794Y1179D01*
X796Y1179D01*
X796Y1177D01*
X798Y1177D01*
X798Y1175D01*
X800Y1175D01*
X800Y1173D01*
X802Y1173D01*
X802Y1171D01*
X804Y1171D01*
X804Y1169D01*
X806Y1169D01*
X806Y1167D01*
X808Y1167D01*
X808Y1165D01*
X810Y1165D01*
X810Y1163D01*
X812Y1163D01*
X812Y1161D01*
X814Y1161D01*
X814Y1159D01*
X816Y1159D01*
X816Y1157D01*
X818Y1157D01*
X818Y1155D01*
X820Y1155D01*
X820Y1153D01*
X822Y1153D01*
X822Y1151D01*
X1134Y1151D01*
X1134Y1153D01*
X1128Y1153D01*
X1128Y1155D01*
X1124Y1155D01*
X1124Y1157D01*
X1120Y1157D01*
X1120Y1159D01*
X1116Y1159D01*
X1116Y1161D01*
X1114Y1161D01*
X1114Y1163D01*
X1112Y1163D01*
X1112Y1165D01*
X1110Y1165D01*
X1110Y1167D01*
X1108Y1167D01*
X1108Y1169D01*
X1106Y1169D01*
X1106Y1173D01*
X1104Y1173D01*
X1104Y1175D01*
X1102Y1175D01*
X1102Y1179D01*
X1100Y1179D01*
X1100Y1185D01*
X1098Y1185D01*
X1098Y1197D01*
X1096Y1197D01*
X1096Y1199D01*
X1098Y1199D01*
X1098Y1211D01*
X1100Y1211D01*
X1100Y1217D01*
X1102Y1217D01*
X1102Y1221D01*
X1104Y1221D01*
X1104Y1225D01*
X1106Y1225D01*
X1106Y1227D01*
X1108Y1227D01*
X1108Y1229D01*
X1110Y1229D01*
X1110Y1231D01*
X1112Y1231D01*
X1112Y1233D01*
X1114Y1233D01*
X1114Y1235D01*
X1116Y1235D01*
X1116Y1237D01*
X1118Y1237D01*
X1118Y1239D01*
X1120Y1239D01*
X1120Y1259D01*
X1116Y1259D01*
X1116Y1261D01*
X1114Y1261D01*
X1114Y1263D01*
X1112Y1263D01*
X1112Y1265D01*
X1110Y1265D01*
X1110Y1267D01*
X1108Y1267D01*
X1108Y1269D01*
X1106Y1269D01*
X1106Y1273D01*
X1104Y1273D01*
X1104Y1275D01*
X1102Y1275D01*
X1102Y1279D01*
X1100Y1279D01*
X1100Y1285D01*
X1098Y1285D01*
X1098Y1297D01*
X1096Y1297D01*
X1096Y1299D01*
X1098Y1299D01*
X1098Y1311D01*
X1100Y1311D01*
X1100Y1317D01*
X1102Y1317D01*
X1102Y1321D01*
X1104Y1321D01*
X1104Y1325D01*
X1106Y1325D01*
X1106Y1327D01*
X1108Y1327D01*
X1108Y1329D01*
X1110Y1329D01*
X1110Y1331D01*
X1112Y1331D01*
X1112Y1333D01*
X1114Y1333D01*
X1114Y1335D01*
X1116Y1335D01*
X1116Y1337D01*
X1118Y1337D01*
X1118Y1339D01*
X1120Y1339D01*
X1120Y1359D01*
X1116Y1359D01*
X1116Y1361D01*
X1114Y1361D01*
X1114Y1363D01*
X1112Y1363D01*
X1112Y1365D01*
X1110Y1365D01*
X1110Y1367D01*
X1108Y1367D01*
X1108Y1369D01*
X1106Y1369D01*
X1106Y1373D01*
X1104Y1373D01*
X1104Y1375D01*
X1040Y1375D01*
X1040Y1377D01*
X1036Y1377D01*
X1036Y1379D01*
X1032Y1379D01*
X1032Y1381D01*
X1030Y1381D01*
X1030Y1383D01*
X1028Y1383D01*
X1028Y1385D01*
X1026Y1385D01*
X1026Y1387D01*
X1024Y1387D01*
X1024Y1389D01*
X1022Y1389D01*
X1022Y1391D01*
X1020Y1391D01*
X1020Y1393D01*
X1018Y1393D01*
X1018Y1395D01*
X1016Y1395D01*
X1016Y1397D01*
X1014Y1397D01*
X1014Y1399D01*
X1012Y1399D01*
X1012Y1401D01*
X1010Y1401D01*
X1010Y1403D01*
X1008Y1403D01*
X1008Y1405D01*
X1006Y1405D01*
X1006Y1407D01*
X1004Y1407D01*
X1004Y1409D01*
X1002Y1409D01*
X1002Y1411D01*
X1000Y1411D01*
X1000Y1413D01*
X998Y1413D01*
X998Y1415D01*
X996Y1415D01*
X996Y1417D01*
X994Y1417D01*
X994Y1419D01*
X992Y1419D01*
X992Y1421D01*
X990Y1421D01*
X990Y1423D01*
X988Y1423D01*
X988Y1425D01*
X986Y1425D01*
X986Y1427D01*
X984Y1427D01*
X984Y1429D01*
X982Y1429D01*
X982Y1431D01*
X980Y1431D01*
X980Y1433D01*
X978Y1433D01*
X978Y1435D01*
X976Y1435D01*
X976Y1437D01*
X974Y1437D01*
X974Y1439D01*
X972Y1439D01*
X972Y1441D01*
X970Y1441D01*
X970Y1443D01*
X968Y1443D01*
X968Y1445D01*
X966Y1445D01*
X966Y1447D01*
X964Y1447D01*
X964Y1449D01*
X962Y1449D01*
X962Y1451D01*
X960Y1451D01*
X960Y1453D01*
X958Y1453D01*
X958Y1455D01*
X956Y1455D01*
X956Y1457D01*
X954Y1457D01*
X954Y1459D01*
X952Y1459D01*
X952Y1461D01*
X950Y1461D01*
X950Y1463D01*
X948Y1463D01*
X948Y1465D01*
X946Y1465D01*
X946Y1467D01*
X944Y1467D01*
X944Y1469D01*
X942Y1469D01*
X942Y1471D01*
X940Y1471D01*
X940Y1473D01*
X938Y1473D01*
X938Y1475D01*
X936Y1475D01*
X936Y1477D01*
X934Y1477D01*
X934Y1479D01*
X932Y1479D01*
X932Y1481D01*
X930Y1481D01*
X930Y1483D01*
X928Y1483D01*
X928Y1485D01*
X926Y1485D01*
X926Y1487D01*
X924Y1487D01*
X924Y1489D01*
X922Y1489D01*
X922Y1491D01*
X920Y1491D01*
X920Y1493D01*
X918Y1493D01*
X918Y1495D01*
X916Y1495D01*
X916Y1497D01*
X914Y1497D01*
X914Y1499D01*
X912Y1499D01*
X912Y1501D01*
X910Y1501D01*
X910Y1503D01*
X908Y1503D01*
X908Y1505D01*
X906Y1505D01*
X906Y1507D01*
X904Y1507D01*
X904Y1509D01*
X902Y1509D01*
X902Y1511D01*
X900Y1511D01*
X900Y1513D01*
X898Y1513D01*
X898Y1515D01*
X896Y1515D01*
X896Y1517D01*
X894Y1517D01*
X894Y1519D01*
X892Y1519D01*
X892Y1521D01*
X890Y1521D01*
X890Y1523D01*
X888Y1523D01*
X888Y1525D01*
X886Y1525D01*
X886Y1527D01*
X884Y1527D01*
X884Y1529D01*
X882Y1529D01*
X882Y1531D01*
X880Y1531D01*
X880Y1533D01*
X878Y1533D01*
X878Y1535D01*
X876Y1535D01*
X876Y1537D01*
X874Y1537D01*
X874Y1539D01*
X872Y1539D01*
X872Y1541D01*
X870Y1541D01*
X870Y1543D01*
X868Y1543D01*
X868Y1545D01*
X866Y1545D01*
X866Y1547D01*
X864Y1547D01*
X864Y1549D01*
X624Y1549D01*
G37*
D02*
G36*
X926Y1549D02*
X926Y1547D01*
X928Y1547D01*
X928Y1545D01*
X930Y1545D01*
X930Y1543D01*
X932Y1543D01*
X932Y1541D01*
X934Y1541D01*
X934Y1539D01*
X1434Y1539D01*
X1434Y1541D01*
X1426Y1541D01*
X1426Y1543D01*
X1420Y1543D01*
X1420Y1545D01*
X1416Y1545D01*
X1416Y1547D01*
X1412Y1547D01*
X1412Y1549D01*
X926Y1549D01*
G37*
D02*
G36*
X66Y1539D02*
X66Y1537D01*
X552Y1537D01*
X552Y1539D01*
X66Y1539D01*
G37*
D02*
G36*
X66Y1539D02*
X66Y1537D01*
X552Y1537D01*
X552Y1539D01*
X66Y1539D01*
G37*
D02*
G36*
X66Y1539D02*
X66Y1537D01*
X552Y1537D01*
X552Y1539D01*
X66Y1539D01*
G37*
D02*
G36*
X936Y1539D02*
X936Y1537D01*
X1552Y1537D01*
X1552Y1539D01*
X936Y1539D01*
G37*
D02*
G36*
X936Y1539D02*
X936Y1537D01*
X1552Y1537D01*
X1552Y1539D01*
X936Y1539D01*
G37*
D02*
G36*
X1614Y1539D02*
X1614Y1537D01*
X1612Y1537D01*
X1612Y1535D01*
X1610Y1535D01*
X1610Y1533D01*
X1608Y1533D01*
X1608Y1531D01*
X1606Y1531D01*
X1606Y1529D01*
X1604Y1529D01*
X1604Y1527D01*
X1602Y1527D01*
X1602Y1525D01*
X1600Y1525D01*
X1600Y1523D01*
X1598Y1523D01*
X1598Y1521D01*
X1596Y1521D01*
X1596Y1519D01*
X1594Y1519D01*
X1594Y1517D01*
X1592Y1517D01*
X1592Y1515D01*
X1590Y1515D01*
X1590Y1513D01*
X1588Y1513D01*
X1588Y1511D01*
X1586Y1511D01*
X1586Y1509D01*
X1584Y1509D01*
X1584Y1507D01*
X1582Y1507D01*
X1582Y1505D01*
X1580Y1505D01*
X1580Y1503D01*
X1578Y1503D01*
X1578Y1501D01*
X1576Y1501D01*
X1576Y1499D01*
X1574Y1499D01*
X1574Y1497D01*
X1572Y1497D01*
X1572Y1495D01*
X1570Y1495D01*
X1570Y1493D01*
X1568Y1493D01*
X1568Y1491D01*
X1566Y1491D01*
X1566Y1393D01*
X1564Y1393D01*
X1564Y1387D01*
X1562Y1387D01*
X1562Y1385D01*
X1560Y1385D01*
X1560Y1383D01*
X1558Y1383D01*
X1558Y1381D01*
X1556Y1381D01*
X1556Y1379D01*
X1554Y1379D01*
X1554Y1377D01*
X1552Y1377D01*
X1552Y1375D01*
X1550Y1375D01*
X1550Y1373D01*
X1548Y1373D01*
X1548Y1371D01*
X1546Y1371D01*
X1546Y1369D01*
X1544Y1369D01*
X1544Y1367D01*
X1542Y1367D01*
X1542Y1365D01*
X1540Y1365D01*
X1540Y1363D01*
X1538Y1363D01*
X1538Y1361D01*
X1536Y1361D01*
X1536Y1359D01*
X1534Y1359D01*
X1534Y1357D01*
X1532Y1357D01*
X1532Y1355D01*
X1530Y1355D01*
X1530Y1353D01*
X1528Y1353D01*
X1528Y1351D01*
X1526Y1351D01*
X1526Y1349D01*
X1524Y1349D01*
X1524Y1347D01*
X1522Y1347D01*
X1522Y1345D01*
X1520Y1345D01*
X1520Y1343D01*
X1518Y1343D01*
X1518Y1341D01*
X1516Y1341D01*
X1516Y1339D01*
X1514Y1339D01*
X1514Y1337D01*
X1512Y1337D01*
X1512Y1335D01*
X1510Y1335D01*
X1510Y1333D01*
X1508Y1333D01*
X1508Y1331D01*
X1506Y1331D01*
X1506Y1329D01*
X1504Y1329D01*
X1504Y1327D01*
X1502Y1327D01*
X1502Y1325D01*
X1500Y1325D01*
X1500Y1323D01*
X1498Y1323D01*
X1498Y1321D01*
X1496Y1321D01*
X1496Y1319D01*
X1494Y1319D01*
X1494Y1317D01*
X1492Y1317D01*
X1492Y1315D01*
X1490Y1315D01*
X1490Y1313D01*
X1488Y1313D01*
X1488Y1311D01*
X1486Y1311D01*
X1486Y1309D01*
X1484Y1309D01*
X1484Y1307D01*
X1482Y1307D01*
X1482Y1305D01*
X1480Y1305D01*
X1480Y1303D01*
X1478Y1303D01*
X1478Y1301D01*
X1476Y1301D01*
X1476Y1299D01*
X1474Y1299D01*
X1474Y1297D01*
X1472Y1297D01*
X1472Y1295D01*
X1470Y1295D01*
X1470Y1293D01*
X1468Y1293D01*
X1468Y1291D01*
X1466Y1291D01*
X1466Y1289D01*
X1464Y1289D01*
X1464Y1287D01*
X1462Y1287D01*
X1462Y1285D01*
X1460Y1285D01*
X1460Y1283D01*
X1458Y1283D01*
X1458Y1281D01*
X1456Y1281D01*
X1456Y1279D01*
X1454Y1279D01*
X1454Y1277D01*
X1452Y1277D01*
X1452Y1275D01*
X1450Y1275D01*
X1450Y1273D01*
X1448Y1273D01*
X1448Y1271D01*
X1446Y1271D01*
X1446Y1269D01*
X1444Y1269D01*
X1444Y1267D01*
X1442Y1267D01*
X1442Y1265D01*
X1440Y1265D01*
X1440Y1263D01*
X1438Y1263D01*
X1438Y1261D01*
X1436Y1261D01*
X1436Y1259D01*
X1434Y1259D01*
X1434Y1257D01*
X1558Y1257D01*
X1558Y1255D01*
X1566Y1255D01*
X1566Y1253D01*
X1570Y1253D01*
X1570Y1251D01*
X1574Y1251D01*
X1574Y1249D01*
X1576Y1249D01*
X1576Y1247D01*
X1580Y1247D01*
X1580Y1245D01*
X1582Y1245D01*
X1582Y1243D01*
X1584Y1243D01*
X1584Y1241D01*
X1586Y1241D01*
X1586Y1239D01*
X1588Y1239D01*
X1588Y1237D01*
X1590Y1237D01*
X1590Y1235D01*
X1592Y1235D01*
X1592Y1233D01*
X1594Y1233D01*
X1594Y1229D01*
X1596Y1229D01*
X1596Y1227D01*
X1598Y1227D01*
X1598Y1223D01*
X1600Y1223D01*
X1600Y1217D01*
X1602Y1217D01*
X1602Y1207D01*
X1604Y1207D01*
X1604Y1189D01*
X1602Y1189D01*
X1602Y1181D01*
X1600Y1181D01*
X1600Y1175D01*
X1598Y1175D01*
X1598Y1171D01*
X1596Y1171D01*
X1596Y1167D01*
X1594Y1167D01*
X1594Y1165D01*
X1592Y1165D01*
X1592Y1161D01*
X1590Y1161D01*
X1590Y1159D01*
X1588Y1159D01*
X1588Y1157D01*
X1586Y1157D01*
X1586Y1155D01*
X1584Y1155D01*
X1584Y1153D01*
X1582Y1153D01*
X1582Y1151D01*
X1578Y1151D01*
X1578Y1149D01*
X1576Y1149D01*
X1576Y1147D01*
X1572Y1147D01*
X1572Y1145D01*
X1568Y1145D01*
X1568Y1143D01*
X1564Y1143D01*
X1564Y1141D01*
X1556Y1141D01*
X1556Y1121D01*
X1722Y1121D01*
X1722Y1539D01*
X1614Y1539D01*
G37*
D02*
G36*
X66Y1537D02*
X66Y407D01*
X68Y407D01*
X68Y405D01*
X70Y405D01*
X70Y403D01*
X72Y403D01*
X72Y401D01*
X74Y401D01*
X74Y399D01*
X76Y399D01*
X76Y397D01*
X78Y397D01*
X78Y395D01*
X80Y395D01*
X80Y393D01*
X82Y393D01*
X82Y391D01*
X84Y391D01*
X84Y389D01*
X86Y389D01*
X86Y387D01*
X88Y387D01*
X88Y385D01*
X90Y385D01*
X90Y383D01*
X92Y383D01*
X92Y381D01*
X94Y381D01*
X94Y379D01*
X96Y379D01*
X96Y377D01*
X98Y377D01*
X98Y375D01*
X100Y375D01*
X100Y373D01*
X102Y373D01*
X102Y371D01*
X104Y371D01*
X104Y369D01*
X106Y369D01*
X106Y367D01*
X108Y367D01*
X108Y365D01*
X110Y365D01*
X110Y363D01*
X112Y363D01*
X112Y361D01*
X114Y361D01*
X114Y359D01*
X116Y359D01*
X116Y357D01*
X118Y357D01*
X118Y355D01*
X120Y355D01*
X120Y353D01*
X122Y353D01*
X122Y351D01*
X124Y351D01*
X124Y349D01*
X126Y349D01*
X126Y347D01*
X128Y347D01*
X128Y345D01*
X130Y345D01*
X130Y343D01*
X132Y343D01*
X132Y341D01*
X134Y341D01*
X134Y339D01*
X136Y339D01*
X136Y337D01*
X138Y337D01*
X138Y335D01*
X140Y335D01*
X140Y333D01*
X142Y333D01*
X142Y331D01*
X144Y331D01*
X144Y329D01*
X146Y329D01*
X146Y327D01*
X148Y327D01*
X148Y325D01*
X150Y325D01*
X150Y323D01*
X152Y323D01*
X152Y321D01*
X154Y321D01*
X154Y319D01*
X156Y319D01*
X156Y317D01*
X158Y317D01*
X158Y315D01*
X160Y315D01*
X160Y313D01*
X162Y313D01*
X162Y311D01*
X164Y311D01*
X164Y309D01*
X166Y309D01*
X166Y307D01*
X168Y307D01*
X168Y305D01*
X170Y305D01*
X170Y303D01*
X172Y303D01*
X172Y301D01*
X174Y301D01*
X174Y299D01*
X176Y299D01*
X176Y297D01*
X178Y297D01*
X178Y295D01*
X180Y295D01*
X180Y293D01*
X182Y293D01*
X182Y291D01*
X184Y291D01*
X184Y289D01*
X186Y289D01*
X186Y287D01*
X188Y287D01*
X188Y285D01*
X190Y285D01*
X190Y283D01*
X192Y283D01*
X192Y281D01*
X194Y281D01*
X194Y279D01*
X196Y279D01*
X196Y277D01*
X198Y277D01*
X198Y275D01*
X242Y275D01*
X242Y277D01*
X234Y277D01*
X234Y279D01*
X232Y279D01*
X232Y281D01*
X228Y281D01*
X228Y283D01*
X226Y283D01*
X226Y285D01*
X224Y285D01*
X224Y287D01*
X222Y287D01*
X222Y289D01*
X220Y289D01*
X220Y291D01*
X218Y291D01*
X218Y293D01*
X216Y293D01*
X216Y295D01*
X214Y295D01*
X214Y297D01*
X212Y297D01*
X212Y299D01*
X210Y299D01*
X210Y301D01*
X208Y301D01*
X208Y303D01*
X206Y303D01*
X206Y305D01*
X204Y305D01*
X204Y307D01*
X202Y307D01*
X202Y309D01*
X200Y309D01*
X200Y311D01*
X198Y311D01*
X198Y313D01*
X196Y313D01*
X196Y315D01*
X194Y315D01*
X194Y319D01*
X192Y319D01*
X192Y321D01*
X190Y321D01*
X190Y323D01*
X188Y323D01*
X188Y325D01*
X186Y325D01*
X186Y327D01*
X184Y327D01*
X184Y329D01*
X182Y329D01*
X182Y331D01*
X180Y331D01*
X180Y333D01*
X178Y333D01*
X178Y335D01*
X176Y335D01*
X176Y337D01*
X174Y337D01*
X174Y339D01*
X172Y339D01*
X172Y341D01*
X170Y341D01*
X170Y343D01*
X168Y343D01*
X168Y345D01*
X166Y345D01*
X166Y347D01*
X164Y347D01*
X164Y349D01*
X162Y349D01*
X162Y351D01*
X160Y351D01*
X160Y353D01*
X158Y353D01*
X158Y355D01*
X156Y355D01*
X156Y357D01*
X154Y357D01*
X154Y359D01*
X152Y359D01*
X152Y361D01*
X150Y361D01*
X150Y363D01*
X148Y363D01*
X148Y365D01*
X146Y365D01*
X146Y367D01*
X144Y367D01*
X144Y369D01*
X142Y369D01*
X142Y371D01*
X140Y371D01*
X140Y373D01*
X138Y373D01*
X138Y375D01*
X136Y375D01*
X136Y377D01*
X134Y377D01*
X134Y379D01*
X132Y379D01*
X132Y381D01*
X130Y381D01*
X130Y383D01*
X128Y383D01*
X128Y385D01*
X126Y385D01*
X126Y387D01*
X124Y387D01*
X124Y393D01*
X122Y393D01*
X122Y1205D01*
X124Y1205D01*
X124Y1209D01*
X126Y1209D01*
X126Y1213D01*
X128Y1213D01*
X128Y1215D01*
X130Y1215D01*
X130Y1217D01*
X132Y1217D01*
X132Y1219D01*
X136Y1219D01*
X136Y1221D01*
X138Y1221D01*
X138Y1223D01*
X140Y1223D01*
X140Y1225D01*
X144Y1225D01*
X144Y1227D01*
X146Y1227D01*
X146Y1229D01*
X148Y1229D01*
X148Y1231D01*
X152Y1231D01*
X152Y1233D01*
X154Y1233D01*
X154Y1235D01*
X156Y1235D01*
X156Y1237D01*
X160Y1237D01*
X160Y1239D01*
X162Y1239D01*
X162Y1241D01*
X164Y1241D01*
X164Y1243D01*
X168Y1243D01*
X168Y1245D01*
X170Y1245D01*
X170Y1247D01*
X172Y1247D01*
X172Y1249D01*
X176Y1249D01*
X176Y1251D01*
X178Y1251D01*
X178Y1253D01*
X180Y1253D01*
X180Y1255D01*
X184Y1255D01*
X184Y1257D01*
X186Y1257D01*
X186Y1259D01*
X188Y1259D01*
X188Y1261D01*
X192Y1261D01*
X192Y1263D01*
X194Y1263D01*
X194Y1265D01*
X196Y1265D01*
X196Y1267D01*
X200Y1267D01*
X200Y1269D01*
X202Y1269D01*
X202Y1271D01*
X204Y1271D01*
X204Y1273D01*
X208Y1273D01*
X208Y1275D01*
X210Y1275D01*
X210Y1277D01*
X212Y1277D01*
X212Y1279D01*
X216Y1279D01*
X216Y1281D01*
X218Y1281D01*
X218Y1283D01*
X220Y1283D01*
X220Y1285D01*
X224Y1285D01*
X224Y1287D01*
X226Y1287D01*
X226Y1289D01*
X228Y1289D01*
X228Y1291D01*
X232Y1291D01*
X232Y1293D01*
X234Y1293D01*
X234Y1295D01*
X236Y1295D01*
X236Y1297D01*
X240Y1297D01*
X240Y1299D01*
X242Y1299D01*
X242Y1301D01*
X244Y1301D01*
X244Y1303D01*
X248Y1303D01*
X248Y1305D01*
X250Y1305D01*
X250Y1307D01*
X252Y1307D01*
X252Y1309D01*
X256Y1309D01*
X256Y1311D01*
X258Y1311D01*
X258Y1313D01*
X260Y1313D01*
X260Y1315D01*
X264Y1315D01*
X264Y1317D01*
X266Y1317D01*
X266Y1319D01*
X268Y1319D01*
X268Y1321D01*
X272Y1321D01*
X272Y1323D01*
X274Y1323D01*
X274Y1325D01*
X276Y1325D01*
X276Y1327D01*
X280Y1327D01*
X280Y1329D01*
X282Y1329D01*
X282Y1331D01*
X284Y1331D01*
X284Y1333D01*
X288Y1333D01*
X288Y1335D01*
X290Y1335D01*
X290Y1337D01*
X292Y1337D01*
X292Y1339D01*
X296Y1339D01*
X296Y1341D01*
X298Y1341D01*
X298Y1343D01*
X300Y1343D01*
X300Y1345D01*
X304Y1345D01*
X304Y1347D01*
X306Y1347D01*
X306Y1349D01*
X308Y1349D01*
X308Y1351D01*
X312Y1351D01*
X312Y1353D01*
X314Y1353D01*
X314Y1355D01*
X316Y1355D01*
X316Y1357D01*
X320Y1357D01*
X320Y1359D01*
X322Y1359D01*
X322Y1361D01*
X324Y1361D01*
X324Y1363D01*
X328Y1363D01*
X328Y1365D01*
X330Y1365D01*
X330Y1367D01*
X332Y1367D01*
X332Y1369D01*
X336Y1369D01*
X336Y1371D01*
X338Y1371D01*
X338Y1373D01*
X340Y1373D01*
X340Y1375D01*
X344Y1375D01*
X344Y1377D01*
X346Y1377D01*
X346Y1379D01*
X348Y1379D01*
X348Y1381D01*
X352Y1381D01*
X352Y1383D01*
X354Y1383D01*
X354Y1385D01*
X356Y1385D01*
X356Y1387D01*
X360Y1387D01*
X360Y1389D01*
X362Y1389D01*
X362Y1391D01*
X364Y1391D01*
X364Y1393D01*
X368Y1393D01*
X368Y1395D01*
X370Y1395D01*
X370Y1397D01*
X372Y1397D01*
X372Y1399D01*
X376Y1399D01*
X376Y1401D01*
X378Y1401D01*
X378Y1403D01*
X380Y1403D01*
X380Y1405D01*
X384Y1405D01*
X384Y1407D01*
X386Y1407D01*
X386Y1409D01*
X388Y1409D01*
X388Y1411D01*
X392Y1411D01*
X392Y1413D01*
X394Y1413D01*
X394Y1415D01*
X396Y1415D01*
X396Y1417D01*
X400Y1417D01*
X400Y1419D01*
X402Y1419D01*
X402Y1421D01*
X404Y1421D01*
X404Y1423D01*
X408Y1423D01*
X408Y1425D01*
X410Y1425D01*
X410Y1427D01*
X412Y1427D01*
X412Y1429D01*
X416Y1429D01*
X416Y1431D01*
X418Y1431D01*
X418Y1433D01*
X420Y1433D01*
X420Y1435D01*
X424Y1435D01*
X424Y1437D01*
X426Y1437D01*
X426Y1439D01*
X428Y1439D01*
X428Y1441D01*
X432Y1441D01*
X432Y1443D01*
X434Y1443D01*
X434Y1445D01*
X436Y1445D01*
X436Y1447D01*
X440Y1447D01*
X440Y1449D01*
X442Y1449D01*
X442Y1451D01*
X444Y1451D01*
X444Y1453D01*
X448Y1453D01*
X448Y1455D01*
X450Y1455D01*
X450Y1457D01*
X452Y1457D01*
X452Y1459D01*
X456Y1459D01*
X456Y1461D01*
X458Y1461D01*
X458Y1463D01*
X460Y1463D01*
X460Y1465D01*
X464Y1465D01*
X464Y1467D01*
X466Y1467D01*
X466Y1469D01*
X468Y1469D01*
X468Y1471D01*
X472Y1471D01*
X472Y1473D01*
X474Y1473D01*
X474Y1475D01*
X476Y1475D01*
X476Y1477D01*
X480Y1477D01*
X480Y1479D01*
X482Y1479D01*
X482Y1481D01*
X484Y1481D01*
X484Y1483D01*
X488Y1483D01*
X488Y1485D01*
X490Y1485D01*
X490Y1487D01*
X492Y1487D01*
X492Y1489D01*
X496Y1489D01*
X496Y1491D01*
X498Y1491D01*
X498Y1493D01*
X500Y1493D01*
X500Y1495D01*
X504Y1495D01*
X504Y1497D01*
X506Y1497D01*
X506Y1499D01*
X508Y1499D01*
X508Y1501D01*
X512Y1501D01*
X512Y1503D01*
X514Y1503D01*
X514Y1505D01*
X516Y1505D01*
X516Y1507D01*
X520Y1507D01*
X520Y1509D01*
X522Y1509D01*
X522Y1511D01*
X524Y1511D01*
X524Y1513D01*
X528Y1513D01*
X528Y1515D01*
X530Y1515D01*
X530Y1517D01*
X532Y1517D01*
X532Y1519D01*
X534Y1519D01*
X534Y1521D01*
X536Y1521D01*
X536Y1523D01*
X538Y1523D01*
X538Y1525D01*
X540Y1525D01*
X540Y1527D01*
X542Y1527D01*
X542Y1529D01*
X544Y1529D01*
X544Y1531D01*
X546Y1531D01*
X546Y1533D01*
X548Y1533D01*
X548Y1535D01*
X550Y1535D01*
X550Y1537D01*
X66Y1537D01*
G37*
D02*
G36*
X938Y1537D02*
X938Y1535D01*
X940Y1535D01*
X940Y1533D01*
X942Y1533D01*
X942Y1531D01*
X944Y1531D01*
X944Y1529D01*
X946Y1529D01*
X946Y1527D01*
X948Y1527D01*
X948Y1525D01*
X950Y1525D01*
X950Y1523D01*
X952Y1523D01*
X952Y1521D01*
X954Y1521D01*
X954Y1519D01*
X956Y1519D01*
X956Y1517D01*
X958Y1517D01*
X958Y1515D01*
X960Y1515D01*
X960Y1513D01*
X962Y1513D01*
X962Y1511D01*
X964Y1511D01*
X964Y1509D01*
X966Y1509D01*
X966Y1507D01*
X968Y1507D01*
X968Y1505D01*
X970Y1505D01*
X970Y1503D01*
X972Y1503D01*
X972Y1501D01*
X974Y1501D01*
X974Y1499D01*
X976Y1499D01*
X976Y1497D01*
X978Y1497D01*
X978Y1495D01*
X980Y1495D01*
X980Y1493D01*
X982Y1493D01*
X982Y1491D01*
X984Y1491D01*
X984Y1489D01*
X986Y1489D01*
X986Y1487D01*
X988Y1487D01*
X988Y1485D01*
X990Y1485D01*
X990Y1483D01*
X992Y1483D01*
X992Y1481D01*
X994Y1481D01*
X994Y1479D01*
X996Y1479D01*
X996Y1477D01*
X998Y1477D01*
X998Y1475D01*
X1000Y1475D01*
X1000Y1473D01*
X1002Y1473D01*
X1002Y1471D01*
X1004Y1471D01*
X1004Y1469D01*
X1006Y1469D01*
X1006Y1467D01*
X1008Y1467D01*
X1008Y1465D01*
X1010Y1465D01*
X1010Y1463D01*
X1012Y1463D01*
X1012Y1461D01*
X1014Y1461D01*
X1014Y1459D01*
X1016Y1459D01*
X1016Y1457D01*
X1018Y1457D01*
X1018Y1455D01*
X1020Y1455D01*
X1020Y1453D01*
X1022Y1453D01*
X1022Y1451D01*
X1024Y1451D01*
X1024Y1449D01*
X1026Y1449D01*
X1026Y1447D01*
X1028Y1447D01*
X1028Y1445D01*
X1156Y1445D01*
X1156Y1443D01*
X1164Y1443D01*
X1164Y1441D01*
X1166Y1441D01*
X1166Y1439D01*
X1170Y1439D01*
X1170Y1437D01*
X1172Y1437D01*
X1172Y1435D01*
X1176Y1435D01*
X1176Y1433D01*
X1178Y1433D01*
X1178Y1431D01*
X1180Y1431D01*
X1180Y1429D01*
X1182Y1429D01*
X1182Y1425D01*
X1184Y1425D01*
X1184Y1423D01*
X1186Y1423D01*
X1186Y1419D01*
X1188Y1419D01*
X1188Y1415D01*
X1190Y1415D01*
X1190Y1407D01*
X1192Y1407D01*
X1192Y1389D01*
X1190Y1389D01*
X1190Y1383D01*
X1188Y1383D01*
X1188Y1377D01*
X1186Y1377D01*
X1186Y1375D01*
X1184Y1375D01*
X1184Y1371D01*
X1182Y1371D01*
X1182Y1369D01*
X1180Y1369D01*
X1180Y1365D01*
X1178Y1365D01*
X1178Y1363D01*
X1174Y1363D01*
X1174Y1361D01*
X1172Y1361D01*
X1172Y1359D01*
X1170Y1359D01*
X1170Y1337D01*
X1172Y1337D01*
X1172Y1335D01*
X1176Y1335D01*
X1176Y1333D01*
X1178Y1333D01*
X1178Y1331D01*
X1180Y1331D01*
X1180Y1329D01*
X1182Y1329D01*
X1182Y1325D01*
X1184Y1325D01*
X1184Y1323D01*
X1186Y1323D01*
X1186Y1319D01*
X1188Y1319D01*
X1188Y1315D01*
X1190Y1315D01*
X1190Y1307D01*
X1192Y1307D01*
X1192Y1289D01*
X1190Y1289D01*
X1190Y1283D01*
X1188Y1283D01*
X1188Y1277D01*
X1186Y1277D01*
X1186Y1275D01*
X1184Y1275D01*
X1184Y1271D01*
X1182Y1271D01*
X1182Y1269D01*
X1180Y1269D01*
X1180Y1265D01*
X1178Y1265D01*
X1178Y1263D01*
X1174Y1263D01*
X1174Y1261D01*
X1172Y1261D01*
X1172Y1259D01*
X1170Y1259D01*
X1170Y1237D01*
X1172Y1237D01*
X1172Y1235D01*
X1176Y1235D01*
X1176Y1233D01*
X1178Y1233D01*
X1178Y1231D01*
X1180Y1231D01*
X1180Y1229D01*
X1182Y1229D01*
X1182Y1225D01*
X1184Y1225D01*
X1184Y1223D01*
X1186Y1223D01*
X1186Y1219D01*
X1188Y1219D01*
X1188Y1215D01*
X1190Y1215D01*
X1190Y1207D01*
X1192Y1207D01*
X1192Y1189D01*
X1190Y1189D01*
X1190Y1183D01*
X1188Y1183D01*
X1188Y1177D01*
X1186Y1177D01*
X1186Y1175D01*
X1184Y1175D01*
X1184Y1171D01*
X1182Y1171D01*
X1182Y1169D01*
X1180Y1169D01*
X1180Y1165D01*
X1178Y1165D01*
X1178Y1163D01*
X1174Y1163D01*
X1174Y1161D01*
X1172Y1161D01*
X1172Y1159D01*
X1170Y1159D01*
X1170Y1157D01*
X1166Y1157D01*
X1166Y1155D01*
X1162Y1155D01*
X1162Y1153D01*
X1154Y1153D01*
X1154Y1151D01*
X1266Y1151D01*
X1266Y1153D01*
X1268Y1153D01*
X1268Y1155D01*
X1270Y1155D01*
X1270Y1157D01*
X1272Y1157D01*
X1272Y1159D01*
X1274Y1159D01*
X1274Y1161D01*
X1276Y1161D01*
X1276Y1163D01*
X1278Y1163D01*
X1278Y1165D01*
X1280Y1165D01*
X1280Y1167D01*
X1282Y1167D01*
X1282Y1169D01*
X1284Y1169D01*
X1284Y1171D01*
X1286Y1171D01*
X1286Y1173D01*
X1288Y1173D01*
X1288Y1175D01*
X1290Y1175D01*
X1290Y1177D01*
X1292Y1177D01*
X1292Y1179D01*
X1294Y1179D01*
X1294Y1181D01*
X1296Y1181D01*
X1296Y1183D01*
X1298Y1183D01*
X1298Y1185D01*
X1300Y1185D01*
X1300Y1187D01*
X1302Y1187D01*
X1302Y1189D01*
X1304Y1189D01*
X1304Y1191D01*
X1306Y1191D01*
X1306Y1193D01*
X1308Y1193D01*
X1308Y1195D01*
X1310Y1195D01*
X1310Y1197D01*
X1312Y1197D01*
X1312Y1199D01*
X1314Y1199D01*
X1314Y1201D01*
X1316Y1201D01*
X1316Y1203D01*
X1318Y1203D01*
X1318Y1205D01*
X1320Y1205D01*
X1320Y1207D01*
X1322Y1207D01*
X1322Y1209D01*
X1324Y1209D01*
X1324Y1211D01*
X1326Y1211D01*
X1326Y1213D01*
X1328Y1213D01*
X1328Y1215D01*
X1330Y1215D01*
X1330Y1217D01*
X1332Y1217D01*
X1332Y1219D01*
X1334Y1219D01*
X1334Y1221D01*
X1336Y1221D01*
X1336Y1223D01*
X1338Y1223D01*
X1338Y1225D01*
X1340Y1225D01*
X1340Y1227D01*
X1342Y1227D01*
X1342Y1229D01*
X1344Y1229D01*
X1344Y1231D01*
X1346Y1231D01*
X1346Y1233D01*
X1348Y1233D01*
X1348Y1235D01*
X1350Y1235D01*
X1350Y1237D01*
X1352Y1237D01*
X1352Y1239D01*
X1354Y1239D01*
X1354Y1241D01*
X1356Y1241D01*
X1356Y1243D01*
X1358Y1243D01*
X1358Y1245D01*
X1360Y1245D01*
X1360Y1247D01*
X1362Y1247D01*
X1362Y1249D01*
X1364Y1249D01*
X1364Y1251D01*
X1366Y1251D01*
X1366Y1253D01*
X1368Y1253D01*
X1368Y1255D01*
X1370Y1255D01*
X1370Y1257D01*
X1372Y1257D01*
X1372Y1259D01*
X1374Y1259D01*
X1374Y1261D01*
X1376Y1261D01*
X1376Y1263D01*
X1378Y1263D01*
X1378Y1265D01*
X1380Y1265D01*
X1380Y1267D01*
X1382Y1267D01*
X1382Y1269D01*
X1384Y1269D01*
X1384Y1271D01*
X1386Y1271D01*
X1386Y1273D01*
X1388Y1273D01*
X1388Y1275D01*
X1390Y1275D01*
X1390Y1277D01*
X1392Y1277D01*
X1392Y1279D01*
X1394Y1279D01*
X1394Y1281D01*
X1396Y1281D01*
X1396Y1283D01*
X1398Y1283D01*
X1398Y1285D01*
X1400Y1285D01*
X1400Y1287D01*
X1402Y1287D01*
X1402Y1289D01*
X1404Y1289D01*
X1404Y1291D01*
X1406Y1291D01*
X1406Y1293D01*
X1408Y1293D01*
X1408Y1295D01*
X1410Y1295D01*
X1410Y1297D01*
X1412Y1297D01*
X1412Y1299D01*
X1414Y1299D01*
X1414Y1301D01*
X1416Y1301D01*
X1416Y1303D01*
X1418Y1303D01*
X1418Y1305D01*
X1420Y1305D01*
X1420Y1307D01*
X1422Y1307D01*
X1422Y1309D01*
X1424Y1309D01*
X1424Y1311D01*
X1426Y1311D01*
X1426Y1313D01*
X1428Y1313D01*
X1428Y1315D01*
X1430Y1315D01*
X1430Y1317D01*
X1432Y1317D01*
X1432Y1319D01*
X1434Y1319D01*
X1434Y1321D01*
X1436Y1321D01*
X1436Y1323D01*
X1438Y1323D01*
X1438Y1325D01*
X1440Y1325D01*
X1440Y1327D01*
X1442Y1327D01*
X1442Y1329D01*
X1444Y1329D01*
X1444Y1331D01*
X1446Y1331D01*
X1446Y1333D01*
X1448Y1333D01*
X1448Y1335D01*
X1450Y1335D01*
X1450Y1337D01*
X1452Y1337D01*
X1452Y1339D01*
X1454Y1339D01*
X1454Y1341D01*
X1456Y1341D01*
X1456Y1343D01*
X1458Y1343D01*
X1458Y1345D01*
X1460Y1345D01*
X1460Y1347D01*
X1462Y1347D01*
X1462Y1349D01*
X1464Y1349D01*
X1464Y1351D01*
X1466Y1351D01*
X1466Y1353D01*
X1468Y1353D01*
X1468Y1355D01*
X1470Y1355D01*
X1470Y1357D01*
X1472Y1357D01*
X1472Y1359D01*
X1474Y1359D01*
X1474Y1361D01*
X1476Y1361D01*
X1476Y1363D01*
X1478Y1363D01*
X1478Y1365D01*
X1480Y1365D01*
X1480Y1367D01*
X1482Y1367D01*
X1482Y1369D01*
X1484Y1369D01*
X1484Y1371D01*
X1486Y1371D01*
X1486Y1373D01*
X1488Y1373D01*
X1488Y1375D01*
X1490Y1375D01*
X1490Y1377D01*
X1492Y1377D01*
X1492Y1379D01*
X1494Y1379D01*
X1494Y1381D01*
X1496Y1381D01*
X1496Y1383D01*
X1498Y1383D01*
X1498Y1385D01*
X1500Y1385D01*
X1500Y1387D01*
X1502Y1387D01*
X1502Y1389D01*
X1504Y1389D01*
X1504Y1391D01*
X1506Y1391D01*
X1506Y1393D01*
X1508Y1393D01*
X1508Y1395D01*
X1510Y1395D01*
X1510Y1397D01*
X1512Y1397D01*
X1512Y1399D01*
X1514Y1399D01*
X1514Y1401D01*
X1516Y1401D01*
X1516Y1403D01*
X1518Y1403D01*
X1518Y1405D01*
X1520Y1405D01*
X1520Y1407D01*
X1522Y1407D01*
X1522Y1505D01*
X1524Y1505D01*
X1524Y1509D01*
X1526Y1509D01*
X1526Y1513D01*
X1528Y1513D01*
X1528Y1515D01*
X1530Y1515D01*
X1530Y1517D01*
X1532Y1517D01*
X1532Y1519D01*
X1534Y1519D01*
X1534Y1521D01*
X1536Y1521D01*
X1536Y1523D01*
X1538Y1523D01*
X1538Y1525D01*
X1540Y1525D01*
X1540Y1527D01*
X1542Y1527D01*
X1542Y1529D01*
X1544Y1529D01*
X1544Y1531D01*
X1546Y1531D01*
X1546Y1533D01*
X1548Y1533D01*
X1548Y1535D01*
X1550Y1535D01*
X1550Y1537D01*
X938Y1537D01*
G37*
D02*
G36*
X508Y1445D02*
X508Y1443D01*
X504Y1443D01*
X504Y1441D01*
X502Y1441D01*
X502Y1439D01*
X500Y1439D01*
X500Y1437D01*
X496Y1437D01*
X496Y1435D01*
X494Y1435D01*
X494Y1433D01*
X492Y1433D01*
X492Y1431D01*
X488Y1431D01*
X488Y1429D01*
X486Y1429D01*
X486Y1427D01*
X484Y1427D01*
X484Y1425D01*
X480Y1425D01*
X480Y1423D01*
X478Y1423D01*
X478Y1421D01*
X476Y1421D01*
X476Y1419D01*
X472Y1419D01*
X472Y1417D01*
X470Y1417D01*
X470Y1415D01*
X468Y1415D01*
X468Y1413D01*
X464Y1413D01*
X464Y1411D01*
X462Y1411D01*
X462Y1409D01*
X460Y1409D01*
X460Y1407D01*
X456Y1407D01*
X456Y1405D01*
X454Y1405D01*
X454Y1403D01*
X452Y1403D01*
X452Y1401D01*
X448Y1401D01*
X448Y1399D01*
X446Y1399D01*
X446Y1397D01*
X444Y1397D01*
X444Y1395D01*
X440Y1395D01*
X440Y1393D01*
X438Y1393D01*
X438Y1391D01*
X436Y1391D01*
X436Y1389D01*
X432Y1389D01*
X432Y1387D01*
X430Y1387D01*
X430Y1385D01*
X428Y1385D01*
X428Y1383D01*
X424Y1383D01*
X424Y1381D01*
X422Y1381D01*
X422Y1379D01*
X420Y1379D01*
X420Y1377D01*
X416Y1377D01*
X416Y1375D01*
X414Y1375D01*
X414Y1373D01*
X412Y1373D01*
X412Y1371D01*
X408Y1371D01*
X408Y1369D01*
X406Y1369D01*
X406Y1367D01*
X404Y1367D01*
X404Y1365D01*
X400Y1365D01*
X400Y1363D01*
X398Y1363D01*
X398Y1361D01*
X396Y1361D01*
X396Y1359D01*
X392Y1359D01*
X392Y1357D01*
X390Y1357D01*
X390Y1355D01*
X388Y1355D01*
X388Y1353D01*
X384Y1353D01*
X384Y1351D01*
X382Y1351D01*
X382Y1349D01*
X380Y1349D01*
X380Y1347D01*
X376Y1347D01*
X376Y1345D01*
X374Y1345D01*
X374Y1343D01*
X372Y1343D01*
X372Y1341D01*
X368Y1341D01*
X368Y1339D01*
X366Y1339D01*
X366Y1337D01*
X364Y1337D01*
X364Y1335D01*
X360Y1335D01*
X360Y1333D01*
X358Y1333D01*
X358Y1331D01*
X356Y1331D01*
X356Y1329D01*
X352Y1329D01*
X352Y1327D01*
X350Y1327D01*
X350Y1325D01*
X348Y1325D01*
X348Y1323D01*
X344Y1323D01*
X344Y1321D01*
X342Y1321D01*
X342Y1319D01*
X340Y1319D01*
X340Y1317D01*
X336Y1317D01*
X336Y1315D01*
X334Y1315D01*
X334Y1313D01*
X332Y1313D01*
X332Y1311D01*
X328Y1311D01*
X328Y1309D01*
X326Y1309D01*
X326Y1307D01*
X324Y1307D01*
X324Y1305D01*
X320Y1305D01*
X320Y1303D01*
X318Y1303D01*
X318Y1301D01*
X316Y1301D01*
X316Y1299D01*
X312Y1299D01*
X312Y1297D01*
X310Y1297D01*
X310Y1295D01*
X308Y1295D01*
X308Y1293D01*
X304Y1293D01*
X304Y1291D01*
X302Y1291D01*
X302Y1289D01*
X300Y1289D01*
X300Y1287D01*
X296Y1287D01*
X296Y1285D01*
X294Y1285D01*
X294Y1283D01*
X292Y1283D01*
X292Y1281D01*
X288Y1281D01*
X288Y1279D01*
X286Y1279D01*
X286Y1277D01*
X284Y1277D01*
X284Y1275D01*
X280Y1275D01*
X280Y1273D01*
X278Y1273D01*
X278Y1271D01*
X276Y1271D01*
X276Y1269D01*
X272Y1269D01*
X272Y1267D01*
X270Y1267D01*
X270Y1265D01*
X268Y1265D01*
X268Y1263D01*
X264Y1263D01*
X264Y1261D01*
X262Y1261D01*
X262Y1259D01*
X260Y1259D01*
X260Y1257D01*
X358Y1257D01*
X358Y1255D01*
X366Y1255D01*
X366Y1253D01*
X370Y1253D01*
X370Y1251D01*
X374Y1251D01*
X374Y1249D01*
X376Y1249D01*
X376Y1247D01*
X380Y1247D01*
X380Y1245D01*
X382Y1245D01*
X382Y1243D01*
X384Y1243D01*
X384Y1241D01*
X386Y1241D01*
X386Y1239D01*
X388Y1239D01*
X388Y1237D01*
X390Y1237D01*
X390Y1235D01*
X392Y1235D01*
X392Y1233D01*
X394Y1233D01*
X394Y1229D01*
X396Y1229D01*
X396Y1227D01*
X398Y1227D01*
X398Y1223D01*
X400Y1223D01*
X400Y1217D01*
X402Y1217D01*
X402Y1207D01*
X404Y1207D01*
X404Y1189D01*
X402Y1189D01*
X402Y1181D01*
X400Y1181D01*
X400Y1175D01*
X398Y1175D01*
X398Y1171D01*
X396Y1171D01*
X396Y1167D01*
X394Y1167D01*
X394Y1165D01*
X392Y1165D01*
X392Y1161D01*
X390Y1161D01*
X390Y1159D01*
X388Y1159D01*
X388Y1157D01*
X386Y1157D01*
X386Y1155D01*
X384Y1155D01*
X384Y1153D01*
X382Y1153D01*
X382Y1151D01*
X378Y1151D01*
X378Y1149D01*
X376Y1149D01*
X376Y1147D01*
X372Y1147D01*
X372Y1145D01*
X368Y1145D01*
X368Y1143D01*
X364Y1143D01*
X364Y1141D01*
X356Y1141D01*
X356Y1139D01*
X498Y1139D01*
X498Y1141D01*
X500Y1141D01*
X500Y1143D01*
X504Y1143D01*
X504Y1145D01*
X506Y1145D01*
X506Y1147D01*
X508Y1147D01*
X508Y1149D01*
X512Y1149D01*
X512Y1151D01*
X514Y1151D01*
X514Y1153D01*
X516Y1153D01*
X516Y1155D01*
X520Y1155D01*
X520Y1157D01*
X522Y1157D01*
X522Y1159D01*
X524Y1159D01*
X524Y1161D01*
X528Y1161D01*
X528Y1163D01*
X530Y1163D01*
X530Y1165D01*
X532Y1165D01*
X532Y1167D01*
X536Y1167D01*
X536Y1169D01*
X538Y1169D01*
X538Y1171D01*
X540Y1171D01*
X540Y1173D01*
X542Y1173D01*
X542Y1175D01*
X546Y1175D01*
X546Y1177D01*
X548Y1177D01*
X548Y1179D01*
X550Y1179D01*
X550Y1181D01*
X554Y1181D01*
X554Y1183D01*
X556Y1183D01*
X556Y1185D01*
X558Y1185D01*
X558Y1187D01*
X562Y1187D01*
X562Y1189D01*
X564Y1189D01*
X564Y1191D01*
X566Y1191D01*
X566Y1193D01*
X570Y1193D01*
X570Y1195D01*
X572Y1195D01*
X572Y1197D01*
X574Y1197D01*
X574Y1199D01*
X578Y1199D01*
X578Y1201D01*
X580Y1201D01*
X580Y1203D01*
X582Y1203D01*
X582Y1205D01*
X586Y1205D01*
X586Y1207D01*
X588Y1207D01*
X588Y1209D01*
X590Y1209D01*
X590Y1211D01*
X594Y1211D01*
X594Y1213D01*
X596Y1213D01*
X596Y1215D01*
X598Y1215D01*
X598Y1217D01*
X602Y1217D01*
X602Y1219D01*
X604Y1219D01*
X604Y1221D01*
X606Y1221D01*
X606Y1223D01*
X610Y1223D01*
X610Y1225D01*
X612Y1225D01*
X612Y1227D01*
X614Y1227D01*
X614Y1229D01*
X618Y1229D01*
X618Y1231D01*
X620Y1231D01*
X620Y1233D01*
X622Y1233D01*
X622Y1235D01*
X626Y1235D01*
X626Y1237D01*
X628Y1237D01*
X628Y1239D01*
X630Y1239D01*
X630Y1241D01*
X634Y1241D01*
X634Y1243D01*
X636Y1243D01*
X636Y1245D01*
X638Y1245D01*
X638Y1247D01*
X642Y1247D01*
X642Y1249D01*
X644Y1249D01*
X644Y1251D01*
X646Y1251D01*
X646Y1253D01*
X650Y1253D01*
X650Y1255D01*
X652Y1255D01*
X652Y1257D01*
X654Y1257D01*
X654Y1259D01*
X658Y1259D01*
X658Y1261D01*
X660Y1261D01*
X660Y1263D01*
X662Y1263D01*
X662Y1265D01*
X664Y1265D01*
X664Y1267D01*
X668Y1267D01*
X668Y1269D01*
X670Y1269D01*
X670Y1271D01*
X672Y1271D01*
X672Y1273D01*
X676Y1273D01*
X676Y1275D01*
X678Y1275D01*
X678Y1277D01*
X680Y1277D01*
X680Y1279D01*
X684Y1279D01*
X684Y1281D01*
X686Y1281D01*
X686Y1283D01*
X688Y1283D01*
X688Y1285D01*
X692Y1285D01*
X692Y1287D01*
X694Y1287D01*
X694Y1289D01*
X696Y1289D01*
X696Y1299D01*
X698Y1299D01*
X698Y1311D01*
X700Y1311D01*
X700Y1317D01*
X702Y1317D01*
X702Y1321D01*
X704Y1321D01*
X704Y1325D01*
X706Y1325D01*
X706Y1327D01*
X708Y1327D01*
X708Y1329D01*
X710Y1329D01*
X710Y1331D01*
X712Y1331D01*
X712Y1333D01*
X714Y1333D01*
X714Y1335D01*
X716Y1335D01*
X716Y1337D01*
X718Y1337D01*
X718Y1339D01*
X720Y1339D01*
X720Y1359D01*
X716Y1359D01*
X716Y1361D01*
X714Y1361D01*
X714Y1363D01*
X712Y1363D01*
X712Y1365D01*
X710Y1365D01*
X710Y1367D01*
X708Y1367D01*
X708Y1369D01*
X706Y1369D01*
X706Y1373D01*
X704Y1373D01*
X704Y1375D01*
X702Y1375D01*
X702Y1379D01*
X700Y1379D01*
X700Y1385D01*
X698Y1385D01*
X698Y1397D01*
X696Y1397D01*
X696Y1399D01*
X698Y1399D01*
X698Y1411D01*
X700Y1411D01*
X700Y1417D01*
X702Y1417D01*
X702Y1421D01*
X704Y1421D01*
X704Y1425D01*
X706Y1425D01*
X706Y1427D01*
X708Y1427D01*
X708Y1429D01*
X710Y1429D01*
X710Y1431D01*
X712Y1431D01*
X712Y1433D01*
X714Y1433D01*
X714Y1435D01*
X716Y1435D01*
X716Y1437D01*
X718Y1437D01*
X718Y1439D01*
X722Y1439D01*
X722Y1441D01*
X726Y1441D01*
X726Y1443D01*
X732Y1443D01*
X732Y1445D01*
X508Y1445D01*
G37*
D02*
G36*
X1030Y1445D02*
X1030Y1443D01*
X1032Y1443D01*
X1032Y1441D01*
X1034Y1441D01*
X1034Y1439D01*
X1036Y1439D01*
X1036Y1437D01*
X1038Y1437D01*
X1038Y1435D01*
X1040Y1435D01*
X1040Y1433D01*
X1042Y1433D01*
X1042Y1431D01*
X1044Y1431D01*
X1044Y1429D01*
X1046Y1429D01*
X1046Y1427D01*
X1048Y1427D01*
X1048Y1425D01*
X1050Y1425D01*
X1050Y1423D01*
X1052Y1423D01*
X1052Y1421D01*
X1054Y1421D01*
X1054Y1419D01*
X1102Y1419D01*
X1102Y1421D01*
X1104Y1421D01*
X1104Y1425D01*
X1106Y1425D01*
X1106Y1427D01*
X1108Y1427D01*
X1108Y1429D01*
X1110Y1429D01*
X1110Y1431D01*
X1112Y1431D01*
X1112Y1433D01*
X1114Y1433D01*
X1114Y1435D01*
X1116Y1435D01*
X1116Y1437D01*
X1118Y1437D01*
X1118Y1439D01*
X1122Y1439D01*
X1122Y1441D01*
X1126Y1441D01*
X1126Y1443D01*
X1132Y1443D01*
X1132Y1445D01*
X1030Y1445D01*
G37*
D02*
G36*
X256Y1257D02*
X256Y1255D01*
X254Y1255D01*
X254Y1253D01*
X252Y1253D01*
X252Y1251D01*
X248Y1251D01*
X248Y1249D01*
X246Y1249D01*
X246Y1247D01*
X244Y1247D01*
X244Y1245D01*
X240Y1245D01*
X240Y1243D01*
X238Y1243D01*
X238Y1241D01*
X236Y1241D01*
X236Y1239D01*
X232Y1239D01*
X232Y1237D01*
X230Y1237D01*
X230Y1235D01*
X228Y1235D01*
X228Y1233D01*
X224Y1233D01*
X224Y1231D01*
X222Y1231D01*
X222Y1229D01*
X220Y1229D01*
X220Y1227D01*
X216Y1227D01*
X216Y1225D01*
X214Y1225D01*
X214Y1223D01*
X212Y1223D01*
X212Y1221D01*
X208Y1221D01*
X208Y1219D01*
X206Y1219D01*
X206Y1217D01*
X204Y1217D01*
X204Y1215D01*
X200Y1215D01*
X200Y1213D01*
X198Y1213D01*
X198Y1211D01*
X196Y1211D01*
X196Y1209D01*
X192Y1209D01*
X192Y1207D01*
X190Y1207D01*
X190Y1205D01*
X188Y1205D01*
X188Y1203D01*
X184Y1203D01*
X184Y1201D01*
X182Y1201D01*
X182Y1199D01*
X180Y1199D01*
X180Y1197D01*
X176Y1197D01*
X176Y1195D01*
X174Y1195D01*
X174Y1193D01*
X172Y1193D01*
X172Y1191D01*
X168Y1191D01*
X168Y1189D01*
X166Y1189D01*
X166Y1145D01*
X256Y1145D01*
X256Y1143D01*
X264Y1143D01*
X264Y1141D01*
X266Y1141D01*
X266Y1139D01*
X334Y1139D01*
X334Y1141D01*
X326Y1141D01*
X326Y1143D01*
X320Y1143D01*
X320Y1145D01*
X316Y1145D01*
X316Y1147D01*
X312Y1147D01*
X312Y1149D01*
X310Y1149D01*
X310Y1151D01*
X308Y1151D01*
X308Y1153D01*
X306Y1153D01*
X306Y1155D01*
X302Y1155D01*
X302Y1157D01*
X300Y1157D01*
X300Y1161D01*
X298Y1161D01*
X298Y1163D01*
X296Y1163D01*
X296Y1165D01*
X294Y1165D01*
X294Y1169D01*
X292Y1169D01*
X292Y1173D01*
X290Y1173D01*
X290Y1177D01*
X288Y1177D01*
X288Y1183D01*
X286Y1183D01*
X286Y1197D01*
X284Y1197D01*
X284Y1199D01*
X286Y1199D01*
X286Y1213D01*
X288Y1213D01*
X288Y1219D01*
X290Y1219D01*
X290Y1225D01*
X292Y1225D01*
X292Y1227D01*
X294Y1227D01*
X294Y1231D01*
X296Y1231D01*
X296Y1233D01*
X298Y1233D01*
X298Y1237D01*
X300Y1237D01*
X300Y1239D01*
X302Y1239D01*
X302Y1241D01*
X304Y1241D01*
X304Y1243D01*
X306Y1243D01*
X306Y1245D01*
X310Y1245D01*
X310Y1247D01*
X312Y1247D01*
X312Y1249D01*
X316Y1249D01*
X316Y1251D01*
X318Y1251D01*
X318Y1253D01*
X324Y1253D01*
X324Y1255D01*
X330Y1255D01*
X330Y1257D01*
X256Y1257D01*
G37*
D02*
G36*
X1432Y1257D02*
X1432Y1255D01*
X1430Y1255D01*
X1430Y1253D01*
X1428Y1253D01*
X1428Y1251D01*
X1426Y1251D01*
X1426Y1249D01*
X1424Y1249D01*
X1424Y1247D01*
X1422Y1247D01*
X1422Y1245D01*
X1420Y1245D01*
X1420Y1243D01*
X1418Y1243D01*
X1418Y1241D01*
X1416Y1241D01*
X1416Y1239D01*
X1414Y1239D01*
X1414Y1237D01*
X1412Y1237D01*
X1412Y1235D01*
X1410Y1235D01*
X1410Y1233D01*
X1408Y1233D01*
X1408Y1231D01*
X1406Y1231D01*
X1406Y1229D01*
X1404Y1229D01*
X1404Y1227D01*
X1402Y1227D01*
X1402Y1225D01*
X1400Y1225D01*
X1400Y1223D01*
X1398Y1223D01*
X1398Y1221D01*
X1396Y1221D01*
X1396Y1219D01*
X1394Y1219D01*
X1394Y1217D01*
X1392Y1217D01*
X1392Y1215D01*
X1390Y1215D01*
X1390Y1213D01*
X1388Y1213D01*
X1388Y1211D01*
X1386Y1211D01*
X1386Y1209D01*
X1384Y1209D01*
X1384Y1207D01*
X1382Y1207D01*
X1382Y1205D01*
X1380Y1205D01*
X1380Y1203D01*
X1378Y1203D01*
X1378Y1201D01*
X1376Y1201D01*
X1376Y1199D01*
X1374Y1199D01*
X1374Y1197D01*
X1372Y1197D01*
X1372Y1195D01*
X1370Y1195D01*
X1370Y1193D01*
X1368Y1193D01*
X1368Y1191D01*
X1366Y1191D01*
X1366Y1189D01*
X1364Y1189D01*
X1364Y1187D01*
X1362Y1187D01*
X1362Y1185D01*
X1360Y1185D01*
X1360Y1183D01*
X1358Y1183D01*
X1358Y1181D01*
X1356Y1181D01*
X1356Y1179D01*
X1354Y1179D01*
X1354Y1177D01*
X1352Y1177D01*
X1352Y1175D01*
X1350Y1175D01*
X1350Y1173D01*
X1348Y1173D01*
X1348Y1171D01*
X1346Y1171D01*
X1346Y1169D01*
X1344Y1169D01*
X1344Y1167D01*
X1342Y1167D01*
X1342Y1165D01*
X1340Y1165D01*
X1340Y1163D01*
X1338Y1163D01*
X1338Y1161D01*
X1336Y1161D01*
X1336Y1159D01*
X1334Y1159D01*
X1334Y1157D01*
X1332Y1157D01*
X1332Y1155D01*
X1330Y1155D01*
X1330Y1153D01*
X1328Y1153D01*
X1328Y1151D01*
X1326Y1151D01*
X1326Y1149D01*
X1324Y1149D01*
X1324Y1147D01*
X1322Y1147D01*
X1322Y1145D01*
X1320Y1145D01*
X1320Y1143D01*
X1318Y1143D01*
X1318Y1141D01*
X1316Y1141D01*
X1316Y1139D01*
X1314Y1139D01*
X1314Y1137D01*
X1312Y1137D01*
X1312Y1135D01*
X1310Y1135D01*
X1310Y1133D01*
X1308Y1133D01*
X1308Y1131D01*
X1306Y1131D01*
X1306Y1129D01*
X1304Y1129D01*
X1304Y1127D01*
X1302Y1127D01*
X1302Y1125D01*
X1300Y1125D01*
X1300Y1123D01*
X1298Y1123D01*
X1298Y1121D01*
X1296Y1121D01*
X1296Y1119D01*
X1294Y1119D01*
X1294Y1117D01*
X1292Y1117D01*
X1292Y1115D01*
X1290Y1115D01*
X1290Y1113D01*
X1288Y1113D01*
X1288Y1111D01*
X1286Y1111D01*
X1286Y1109D01*
X1284Y1109D01*
X1284Y1107D01*
X1282Y1107D01*
X1282Y1105D01*
X1280Y1105D01*
X1280Y1103D01*
X1278Y1103D01*
X1278Y1101D01*
X1276Y1101D01*
X1276Y1099D01*
X1274Y1099D01*
X1274Y1097D01*
X1272Y1097D01*
X1272Y1095D01*
X1270Y1095D01*
X1270Y1093D01*
X1268Y1093D01*
X1268Y1091D01*
X1266Y1091D01*
X1266Y1089D01*
X1264Y1089D01*
X1264Y1087D01*
X1262Y1087D01*
X1262Y1085D01*
X1260Y1085D01*
X1260Y1083D01*
X1258Y1083D01*
X1258Y1081D01*
X1256Y1081D01*
X1256Y1079D01*
X1252Y1079D01*
X1252Y1077D01*
X1282Y1077D01*
X1282Y1079D01*
X1286Y1079D01*
X1286Y1081D01*
X1288Y1081D01*
X1288Y1083D01*
X1290Y1083D01*
X1290Y1085D01*
X1292Y1085D01*
X1292Y1087D01*
X1296Y1087D01*
X1296Y1089D01*
X1298Y1089D01*
X1298Y1091D01*
X1300Y1091D01*
X1300Y1093D01*
X1302Y1093D01*
X1302Y1095D01*
X1306Y1095D01*
X1306Y1097D01*
X1308Y1097D01*
X1308Y1099D01*
X1310Y1099D01*
X1310Y1101D01*
X1314Y1101D01*
X1314Y1103D01*
X1316Y1103D01*
X1316Y1105D01*
X1318Y1105D01*
X1318Y1107D01*
X1320Y1107D01*
X1320Y1109D01*
X1324Y1109D01*
X1324Y1111D01*
X1326Y1111D01*
X1326Y1113D01*
X1328Y1113D01*
X1328Y1115D01*
X1330Y1115D01*
X1330Y1117D01*
X1334Y1117D01*
X1334Y1119D01*
X1342Y1119D01*
X1342Y1121D01*
X1534Y1121D01*
X1534Y1141D01*
X1526Y1141D01*
X1526Y1143D01*
X1520Y1143D01*
X1520Y1145D01*
X1516Y1145D01*
X1516Y1147D01*
X1512Y1147D01*
X1512Y1149D01*
X1510Y1149D01*
X1510Y1151D01*
X1508Y1151D01*
X1508Y1153D01*
X1506Y1153D01*
X1506Y1155D01*
X1502Y1155D01*
X1502Y1157D01*
X1500Y1157D01*
X1500Y1161D01*
X1498Y1161D01*
X1498Y1163D01*
X1496Y1163D01*
X1496Y1165D01*
X1494Y1165D01*
X1494Y1169D01*
X1492Y1169D01*
X1492Y1173D01*
X1490Y1173D01*
X1490Y1177D01*
X1488Y1177D01*
X1488Y1183D01*
X1486Y1183D01*
X1486Y1197D01*
X1484Y1197D01*
X1484Y1199D01*
X1486Y1199D01*
X1486Y1213D01*
X1488Y1213D01*
X1488Y1219D01*
X1490Y1219D01*
X1490Y1225D01*
X1492Y1225D01*
X1492Y1227D01*
X1494Y1227D01*
X1494Y1231D01*
X1496Y1231D01*
X1496Y1233D01*
X1498Y1233D01*
X1498Y1237D01*
X1500Y1237D01*
X1500Y1239D01*
X1502Y1239D01*
X1502Y1241D01*
X1504Y1241D01*
X1504Y1243D01*
X1506Y1243D01*
X1506Y1245D01*
X1510Y1245D01*
X1510Y1247D01*
X1512Y1247D01*
X1512Y1249D01*
X1516Y1249D01*
X1516Y1251D01*
X1518Y1251D01*
X1518Y1253D01*
X1524Y1253D01*
X1524Y1255D01*
X1530Y1255D01*
X1530Y1257D01*
X1432Y1257D01*
G37*
D02*
G36*
X682Y1225D02*
X682Y1223D01*
X680Y1223D01*
X680Y1221D01*
X678Y1221D01*
X678Y1219D01*
X674Y1219D01*
X674Y1217D01*
X672Y1217D01*
X672Y1215D01*
X670Y1215D01*
X670Y1213D01*
X666Y1213D01*
X666Y1211D01*
X664Y1211D01*
X664Y1209D01*
X662Y1209D01*
X662Y1207D01*
X658Y1207D01*
X658Y1205D01*
X656Y1205D01*
X656Y1203D01*
X654Y1203D01*
X654Y1201D01*
X650Y1201D01*
X650Y1199D01*
X648Y1199D01*
X648Y1197D01*
X646Y1197D01*
X646Y1195D01*
X642Y1195D01*
X642Y1193D01*
X640Y1193D01*
X640Y1191D01*
X638Y1191D01*
X638Y1189D01*
X634Y1189D01*
X634Y1187D01*
X632Y1187D01*
X632Y1185D01*
X630Y1185D01*
X630Y1183D01*
X626Y1183D01*
X626Y1181D01*
X624Y1181D01*
X624Y1179D01*
X622Y1179D01*
X622Y1177D01*
X618Y1177D01*
X618Y1175D01*
X616Y1175D01*
X616Y1173D01*
X614Y1173D01*
X614Y1171D01*
X610Y1171D01*
X610Y1169D01*
X608Y1169D01*
X608Y1167D01*
X606Y1167D01*
X606Y1165D01*
X602Y1165D01*
X602Y1163D01*
X600Y1163D01*
X600Y1161D01*
X598Y1161D01*
X598Y1159D01*
X594Y1159D01*
X594Y1157D01*
X592Y1157D01*
X592Y1155D01*
X590Y1155D01*
X590Y1153D01*
X586Y1153D01*
X586Y1151D01*
X584Y1151D01*
X584Y1149D01*
X582Y1149D01*
X582Y1147D01*
X578Y1147D01*
X578Y1145D01*
X576Y1145D01*
X576Y1143D01*
X574Y1143D01*
X574Y1141D01*
X572Y1141D01*
X572Y1139D01*
X568Y1139D01*
X568Y1137D01*
X566Y1137D01*
X566Y1135D01*
X564Y1135D01*
X564Y1133D01*
X560Y1133D01*
X560Y1131D01*
X558Y1131D01*
X558Y1129D01*
X556Y1129D01*
X556Y1127D01*
X552Y1127D01*
X552Y1125D01*
X550Y1125D01*
X550Y1123D01*
X548Y1123D01*
X548Y1121D01*
X544Y1121D01*
X544Y1119D01*
X542Y1119D01*
X542Y1117D01*
X540Y1117D01*
X540Y1115D01*
X536Y1115D01*
X536Y1113D01*
X534Y1113D01*
X534Y1111D01*
X532Y1111D01*
X532Y1109D01*
X528Y1109D01*
X528Y1107D01*
X526Y1107D01*
X526Y1105D01*
X524Y1105D01*
X524Y1103D01*
X520Y1103D01*
X520Y1101D01*
X518Y1101D01*
X518Y1099D01*
X516Y1099D01*
X516Y1097D01*
X512Y1097D01*
X512Y1095D01*
X510Y1095D01*
X510Y1093D01*
X508Y1093D01*
X508Y1091D01*
X504Y1091D01*
X504Y1089D01*
X502Y1089D01*
X502Y1087D01*
X500Y1087D01*
X500Y1085D01*
X496Y1085D01*
X496Y1083D01*
X494Y1083D01*
X494Y1081D01*
X492Y1081D01*
X492Y1079D01*
X488Y1079D01*
X488Y1077D01*
X838Y1077D01*
X838Y1079D01*
X834Y1079D01*
X834Y1081D01*
X830Y1081D01*
X830Y1083D01*
X828Y1083D01*
X828Y1085D01*
X826Y1085D01*
X826Y1087D01*
X824Y1087D01*
X824Y1089D01*
X822Y1089D01*
X822Y1091D01*
X820Y1091D01*
X820Y1093D01*
X818Y1093D01*
X818Y1095D01*
X816Y1095D01*
X816Y1097D01*
X814Y1097D01*
X814Y1099D01*
X812Y1099D01*
X812Y1101D01*
X810Y1101D01*
X810Y1103D01*
X808Y1103D01*
X808Y1105D01*
X806Y1105D01*
X806Y1107D01*
X804Y1107D01*
X804Y1109D01*
X802Y1109D01*
X802Y1111D01*
X800Y1111D01*
X800Y1113D01*
X798Y1113D01*
X798Y1115D01*
X796Y1115D01*
X796Y1117D01*
X794Y1117D01*
X794Y1119D01*
X792Y1119D01*
X792Y1121D01*
X790Y1121D01*
X790Y1123D01*
X788Y1123D01*
X788Y1125D01*
X786Y1125D01*
X786Y1127D01*
X784Y1127D01*
X784Y1129D01*
X782Y1129D01*
X782Y1131D01*
X780Y1131D01*
X780Y1133D01*
X778Y1133D01*
X778Y1135D01*
X776Y1135D01*
X776Y1137D01*
X774Y1137D01*
X774Y1139D01*
X772Y1139D01*
X772Y1141D01*
X770Y1141D01*
X770Y1143D01*
X768Y1143D01*
X768Y1145D01*
X766Y1145D01*
X766Y1147D01*
X764Y1147D01*
X764Y1149D01*
X762Y1149D01*
X762Y1151D01*
X734Y1151D01*
X734Y1153D01*
X728Y1153D01*
X728Y1155D01*
X724Y1155D01*
X724Y1157D01*
X720Y1157D01*
X720Y1159D01*
X716Y1159D01*
X716Y1161D01*
X714Y1161D01*
X714Y1163D01*
X712Y1163D01*
X712Y1165D01*
X710Y1165D01*
X710Y1167D01*
X708Y1167D01*
X708Y1169D01*
X706Y1169D01*
X706Y1173D01*
X704Y1173D01*
X704Y1175D01*
X702Y1175D01*
X702Y1179D01*
X700Y1179D01*
X700Y1185D01*
X698Y1185D01*
X698Y1197D01*
X696Y1197D01*
X696Y1199D01*
X698Y1199D01*
X698Y1211D01*
X700Y1211D01*
X700Y1217D01*
X702Y1217D01*
X702Y1225D01*
X682Y1225D01*
G37*
D02*
G36*
X824Y1151D02*
X824Y1149D01*
X1264Y1149D01*
X1264Y1151D01*
X824Y1151D01*
G37*
D02*
G36*
X824Y1151D02*
X824Y1149D01*
X1264Y1149D01*
X1264Y1151D01*
X824Y1151D01*
G37*
D02*
G36*
X826Y1149D02*
X826Y1147D01*
X828Y1147D01*
X828Y1145D01*
X830Y1145D01*
X830Y1143D01*
X832Y1143D01*
X832Y1141D01*
X834Y1141D01*
X834Y1139D01*
X836Y1139D01*
X836Y1137D01*
X838Y1137D01*
X838Y1135D01*
X840Y1135D01*
X840Y1133D01*
X842Y1133D01*
X842Y1131D01*
X844Y1131D01*
X844Y1129D01*
X846Y1129D01*
X846Y1127D01*
X848Y1127D01*
X848Y1125D01*
X850Y1125D01*
X850Y1123D01*
X852Y1123D01*
X852Y1121D01*
X1236Y1121D01*
X1236Y1123D01*
X1238Y1123D01*
X1238Y1125D01*
X1240Y1125D01*
X1240Y1127D01*
X1242Y1127D01*
X1242Y1129D01*
X1244Y1129D01*
X1244Y1131D01*
X1246Y1131D01*
X1246Y1133D01*
X1248Y1133D01*
X1248Y1135D01*
X1250Y1135D01*
X1250Y1137D01*
X1252Y1137D01*
X1252Y1139D01*
X1254Y1139D01*
X1254Y1141D01*
X1256Y1141D01*
X1256Y1143D01*
X1258Y1143D01*
X1258Y1145D01*
X1260Y1145D01*
X1260Y1147D01*
X1262Y1147D01*
X1262Y1149D01*
X826Y1149D01*
G37*
D02*
G36*
X166Y1145D02*
X166Y1051D01*
X234Y1051D01*
X234Y1053D01*
X228Y1053D01*
X228Y1055D01*
X224Y1055D01*
X224Y1057D01*
X220Y1057D01*
X220Y1059D01*
X216Y1059D01*
X216Y1061D01*
X214Y1061D01*
X214Y1063D01*
X212Y1063D01*
X212Y1065D01*
X210Y1065D01*
X210Y1067D01*
X208Y1067D01*
X208Y1069D01*
X206Y1069D01*
X206Y1073D01*
X204Y1073D01*
X204Y1075D01*
X202Y1075D01*
X202Y1079D01*
X200Y1079D01*
X200Y1085D01*
X198Y1085D01*
X198Y1097D01*
X196Y1097D01*
X196Y1099D01*
X198Y1099D01*
X198Y1111D01*
X200Y1111D01*
X200Y1117D01*
X202Y1117D01*
X202Y1121D01*
X204Y1121D01*
X204Y1125D01*
X206Y1125D01*
X206Y1127D01*
X208Y1127D01*
X208Y1129D01*
X210Y1129D01*
X210Y1131D01*
X212Y1131D01*
X212Y1133D01*
X214Y1133D01*
X214Y1135D01*
X216Y1135D01*
X216Y1137D01*
X218Y1137D01*
X218Y1139D01*
X222Y1139D01*
X222Y1141D01*
X226Y1141D01*
X226Y1143D01*
X232Y1143D01*
X232Y1145D01*
X166Y1145D01*
G37*
D02*
G36*
X270Y1139D02*
X270Y1137D01*
X496Y1137D01*
X496Y1139D01*
X270Y1139D01*
G37*
D02*
G36*
X270Y1139D02*
X270Y1137D01*
X496Y1137D01*
X496Y1139D01*
X270Y1139D01*
G37*
D02*
G36*
X272Y1137D02*
X272Y1135D01*
X276Y1135D01*
X276Y1133D01*
X278Y1133D01*
X278Y1131D01*
X280Y1131D01*
X280Y1129D01*
X282Y1129D01*
X282Y1125D01*
X284Y1125D01*
X284Y1123D01*
X286Y1123D01*
X286Y1119D01*
X288Y1119D01*
X288Y1115D01*
X290Y1115D01*
X290Y1107D01*
X292Y1107D01*
X292Y1089D01*
X290Y1089D01*
X290Y1083D01*
X288Y1083D01*
X288Y1077D01*
X286Y1077D01*
X286Y1075D01*
X284Y1075D01*
X284Y1071D01*
X282Y1071D01*
X282Y1069D01*
X280Y1069D01*
X280Y1065D01*
X278Y1065D01*
X278Y1063D01*
X274Y1063D01*
X274Y1061D01*
X272Y1061D01*
X272Y1059D01*
X270Y1059D01*
X270Y1057D01*
X266Y1057D01*
X266Y1055D01*
X262Y1055D01*
X262Y1053D01*
X254Y1053D01*
X254Y1051D01*
X382Y1051D01*
X382Y1053D01*
X384Y1053D01*
X384Y1055D01*
X386Y1055D01*
X386Y1057D01*
X390Y1057D01*
X390Y1059D01*
X392Y1059D01*
X392Y1061D01*
X394Y1061D01*
X394Y1063D01*
X398Y1063D01*
X398Y1065D01*
X400Y1065D01*
X400Y1067D01*
X402Y1067D01*
X402Y1069D01*
X406Y1069D01*
X406Y1071D01*
X408Y1071D01*
X408Y1073D01*
X410Y1073D01*
X410Y1075D01*
X412Y1075D01*
X412Y1077D01*
X416Y1077D01*
X416Y1079D01*
X418Y1079D01*
X418Y1081D01*
X420Y1081D01*
X420Y1083D01*
X424Y1083D01*
X424Y1085D01*
X426Y1085D01*
X426Y1087D01*
X428Y1087D01*
X428Y1089D01*
X432Y1089D01*
X432Y1091D01*
X434Y1091D01*
X434Y1093D01*
X436Y1093D01*
X436Y1095D01*
X440Y1095D01*
X440Y1097D01*
X442Y1097D01*
X442Y1099D01*
X444Y1099D01*
X444Y1101D01*
X448Y1101D01*
X448Y1103D01*
X450Y1103D01*
X450Y1105D01*
X452Y1105D01*
X452Y1107D01*
X456Y1107D01*
X456Y1109D01*
X458Y1109D01*
X458Y1111D01*
X460Y1111D01*
X460Y1113D01*
X464Y1113D01*
X464Y1115D01*
X466Y1115D01*
X466Y1117D01*
X468Y1117D01*
X468Y1119D01*
X472Y1119D01*
X472Y1121D01*
X474Y1121D01*
X474Y1123D01*
X476Y1123D01*
X476Y1125D01*
X480Y1125D01*
X480Y1127D01*
X482Y1127D01*
X482Y1129D01*
X484Y1129D01*
X484Y1131D01*
X488Y1131D01*
X488Y1133D01*
X490Y1133D01*
X490Y1135D01*
X492Y1135D01*
X492Y1137D01*
X272Y1137D01*
G37*
D02*
G36*
X486Y1077D02*
X486Y1075D01*
X1280Y1075D01*
X1280Y1077D01*
X486Y1077D01*
G37*
D02*
G36*
X486Y1077D02*
X486Y1075D01*
X1280Y1075D01*
X1280Y1077D01*
X486Y1077D01*
G37*
D02*
G36*
X484Y1075D02*
X484Y1073D01*
X480Y1073D01*
X480Y1071D01*
X478Y1071D01*
X478Y1069D01*
X476Y1069D01*
X476Y1067D01*
X472Y1067D01*
X472Y1065D01*
X470Y1065D01*
X470Y1063D01*
X468Y1063D01*
X468Y1061D01*
X464Y1061D01*
X464Y1059D01*
X462Y1059D01*
X462Y1057D01*
X460Y1057D01*
X460Y1055D01*
X456Y1055D01*
X456Y1053D01*
X454Y1053D01*
X454Y1051D01*
X452Y1051D01*
X452Y1049D01*
X450Y1049D01*
X450Y1047D01*
X446Y1047D01*
X446Y1045D01*
X444Y1045D01*
X444Y1043D01*
X442Y1043D01*
X442Y1041D01*
X438Y1041D01*
X438Y1039D01*
X436Y1039D01*
X436Y1037D01*
X434Y1037D01*
X434Y1035D01*
X430Y1035D01*
X430Y1033D01*
X428Y1033D01*
X428Y1031D01*
X426Y1031D01*
X426Y1029D01*
X422Y1029D01*
X422Y1027D01*
X420Y1027D01*
X420Y1025D01*
X418Y1025D01*
X418Y1023D01*
X414Y1023D01*
X414Y1021D01*
X412Y1021D01*
X412Y1019D01*
X410Y1019D01*
X410Y1017D01*
X406Y1017D01*
X406Y1015D01*
X404Y1015D01*
X404Y1013D01*
X402Y1013D01*
X402Y1011D01*
X398Y1011D01*
X398Y1009D01*
X396Y1009D01*
X396Y1007D01*
X394Y1007D01*
X394Y1005D01*
X390Y1005D01*
X390Y1003D01*
X388Y1003D01*
X388Y1001D01*
X386Y1001D01*
X386Y999D01*
X382Y999D01*
X382Y997D01*
X380Y997D01*
X380Y995D01*
X378Y995D01*
X378Y993D01*
X374Y993D01*
X374Y991D01*
X372Y991D01*
X372Y989D01*
X370Y989D01*
X370Y987D01*
X368Y987D01*
X368Y953D01*
X1062Y953D01*
X1062Y951D01*
X1074Y951D01*
X1074Y949D01*
X1080Y949D01*
X1080Y947D01*
X1086Y947D01*
X1086Y945D01*
X1090Y945D01*
X1090Y943D01*
X1112Y943D01*
X1112Y945D01*
X1114Y945D01*
X1114Y947D01*
X1118Y947D01*
X1118Y949D01*
X1120Y949D01*
X1120Y951D01*
X1122Y951D01*
X1122Y953D01*
X1124Y953D01*
X1124Y955D01*
X1128Y955D01*
X1128Y957D01*
X1130Y957D01*
X1130Y959D01*
X1132Y959D01*
X1132Y961D01*
X1136Y961D01*
X1136Y963D01*
X1138Y963D01*
X1138Y965D01*
X1140Y965D01*
X1140Y967D01*
X1142Y967D01*
X1142Y969D01*
X1146Y969D01*
X1146Y971D01*
X1148Y971D01*
X1148Y973D01*
X1150Y973D01*
X1150Y975D01*
X1152Y975D01*
X1152Y977D01*
X1156Y977D01*
X1156Y979D01*
X1158Y979D01*
X1158Y981D01*
X1160Y981D01*
X1160Y983D01*
X1164Y983D01*
X1164Y985D01*
X1166Y985D01*
X1166Y987D01*
X1168Y987D01*
X1168Y989D01*
X1170Y989D01*
X1170Y991D01*
X1174Y991D01*
X1174Y993D01*
X1176Y993D01*
X1176Y995D01*
X1178Y995D01*
X1178Y997D01*
X1180Y997D01*
X1180Y999D01*
X1184Y999D01*
X1184Y1001D01*
X1186Y1001D01*
X1186Y1003D01*
X1188Y1003D01*
X1188Y1005D01*
X1192Y1005D01*
X1192Y1007D01*
X1194Y1007D01*
X1194Y1009D01*
X1196Y1009D01*
X1196Y1011D01*
X1198Y1011D01*
X1198Y1013D01*
X1202Y1013D01*
X1202Y1015D01*
X1204Y1015D01*
X1204Y1017D01*
X1206Y1017D01*
X1206Y1019D01*
X1208Y1019D01*
X1208Y1021D01*
X1212Y1021D01*
X1212Y1023D01*
X1214Y1023D01*
X1214Y1025D01*
X1216Y1025D01*
X1216Y1027D01*
X1220Y1027D01*
X1220Y1029D01*
X1222Y1029D01*
X1222Y1031D01*
X1224Y1031D01*
X1224Y1033D01*
X1226Y1033D01*
X1226Y1035D01*
X1230Y1035D01*
X1230Y1037D01*
X1232Y1037D01*
X1232Y1039D01*
X1234Y1039D01*
X1234Y1041D01*
X1236Y1041D01*
X1236Y1043D01*
X1240Y1043D01*
X1240Y1045D01*
X1242Y1045D01*
X1242Y1047D01*
X1244Y1047D01*
X1244Y1049D01*
X1246Y1049D01*
X1246Y1051D01*
X1250Y1051D01*
X1250Y1053D01*
X1252Y1053D01*
X1252Y1055D01*
X1254Y1055D01*
X1254Y1057D01*
X1258Y1057D01*
X1258Y1059D01*
X1260Y1059D01*
X1260Y1061D01*
X1262Y1061D01*
X1262Y1063D01*
X1264Y1063D01*
X1264Y1065D01*
X1268Y1065D01*
X1268Y1067D01*
X1270Y1067D01*
X1270Y1069D01*
X1272Y1069D01*
X1272Y1071D01*
X1274Y1071D01*
X1274Y1073D01*
X1278Y1073D01*
X1278Y1075D01*
X484Y1075D01*
G37*
D02*
G36*
X166Y1051D02*
X166Y1049D01*
X378Y1049D01*
X378Y1051D01*
X166Y1051D01*
G37*
D02*
G36*
X166Y1051D02*
X166Y1049D01*
X378Y1049D01*
X378Y1051D01*
X166Y1051D01*
G37*
D02*
G36*
X166Y1049D02*
X166Y745D01*
X256Y745D01*
X256Y743D01*
X264Y743D01*
X264Y741D01*
X266Y741D01*
X266Y739D01*
X270Y739D01*
X270Y737D01*
X272Y737D01*
X272Y735D01*
X276Y735D01*
X276Y733D01*
X278Y733D01*
X278Y731D01*
X280Y731D01*
X280Y729D01*
X282Y729D01*
X282Y725D01*
X284Y725D01*
X284Y723D01*
X286Y723D01*
X286Y719D01*
X288Y719D01*
X288Y715D01*
X290Y715D01*
X290Y707D01*
X292Y707D01*
X292Y689D01*
X290Y689D01*
X290Y683D01*
X288Y683D01*
X288Y677D01*
X286Y677D01*
X286Y675D01*
X284Y675D01*
X284Y671D01*
X282Y671D01*
X282Y669D01*
X280Y669D01*
X280Y665D01*
X278Y665D01*
X278Y663D01*
X274Y663D01*
X274Y661D01*
X272Y661D01*
X272Y659D01*
X270Y659D01*
X270Y657D01*
X266Y657D01*
X266Y655D01*
X262Y655D01*
X262Y653D01*
X254Y653D01*
X254Y651D01*
X422Y651D01*
X422Y691D01*
X420Y691D01*
X420Y693D01*
X418Y693D01*
X418Y695D01*
X416Y695D01*
X416Y697D01*
X414Y697D01*
X414Y699D01*
X412Y699D01*
X412Y701D01*
X410Y701D01*
X410Y703D01*
X408Y703D01*
X408Y705D01*
X406Y705D01*
X406Y707D01*
X404Y707D01*
X404Y709D01*
X402Y709D01*
X402Y711D01*
X400Y711D01*
X400Y713D01*
X398Y713D01*
X398Y715D01*
X396Y715D01*
X396Y717D01*
X394Y717D01*
X394Y719D01*
X392Y719D01*
X392Y721D01*
X390Y721D01*
X390Y723D01*
X388Y723D01*
X388Y725D01*
X386Y725D01*
X386Y727D01*
X384Y727D01*
X384Y729D01*
X382Y729D01*
X382Y731D01*
X380Y731D01*
X380Y733D01*
X378Y733D01*
X378Y735D01*
X376Y735D01*
X376Y737D01*
X374Y737D01*
X374Y739D01*
X372Y739D01*
X372Y741D01*
X370Y741D01*
X370Y743D01*
X368Y743D01*
X368Y745D01*
X366Y745D01*
X366Y747D01*
X364Y747D01*
X364Y749D01*
X362Y749D01*
X362Y751D01*
X360Y751D01*
X360Y753D01*
X358Y753D01*
X358Y755D01*
X356Y755D01*
X356Y757D01*
X354Y757D01*
X354Y759D01*
X352Y759D01*
X352Y761D01*
X350Y761D01*
X350Y763D01*
X348Y763D01*
X348Y765D01*
X346Y765D01*
X346Y767D01*
X344Y767D01*
X344Y769D01*
X342Y769D01*
X342Y771D01*
X340Y771D01*
X340Y775D01*
X338Y775D01*
X338Y777D01*
X336Y777D01*
X336Y779D01*
X334Y779D01*
X334Y781D01*
X332Y781D01*
X332Y783D01*
X330Y783D01*
X330Y785D01*
X328Y785D01*
X328Y787D01*
X326Y787D01*
X326Y791D01*
X324Y791D01*
X324Y1005D01*
X326Y1005D01*
X326Y1009D01*
X328Y1009D01*
X328Y1013D01*
X332Y1013D01*
X332Y1015D01*
X334Y1015D01*
X334Y1017D01*
X336Y1017D01*
X336Y1019D01*
X338Y1019D01*
X338Y1021D01*
X342Y1021D01*
X342Y1023D01*
X344Y1023D01*
X344Y1025D01*
X346Y1025D01*
X346Y1027D01*
X350Y1027D01*
X350Y1029D01*
X352Y1029D01*
X352Y1031D01*
X354Y1031D01*
X354Y1033D01*
X358Y1033D01*
X358Y1035D01*
X360Y1035D01*
X360Y1037D01*
X362Y1037D01*
X362Y1039D01*
X366Y1039D01*
X366Y1041D01*
X368Y1041D01*
X368Y1043D01*
X370Y1043D01*
X370Y1045D01*
X374Y1045D01*
X374Y1047D01*
X376Y1047D01*
X376Y1049D01*
X166Y1049D01*
G37*
D02*
G36*
X368Y953D02*
X368Y943D01*
X554Y943D01*
X554Y941D01*
X562Y941D01*
X562Y939D01*
X566Y939D01*
X566Y937D01*
X568Y937D01*
X568Y935D01*
X572Y935D01*
X572Y933D01*
X574Y933D01*
X574Y931D01*
X576Y931D01*
X576Y929D01*
X578Y929D01*
X578Y927D01*
X580Y927D01*
X580Y925D01*
X582Y925D01*
X582Y921D01*
X584Y921D01*
X584Y917D01*
X586Y917D01*
X586Y913D01*
X588Y913D01*
X588Y905D01*
X590Y905D01*
X590Y891D01*
X588Y891D01*
X588Y883D01*
X586Y883D01*
X586Y879D01*
X584Y879D01*
X584Y875D01*
X582Y875D01*
X582Y873D01*
X580Y873D01*
X580Y869D01*
X578Y869D01*
X578Y867D01*
X576Y867D01*
X576Y865D01*
X574Y865D01*
X574Y863D01*
X570Y863D01*
X570Y861D01*
X568Y861D01*
X568Y859D01*
X566Y859D01*
X566Y491D01*
X564Y491D01*
X564Y487D01*
X562Y487D01*
X562Y483D01*
X560Y483D01*
X560Y479D01*
X558Y479D01*
X558Y475D01*
X556Y475D01*
X556Y471D01*
X554Y471D01*
X554Y467D01*
X552Y467D01*
X552Y463D01*
X550Y463D01*
X550Y459D01*
X548Y459D01*
X548Y455D01*
X546Y455D01*
X546Y451D01*
X544Y451D01*
X544Y447D01*
X542Y447D01*
X542Y443D01*
X540Y443D01*
X540Y439D01*
X538Y439D01*
X538Y435D01*
X536Y435D01*
X536Y431D01*
X534Y431D01*
X534Y427D01*
X532Y427D01*
X532Y423D01*
X530Y423D01*
X530Y419D01*
X528Y419D01*
X528Y415D01*
X526Y415D01*
X526Y411D01*
X524Y411D01*
X524Y407D01*
X522Y407D01*
X522Y403D01*
X520Y403D01*
X520Y399D01*
X518Y399D01*
X518Y395D01*
X516Y395D01*
X516Y391D01*
X514Y391D01*
X514Y387D01*
X512Y387D01*
X512Y383D01*
X510Y383D01*
X510Y379D01*
X508Y379D01*
X508Y375D01*
X506Y375D01*
X506Y371D01*
X504Y371D01*
X504Y367D01*
X502Y367D01*
X502Y363D01*
X500Y363D01*
X500Y359D01*
X498Y359D01*
X498Y355D01*
X496Y355D01*
X496Y351D01*
X494Y351D01*
X494Y347D01*
X492Y347D01*
X492Y343D01*
X490Y343D01*
X490Y339D01*
X488Y339D01*
X488Y335D01*
X486Y335D01*
X486Y331D01*
X484Y331D01*
X484Y327D01*
X482Y327D01*
X482Y323D01*
X480Y323D01*
X480Y319D01*
X478Y319D01*
X478Y315D01*
X476Y315D01*
X476Y311D01*
X474Y311D01*
X474Y307D01*
X472Y307D01*
X472Y303D01*
X470Y303D01*
X470Y299D01*
X468Y299D01*
X468Y295D01*
X466Y295D01*
X466Y291D01*
X464Y291D01*
X464Y287D01*
X462Y287D01*
X462Y283D01*
X460Y283D01*
X460Y281D01*
X456Y281D01*
X456Y279D01*
X454Y279D01*
X454Y277D01*
X446Y277D01*
X446Y275D01*
X546Y275D01*
X546Y277D01*
X548Y277D01*
X548Y283D01*
X550Y283D01*
X550Y289D01*
X552Y289D01*
X552Y295D01*
X554Y295D01*
X554Y301D01*
X556Y301D01*
X556Y307D01*
X558Y307D01*
X558Y313D01*
X560Y313D01*
X560Y319D01*
X562Y319D01*
X562Y325D01*
X564Y325D01*
X564Y331D01*
X566Y331D01*
X566Y337D01*
X568Y337D01*
X568Y343D01*
X570Y343D01*
X570Y349D01*
X572Y349D01*
X572Y355D01*
X574Y355D01*
X574Y361D01*
X576Y361D01*
X576Y367D01*
X578Y367D01*
X578Y373D01*
X580Y373D01*
X580Y379D01*
X582Y379D01*
X582Y385D01*
X584Y385D01*
X584Y391D01*
X586Y391D01*
X586Y397D01*
X588Y397D01*
X588Y403D01*
X590Y403D01*
X590Y409D01*
X592Y409D01*
X592Y415D01*
X594Y415D01*
X594Y421D01*
X596Y421D01*
X596Y427D01*
X598Y427D01*
X598Y433D01*
X600Y433D01*
X600Y439D01*
X602Y439D01*
X602Y445D01*
X604Y445D01*
X604Y451D01*
X606Y451D01*
X606Y457D01*
X608Y457D01*
X608Y463D01*
X610Y463D01*
X610Y469D01*
X612Y469D01*
X612Y475D01*
X614Y475D01*
X614Y481D01*
X616Y481D01*
X616Y487D01*
X618Y487D01*
X618Y493D01*
X620Y493D01*
X620Y499D01*
X622Y499D01*
X622Y505D01*
X624Y505D01*
X624Y509D01*
X626Y509D01*
X626Y511D01*
X628Y511D01*
X628Y513D01*
X630Y513D01*
X630Y515D01*
X632Y515D01*
X632Y517D01*
X634Y517D01*
X634Y519D01*
X636Y519D01*
X636Y521D01*
X638Y521D01*
X638Y523D01*
X640Y523D01*
X640Y525D01*
X642Y525D01*
X642Y527D01*
X644Y527D01*
X644Y529D01*
X646Y529D01*
X646Y531D01*
X648Y531D01*
X648Y533D01*
X650Y533D01*
X650Y535D01*
X652Y535D01*
X652Y537D01*
X654Y537D01*
X654Y539D01*
X658Y539D01*
X658Y541D01*
X660Y541D01*
X660Y543D01*
X662Y543D01*
X662Y545D01*
X664Y545D01*
X664Y547D01*
X666Y547D01*
X666Y549D01*
X668Y549D01*
X668Y551D01*
X670Y551D01*
X670Y553D01*
X672Y553D01*
X672Y555D01*
X674Y555D01*
X674Y557D01*
X676Y557D01*
X676Y559D01*
X678Y559D01*
X678Y561D01*
X680Y561D01*
X680Y563D01*
X682Y563D01*
X682Y565D01*
X684Y565D01*
X684Y567D01*
X688Y567D01*
X688Y569D01*
X690Y569D01*
X690Y571D01*
X692Y571D01*
X692Y573D01*
X694Y573D01*
X694Y575D01*
X696Y575D01*
X696Y577D01*
X698Y577D01*
X698Y579D01*
X700Y579D01*
X700Y581D01*
X702Y581D01*
X702Y583D01*
X704Y583D01*
X704Y585D01*
X706Y585D01*
X706Y587D01*
X708Y587D01*
X708Y589D01*
X710Y589D01*
X710Y591D01*
X712Y591D01*
X712Y593D01*
X716Y593D01*
X716Y595D01*
X718Y595D01*
X718Y597D01*
X720Y597D01*
X720Y599D01*
X722Y599D01*
X722Y601D01*
X724Y601D01*
X724Y603D01*
X726Y603D01*
X726Y605D01*
X728Y605D01*
X728Y607D01*
X730Y607D01*
X730Y609D01*
X732Y609D01*
X732Y611D01*
X734Y611D01*
X734Y613D01*
X736Y613D01*
X736Y615D01*
X738Y615D01*
X738Y617D01*
X740Y617D01*
X740Y619D01*
X742Y619D01*
X742Y621D01*
X746Y621D01*
X746Y623D01*
X748Y623D01*
X748Y625D01*
X750Y625D01*
X750Y627D01*
X752Y627D01*
X752Y629D01*
X754Y629D01*
X754Y631D01*
X756Y631D01*
X756Y633D01*
X758Y633D01*
X758Y635D01*
X760Y635D01*
X760Y637D01*
X762Y637D01*
X762Y639D01*
X764Y639D01*
X764Y667D01*
X762Y667D01*
X762Y681D01*
X760Y681D01*
X760Y687D01*
X762Y687D01*
X762Y703D01*
X764Y703D01*
X764Y711D01*
X766Y711D01*
X766Y715D01*
X768Y715D01*
X768Y721D01*
X770Y721D01*
X770Y725D01*
X772Y725D01*
X772Y727D01*
X774Y727D01*
X774Y731D01*
X776Y731D01*
X776Y733D01*
X778Y733D01*
X778Y737D01*
X780Y737D01*
X780Y739D01*
X782Y739D01*
X782Y741D01*
X784Y741D01*
X784Y743D01*
X786Y743D01*
X786Y745D01*
X788Y745D01*
X788Y747D01*
X790Y747D01*
X790Y749D01*
X792Y749D01*
X792Y751D01*
X796Y751D01*
X796Y753D01*
X798Y753D01*
X798Y755D01*
X802Y755D01*
X802Y757D01*
X804Y757D01*
X804Y759D01*
X808Y759D01*
X808Y761D01*
X814Y761D01*
X814Y763D01*
X818Y763D01*
X818Y765D01*
X826Y765D01*
X826Y767D01*
X836Y767D01*
X836Y787D01*
X826Y787D01*
X826Y789D01*
X818Y789D01*
X818Y791D01*
X812Y791D01*
X812Y793D01*
X808Y793D01*
X808Y795D01*
X804Y795D01*
X804Y797D01*
X800Y797D01*
X800Y799D01*
X798Y799D01*
X798Y801D01*
X794Y801D01*
X794Y803D01*
X792Y803D01*
X792Y805D01*
X790Y805D01*
X790Y807D01*
X788Y807D01*
X788Y809D01*
X786Y809D01*
X786Y811D01*
X784Y811D01*
X784Y813D01*
X782Y813D01*
X782Y815D01*
X780Y815D01*
X780Y817D01*
X778Y817D01*
X778Y821D01*
X776Y821D01*
X776Y823D01*
X774Y823D01*
X774Y827D01*
X772Y827D01*
X772Y829D01*
X770Y829D01*
X770Y833D01*
X768Y833D01*
X768Y837D01*
X766Y837D01*
X766Y843D01*
X764Y843D01*
X764Y851D01*
X762Y851D01*
X762Y867D01*
X760Y867D01*
X760Y873D01*
X762Y873D01*
X762Y887D01*
X764Y887D01*
X764Y895D01*
X766Y895D01*
X766Y901D01*
X768Y901D01*
X768Y905D01*
X770Y905D01*
X770Y909D01*
X772Y909D01*
X772Y913D01*
X774Y913D01*
X774Y915D01*
X776Y915D01*
X776Y919D01*
X778Y919D01*
X778Y921D01*
X780Y921D01*
X780Y923D01*
X782Y923D01*
X782Y925D01*
X784Y925D01*
X784Y927D01*
X786Y927D01*
X786Y929D01*
X788Y929D01*
X788Y931D01*
X790Y931D01*
X790Y933D01*
X792Y933D01*
X792Y935D01*
X794Y935D01*
X794Y937D01*
X798Y937D01*
X798Y939D01*
X800Y939D01*
X800Y941D01*
X804Y941D01*
X804Y943D01*
X808Y943D01*
X808Y945D01*
X812Y945D01*
X812Y947D01*
X816Y947D01*
X816Y949D01*
X824Y949D01*
X824Y951D01*
X834Y951D01*
X834Y953D01*
X368Y953D01*
G37*
D02*
G36*
X854Y953D02*
X854Y951D01*
X866Y951D01*
X866Y949D01*
X872Y949D01*
X872Y947D01*
X878Y947D01*
X878Y945D01*
X882Y945D01*
X882Y943D01*
X886Y943D01*
X886Y941D01*
X888Y941D01*
X888Y939D01*
X892Y939D01*
X892Y937D01*
X894Y937D01*
X894Y935D01*
X898Y935D01*
X898Y933D01*
X900Y933D01*
X900Y931D01*
X902Y931D01*
X902Y929D01*
X904Y929D01*
X904Y927D01*
X906Y927D01*
X906Y925D01*
X908Y925D01*
X908Y923D01*
X910Y923D01*
X910Y919D01*
X912Y919D01*
X912Y917D01*
X914Y917D01*
X914Y913D01*
X916Y913D01*
X916Y911D01*
X918Y911D01*
X918Y907D01*
X920Y907D01*
X920Y903D01*
X922Y903D01*
X922Y897D01*
X924Y897D01*
X924Y891D01*
X926Y891D01*
X926Y881D01*
X928Y881D01*
X928Y857D01*
X926Y857D01*
X926Y847D01*
X924Y847D01*
X924Y841D01*
X922Y841D01*
X922Y835D01*
X920Y835D01*
X920Y831D01*
X918Y831D01*
X918Y827D01*
X916Y827D01*
X916Y825D01*
X914Y825D01*
X914Y821D01*
X912Y821D01*
X912Y819D01*
X910Y819D01*
X910Y817D01*
X908Y817D01*
X908Y813D01*
X906Y813D01*
X906Y811D01*
X904Y811D01*
X904Y809D01*
X902Y809D01*
X902Y807D01*
X900Y807D01*
X900Y805D01*
X896Y805D01*
X896Y803D01*
X894Y803D01*
X894Y801D01*
X892Y801D01*
X892Y799D01*
X888Y799D01*
X888Y797D01*
X884Y797D01*
X884Y795D01*
X880Y795D01*
X880Y793D01*
X876Y793D01*
X876Y791D01*
X872Y791D01*
X872Y789D01*
X864Y789D01*
X864Y787D01*
X852Y787D01*
X852Y767D01*
X862Y767D01*
X862Y765D01*
X870Y765D01*
X870Y763D01*
X876Y763D01*
X876Y761D01*
X880Y761D01*
X880Y759D01*
X884Y759D01*
X884Y757D01*
X888Y757D01*
X888Y755D01*
X890Y755D01*
X890Y753D01*
X894Y753D01*
X894Y751D01*
X896Y751D01*
X896Y749D01*
X898Y749D01*
X898Y747D01*
X900Y747D01*
X900Y745D01*
X904Y745D01*
X904Y741D01*
X906Y741D01*
X906Y739D01*
X908Y739D01*
X908Y737D01*
X910Y737D01*
X910Y735D01*
X912Y735D01*
X912Y733D01*
X914Y733D01*
X914Y729D01*
X916Y729D01*
X916Y725D01*
X918Y725D01*
X918Y723D01*
X920Y723D01*
X920Y717D01*
X922Y717D01*
X922Y713D01*
X924Y713D01*
X924Y707D01*
X926Y707D01*
X926Y697D01*
X928Y697D01*
X928Y673D01*
X926Y673D01*
X926Y663D01*
X924Y663D01*
X924Y657D01*
X922Y657D01*
X922Y651D01*
X920Y651D01*
X920Y647D01*
X918Y647D01*
X918Y643D01*
X916Y643D01*
X916Y639D01*
X914Y639D01*
X914Y637D01*
X912Y637D01*
X912Y635D01*
X910Y635D01*
X910Y631D01*
X908Y631D01*
X908Y629D01*
X906Y629D01*
X906Y627D01*
X904Y627D01*
X904Y625D01*
X902Y625D01*
X902Y623D01*
X900Y623D01*
X900Y621D01*
X898Y621D01*
X898Y619D01*
X894Y619D01*
X894Y617D01*
X892Y617D01*
X892Y615D01*
X890Y615D01*
X890Y613D01*
X886Y613D01*
X886Y611D01*
X882Y611D01*
X882Y609D01*
X878Y609D01*
X878Y607D01*
X874Y607D01*
X874Y605D01*
X866Y605D01*
X866Y603D01*
X858Y603D01*
X858Y601D01*
X1040Y601D01*
X1040Y603D01*
X1030Y603D01*
X1030Y605D01*
X1024Y605D01*
X1024Y607D01*
X1018Y607D01*
X1018Y609D01*
X1014Y609D01*
X1014Y611D01*
X1012Y611D01*
X1012Y613D01*
X1008Y613D01*
X1008Y615D01*
X1006Y615D01*
X1006Y617D01*
X1002Y617D01*
X1002Y619D01*
X1000Y619D01*
X1000Y621D01*
X998Y621D01*
X998Y623D01*
X996Y623D01*
X996Y625D01*
X994Y625D01*
X994Y627D01*
X992Y627D01*
X992Y629D01*
X990Y629D01*
X990Y631D01*
X988Y631D01*
X988Y633D01*
X986Y633D01*
X986Y635D01*
X984Y635D01*
X984Y639D01*
X982Y639D01*
X982Y641D01*
X980Y641D01*
X980Y645D01*
X978Y645D01*
X978Y649D01*
X976Y649D01*
X976Y653D01*
X974Y653D01*
X974Y659D01*
X972Y659D01*
X972Y667D01*
X970Y667D01*
X970Y701D01*
X972Y701D01*
X972Y709D01*
X974Y709D01*
X974Y715D01*
X976Y715D01*
X976Y719D01*
X978Y719D01*
X978Y723D01*
X980Y723D01*
X980Y727D01*
X982Y727D01*
X982Y731D01*
X984Y731D01*
X984Y733D01*
X986Y733D01*
X986Y735D01*
X988Y735D01*
X988Y739D01*
X990Y739D01*
X990Y741D01*
X992Y741D01*
X992Y743D01*
X994Y743D01*
X994Y745D01*
X996Y745D01*
X996Y747D01*
X998Y747D01*
X998Y749D01*
X1002Y749D01*
X1002Y751D01*
X1004Y751D01*
X1004Y753D01*
X1006Y753D01*
X1006Y755D01*
X1010Y755D01*
X1010Y757D01*
X1014Y757D01*
X1014Y759D01*
X1018Y759D01*
X1018Y761D01*
X1022Y761D01*
X1022Y763D01*
X1028Y763D01*
X1028Y765D01*
X1036Y765D01*
X1036Y767D01*
X1044Y767D01*
X1044Y787D01*
X1034Y787D01*
X1034Y789D01*
X1026Y789D01*
X1026Y791D01*
X1020Y791D01*
X1020Y793D01*
X1016Y793D01*
X1016Y795D01*
X1012Y795D01*
X1012Y797D01*
X1010Y797D01*
X1010Y799D01*
X1006Y799D01*
X1006Y801D01*
X1004Y801D01*
X1004Y803D01*
X1000Y803D01*
X1000Y805D01*
X998Y805D01*
X998Y807D01*
X996Y807D01*
X996Y809D01*
X994Y809D01*
X994Y811D01*
X992Y811D01*
X992Y813D01*
X990Y813D01*
X990Y815D01*
X988Y815D01*
X988Y817D01*
X986Y817D01*
X986Y821D01*
X984Y821D01*
X984Y823D01*
X982Y823D01*
X982Y827D01*
X980Y827D01*
X980Y829D01*
X978Y829D01*
X978Y835D01*
X976Y835D01*
X976Y839D01*
X974Y839D01*
X974Y845D01*
X972Y845D01*
X972Y853D01*
X970Y853D01*
X970Y885D01*
X972Y885D01*
X972Y893D01*
X974Y893D01*
X974Y899D01*
X976Y899D01*
X976Y905D01*
X978Y905D01*
X978Y909D01*
X980Y909D01*
X980Y911D01*
X982Y911D01*
X982Y915D01*
X984Y915D01*
X984Y917D01*
X986Y917D01*
X986Y921D01*
X988Y921D01*
X988Y923D01*
X990Y923D01*
X990Y925D01*
X992Y925D01*
X992Y927D01*
X994Y927D01*
X994Y929D01*
X996Y929D01*
X996Y931D01*
X998Y931D01*
X998Y933D01*
X1000Y933D01*
X1000Y935D01*
X1002Y935D01*
X1002Y937D01*
X1006Y937D01*
X1006Y939D01*
X1008Y939D01*
X1008Y941D01*
X1012Y941D01*
X1012Y943D01*
X1016Y943D01*
X1016Y945D01*
X1020Y945D01*
X1020Y947D01*
X1026Y947D01*
X1026Y949D01*
X1032Y949D01*
X1032Y951D01*
X1042Y951D01*
X1042Y953D01*
X854Y953D01*
G37*
D02*
G36*
X1194Y953D02*
X1194Y951D01*
X1192Y951D01*
X1192Y949D01*
X1188Y949D01*
X1188Y947D01*
X1186Y947D01*
X1186Y945D01*
X1184Y945D01*
X1184Y943D01*
X1180Y943D01*
X1180Y941D01*
X1178Y941D01*
X1178Y939D01*
X1176Y939D01*
X1176Y937D01*
X1174Y937D01*
X1174Y935D01*
X1170Y935D01*
X1170Y933D01*
X1168Y933D01*
X1168Y931D01*
X1166Y931D01*
X1166Y929D01*
X1164Y929D01*
X1164Y927D01*
X1160Y927D01*
X1160Y925D01*
X1158Y925D01*
X1158Y923D01*
X1156Y923D01*
X1156Y921D01*
X1152Y921D01*
X1152Y919D01*
X1150Y919D01*
X1150Y917D01*
X1148Y917D01*
X1148Y915D01*
X1146Y915D01*
X1146Y913D01*
X1142Y913D01*
X1142Y911D01*
X1140Y911D01*
X1140Y909D01*
X1138Y909D01*
X1138Y907D01*
X1136Y907D01*
X1136Y905D01*
X1134Y905D01*
X1134Y883D01*
X1136Y883D01*
X1136Y855D01*
X1134Y855D01*
X1134Y847D01*
X1132Y847D01*
X1132Y839D01*
X1130Y839D01*
X1130Y835D01*
X1128Y835D01*
X1128Y831D01*
X1126Y831D01*
X1126Y827D01*
X1124Y827D01*
X1124Y825D01*
X1122Y825D01*
X1122Y821D01*
X1120Y821D01*
X1120Y819D01*
X1118Y819D01*
X1118Y815D01*
X1116Y815D01*
X1116Y813D01*
X1114Y813D01*
X1114Y811D01*
X1112Y811D01*
X1112Y809D01*
X1110Y809D01*
X1110Y807D01*
X1108Y807D01*
X1108Y805D01*
X1104Y805D01*
X1104Y803D01*
X1102Y803D01*
X1102Y801D01*
X1100Y801D01*
X1100Y799D01*
X1096Y799D01*
X1096Y797D01*
X1094Y797D01*
X1094Y795D01*
X1090Y795D01*
X1090Y793D01*
X1084Y793D01*
X1084Y791D01*
X1080Y791D01*
X1080Y789D01*
X1072Y789D01*
X1072Y787D01*
X1060Y787D01*
X1060Y767D01*
X1070Y767D01*
X1070Y765D01*
X1078Y765D01*
X1078Y763D01*
X1084Y763D01*
X1084Y761D01*
X1088Y761D01*
X1088Y759D01*
X1092Y759D01*
X1092Y757D01*
X1096Y757D01*
X1096Y755D01*
X1098Y755D01*
X1098Y753D01*
X1102Y753D01*
X1102Y751D01*
X1104Y751D01*
X1104Y749D01*
X1106Y749D01*
X1106Y747D01*
X1110Y747D01*
X1110Y745D01*
X1112Y745D01*
X1112Y743D01*
X1114Y743D01*
X1114Y741D01*
X1116Y741D01*
X1116Y737D01*
X1118Y737D01*
X1118Y735D01*
X1120Y735D01*
X1120Y733D01*
X1122Y733D01*
X1122Y729D01*
X1124Y729D01*
X1124Y727D01*
X1126Y727D01*
X1126Y723D01*
X1128Y723D01*
X1128Y719D01*
X1130Y719D01*
X1130Y713D01*
X1132Y713D01*
X1132Y707D01*
X1134Y707D01*
X1134Y699D01*
X1136Y699D01*
X1136Y671D01*
X1134Y671D01*
X1134Y661D01*
X1132Y661D01*
X1132Y655D01*
X1130Y655D01*
X1130Y651D01*
X1128Y651D01*
X1128Y647D01*
X1126Y647D01*
X1126Y643D01*
X1124Y643D01*
X1124Y639D01*
X1122Y639D01*
X1122Y637D01*
X1120Y637D01*
X1120Y633D01*
X1118Y633D01*
X1118Y631D01*
X1116Y631D01*
X1116Y629D01*
X1114Y629D01*
X1114Y627D01*
X1112Y627D01*
X1112Y625D01*
X1110Y625D01*
X1110Y623D01*
X1108Y623D01*
X1108Y621D01*
X1106Y621D01*
X1106Y619D01*
X1104Y619D01*
X1104Y617D01*
X1100Y617D01*
X1100Y615D01*
X1098Y615D01*
X1098Y613D01*
X1094Y613D01*
X1094Y611D01*
X1090Y611D01*
X1090Y609D01*
X1086Y609D01*
X1086Y607D01*
X1082Y607D01*
X1082Y605D01*
X1074Y605D01*
X1074Y603D01*
X1066Y603D01*
X1066Y601D01*
X1248Y601D01*
X1248Y603D01*
X1238Y603D01*
X1238Y605D01*
X1232Y605D01*
X1232Y607D01*
X1228Y607D01*
X1228Y609D01*
X1224Y609D01*
X1224Y611D01*
X1220Y611D01*
X1220Y613D01*
X1216Y613D01*
X1216Y615D01*
X1214Y615D01*
X1214Y617D01*
X1210Y617D01*
X1210Y619D01*
X1208Y619D01*
X1208Y621D01*
X1206Y621D01*
X1206Y623D01*
X1204Y623D01*
X1204Y625D01*
X1202Y625D01*
X1202Y627D01*
X1200Y627D01*
X1200Y629D01*
X1198Y629D01*
X1198Y631D01*
X1196Y631D01*
X1196Y633D01*
X1194Y633D01*
X1194Y637D01*
X1192Y637D01*
X1192Y639D01*
X1190Y639D01*
X1190Y643D01*
X1188Y643D01*
X1188Y645D01*
X1186Y645D01*
X1186Y649D01*
X1184Y649D01*
X1184Y655D01*
X1182Y655D01*
X1182Y661D01*
X1180Y661D01*
X1180Y669D01*
X1178Y669D01*
X1178Y699D01*
X1180Y699D01*
X1180Y707D01*
X1182Y707D01*
X1182Y713D01*
X1184Y713D01*
X1184Y719D01*
X1186Y719D01*
X1186Y723D01*
X1188Y723D01*
X1188Y727D01*
X1190Y727D01*
X1190Y729D01*
X1192Y729D01*
X1192Y733D01*
X1194Y733D01*
X1194Y735D01*
X1196Y735D01*
X1196Y739D01*
X1198Y739D01*
X1198Y741D01*
X1200Y741D01*
X1200Y743D01*
X1202Y743D01*
X1202Y745D01*
X1204Y745D01*
X1204Y747D01*
X1206Y747D01*
X1206Y749D01*
X1210Y749D01*
X1210Y751D01*
X1212Y751D01*
X1212Y753D01*
X1214Y753D01*
X1214Y755D01*
X1218Y755D01*
X1218Y757D01*
X1222Y757D01*
X1222Y759D01*
X1226Y759D01*
X1226Y761D01*
X1230Y761D01*
X1230Y763D01*
X1236Y763D01*
X1236Y765D01*
X1244Y765D01*
X1244Y767D01*
X1254Y767D01*
X1254Y787D01*
X1242Y787D01*
X1242Y789D01*
X1234Y789D01*
X1234Y791D01*
X1228Y791D01*
X1228Y793D01*
X1224Y793D01*
X1224Y795D01*
X1220Y795D01*
X1220Y797D01*
X1218Y797D01*
X1218Y799D01*
X1214Y799D01*
X1214Y801D01*
X1212Y801D01*
X1212Y803D01*
X1208Y803D01*
X1208Y805D01*
X1206Y805D01*
X1206Y807D01*
X1204Y807D01*
X1204Y809D01*
X1202Y809D01*
X1202Y811D01*
X1200Y811D01*
X1200Y813D01*
X1198Y813D01*
X1198Y815D01*
X1196Y815D01*
X1196Y819D01*
X1194Y819D01*
X1194Y821D01*
X1192Y821D01*
X1192Y823D01*
X1190Y823D01*
X1190Y827D01*
X1188Y827D01*
X1188Y831D01*
X1186Y831D01*
X1186Y835D01*
X1184Y835D01*
X1184Y839D01*
X1182Y839D01*
X1182Y845D01*
X1180Y845D01*
X1180Y855D01*
X1178Y855D01*
X1178Y885D01*
X1180Y885D01*
X1180Y893D01*
X1182Y893D01*
X1182Y899D01*
X1184Y899D01*
X1184Y903D01*
X1186Y903D01*
X1186Y907D01*
X1188Y907D01*
X1188Y911D01*
X1190Y911D01*
X1190Y915D01*
X1192Y915D01*
X1192Y917D01*
X1194Y917D01*
X1194Y921D01*
X1196Y921D01*
X1196Y923D01*
X1198Y923D01*
X1198Y925D01*
X1200Y925D01*
X1200Y927D01*
X1202Y927D01*
X1202Y929D01*
X1204Y929D01*
X1204Y931D01*
X1206Y931D01*
X1206Y933D01*
X1208Y933D01*
X1208Y935D01*
X1212Y935D01*
X1212Y937D01*
X1214Y937D01*
X1214Y939D01*
X1218Y939D01*
X1218Y941D01*
X1220Y941D01*
X1220Y943D01*
X1224Y943D01*
X1224Y945D01*
X1228Y945D01*
X1228Y947D01*
X1234Y947D01*
X1234Y949D01*
X1240Y949D01*
X1240Y951D01*
X1250Y951D01*
X1250Y953D01*
X1194Y953D01*
G37*
D02*
G36*
X368Y943D02*
X368Y853D01*
X438Y853D01*
X438Y855D01*
X430Y855D01*
X430Y857D01*
X424Y857D01*
X424Y859D01*
X422Y859D01*
X422Y861D01*
X418Y861D01*
X418Y863D01*
X416Y863D01*
X416Y865D01*
X414Y865D01*
X414Y867D01*
X412Y867D01*
X412Y869D01*
X410Y869D01*
X410Y871D01*
X408Y871D01*
X408Y873D01*
X406Y873D01*
X406Y877D01*
X404Y877D01*
X404Y881D01*
X402Y881D01*
X402Y887D01*
X400Y887D01*
X400Y909D01*
X402Y909D01*
X402Y915D01*
X404Y915D01*
X404Y919D01*
X406Y919D01*
X406Y923D01*
X408Y923D01*
X408Y925D01*
X410Y925D01*
X410Y929D01*
X412Y929D01*
X412Y931D01*
X414Y931D01*
X414Y933D01*
X418Y933D01*
X418Y935D01*
X420Y935D01*
X420Y937D01*
X424Y937D01*
X424Y939D01*
X428Y939D01*
X428Y941D01*
X434Y941D01*
X434Y943D01*
X368Y943D01*
G37*
D02*
G36*
X454Y943D02*
X454Y941D01*
X462Y941D01*
X462Y939D01*
X466Y939D01*
X466Y937D01*
X468Y937D01*
X468Y935D01*
X472Y935D01*
X472Y933D01*
X474Y933D01*
X474Y931D01*
X476Y931D01*
X476Y929D01*
X478Y929D01*
X478Y927D01*
X480Y927D01*
X480Y925D01*
X482Y925D01*
X482Y921D01*
X484Y921D01*
X484Y917D01*
X504Y917D01*
X504Y919D01*
X506Y919D01*
X506Y923D01*
X508Y923D01*
X508Y925D01*
X510Y925D01*
X510Y927D01*
X512Y927D01*
X512Y931D01*
X516Y931D01*
X516Y933D01*
X518Y933D01*
X518Y935D01*
X520Y935D01*
X520Y937D01*
X524Y937D01*
X524Y939D01*
X528Y939D01*
X528Y941D01*
X534Y941D01*
X534Y943D01*
X454Y943D01*
G37*
D02*
G36*
X1302Y943D02*
X1302Y941D01*
X1306Y941D01*
X1306Y939D01*
X1308Y939D01*
X1308Y937D01*
X1312Y937D01*
X1312Y935D01*
X1314Y935D01*
X1314Y933D01*
X1316Y933D01*
X1316Y931D01*
X1318Y931D01*
X1318Y929D01*
X1320Y929D01*
X1320Y927D01*
X1322Y927D01*
X1322Y925D01*
X1324Y925D01*
X1324Y923D01*
X1326Y923D01*
X1326Y921D01*
X1328Y921D01*
X1328Y917D01*
X1330Y917D01*
X1330Y915D01*
X1332Y915D01*
X1332Y911D01*
X1334Y911D01*
X1334Y909D01*
X1336Y909D01*
X1336Y905D01*
X1338Y905D01*
X1338Y899D01*
X1340Y899D01*
X1340Y893D01*
X1342Y893D01*
X1342Y885D01*
X1344Y885D01*
X1344Y853D01*
X1342Y853D01*
X1342Y845D01*
X1340Y845D01*
X1340Y825D01*
X1342Y825D01*
X1342Y823D01*
X1344Y823D01*
X1344Y821D01*
X1346Y821D01*
X1346Y819D01*
X1348Y819D01*
X1348Y817D01*
X1350Y817D01*
X1350Y815D01*
X1352Y815D01*
X1352Y813D01*
X1354Y813D01*
X1354Y811D01*
X1356Y811D01*
X1356Y809D01*
X1358Y809D01*
X1358Y807D01*
X1362Y807D01*
X1362Y805D01*
X1364Y805D01*
X1364Y803D01*
X1366Y803D01*
X1366Y801D01*
X1368Y801D01*
X1368Y799D01*
X1370Y799D01*
X1370Y797D01*
X1372Y797D01*
X1372Y795D01*
X1374Y795D01*
X1374Y793D01*
X1376Y793D01*
X1376Y791D01*
X1378Y791D01*
X1378Y789D01*
X1380Y789D01*
X1380Y787D01*
X1382Y787D01*
X1382Y785D01*
X1384Y785D01*
X1384Y783D01*
X1386Y783D01*
X1386Y781D01*
X1388Y781D01*
X1388Y779D01*
X1392Y779D01*
X1392Y777D01*
X1394Y777D01*
X1394Y775D01*
X1396Y775D01*
X1396Y773D01*
X1398Y773D01*
X1398Y771D01*
X1400Y771D01*
X1400Y769D01*
X1402Y769D01*
X1402Y767D01*
X1404Y767D01*
X1404Y765D01*
X1406Y765D01*
X1406Y763D01*
X1408Y763D01*
X1408Y761D01*
X1410Y761D01*
X1410Y759D01*
X1412Y759D01*
X1412Y757D01*
X1414Y757D01*
X1414Y755D01*
X1416Y755D01*
X1416Y753D01*
X1418Y753D01*
X1418Y751D01*
X1420Y751D01*
X1420Y749D01*
X1424Y749D01*
X1424Y747D01*
X1426Y747D01*
X1426Y745D01*
X1428Y745D01*
X1428Y743D01*
X1430Y743D01*
X1430Y741D01*
X1432Y741D01*
X1432Y739D01*
X1434Y739D01*
X1434Y737D01*
X1436Y737D01*
X1436Y735D01*
X1438Y735D01*
X1438Y733D01*
X1440Y733D01*
X1440Y731D01*
X1442Y731D01*
X1442Y729D01*
X1444Y729D01*
X1444Y727D01*
X1446Y727D01*
X1446Y725D01*
X1448Y725D01*
X1448Y723D01*
X1450Y723D01*
X1450Y721D01*
X1454Y721D01*
X1454Y719D01*
X1456Y719D01*
X1456Y717D01*
X1458Y717D01*
X1458Y715D01*
X1460Y715D01*
X1460Y713D01*
X1462Y713D01*
X1462Y711D01*
X1464Y711D01*
X1464Y707D01*
X1466Y707D01*
X1466Y701D01*
X1468Y701D01*
X1468Y395D01*
X1466Y395D01*
X1466Y389D01*
X1464Y389D01*
X1464Y387D01*
X1462Y387D01*
X1462Y383D01*
X1460Y383D01*
X1460Y381D01*
X1458Y381D01*
X1458Y379D01*
X1456Y379D01*
X1456Y377D01*
X1454Y377D01*
X1454Y375D01*
X1452Y375D01*
X1452Y373D01*
X1450Y373D01*
X1450Y371D01*
X1448Y371D01*
X1448Y369D01*
X1446Y369D01*
X1446Y367D01*
X1444Y367D01*
X1444Y365D01*
X1442Y365D01*
X1442Y363D01*
X1440Y363D01*
X1440Y361D01*
X1438Y361D01*
X1438Y359D01*
X1602Y359D01*
X1602Y411D01*
X1600Y411D01*
X1600Y413D01*
X1598Y413D01*
X1598Y415D01*
X1596Y415D01*
X1596Y417D01*
X1594Y417D01*
X1594Y419D01*
X1592Y419D01*
X1592Y421D01*
X1590Y421D01*
X1590Y423D01*
X1588Y423D01*
X1588Y425D01*
X1586Y425D01*
X1586Y427D01*
X1584Y427D01*
X1584Y429D01*
X1582Y429D01*
X1582Y431D01*
X1580Y431D01*
X1580Y433D01*
X1578Y433D01*
X1578Y435D01*
X1576Y435D01*
X1576Y437D01*
X1574Y437D01*
X1574Y439D01*
X1572Y439D01*
X1572Y441D01*
X1570Y441D01*
X1570Y443D01*
X1568Y443D01*
X1568Y445D01*
X1566Y445D01*
X1566Y447D01*
X1564Y447D01*
X1564Y449D01*
X1562Y449D01*
X1562Y451D01*
X1560Y451D01*
X1560Y453D01*
X1558Y453D01*
X1558Y455D01*
X1556Y455D01*
X1556Y457D01*
X1554Y457D01*
X1554Y459D01*
X1552Y459D01*
X1552Y461D01*
X1550Y461D01*
X1550Y463D01*
X1548Y463D01*
X1548Y465D01*
X1546Y465D01*
X1546Y467D01*
X1544Y467D01*
X1544Y469D01*
X1542Y469D01*
X1542Y471D01*
X1540Y471D01*
X1540Y473D01*
X1538Y473D01*
X1538Y475D01*
X1536Y475D01*
X1536Y477D01*
X1534Y477D01*
X1534Y479D01*
X1532Y479D01*
X1532Y481D01*
X1530Y481D01*
X1530Y483D01*
X1528Y483D01*
X1528Y485D01*
X1526Y485D01*
X1526Y489D01*
X1524Y489D01*
X1524Y497D01*
X1522Y497D01*
X1522Y601D01*
X1524Y601D01*
X1524Y609D01*
X1526Y609D01*
X1526Y611D01*
X1528Y611D01*
X1528Y613D01*
X1530Y613D01*
X1530Y615D01*
X1532Y615D01*
X1532Y617D01*
X1534Y617D01*
X1534Y619D01*
X1536Y619D01*
X1536Y621D01*
X1538Y621D01*
X1538Y623D01*
X1540Y623D01*
X1540Y625D01*
X1542Y625D01*
X1542Y627D01*
X1544Y627D01*
X1544Y629D01*
X1546Y629D01*
X1546Y631D01*
X1548Y631D01*
X1548Y633D01*
X1550Y633D01*
X1550Y635D01*
X1552Y635D01*
X1552Y637D01*
X1554Y637D01*
X1554Y639D01*
X1556Y639D01*
X1556Y641D01*
X1558Y641D01*
X1558Y643D01*
X1560Y643D01*
X1560Y645D01*
X1562Y645D01*
X1562Y647D01*
X1564Y647D01*
X1564Y649D01*
X1566Y649D01*
X1566Y651D01*
X1568Y651D01*
X1568Y653D01*
X1570Y653D01*
X1570Y655D01*
X1572Y655D01*
X1572Y657D01*
X1574Y657D01*
X1574Y659D01*
X1576Y659D01*
X1576Y661D01*
X1578Y661D01*
X1578Y663D01*
X1580Y663D01*
X1580Y665D01*
X1582Y665D01*
X1582Y667D01*
X1584Y667D01*
X1584Y669D01*
X1586Y669D01*
X1586Y671D01*
X1588Y671D01*
X1588Y673D01*
X1590Y673D01*
X1590Y675D01*
X1592Y675D01*
X1592Y677D01*
X1594Y677D01*
X1594Y679D01*
X1596Y679D01*
X1596Y681D01*
X1598Y681D01*
X1598Y683D01*
X1600Y683D01*
X1600Y685D01*
X1602Y685D01*
X1602Y687D01*
X1604Y687D01*
X1604Y689D01*
X1606Y689D01*
X1606Y691D01*
X1608Y691D01*
X1608Y693D01*
X1610Y693D01*
X1610Y695D01*
X1612Y695D01*
X1612Y697D01*
X1614Y697D01*
X1614Y699D01*
X1616Y699D01*
X1616Y701D01*
X1618Y701D01*
X1618Y703D01*
X1620Y703D01*
X1620Y705D01*
X1622Y705D01*
X1622Y761D01*
X1618Y761D01*
X1618Y763D01*
X1616Y763D01*
X1616Y765D01*
X1614Y765D01*
X1614Y767D01*
X1612Y767D01*
X1612Y769D01*
X1610Y769D01*
X1610Y771D01*
X1608Y771D01*
X1608Y773D01*
X1606Y773D01*
X1606Y777D01*
X1604Y777D01*
X1604Y781D01*
X1602Y781D01*
X1602Y787D01*
X1600Y787D01*
X1600Y809D01*
X1602Y809D01*
X1602Y815D01*
X1604Y815D01*
X1604Y819D01*
X1606Y819D01*
X1606Y823D01*
X1608Y823D01*
X1608Y825D01*
X1610Y825D01*
X1610Y829D01*
X1612Y829D01*
X1612Y831D01*
X1614Y831D01*
X1614Y833D01*
X1618Y833D01*
X1618Y835D01*
X1620Y835D01*
X1620Y837D01*
X1624Y837D01*
X1624Y859D01*
X1622Y859D01*
X1622Y861D01*
X1618Y861D01*
X1618Y863D01*
X1616Y863D01*
X1616Y865D01*
X1614Y865D01*
X1614Y867D01*
X1612Y867D01*
X1612Y869D01*
X1610Y869D01*
X1610Y871D01*
X1608Y871D01*
X1608Y873D01*
X1606Y873D01*
X1606Y877D01*
X1604Y877D01*
X1604Y881D01*
X1602Y881D01*
X1602Y887D01*
X1600Y887D01*
X1600Y909D01*
X1602Y909D01*
X1602Y915D01*
X1604Y915D01*
X1604Y919D01*
X1606Y919D01*
X1606Y923D01*
X1608Y923D01*
X1608Y925D01*
X1610Y925D01*
X1610Y929D01*
X1612Y929D01*
X1612Y931D01*
X1614Y931D01*
X1614Y933D01*
X1618Y933D01*
X1618Y935D01*
X1620Y935D01*
X1620Y937D01*
X1624Y937D01*
X1624Y939D01*
X1628Y939D01*
X1628Y941D01*
X1634Y941D01*
X1634Y943D01*
X1302Y943D01*
G37*
D02*
G36*
X484Y879D02*
X484Y875D01*
X482Y875D01*
X482Y873D01*
X480Y873D01*
X480Y869D01*
X478Y869D01*
X478Y867D01*
X476Y867D01*
X476Y865D01*
X474Y865D01*
X474Y863D01*
X470Y863D01*
X470Y861D01*
X468Y861D01*
X468Y859D01*
X464Y859D01*
X464Y857D01*
X460Y857D01*
X460Y855D01*
X452Y855D01*
X452Y853D01*
X522Y853D01*
X522Y861D01*
X518Y861D01*
X518Y863D01*
X516Y863D01*
X516Y865D01*
X514Y865D01*
X514Y867D01*
X512Y867D01*
X512Y869D01*
X510Y869D01*
X510Y871D01*
X508Y871D01*
X508Y873D01*
X506Y873D01*
X506Y877D01*
X504Y877D01*
X504Y879D01*
X484Y879D01*
G37*
D02*
G36*
X368Y853D02*
X368Y851D01*
X522Y851D01*
X522Y853D01*
X368Y853D01*
G37*
D02*
G36*
X368Y853D02*
X368Y851D01*
X522Y851D01*
X522Y853D01*
X368Y853D01*
G37*
D02*
G36*
X368Y851D02*
X368Y807D01*
X370Y807D01*
X370Y805D01*
X372Y805D01*
X372Y803D01*
X374Y803D01*
X374Y801D01*
X376Y801D01*
X376Y799D01*
X378Y799D01*
X378Y797D01*
X380Y797D01*
X380Y795D01*
X382Y795D01*
X382Y791D01*
X384Y791D01*
X384Y789D01*
X386Y789D01*
X386Y787D01*
X388Y787D01*
X388Y785D01*
X390Y785D01*
X390Y783D01*
X392Y783D01*
X392Y781D01*
X394Y781D01*
X394Y779D01*
X396Y779D01*
X396Y777D01*
X398Y777D01*
X398Y775D01*
X400Y775D01*
X400Y773D01*
X402Y773D01*
X402Y771D01*
X404Y771D01*
X404Y769D01*
X406Y769D01*
X406Y767D01*
X408Y767D01*
X408Y765D01*
X410Y765D01*
X410Y763D01*
X412Y763D01*
X412Y761D01*
X414Y761D01*
X414Y759D01*
X416Y759D01*
X416Y757D01*
X418Y757D01*
X418Y755D01*
X420Y755D01*
X420Y753D01*
X422Y753D01*
X422Y751D01*
X424Y751D01*
X424Y749D01*
X426Y749D01*
X426Y747D01*
X428Y747D01*
X428Y745D01*
X430Y745D01*
X430Y743D01*
X432Y743D01*
X432Y741D01*
X434Y741D01*
X434Y739D01*
X436Y739D01*
X436Y737D01*
X438Y737D01*
X438Y735D01*
X440Y735D01*
X440Y733D01*
X442Y733D01*
X442Y731D01*
X444Y731D01*
X444Y729D01*
X446Y729D01*
X446Y727D01*
X448Y727D01*
X448Y725D01*
X450Y725D01*
X450Y723D01*
X452Y723D01*
X452Y721D01*
X454Y721D01*
X454Y719D01*
X456Y719D01*
X456Y717D01*
X458Y717D01*
X458Y715D01*
X460Y715D01*
X460Y713D01*
X462Y713D01*
X462Y709D01*
X464Y709D01*
X464Y705D01*
X466Y705D01*
X466Y545D01*
X492Y545D01*
X492Y481D01*
X512Y481D01*
X512Y485D01*
X514Y485D01*
X514Y489D01*
X516Y489D01*
X516Y493D01*
X518Y493D01*
X518Y497D01*
X520Y497D01*
X520Y501D01*
X522Y501D01*
X522Y851D01*
X368Y851D01*
G37*
D02*
G36*
X1288Y791D02*
X1288Y789D01*
X1280Y789D01*
X1280Y787D01*
X1268Y787D01*
X1268Y767D01*
X1278Y767D01*
X1278Y765D01*
X1286Y765D01*
X1286Y763D01*
X1292Y763D01*
X1292Y761D01*
X1296Y761D01*
X1296Y759D01*
X1300Y759D01*
X1300Y757D01*
X1304Y757D01*
X1304Y755D01*
X1308Y755D01*
X1308Y753D01*
X1310Y753D01*
X1310Y751D01*
X1312Y751D01*
X1312Y749D01*
X1316Y749D01*
X1316Y747D01*
X1318Y747D01*
X1318Y745D01*
X1320Y745D01*
X1320Y743D01*
X1322Y743D01*
X1322Y741D01*
X1324Y741D01*
X1324Y739D01*
X1326Y739D01*
X1326Y735D01*
X1328Y735D01*
X1328Y733D01*
X1330Y733D01*
X1330Y731D01*
X1332Y731D01*
X1332Y727D01*
X1334Y727D01*
X1334Y723D01*
X1336Y723D01*
X1336Y719D01*
X1338Y719D01*
X1338Y715D01*
X1340Y715D01*
X1340Y709D01*
X1342Y709D01*
X1342Y701D01*
X1344Y701D01*
X1344Y669D01*
X1342Y669D01*
X1342Y661D01*
X1340Y661D01*
X1340Y655D01*
X1338Y655D01*
X1338Y649D01*
X1336Y649D01*
X1336Y645D01*
X1334Y645D01*
X1334Y643D01*
X1332Y643D01*
X1332Y639D01*
X1330Y639D01*
X1330Y635D01*
X1328Y635D01*
X1328Y633D01*
X1326Y633D01*
X1326Y631D01*
X1324Y631D01*
X1324Y629D01*
X1322Y629D01*
X1322Y627D01*
X1320Y627D01*
X1320Y625D01*
X1318Y625D01*
X1318Y623D01*
X1316Y623D01*
X1316Y621D01*
X1314Y621D01*
X1314Y619D01*
X1312Y619D01*
X1312Y617D01*
X1308Y617D01*
X1308Y615D01*
X1306Y615D01*
X1306Y613D01*
X1302Y613D01*
X1302Y611D01*
X1298Y611D01*
X1298Y609D01*
X1294Y609D01*
X1294Y607D01*
X1290Y607D01*
X1290Y605D01*
X1284Y605D01*
X1284Y603D01*
X1274Y603D01*
X1274Y601D01*
X1424Y601D01*
X1424Y687D01*
X1422Y687D01*
X1422Y689D01*
X1420Y689D01*
X1420Y691D01*
X1418Y691D01*
X1418Y693D01*
X1416Y693D01*
X1416Y695D01*
X1414Y695D01*
X1414Y697D01*
X1412Y697D01*
X1412Y699D01*
X1410Y699D01*
X1410Y701D01*
X1408Y701D01*
X1408Y703D01*
X1406Y703D01*
X1406Y705D01*
X1404Y705D01*
X1404Y707D01*
X1402Y707D01*
X1402Y709D01*
X1400Y709D01*
X1400Y711D01*
X1398Y711D01*
X1398Y713D01*
X1396Y713D01*
X1396Y715D01*
X1392Y715D01*
X1392Y717D01*
X1390Y717D01*
X1390Y719D01*
X1388Y719D01*
X1388Y721D01*
X1386Y721D01*
X1386Y723D01*
X1384Y723D01*
X1384Y725D01*
X1382Y725D01*
X1382Y727D01*
X1380Y727D01*
X1380Y729D01*
X1378Y729D01*
X1378Y731D01*
X1376Y731D01*
X1376Y733D01*
X1374Y733D01*
X1374Y735D01*
X1372Y735D01*
X1372Y737D01*
X1370Y737D01*
X1370Y739D01*
X1368Y739D01*
X1368Y741D01*
X1366Y741D01*
X1366Y743D01*
X1362Y743D01*
X1362Y745D01*
X1360Y745D01*
X1360Y747D01*
X1358Y747D01*
X1358Y749D01*
X1356Y749D01*
X1356Y751D01*
X1354Y751D01*
X1354Y753D01*
X1352Y753D01*
X1352Y755D01*
X1350Y755D01*
X1350Y757D01*
X1348Y757D01*
X1348Y759D01*
X1346Y759D01*
X1346Y761D01*
X1344Y761D01*
X1344Y763D01*
X1342Y763D01*
X1342Y765D01*
X1340Y765D01*
X1340Y767D01*
X1338Y767D01*
X1338Y769D01*
X1336Y769D01*
X1336Y771D01*
X1332Y771D01*
X1332Y773D01*
X1330Y773D01*
X1330Y775D01*
X1328Y775D01*
X1328Y777D01*
X1326Y777D01*
X1326Y779D01*
X1324Y779D01*
X1324Y781D01*
X1322Y781D01*
X1322Y783D01*
X1320Y783D01*
X1320Y785D01*
X1318Y785D01*
X1318Y787D01*
X1316Y787D01*
X1316Y789D01*
X1314Y789D01*
X1314Y791D01*
X1288Y791D01*
G37*
D02*
G36*
X166Y745D02*
X166Y651D01*
X234Y651D01*
X234Y653D01*
X228Y653D01*
X228Y655D01*
X224Y655D01*
X224Y657D01*
X220Y657D01*
X220Y659D01*
X216Y659D01*
X216Y661D01*
X214Y661D01*
X214Y663D01*
X212Y663D01*
X212Y665D01*
X210Y665D01*
X210Y667D01*
X208Y667D01*
X208Y669D01*
X206Y669D01*
X206Y673D01*
X204Y673D01*
X204Y675D01*
X202Y675D01*
X202Y679D01*
X200Y679D01*
X200Y685D01*
X198Y685D01*
X198Y697D01*
X196Y697D01*
X196Y699D01*
X198Y699D01*
X198Y711D01*
X200Y711D01*
X200Y717D01*
X202Y717D01*
X202Y721D01*
X204Y721D01*
X204Y725D01*
X206Y725D01*
X206Y727D01*
X208Y727D01*
X208Y729D01*
X210Y729D01*
X210Y731D01*
X212Y731D01*
X212Y733D01*
X214Y733D01*
X214Y735D01*
X216Y735D01*
X216Y737D01*
X218Y737D01*
X218Y739D01*
X222Y739D01*
X222Y741D01*
X226Y741D01*
X226Y743D01*
X232Y743D01*
X232Y745D01*
X166Y745D01*
G37*
D02*
G36*
X166Y651D02*
X166Y649D01*
X422Y649D01*
X422Y651D01*
X166Y651D01*
G37*
D02*
G36*
X166Y651D02*
X166Y649D01*
X422Y649D01*
X422Y651D01*
X166Y651D01*
G37*
D02*
G36*
X166Y649D02*
X166Y545D01*
X356Y545D01*
X356Y543D01*
X364Y543D01*
X364Y541D01*
X366Y541D01*
X366Y539D01*
X370Y539D01*
X370Y537D01*
X372Y537D01*
X372Y535D01*
X376Y535D01*
X376Y533D01*
X396Y533D01*
X396Y545D01*
X422Y545D01*
X422Y649D01*
X166Y649D01*
G37*
D02*
G36*
X792Y607D02*
X792Y605D01*
X790Y605D01*
X790Y603D01*
X788Y603D01*
X788Y601D01*
X832Y601D01*
X832Y603D01*
X822Y603D01*
X822Y605D01*
X816Y605D01*
X816Y607D01*
X792Y607D01*
G37*
D02*
G36*
X786Y601D02*
X786Y599D01*
X1424Y599D01*
X1424Y601D01*
X786Y601D01*
G37*
D02*
G36*
X786Y601D02*
X786Y599D01*
X1424Y599D01*
X1424Y601D01*
X786Y601D01*
G37*
D02*
G36*
X786Y601D02*
X786Y599D01*
X1424Y599D01*
X1424Y601D01*
X786Y601D01*
G37*
D02*
G36*
X786Y601D02*
X786Y599D01*
X1424Y599D01*
X1424Y601D01*
X786Y601D01*
G37*
D02*
G36*
X784Y599D02*
X784Y597D01*
X782Y597D01*
X782Y595D01*
X780Y595D01*
X780Y593D01*
X778Y593D01*
X778Y591D01*
X776Y591D01*
X776Y589D01*
X774Y589D01*
X774Y587D01*
X772Y587D01*
X772Y585D01*
X768Y585D01*
X768Y583D01*
X766Y583D01*
X766Y581D01*
X1278Y581D01*
X1278Y579D01*
X1286Y579D01*
X1286Y577D01*
X1292Y577D01*
X1292Y575D01*
X1296Y575D01*
X1296Y573D01*
X1300Y573D01*
X1300Y571D01*
X1304Y571D01*
X1304Y569D01*
X1308Y569D01*
X1308Y567D01*
X1310Y567D01*
X1310Y565D01*
X1312Y565D01*
X1312Y563D01*
X1316Y563D01*
X1316Y561D01*
X1318Y561D01*
X1318Y559D01*
X1320Y559D01*
X1320Y557D01*
X1322Y557D01*
X1322Y555D01*
X1324Y555D01*
X1324Y553D01*
X1326Y553D01*
X1326Y549D01*
X1328Y549D01*
X1328Y547D01*
X1330Y547D01*
X1330Y543D01*
X1332Y543D01*
X1332Y541D01*
X1334Y541D01*
X1334Y537D01*
X1336Y537D01*
X1336Y533D01*
X1338Y533D01*
X1338Y529D01*
X1340Y529D01*
X1340Y523D01*
X1342Y523D01*
X1342Y515D01*
X1344Y515D01*
X1344Y483D01*
X1342Y483D01*
X1342Y473D01*
X1340Y473D01*
X1340Y469D01*
X1338Y469D01*
X1338Y463D01*
X1336Y463D01*
X1336Y459D01*
X1334Y459D01*
X1334Y455D01*
X1332Y455D01*
X1332Y453D01*
X1330Y453D01*
X1330Y449D01*
X1328Y449D01*
X1328Y447D01*
X1326Y447D01*
X1326Y445D01*
X1324Y445D01*
X1324Y443D01*
X1322Y443D01*
X1322Y441D01*
X1320Y441D01*
X1320Y439D01*
X1318Y439D01*
X1318Y437D01*
X1316Y437D01*
X1316Y435D01*
X1314Y435D01*
X1314Y433D01*
X1312Y433D01*
X1312Y431D01*
X1310Y431D01*
X1310Y429D01*
X1306Y429D01*
X1306Y427D01*
X1302Y427D01*
X1302Y425D01*
X1300Y425D01*
X1300Y423D01*
X1296Y423D01*
X1296Y421D01*
X1290Y421D01*
X1290Y419D01*
X1284Y419D01*
X1284Y417D01*
X1274Y417D01*
X1274Y415D01*
X1424Y415D01*
X1424Y599D01*
X784Y599D01*
G37*
D02*
G36*
X764Y581D02*
X764Y579D01*
X762Y579D01*
X762Y577D01*
X760Y577D01*
X760Y575D01*
X758Y575D01*
X758Y573D01*
X756Y573D01*
X756Y571D01*
X754Y571D01*
X754Y569D01*
X752Y569D01*
X752Y567D01*
X750Y567D01*
X750Y565D01*
X748Y565D01*
X748Y563D01*
X746Y563D01*
X746Y561D01*
X744Y561D01*
X744Y559D01*
X740Y559D01*
X740Y557D01*
X738Y557D01*
X738Y555D01*
X736Y555D01*
X736Y553D01*
X734Y553D01*
X734Y551D01*
X732Y551D01*
X732Y549D01*
X730Y549D01*
X730Y547D01*
X728Y547D01*
X728Y545D01*
X726Y545D01*
X726Y543D01*
X724Y543D01*
X724Y541D01*
X722Y541D01*
X722Y539D01*
X720Y539D01*
X720Y537D01*
X718Y537D01*
X718Y535D01*
X716Y535D01*
X716Y533D01*
X714Y533D01*
X714Y531D01*
X710Y531D01*
X710Y529D01*
X708Y529D01*
X708Y527D01*
X706Y527D01*
X706Y525D01*
X704Y525D01*
X704Y523D01*
X702Y523D01*
X702Y521D01*
X700Y521D01*
X700Y519D01*
X698Y519D01*
X698Y517D01*
X696Y517D01*
X696Y515D01*
X694Y515D01*
X694Y513D01*
X692Y513D01*
X692Y511D01*
X690Y511D01*
X690Y509D01*
X688Y509D01*
X688Y507D01*
X686Y507D01*
X686Y505D01*
X682Y505D01*
X682Y503D01*
X680Y503D01*
X680Y501D01*
X678Y501D01*
X678Y499D01*
X676Y499D01*
X676Y497D01*
X674Y497D01*
X674Y495D01*
X672Y495D01*
X672Y493D01*
X670Y493D01*
X670Y491D01*
X668Y491D01*
X668Y489D01*
X666Y489D01*
X666Y487D01*
X664Y487D01*
X664Y485D01*
X662Y485D01*
X662Y479D01*
X660Y479D01*
X660Y473D01*
X658Y473D01*
X658Y467D01*
X656Y467D01*
X656Y461D01*
X654Y461D01*
X654Y455D01*
X652Y455D01*
X652Y449D01*
X650Y449D01*
X650Y443D01*
X648Y443D01*
X648Y437D01*
X646Y437D01*
X646Y431D01*
X644Y431D01*
X644Y425D01*
X642Y425D01*
X642Y419D01*
X640Y419D01*
X640Y415D01*
X830Y415D01*
X830Y417D01*
X822Y417D01*
X822Y419D01*
X816Y419D01*
X816Y421D01*
X810Y421D01*
X810Y423D01*
X806Y423D01*
X806Y425D01*
X802Y425D01*
X802Y427D01*
X800Y427D01*
X800Y429D01*
X796Y429D01*
X796Y431D01*
X794Y431D01*
X794Y433D01*
X792Y433D01*
X792Y435D01*
X788Y435D01*
X788Y437D01*
X786Y437D01*
X786Y439D01*
X784Y439D01*
X784Y441D01*
X782Y441D01*
X782Y445D01*
X780Y445D01*
X780Y447D01*
X778Y447D01*
X778Y449D01*
X776Y449D01*
X776Y451D01*
X774Y451D01*
X774Y455D01*
X772Y455D01*
X772Y459D01*
X770Y459D01*
X770Y463D01*
X768Y463D01*
X768Y467D01*
X766Y467D01*
X766Y473D01*
X764Y473D01*
X764Y481D01*
X762Y481D01*
X762Y495D01*
X760Y495D01*
X760Y501D01*
X762Y501D01*
X762Y517D01*
X764Y517D01*
X764Y525D01*
X766Y525D01*
X766Y529D01*
X768Y529D01*
X768Y535D01*
X770Y535D01*
X770Y539D01*
X772Y539D01*
X772Y541D01*
X774Y541D01*
X774Y545D01*
X776Y545D01*
X776Y547D01*
X778Y547D01*
X778Y551D01*
X780Y551D01*
X780Y553D01*
X782Y553D01*
X782Y555D01*
X784Y555D01*
X784Y557D01*
X786Y557D01*
X786Y559D01*
X788Y559D01*
X788Y561D01*
X790Y561D01*
X790Y563D01*
X792Y563D01*
X792Y565D01*
X796Y565D01*
X796Y567D01*
X798Y567D01*
X798Y569D01*
X802Y569D01*
X802Y571D01*
X806Y571D01*
X806Y573D01*
X810Y573D01*
X810Y575D01*
X814Y575D01*
X814Y577D01*
X820Y577D01*
X820Y579D01*
X828Y579D01*
X828Y581D01*
X764Y581D01*
G37*
D02*
G36*
X862Y581D02*
X862Y579D01*
X870Y579D01*
X870Y577D01*
X876Y577D01*
X876Y575D01*
X880Y575D01*
X880Y573D01*
X884Y573D01*
X884Y571D01*
X888Y571D01*
X888Y569D01*
X890Y569D01*
X890Y567D01*
X894Y567D01*
X894Y565D01*
X896Y565D01*
X896Y563D01*
X898Y563D01*
X898Y561D01*
X900Y561D01*
X900Y559D01*
X902Y559D01*
X902Y557D01*
X904Y557D01*
X904Y555D01*
X906Y555D01*
X906Y553D01*
X908Y553D01*
X908Y551D01*
X910Y551D01*
X910Y549D01*
X912Y549D01*
X912Y545D01*
X914Y545D01*
X914Y543D01*
X916Y543D01*
X916Y539D01*
X918Y539D01*
X918Y535D01*
X920Y535D01*
X920Y531D01*
X922Y531D01*
X922Y527D01*
X924Y527D01*
X924Y521D01*
X926Y521D01*
X926Y511D01*
X928Y511D01*
X928Y487D01*
X926Y487D01*
X926Y477D01*
X924Y477D01*
X924Y471D01*
X922Y471D01*
X922Y465D01*
X920Y465D01*
X920Y461D01*
X918Y461D01*
X918Y457D01*
X916Y457D01*
X916Y453D01*
X914Y453D01*
X914Y451D01*
X912Y451D01*
X912Y449D01*
X910Y449D01*
X910Y445D01*
X908Y445D01*
X908Y443D01*
X906Y443D01*
X906Y441D01*
X904Y441D01*
X904Y439D01*
X902Y439D01*
X902Y437D01*
X900Y437D01*
X900Y435D01*
X898Y435D01*
X898Y433D01*
X896Y433D01*
X896Y431D01*
X892Y431D01*
X892Y429D01*
X890Y429D01*
X890Y427D01*
X886Y427D01*
X886Y425D01*
X882Y425D01*
X882Y423D01*
X878Y423D01*
X878Y421D01*
X874Y421D01*
X874Y419D01*
X868Y419D01*
X868Y417D01*
X858Y417D01*
X858Y415D01*
X1040Y415D01*
X1040Y417D01*
X1030Y417D01*
X1030Y419D01*
X1024Y419D01*
X1024Y421D01*
X1018Y421D01*
X1018Y423D01*
X1014Y423D01*
X1014Y425D01*
X1012Y425D01*
X1012Y427D01*
X1008Y427D01*
X1008Y429D01*
X1004Y429D01*
X1004Y431D01*
X1002Y431D01*
X1002Y433D01*
X1000Y433D01*
X1000Y435D01*
X998Y435D01*
X998Y437D01*
X996Y437D01*
X996Y439D01*
X992Y439D01*
X992Y443D01*
X990Y443D01*
X990Y445D01*
X988Y445D01*
X988Y447D01*
X986Y447D01*
X986Y449D01*
X984Y449D01*
X984Y453D01*
X982Y453D01*
X982Y455D01*
X980Y455D01*
X980Y459D01*
X978Y459D01*
X978Y463D01*
X976Y463D01*
X976Y467D01*
X974Y467D01*
X974Y473D01*
X972Y473D01*
X972Y481D01*
X970Y481D01*
X970Y515D01*
X972Y515D01*
X972Y523D01*
X974Y523D01*
X974Y529D01*
X976Y529D01*
X976Y533D01*
X978Y533D01*
X978Y537D01*
X980Y537D01*
X980Y541D01*
X982Y541D01*
X982Y545D01*
X984Y545D01*
X984Y547D01*
X986Y547D01*
X986Y549D01*
X988Y549D01*
X988Y553D01*
X990Y553D01*
X990Y555D01*
X992Y555D01*
X992Y557D01*
X994Y557D01*
X994Y559D01*
X996Y559D01*
X996Y561D01*
X998Y561D01*
X998Y563D01*
X1002Y563D01*
X1002Y565D01*
X1004Y565D01*
X1004Y567D01*
X1006Y567D01*
X1006Y569D01*
X1010Y569D01*
X1010Y571D01*
X1014Y571D01*
X1014Y573D01*
X1018Y573D01*
X1018Y575D01*
X1022Y575D01*
X1022Y577D01*
X1028Y577D01*
X1028Y579D01*
X1036Y579D01*
X1036Y581D01*
X862Y581D01*
G37*
D02*
G36*
X1070Y581D02*
X1070Y579D01*
X1078Y579D01*
X1078Y577D01*
X1084Y577D01*
X1084Y575D01*
X1088Y575D01*
X1088Y573D01*
X1092Y573D01*
X1092Y571D01*
X1096Y571D01*
X1096Y569D01*
X1098Y569D01*
X1098Y567D01*
X1102Y567D01*
X1102Y565D01*
X1104Y565D01*
X1104Y563D01*
X1106Y563D01*
X1106Y561D01*
X1110Y561D01*
X1110Y559D01*
X1112Y559D01*
X1112Y557D01*
X1114Y557D01*
X1114Y553D01*
X1116Y553D01*
X1116Y551D01*
X1118Y551D01*
X1118Y549D01*
X1120Y549D01*
X1120Y547D01*
X1122Y547D01*
X1122Y543D01*
X1124Y543D01*
X1124Y541D01*
X1126Y541D01*
X1126Y537D01*
X1128Y537D01*
X1128Y533D01*
X1130Y533D01*
X1130Y527D01*
X1132Y527D01*
X1132Y521D01*
X1134Y521D01*
X1134Y513D01*
X1136Y513D01*
X1136Y485D01*
X1134Y485D01*
X1134Y475D01*
X1132Y475D01*
X1132Y469D01*
X1130Y469D01*
X1130Y465D01*
X1128Y465D01*
X1128Y461D01*
X1126Y461D01*
X1126Y457D01*
X1124Y457D01*
X1124Y453D01*
X1122Y453D01*
X1122Y451D01*
X1120Y451D01*
X1120Y447D01*
X1118Y447D01*
X1118Y445D01*
X1116Y445D01*
X1116Y443D01*
X1114Y443D01*
X1114Y441D01*
X1112Y441D01*
X1112Y439D01*
X1110Y439D01*
X1110Y437D01*
X1108Y437D01*
X1108Y435D01*
X1106Y435D01*
X1106Y433D01*
X1104Y433D01*
X1104Y431D01*
X1100Y431D01*
X1100Y429D01*
X1098Y429D01*
X1098Y427D01*
X1094Y427D01*
X1094Y425D01*
X1090Y425D01*
X1090Y423D01*
X1086Y423D01*
X1086Y421D01*
X1082Y421D01*
X1082Y419D01*
X1076Y419D01*
X1076Y417D01*
X1066Y417D01*
X1066Y415D01*
X1248Y415D01*
X1248Y417D01*
X1238Y417D01*
X1238Y419D01*
X1232Y419D01*
X1232Y421D01*
X1228Y421D01*
X1228Y423D01*
X1224Y423D01*
X1224Y425D01*
X1220Y425D01*
X1220Y427D01*
X1216Y427D01*
X1216Y429D01*
X1214Y429D01*
X1214Y431D01*
X1210Y431D01*
X1210Y433D01*
X1208Y433D01*
X1208Y435D01*
X1206Y435D01*
X1206Y437D01*
X1204Y437D01*
X1204Y439D01*
X1202Y439D01*
X1202Y441D01*
X1200Y441D01*
X1200Y443D01*
X1198Y443D01*
X1198Y445D01*
X1196Y445D01*
X1196Y447D01*
X1194Y447D01*
X1194Y451D01*
X1192Y451D01*
X1192Y453D01*
X1190Y453D01*
X1190Y457D01*
X1188Y457D01*
X1188Y459D01*
X1186Y459D01*
X1186Y463D01*
X1184Y463D01*
X1184Y469D01*
X1182Y469D01*
X1182Y475D01*
X1180Y475D01*
X1180Y483D01*
X1178Y483D01*
X1178Y513D01*
X1180Y513D01*
X1180Y521D01*
X1182Y521D01*
X1182Y527D01*
X1184Y527D01*
X1184Y533D01*
X1186Y533D01*
X1186Y537D01*
X1188Y537D01*
X1188Y541D01*
X1190Y541D01*
X1190Y543D01*
X1192Y543D01*
X1192Y547D01*
X1194Y547D01*
X1194Y549D01*
X1196Y549D01*
X1196Y551D01*
X1198Y551D01*
X1198Y555D01*
X1200Y555D01*
X1200Y557D01*
X1202Y557D01*
X1202Y559D01*
X1204Y559D01*
X1204Y561D01*
X1208Y561D01*
X1208Y563D01*
X1210Y563D01*
X1210Y565D01*
X1212Y565D01*
X1212Y567D01*
X1216Y567D01*
X1216Y569D01*
X1218Y569D01*
X1218Y571D01*
X1222Y571D01*
X1222Y573D01*
X1226Y573D01*
X1226Y575D01*
X1230Y575D01*
X1230Y577D01*
X1236Y577D01*
X1236Y579D01*
X1244Y579D01*
X1244Y581D01*
X1070Y581D01*
G37*
D02*
G36*
X166Y545D02*
X166Y451D01*
X334Y451D01*
X334Y453D01*
X328Y453D01*
X328Y455D01*
X324Y455D01*
X324Y457D01*
X320Y457D01*
X320Y459D01*
X316Y459D01*
X316Y461D01*
X314Y461D01*
X314Y463D01*
X312Y463D01*
X312Y465D01*
X310Y465D01*
X310Y467D01*
X308Y467D01*
X308Y469D01*
X306Y469D01*
X306Y473D01*
X304Y473D01*
X304Y475D01*
X302Y475D01*
X302Y479D01*
X300Y479D01*
X300Y485D01*
X298Y485D01*
X298Y497D01*
X296Y497D01*
X296Y499D01*
X298Y499D01*
X298Y511D01*
X300Y511D01*
X300Y517D01*
X302Y517D01*
X302Y521D01*
X304Y521D01*
X304Y525D01*
X306Y525D01*
X306Y527D01*
X308Y527D01*
X308Y529D01*
X310Y529D01*
X310Y531D01*
X312Y531D01*
X312Y533D01*
X314Y533D01*
X314Y535D01*
X316Y535D01*
X316Y537D01*
X318Y537D01*
X318Y539D01*
X322Y539D01*
X322Y541D01*
X326Y541D01*
X326Y543D01*
X332Y543D01*
X332Y545D01*
X166Y545D01*
G37*
D02*
G36*
X1566Y539D02*
X1566Y507D01*
X1568Y507D01*
X1568Y505D01*
X1570Y505D01*
X1570Y503D01*
X1572Y503D01*
X1572Y501D01*
X1574Y501D01*
X1574Y499D01*
X1576Y499D01*
X1576Y497D01*
X1578Y497D01*
X1578Y495D01*
X1580Y495D01*
X1580Y493D01*
X1582Y493D01*
X1582Y491D01*
X1584Y491D01*
X1584Y489D01*
X1604Y489D01*
X1604Y497D01*
X1602Y497D01*
X1602Y499D01*
X1604Y499D01*
X1604Y511D01*
X1606Y511D01*
X1606Y515D01*
X1608Y515D01*
X1608Y519D01*
X1610Y519D01*
X1610Y523D01*
X1612Y523D01*
X1612Y525D01*
X1614Y525D01*
X1614Y527D01*
X1616Y527D01*
X1616Y529D01*
X1618Y529D01*
X1618Y531D01*
X1620Y531D01*
X1620Y533D01*
X1624Y533D01*
X1624Y535D01*
X1628Y535D01*
X1628Y537D01*
X1634Y537D01*
X1634Y539D01*
X1566Y539D01*
G37*
D02*
G36*
X374Y463D02*
X374Y461D01*
X372Y461D01*
X372Y459D01*
X370Y459D01*
X370Y457D01*
X366Y457D01*
X366Y455D01*
X362Y455D01*
X362Y453D01*
X354Y453D01*
X354Y451D01*
X396Y451D01*
X396Y463D01*
X374Y463D01*
G37*
D02*
G36*
X166Y451D02*
X166Y449D01*
X486Y449D01*
X486Y451D01*
X166Y451D01*
G37*
D02*
G36*
X166Y451D02*
X166Y449D01*
X486Y449D01*
X486Y451D01*
X166Y451D01*
G37*
D02*
G36*
X166Y449D02*
X166Y407D01*
X168Y407D01*
X168Y405D01*
X170Y405D01*
X170Y403D01*
X172Y403D01*
X172Y401D01*
X174Y401D01*
X174Y399D01*
X176Y399D01*
X176Y397D01*
X178Y397D01*
X178Y395D01*
X180Y395D01*
X180Y393D01*
X182Y393D01*
X182Y391D01*
X184Y391D01*
X184Y389D01*
X186Y389D01*
X186Y387D01*
X188Y387D01*
X188Y385D01*
X190Y385D01*
X190Y383D01*
X192Y383D01*
X192Y381D01*
X194Y381D01*
X194Y379D01*
X196Y379D01*
X196Y377D01*
X198Y377D01*
X198Y375D01*
X200Y375D01*
X200Y373D01*
X202Y373D01*
X202Y371D01*
X204Y371D01*
X204Y369D01*
X206Y369D01*
X206Y367D01*
X208Y367D01*
X208Y365D01*
X210Y365D01*
X210Y363D01*
X212Y363D01*
X212Y361D01*
X214Y361D01*
X214Y359D01*
X216Y359D01*
X216Y357D01*
X218Y357D01*
X218Y355D01*
X220Y355D01*
X220Y353D01*
X222Y353D01*
X222Y351D01*
X224Y351D01*
X224Y349D01*
X226Y349D01*
X226Y347D01*
X228Y347D01*
X228Y345D01*
X230Y345D01*
X230Y343D01*
X232Y343D01*
X232Y341D01*
X234Y341D01*
X234Y339D01*
X236Y339D01*
X236Y337D01*
X238Y337D01*
X238Y335D01*
X240Y335D01*
X240Y333D01*
X242Y333D01*
X242Y331D01*
X244Y331D01*
X244Y329D01*
X246Y329D01*
X246Y327D01*
X248Y327D01*
X248Y325D01*
X250Y325D01*
X250Y323D01*
X252Y323D01*
X252Y321D01*
X254Y321D01*
X254Y319D01*
X430Y319D01*
X430Y321D01*
X432Y321D01*
X432Y325D01*
X434Y325D01*
X434Y329D01*
X436Y329D01*
X436Y333D01*
X438Y333D01*
X438Y337D01*
X440Y337D01*
X440Y341D01*
X442Y341D01*
X442Y345D01*
X444Y345D01*
X444Y349D01*
X446Y349D01*
X446Y353D01*
X448Y353D01*
X448Y357D01*
X450Y357D01*
X450Y361D01*
X452Y361D01*
X452Y365D01*
X454Y365D01*
X454Y369D01*
X456Y369D01*
X456Y373D01*
X458Y373D01*
X458Y377D01*
X460Y377D01*
X460Y381D01*
X462Y381D01*
X462Y385D01*
X464Y385D01*
X464Y389D01*
X466Y389D01*
X466Y393D01*
X468Y393D01*
X468Y397D01*
X470Y397D01*
X470Y401D01*
X472Y401D01*
X472Y405D01*
X474Y405D01*
X474Y409D01*
X476Y409D01*
X476Y413D01*
X478Y413D01*
X478Y417D01*
X480Y417D01*
X480Y421D01*
X482Y421D01*
X482Y425D01*
X484Y425D01*
X484Y429D01*
X486Y429D01*
X486Y449D01*
X166Y449D01*
G37*
D02*
G36*
X640Y415D02*
X640Y413D01*
X1424Y413D01*
X1424Y415D01*
X640Y415D01*
G37*
D02*
G36*
X640Y415D02*
X640Y413D01*
X1424Y413D01*
X1424Y415D01*
X640Y415D01*
G37*
D02*
G36*
X640Y415D02*
X640Y413D01*
X1424Y413D01*
X1424Y415D01*
X640Y415D01*
G37*
D02*
G36*
X640Y415D02*
X640Y413D01*
X1424Y413D01*
X1424Y415D01*
X640Y415D01*
G37*
D02*
G36*
X638Y413D02*
X638Y407D01*
X636Y407D01*
X636Y401D01*
X634Y401D01*
X634Y395D01*
X632Y395D01*
X632Y389D01*
X630Y389D01*
X630Y383D01*
X628Y383D01*
X628Y377D01*
X626Y377D01*
X626Y371D01*
X624Y371D01*
X624Y365D01*
X622Y365D01*
X622Y359D01*
X620Y359D01*
X620Y353D01*
X618Y353D01*
X618Y347D01*
X616Y347D01*
X616Y341D01*
X614Y341D01*
X614Y335D01*
X612Y335D01*
X612Y329D01*
X610Y329D01*
X610Y323D01*
X608Y323D01*
X608Y317D01*
X606Y317D01*
X606Y311D01*
X604Y311D01*
X604Y305D01*
X602Y305D01*
X602Y299D01*
X600Y299D01*
X600Y293D01*
X598Y293D01*
X598Y287D01*
X596Y287D01*
X596Y281D01*
X594Y281D01*
X594Y275D01*
X592Y275D01*
X592Y269D01*
X590Y269D01*
X590Y263D01*
X588Y263D01*
X588Y259D01*
X804Y259D01*
X804Y139D01*
X1194Y139D01*
X1194Y259D01*
X1282Y259D01*
X1282Y261D01*
X1284Y261D01*
X1284Y263D01*
X1286Y263D01*
X1286Y265D01*
X1288Y265D01*
X1288Y267D01*
X1290Y267D01*
X1290Y269D01*
X1292Y269D01*
X1292Y271D01*
X1294Y271D01*
X1294Y273D01*
X1296Y273D01*
X1296Y275D01*
X1298Y275D01*
X1298Y277D01*
X1300Y277D01*
X1300Y279D01*
X1302Y279D01*
X1302Y281D01*
X1304Y281D01*
X1304Y283D01*
X1306Y283D01*
X1306Y285D01*
X1308Y285D01*
X1308Y287D01*
X1310Y287D01*
X1310Y289D01*
X1312Y289D01*
X1312Y291D01*
X1314Y291D01*
X1314Y293D01*
X1316Y293D01*
X1316Y297D01*
X1318Y297D01*
X1318Y299D01*
X1320Y299D01*
X1320Y301D01*
X1322Y301D01*
X1322Y303D01*
X1324Y303D01*
X1324Y305D01*
X1326Y305D01*
X1326Y307D01*
X1328Y307D01*
X1328Y309D01*
X1330Y309D01*
X1330Y311D01*
X1332Y311D01*
X1332Y313D01*
X1334Y313D01*
X1334Y315D01*
X1336Y315D01*
X1336Y317D01*
X1338Y317D01*
X1338Y319D01*
X1340Y319D01*
X1340Y321D01*
X1342Y321D01*
X1342Y323D01*
X1344Y323D01*
X1344Y325D01*
X1346Y325D01*
X1346Y327D01*
X1348Y327D01*
X1348Y329D01*
X1350Y329D01*
X1350Y331D01*
X1352Y331D01*
X1352Y333D01*
X1354Y333D01*
X1354Y337D01*
X1356Y337D01*
X1356Y339D01*
X1358Y339D01*
X1358Y341D01*
X1360Y341D01*
X1360Y343D01*
X1362Y343D01*
X1362Y345D01*
X1364Y345D01*
X1364Y347D01*
X1366Y347D01*
X1366Y349D01*
X1368Y349D01*
X1368Y351D01*
X1370Y351D01*
X1370Y353D01*
X1372Y353D01*
X1372Y355D01*
X1374Y355D01*
X1374Y357D01*
X1376Y357D01*
X1376Y359D01*
X1378Y359D01*
X1378Y361D01*
X1380Y361D01*
X1380Y363D01*
X1382Y363D01*
X1382Y365D01*
X1384Y365D01*
X1384Y367D01*
X1386Y367D01*
X1386Y369D01*
X1388Y369D01*
X1388Y371D01*
X1390Y371D01*
X1390Y373D01*
X1392Y373D01*
X1392Y377D01*
X1394Y377D01*
X1394Y379D01*
X1396Y379D01*
X1396Y381D01*
X1398Y381D01*
X1398Y383D01*
X1400Y383D01*
X1400Y385D01*
X1402Y385D01*
X1402Y387D01*
X1404Y387D01*
X1404Y389D01*
X1406Y389D01*
X1406Y391D01*
X1408Y391D01*
X1408Y393D01*
X1410Y393D01*
X1410Y395D01*
X1412Y395D01*
X1412Y397D01*
X1414Y397D01*
X1414Y399D01*
X1416Y399D01*
X1416Y401D01*
X1418Y401D01*
X1418Y403D01*
X1420Y403D01*
X1420Y405D01*
X1422Y405D01*
X1422Y407D01*
X1424Y407D01*
X1424Y413D01*
X638Y413D01*
G37*
D02*
G36*
X1436Y359D02*
X1436Y357D01*
X1922Y357D01*
X1922Y359D01*
X1436Y359D01*
G37*
D02*
G36*
X1436Y359D02*
X1436Y357D01*
X1922Y357D01*
X1922Y359D01*
X1436Y359D01*
G37*
D02*
G36*
X1434Y357D02*
X1434Y355D01*
X1432Y355D01*
X1432Y353D01*
X1430Y353D01*
X1430Y351D01*
X1428Y351D01*
X1428Y347D01*
X1426Y347D01*
X1426Y345D01*
X1424Y345D01*
X1424Y343D01*
X1422Y343D01*
X1422Y341D01*
X1420Y341D01*
X1420Y339D01*
X1418Y339D01*
X1418Y337D01*
X1416Y337D01*
X1416Y335D01*
X1414Y335D01*
X1414Y333D01*
X1412Y333D01*
X1412Y331D01*
X1410Y331D01*
X1410Y329D01*
X1408Y329D01*
X1408Y327D01*
X1406Y327D01*
X1406Y325D01*
X1404Y325D01*
X1404Y323D01*
X1402Y323D01*
X1402Y321D01*
X1400Y321D01*
X1400Y319D01*
X1398Y319D01*
X1398Y317D01*
X1396Y317D01*
X1396Y315D01*
X1394Y315D01*
X1394Y313D01*
X1392Y313D01*
X1392Y311D01*
X1390Y311D01*
X1390Y307D01*
X1388Y307D01*
X1388Y305D01*
X1386Y305D01*
X1386Y303D01*
X1384Y303D01*
X1384Y301D01*
X1382Y301D01*
X1382Y299D01*
X1380Y299D01*
X1380Y297D01*
X1378Y297D01*
X1378Y295D01*
X1376Y295D01*
X1376Y293D01*
X1374Y293D01*
X1374Y291D01*
X1372Y291D01*
X1372Y289D01*
X1370Y289D01*
X1370Y287D01*
X1368Y287D01*
X1368Y285D01*
X1366Y285D01*
X1366Y283D01*
X1364Y283D01*
X1364Y281D01*
X1362Y281D01*
X1362Y279D01*
X1360Y279D01*
X1360Y277D01*
X1358Y277D01*
X1358Y275D01*
X1356Y275D01*
X1356Y273D01*
X1354Y273D01*
X1354Y271D01*
X1352Y271D01*
X1352Y267D01*
X1350Y267D01*
X1350Y265D01*
X1348Y265D01*
X1348Y263D01*
X1346Y263D01*
X1346Y261D01*
X1344Y261D01*
X1344Y259D01*
X1342Y259D01*
X1342Y257D01*
X1340Y257D01*
X1340Y255D01*
X1338Y255D01*
X1338Y253D01*
X1336Y253D01*
X1336Y251D01*
X1334Y251D01*
X1334Y249D01*
X1332Y249D01*
X1332Y247D01*
X1330Y247D01*
X1330Y245D01*
X1328Y245D01*
X1328Y243D01*
X1326Y243D01*
X1326Y241D01*
X1324Y241D01*
X1324Y239D01*
X1322Y239D01*
X1322Y237D01*
X1320Y237D01*
X1320Y235D01*
X1318Y235D01*
X1318Y233D01*
X1316Y233D01*
X1316Y231D01*
X1314Y231D01*
X1314Y139D01*
X1796Y139D01*
X1796Y141D01*
X1800Y141D01*
X1800Y143D01*
X1802Y143D01*
X1802Y145D01*
X1804Y145D01*
X1804Y147D01*
X1806Y147D01*
X1806Y149D01*
X1808Y149D01*
X1808Y151D01*
X1810Y151D01*
X1810Y153D01*
X1812Y153D01*
X1812Y155D01*
X1814Y155D01*
X1814Y157D01*
X1816Y157D01*
X1816Y159D01*
X1818Y159D01*
X1818Y161D01*
X1820Y161D01*
X1820Y163D01*
X1822Y163D01*
X1822Y165D01*
X1824Y165D01*
X1824Y167D01*
X1826Y167D01*
X1826Y169D01*
X1828Y169D01*
X1828Y173D01*
X1830Y173D01*
X1830Y175D01*
X1832Y175D01*
X1832Y177D01*
X1834Y177D01*
X1834Y179D01*
X1836Y179D01*
X1836Y181D01*
X1838Y181D01*
X1838Y183D01*
X1840Y183D01*
X1840Y187D01*
X1842Y187D01*
X1842Y189D01*
X1844Y189D01*
X1844Y191D01*
X1846Y191D01*
X1846Y193D01*
X1848Y193D01*
X1848Y197D01*
X1850Y197D01*
X1850Y199D01*
X1852Y199D01*
X1852Y201D01*
X1854Y201D01*
X1854Y205D01*
X1856Y205D01*
X1856Y207D01*
X1858Y207D01*
X1858Y211D01*
X1860Y211D01*
X1860Y213D01*
X1862Y213D01*
X1862Y217D01*
X1864Y217D01*
X1864Y219D01*
X1866Y219D01*
X1866Y223D01*
X1868Y223D01*
X1868Y225D01*
X1870Y225D01*
X1870Y229D01*
X1872Y229D01*
X1872Y231D01*
X1874Y231D01*
X1874Y235D01*
X1876Y235D01*
X1876Y239D01*
X1878Y239D01*
X1878Y243D01*
X1880Y243D01*
X1880Y245D01*
X1882Y245D01*
X1882Y249D01*
X1884Y249D01*
X1884Y253D01*
X1886Y253D01*
X1886Y257D01*
X1888Y257D01*
X1888Y261D01*
X1890Y261D01*
X1890Y265D01*
X1892Y265D01*
X1892Y269D01*
X1894Y269D01*
X1894Y275D01*
X1896Y275D01*
X1896Y279D01*
X1898Y279D01*
X1898Y283D01*
X1900Y283D01*
X1900Y289D01*
X1902Y289D01*
X1902Y293D01*
X1904Y293D01*
X1904Y299D01*
X1906Y299D01*
X1906Y305D01*
X1908Y305D01*
X1908Y311D01*
X1910Y311D01*
X1910Y317D01*
X1912Y317D01*
X1912Y323D01*
X1914Y323D01*
X1914Y331D01*
X1916Y331D01*
X1916Y339D01*
X1918Y339D01*
X1918Y347D01*
X1920Y347D01*
X1920Y357D01*
X1434Y357D01*
G37*
D02*
G36*
X48Y343D02*
X48Y341D01*
X50Y341D01*
X50Y333D01*
X52Y333D01*
X52Y325D01*
X54Y325D01*
X54Y319D01*
X56Y319D01*
X56Y313D01*
X58Y313D01*
X58Y307D01*
X60Y307D01*
X60Y301D01*
X62Y301D01*
X62Y295D01*
X64Y295D01*
X64Y289D01*
X66Y289D01*
X66Y285D01*
X68Y285D01*
X68Y279D01*
X70Y279D01*
X70Y275D01*
X72Y275D01*
X72Y271D01*
X74Y271D01*
X74Y267D01*
X76Y267D01*
X76Y263D01*
X78Y263D01*
X78Y259D01*
X80Y259D01*
X80Y255D01*
X82Y255D01*
X82Y251D01*
X84Y251D01*
X84Y247D01*
X86Y247D01*
X86Y243D01*
X88Y243D01*
X88Y239D01*
X90Y239D01*
X90Y237D01*
X92Y237D01*
X92Y233D01*
X94Y233D01*
X94Y229D01*
X96Y229D01*
X96Y227D01*
X98Y227D01*
X98Y223D01*
X100Y223D01*
X100Y219D01*
X102Y219D01*
X102Y217D01*
X104Y217D01*
X104Y213D01*
X106Y213D01*
X106Y211D01*
X108Y211D01*
X108Y209D01*
X110Y209D01*
X110Y205D01*
X112Y205D01*
X112Y203D01*
X114Y203D01*
X114Y199D01*
X116Y199D01*
X116Y197D01*
X118Y197D01*
X118Y195D01*
X120Y195D01*
X120Y191D01*
X122Y191D01*
X122Y189D01*
X124Y189D01*
X124Y187D01*
X126Y187D01*
X126Y185D01*
X128Y185D01*
X128Y181D01*
X130Y181D01*
X130Y179D01*
X132Y179D01*
X132Y177D01*
X134Y177D01*
X134Y175D01*
X242Y175D01*
X242Y177D01*
X234Y177D01*
X234Y179D01*
X232Y179D01*
X232Y181D01*
X228Y181D01*
X228Y183D01*
X226Y183D01*
X226Y185D01*
X224Y185D01*
X224Y187D01*
X222Y187D01*
X222Y189D01*
X220Y189D01*
X220Y191D01*
X218Y191D01*
X218Y193D01*
X216Y193D01*
X216Y195D01*
X214Y195D01*
X214Y197D01*
X212Y197D01*
X212Y199D01*
X210Y199D01*
X210Y201D01*
X208Y201D01*
X208Y203D01*
X206Y203D01*
X206Y205D01*
X204Y205D01*
X204Y207D01*
X202Y207D01*
X202Y209D01*
X200Y209D01*
X200Y211D01*
X198Y211D01*
X198Y213D01*
X196Y213D01*
X196Y215D01*
X194Y215D01*
X194Y217D01*
X192Y217D01*
X192Y219D01*
X190Y219D01*
X190Y221D01*
X188Y221D01*
X188Y223D01*
X186Y223D01*
X186Y225D01*
X184Y225D01*
X184Y227D01*
X182Y227D01*
X182Y229D01*
X180Y229D01*
X180Y231D01*
X178Y231D01*
X178Y233D01*
X176Y233D01*
X176Y235D01*
X174Y235D01*
X174Y237D01*
X172Y237D01*
X172Y239D01*
X170Y239D01*
X170Y241D01*
X168Y241D01*
X168Y243D01*
X166Y243D01*
X166Y245D01*
X164Y245D01*
X164Y247D01*
X162Y247D01*
X162Y249D01*
X160Y249D01*
X160Y251D01*
X158Y251D01*
X158Y253D01*
X156Y253D01*
X156Y255D01*
X154Y255D01*
X154Y257D01*
X152Y257D01*
X152Y259D01*
X150Y259D01*
X150Y261D01*
X148Y261D01*
X148Y263D01*
X146Y263D01*
X146Y265D01*
X144Y265D01*
X144Y267D01*
X142Y267D01*
X142Y269D01*
X140Y269D01*
X140Y271D01*
X138Y271D01*
X138Y273D01*
X136Y273D01*
X136Y275D01*
X134Y275D01*
X134Y277D01*
X132Y277D01*
X132Y279D01*
X130Y279D01*
X130Y281D01*
X128Y281D01*
X128Y283D01*
X126Y283D01*
X126Y285D01*
X124Y285D01*
X124Y287D01*
X122Y287D01*
X122Y289D01*
X120Y289D01*
X120Y291D01*
X118Y291D01*
X118Y293D01*
X116Y293D01*
X116Y295D01*
X114Y295D01*
X114Y297D01*
X112Y297D01*
X112Y299D01*
X110Y299D01*
X110Y301D01*
X108Y301D01*
X108Y303D01*
X106Y303D01*
X106Y305D01*
X104Y305D01*
X104Y307D01*
X102Y307D01*
X102Y309D01*
X100Y309D01*
X100Y311D01*
X98Y311D01*
X98Y313D01*
X96Y313D01*
X96Y315D01*
X94Y315D01*
X94Y317D01*
X92Y317D01*
X92Y319D01*
X90Y319D01*
X90Y321D01*
X88Y321D01*
X88Y323D01*
X86Y323D01*
X86Y325D01*
X84Y325D01*
X84Y327D01*
X82Y327D01*
X82Y329D01*
X80Y329D01*
X80Y331D01*
X78Y331D01*
X78Y333D01*
X76Y333D01*
X76Y335D01*
X74Y335D01*
X74Y337D01*
X72Y337D01*
X72Y339D01*
X70Y339D01*
X70Y341D01*
X68Y341D01*
X68Y343D01*
X48Y343D01*
G37*
D02*
G36*
X200Y275D02*
X200Y273D01*
X546Y273D01*
X546Y275D01*
X200Y275D01*
G37*
D02*
G36*
X200Y275D02*
X200Y273D01*
X546Y273D01*
X546Y275D01*
X200Y275D01*
G37*
D02*
G36*
X202Y273D02*
X202Y271D01*
X204Y271D01*
X204Y269D01*
X206Y269D01*
X206Y267D01*
X208Y267D01*
X208Y265D01*
X210Y265D01*
X210Y263D01*
X212Y263D01*
X212Y261D01*
X214Y261D01*
X214Y259D01*
X216Y259D01*
X216Y257D01*
X218Y257D01*
X218Y255D01*
X220Y255D01*
X220Y253D01*
X222Y253D01*
X222Y251D01*
X224Y251D01*
X224Y249D01*
X226Y249D01*
X226Y247D01*
X228Y247D01*
X228Y245D01*
X230Y245D01*
X230Y243D01*
X232Y243D01*
X232Y241D01*
X234Y241D01*
X234Y239D01*
X236Y239D01*
X236Y237D01*
X238Y237D01*
X238Y235D01*
X240Y235D01*
X240Y233D01*
X242Y233D01*
X242Y231D01*
X244Y231D01*
X244Y229D01*
X246Y229D01*
X246Y227D01*
X248Y227D01*
X248Y225D01*
X250Y225D01*
X250Y223D01*
X252Y223D01*
X252Y221D01*
X254Y221D01*
X254Y219D01*
X528Y219D01*
X528Y223D01*
X530Y223D01*
X530Y229D01*
X532Y229D01*
X532Y235D01*
X534Y235D01*
X534Y241D01*
X536Y241D01*
X536Y247D01*
X538Y247D01*
X538Y253D01*
X540Y253D01*
X540Y259D01*
X542Y259D01*
X542Y265D01*
X544Y265D01*
X544Y271D01*
X546Y271D01*
X546Y273D01*
X202Y273D01*
G37*
D02*
G36*
X588Y259D02*
X588Y257D01*
X586Y257D01*
X586Y251D01*
X584Y251D01*
X584Y245D01*
X582Y245D01*
X582Y239D01*
X580Y239D01*
X580Y233D01*
X578Y233D01*
X578Y227D01*
X576Y227D01*
X576Y221D01*
X574Y221D01*
X574Y215D01*
X572Y215D01*
X572Y209D01*
X570Y209D01*
X570Y203D01*
X568Y203D01*
X568Y197D01*
X566Y197D01*
X566Y191D01*
X564Y191D01*
X564Y187D01*
X562Y187D01*
X562Y185D01*
X560Y185D01*
X560Y181D01*
X556Y181D01*
X556Y179D01*
X554Y179D01*
X554Y177D01*
X546Y177D01*
X546Y175D01*
X684Y175D01*
X684Y259D01*
X588Y259D01*
G37*
D02*
G36*
X136Y175D02*
X136Y173D01*
X684Y173D01*
X684Y175D01*
X136Y175D01*
G37*
D02*
G36*
X136Y175D02*
X136Y173D01*
X684Y173D01*
X684Y175D01*
X136Y175D01*
G37*
D02*
G36*
X138Y173D02*
X138Y171D01*
X140Y171D01*
X140Y169D01*
X142Y169D01*
X142Y165D01*
X144Y165D01*
X144Y163D01*
X146Y163D01*
X146Y161D01*
X148Y161D01*
X148Y159D01*
X150Y159D01*
X150Y157D01*
X152Y157D01*
X152Y155D01*
X154Y155D01*
X154Y153D01*
X156Y153D01*
X156Y151D01*
X158Y151D01*
X158Y149D01*
X160Y149D01*
X160Y147D01*
X164Y147D01*
X164Y145D01*
X166Y145D01*
X166Y143D01*
X168Y143D01*
X168Y141D01*
X170Y141D01*
X170Y139D01*
X684Y139D01*
X684Y173D01*
X138Y173D01*
G37*
D02*
G36*
X172Y139D02*
X172Y137D01*
X1794Y137D01*
X1794Y139D01*
X172Y139D01*
G37*
D02*
G36*
X172Y139D02*
X172Y137D01*
X1794Y137D01*
X1794Y139D01*
X172Y139D01*
G37*
D02*
G36*
X172Y139D02*
X172Y137D01*
X1794Y137D01*
X1794Y139D01*
X172Y139D01*
G37*
D02*
G36*
X174Y137D02*
X174Y135D01*
X176Y135D01*
X176Y133D01*
X178Y133D01*
X178Y131D01*
X182Y131D01*
X182Y129D01*
X184Y129D01*
X184Y127D01*
X186Y127D01*
X186Y125D01*
X188Y125D01*
X188Y123D01*
X192Y123D01*
X192Y121D01*
X194Y121D01*
X194Y119D01*
X196Y119D01*
X196Y117D01*
X200Y117D01*
X200Y115D01*
X202Y115D01*
X202Y113D01*
X206Y113D01*
X206Y111D01*
X208Y111D01*
X208Y109D01*
X210Y109D01*
X210Y107D01*
X214Y107D01*
X214Y105D01*
X216Y105D01*
X216Y103D01*
X220Y103D01*
X220Y101D01*
X224Y101D01*
X224Y99D01*
X226Y99D01*
X226Y97D01*
X230Y97D01*
X230Y95D01*
X234Y95D01*
X234Y93D01*
X236Y93D01*
X236Y91D01*
X240Y91D01*
X240Y89D01*
X244Y89D01*
X244Y87D01*
X248Y87D01*
X248Y85D01*
X252Y85D01*
X252Y83D01*
X256Y83D01*
X256Y81D01*
X260Y81D01*
X260Y79D01*
X264Y79D01*
X264Y77D01*
X268Y77D01*
X268Y75D01*
X272Y75D01*
X272Y73D01*
X276Y73D01*
X276Y71D01*
X282Y71D01*
X282Y69D01*
X286Y69D01*
X286Y67D01*
X292Y67D01*
X292Y65D01*
X296Y65D01*
X296Y63D01*
X302Y63D01*
X302Y61D01*
X308Y61D01*
X308Y59D01*
X314Y59D01*
X314Y57D01*
X322Y57D01*
X322Y55D01*
X328Y55D01*
X328Y53D01*
X336Y53D01*
X336Y51D01*
X344Y51D01*
X344Y49D01*
X352Y49D01*
X352Y47D01*
X364Y47D01*
X364Y45D01*
X376Y45D01*
X376Y43D01*
X392Y43D01*
X392Y41D01*
X1576Y41D01*
X1576Y43D01*
X1592Y43D01*
X1592Y45D01*
X1602Y45D01*
X1602Y47D01*
X1614Y47D01*
X1614Y49D01*
X1622Y49D01*
X1622Y51D01*
X1632Y51D01*
X1632Y53D01*
X1638Y53D01*
X1638Y55D01*
X1646Y55D01*
X1646Y57D01*
X1652Y57D01*
X1652Y59D01*
X1658Y59D01*
X1658Y61D01*
X1664Y61D01*
X1664Y63D01*
X1670Y63D01*
X1670Y65D01*
X1674Y65D01*
X1674Y67D01*
X1680Y67D01*
X1680Y69D01*
X1686Y69D01*
X1686Y71D01*
X1690Y71D01*
X1690Y73D01*
X1694Y73D01*
X1694Y75D01*
X1698Y75D01*
X1698Y77D01*
X1704Y77D01*
X1704Y79D01*
X1708Y79D01*
X1708Y81D01*
X1712Y81D01*
X1712Y83D01*
X1716Y83D01*
X1716Y85D01*
X1720Y85D01*
X1720Y87D01*
X1722Y87D01*
X1722Y89D01*
X1726Y89D01*
X1726Y91D01*
X1730Y91D01*
X1730Y93D01*
X1734Y93D01*
X1734Y95D01*
X1736Y95D01*
X1736Y97D01*
X1740Y97D01*
X1740Y99D01*
X1744Y99D01*
X1744Y101D01*
X1746Y101D01*
X1746Y103D01*
X1750Y103D01*
X1750Y105D01*
X1752Y105D01*
X1752Y107D01*
X1756Y107D01*
X1756Y109D01*
X1758Y109D01*
X1758Y111D01*
X1762Y111D01*
X1762Y113D01*
X1764Y113D01*
X1764Y115D01*
X1768Y115D01*
X1768Y117D01*
X1770Y117D01*
X1770Y119D01*
X1772Y119D01*
X1772Y121D01*
X1776Y121D01*
X1776Y123D01*
X1778Y123D01*
X1778Y125D01*
X1780Y125D01*
X1780Y127D01*
X1782Y127D01*
X1782Y129D01*
X1786Y129D01*
X1786Y131D01*
X1788Y131D01*
X1788Y133D01*
X1790Y133D01*
X1790Y135D01*
X1792Y135D01*
X1792Y137D01*
X174Y137D01*
G37*
D02*
G54D21*
X696Y249D02*
X794Y249D01*
X1205Y249D02*
X1304Y249D01*
X695Y248D02*
X794Y248D01*
X1205Y248D02*
X1304Y248D01*
X695Y247D02*
X794Y247D01*
X1205Y247D02*
X1304Y247D01*
X695Y246D02*
X794Y246D01*
X1205Y246D02*
X1304Y246D01*
X695Y245D02*
X794Y245D01*
X1205Y245D02*
X1304Y245D01*
X695Y244D02*
X794Y244D01*
X1205Y244D02*
X1304Y244D01*
X695Y243D02*
X794Y243D01*
X1205Y243D02*
X1304Y243D01*
X695Y242D02*
X794Y242D01*
X1205Y242D02*
X1304Y242D01*
X695Y241D02*
X794Y241D01*
X1205Y241D02*
X1304Y241D01*
X695Y240D02*
X794Y240D01*
X1205Y240D02*
X1304Y240D01*
X695Y239D02*
X741Y239D01*
X748Y239D02*
X794Y239D01*
X1205Y239D02*
X1251Y239D01*
X1258Y239D02*
X1304Y239D01*
X695Y238D02*
X735Y238D01*
X755Y238D02*
X794Y238D01*
X1205Y238D02*
X1245Y238D01*
X1264Y238D02*
X1304Y238D01*
X695Y237D02*
X731Y237D01*
X758Y237D02*
X794Y237D01*
X1205Y237D02*
X1241Y237D01*
X1268Y237D02*
X1304Y237D01*
X695Y236D02*
X729Y236D01*
X761Y236D02*
X794Y236D01*
X1205Y236D02*
X1239Y236D01*
X1271Y236D02*
X1304Y236D01*
X695Y235D02*
X727Y235D01*
X763Y235D02*
X794Y235D01*
X1205Y235D02*
X1236Y235D01*
X1273Y235D02*
X1304Y235D01*
X695Y234D02*
X725Y234D01*
X765Y234D02*
X794Y234D01*
X1205Y234D02*
X1235Y234D01*
X1275Y234D02*
X1304Y234D01*
X695Y233D02*
X723Y233D01*
X766Y233D02*
X794Y233D01*
X1205Y233D02*
X1233Y233D01*
X1276Y233D02*
X1304Y233D01*
X695Y232D02*
X721Y232D01*
X768Y232D02*
X794Y232D01*
X1205Y232D02*
X1231Y232D01*
X1278Y232D02*
X1304Y232D01*
X695Y231D02*
X720Y231D01*
X769Y231D02*
X794Y231D01*
X1205Y231D02*
X1230Y231D01*
X1279Y231D02*
X1304Y231D01*
X695Y230D02*
X719Y230D01*
X771Y230D02*
X794Y230D01*
X1205Y230D02*
X1229Y230D01*
X1281Y230D02*
X1304Y230D01*
X695Y229D02*
X718Y229D01*
X772Y229D02*
X794Y229D01*
X1205Y229D02*
X1228Y229D01*
X1282Y229D02*
X1304Y229D01*
X695Y228D02*
X717Y228D01*
X773Y228D02*
X794Y228D01*
X1205Y228D02*
X1226Y228D01*
X1283Y228D02*
X1304Y228D01*
X695Y227D02*
X716Y227D01*
X774Y227D02*
X794Y227D01*
X1205Y227D02*
X1225Y227D01*
X1284Y227D02*
X1304Y227D01*
X695Y226D02*
X715Y226D01*
X775Y226D02*
X794Y226D01*
X1205Y226D02*
X1225Y226D01*
X1285Y226D02*
X1304Y226D01*
X695Y225D02*
X714Y225D01*
X776Y225D02*
X794Y225D01*
X1205Y225D02*
X1224Y225D01*
X1286Y225D02*
X1304Y225D01*
X695Y224D02*
X713Y224D01*
X777Y224D02*
X794Y224D01*
X1205Y224D02*
X1223Y224D01*
X1286Y224D02*
X1304Y224D01*
X695Y223D02*
X712Y223D01*
X777Y223D02*
X794Y223D01*
X1205Y223D02*
X1222Y223D01*
X1287Y223D02*
X1304Y223D01*
X695Y222D02*
X711Y222D01*
X778Y222D02*
X794Y222D01*
X1205Y222D02*
X1221Y222D01*
X1288Y222D02*
X1304Y222D01*
X695Y221D02*
X711Y221D01*
X779Y221D02*
X794Y221D01*
X1205Y221D02*
X1221Y221D01*
X1289Y221D02*
X1304Y221D01*
X695Y220D02*
X710Y220D01*
X779Y220D02*
X794Y220D01*
X1205Y220D02*
X1220Y220D01*
X1289Y220D02*
X1304Y220D01*
X695Y219D02*
X710Y219D01*
X780Y219D02*
X794Y219D01*
X1205Y219D02*
X1219Y219D01*
X1290Y219D02*
X1304Y219D01*
X695Y218D02*
X709Y218D01*
X781Y218D02*
X794Y218D01*
X1205Y218D02*
X1219Y218D01*
X1290Y218D02*
X1304Y218D01*
X695Y217D02*
X709Y217D01*
X781Y217D02*
X794Y217D01*
X1205Y217D02*
X1218Y217D01*
X1291Y217D02*
X1304Y217D01*
X695Y216D02*
X708Y216D01*
X781Y216D02*
X794Y216D01*
X1205Y216D02*
X1218Y216D01*
X1291Y216D02*
X1304Y216D01*
X695Y215D02*
X708Y215D01*
X782Y215D02*
X794Y215D01*
X1205Y215D02*
X1217Y215D01*
X1292Y215D02*
X1304Y215D01*
X695Y214D02*
X707Y214D01*
X782Y214D02*
X794Y214D01*
X1205Y214D02*
X1217Y214D01*
X1292Y214D02*
X1304Y214D01*
X695Y213D02*
X707Y213D01*
X783Y213D02*
X794Y213D01*
X1205Y213D02*
X1217Y213D01*
X1293Y213D02*
X1304Y213D01*
X695Y212D02*
X706Y212D01*
X783Y212D02*
X794Y212D01*
X1205Y212D02*
X1216Y212D01*
X1293Y212D02*
X1304Y212D01*
X695Y211D02*
X706Y211D01*
X783Y211D02*
X794Y211D01*
X1205Y211D02*
X1216Y211D01*
X1293Y211D02*
X1304Y211D01*
X695Y210D02*
X706Y210D01*
X784Y210D02*
X794Y210D01*
X1205Y210D02*
X1216Y210D01*
X1294Y210D02*
X1304Y210D01*
X695Y209D02*
X706Y209D01*
X784Y209D02*
X794Y209D01*
X1205Y209D02*
X1215Y209D01*
X1294Y209D02*
X1304Y209D01*
X695Y208D02*
X705Y208D01*
X784Y208D02*
X794Y208D01*
X1205Y208D02*
X1215Y208D01*
X1294Y208D02*
X1304Y208D01*
X695Y207D02*
X705Y207D01*
X784Y207D02*
X794Y207D01*
X1205Y207D02*
X1215Y207D01*
X1294Y207D02*
X1304Y207D01*
X695Y206D02*
X705Y206D01*
X785Y206D02*
X794Y206D01*
X1205Y206D02*
X1215Y206D01*
X1294Y206D02*
X1304Y206D01*
X695Y205D02*
X705Y205D01*
X785Y205D02*
X794Y205D01*
X1205Y205D02*
X1215Y205D01*
X1295Y205D02*
X1304Y205D01*
X695Y204D02*
X705Y204D01*
X785Y204D02*
X794Y204D01*
X1205Y204D02*
X1214Y204D01*
X1295Y204D02*
X1304Y204D01*
X695Y203D02*
X704Y203D01*
X785Y203D02*
X794Y203D01*
X1205Y203D02*
X1214Y203D01*
X1295Y203D02*
X1304Y203D01*
X695Y202D02*
X704Y202D01*
X785Y202D02*
X794Y202D01*
X1205Y202D02*
X1214Y202D01*
X1295Y202D02*
X1304Y202D01*
X695Y201D02*
X704Y201D01*
X785Y201D02*
X794Y201D01*
X1205Y201D02*
X1214Y201D01*
X1295Y201D02*
X1304Y201D01*
X695Y200D02*
X704Y200D01*
X785Y200D02*
X794Y200D01*
X1205Y200D02*
X1214Y200D01*
X1295Y200D02*
X1304Y200D01*
X695Y199D02*
X704Y199D01*
X785Y199D02*
X794Y199D01*
X1205Y199D02*
X1214Y199D01*
X1295Y199D02*
X1304Y199D01*
X695Y198D02*
X704Y198D01*
X785Y198D02*
X794Y198D01*
X1205Y198D02*
X1214Y198D01*
X1295Y198D02*
X1304Y198D01*
X695Y197D02*
X704Y197D01*
X785Y197D02*
X794Y197D01*
X1205Y197D02*
X1214Y197D01*
X1295Y197D02*
X1304Y197D01*
X695Y196D02*
X704Y196D01*
X785Y196D02*
X794Y196D01*
X1205Y196D02*
X1214Y196D01*
X1295Y196D02*
X1304Y196D01*
X695Y195D02*
X704Y195D01*
X785Y195D02*
X794Y195D01*
X1205Y195D02*
X1214Y195D01*
X1295Y195D02*
X1304Y195D01*
X695Y194D02*
X705Y194D01*
X785Y194D02*
X794Y194D01*
X1205Y194D02*
X1215Y194D01*
X1295Y194D02*
X1304Y194D01*
X695Y193D02*
X705Y193D01*
X785Y193D02*
X794Y193D01*
X1205Y193D02*
X1215Y193D01*
X1295Y193D02*
X1304Y193D01*
X695Y192D02*
X705Y192D01*
X785Y192D02*
X794Y192D01*
X1205Y192D02*
X1215Y192D01*
X1294Y192D02*
X1304Y192D01*
X695Y191D02*
X705Y191D01*
X784Y191D02*
X794Y191D01*
X1205Y191D02*
X1215Y191D01*
X1294Y191D02*
X1304Y191D01*
X695Y190D02*
X705Y190D01*
X784Y190D02*
X794Y190D01*
X1205Y190D02*
X1215Y190D01*
X1294Y190D02*
X1304Y190D01*
X695Y189D02*
X706Y189D01*
X784Y189D02*
X794Y189D01*
X1205Y189D02*
X1215Y189D01*
X1294Y189D02*
X1304Y189D01*
X695Y188D02*
X706Y188D01*
X784Y188D02*
X794Y188D01*
X1205Y188D02*
X1216Y188D01*
X1294Y188D02*
X1304Y188D01*
X695Y187D02*
X706Y187D01*
X783Y187D02*
X794Y187D01*
X1205Y187D02*
X1216Y187D01*
X1293Y187D02*
X1304Y187D01*
X695Y186D02*
X707Y186D01*
X783Y186D02*
X794Y186D01*
X1205Y186D02*
X1216Y186D01*
X1293Y186D02*
X1304Y186D01*
X695Y185D02*
X707Y185D01*
X783Y185D02*
X794Y185D01*
X1205Y185D02*
X1217Y185D01*
X1292Y185D02*
X1304Y185D01*
X695Y184D02*
X707Y184D01*
X782Y184D02*
X794Y184D01*
X1205Y184D02*
X1217Y184D01*
X1292Y184D02*
X1304Y184D01*
X695Y183D02*
X708Y183D01*
X782Y183D02*
X794Y183D01*
X1205Y183D02*
X1218Y183D01*
X1292Y183D02*
X1304Y183D01*
X695Y182D02*
X708Y182D01*
X781Y182D02*
X794Y182D01*
X1205Y182D02*
X1218Y182D01*
X1291Y182D02*
X1304Y182D01*
X695Y181D02*
X709Y181D01*
X781Y181D02*
X794Y181D01*
X1205Y181D02*
X1219Y181D01*
X1291Y181D02*
X1304Y181D01*
X695Y180D02*
X709Y180D01*
X780Y180D02*
X794Y180D01*
X1205Y180D02*
X1219Y180D01*
X1290Y180D02*
X1304Y180D01*
X695Y179D02*
X710Y179D01*
X780Y179D02*
X794Y179D01*
X1205Y179D02*
X1220Y179D01*
X1290Y179D02*
X1304Y179D01*
X695Y178D02*
X710Y178D01*
X779Y178D02*
X794Y178D01*
X1205Y178D02*
X1220Y178D01*
X1289Y178D02*
X1304Y178D01*
X695Y177D02*
X711Y177D01*
X779Y177D02*
X794Y177D01*
X1205Y177D02*
X1221Y177D01*
X1288Y177D02*
X1304Y177D01*
X695Y176D02*
X712Y176D01*
X778Y176D02*
X794Y176D01*
X1205Y176D02*
X1222Y176D01*
X1288Y176D02*
X1304Y176D01*
X695Y175D02*
X712Y175D01*
X777Y175D02*
X794Y175D01*
X1205Y175D02*
X1222Y175D01*
X1287Y175D02*
X1304Y175D01*
X695Y174D02*
X713Y174D01*
X776Y174D02*
X794Y174D01*
X1205Y174D02*
X1223Y174D01*
X1286Y174D02*
X1304Y174D01*
X695Y173D02*
X714Y173D01*
X775Y173D02*
X794Y173D01*
X1205Y173D02*
X1224Y173D01*
X1285Y173D02*
X1304Y173D01*
X695Y172D02*
X715Y172D01*
X775Y172D02*
X794Y172D01*
X1205Y172D02*
X1225Y172D01*
X1284Y172D02*
X1304Y172D01*
X695Y171D02*
X716Y171D01*
X774Y171D02*
X794Y171D01*
X1205Y171D02*
X1226Y171D01*
X1284Y171D02*
X1304Y171D01*
X695Y170D02*
X717Y170D01*
X773Y170D02*
X794Y170D01*
X1205Y170D02*
X1227Y170D01*
X1282Y170D02*
X1304Y170D01*
X695Y169D02*
X718Y169D01*
X771Y169D02*
X794Y169D01*
X1205Y169D02*
X1228Y169D01*
X1281Y169D02*
X1304Y169D01*
X695Y168D02*
X719Y168D01*
X770Y168D02*
X794Y168D01*
X1205Y168D02*
X1229Y168D01*
X1280Y168D02*
X1304Y168D01*
X695Y167D02*
X721Y167D01*
X769Y167D02*
X794Y167D01*
X1205Y167D02*
X1230Y167D01*
X1279Y167D02*
X1304Y167D01*
X695Y166D02*
X722Y166D01*
X768Y166D02*
X794Y166D01*
X1205Y166D02*
X1232Y166D01*
X1277Y166D02*
X1304Y166D01*
X695Y165D02*
X724Y165D01*
X766Y165D02*
X794Y165D01*
X1205Y165D02*
X1233Y165D01*
X1276Y165D02*
X1304Y165D01*
X695Y164D02*
X725Y164D01*
X764Y164D02*
X794Y164D01*
X1205Y164D02*
X1235Y164D01*
X1274Y164D02*
X1304Y164D01*
X695Y163D02*
X727Y163D01*
X762Y163D02*
X794Y163D01*
X1205Y163D02*
X1237Y163D01*
X1272Y163D02*
X1304Y163D01*
X695Y162D02*
X730Y162D01*
X760Y162D02*
X794Y162D01*
X1205Y162D02*
X1239Y162D01*
X1270Y162D02*
X1304Y162D01*
X695Y161D02*
X732Y161D01*
X757Y161D02*
X794Y161D01*
X1205Y161D02*
X1242Y161D01*
X1267Y161D02*
X1304Y161D01*
X695Y160D02*
X736Y160D01*
X753Y160D02*
X794Y160D01*
X1205Y160D02*
X1246Y160D01*
X1263Y160D02*
X1304Y160D01*
X695Y159D02*
X794Y159D01*
X1205Y159D02*
X1304Y159D01*
X695Y158D02*
X794Y158D01*
X1205Y158D02*
X1304Y158D01*
X695Y157D02*
X794Y157D01*
X1205Y157D02*
X1304Y157D01*
X695Y156D02*
X794Y156D01*
X1205Y156D02*
X1304Y156D01*
X695Y155D02*
X794Y155D01*
X1205Y155D02*
X1304Y155D01*
X695Y154D02*
X794Y154D01*
X1205Y154D02*
X1304Y154D01*
X695Y153D02*
X794Y153D01*
X1205Y153D02*
X1304Y153D01*
X695Y152D02*
X794Y152D01*
X1205Y152D02*
X1304Y152D01*
X695Y151D02*
X794Y151D01*
X1205Y151D02*
X1304Y151D01*
X695Y150D02*
X794Y150D01*
X1205Y150D02*
X1304Y150D01*
D02*
G04 End of Copper0*
M02*