G04 MADE WITH FRITZING*
G04 WWW.FRITZING.ORG*
G04 DOUBLE SIDED*
G04 HOLES PLATED*
G04 CONTOUR ON CENTER OF CONTOUR VECTOR*
%ASAXBY*%
%FSLAX23Y23*%
%MOIN*%
%OFA0B0*%
%SFA1.0B1.0*%
%ADD10R,0.001000X0.001000*%
%LNSILK0*%
G90*
G70*
G54D10*
X377Y2165D02*
X1592Y2165D01*
X362Y2164D02*
X1607Y2164D01*
X352Y2163D02*
X1617Y2163D01*
X344Y2162D02*
X1625Y2162D01*
X337Y2161D02*
X1632Y2161D01*
X331Y2160D02*
X1638Y2160D01*
X325Y2159D02*
X1644Y2159D01*
X320Y2158D02*
X1649Y2158D01*
X315Y2157D02*
X376Y2157D01*
X1593Y2157D02*
X1654Y2157D01*
X310Y2156D02*
X362Y2156D01*
X1607Y2156D02*
X1659Y2156D01*
X306Y2155D02*
X352Y2155D01*
X1617Y2155D02*
X1663Y2155D01*
X302Y2154D02*
X343Y2154D01*
X1626Y2154D02*
X1667Y2154D01*
X298Y2153D02*
X336Y2153D01*
X1633Y2153D02*
X1671Y2153D01*
X294Y2152D02*
X330Y2152D01*
X1639Y2152D02*
X1675Y2152D01*
X290Y2151D02*
X325Y2151D01*
X1644Y2151D02*
X1679Y2151D01*
X287Y2150D02*
X319Y2150D01*
X1650Y2150D02*
X1682Y2150D01*
X283Y2149D02*
X314Y2149D01*
X1655Y2149D02*
X1686Y2149D01*
X280Y2148D02*
X310Y2148D01*
X1659Y2148D02*
X1689Y2148D01*
X277Y2147D02*
X305Y2147D01*
X1664Y2147D02*
X1692Y2147D01*
X274Y2146D02*
X301Y2146D01*
X1668Y2146D02*
X1695Y2146D01*
X271Y2145D02*
X297Y2145D01*
X1672Y2145D02*
X1698Y2145D01*
X268Y2144D02*
X294Y2144D01*
X1675Y2144D02*
X1701Y2144D01*
X265Y2143D02*
X290Y2143D01*
X1679Y2143D02*
X1704Y2143D01*
X262Y2142D02*
X286Y2142D01*
X1683Y2142D02*
X1707Y2142D01*
X259Y2141D02*
X283Y2141D01*
X1686Y2141D02*
X1710Y2141D01*
X257Y2140D02*
X280Y2140D01*
X1689Y2140D02*
X1712Y2140D01*
X254Y2139D02*
X277Y2139D01*
X1692Y2139D02*
X1715Y2139D01*
X252Y2138D02*
X274Y2138D01*
X1695Y2138D02*
X1717Y2138D01*
X249Y2137D02*
X271Y2137D01*
X1698Y2137D02*
X1720Y2137D01*
X246Y2136D02*
X268Y2136D01*
X1701Y2136D02*
X1723Y2136D01*
X244Y2135D02*
X265Y2135D01*
X1704Y2135D02*
X1725Y2135D01*
X242Y2134D02*
X262Y2134D01*
X1707Y2134D02*
X1727Y2134D01*
X239Y2133D02*
X259Y2133D01*
X1710Y2133D02*
X1730Y2133D01*
X237Y2132D02*
X257Y2132D01*
X1712Y2132D02*
X1732Y2132D01*
X235Y2131D02*
X254Y2131D01*
X1715Y2131D02*
X1734Y2131D01*
X233Y2130D02*
X252Y2130D01*
X1717Y2130D02*
X1736Y2130D01*
X230Y2129D02*
X249Y2129D01*
X1720Y2129D02*
X1739Y2129D01*
X228Y2128D02*
X247Y2128D01*
X1722Y2128D02*
X1741Y2128D01*
X226Y2127D02*
X244Y2127D01*
X1725Y2127D02*
X1743Y2127D01*
X224Y2126D02*
X242Y2126D01*
X1727Y2126D02*
X1745Y2126D01*
X222Y2125D02*
X240Y2125D01*
X1729Y2125D02*
X1747Y2125D01*
X220Y2124D02*
X237Y2124D01*
X1732Y2124D02*
X1749Y2124D01*
X218Y2123D02*
X235Y2123D01*
X1734Y2123D02*
X1751Y2123D01*
X216Y2122D02*
X233Y2122D01*
X1736Y2122D02*
X1753Y2122D01*
X214Y2121D02*
X231Y2121D01*
X1738Y2121D02*
X1755Y2121D01*
X212Y2120D02*
X228Y2120D01*
X1741Y2120D02*
X1757Y2120D01*
X210Y2119D02*
X226Y2119D01*
X1743Y2119D02*
X1759Y2119D01*
X208Y2118D02*
X224Y2118D01*
X1745Y2118D02*
X1761Y2118D01*
X206Y2117D02*
X222Y2117D01*
X1747Y2117D02*
X1763Y2117D01*
X205Y2116D02*
X221Y2116D01*
X1748Y2116D02*
X1764Y2116D01*
X203Y2115D02*
X219Y2115D01*
X1750Y2115D02*
X1766Y2115D01*
X201Y2114D02*
X217Y2114D01*
X1752Y2114D02*
X1768Y2114D01*
X199Y2113D02*
X215Y2113D01*
X1754Y2113D02*
X1770Y2113D01*
X198Y2112D02*
X213Y2112D01*
X1756Y2112D02*
X1771Y2112D01*
X196Y2111D02*
X211Y2111D01*
X1758Y2111D02*
X1773Y2111D01*
X194Y2110D02*
X209Y2110D01*
X1760Y2110D02*
X1775Y2110D01*
X192Y2109D02*
X207Y2109D01*
X1762Y2109D02*
X1777Y2109D01*
X191Y2108D02*
X205Y2108D01*
X1764Y2108D02*
X1778Y2108D01*
X189Y2107D02*
X204Y2107D01*
X1765Y2107D02*
X1780Y2107D01*
X187Y2106D02*
X202Y2106D01*
X1767Y2106D02*
X1782Y2106D01*
X186Y2105D02*
X200Y2105D01*
X1769Y2105D02*
X1783Y2105D01*
X184Y2104D02*
X198Y2104D01*
X1771Y2104D02*
X1785Y2104D01*
X183Y2103D02*
X197Y2103D01*
X1772Y2103D02*
X1786Y2103D01*
X181Y2102D02*
X195Y2102D01*
X1774Y2102D02*
X1788Y2102D01*
X180Y2101D02*
X193Y2101D01*
X1776Y2101D02*
X1789Y2101D01*
X178Y2100D02*
X192Y2100D01*
X1777Y2100D02*
X1791Y2100D01*
X176Y2099D02*
X190Y2099D01*
X1779Y2099D02*
X1793Y2099D01*
X175Y2098D02*
X189Y2098D01*
X1780Y2098D02*
X1794Y2098D01*
X174Y2097D02*
X187Y2097D01*
X1782Y2097D02*
X1795Y2097D01*
X172Y2096D02*
X185Y2096D01*
X1784Y2096D02*
X1797Y2096D01*
X171Y2095D02*
X184Y2095D01*
X1785Y2095D02*
X1798Y2095D01*
X169Y2094D02*
X182Y2094D01*
X1787Y2094D02*
X1800Y2094D01*
X168Y2093D02*
X181Y2093D01*
X1788Y2093D02*
X1801Y2093D01*
X166Y2092D02*
X179Y2092D01*
X1790Y2092D02*
X1803Y2092D01*
X165Y2091D02*
X178Y2091D01*
X1791Y2091D02*
X1804Y2091D01*
X164Y2090D02*
X176Y2090D01*
X1793Y2090D02*
X1805Y2090D01*
X162Y2089D02*
X175Y2089D01*
X1794Y2089D02*
X1807Y2089D01*
X161Y2088D02*
X173Y2088D01*
X1796Y2088D02*
X1808Y2088D01*
X159Y2087D02*
X172Y2087D01*
X1797Y2087D02*
X1810Y2087D01*
X158Y2086D02*
X171Y2086D01*
X1798Y2086D02*
X1811Y2086D01*
X157Y2085D02*
X169Y2085D01*
X1800Y2085D02*
X1812Y2085D01*
X156Y2084D02*
X168Y2084D01*
X1801Y2084D02*
X1813Y2084D01*
X154Y2083D02*
X166Y2083D01*
X1803Y2083D02*
X1815Y2083D01*
X153Y2082D02*
X165Y2082D01*
X1804Y2082D02*
X1816Y2082D01*
X152Y2081D02*
X164Y2081D01*
X1805Y2081D02*
X1817Y2081D01*
X150Y2080D02*
X162Y2080D01*
X1807Y2080D02*
X1819Y2080D01*
X149Y2079D02*
X161Y2079D01*
X1808Y2079D02*
X1820Y2079D01*
X148Y2078D02*
X160Y2078D01*
X1809Y2078D02*
X1821Y2078D01*
X147Y2077D02*
X158Y2077D01*
X1811Y2077D02*
X1822Y2077D01*
X145Y2076D02*
X157Y2076D01*
X1812Y2076D02*
X1824Y2076D01*
X144Y2075D02*
X156Y2075D01*
X1813Y2075D02*
X1825Y2075D01*
X143Y2074D02*
X155Y2074D01*
X1814Y2074D02*
X1826Y2074D01*
X142Y2073D02*
X153Y2073D01*
X1816Y2073D02*
X1827Y2073D01*
X141Y2072D02*
X152Y2072D01*
X1817Y2072D02*
X1828Y2072D01*
X139Y2071D02*
X151Y2071D01*
X1818Y2071D02*
X1830Y2071D01*
X138Y2070D02*
X150Y2070D01*
X1819Y2070D02*
X1831Y2070D01*
X137Y2069D02*
X148Y2069D01*
X1821Y2069D02*
X1832Y2069D01*
X136Y2068D02*
X147Y2068D01*
X1822Y2068D02*
X1833Y2068D01*
X135Y2067D02*
X146Y2067D01*
X1823Y2067D02*
X1834Y2067D01*
X134Y2066D02*
X145Y2066D01*
X1824Y2066D02*
X1835Y2066D01*
X132Y2065D02*
X144Y2065D01*
X1825Y2065D02*
X1837Y2065D01*
X131Y2064D02*
X142Y2064D01*
X1827Y2064D02*
X1838Y2064D01*
X130Y2063D02*
X141Y2063D01*
X1828Y2063D02*
X1839Y2063D01*
X129Y2062D02*
X140Y2062D01*
X1829Y2062D02*
X1840Y2062D01*
X128Y2061D02*
X139Y2061D01*
X1830Y2061D02*
X1841Y2061D01*
X127Y2060D02*
X138Y2060D01*
X1831Y2060D02*
X1842Y2060D01*
X126Y2059D02*
X137Y2059D01*
X1832Y2059D02*
X1843Y2059D01*
X125Y2058D02*
X135Y2058D01*
X1834Y2058D02*
X1844Y2058D01*
X124Y2057D02*
X134Y2057D01*
X1835Y2057D02*
X1845Y2057D01*
X123Y2056D02*
X133Y2056D01*
X1836Y2056D02*
X1846Y2056D01*
X122Y2055D02*
X132Y2055D01*
X1837Y2055D02*
X1847Y2055D01*
X121Y2054D02*
X131Y2054D01*
X1838Y2054D02*
X1848Y2054D01*
X120Y2053D02*
X130Y2053D01*
X1839Y2053D02*
X1849Y2053D01*
X118Y2052D02*
X129Y2052D01*
X1840Y2052D02*
X1851Y2052D01*
X117Y2051D02*
X128Y2051D01*
X1841Y2051D02*
X1852Y2051D01*
X116Y2050D02*
X127Y2050D01*
X1842Y2050D02*
X1853Y2050D01*
X115Y2049D02*
X126Y2049D01*
X1843Y2049D02*
X1854Y2049D01*
X114Y2048D02*
X125Y2048D01*
X1844Y2048D02*
X1855Y2048D01*
X114Y2047D02*
X124Y2047D01*
X1845Y2047D02*
X1855Y2047D01*
X113Y2046D02*
X123Y2046D01*
X1846Y2046D02*
X1856Y2046D01*
X112Y2045D02*
X122Y2045D01*
X1847Y2045D02*
X1857Y2045D01*
X111Y2044D02*
X121Y2044D01*
X1848Y2044D02*
X1858Y2044D01*
X110Y2043D02*
X120Y2043D01*
X1849Y2043D02*
X1859Y2043D01*
X109Y2042D02*
X119Y2042D01*
X1850Y2042D02*
X1860Y2042D01*
X108Y2041D02*
X118Y2041D01*
X1851Y2041D02*
X1861Y2041D01*
X107Y2040D02*
X117Y2040D01*
X1852Y2040D02*
X1862Y2040D01*
X106Y2039D02*
X116Y2039D01*
X1853Y2039D02*
X1863Y2039D01*
X105Y2038D02*
X115Y2038D01*
X1854Y2038D02*
X1864Y2038D01*
X104Y2037D02*
X114Y2037D01*
X1855Y2037D02*
X1865Y2037D01*
X103Y2036D02*
X113Y2036D01*
X1856Y2036D02*
X1866Y2036D01*
X102Y2035D02*
X112Y2035D01*
X1857Y2035D02*
X1867Y2035D01*
X101Y2034D02*
X111Y2034D01*
X1858Y2034D02*
X1868Y2034D01*
X100Y2033D02*
X110Y2033D01*
X1859Y2033D02*
X1869Y2033D01*
X100Y2032D02*
X109Y2032D01*
X1860Y2032D02*
X1869Y2032D01*
X99Y2031D02*
X108Y2031D01*
X1861Y2031D02*
X1870Y2031D01*
X98Y2030D02*
X107Y2030D01*
X1862Y2030D02*
X1871Y2030D01*
X97Y2029D02*
X107Y2029D01*
X1862Y2029D02*
X1872Y2029D01*
X96Y2028D02*
X106Y2028D01*
X1863Y2028D02*
X1873Y2028D01*
X95Y2027D02*
X105Y2027D01*
X1864Y2027D02*
X1874Y2027D01*
X94Y2026D02*
X104Y2026D01*
X1865Y2026D02*
X1875Y2026D01*
X93Y2025D02*
X103Y2025D01*
X1866Y2025D02*
X1876Y2025D01*
X93Y2024D02*
X102Y2024D01*
X1867Y2024D02*
X1876Y2024D01*
X92Y2023D02*
X101Y2023D01*
X1868Y2023D02*
X1877Y2023D01*
X91Y2022D02*
X100Y2022D01*
X1869Y2022D02*
X1878Y2022D01*
X90Y2021D02*
X100Y2021D01*
X1869Y2021D02*
X1879Y2021D01*
X89Y2020D02*
X99Y2020D01*
X1870Y2020D02*
X1880Y2020D01*
X88Y2019D02*
X98Y2019D01*
X1871Y2019D02*
X1881Y2019D01*
X88Y2018D02*
X97Y2018D01*
X1872Y2018D02*
X1881Y2018D01*
X87Y2017D02*
X96Y2017D01*
X1873Y2017D02*
X1882Y2017D01*
X86Y2016D02*
X95Y2016D01*
X1874Y2016D02*
X1883Y2016D01*
X85Y2015D02*
X94Y2015D01*
X1875Y2015D02*
X1884Y2015D01*
X85Y2014D02*
X94Y2014D01*
X1875Y2014D02*
X1884Y2014D01*
X84Y2013D02*
X93Y2013D01*
X1876Y2013D02*
X1885Y2013D01*
X83Y2012D02*
X92Y2012D01*
X1877Y2012D02*
X1886Y2012D01*
X82Y2011D02*
X91Y2011D01*
X1878Y2011D02*
X1887Y2011D01*
X81Y2010D02*
X90Y2010D01*
X1879Y2010D02*
X1888Y2010D01*
X81Y2009D02*
X90Y2009D01*
X1879Y2009D02*
X1888Y2009D01*
X80Y2008D02*
X89Y2008D01*
X1880Y2008D02*
X1889Y2008D01*
X79Y2007D02*
X88Y2007D01*
X1881Y2007D02*
X1890Y2007D01*
X78Y2006D02*
X87Y2006D01*
X1882Y2006D02*
X1891Y2006D01*
X78Y2005D02*
X87Y2005D01*
X1882Y2005D02*
X1891Y2005D01*
X77Y2004D02*
X86Y2004D01*
X1883Y2004D02*
X1892Y2004D01*
X76Y2003D02*
X85Y2003D01*
X1884Y2003D02*
X1893Y2003D01*
X75Y2002D02*
X84Y2002D01*
X1885Y2002D02*
X1894Y2002D01*
X75Y2001D02*
X84Y2001D01*
X1885Y2001D02*
X1894Y2001D01*
X74Y2000D02*
X83Y2000D01*
X1886Y2000D02*
X1895Y2000D01*
X73Y1999D02*
X82Y1999D01*
X1887Y1999D02*
X1896Y1999D01*
X73Y1998D02*
X81Y1998D01*
X1888Y1998D02*
X1896Y1998D01*
X72Y1997D02*
X81Y1997D01*
X1888Y1997D02*
X1897Y1997D01*
X71Y1996D02*
X80Y1996D01*
X1889Y1996D02*
X1898Y1996D01*
X70Y1995D02*
X79Y1995D01*
X1890Y1995D02*
X1899Y1995D01*
X70Y1994D02*
X78Y1994D01*
X1891Y1994D02*
X1899Y1994D01*
X69Y1993D02*
X78Y1993D01*
X1891Y1993D02*
X1900Y1993D01*
X68Y1992D02*
X77Y1992D01*
X1892Y1992D02*
X1901Y1992D01*
X68Y1991D02*
X76Y1991D01*
X1893Y1991D02*
X1901Y1991D01*
X67Y1990D02*
X76Y1990D01*
X1893Y1990D02*
X1902Y1990D01*
X66Y1989D02*
X75Y1989D01*
X1894Y1989D02*
X1903Y1989D01*
X66Y1988D02*
X74Y1988D01*
X1895Y1988D02*
X1903Y1988D01*
X65Y1987D02*
X74Y1987D01*
X1895Y1987D02*
X1904Y1987D01*
X64Y1986D02*
X73Y1986D01*
X1896Y1986D02*
X1905Y1986D01*
X64Y1985D02*
X72Y1985D01*
X1897Y1985D02*
X1905Y1985D01*
X63Y1984D02*
X72Y1984D01*
X1897Y1984D02*
X1906Y1984D01*
X62Y1983D02*
X71Y1983D01*
X1898Y1983D02*
X1907Y1983D01*
X62Y1982D02*
X70Y1982D01*
X1899Y1982D02*
X1907Y1982D01*
X61Y1981D02*
X70Y1981D01*
X1899Y1981D02*
X1908Y1981D01*
X61Y1980D02*
X69Y1980D01*
X1900Y1980D02*
X1908Y1980D01*
X60Y1979D02*
X68Y1979D01*
X1901Y1979D02*
X1909Y1979D01*
X59Y1978D02*
X68Y1978D01*
X1901Y1978D02*
X1910Y1978D01*
X59Y1977D02*
X67Y1977D01*
X1902Y1977D02*
X1910Y1977D01*
X58Y1976D02*
X66Y1976D01*
X1903Y1976D02*
X1911Y1976D01*
X57Y1975D02*
X66Y1975D01*
X1903Y1975D02*
X1912Y1975D01*
X57Y1974D02*
X65Y1974D01*
X1904Y1974D02*
X1912Y1974D01*
X56Y1973D02*
X64Y1973D01*
X1905Y1973D02*
X1913Y1973D01*
X56Y1972D02*
X64Y1972D01*
X1905Y1972D02*
X1913Y1972D01*
X55Y1971D02*
X63Y1971D01*
X1906Y1971D02*
X1914Y1971D01*
X55Y1970D02*
X63Y1970D01*
X1906Y1970D02*
X1914Y1970D01*
X54Y1969D02*
X62Y1969D01*
X1907Y1969D02*
X1915Y1969D01*
X53Y1968D02*
X62Y1968D01*
X1907Y1968D02*
X1916Y1968D01*
X53Y1967D02*
X61Y1967D01*
X1908Y1967D02*
X1916Y1967D01*
X52Y1966D02*
X60Y1966D01*
X1909Y1966D02*
X1917Y1966D01*
X52Y1965D02*
X60Y1965D01*
X1909Y1965D02*
X1917Y1965D01*
X51Y1964D02*
X59Y1964D01*
X1910Y1964D02*
X1918Y1964D01*
X50Y1963D02*
X59Y1963D01*
X1910Y1963D02*
X1919Y1963D01*
X50Y1962D02*
X58Y1962D01*
X1911Y1962D02*
X1919Y1962D01*
X49Y1961D02*
X57Y1961D01*
X1912Y1961D02*
X1920Y1961D01*
X49Y1960D02*
X57Y1960D01*
X1912Y1960D02*
X1920Y1960D01*
X48Y1959D02*
X56Y1959D01*
X1913Y1959D02*
X1921Y1959D01*
X48Y1958D02*
X56Y1958D01*
X1913Y1958D02*
X1921Y1958D01*
X47Y1957D02*
X55Y1957D01*
X1914Y1957D02*
X1922Y1957D01*
X47Y1956D02*
X55Y1956D01*
X1914Y1956D02*
X1922Y1956D01*
X46Y1955D02*
X54Y1955D01*
X1915Y1955D02*
X1923Y1955D01*
X46Y1954D02*
X54Y1954D01*
X1915Y1954D02*
X1923Y1954D01*
X45Y1953D02*
X53Y1953D01*
X1916Y1953D02*
X1924Y1953D01*
X45Y1952D02*
X52Y1952D01*
X1917Y1952D02*
X1924Y1952D01*
X44Y1951D02*
X52Y1951D01*
X1917Y1951D02*
X1925Y1951D01*
X44Y1950D02*
X51Y1950D01*
X1918Y1950D02*
X1925Y1950D01*
X43Y1949D02*
X51Y1949D01*
X1918Y1949D02*
X1926Y1949D01*
X43Y1948D02*
X50Y1948D01*
X1919Y1948D02*
X1926Y1948D01*
X42Y1947D02*
X50Y1947D01*
X1919Y1947D02*
X1927Y1947D01*
X42Y1946D02*
X49Y1946D01*
X1920Y1946D02*
X1927Y1946D01*
X41Y1945D02*
X49Y1945D01*
X1920Y1945D02*
X1928Y1945D01*
X40Y1944D02*
X48Y1944D01*
X1921Y1944D02*
X1929Y1944D01*
X40Y1943D02*
X48Y1943D01*
X1921Y1943D02*
X1929Y1943D01*
X40Y1942D02*
X47Y1942D01*
X1922Y1942D02*
X1929Y1942D01*
X39Y1941D02*
X47Y1941D01*
X1922Y1941D02*
X1930Y1941D01*
X39Y1940D02*
X46Y1940D01*
X1923Y1940D02*
X1930Y1940D01*
X38Y1939D02*
X46Y1939D01*
X1923Y1939D02*
X1931Y1939D01*
X38Y1938D02*
X45Y1938D01*
X1924Y1938D02*
X1931Y1938D01*
X37Y1937D02*
X45Y1937D01*
X1924Y1937D02*
X1932Y1937D01*
X37Y1936D02*
X44Y1936D01*
X1925Y1936D02*
X1932Y1936D01*
X36Y1935D02*
X44Y1935D01*
X1925Y1935D02*
X1933Y1935D01*
X36Y1934D02*
X44Y1934D01*
X1925Y1934D02*
X1933Y1934D01*
X35Y1933D02*
X43Y1933D01*
X1926Y1933D02*
X1934Y1933D01*
X35Y1932D02*
X43Y1932D01*
X1926Y1932D02*
X1934Y1932D01*
X35Y1931D02*
X42Y1931D01*
X1927Y1931D02*
X1934Y1931D01*
X34Y1930D02*
X42Y1930D01*
X1927Y1930D02*
X1935Y1930D01*
X34Y1929D02*
X41Y1929D01*
X1928Y1929D02*
X1935Y1929D01*
X33Y1928D02*
X41Y1928D01*
X1928Y1928D02*
X1936Y1928D01*
X33Y1927D02*
X40Y1927D01*
X1929Y1927D02*
X1936Y1927D01*
X32Y1926D02*
X40Y1926D01*
X1929Y1926D02*
X1937Y1926D01*
X32Y1925D02*
X39Y1925D01*
X1930Y1925D02*
X1937Y1925D01*
X31Y1924D02*
X39Y1924D01*
X1930Y1924D02*
X1938Y1924D01*
X31Y1923D02*
X38Y1923D01*
X1931Y1923D02*
X1938Y1923D01*
X31Y1922D02*
X38Y1922D01*
X1931Y1922D02*
X1938Y1922D01*
X30Y1921D02*
X38Y1921D01*
X1931Y1921D02*
X1939Y1921D01*
X30Y1920D02*
X37Y1920D01*
X1932Y1920D02*
X1939Y1920D01*
X29Y1919D02*
X37Y1919D01*
X1932Y1919D02*
X1940Y1919D01*
X29Y1918D02*
X36Y1918D01*
X1933Y1918D02*
X1940Y1918D01*
X29Y1917D02*
X36Y1917D01*
X1933Y1917D02*
X1940Y1917D01*
X28Y1916D02*
X36Y1916D01*
X1933Y1916D02*
X1941Y1916D01*
X28Y1915D02*
X35Y1915D01*
X1934Y1915D02*
X1941Y1915D01*
X27Y1914D02*
X35Y1914D01*
X1934Y1914D02*
X1942Y1914D01*
X27Y1913D02*
X34Y1913D01*
X1934Y1913D02*
X1942Y1913D01*
X27Y1912D02*
X34Y1912D01*
X1935Y1912D02*
X1942Y1912D01*
X26Y1911D02*
X34Y1911D01*
X1935Y1911D02*
X1943Y1911D01*
X26Y1910D02*
X33Y1910D01*
X1936Y1910D02*
X1943Y1910D01*
X25Y1909D02*
X33Y1909D01*
X1936Y1909D02*
X1944Y1909D01*
X25Y1908D02*
X33Y1908D01*
X1936Y1908D02*
X1944Y1908D01*
X25Y1907D02*
X32Y1907D01*
X1937Y1907D02*
X1944Y1907D01*
X24Y1906D02*
X32Y1906D01*
X1937Y1906D02*
X1945Y1906D01*
X24Y1905D02*
X31Y1905D01*
X1938Y1905D02*
X1945Y1905D01*
X24Y1904D02*
X31Y1904D01*
X1938Y1904D02*
X1945Y1904D01*
X23Y1903D02*
X31Y1903D01*
X1938Y1903D02*
X1946Y1903D01*
X23Y1902D02*
X30Y1902D01*
X1939Y1902D02*
X1946Y1902D01*
X23Y1901D02*
X30Y1901D01*
X1939Y1901D02*
X1946Y1901D01*
X22Y1900D02*
X30Y1900D01*
X1939Y1900D02*
X1947Y1900D01*
X22Y1899D02*
X29Y1899D01*
X1940Y1899D02*
X1947Y1899D01*
X22Y1898D02*
X29Y1898D01*
X1940Y1898D02*
X1947Y1898D01*
X21Y1897D02*
X29Y1897D01*
X1940Y1897D02*
X1948Y1897D01*
X21Y1896D02*
X28Y1896D01*
X1941Y1896D02*
X1948Y1896D01*
X21Y1895D02*
X28Y1895D01*
X1941Y1895D02*
X1948Y1895D01*
X20Y1894D02*
X28Y1894D01*
X1941Y1894D02*
X1949Y1894D01*
X20Y1893D02*
X27Y1893D01*
X1942Y1893D02*
X1949Y1893D01*
X20Y1892D02*
X27Y1892D01*
X1942Y1892D02*
X1949Y1892D01*
X19Y1891D02*
X27Y1891D01*
X1942Y1891D02*
X1950Y1891D01*
X19Y1890D02*
X26Y1890D01*
X1943Y1890D02*
X1950Y1890D01*
X19Y1889D02*
X26Y1889D01*
X1943Y1889D02*
X1950Y1889D01*
X18Y1888D02*
X26Y1888D01*
X1943Y1888D02*
X1951Y1888D01*
X18Y1887D02*
X25Y1887D01*
X1944Y1887D02*
X1951Y1887D01*
X18Y1886D02*
X25Y1886D01*
X1944Y1886D02*
X1951Y1886D01*
X17Y1885D02*
X25Y1885D01*
X1944Y1885D02*
X1952Y1885D01*
X17Y1884D02*
X24Y1884D01*
X1945Y1884D02*
X1952Y1884D01*
X17Y1883D02*
X24Y1883D01*
X1945Y1883D02*
X1952Y1883D01*
X17Y1882D02*
X24Y1882D01*
X1945Y1882D02*
X1952Y1882D01*
X16Y1881D02*
X23Y1881D01*
X1946Y1881D02*
X1953Y1881D01*
X16Y1880D02*
X23Y1880D01*
X1946Y1880D02*
X1953Y1880D01*
X16Y1879D02*
X23Y1879D01*
X1946Y1879D02*
X1953Y1879D01*
X15Y1878D02*
X23Y1878D01*
X1946Y1878D02*
X1954Y1878D01*
X15Y1877D02*
X22Y1877D01*
X1947Y1877D02*
X1954Y1877D01*
X15Y1876D02*
X22Y1876D01*
X1947Y1876D02*
X1954Y1876D01*
X15Y1875D02*
X22Y1875D01*
X1947Y1875D02*
X1954Y1875D01*
X14Y1874D02*
X21Y1874D01*
X1948Y1874D02*
X1955Y1874D01*
X14Y1873D02*
X21Y1873D01*
X1948Y1873D02*
X1955Y1873D01*
X14Y1872D02*
X21Y1872D01*
X1948Y1872D02*
X1955Y1872D01*
X13Y1871D02*
X21Y1871D01*
X1948Y1871D02*
X1956Y1871D01*
X13Y1870D02*
X20Y1870D01*
X1949Y1870D02*
X1956Y1870D01*
X13Y1869D02*
X20Y1869D01*
X1949Y1869D02*
X1956Y1869D01*
X13Y1868D02*
X20Y1868D01*
X1949Y1868D02*
X1956Y1868D01*
X12Y1867D02*
X20Y1867D01*
X1949Y1867D02*
X1957Y1867D01*
X12Y1866D02*
X19Y1866D01*
X1950Y1866D02*
X1957Y1866D01*
X12Y1865D02*
X19Y1865D01*
X1950Y1865D02*
X1957Y1865D01*
X12Y1864D02*
X19Y1864D01*
X1950Y1864D02*
X1957Y1864D01*
X11Y1863D02*
X19Y1863D01*
X1950Y1863D02*
X1958Y1863D01*
X11Y1862D02*
X18Y1862D01*
X1951Y1862D02*
X1958Y1862D01*
X11Y1861D02*
X18Y1861D01*
X1951Y1861D02*
X1958Y1861D01*
X11Y1860D02*
X18Y1860D01*
X1951Y1860D02*
X1958Y1860D01*
X11Y1859D02*
X18Y1859D01*
X1951Y1859D02*
X1958Y1859D01*
X10Y1858D02*
X17Y1858D01*
X1952Y1858D02*
X1959Y1858D01*
X10Y1857D02*
X17Y1857D01*
X1952Y1857D02*
X1959Y1857D01*
X10Y1856D02*
X17Y1856D01*
X1952Y1856D02*
X1959Y1856D01*
X10Y1855D02*
X17Y1855D01*
X1952Y1855D02*
X1959Y1855D01*
X9Y1854D02*
X17Y1854D01*
X1952Y1854D02*
X1960Y1854D01*
X9Y1853D02*
X16Y1853D01*
X1953Y1853D02*
X1960Y1853D01*
X9Y1852D02*
X16Y1852D01*
X1953Y1852D02*
X1960Y1852D01*
X9Y1851D02*
X16Y1851D01*
X1953Y1851D02*
X1960Y1851D01*
X9Y1850D02*
X16Y1850D01*
X1953Y1850D02*
X1960Y1850D01*
X8Y1849D02*
X16Y1849D01*
X1953Y1849D02*
X1961Y1849D01*
X8Y1848D02*
X15Y1848D01*
X1954Y1848D02*
X1961Y1848D01*
X8Y1847D02*
X15Y1847D01*
X1954Y1847D02*
X1961Y1847D01*
X8Y1846D02*
X15Y1846D01*
X1954Y1846D02*
X1961Y1846D01*
X8Y1845D02*
X15Y1845D01*
X1954Y1845D02*
X1961Y1845D01*
X7Y1844D02*
X15Y1844D01*
X1954Y1844D02*
X1962Y1844D01*
X7Y1843D02*
X14Y1843D01*
X1955Y1843D02*
X1962Y1843D01*
X7Y1842D02*
X14Y1842D01*
X1955Y1842D02*
X1962Y1842D01*
X7Y1841D02*
X14Y1841D01*
X1955Y1841D02*
X1962Y1841D01*
X7Y1840D02*
X14Y1840D01*
X1955Y1840D02*
X1962Y1840D01*
X7Y1839D02*
X14Y1839D01*
X1955Y1839D02*
X1962Y1839D01*
X6Y1838D02*
X13Y1838D01*
X1956Y1838D02*
X1963Y1838D01*
X6Y1837D02*
X13Y1837D01*
X1956Y1837D02*
X1963Y1837D01*
X6Y1836D02*
X13Y1836D01*
X1956Y1836D02*
X1963Y1836D01*
X6Y1835D02*
X13Y1835D01*
X1956Y1835D02*
X1963Y1835D01*
X6Y1834D02*
X13Y1834D01*
X1956Y1834D02*
X1963Y1834D01*
X6Y1833D02*
X13Y1833D01*
X1956Y1833D02*
X1963Y1833D01*
X5Y1832D02*
X12Y1832D01*
X1957Y1832D02*
X1964Y1832D01*
X5Y1831D02*
X12Y1831D01*
X1957Y1831D02*
X1964Y1831D01*
X5Y1830D02*
X12Y1830D01*
X1957Y1830D02*
X1964Y1830D01*
X5Y1829D02*
X12Y1829D01*
X1957Y1829D02*
X1964Y1829D01*
X5Y1828D02*
X12Y1828D01*
X1957Y1828D02*
X1964Y1828D01*
X5Y1827D02*
X12Y1827D01*
X1957Y1827D02*
X1964Y1827D01*
X5Y1826D02*
X12Y1826D01*
X1957Y1826D02*
X1964Y1826D01*
X4Y1825D02*
X11Y1825D01*
X1958Y1825D02*
X1965Y1825D01*
X4Y1824D02*
X11Y1824D01*
X1958Y1824D02*
X1965Y1824D01*
X4Y1823D02*
X11Y1823D01*
X1958Y1823D02*
X1965Y1823D01*
X4Y1822D02*
X11Y1822D01*
X1958Y1822D02*
X1965Y1822D01*
X4Y1821D02*
X11Y1821D01*
X1958Y1821D02*
X1965Y1821D01*
X4Y1820D02*
X11Y1820D01*
X1958Y1820D02*
X1965Y1820D01*
X4Y1819D02*
X11Y1819D01*
X1958Y1819D02*
X1965Y1819D01*
X4Y1818D02*
X11Y1818D01*
X1958Y1818D02*
X1965Y1818D01*
X3Y1817D02*
X11Y1817D01*
X1958Y1817D02*
X1966Y1817D01*
X3Y1816D02*
X10Y1816D01*
X1959Y1816D02*
X1966Y1816D01*
X3Y1815D02*
X10Y1815D01*
X1959Y1815D02*
X1966Y1815D01*
X3Y1814D02*
X10Y1814D01*
X1959Y1814D02*
X1966Y1814D01*
X3Y1813D02*
X10Y1813D01*
X1959Y1813D02*
X1966Y1813D01*
X3Y1812D02*
X10Y1812D01*
X1959Y1812D02*
X1966Y1812D01*
X3Y1811D02*
X10Y1811D01*
X1959Y1811D02*
X1966Y1811D01*
X3Y1810D02*
X10Y1810D01*
X1959Y1810D02*
X1966Y1810D01*
X3Y1809D02*
X10Y1809D01*
X1959Y1809D02*
X1966Y1809D01*
X3Y1808D02*
X10Y1808D01*
X1959Y1808D02*
X1966Y1808D01*
X2Y1807D02*
X9Y1807D01*
X1959Y1807D02*
X1967Y1807D01*
X2Y1806D02*
X9Y1806D01*
X1960Y1806D02*
X1967Y1806D01*
X2Y1805D02*
X9Y1805D01*
X1960Y1805D02*
X1967Y1805D01*
X2Y1804D02*
X9Y1804D01*
X1960Y1804D02*
X1967Y1804D01*
X2Y1803D02*
X9Y1803D01*
X1960Y1803D02*
X1967Y1803D01*
X2Y1802D02*
X9Y1802D01*
X1960Y1802D02*
X1967Y1802D01*
X2Y1801D02*
X9Y1801D01*
X1960Y1801D02*
X1967Y1801D01*
X2Y1800D02*
X9Y1800D01*
X1960Y1800D02*
X1967Y1800D01*
X2Y1799D02*
X9Y1799D01*
X1960Y1799D02*
X1967Y1799D01*
X2Y1798D02*
X9Y1798D01*
X1960Y1798D02*
X1967Y1798D01*
X2Y1797D02*
X9Y1797D01*
X1960Y1797D02*
X1967Y1797D01*
X2Y1796D02*
X9Y1796D01*
X1960Y1796D02*
X1967Y1796D01*
X2Y1795D02*
X9Y1795D01*
X1960Y1795D02*
X1967Y1795D01*
X2Y1794D02*
X9Y1794D01*
X1960Y1794D02*
X1967Y1794D01*
X1Y1793D02*
X9Y1793D01*
X1960Y1793D02*
X1968Y1793D01*
X1Y1792D02*
X8Y1792D01*
X1961Y1792D02*
X1968Y1792D01*
X1Y1791D02*
X8Y1791D01*
X1961Y1791D02*
X1968Y1791D01*
X1Y1790D02*
X8Y1790D01*
X1961Y1790D02*
X1968Y1790D01*
X1Y1789D02*
X8Y1789D01*
X1961Y1789D02*
X1968Y1789D01*
X1Y1788D02*
X8Y1788D01*
X1961Y1788D02*
X1968Y1788D01*
X1Y1787D02*
X8Y1787D01*
X1961Y1787D02*
X1968Y1787D01*
X1Y1786D02*
X8Y1786D01*
X1961Y1786D02*
X1968Y1786D01*
X1Y1785D02*
X8Y1785D01*
X1961Y1785D02*
X1968Y1785D01*
X1Y1784D02*
X8Y1784D01*
X1961Y1784D02*
X1968Y1784D01*
X1Y1783D02*
X8Y1783D01*
X1961Y1783D02*
X1968Y1783D01*
X1Y1782D02*
X8Y1782D01*
X1961Y1782D02*
X1968Y1782D01*
X1Y1781D02*
X8Y1781D01*
X1961Y1781D02*
X1968Y1781D01*
X1Y1780D02*
X8Y1780D01*
X1961Y1780D02*
X1968Y1780D01*
X1Y1779D02*
X8Y1779D01*
X1961Y1779D02*
X1968Y1779D01*
X1Y1778D02*
X8Y1778D01*
X1961Y1778D02*
X1968Y1778D01*
X1Y1777D02*
X8Y1777D01*
X1961Y1777D02*
X1968Y1777D01*
X1Y1776D02*
X8Y1776D01*
X1961Y1776D02*
X1968Y1776D01*
X1Y1775D02*
X8Y1775D01*
X1961Y1775D02*
X1968Y1775D01*
X1Y1774D02*
X8Y1774D01*
X1961Y1774D02*
X1968Y1774D01*
X1Y1773D02*
X8Y1773D01*
X1961Y1773D02*
X1968Y1773D01*
X1Y1772D02*
X8Y1772D01*
X1961Y1772D02*
X1968Y1772D01*
X1Y1771D02*
X8Y1771D01*
X1961Y1771D02*
X1968Y1771D01*
X1Y1770D02*
X8Y1770D01*
X1961Y1770D02*
X1968Y1770D01*
X1Y1769D02*
X8Y1769D01*
X1961Y1769D02*
X1968Y1769D01*
X1Y1768D02*
X8Y1768D01*
X1961Y1768D02*
X1968Y1768D01*
X1Y1767D02*
X8Y1767D01*
X1961Y1767D02*
X1968Y1767D01*
X1Y1766D02*
X8Y1766D01*
X1961Y1766D02*
X1968Y1766D01*
X1Y1765D02*
X8Y1765D01*
X1961Y1765D02*
X1968Y1765D01*
X1Y1764D02*
X8Y1764D01*
X1961Y1764D02*
X1968Y1764D01*
X1Y1763D02*
X8Y1763D01*
X1961Y1763D02*
X1968Y1763D01*
X1Y1762D02*
X8Y1762D01*
X1961Y1762D02*
X1968Y1762D01*
X1Y1761D02*
X8Y1761D01*
X1961Y1761D02*
X1968Y1761D01*
X1Y1760D02*
X8Y1760D01*
X1961Y1760D02*
X1968Y1760D01*
X1Y1759D02*
X8Y1759D01*
X1961Y1759D02*
X1968Y1759D01*
X1Y1758D02*
X8Y1758D01*
X1961Y1758D02*
X1968Y1758D01*
X1Y1757D02*
X8Y1757D01*
X1961Y1757D02*
X1968Y1757D01*
X1Y1756D02*
X8Y1756D01*
X1961Y1756D02*
X1968Y1756D01*
X1Y1755D02*
X8Y1755D01*
X1961Y1755D02*
X1968Y1755D01*
X1Y1754D02*
X8Y1754D01*
X1961Y1754D02*
X1968Y1754D01*
X1Y1753D02*
X8Y1753D01*
X1961Y1753D02*
X1968Y1753D01*
X1Y1752D02*
X8Y1752D01*
X1961Y1752D02*
X1968Y1752D01*
X1Y1751D02*
X8Y1751D01*
X1961Y1751D02*
X1968Y1751D01*
X1Y1750D02*
X8Y1750D01*
X1961Y1750D02*
X1968Y1750D01*
X1Y1749D02*
X8Y1749D01*
X1961Y1749D02*
X1968Y1749D01*
X1Y1748D02*
X8Y1748D01*
X1961Y1748D02*
X1968Y1748D01*
X1Y1747D02*
X8Y1747D01*
X1961Y1747D02*
X1968Y1747D01*
X1Y1746D02*
X8Y1746D01*
X1961Y1746D02*
X1968Y1746D01*
X1Y1745D02*
X8Y1745D01*
X1961Y1745D02*
X1968Y1745D01*
X1Y1744D02*
X8Y1744D01*
X1961Y1744D02*
X1968Y1744D01*
X1Y1743D02*
X8Y1743D01*
X1961Y1743D02*
X1968Y1743D01*
X1Y1742D02*
X8Y1742D01*
X1961Y1742D02*
X1968Y1742D01*
X1Y1741D02*
X8Y1741D01*
X1961Y1741D02*
X1968Y1741D01*
X1Y1740D02*
X8Y1740D01*
X1961Y1740D02*
X1968Y1740D01*
X1Y1739D02*
X8Y1739D01*
X1961Y1739D02*
X1968Y1739D01*
X1Y1738D02*
X8Y1738D01*
X1961Y1738D02*
X1968Y1738D01*
X1Y1737D02*
X8Y1737D01*
X1961Y1737D02*
X1968Y1737D01*
X1Y1736D02*
X8Y1736D01*
X1961Y1736D02*
X1968Y1736D01*
X1Y1735D02*
X8Y1735D01*
X1961Y1735D02*
X1968Y1735D01*
X1Y1734D02*
X8Y1734D01*
X1961Y1734D02*
X1968Y1734D01*
X1Y1733D02*
X8Y1733D01*
X1961Y1733D02*
X1968Y1733D01*
X1Y1732D02*
X8Y1732D01*
X1961Y1732D02*
X1968Y1732D01*
X1Y1731D02*
X8Y1731D01*
X1961Y1731D02*
X1968Y1731D01*
X1Y1730D02*
X8Y1730D01*
X1961Y1730D02*
X1968Y1730D01*
X1Y1729D02*
X8Y1729D01*
X1961Y1729D02*
X1968Y1729D01*
X1Y1728D02*
X8Y1728D01*
X1961Y1728D02*
X1968Y1728D01*
X1Y1727D02*
X8Y1727D01*
X1961Y1727D02*
X1968Y1727D01*
X1Y1726D02*
X8Y1726D01*
X1961Y1726D02*
X1968Y1726D01*
X1Y1725D02*
X8Y1725D01*
X1961Y1725D02*
X1968Y1725D01*
X1Y1724D02*
X8Y1724D01*
X1961Y1724D02*
X1968Y1724D01*
X1Y1723D02*
X8Y1723D01*
X1961Y1723D02*
X1968Y1723D01*
X1Y1722D02*
X8Y1722D01*
X1961Y1722D02*
X1968Y1722D01*
X1Y1721D02*
X8Y1721D01*
X1961Y1721D02*
X1968Y1721D01*
X1Y1720D02*
X8Y1720D01*
X1961Y1720D02*
X1968Y1720D01*
X1Y1719D02*
X8Y1719D01*
X1961Y1719D02*
X1968Y1719D01*
X1Y1718D02*
X8Y1718D01*
X1961Y1718D02*
X1968Y1718D01*
X1Y1717D02*
X8Y1717D01*
X1961Y1717D02*
X1968Y1717D01*
X1Y1716D02*
X8Y1716D01*
X1961Y1716D02*
X1968Y1716D01*
X1Y1715D02*
X8Y1715D01*
X1961Y1715D02*
X1968Y1715D01*
X1Y1714D02*
X8Y1714D01*
X1961Y1714D02*
X1968Y1714D01*
X1Y1713D02*
X8Y1713D01*
X1961Y1713D02*
X1968Y1713D01*
X1Y1712D02*
X8Y1712D01*
X1961Y1712D02*
X1968Y1712D01*
X1Y1711D02*
X8Y1711D01*
X1961Y1711D02*
X1968Y1711D01*
X1Y1710D02*
X8Y1710D01*
X1961Y1710D02*
X1968Y1710D01*
X1Y1709D02*
X8Y1709D01*
X1961Y1709D02*
X1968Y1709D01*
X1Y1708D02*
X8Y1708D01*
X1961Y1708D02*
X1968Y1708D01*
X1Y1707D02*
X8Y1707D01*
X1961Y1707D02*
X1968Y1707D01*
X1Y1706D02*
X8Y1706D01*
X1961Y1706D02*
X1968Y1706D01*
X1Y1705D02*
X8Y1705D01*
X1961Y1705D02*
X1968Y1705D01*
X1Y1704D02*
X8Y1704D01*
X1961Y1704D02*
X1968Y1704D01*
X1Y1703D02*
X8Y1703D01*
X1961Y1703D02*
X1968Y1703D01*
X1Y1702D02*
X8Y1702D01*
X1961Y1702D02*
X1968Y1702D01*
X1Y1701D02*
X8Y1701D01*
X1961Y1701D02*
X1968Y1701D01*
X1Y1700D02*
X8Y1700D01*
X1961Y1700D02*
X1968Y1700D01*
X1Y1699D02*
X8Y1699D01*
X1961Y1699D02*
X1968Y1699D01*
X1Y1698D02*
X8Y1698D01*
X1961Y1698D02*
X1968Y1698D01*
X1Y1697D02*
X8Y1697D01*
X1961Y1697D02*
X1968Y1697D01*
X1Y1696D02*
X8Y1696D01*
X1961Y1696D02*
X1968Y1696D01*
X1Y1695D02*
X8Y1695D01*
X1961Y1695D02*
X1968Y1695D01*
X1Y1694D02*
X8Y1694D01*
X1961Y1694D02*
X1968Y1694D01*
X1Y1693D02*
X8Y1693D01*
X1961Y1693D02*
X1968Y1693D01*
X1Y1692D02*
X8Y1692D01*
X1961Y1692D02*
X1968Y1692D01*
X1Y1691D02*
X8Y1691D01*
X1961Y1691D02*
X1968Y1691D01*
X1Y1690D02*
X8Y1690D01*
X1961Y1690D02*
X1968Y1690D01*
X1Y1689D02*
X8Y1689D01*
X1961Y1689D02*
X1968Y1689D01*
X1Y1688D02*
X8Y1688D01*
X1961Y1688D02*
X1968Y1688D01*
X1Y1687D02*
X8Y1687D01*
X1961Y1687D02*
X1968Y1687D01*
X1Y1686D02*
X8Y1686D01*
X1961Y1686D02*
X1968Y1686D01*
X1Y1685D02*
X8Y1685D01*
X1961Y1685D02*
X1968Y1685D01*
X1Y1684D02*
X8Y1684D01*
X1961Y1684D02*
X1968Y1684D01*
X1Y1683D02*
X8Y1683D01*
X1961Y1683D02*
X1968Y1683D01*
X1Y1682D02*
X8Y1682D01*
X1961Y1682D02*
X1968Y1682D01*
X1Y1681D02*
X8Y1681D01*
X1961Y1681D02*
X1968Y1681D01*
X1Y1680D02*
X8Y1680D01*
X1961Y1680D02*
X1968Y1680D01*
X1Y1679D02*
X8Y1679D01*
X1961Y1679D02*
X1968Y1679D01*
X1Y1678D02*
X8Y1678D01*
X1961Y1678D02*
X1968Y1678D01*
X1Y1677D02*
X8Y1677D01*
X1961Y1677D02*
X1968Y1677D01*
X1Y1676D02*
X8Y1676D01*
X1961Y1676D02*
X1968Y1676D01*
X1Y1675D02*
X8Y1675D01*
X1961Y1675D02*
X1968Y1675D01*
X1Y1674D02*
X8Y1674D01*
X1961Y1674D02*
X1968Y1674D01*
X1Y1673D02*
X8Y1673D01*
X1961Y1673D02*
X1968Y1673D01*
X1Y1672D02*
X8Y1672D01*
X1961Y1672D02*
X1968Y1672D01*
X1Y1671D02*
X8Y1671D01*
X1961Y1671D02*
X1968Y1671D01*
X1Y1670D02*
X8Y1670D01*
X1961Y1670D02*
X1968Y1670D01*
X1Y1669D02*
X8Y1669D01*
X1961Y1669D02*
X1968Y1669D01*
X1Y1668D02*
X8Y1668D01*
X1961Y1668D02*
X1968Y1668D01*
X1Y1667D02*
X8Y1667D01*
X1961Y1667D02*
X1968Y1667D01*
X1Y1666D02*
X8Y1666D01*
X1961Y1666D02*
X1968Y1666D01*
X1Y1665D02*
X8Y1665D01*
X1961Y1665D02*
X1968Y1665D01*
X1Y1664D02*
X8Y1664D01*
X1961Y1664D02*
X1968Y1664D01*
X1Y1663D02*
X8Y1663D01*
X1961Y1663D02*
X1968Y1663D01*
X1Y1662D02*
X8Y1662D01*
X1961Y1662D02*
X1968Y1662D01*
X1Y1661D02*
X8Y1661D01*
X1961Y1661D02*
X1968Y1661D01*
X1Y1660D02*
X8Y1660D01*
X1961Y1660D02*
X1968Y1660D01*
X1Y1659D02*
X8Y1659D01*
X1961Y1659D02*
X1968Y1659D01*
X1Y1658D02*
X8Y1658D01*
X1961Y1658D02*
X1968Y1658D01*
X1Y1657D02*
X8Y1657D01*
X1961Y1657D02*
X1968Y1657D01*
X1Y1656D02*
X8Y1656D01*
X1961Y1656D02*
X1968Y1656D01*
X1Y1655D02*
X8Y1655D01*
X1961Y1655D02*
X1968Y1655D01*
X1Y1654D02*
X8Y1654D01*
X1961Y1654D02*
X1968Y1654D01*
X1Y1653D02*
X8Y1653D01*
X1961Y1653D02*
X1968Y1653D01*
X1Y1652D02*
X8Y1652D01*
X1961Y1652D02*
X1968Y1652D01*
X1Y1651D02*
X8Y1651D01*
X1961Y1651D02*
X1968Y1651D01*
X1Y1650D02*
X8Y1650D01*
X1961Y1650D02*
X1968Y1650D01*
X1Y1649D02*
X8Y1649D01*
X1961Y1649D02*
X1968Y1649D01*
X1Y1648D02*
X8Y1648D01*
X1961Y1648D02*
X1968Y1648D01*
X1Y1647D02*
X8Y1647D01*
X1961Y1647D02*
X1968Y1647D01*
X1Y1646D02*
X8Y1646D01*
X1961Y1646D02*
X1968Y1646D01*
X1Y1645D02*
X8Y1645D01*
X1961Y1645D02*
X1968Y1645D01*
X1Y1644D02*
X8Y1644D01*
X1961Y1644D02*
X1968Y1644D01*
X1Y1643D02*
X8Y1643D01*
X1961Y1643D02*
X1968Y1643D01*
X1Y1642D02*
X8Y1642D01*
X1961Y1642D02*
X1968Y1642D01*
X1Y1641D02*
X8Y1641D01*
X1961Y1641D02*
X1968Y1641D01*
X1Y1640D02*
X8Y1640D01*
X1961Y1640D02*
X1968Y1640D01*
X1Y1639D02*
X8Y1639D01*
X1961Y1639D02*
X1968Y1639D01*
X1Y1638D02*
X8Y1638D01*
X1961Y1638D02*
X1968Y1638D01*
X1Y1637D02*
X8Y1637D01*
X1961Y1637D02*
X1968Y1637D01*
X1Y1636D02*
X8Y1636D01*
X1961Y1636D02*
X1968Y1636D01*
X1Y1635D02*
X8Y1635D01*
X1961Y1635D02*
X1968Y1635D01*
X1Y1634D02*
X8Y1634D01*
X1961Y1634D02*
X1968Y1634D01*
X1Y1633D02*
X8Y1633D01*
X1961Y1633D02*
X1968Y1633D01*
X1Y1632D02*
X8Y1632D01*
X1961Y1632D02*
X1968Y1632D01*
X1Y1631D02*
X8Y1631D01*
X1961Y1631D02*
X1968Y1631D01*
X1Y1630D02*
X8Y1630D01*
X1961Y1630D02*
X1968Y1630D01*
X1Y1629D02*
X8Y1629D01*
X1961Y1629D02*
X1968Y1629D01*
X1Y1628D02*
X8Y1628D01*
X1961Y1628D02*
X1968Y1628D01*
X1Y1627D02*
X8Y1627D01*
X1961Y1627D02*
X1968Y1627D01*
X1Y1626D02*
X8Y1626D01*
X1961Y1626D02*
X1968Y1626D01*
X1Y1625D02*
X8Y1625D01*
X1961Y1625D02*
X1968Y1625D01*
X1Y1624D02*
X8Y1624D01*
X1961Y1624D02*
X1968Y1624D01*
X1Y1623D02*
X8Y1623D01*
X1961Y1623D02*
X1968Y1623D01*
X1Y1622D02*
X8Y1622D01*
X1961Y1622D02*
X1968Y1622D01*
X1Y1621D02*
X8Y1621D01*
X1961Y1621D02*
X1968Y1621D01*
X1Y1620D02*
X8Y1620D01*
X1961Y1620D02*
X1968Y1620D01*
X1Y1619D02*
X8Y1619D01*
X1961Y1619D02*
X1968Y1619D01*
X1Y1618D02*
X8Y1618D01*
X1961Y1618D02*
X1968Y1618D01*
X1Y1617D02*
X8Y1617D01*
X1961Y1617D02*
X1968Y1617D01*
X1Y1616D02*
X8Y1616D01*
X1961Y1616D02*
X1968Y1616D01*
X1Y1615D02*
X8Y1615D01*
X1961Y1615D02*
X1968Y1615D01*
X1Y1614D02*
X8Y1614D01*
X1961Y1614D02*
X1968Y1614D01*
X1Y1613D02*
X8Y1613D01*
X1961Y1613D02*
X1968Y1613D01*
X1Y1612D02*
X8Y1612D01*
X1961Y1612D02*
X1968Y1612D01*
X1Y1611D02*
X8Y1611D01*
X1961Y1611D02*
X1968Y1611D01*
X1Y1610D02*
X8Y1610D01*
X1961Y1610D02*
X1968Y1610D01*
X1Y1609D02*
X8Y1609D01*
X1961Y1609D02*
X1968Y1609D01*
X1Y1608D02*
X8Y1608D01*
X1961Y1608D02*
X1968Y1608D01*
X1Y1607D02*
X8Y1607D01*
X1961Y1607D02*
X1968Y1607D01*
X1Y1606D02*
X8Y1606D01*
X1961Y1606D02*
X1968Y1606D01*
X1Y1605D02*
X8Y1605D01*
X1961Y1605D02*
X1968Y1605D01*
X1Y1604D02*
X8Y1604D01*
X1961Y1604D02*
X1968Y1604D01*
X1Y1603D02*
X8Y1603D01*
X1961Y1603D02*
X1968Y1603D01*
X1Y1602D02*
X8Y1602D01*
X1961Y1602D02*
X1968Y1602D01*
X1Y1601D02*
X8Y1601D01*
X1961Y1601D02*
X1968Y1601D01*
X1Y1600D02*
X8Y1600D01*
X1961Y1600D02*
X1968Y1600D01*
X1Y1599D02*
X8Y1599D01*
X1961Y1599D02*
X1968Y1599D01*
X1Y1598D02*
X8Y1598D01*
X1961Y1598D02*
X1968Y1598D01*
X1Y1597D02*
X8Y1597D01*
X1961Y1597D02*
X1968Y1597D01*
X1Y1596D02*
X8Y1596D01*
X1961Y1596D02*
X1968Y1596D01*
X1Y1595D02*
X8Y1595D01*
X1961Y1595D02*
X1968Y1595D01*
X1Y1594D02*
X8Y1594D01*
X1961Y1594D02*
X1968Y1594D01*
X1Y1593D02*
X8Y1593D01*
X1961Y1593D02*
X1968Y1593D01*
X1Y1592D02*
X8Y1592D01*
X1961Y1592D02*
X1968Y1592D01*
X1Y1591D02*
X8Y1591D01*
X1961Y1591D02*
X1968Y1591D01*
X1Y1590D02*
X8Y1590D01*
X1961Y1590D02*
X1968Y1590D01*
X1Y1589D02*
X8Y1589D01*
X1961Y1589D02*
X1968Y1589D01*
X1Y1588D02*
X8Y1588D01*
X1961Y1588D02*
X1968Y1588D01*
X1Y1587D02*
X8Y1587D01*
X1961Y1587D02*
X1968Y1587D01*
X1Y1586D02*
X8Y1586D01*
X1961Y1586D02*
X1968Y1586D01*
X1Y1585D02*
X8Y1585D01*
X1961Y1585D02*
X1968Y1585D01*
X1Y1584D02*
X8Y1584D01*
X1961Y1584D02*
X1968Y1584D01*
X1Y1583D02*
X8Y1583D01*
X1961Y1583D02*
X1968Y1583D01*
X1Y1582D02*
X8Y1582D01*
X1961Y1582D02*
X1968Y1582D01*
X1Y1581D02*
X8Y1581D01*
X1961Y1581D02*
X1968Y1581D01*
X1Y1580D02*
X8Y1580D01*
X1961Y1580D02*
X1968Y1580D01*
X1Y1579D02*
X8Y1579D01*
X1961Y1579D02*
X1968Y1579D01*
X1Y1578D02*
X8Y1578D01*
X1961Y1578D02*
X1968Y1578D01*
X1Y1577D02*
X8Y1577D01*
X1961Y1577D02*
X1968Y1577D01*
X1Y1576D02*
X8Y1576D01*
X1961Y1576D02*
X1968Y1576D01*
X1Y1575D02*
X8Y1575D01*
X1961Y1575D02*
X1968Y1575D01*
X1Y1574D02*
X8Y1574D01*
X1961Y1574D02*
X1968Y1574D01*
X1Y1573D02*
X8Y1573D01*
X1961Y1573D02*
X1968Y1573D01*
X1Y1572D02*
X8Y1572D01*
X1961Y1572D02*
X1968Y1572D01*
X1Y1571D02*
X8Y1571D01*
X1961Y1571D02*
X1968Y1571D01*
X1Y1570D02*
X8Y1570D01*
X1961Y1570D02*
X1968Y1570D01*
X1Y1569D02*
X8Y1569D01*
X1961Y1569D02*
X1968Y1569D01*
X1Y1568D02*
X8Y1568D01*
X1961Y1568D02*
X1968Y1568D01*
X1Y1567D02*
X8Y1567D01*
X1961Y1567D02*
X1968Y1567D01*
X1Y1566D02*
X8Y1566D01*
X1961Y1566D02*
X1968Y1566D01*
X1Y1565D02*
X8Y1565D01*
X1961Y1565D02*
X1968Y1565D01*
X1Y1564D02*
X8Y1564D01*
X1961Y1564D02*
X1968Y1564D01*
X1Y1563D02*
X8Y1563D01*
X1961Y1563D02*
X1968Y1563D01*
X1Y1562D02*
X8Y1562D01*
X1961Y1562D02*
X1968Y1562D01*
X1Y1561D02*
X8Y1561D01*
X1961Y1561D02*
X1968Y1561D01*
X1Y1560D02*
X8Y1560D01*
X1961Y1560D02*
X1968Y1560D01*
X1Y1559D02*
X8Y1559D01*
X1961Y1559D02*
X1968Y1559D01*
X1Y1558D02*
X8Y1558D01*
X1961Y1558D02*
X1968Y1558D01*
X1Y1557D02*
X8Y1557D01*
X1961Y1557D02*
X1968Y1557D01*
X1Y1556D02*
X8Y1556D01*
X1961Y1556D02*
X1968Y1556D01*
X1Y1555D02*
X8Y1555D01*
X1961Y1555D02*
X1968Y1555D01*
X1Y1554D02*
X8Y1554D01*
X1961Y1554D02*
X1968Y1554D01*
X1Y1553D02*
X8Y1553D01*
X1961Y1553D02*
X1968Y1553D01*
X1Y1552D02*
X8Y1552D01*
X1961Y1552D02*
X1968Y1552D01*
X1Y1551D02*
X8Y1551D01*
X1961Y1551D02*
X1968Y1551D01*
X1Y1550D02*
X8Y1550D01*
X1961Y1550D02*
X1968Y1550D01*
X1Y1549D02*
X8Y1549D01*
X1961Y1549D02*
X1968Y1549D01*
X1Y1548D02*
X8Y1548D01*
X1961Y1548D02*
X1968Y1548D01*
X1Y1547D02*
X8Y1547D01*
X1961Y1547D02*
X1968Y1547D01*
X1Y1546D02*
X8Y1546D01*
X1961Y1546D02*
X1968Y1546D01*
X1Y1545D02*
X8Y1545D01*
X1961Y1545D02*
X1968Y1545D01*
X1Y1544D02*
X8Y1544D01*
X1961Y1544D02*
X1968Y1544D01*
X1Y1543D02*
X8Y1543D01*
X1961Y1543D02*
X1968Y1543D01*
X1Y1542D02*
X8Y1542D01*
X1961Y1542D02*
X1968Y1542D01*
X1Y1541D02*
X8Y1541D01*
X1961Y1541D02*
X1968Y1541D01*
X1Y1540D02*
X8Y1540D01*
X1961Y1540D02*
X1968Y1540D01*
X1Y1539D02*
X8Y1539D01*
X1961Y1539D02*
X1968Y1539D01*
X1Y1538D02*
X8Y1538D01*
X1961Y1538D02*
X1968Y1538D01*
X1Y1537D02*
X8Y1537D01*
X1961Y1537D02*
X1968Y1537D01*
X1Y1536D02*
X8Y1536D01*
X1961Y1536D02*
X1968Y1536D01*
X1Y1535D02*
X8Y1535D01*
X1961Y1535D02*
X1968Y1535D01*
X1Y1534D02*
X8Y1534D01*
X1961Y1534D02*
X1968Y1534D01*
X1Y1533D02*
X8Y1533D01*
X1961Y1533D02*
X1968Y1533D01*
X1Y1532D02*
X8Y1532D01*
X1961Y1532D02*
X1968Y1532D01*
X1Y1531D02*
X8Y1531D01*
X1961Y1531D02*
X1968Y1531D01*
X1Y1530D02*
X8Y1530D01*
X1961Y1530D02*
X1968Y1530D01*
X1Y1529D02*
X8Y1529D01*
X1961Y1529D02*
X1968Y1529D01*
X1Y1528D02*
X8Y1528D01*
X1961Y1528D02*
X1968Y1528D01*
X1Y1527D02*
X8Y1527D01*
X1961Y1527D02*
X1968Y1527D01*
X1Y1526D02*
X8Y1526D01*
X1961Y1526D02*
X1968Y1526D01*
X1Y1525D02*
X8Y1525D01*
X1961Y1525D02*
X1968Y1525D01*
X1Y1524D02*
X8Y1524D01*
X1961Y1524D02*
X1968Y1524D01*
X1Y1523D02*
X8Y1523D01*
X1961Y1523D02*
X1968Y1523D01*
X1Y1522D02*
X8Y1522D01*
X1961Y1522D02*
X1968Y1522D01*
X1Y1521D02*
X8Y1521D01*
X1961Y1521D02*
X1968Y1521D01*
X1Y1520D02*
X8Y1520D01*
X1961Y1520D02*
X1968Y1520D01*
X1Y1519D02*
X8Y1519D01*
X1961Y1519D02*
X1968Y1519D01*
X1Y1518D02*
X8Y1518D01*
X1961Y1518D02*
X1968Y1518D01*
X1Y1517D02*
X8Y1517D01*
X1961Y1517D02*
X1968Y1517D01*
X1Y1516D02*
X8Y1516D01*
X1961Y1516D02*
X1968Y1516D01*
X1Y1515D02*
X8Y1515D01*
X1961Y1515D02*
X1968Y1515D01*
X1Y1514D02*
X8Y1514D01*
X1961Y1514D02*
X1968Y1514D01*
X1Y1513D02*
X8Y1513D01*
X1961Y1513D02*
X1968Y1513D01*
X1Y1512D02*
X8Y1512D01*
X1961Y1512D02*
X1968Y1512D01*
X1Y1511D02*
X8Y1511D01*
X1961Y1511D02*
X1968Y1511D01*
X1Y1510D02*
X8Y1510D01*
X1961Y1510D02*
X1968Y1510D01*
X1Y1509D02*
X8Y1509D01*
X1961Y1509D02*
X1968Y1509D01*
X1Y1508D02*
X8Y1508D01*
X1961Y1508D02*
X1968Y1508D01*
X1Y1507D02*
X8Y1507D01*
X1961Y1507D02*
X1968Y1507D01*
X1Y1506D02*
X8Y1506D01*
X1961Y1506D02*
X1968Y1506D01*
X1Y1505D02*
X8Y1505D01*
X1961Y1505D02*
X1968Y1505D01*
X1Y1504D02*
X8Y1504D01*
X1961Y1504D02*
X1968Y1504D01*
X1Y1503D02*
X8Y1503D01*
X1961Y1503D02*
X1968Y1503D01*
X1Y1502D02*
X8Y1502D01*
X1961Y1502D02*
X1968Y1502D01*
X1Y1501D02*
X8Y1501D01*
X1961Y1501D02*
X1968Y1501D01*
X1Y1500D02*
X8Y1500D01*
X1961Y1500D02*
X1968Y1500D01*
X1Y1499D02*
X8Y1499D01*
X1961Y1499D02*
X1968Y1499D01*
X1Y1498D02*
X8Y1498D01*
X1961Y1498D02*
X1968Y1498D01*
X1Y1497D02*
X8Y1497D01*
X1961Y1497D02*
X1968Y1497D01*
X1Y1496D02*
X8Y1496D01*
X1961Y1496D02*
X1968Y1496D01*
X1Y1495D02*
X8Y1495D01*
X1961Y1495D02*
X1968Y1495D01*
X1Y1494D02*
X8Y1494D01*
X1961Y1494D02*
X1968Y1494D01*
X1Y1493D02*
X8Y1493D01*
X1961Y1493D02*
X1968Y1493D01*
X1Y1492D02*
X8Y1492D01*
X1961Y1492D02*
X1968Y1492D01*
X1Y1491D02*
X8Y1491D01*
X1961Y1491D02*
X1968Y1491D01*
X1Y1490D02*
X8Y1490D01*
X1961Y1490D02*
X1968Y1490D01*
X1Y1489D02*
X8Y1489D01*
X1961Y1489D02*
X1968Y1489D01*
X1Y1488D02*
X8Y1488D01*
X1961Y1488D02*
X1968Y1488D01*
X1Y1487D02*
X8Y1487D01*
X1961Y1487D02*
X1968Y1487D01*
X1Y1486D02*
X8Y1486D01*
X1961Y1486D02*
X1968Y1486D01*
X1Y1485D02*
X8Y1485D01*
X1961Y1485D02*
X1968Y1485D01*
X1Y1484D02*
X8Y1484D01*
X1961Y1484D02*
X1968Y1484D01*
X1Y1483D02*
X8Y1483D01*
X1961Y1483D02*
X1968Y1483D01*
X1Y1482D02*
X8Y1482D01*
X1961Y1482D02*
X1968Y1482D01*
X1Y1481D02*
X8Y1481D01*
X1961Y1481D02*
X1968Y1481D01*
X1Y1480D02*
X8Y1480D01*
X1961Y1480D02*
X1968Y1480D01*
X1Y1479D02*
X8Y1479D01*
X1961Y1479D02*
X1968Y1479D01*
X1Y1478D02*
X8Y1478D01*
X1961Y1478D02*
X1968Y1478D01*
X1Y1477D02*
X8Y1477D01*
X1961Y1477D02*
X1968Y1477D01*
X1Y1476D02*
X8Y1476D01*
X1961Y1476D02*
X1968Y1476D01*
X1Y1475D02*
X8Y1475D01*
X1961Y1475D02*
X1968Y1475D01*
X1Y1474D02*
X8Y1474D01*
X1961Y1474D02*
X1968Y1474D01*
X1Y1473D02*
X8Y1473D01*
X1961Y1473D02*
X1968Y1473D01*
X1Y1472D02*
X8Y1472D01*
X1961Y1472D02*
X1968Y1472D01*
X1Y1471D02*
X8Y1471D01*
X1961Y1471D02*
X1968Y1471D01*
X1Y1470D02*
X8Y1470D01*
X1961Y1470D02*
X1968Y1470D01*
X1Y1469D02*
X8Y1469D01*
X1961Y1469D02*
X1968Y1469D01*
X1Y1468D02*
X8Y1468D01*
X1961Y1468D02*
X1968Y1468D01*
X1Y1467D02*
X8Y1467D01*
X1961Y1467D02*
X1968Y1467D01*
X1Y1466D02*
X8Y1466D01*
X1961Y1466D02*
X1968Y1466D01*
X1Y1465D02*
X8Y1465D01*
X1961Y1465D02*
X1968Y1465D01*
X1Y1464D02*
X8Y1464D01*
X1961Y1464D02*
X1968Y1464D01*
X1Y1463D02*
X8Y1463D01*
X1961Y1463D02*
X1968Y1463D01*
X1Y1462D02*
X8Y1462D01*
X1961Y1462D02*
X1968Y1462D01*
X1Y1461D02*
X8Y1461D01*
X1961Y1461D02*
X1968Y1461D01*
X1Y1460D02*
X8Y1460D01*
X1961Y1460D02*
X1968Y1460D01*
X1Y1459D02*
X8Y1459D01*
X1961Y1459D02*
X1968Y1459D01*
X1Y1458D02*
X8Y1458D01*
X1961Y1458D02*
X1968Y1458D01*
X1Y1457D02*
X8Y1457D01*
X1961Y1457D02*
X1968Y1457D01*
X1Y1456D02*
X8Y1456D01*
X1961Y1456D02*
X1968Y1456D01*
X1Y1455D02*
X8Y1455D01*
X1961Y1455D02*
X1968Y1455D01*
X1Y1454D02*
X8Y1454D01*
X1961Y1454D02*
X1968Y1454D01*
X1Y1453D02*
X8Y1453D01*
X1961Y1453D02*
X1968Y1453D01*
X1Y1452D02*
X8Y1452D01*
X1961Y1452D02*
X1968Y1452D01*
X1Y1451D02*
X8Y1451D01*
X1961Y1451D02*
X1968Y1451D01*
X1Y1450D02*
X8Y1450D01*
X1961Y1450D02*
X1968Y1450D01*
X1Y1449D02*
X8Y1449D01*
X1961Y1449D02*
X1968Y1449D01*
X1Y1448D02*
X8Y1448D01*
X1961Y1448D02*
X1968Y1448D01*
X1Y1447D02*
X8Y1447D01*
X1961Y1447D02*
X1968Y1447D01*
X1Y1446D02*
X8Y1446D01*
X1961Y1446D02*
X1968Y1446D01*
X1Y1445D02*
X8Y1445D01*
X1961Y1445D02*
X1968Y1445D01*
X1Y1444D02*
X8Y1444D01*
X1961Y1444D02*
X1968Y1444D01*
X1Y1443D02*
X8Y1443D01*
X1961Y1443D02*
X1968Y1443D01*
X1Y1442D02*
X8Y1442D01*
X1961Y1442D02*
X1968Y1442D01*
X1Y1441D02*
X8Y1441D01*
X1961Y1441D02*
X1968Y1441D01*
X1Y1440D02*
X8Y1440D01*
X1961Y1440D02*
X1968Y1440D01*
X1Y1439D02*
X8Y1439D01*
X1961Y1439D02*
X1968Y1439D01*
X1Y1438D02*
X8Y1438D01*
X1961Y1438D02*
X1968Y1438D01*
X1Y1437D02*
X8Y1437D01*
X1961Y1437D02*
X1968Y1437D01*
X1Y1436D02*
X8Y1436D01*
X1961Y1436D02*
X1968Y1436D01*
X1Y1435D02*
X8Y1435D01*
X1961Y1435D02*
X1968Y1435D01*
X1Y1434D02*
X8Y1434D01*
X1961Y1434D02*
X1968Y1434D01*
X1Y1433D02*
X8Y1433D01*
X1961Y1433D02*
X1968Y1433D01*
X1Y1432D02*
X8Y1432D01*
X1961Y1432D02*
X1968Y1432D01*
X1Y1431D02*
X8Y1431D01*
X1961Y1431D02*
X1968Y1431D01*
X1Y1430D02*
X8Y1430D01*
X1961Y1430D02*
X1968Y1430D01*
X1Y1429D02*
X8Y1429D01*
X1961Y1429D02*
X1968Y1429D01*
X1Y1428D02*
X8Y1428D01*
X1961Y1428D02*
X1968Y1428D01*
X1Y1427D02*
X8Y1427D01*
X1961Y1427D02*
X1968Y1427D01*
X1Y1426D02*
X8Y1426D01*
X1961Y1426D02*
X1968Y1426D01*
X1Y1425D02*
X8Y1425D01*
X1961Y1425D02*
X1968Y1425D01*
X1Y1424D02*
X8Y1424D01*
X1961Y1424D02*
X1968Y1424D01*
X1Y1423D02*
X8Y1423D01*
X1961Y1423D02*
X1968Y1423D01*
X1Y1422D02*
X8Y1422D01*
X1961Y1422D02*
X1968Y1422D01*
X1Y1421D02*
X8Y1421D01*
X1961Y1421D02*
X1968Y1421D01*
X1Y1420D02*
X8Y1420D01*
X1961Y1420D02*
X1968Y1420D01*
X1Y1419D02*
X8Y1419D01*
X1961Y1419D02*
X1968Y1419D01*
X1Y1418D02*
X8Y1418D01*
X1961Y1418D02*
X1968Y1418D01*
X1Y1417D02*
X8Y1417D01*
X1961Y1417D02*
X1968Y1417D01*
X1Y1416D02*
X8Y1416D01*
X1961Y1416D02*
X1968Y1416D01*
X1Y1415D02*
X8Y1415D01*
X1961Y1415D02*
X1968Y1415D01*
X1Y1414D02*
X8Y1414D01*
X1961Y1414D02*
X1968Y1414D01*
X1Y1413D02*
X8Y1413D01*
X1961Y1413D02*
X1968Y1413D01*
X1Y1412D02*
X8Y1412D01*
X1961Y1412D02*
X1968Y1412D01*
X1Y1411D02*
X8Y1411D01*
X1961Y1411D02*
X1968Y1411D01*
X1Y1410D02*
X8Y1410D01*
X1961Y1410D02*
X1968Y1410D01*
X1Y1409D02*
X8Y1409D01*
X1961Y1409D02*
X1968Y1409D01*
X1Y1408D02*
X8Y1408D01*
X1961Y1408D02*
X1968Y1408D01*
X1Y1407D02*
X8Y1407D01*
X1961Y1407D02*
X1968Y1407D01*
X1Y1406D02*
X8Y1406D01*
X1961Y1406D02*
X1968Y1406D01*
X1Y1405D02*
X8Y1405D01*
X1961Y1405D02*
X1968Y1405D01*
X1Y1404D02*
X8Y1404D01*
X1961Y1404D02*
X1968Y1404D01*
X1Y1403D02*
X8Y1403D01*
X1961Y1403D02*
X1968Y1403D01*
X1Y1402D02*
X8Y1402D01*
X1961Y1402D02*
X1968Y1402D01*
X1Y1401D02*
X8Y1401D01*
X1961Y1401D02*
X1968Y1401D01*
X1Y1400D02*
X8Y1400D01*
X1961Y1400D02*
X1968Y1400D01*
X1Y1399D02*
X8Y1399D01*
X1961Y1399D02*
X1968Y1399D01*
X1Y1398D02*
X8Y1398D01*
X1961Y1398D02*
X1968Y1398D01*
X1Y1397D02*
X8Y1397D01*
X1961Y1397D02*
X1968Y1397D01*
X1Y1396D02*
X8Y1396D01*
X1961Y1396D02*
X1968Y1396D01*
X1Y1395D02*
X8Y1395D01*
X1961Y1395D02*
X1968Y1395D01*
X1Y1394D02*
X8Y1394D01*
X1961Y1394D02*
X1968Y1394D01*
X1Y1393D02*
X8Y1393D01*
X1961Y1393D02*
X1968Y1393D01*
X1Y1392D02*
X8Y1392D01*
X1961Y1392D02*
X1968Y1392D01*
X1Y1391D02*
X8Y1391D01*
X1961Y1391D02*
X1968Y1391D01*
X1Y1390D02*
X8Y1390D01*
X1961Y1390D02*
X1968Y1390D01*
X1Y1389D02*
X8Y1389D01*
X1961Y1389D02*
X1968Y1389D01*
X1Y1388D02*
X8Y1388D01*
X1961Y1388D02*
X1968Y1388D01*
X1Y1387D02*
X8Y1387D01*
X1961Y1387D02*
X1968Y1387D01*
X1Y1386D02*
X8Y1386D01*
X1961Y1386D02*
X1968Y1386D01*
X1Y1385D02*
X8Y1385D01*
X1961Y1385D02*
X1968Y1385D01*
X1Y1384D02*
X8Y1384D01*
X1961Y1384D02*
X1968Y1384D01*
X1Y1383D02*
X8Y1383D01*
X1961Y1383D02*
X1968Y1383D01*
X1Y1382D02*
X8Y1382D01*
X1961Y1382D02*
X1968Y1382D01*
X1Y1381D02*
X8Y1381D01*
X1961Y1381D02*
X1968Y1381D01*
X1Y1380D02*
X8Y1380D01*
X1961Y1380D02*
X1968Y1380D01*
X1Y1379D02*
X8Y1379D01*
X1961Y1379D02*
X1968Y1379D01*
X1Y1378D02*
X8Y1378D01*
X1961Y1378D02*
X1968Y1378D01*
X1Y1377D02*
X8Y1377D01*
X1961Y1377D02*
X1968Y1377D01*
X1Y1376D02*
X8Y1376D01*
X1961Y1376D02*
X1968Y1376D01*
X1Y1375D02*
X8Y1375D01*
X1961Y1375D02*
X1968Y1375D01*
X1Y1374D02*
X8Y1374D01*
X1961Y1374D02*
X1968Y1374D01*
X1Y1373D02*
X8Y1373D01*
X1961Y1373D02*
X1968Y1373D01*
X1Y1372D02*
X8Y1372D01*
X1961Y1372D02*
X1968Y1372D01*
X1Y1371D02*
X8Y1371D01*
X1961Y1371D02*
X1968Y1371D01*
X1Y1370D02*
X8Y1370D01*
X1961Y1370D02*
X1968Y1370D01*
X1Y1369D02*
X8Y1369D01*
X1961Y1369D02*
X1968Y1369D01*
X1Y1368D02*
X8Y1368D01*
X1961Y1368D02*
X1968Y1368D01*
X1Y1367D02*
X8Y1367D01*
X1961Y1367D02*
X1968Y1367D01*
X1Y1366D02*
X8Y1366D01*
X1961Y1366D02*
X1968Y1366D01*
X1Y1365D02*
X8Y1365D01*
X1961Y1365D02*
X1968Y1365D01*
X1Y1364D02*
X8Y1364D01*
X1961Y1364D02*
X1968Y1364D01*
X1Y1363D02*
X8Y1363D01*
X1961Y1363D02*
X1968Y1363D01*
X1Y1362D02*
X8Y1362D01*
X1961Y1362D02*
X1968Y1362D01*
X1Y1361D02*
X8Y1361D01*
X1961Y1361D02*
X1968Y1361D01*
X1Y1360D02*
X8Y1360D01*
X1961Y1360D02*
X1968Y1360D01*
X1Y1359D02*
X8Y1359D01*
X1961Y1359D02*
X1968Y1359D01*
X1Y1358D02*
X8Y1358D01*
X1961Y1358D02*
X1968Y1358D01*
X1Y1357D02*
X8Y1357D01*
X1961Y1357D02*
X1968Y1357D01*
X1Y1356D02*
X8Y1356D01*
X1961Y1356D02*
X1968Y1356D01*
X1Y1355D02*
X8Y1355D01*
X1961Y1355D02*
X1968Y1355D01*
X1Y1354D02*
X8Y1354D01*
X1961Y1354D02*
X1968Y1354D01*
X1Y1353D02*
X8Y1353D01*
X1961Y1353D02*
X1968Y1353D01*
X1Y1352D02*
X8Y1352D01*
X1961Y1352D02*
X1968Y1352D01*
X1Y1351D02*
X8Y1351D01*
X1961Y1351D02*
X1968Y1351D01*
X1Y1350D02*
X8Y1350D01*
X1961Y1350D02*
X1968Y1350D01*
X1Y1349D02*
X8Y1349D01*
X1961Y1349D02*
X1968Y1349D01*
X1Y1348D02*
X8Y1348D01*
X1961Y1348D02*
X1968Y1348D01*
X1Y1347D02*
X8Y1347D01*
X1961Y1347D02*
X1968Y1347D01*
X1Y1346D02*
X8Y1346D01*
X1961Y1346D02*
X1968Y1346D01*
X1Y1345D02*
X8Y1345D01*
X1961Y1345D02*
X1968Y1345D01*
X1Y1344D02*
X8Y1344D01*
X1961Y1344D02*
X1968Y1344D01*
X1Y1343D02*
X8Y1343D01*
X1961Y1343D02*
X1968Y1343D01*
X1Y1342D02*
X8Y1342D01*
X1961Y1342D02*
X1968Y1342D01*
X1Y1341D02*
X8Y1341D01*
X1961Y1341D02*
X1968Y1341D01*
X1Y1340D02*
X8Y1340D01*
X1961Y1340D02*
X1968Y1340D01*
X1Y1339D02*
X8Y1339D01*
X1961Y1339D02*
X1968Y1339D01*
X1Y1338D02*
X8Y1338D01*
X1961Y1338D02*
X1968Y1338D01*
X1Y1337D02*
X8Y1337D01*
X1961Y1337D02*
X1968Y1337D01*
X1Y1336D02*
X8Y1336D01*
X1961Y1336D02*
X1968Y1336D01*
X1Y1335D02*
X8Y1335D01*
X1961Y1335D02*
X1968Y1335D01*
X1Y1334D02*
X8Y1334D01*
X1961Y1334D02*
X1968Y1334D01*
X1Y1333D02*
X8Y1333D01*
X1961Y1333D02*
X1968Y1333D01*
X1Y1332D02*
X8Y1332D01*
X1961Y1332D02*
X1968Y1332D01*
X1Y1331D02*
X8Y1331D01*
X1961Y1331D02*
X1968Y1331D01*
X1Y1330D02*
X8Y1330D01*
X1961Y1330D02*
X1968Y1330D01*
X1Y1329D02*
X8Y1329D01*
X1961Y1329D02*
X1968Y1329D01*
X1Y1328D02*
X8Y1328D01*
X1961Y1328D02*
X1968Y1328D01*
X1Y1327D02*
X8Y1327D01*
X1961Y1327D02*
X1968Y1327D01*
X1Y1326D02*
X8Y1326D01*
X1961Y1326D02*
X1968Y1326D01*
X1Y1325D02*
X8Y1325D01*
X1961Y1325D02*
X1968Y1325D01*
X1Y1324D02*
X8Y1324D01*
X1961Y1324D02*
X1968Y1324D01*
X1Y1323D02*
X8Y1323D01*
X1961Y1323D02*
X1968Y1323D01*
X1Y1322D02*
X8Y1322D01*
X1961Y1322D02*
X1968Y1322D01*
X1Y1321D02*
X8Y1321D01*
X1961Y1321D02*
X1968Y1321D01*
X1Y1320D02*
X8Y1320D01*
X1961Y1320D02*
X1968Y1320D01*
X1Y1319D02*
X8Y1319D01*
X1961Y1319D02*
X1968Y1319D01*
X1Y1318D02*
X8Y1318D01*
X1961Y1318D02*
X1968Y1318D01*
X1Y1317D02*
X8Y1317D01*
X1961Y1317D02*
X1968Y1317D01*
X1Y1316D02*
X8Y1316D01*
X1961Y1316D02*
X1968Y1316D01*
X1Y1315D02*
X8Y1315D01*
X1961Y1315D02*
X1968Y1315D01*
X1Y1314D02*
X8Y1314D01*
X1961Y1314D02*
X1968Y1314D01*
X1Y1313D02*
X8Y1313D01*
X1961Y1313D02*
X1968Y1313D01*
X1Y1312D02*
X8Y1312D01*
X1961Y1312D02*
X1968Y1312D01*
X1Y1311D02*
X8Y1311D01*
X1961Y1311D02*
X1968Y1311D01*
X1Y1310D02*
X8Y1310D01*
X1961Y1310D02*
X1968Y1310D01*
X1Y1309D02*
X8Y1309D01*
X1961Y1309D02*
X1968Y1309D01*
X1Y1308D02*
X8Y1308D01*
X1961Y1308D02*
X1968Y1308D01*
X1Y1307D02*
X8Y1307D01*
X1961Y1307D02*
X1968Y1307D01*
X1Y1306D02*
X8Y1306D01*
X1961Y1306D02*
X1968Y1306D01*
X1Y1305D02*
X8Y1305D01*
X1961Y1305D02*
X1968Y1305D01*
X1Y1304D02*
X8Y1304D01*
X1961Y1304D02*
X1968Y1304D01*
X1Y1303D02*
X8Y1303D01*
X1961Y1303D02*
X1968Y1303D01*
X1Y1302D02*
X8Y1302D01*
X1961Y1302D02*
X1968Y1302D01*
X1Y1301D02*
X8Y1301D01*
X1961Y1301D02*
X1968Y1301D01*
X1Y1300D02*
X8Y1300D01*
X1961Y1300D02*
X1968Y1300D01*
X1Y1299D02*
X8Y1299D01*
X1961Y1299D02*
X1968Y1299D01*
X1Y1298D02*
X8Y1298D01*
X1961Y1298D02*
X1968Y1298D01*
X1Y1297D02*
X8Y1297D01*
X1961Y1297D02*
X1968Y1297D01*
X1Y1296D02*
X8Y1296D01*
X1961Y1296D02*
X1968Y1296D01*
X1Y1295D02*
X8Y1295D01*
X1961Y1295D02*
X1968Y1295D01*
X1Y1294D02*
X8Y1294D01*
X1961Y1294D02*
X1968Y1294D01*
X1Y1293D02*
X8Y1293D01*
X1961Y1293D02*
X1968Y1293D01*
X1Y1292D02*
X8Y1292D01*
X1961Y1292D02*
X1968Y1292D01*
X1Y1291D02*
X8Y1291D01*
X1961Y1291D02*
X1968Y1291D01*
X1Y1290D02*
X8Y1290D01*
X1961Y1290D02*
X1968Y1290D01*
X1Y1289D02*
X8Y1289D01*
X1961Y1289D02*
X1968Y1289D01*
X1Y1288D02*
X8Y1288D01*
X1961Y1288D02*
X1968Y1288D01*
X1Y1287D02*
X8Y1287D01*
X1961Y1287D02*
X1968Y1287D01*
X1Y1286D02*
X8Y1286D01*
X1961Y1286D02*
X1968Y1286D01*
X1Y1285D02*
X8Y1285D01*
X1961Y1285D02*
X1968Y1285D01*
X1Y1284D02*
X8Y1284D01*
X1961Y1284D02*
X1968Y1284D01*
X1Y1283D02*
X8Y1283D01*
X1961Y1283D02*
X1968Y1283D01*
X1Y1282D02*
X8Y1282D01*
X1961Y1282D02*
X1968Y1282D01*
X1Y1281D02*
X8Y1281D01*
X1961Y1281D02*
X1968Y1281D01*
X1Y1280D02*
X8Y1280D01*
X1961Y1280D02*
X1968Y1280D01*
X1Y1279D02*
X8Y1279D01*
X1961Y1279D02*
X1968Y1279D01*
X1Y1278D02*
X8Y1278D01*
X1961Y1278D02*
X1968Y1278D01*
X1Y1277D02*
X8Y1277D01*
X1961Y1277D02*
X1968Y1277D01*
X1Y1276D02*
X8Y1276D01*
X1961Y1276D02*
X1968Y1276D01*
X1Y1275D02*
X8Y1275D01*
X1961Y1275D02*
X1968Y1275D01*
X1Y1274D02*
X8Y1274D01*
X1961Y1274D02*
X1968Y1274D01*
X1Y1273D02*
X8Y1273D01*
X1961Y1273D02*
X1968Y1273D01*
X1Y1272D02*
X8Y1272D01*
X1961Y1272D02*
X1968Y1272D01*
X1Y1271D02*
X8Y1271D01*
X1961Y1271D02*
X1968Y1271D01*
X1Y1270D02*
X8Y1270D01*
X1961Y1270D02*
X1968Y1270D01*
X1Y1269D02*
X8Y1269D01*
X1961Y1269D02*
X1968Y1269D01*
X1Y1268D02*
X8Y1268D01*
X1961Y1268D02*
X1968Y1268D01*
X1Y1267D02*
X8Y1267D01*
X1961Y1267D02*
X1968Y1267D01*
X1Y1266D02*
X8Y1266D01*
X1961Y1266D02*
X1968Y1266D01*
X1Y1265D02*
X8Y1265D01*
X1961Y1265D02*
X1968Y1265D01*
X1Y1264D02*
X8Y1264D01*
X1961Y1264D02*
X1968Y1264D01*
X1Y1263D02*
X8Y1263D01*
X1961Y1263D02*
X1968Y1263D01*
X1Y1262D02*
X8Y1262D01*
X1961Y1262D02*
X1968Y1262D01*
X1Y1261D02*
X8Y1261D01*
X1961Y1261D02*
X1968Y1261D01*
X1Y1260D02*
X8Y1260D01*
X1961Y1260D02*
X1968Y1260D01*
X1Y1259D02*
X8Y1259D01*
X1961Y1259D02*
X1968Y1259D01*
X1Y1258D02*
X8Y1258D01*
X1961Y1258D02*
X1968Y1258D01*
X1Y1257D02*
X8Y1257D01*
X1961Y1257D02*
X1968Y1257D01*
X1Y1256D02*
X8Y1256D01*
X1961Y1256D02*
X1968Y1256D01*
X1Y1255D02*
X8Y1255D01*
X1961Y1255D02*
X1968Y1255D01*
X1Y1254D02*
X8Y1254D01*
X1961Y1254D02*
X1968Y1254D01*
X1Y1253D02*
X8Y1253D01*
X1961Y1253D02*
X1968Y1253D01*
X1Y1252D02*
X8Y1252D01*
X1961Y1252D02*
X1968Y1252D01*
X1Y1251D02*
X8Y1251D01*
X1961Y1251D02*
X1968Y1251D01*
X1Y1250D02*
X8Y1250D01*
X1961Y1250D02*
X1968Y1250D01*
X1Y1249D02*
X8Y1249D01*
X1961Y1249D02*
X1968Y1249D01*
X1Y1248D02*
X8Y1248D01*
X1961Y1248D02*
X1968Y1248D01*
X1Y1247D02*
X8Y1247D01*
X1961Y1247D02*
X1968Y1247D01*
X1Y1246D02*
X8Y1246D01*
X1961Y1246D02*
X1968Y1246D01*
X1Y1245D02*
X8Y1245D01*
X1961Y1245D02*
X1968Y1245D01*
X1Y1244D02*
X8Y1244D01*
X1961Y1244D02*
X1968Y1244D01*
X1Y1243D02*
X8Y1243D01*
X1961Y1243D02*
X1968Y1243D01*
X1Y1242D02*
X8Y1242D01*
X1961Y1242D02*
X1968Y1242D01*
X1Y1241D02*
X8Y1241D01*
X1961Y1241D02*
X1968Y1241D01*
X1Y1240D02*
X8Y1240D01*
X1961Y1240D02*
X1968Y1240D01*
X1Y1239D02*
X8Y1239D01*
X1961Y1239D02*
X1968Y1239D01*
X1Y1238D02*
X8Y1238D01*
X1961Y1238D02*
X1968Y1238D01*
X1Y1237D02*
X8Y1237D01*
X1961Y1237D02*
X1968Y1237D01*
X1Y1236D02*
X8Y1236D01*
X1961Y1236D02*
X1968Y1236D01*
X1Y1235D02*
X8Y1235D01*
X1961Y1235D02*
X1968Y1235D01*
X1Y1234D02*
X8Y1234D01*
X1961Y1234D02*
X1968Y1234D01*
X1Y1233D02*
X8Y1233D01*
X1961Y1233D02*
X1968Y1233D01*
X1Y1232D02*
X8Y1232D01*
X1961Y1232D02*
X1968Y1232D01*
X1Y1231D02*
X8Y1231D01*
X1961Y1231D02*
X1968Y1231D01*
X1Y1230D02*
X8Y1230D01*
X1961Y1230D02*
X1968Y1230D01*
X1Y1229D02*
X8Y1229D01*
X1961Y1229D02*
X1968Y1229D01*
X1Y1228D02*
X8Y1228D01*
X1961Y1228D02*
X1968Y1228D01*
X1Y1227D02*
X8Y1227D01*
X1961Y1227D02*
X1968Y1227D01*
X1Y1226D02*
X8Y1226D01*
X1961Y1226D02*
X1968Y1226D01*
X1Y1225D02*
X8Y1225D01*
X1961Y1225D02*
X1968Y1225D01*
X1Y1224D02*
X8Y1224D01*
X1961Y1224D02*
X1968Y1224D01*
X1Y1223D02*
X8Y1223D01*
X1961Y1223D02*
X1968Y1223D01*
X1Y1222D02*
X8Y1222D01*
X1961Y1222D02*
X1968Y1222D01*
X1Y1221D02*
X8Y1221D01*
X1961Y1221D02*
X1968Y1221D01*
X1Y1220D02*
X8Y1220D01*
X1961Y1220D02*
X1968Y1220D01*
X1Y1219D02*
X8Y1219D01*
X1961Y1219D02*
X1968Y1219D01*
X1Y1218D02*
X8Y1218D01*
X1961Y1218D02*
X1968Y1218D01*
X1Y1217D02*
X8Y1217D01*
X1961Y1217D02*
X1968Y1217D01*
X1Y1216D02*
X8Y1216D01*
X1961Y1216D02*
X1968Y1216D01*
X1Y1215D02*
X8Y1215D01*
X1961Y1215D02*
X1968Y1215D01*
X1Y1214D02*
X8Y1214D01*
X1961Y1214D02*
X1968Y1214D01*
X1Y1213D02*
X8Y1213D01*
X1961Y1213D02*
X1968Y1213D01*
X1Y1212D02*
X8Y1212D01*
X1961Y1212D02*
X1968Y1212D01*
X1Y1211D02*
X8Y1211D01*
X1961Y1211D02*
X1968Y1211D01*
X1Y1210D02*
X8Y1210D01*
X1961Y1210D02*
X1968Y1210D01*
X1Y1209D02*
X8Y1209D01*
X1961Y1209D02*
X1968Y1209D01*
X1Y1208D02*
X8Y1208D01*
X1961Y1208D02*
X1968Y1208D01*
X1Y1207D02*
X8Y1207D01*
X1961Y1207D02*
X1968Y1207D01*
X1Y1206D02*
X8Y1206D01*
X1961Y1206D02*
X1968Y1206D01*
X1Y1205D02*
X8Y1205D01*
X1961Y1205D02*
X1968Y1205D01*
X1Y1204D02*
X8Y1204D01*
X1961Y1204D02*
X1968Y1204D01*
X1Y1203D02*
X8Y1203D01*
X1961Y1203D02*
X1968Y1203D01*
X1Y1202D02*
X8Y1202D01*
X1961Y1202D02*
X1968Y1202D01*
X1Y1201D02*
X8Y1201D01*
X1961Y1201D02*
X1968Y1201D01*
X1Y1200D02*
X8Y1200D01*
X1961Y1200D02*
X1968Y1200D01*
X1Y1199D02*
X8Y1199D01*
X1961Y1199D02*
X1968Y1199D01*
X1Y1198D02*
X8Y1198D01*
X1961Y1198D02*
X1968Y1198D01*
X1Y1197D02*
X8Y1197D01*
X1961Y1197D02*
X1968Y1197D01*
X1Y1196D02*
X8Y1196D01*
X1961Y1196D02*
X1968Y1196D01*
X1Y1195D02*
X8Y1195D01*
X1961Y1195D02*
X1968Y1195D01*
X1Y1194D02*
X8Y1194D01*
X1961Y1194D02*
X1968Y1194D01*
X1Y1193D02*
X8Y1193D01*
X1961Y1193D02*
X1968Y1193D01*
X1Y1192D02*
X8Y1192D01*
X1961Y1192D02*
X1968Y1192D01*
X1Y1191D02*
X8Y1191D01*
X1961Y1191D02*
X1968Y1191D01*
X1Y1190D02*
X8Y1190D01*
X1961Y1190D02*
X1968Y1190D01*
X1Y1189D02*
X8Y1189D01*
X1961Y1189D02*
X1968Y1189D01*
X1Y1188D02*
X8Y1188D01*
X1961Y1188D02*
X1968Y1188D01*
X1Y1187D02*
X8Y1187D01*
X1961Y1187D02*
X1968Y1187D01*
X1Y1186D02*
X8Y1186D01*
X1961Y1186D02*
X1968Y1186D01*
X1Y1185D02*
X8Y1185D01*
X1961Y1185D02*
X1968Y1185D01*
X1Y1184D02*
X8Y1184D01*
X1961Y1184D02*
X1968Y1184D01*
X1Y1183D02*
X8Y1183D01*
X1961Y1183D02*
X1968Y1183D01*
X1Y1182D02*
X8Y1182D01*
X1961Y1182D02*
X1968Y1182D01*
X1Y1181D02*
X8Y1181D01*
X1961Y1181D02*
X1968Y1181D01*
X1Y1180D02*
X8Y1180D01*
X1961Y1180D02*
X1968Y1180D01*
X1Y1179D02*
X8Y1179D01*
X1961Y1179D02*
X1968Y1179D01*
X1Y1178D02*
X8Y1178D01*
X1961Y1178D02*
X1968Y1178D01*
X1Y1177D02*
X8Y1177D01*
X1961Y1177D02*
X1968Y1177D01*
X1Y1176D02*
X8Y1176D01*
X1961Y1176D02*
X1968Y1176D01*
X1Y1175D02*
X8Y1175D01*
X1961Y1175D02*
X1968Y1175D01*
X1Y1174D02*
X8Y1174D01*
X1961Y1174D02*
X1968Y1174D01*
X1Y1173D02*
X8Y1173D01*
X1961Y1173D02*
X1968Y1173D01*
X1Y1172D02*
X8Y1172D01*
X1961Y1172D02*
X1968Y1172D01*
X1Y1171D02*
X8Y1171D01*
X1961Y1171D02*
X1968Y1171D01*
X1Y1170D02*
X8Y1170D01*
X1961Y1170D02*
X1968Y1170D01*
X1Y1169D02*
X8Y1169D01*
X1961Y1169D02*
X1968Y1169D01*
X1Y1168D02*
X8Y1168D01*
X1961Y1168D02*
X1968Y1168D01*
X1Y1167D02*
X8Y1167D01*
X1961Y1167D02*
X1968Y1167D01*
X1Y1166D02*
X8Y1166D01*
X1961Y1166D02*
X1968Y1166D01*
X1Y1165D02*
X8Y1165D01*
X1961Y1165D02*
X1968Y1165D01*
X1Y1164D02*
X8Y1164D01*
X1961Y1164D02*
X1968Y1164D01*
X1Y1163D02*
X8Y1163D01*
X1961Y1163D02*
X1968Y1163D01*
X1Y1162D02*
X8Y1162D01*
X1961Y1162D02*
X1968Y1162D01*
X1Y1161D02*
X8Y1161D01*
X1961Y1161D02*
X1968Y1161D01*
X1Y1160D02*
X8Y1160D01*
X1961Y1160D02*
X1968Y1160D01*
X1Y1159D02*
X8Y1159D01*
X1961Y1159D02*
X1968Y1159D01*
X1Y1158D02*
X8Y1158D01*
X1961Y1158D02*
X1968Y1158D01*
X1Y1157D02*
X8Y1157D01*
X1961Y1157D02*
X1968Y1157D01*
X1Y1156D02*
X8Y1156D01*
X1961Y1156D02*
X1968Y1156D01*
X1Y1155D02*
X8Y1155D01*
X1961Y1155D02*
X1968Y1155D01*
X1Y1154D02*
X8Y1154D01*
X1961Y1154D02*
X1968Y1154D01*
X1Y1153D02*
X8Y1153D01*
X1961Y1153D02*
X1968Y1153D01*
X1Y1152D02*
X8Y1152D01*
X1961Y1152D02*
X1968Y1152D01*
X1Y1151D02*
X8Y1151D01*
X1961Y1151D02*
X1968Y1151D01*
X1Y1150D02*
X8Y1150D01*
X1961Y1150D02*
X1968Y1150D01*
X1Y1149D02*
X8Y1149D01*
X1961Y1149D02*
X1968Y1149D01*
X1Y1148D02*
X8Y1148D01*
X1961Y1148D02*
X1968Y1148D01*
X1Y1147D02*
X8Y1147D01*
X1961Y1147D02*
X1968Y1147D01*
X1Y1146D02*
X8Y1146D01*
X1961Y1146D02*
X1968Y1146D01*
X1Y1145D02*
X8Y1145D01*
X1961Y1145D02*
X1968Y1145D01*
X1Y1144D02*
X8Y1144D01*
X1961Y1144D02*
X1968Y1144D01*
X1Y1143D02*
X8Y1143D01*
X1961Y1143D02*
X1968Y1143D01*
X1Y1142D02*
X8Y1142D01*
X1961Y1142D02*
X1968Y1142D01*
X1Y1141D02*
X8Y1141D01*
X1961Y1141D02*
X1968Y1141D01*
X1Y1140D02*
X8Y1140D01*
X1961Y1140D02*
X1968Y1140D01*
X1Y1139D02*
X8Y1139D01*
X1961Y1139D02*
X1968Y1139D01*
X1Y1138D02*
X8Y1138D01*
X1961Y1138D02*
X1968Y1138D01*
X1Y1137D02*
X8Y1137D01*
X1961Y1137D02*
X1968Y1137D01*
X1Y1136D02*
X8Y1136D01*
X1961Y1136D02*
X1968Y1136D01*
X1Y1135D02*
X8Y1135D01*
X1961Y1135D02*
X1968Y1135D01*
X1Y1134D02*
X8Y1134D01*
X1961Y1134D02*
X1968Y1134D01*
X1Y1133D02*
X8Y1133D01*
X1961Y1133D02*
X1968Y1133D01*
X1Y1132D02*
X8Y1132D01*
X1961Y1132D02*
X1968Y1132D01*
X1Y1131D02*
X8Y1131D01*
X1961Y1131D02*
X1968Y1131D01*
X1Y1130D02*
X8Y1130D01*
X1961Y1130D02*
X1968Y1130D01*
X1Y1129D02*
X8Y1129D01*
X1961Y1129D02*
X1968Y1129D01*
X1Y1128D02*
X8Y1128D01*
X1961Y1128D02*
X1968Y1128D01*
X1Y1127D02*
X8Y1127D01*
X1961Y1127D02*
X1968Y1127D01*
X1Y1126D02*
X8Y1126D01*
X1961Y1126D02*
X1968Y1126D01*
X1Y1125D02*
X8Y1125D01*
X1961Y1125D02*
X1968Y1125D01*
X1Y1124D02*
X8Y1124D01*
X1961Y1124D02*
X1968Y1124D01*
X1Y1123D02*
X8Y1123D01*
X1961Y1123D02*
X1968Y1123D01*
X1Y1122D02*
X8Y1122D01*
X1961Y1122D02*
X1968Y1122D01*
X1Y1121D02*
X8Y1121D01*
X1961Y1121D02*
X1968Y1121D01*
X1Y1120D02*
X8Y1120D01*
X1961Y1120D02*
X1968Y1120D01*
X1Y1119D02*
X8Y1119D01*
X1961Y1119D02*
X1968Y1119D01*
X1Y1118D02*
X8Y1118D01*
X1961Y1118D02*
X1968Y1118D01*
X1Y1117D02*
X8Y1117D01*
X1961Y1117D02*
X1968Y1117D01*
X1Y1116D02*
X8Y1116D01*
X1961Y1116D02*
X1968Y1116D01*
X1Y1115D02*
X8Y1115D01*
X1961Y1115D02*
X1968Y1115D01*
X1Y1114D02*
X8Y1114D01*
X1961Y1114D02*
X1968Y1114D01*
X1Y1113D02*
X8Y1113D01*
X1961Y1113D02*
X1968Y1113D01*
X1Y1112D02*
X8Y1112D01*
X1961Y1112D02*
X1968Y1112D01*
X1Y1111D02*
X8Y1111D01*
X1961Y1111D02*
X1968Y1111D01*
X1Y1110D02*
X8Y1110D01*
X1961Y1110D02*
X1968Y1110D01*
X1Y1109D02*
X8Y1109D01*
X1961Y1109D02*
X1968Y1109D01*
X1Y1108D02*
X8Y1108D01*
X1961Y1108D02*
X1968Y1108D01*
X1Y1107D02*
X8Y1107D01*
X1961Y1107D02*
X1968Y1107D01*
X1Y1106D02*
X8Y1106D01*
X1961Y1106D02*
X1968Y1106D01*
X1Y1105D02*
X8Y1105D01*
X1961Y1105D02*
X1968Y1105D01*
X1Y1104D02*
X8Y1104D01*
X1961Y1104D02*
X1968Y1104D01*
X1Y1103D02*
X8Y1103D01*
X1961Y1103D02*
X1968Y1103D01*
X1Y1102D02*
X8Y1102D01*
X1961Y1102D02*
X1968Y1102D01*
X1Y1101D02*
X8Y1101D01*
X1961Y1101D02*
X1968Y1101D01*
X1Y1100D02*
X8Y1100D01*
X1961Y1100D02*
X1968Y1100D01*
X1Y1099D02*
X8Y1099D01*
X1961Y1099D02*
X1968Y1099D01*
X1Y1098D02*
X8Y1098D01*
X1961Y1098D02*
X1968Y1098D01*
X1Y1097D02*
X8Y1097D01*
X1961Y1097D02*
X1968Y1097D01*
X1Y1096D02*
X8Y1096D01*
X1961Y1096D02*
X1968Y1096D01*
X1Y1095D02*
X8Y1095D01*
X1961Y1095D02*
X1968Y1095D01*
X1Y1094D02*
X8Y1094D01*
X1961Y1094D02*
X1968Y1094D01*
X1Y1093D02*
X8Y1093D01*
X1961Y1093D02*
X1968Y1093D01*
X1Y1092D02*
X8Y1092D01*
X1961Y1092D02*
X1968Y1092D01*
X1Y1091D02*
X8Y1091D01*
X1961Y1091D02*
X1968Y1091D01*
X1Y1090D02*
X8Y1090D01*
X1961Y1090D02*
X1968Y1090D01*
X1Y1089D02*
X8Y1089D01*
X1961Y1089D02*
X1968Y1089D01*
X1Y1088D02*
X8Y1088D01*
X1961Y1088D02*
X1968Y1088D01*
X1Y1087D02*
X8Y1087D01*
X1961Y1087D02*
X1968Y1087D01*
X1Y1086D02*
X8Y1086D01*
X1961Y1086D02*
X1968Y1086D01*
X1Y1085D02*
X8Y1085D01*
X1961Y1085D02*
X1968Y1085D01*
X1Y1084D02*
X8Y1084D01*
X1961Y1084D02*
X1968Y1084D01*
X1Y1083D02*
X8Y1083D01*
X1961Y1083D02*
X1968Y1083D01*
X1Y1082D02*
X8Y1082D01*
X1961Y1082D02*
X1968Y1082D01*
X1Y1081D02*
X8Y1081D01*
X1961Y1081D02*
X1968Y1081D01*
X1Y1080D02*
X8Y1080D01*
X1961Y1080D02*
X1968Y1080D01*
X1Y1079D02*
X8Y1079D01*
X1961Y1079D02*
X1968Y1079D01*
X1Y1078D02*
X8Y1078D01*
X1961Y1078D02*
X1968Y1078D01*
X1Y1077D02*
X8Y1077D01*
X1961Y1077D02*
X1968Y1077D01*
X1Y1076D02*
X8Y1076D01*
X1961Y1076D02*
X1968Y1076D01*
X1Y1075D02*
X8Y1075D01*
X1961Y1075D02*
X1968Y1075D01*
X1Y1074D02*
X8Y1074D01*
X1961Y1074D02*
X1968Y1074D01*
X1Y1073D02*
X8Y1073D01*
X1961Y1073D02*
X1968Y1073D01*
X1Y1072D02*
X8Y1072D01*
X1961Y1072D02*
X1968Y1072D01*
X1Y1071D02*
X8Y1071D01*
X1961Y1071D02*
X1968Y1071D01*
X1Y1070D02*
X8Y1070D01*
X1961Y1070D02*
X1968Y1070D01*
X1Y1069D02*
X8Y1069D01*
X1961Y1069D02*
X1968Y1069D01*
X1Y1068D02*
X8Y1068D01*
X1961Y1068D02*
X1968Y1068D01*
X1Y1067D02*
X8Y1067D01*
X1961Y1067D02*
X1968Y1067D01*
X1Y1066D02*
X8Y1066D01*
X1961Y1066D02*
X1968Y1066D01*
X1Y1065D02*
X8Y1065D01*
X1961Y1065D02*
X1968Y1065D01*
X1Y1064D02*
X8Y1064D01*
X1961Y1064D02*
X1968Y1064D01*
X1Y1063D02*
X8Y1063D01*
X1961Y1063D02*
X1968Y1063D01*
X1Y1062D02*
X8Y1062D01*
X1961Y1062D02*
X1968Y1062D01*
X1Y1061D02*
X8Y1061D01*
X1961Y1061D02*
X1968Y1061D01*
X1Y1060D02*
X8Y1060D01*
X1961Y1060D02*
X1968Y1060D01*
X1Y1059D02*
X8Y1059D01*
X1961Y1059D02*
X1968Y1059D01*
X1Y1058D02*
X8Y1058D01*
X1961Y1058D02*
X1968Y1058D01*
X1Y1057D02*
X8Y1057D01*
X1961Y1057D02*
X1968Y1057D01*
X1Y1056D02*
X8Y1056D01*
X1961Y1056D02*
X1968Y1056D01*
X1Y1055D02*
X8Y1055D01*
X1961Y1055D02*
X1968Y1055D01*
X1Y1054D02*
X8Y1054D01*
X1961Y1054D02*
X1968Y1054D01*
X1Y1053D02*
X8Y1053D01*
X1961Y1053D02*
X1968Y1053D01*
X1Y1052D02*
X8Y1052D01*
X1961Y1052D02*
X1968Y1052D01*
X1Y1051D02*
X8Y1051D01*
X1961Y1051D02*
X1968Y1051D01*
X1Y1050D02*
X8Y1050D01*
X1961Y1050D02*
X1968Y1050D01*
X1Y1049D02*
X8Y1049D01*
X1961Y1049D02*
X1968Y1049D01*
X1Y1048D02*
X8Y1048D01*
X1961Y1048D02*
X1968Y1048D01*
X1Y1047D02*
X8Y1047D01*
X1961Y1047D02*
X1968Y1047D01*
X1Y1046D02*
X8Y1046D01*
X1961Y1046D02*
X1968Y1046D01*
X1Y1045D02*
X8Y1045D01*
X1961Y1045D02*
X1968Y1045D01*
X1Y1044D02*
X8Y1044D01*
X1961Y1044D02*
X1968Y1044D01*
X1Y1043D02*
X8Y1043D01*
X1961Y1043D02*
X1968Y1043D01*
X1Y1042D02*
X8Y1042D01*
X1961Y1042D02*
X1968Y1042D01*
X1Y1041D02*
X8Y1041D01*
X1961Y1041D02*
X1968Y1041D01*
X1Y1040D02*
X8Y1040D01*
X1961Y1040D02*
X1968Y1040D01*
X1Y1039D02*
X8Y1039D01*
X1961Y1039D02*
X1968Y1039D01*
X1Y1038D02*
X8Y1038D01*
X1961Y1038D02*
X1968Y1038D01*
X1Y1037D02*
X8Y1037D01*
X1961Y1037D02*
X1968Y1037D01*
X1Y1036D02*
X8Y1036D01*
X1961Y1036D02*
X1968Y1036D01*
X1Y1035D02*
X8Y1035D01*
X1961Y1035D02*
X1968Y1035D01*
X1Y1034D02*
X8Y1034D01*
X1961Y1034D02*
X1968Y1034D01*
X1Y1033D02*
X8Y1033D01*
X1961Y1033D02*
X1968Y1033D01*
X1Y1032D02*
X8Y1032D01*
X1961Y1032D02*
X1968Y1032D01*
X1Y1031D02*
X8Y1031D01*
X1961Y1031D02*
X1968Y1031D01*
X1Y1030D02*
X8Y1030D01*
X1961Y1030D02*
X1968Y1030D01*
X1Y1029D02*
X8Y1029D01*
X1961Y1029D02*
X1968Y1029D01*
X1Y1028D02*
X8Y1028D01*
X1961Y1028D02*
X1968Y1028D01*
X1Y1027D02*
X8Y1027D01*
X1961Y1027D02*
X1968Y1027D01*
X1Y1026D02*
X8Y1026D01*
X1961Y1026D02*
X1968Y1026D01*
X1Y1025D02*
X8Y1025D01*
X1961Y1025D02*
X1968Y1025D01*
X1Y1024D02*
X8Y1024D01*
X1961Y1024D02*
X1968Y1024D01*
X1Y1023D02*
X8Y1023D01*
X1961Y1023D02*
X1968Y1023D01*
X1Y1022D02*
X8Y1022D01*
X1961Y1022D02*
X1968Y1022D01*
X1Y1021D02*
X8Y1021D01*
X1961Y1021D02*
X1968Y1021D01*
X1Y1020D02*
X8Y1020D01*
X1961Y1020D02*
X1968Y1020D01*
X1Y1019D02*
X8Y1019D01*
X1961Y1019D02*
X1968Y1019D01*
X1Y1018D02*
X8Y1018D01*
X1961Y1018D02*
X1968Y1018D01*
X1Y1017D02*
X8Y1017D01*
X1961Y1017D02*
X1968Y1017D01*
X1Y1016D02*
X8Y1016D01*
X1961Y1016D02*
X1968Y1016D01*
X1Y1015D02*
X8Y1015D01*
X1961Y1015D02*
X1968Y1015D01*
X1Y1014D02*
X8Y1014D01*
X1961Y1014D02*
X1968Y1014D01*
X1Y1013D02*
X8Y1013D01*
X1961Y1013D02*
X1968Y1013D01*
X1Y1012D02*
X8Y1012D01*
X1961Y1012D02*
X1968Y1012D01*
X1Y1011D02*
X8Y1011D01*
X1961Y1011D02*
X1968Y1011D01*
X1Y1010D02*
X8Y1010D01*
X1961Y1010D02*
X1968Y1010D01*
X1Y1009D02*
X8Y1009D01*
X1961Y1009D02*
X1968Y1009D01*
X1Y1008D02*
X8Y1008D01*
X1961Y1008D02*
X1968Y1008D01*
X1Y1007D02*
X8Y1007D01*
X1961Y1007D02*
X1968Y1007D01*
X1Y1006D02*
X8Y1006D01*
X1961Y1006D02*
X1968Y1006D01*
X1Y1005D02*
X8Y1005D01*
X1961Y1005D02*
X1968Y1005D01*
X1Y1004D02*
X8Y1004D01*
X1961Y1004D02*
X1968Y1004D01*
X1Y1003D02*
X8Y1003D01*
X1961Y1003D02*
X1968Y1003D01*
X1Y1002D02*
X8Y1002D01*
X1961Y1002D02*
X1968Y1002D01*
X1Y1001D02*
X8Y1001D01*
X1961Y1001D02*
X1968Y1001D01*
X1Y1000D02*
X8Y1000D01*
X1961Y1000D02*
X1968Y1000D01*
X1Y999D02*
X8Y999D01*
X1961Y999D02*
X1968Y999D01*
X1Y998D02*
X8Y998D01*
X1961Y998D02*
X1968Y998D01*
X1Y997D02*
X8Y997D01*
X1961Y997D02*
X1968Y997D01*
X1Y996D02*
X8Y996D01*
X1961Y996D02*
X1968Y996D01*
X1Y995D02*
X8Y995D01*
X1961Y995D02*
X1968Y995D01*
X1Y994D02*
X8Y994D01*
X1961Y994D02*
X1968Y994D01*
X1Y993D02*
X8Y993D01*
X1961Y993D02*
X1968Y993D01*
X1Y992D02*
X8Y992D01*
X1961Y992D02*
X1968Y992D01*
X1Y991D02*
X8Y991D01*
X1961Y991D02*
X1968Y991D01*
X1Y990D02*
X8Y990D01*
X1961Y990D02*
X1968Y990D01*
X1Y989D02*
X8Y989D01*
X1961Y989D02*
X1968Y989D01*
X1Y988D02*
X8Y988D01*
X1961Y988D02*
X1968Y988D01*
X1Y987D02*
X8Y987D01*
X1961Y987D02*
X1968Y987D01*
X1Y986D02*
X8Y986D01*
X1961Y986D02*
X1968Y986D01*
X1Y985D02*
X8Y985D01*
X1961Y985D02*
X1968Y985D01*
X1Y984D02*
X8Y984D01*
X1961Y984D02*
X1968Y984D01*
X1Y983D02*
X8Y983D01*
X1961Y983D02*
X1968Y983D01*
X1Y982D02*
X8Y982D01*
X1961Y982D02*
X1968Y982D01*
X1Y981D02*
X8Y981D01*
X1961Y981D02*
X1968Y981D01*
X1Y980D02*
X8Y980D01*
X1961Y980D02*
X1968Y980D01*
X1Y979D02*
X8Y979D01*
X1961Y979D02*
X1968Y979D01*
X1Y978D02*
X8Y978D01*
X1961Y978D02*
X1968Y978D01*
X1Y977D02*
X8Y977D01*
X1961Y977D02*
X1968Y977D01*
X1Y976D02*
X8Y976D01*
X1961Y976D02*
X1968Y976D01*
X1Y975D02*
X8Y975D01*
X1961Y975D02*
X1968Y975D01*
X1Y974D02*
X8Y974D01*
X1961Y974D02*
X1968Y974D01*
X1Y973D02*
X8Y973D01*
X1961Y973D02*
X1968Y973D01*
X1Y972D02*
X8Y972D01*
X1961Y972D02*
X1968Y972D01*
X1Y971D02*
X8Y971D01*
X1961Y971D02*
X1968Y971D01*
X1Y970D02*
X8Y970D01*
X1961Y970D02*
X1968Y970D01*
X1Y969D02*
X8Y969D01*
X1961Y969D02*
X1968Y969D01*
X1Y968D02*
X8Y968D01*
X1961Y968D02*
X1968Y968D01*
X1Y967D02*
X8Y967D01*
X1961Y967D02*
X1968Y967D01*
X1Y966D02*
X8Y966D01*
X1961Y966D02*
X1968Y966D01*
X1Y965D02*
X8Y965D01*
X1961Y965D02*
X1968Y965D01*
X1Y964D02*
X8Y964D01*
X1961Y964D02*
X1968Y964D01*
X1Y963D02*
X8Y963D01*
X1961Y963D02*
X1968Y963D01*
X1Y962D02*
X8Y962D01*
X1961Y962D02*
X1968Y962D01*
X1Y961D02*
X8Y961D01*
X1961Y961D02*
X1968Y961D01*
X1Y960D02*
X8Y960D01*
X1961Y960D02*
X1968Y960D01*
X1Y959D02*
X8Y959D01*
X1961Y959D02*
X1968Y959D01*
X1Y958D02*
X8Y958D01*
X1961Y958D02*
X1968Y958D01*
X1Y957D02*
X8Y957D01*
X1961Y957D02*
X1968Y957D01*
X1Y956D02*
X8Y956D01*
X1961Y956D02*
X1968Y956D01*
X1Y955D02*
X8Y955D01*
X1961Y955D02*
X1968Y955D01*
X1Y954D02*
X8Y954D01*
X1961Y954D02*
X1968Y954D01*
X1Y953D02*
X8Y953D01*
X1961Y953D02*
X1968Y953D01*
X1Y952D02*
X8Y952D01*
X1961Y952D02*
X1968Y952D01*
X1Y951D02*
X8Y951D01*
X1961Y951D02*
X1968Y951D01*
X1Y950D02*
X8Y950D01*
X1961Y950D02*
X1968Y950D01*
X1Y949D02*
X8Y949D01*
X1961Y949D02*
X1968Y949D01*
X1Y948D02*
X8Y948D01*
X1961Y948D02*
X1968Y948D01*
X1Y947D02*
X8Y947D01*
X1961Y947D02*
X1968Y947D01*
X1Y946D02*
X8Y946D01*
X1961Y946D02*
X1968Y946D01*
X1Y945D02*
X8Y945D01*
X1961Y945D02*
X1968Y945D01*
X1Y944D02*
X8Y944D01*
X1961Y944D02*
X1968Y944D01*
X1Y943D02*
X8Y943D01*
X1961Y943D02*
X1968Y943D01*
X1Y942D02*
X8Y942D01*
X1961Y942D02*
X1968Y942D01*
X1Y941D02*
X8Y941D01*
X1961Y941D02*
X1968Y941D01*
X1Y940D02*
X8Y940D01*
X1961Y940D02*
X1968Y940D01*
X1Y939D02*
X8Y939D01*
X1961Y939D02*
X1968Y939D01*
X1Y938D02*
X8Y938D01*
X1961Y938D02*
X1968Y938D01*
X1Y937D02*
X8Y937D01*
X1961Y937D02*
X1968Y937D01*
X1Y936D02*
X8Y936D01*
X1961Y936D02*
X1968Y936D01*
X1Y935D02*
X8Y935D01*
X1961Y935D02*
X1968Y935D01*
X1Y934D02*
X8Y934D01*
X1961Y934D02*
X1968Y934D01*
X1Y933D02*
X8Y933D01*
X1961Y933D02*
X1968Y933D01*
X1Y932D02*
X8Y932D01*
X1961Y932D02*
X1968Y932D01*
X1Y931D02*
X8Y931D01*
X1961Y931D02*
X1968Y931D01*
X1Y930D02*
X8Y930D01*
X1961Y930D02*
X1968Y930D01*
X1Y929D02*
X8Y929D01*
X1961Y929D02*
X1968Y929D01*
X1Y928D02*
X8Y928D01*
X1961Y928D02*
X1968Y928D01*
X1Y927D02*
X8Y927D01*
X1961Y927D02*
X1968Y927D01*
X1Y926D02*
X8Y926D01*
X1961Y926D02*
X1968Y926D01*
X1Y925D02*
X8Y925D01*
X1961Y925D02*
X1968Y925D01*
X1Y924D02*
X8Y924D01*
X1961Y924D02*
X1968Y924D01*
X1Y923D02*
X8Y923D01*
X1961Y923D02*
X1968Y923D01*
X1Y922D02*
X8Y922D01*
X1961Y922D02*
X1968Y922D01*
X1Y921D02*
X8Y921D01*
X1961Y921D02*
X1968Y921D01*
X1Y920D02*
X8Y920D01*
X1961Y920D02*
X1968Y920D01*
X1Y919D02*
X8Y919D01*
X1961Y919D02*
X1968Y919D01*
X1Y918D02*
X8Y918D01*
X1961Y918D02*
X1968Y918D01*
X1Y917D02*
X8Y917D01*
X1961Y917D02*
X1968Y917D01*
X1Y916D02*
X8Y916D01*
X1961Y916D02*
X1968Y916D01*
X1Y915D02*
X8Y915D01*
X1961Y915D02*
X1968Y915D01*
X1Y914D02*
X8Y914D01*
X1961Y914D02*
X1968Y914D01*
X1Y913D02*
X8Y913D01*
X1961Y913D02*
X1968Y913D01*
X1Y912D02*
X8Y912D01*
X1961Y912D02*
X1968Y912D01*
X1Y911D02*
X8Y911D01*
X1961Y911D02*
X1968Y911D01*
X1Y910D02*
X8Y910D01*
X1961Y910D02*
X1968Y910D01*
X1Y909D02*
X8Y909D01*
X1961Y909D02*
X1968Y909D01*
X1Y908D02*
X8Y908D01*
X1961Y908D02*
X1968Y908D01*
X1Y907D02*
X8Y907D01*
X1961Y907D02*
X1968Y907D01*
X1Y906D02*
X8Y906D01*
X1961Y906D02*
X1968Y906D01*
X1Y905D02*
X8Y905D01*
X1961Y905D02*
X1968Y905D01*
X1Y904D02*
X8Y904D01*
X1961Y904D02*
X1968Y904D01*
X1Y903D02*
X8Y903D01*
X1961Y903D02*
X1968Y903D01*
X1Y902D02*
X8Y902D01*
X1961Y902D02*
X1968Y902D01*
X1Y901D02*
X8Y901D01*
X1961Y901D02*
X1968Y901D01*
X1Y900D02*
X8Y900D01*
X1961Y900D02*
X1968Y900D01*
X1Y899D02*
X8Y899D01*
X1961Y899D02*
X1968Y899D01*
X1Y898D02*
X8Y898D01*
X1961Y898D02*
X1968Y898D01*
X1Y897D02*
X8Y897D01*
X1961Y897D02*
X1968Y897D01*
X1Y896D02*
X8Y896D01*
X1961Y896D02*
X1968Y896D01*
X1Y895D02*
X8Y895D01*
X1961Y895D02*
X1968Y895D01*
X1Y894D02*
X8Y894D01*
X1961Y894D02*
X1968Y894D01*
X1Y893D02*
X8Y893D01*
X1961Y893D02*
X1968Y893D01*
X1Y892D02*
X8Y892D01*
X1961Y892D02*
X1968Y892D01*
X1Y891D02*
X8Y891D01*
X1961Y891D02*
X1968Y891D01*
X1Y890D02*
X8Y890D01*
X1961Y890D02*
X1968Y890D01*
X1Y889D02*
X8Y889D01*
X1961Y889D02*
X1968Y889D01*
X1Y888D02*
X8Y888D01*
X1961Y888D02*
X1968Y888D01*
X1Y887D02*
X8Y887D01*
X1961Y887D02*
X1968Y887D01*
X1Y886D02*
X8Y886D01*
X1961Y886D02*
X1968Y886D01*
X1Y885D02*
X8Y885D01*
X1961Y885D02*
X1968Y885D01*
X1Y884D02*
X8Y884D01*
X1961Y884D02*
X1968Y884D01*
X1Y883D02*
X8Y883D01*
X1961Y883D02*
X1968Y883D01*
X1Y882D02*
X8Y882D01*
X1961Y882D02*
X1968Y882D01*
X1Y881D02*
X8Y881D01*
X1961Y881D02*
X1968Y881D01*
X1Y880D02*
X8Y880D01*
X1961Y880D02*
X1968Y880D01*
X1Y879D02*
X8Y879D01*
X1961Y879D02*
X1968Y879D01*
X1Y878D02*
X8Y878D01*
X1961Y878D02*
X1968Y878D01*
X1Y877D02*
X8Y877D01*
X1961Y877D02*
X1968Y877D01*
X1Y876D02*
X8Y876D01*
X1961Y876D02*
X1968Y876D01*
X1Y875D02*
X8Y875D01*
X1961Y875D02*
X1968Y875D01*
X1Y874D02*
X8Y874D01*
X1961Y874D02*
X1968Y874D01*
X1Y873D02*
X8Y873D01*
X1961Y873D02*
X1968Y873D01*
X1Y872D02*
X8Y872D01*
X1961Y872D02*
X1968Y872D01*
X1Y871D02*
X8Y871D01*
X1961Y871D02*
X1968Y871D01*
X1Y870D02*
X8Y870D01*
X1961Y870D02*
X1968Y870D01*
X1Y869D02*
X8Y869D01*
X1961Y869D02*
X1968Y869D01*
X1Y868D02*
X8Y868D01*
X1961Y868D02*
X1968Y868D01*
X1Y867D02*
X8Y867D01*
X1961Y867D02*
X1968Y867D01*
X1Y866D02*
X8Y866D01*
X1961Y866D02*
X1968Y866D01*
X1Y865D02*
X8Y865D01*
X1961Y865D02*
X1968Y865D01*
X1Y864D02*
X8Y864D01*
X1961Y864D02*
X1968Y864D01*
X1Y863D02*
X8Y863D01*
X1961Y863D02*
X1968Y863D01*
X1Y862D02*
X8Y862D01*
X1961Y862D02*
X1968Y862D01*
X1Y861D02*
X8Y861D01*
X1961Y861D02*
X1968Y861D01*
X1Y860D02*
X8Y860D01*
X1961Y860D02*
X1968Y860D01*
X1Y859D02*
X8Y859D01*
X1961Y859D02*
X1968Y859D01*
X1Y858D02*
X8Y858D01*
X1961Y858D02*
X1968Y858D01*
X1Y857D02*
X8Y857D01*
X1961Y857D02*
X1968Y857D01*
X1Y856D02*
X8Y856D01*
X1961Y856D02*
X1968Y856D01*
X1Y855D02*
X8Y855D01*
X1961Y855D02*
X1968Y855D01*
X1Y854D02*
X8Y854D01*
X1961Y854D02*
X1968Y854D01*
X1Y853D02*
X8Y853D01*
X1961Y853D02*
X1968Y853D01*
X1Y852D02*
X8Y852D01*
X1961Y852D02*
X1968Y852D01*
X1Y851D02*
X8Y851D01*
X1961Y851D02*
X1968Y851D01*
X1Y850D02*
X8Y850D01*
X1961Y850D02*
X1968Y850D01*
X1Y849D02*
X8Y849D01*
X1961Y849D02*
X1968Y849D01*
X1Y848D02*
X8Y848D01*
X1961Y848D02*
X1968Y848D01*
X1Y847D02*
X8Y847D01*
X1961Y847D02*
X1968Y847D01*
X1Y846D02*
X8Y846D01*
X1961Y846D02*
X1968Y846D01*
X1Y845D02*
X8Y845D01*
X1961Y845D02*
X1968Y845D01*
X1Y844D02*
X8Y844D01*
X1961Y844D02*
X1968Y844D01*
X1Y843D02*
X8Y843D01*
X1961Y843D02*
X1968Y843D01*
X1Y842D02*
X8Y842D01*
X1961Y842D02*
X1968Y842D01*
X1Y841D02*
X8Y841D01*
X1961Y841D02*
X1968Y841D01*
X1Y840D02*
X8Y840D01*
X1961Y840D02*
X1968Y840D01*
X1Y839D02*
X8Y839D01*
X1961Y839D02*
X1968Y839D01*
X1Y838D02*
X8Y838D01*
X1961Y838D02*
X1968Y838D01*
X1Y837D02*
X8Y837D01*
X1961Y837D02*
X1968Y837D01*
X1Y836D02*
X8Y836D01*
X1961Y836D02*
X1968Y836D01*
X1Y835D02*
X8Y835D01*
X1961Y835D02*
X1968Y835D01*
X1Y834D02*
X8Y834D01*
X1961Y834D02*
X1968Y834D01*
X1Y833D02*
X8Y833D01*
X1961Y833D02*
X1968Y833D01*
X1Y832D02*
X8Y832D01*
X1961Y832D02*
X1968Y832D01*
X1Y831D02*
X8Y831D01*
X1961Y831D02*
X1968Y831D01*
X1Y830D02*
X8Y830D01*
X1961Y830D02*
X1968Y830D01*
X1Y829D02*
X8Y829D01*
X1961Y829D02*
X1968Y829D01*
X1Y828D02*
X8Y828D01*
X1961Y828D02*
X1968Y828D01*
X1Y827D02*
X8Y827D01*
X1961Y827D02*
X1968Y827D01*
X1Y826D02*
X8Y826D01*
X1961Y826D02*
X1968Y826D01*
X1Y825D02*
X8Y825D01*
X1961Y825D02*
X1968Y825D01*
X1Y824D02*
X8Y824D01*
X1961Y824D02*
X1968Y824D01*
X1Y823D02*
X8Y823D01*
X1961Y823D02*
X1968Y823D01*
X1Y822D02*
X8Y822D01*
X1961Y822D02*
X1968Y822D01*
X1Y821D02*
X8Y821D01*
X1961Y821D02*
X1968Y821D01*
X1Y820D02*
X8Y820D01*
X1961Y820D02*
X1968Y820D01*
X1Y819D02*
X8Y819D01*
X1961Y819D02*
X1968Y819D01*
X1Y818D02*
X8Y818D01*
X1961Y818D02*
X1968Y818D01*
X1Y817D02*
X8Y817D01*
X1961Y817D02*
X1968Y817D01*
X1Y816D02*
X8Y816D01*
X1961Y816D02*
X1968Y816D01*
X1Y815D02*
X8Y815D01*
X1961Y815D02*
X1968Y815D01*
X1Y814D02*
X8Y814D01*
X1961Y814D02*
X1968Y814D01*
X1Y813D02*
X8Y813D01*
X1961Y813D02*
X1968Y813D01*
X1Y812D02*
X8Y812D01*
X1961Y812D02*
X1968Y812D01*
X1Y811D02*
X8Y811D01*
X1961Y811D02*
X1968Y811D01*
X1Y810D02*
X8Y810D01*
X1961Y810D02*
X1968Y810D01*
X1Y809D02*
X8Y809D01*
X1961Y809D02*
X1968Y809D01*
X1Y808D02*
X8Y808D01*
X1961Y808D02*
X1968Y808D01*
X1Y807D02*
X8Y807D01*
X1961Y807D02*
X1968Y807D01*
X1Y806D02*
X8Y806D01*
X1961Y806D02*
X1968Y806D01*
X1Y805D02*
X8Y805D01*
X1961Y805D02*
X1968Y805D01*
X1Y804D02*
X8Y804D01*
X1961Y804D02*
X1968Y804D01*
X1Y803D02*
X8Y803D01*
X1961Y803D02*
X1968Y803D01*
X1Y802D02*
X8Y802D01*
X1961Y802D02*
X1968Y802D01*
X1Y801D02*
X8Y801D01*
X1961Y801D02*
X1968Y801D01*
X1Y800D02*
X8Y800D01*
X1961Y800D02*
X1968Y800D01*
X1Y799D02*
X8Y799D01*
X1961Y799D02*
X1968Y799D01*
X1Y798D02*
X8Y798D01*
X1961Y798D02*
X1968Y798D01*
X1Y797D02*
X8Y797D01*
X1961Y797D02*
X1968Y797D01*
X1Y796D02*
X8Y796D01*
X1961Y796D02*
X1968Y796D01*
X1Y795D02*
X8Y795D01*
X1961Y795D02*
X1968Y795D01*
X1Y794D02*
X8Y794D01*
X1961Y794D02*
X1968Y794D01*
X1Y793D02*
X8Y793D01*
X1961Y793D02*
X1968Y793D01*
X1Y792D02*
X8Y792D01*
X1961Y792D02*
X1968Y792D01*
X1Y791D02*
X8Y791D01*
X1961Y791D02*
X1968Y791D01*
X1Y790D02*
X8Y790D01*
X1961Y790D02*
X1968Y790D01*
X1Y789D02*
X8Y789D01*
X1961Y789D02*
X1968Y789D01*
X1Y788D02*
X8Y788D01*
X1961Y788D02*
X1968Y788D01*
X1Y787D02*
X8Y787D01*
X1961Y787D02*
X1968Y787D01*
X1Y786D02*
X8Y786D01*
X1961Y786D02*
X1968Y786D01*
X1Y785D02*
X8Y785D01*
X1961Y785D02*
X1968Y785D01*
X1Y784D02*
X8Y784D01*
X1961Y784D02*
X1968Y784D01*
X1Y783D02*
X8Y783D01*
X1961Y783D02*
X1968Y783D01*
X1Y782D02*
X8Y782D01*
X1961Y782D02*
X1968Y782D01*
X1Y781D02*
X8Y781D01*
X1961Y781D02*
X1968Y781D01*
X1Y780D02*
X8Y780D01*
X1961Y780D02*
X1968Y780D01*
X1Y779D02*
X8Y779D01*
X1961Y779D02*
X1968Y779D01*
X1Y778D02*
X8Y778D01*
X1961Y778D02*
X1968Y778D01*
X1Y777D02*
X8Y777D01*
X1961Y777D02*
X1968Y777D01*
X1Y776D02*
X8Y776D01*
X1961Y776D02*
X1968Y776D01*
X1Y775D02*
X8Y775D01*
X1961Y775D02*
X1968Y775D01*
X1Y774D02*
X8Y774D01*
X1961Y774D02*
X1968Y774D01*
X1Y773D02*
X8Y773D01*
X1961Y773D02*
X1968Y773D01*
X1Y772D02*
X8Y772D01*
X1961Y772D02*
X1968Y772D01*
X1Y771D02*
X8Y771D01*
X1961Y771D02*
X1968Y771D01*
X1Y770D02*
X8Y770D01*
X1961Y770D02*
X1968Y770D01*
X1Y769D02*
X8Y769D01*
X1961Y769D02*
X1968Y769D01*
X1Y768D02*
X8Y768D01*
X1961Y768D02*
X1968Y768D01*
X1Y767D02*
X8Y767D01*
X1961Y767D02*
X1968Y767D01*
X1Y766D02*
X8Y766D01*
X1961Y766D02*
X1968Y766D01*
X1Y765D02*
X8Y765D01*
X1961Y765D02*
X1968Y765D01*
X1Y764D02*
X8Y764D01*
X1961Y764D02*
X1968Y764D01*
X1Y763D02*
X8Y763D01*
X1961Y763D02*
X1968Y763D01*
X1Y762D02*
X8Y762D01*
X1961Y762D02*
X1968Y762D01*
X1Y761D02*
X8Y761D01*
X1961Y761D02*
X1968Y761D01*
X1Y760D02*
X8Y760D01*
X1961Y760D02*
X1968Y760D01*
X1Y759D02*
X8Y759D01*
X1961Y759D02*
X1968Y759D01*
X1Y758D02*
X8Y758D01*
X1961Y758D02*
X1968Y758D01*
X1Y757D02*
X8Y757D01*
X1961Y757D02*
X1968Y757D01*
X1Y756D02*
X8Y756D01*
X1961Y756D02*
X1968Y756D01*
X1Y755D02*
X8Y755D01*
X1961Y755D02*
X1968Y755D01*
X1Y754D02*
X8Y754D01*
X1961Y754D02*
X1968Y754D01*
X1Y753D02*
X8Y753D01*
X1961Y753D02*
X1968Y753D01*
X1Y752D02*
X8Y752D01*
X1961Y752D02*
X1968Y752D01*
X1Y751D02*
X8Y751D01*
X1961Y751D02*
X1968Y751D01*
X1Y750D02*
X8Y750D01*
X1961Y750D02*
X1968Y750D01*
X1Y749D02*
X8Y749D01*
X1961Y749D02*
X1968Y749D01*
X1Y748D02*
X8Y748D01*
X1961Y748D02*
X1968Y748D01*
X1Y747D02*
X8Y747D01*
X1961Y747D02*
X1968Y747D01*
X1Y746D02*
X8Y746D01*
X1961Y746D02*
X1968Y746D01*
X1Y745D02*
X8Y745D01*
X1961Y745D02*
X1968Y745D01*
X1Y744D02*
X8Y744D01*
X1961Y744D02*
X1968Y744D01*
X1Y743D02*
X8Y743D01*
X1961Y743D02*
X1968Y743D01*
X1Y742D02*
X8Y742D01*
X1961Y742D02*
X1968Y742D01*
X1Y741D02*
X8Y741D01*
X1961Y741D02*
X1968Y741D01*
X1Y740D02*
X8Y740D01*
X1961Y740D02*
X1968Y740D01*
X1Y739D02*
X8Y739D01*
X1961Y739D02*
X1968Y739D01*
X1Y738D02*
X8Y738D01*
X1961Y738D02*
X1968Y738D01*
X1Y737D02*
X8Y737D01*
X1961Y737D02*
X1968Y737D01*
X1Y736D02*
X8Y736D01*
X1961Y736D02*
X1968Y736D01*
X1Y735D02*
X8Y735D01*
X1961Y735D02*
X1968Y735D01*
X1Y734D02*
X8Y734D01*
X1961Y734D02*
X1968Y734D01*
X1Y733D02*
X8Y733D01*
X1961Y733D02*
X1968Y733D01*
X1Y732D02*
X8Y732D01*
X1961Y732D02*
X1968Y732D01*
X1Y731D02*
X8Y731D01*
X1961Y731D02*
X1968Y731D01*
X1Y730D02*
X8Y730D01*
X1961Y730D02*
X1968Y730D01*
X1Y729D02*
X8Y729D01*
X1961Y729D02*
X1968Y729D01*
X1Y728D02*
X8Y728D01*
X1961Y728D02*
X1968Y728D01*
X1Y727D02*
X8Y727D01*
X1961Y727D02*
X1968Y727D01*
X1Y726D02*
X8Y726D01*
X1961Y726D02*
X1968Y726D01*
X1Y725D02*
X8Y725D01*
X1961Y725D02*
X1968Y725D01*
X1Y724D02*
X8Y724D01*
X1961Y724D02*
X1968Y724D01*
X1Y723D02*
X8Y723D01*
X1961Y723D02*
X1968Y723D01*
X1Y722D02*
X8Y722D01*
X1961Y722D02*
X1968Y722D01*
X1Y721D02*
X8Y721D01*
X1961Y721D02*
X1968Y721D01*
X1Y720D02*
X8Y720D01*
X1961Y720D02*
X1968Y720D01*
X1Y719D02*
X8Y719D01*
X1961Y719D02*
X1968Y719D01*
X1Y718D02*
X8Y718D01*
X1961Y718D02*
X1968Y718D01*
X1Y717D02*
X8Y717D01*
X1961Y717D02*
X1968Y717D01*
X1Y716D02*
X8Y716D01*
X1961Y716D02*
X1968Y716D01*
X1Y715D02*
X8Y715D01*
X1961Y715D02*
X1968Y715D01*
X1Y714D02*
X8Y714D01*
X1961Y714D02*
X1968Y714D01*
X1Y713D02*
X8Y713D01*
X1961Y713D02*
X1968Y713D01*
X1Y712D02*
X8Y712D01*
X1961Y712D02*
X1968Y712D01*
X1Y711D02*
X8Y711D01*
X1961Y711D02*
X1968Y711D01*
X1Y710D02*
X8Y710D01*
X1961Y710D02*
X1968Y710D01*
X1Y709D02*
X8Y709D01*
X1961Y709D02*
X1968Y709D01*
X1Y708D02*
X8Y708D01*
X1961Y708D02*
X1968Y708D01*
X1Y707D02*
X8Y707D01*
X1961Y707D02*
X1968Y707D01*
X1Y706D02*
X8Y706D01*
X1961Y706D02*
X1968Y706D01*
X1Y705D02*
X8Y705D01*
X1961Y705D02*
X1968Y705D01*
X1Y704D02*
X8Y704D01*
X1961Y704D02*
X1968Y704D01*
X1Y703D02*
X8Y703D01*
X1961Y703D02*
X1968Y703D01*
X1Y702D02*
X8Y702D01*
X1961Y702D02*
X1968Y702D01*
X1Y701D02*
X8Y701D01*
X1961Y701D02*
X1968Y701D01*
X1Y700D02*
X8Y700D01*
X1961Y700D02*
X1968Y700D01*
X1Y699D02*
X8Y699D01*
X1961Y699D02*
X1968Y699D01*
X1Y698D02*
X8Y698D01*
X1961Y698D02*
X1968Y698D01*
X1Y697D02*
X8Y697D01*
X1961Y697D02*
X1968Y697D01*
X1Y696D02*
X8Y696D01*
X1961Y696D02*
X1968Y696D01*
X1Y695D02*
X8Y695D01*
X1961Y695D02*
X1968Y695D01*
X1Y694D02*
X8Y694D01*
X1961Y694D02*
X1968Y694D01*
X1Y693D02*
X8Y693D01*
X1961Y693D02*
X1968Y693D01*
X1Y692D02*
X8Y692D01*
X1961Y692D02*
X1968Y692D01*
X1Y691D02*
X8Y691D01*
X1961Y691D02*
X1968Y691D01*
X1Y690D02*
X8Y690D01*
X1961Y690D02*
X1968Y690D01*
X1Y689D02*
X8Y689D01*
X1961Y689D02*
X1968Y689D01*
X1Y688D02*
X8Y688D01*
X1961Y688D02*
X1968Y688D01*
X1Y687D02*
X8Y687D01*
X1961Y687D02*
X1968Y687D01*
X1Y686D02*
X8Y686D01*
X1961Y686D02*
X1968Y686D01*
X1Y685D02*
X8Y685D01*
X1961Y685D02*
X1968Y685D01*
X1Y684D02*
X8Y684D01*
X1961Y684D02*
X1968Y684D01*
X1Y683D02*
X8Y683D01*
X1961Y683D02*
X1968Y683D01*
X1Y682D02*
X8Y682D01*
X1961Y682D02*
X1968Y682D01*
X1Y681D02*
X8Y681D01*
X1961Y681D02*
X1968Y681D01*
X1Y680D02*
X8Y680D01*
X1961Y680D02*
X1968Y680D01*
X1Y679D02*
X8Y679D01*
X1961Y679D02*
X1968Y679D01*
X1Y678D02*
X8Y678D01*
X1961Y678D02*
X1968Y678D01*
X1Y677D02*
X8Y677D01*
X1961Y677D02*
X1968Y677D01*
X1Y676D02*
X8Y676D01*
X1961Y676D02*
X1968Y676D01*
X1Y675D02*
X8Y675D01*
X1961Y675D02*
X1968Y675D01*
X1Y674D02*
X8Y674D01*
X1961Y674D02*
X1968Y674D01*
X1Y673D02*
X8Y673D01*
X1961Y673D02*
X1968Y673D01*
X1Y672D02*
X8Y672D01*
X1961Y672D02*
X1968Y672D01*
X1Y671D02*
X8Y671D01*
X1961Y671D02*
X1968Y671D01*
X1Y670D02*
X8Y670D01*
X1961Y670D02*
X1968Y670D01*
X1Y669D02*
X8Y669D01*
X1961Y669D02*
X1968Y669D01*
X1Y668D02*
X8Y668D01*
X1961Y668D02*
X1968Y668D01*
X1Y667D02*
X8Y667D01*
X1961Y667D02*
X1968Y667D01*
X1Y666D02*
X8Y666D01*
X1961Y666D02*
X1968Y666D01*
X1Y665D02*
X8Y665D01*
X1961Y665D02*
X1968Y665D01*
X1Y664D02*
X8Y664D01*
X1961Y664D02*
X1968Y664D01*
X1Y663D02*
X8Y663D01*
X1961Y663D02*
X1968Y663D01*
X1Y662D02*
X8Y662D01*
X1961Y662D02*
X1968Y662D01*
X1Y661D02*
X8Y661D01*
X1961Y661D02*
X1968Y661D01*
X1Y660D02*
X8Y660D01*
X1961Y660D02*
X1968Y660D01*
X1Y659D02*
X8Y659D01*
X1961Y659D02*
X1968Y659D01*
X1Y658D02*
X8Y658D01*
X1961Y658D02*
X1968Y658D01*
X1Y657D02*
X8Y657D01*
X1961Y657D02*
X1968Y657D01*
X1Y656D02*
X8Y656D01*
X1961Y656D02*
X1968Y656D01*
X1Y655D02*
X8Y655D01*
X1961Y655D02*
X1968Y655D01*
X1Y654D02*
X8Y654D01*
X1961Y654D02*
X1968Y654D01*
X1Y653D02*
X8Y653D01*
X1961Y653D02*
X1968Y653D01*
X1Y652D02*
X8Y652D01*
X1961Y652D02*
X1968Y652D01*
X1Y651D02*
X8Y651D01*
X1961Y651D02*
X1968Y651D01*
X1Y650D02*
X8Y650D01*
X1961Y650D02*
X1968Y650D01*
X1Y649D02*
X8Y649D01*
X1961Y649D02*
X1968Y649D01*
X1Y648D02*
X8Y648D01*
X1961Y648D02*
X1968Y648D01*
X1Y647D02*
X8Y647D01*
X1961Y647D02*
X1968Y647D01*
X1Y646D02*
X8Y646D01*
X1961Y646D02*
X1968Y646D01*
X1Y645D02*
X8Y645D01*
X1961Y645D02*
X1968Y645D01*
X1Y644D02*
X8Y644D01*
X1961Y644D02*
X1968Y644D01*
X1Y643D02*
X8Y643D01*
X1961Y643D02*
X1968Y643D01*
X1Y642D02*
X8Y642D01*
X1961Y642D02*
X1968Y642D01*
X1Y641D02*
X8Y641D01*
X1961Y641D02*
X1968Y641D01*
X1Y640D02*
X8Y640D01*
X1961Y640D02*
X1968Y640D01*
X1Y639D02*
X8Y639D01*
X1961Y639D02*
X1968Y639D01*
X1Y638D02*
X8Y638D01*
X1961Y638D02*
X1968Y638D01*
X1Y637D02*
X8Y637D01*
X1961Y637D02*
X1968Y637D01*
X1Y636D02*
X8Y636D01*
X1961Y636D02*
X1968Y636D01*
X1Y635D02*
X8Y635D01*
X1961Y635D02*
X1968Y635D01*
X1Y634D02*
X8Y634D01*
X1961Y634D02*
X1968Y634D01*
X1Y633D02*
X8Y633D01*
X1961Y633D02*
X1968Y633D01*
X1Y632D02*
X8Y632D01*
X1961Y632D02*
X1968Y632D01*
X1Y631D02*
X8Y631D01*
X1961Y631D02*
X1968Y631D01*
X1Y630D02*
X8Y630D01*
X1961Y630D02*
X1968Y630D01*
X1Y629D02*
X8Y629D01*
X1961Y629D02*
X1968Y629D01*
X1Y628D02*
X8Y628D01*
X1961Y628D02*
X1968Y628D01*
X1Y627D02*
X8Y627D01*
X1961Y627D02*
X1968Y627D01*
X1Y626D02*
X8Y626D01*
X1961Y626D02*
X1968Y626D01*
X1Y625D02*
X8Y625D01*
X1961Y625D02*
X1968Y625D01*
X1Y624D02*
X8Y624D01*
X1961Y624D02*
X1968Y624D01*
X1Y623D02*
X8Y623D01*
X1961Y623D02*
X1968Y623D01*
X1Y622D02*
X8Y622D01*
X1961Y622D02*
X1968Y622D01*
X1Y621D02*
X8Y621D01*
X1961Y621D02*
X1968Y621D01*
X1Y620D02*
X8Y620D01*
X1961Y620D02*
X1968Y620D01*
X1Y619D02*
X8Y619D01*
X1961Y619D02*
X1968Y619D01*
X1Y618D02*
X8Y618D01*
X1961Y618D02*
X1968Y618D01*
X1Y617D02*
X8Y617D01*
X1961Y617D02*
X1968Y617D01*
X1Y616D02*
X8Y616D01*
X1961Y616D02*
X1968Y616D01*
X1Y615D02*
X8Y615D01*
X1961Y615D02*
X1968Y615D01*
X1Y614D02*
X8Y614D01*
X1961Y614D02*
X1968Y614D01*
X1Y613D02*
X8Y613D01*
X1961Y613D02*
X1968Y613D01*
X1Y612D02*
X8Y612D01*
X1961Y612D02*
X1968Y612D01*
X1Y611D02*
X8Y611D01*
X1961Y611D02*
X1968Y611D01*
X1Y610D02*
X8Y610D01*
X1961Y610D02*
X1968Y610D01*
X1Y609D02*
X8Y609D01*
X1961Y609D02*
X1968Y609D01*
X1Y608D02*
X8Y608D01*
X1961Y608D02*
X1968Y608D01*
X1Y607D02*
X8Y607D01*
X1961Y607D02*
X1968Y607D01*
X1Y606D02*
X8Y606D01*
X1961Y606D02*
X1968Y606D01*
X1Y605D02*
X8Y605D01*
X1961Y605D02*
X1968Y605D01*
X1Y604D02*
X8Y604D01*
X1961Y604D02*
X1968Y604D01*
X1Y603D02*
X8Y603D01*
X1961Y603D02*
X1968Y603D01*
X1Y602D02*
X8Y602D01*
X1961Y602D02*
X1968Y602D01*
X1Y601D02*
X8Y601D01*
X1961Y601D02*
X1968Y601D01*
X1Y600D02*
X8Y600D01*
X1961Y600D02*
X1968Y600D01*
X1Y599D02*
X8Y599D01*
X1961Y599D02*
X1968Y599D01*
X1Y598D02*
X8Y598D01*
X1961Y598D02*
X1968Y598D01*
X1Y597D02*
X8Y597D01*
X1961Y597D02*
X1968Y597D01*
X1Y596D02*
X8Y596D01*
X1961Y596D02*
X1968Y596D01*
X1Y595D02*
X8Y595D01*
X1961Y595D02*
X1968Y595D01*
X1Y594D02*
X8Y594D01*
X1961Y594D02*
X1968Y594D01*
X1Y593D02*
X8Y593D01*
X1961Y593D02*
X1968Y593D01*
X1Y592D02*
X8Y592D01*
X1961Y592D02*
X1968Y592D01*
X1Y591D02*
X8Y591D01*
X1961Y591D02*
X1968Y591D01*
X1Y590D02*
X8Y590D01*
X1961Y590D02*
X1968Y590D01*
X1Y589D02*
X8Y589D01*
X1961Y589D02*
X1968Y589D01*
X1Y588D02*
X8Y588D01*
X1961Y588D02*
X1968Y588D01*
X1Y587D02*
X8Y587D01*
X1961Y587D02*
X1968Y587D01*
X1Y586D02*
X8Y586D01*
X1961Y586D02*
X1968Y586D01*
X1Y585D02*
X8Y585D01*
X1961Y585D02*
X1968Y585D01*
X1Y584D02*
X8Y584D01*
X1961Y584D02*
X1968Y584D01*
X1Y583D02*
X8Y583D01*
X1961Y583D02*
X1968Y583D01*
X1Y582D02*
X8Y582D01*
X1961Y582D02*
X1968Y582D01*
X1Y581D02*
X8Y581D01*
X1961Y581D02*
X1968Y581D01*
X1Y580D02*
X8Y580D01*
X1961Y580D02*
X1968Y580D01*
X1Y579D02*
X8Y579D01*
X1961Y579D02*
X1968Y579D01*
X1Y578D02*
X8Y578D01*
X1961Y578D02*
X1968Y578D01*
X1Y577D02*
X8Y577D01*
X1961Y577D02*
X1968Y577D01*
X1Y576D02*
X8Y576D01*
X1961Y576D02*
X1968Y576D01*
X1Y575D02*
X8Y575D01*
X1961Y575D02*
X1968Y575D01*
X1Y574D02*
X8Y574D01*
X1961Y574D02*
X1968Y574D01*
X1Y573D02*
X8Y573D01*
X1961Y573D02*
X1968Y573D01*
X1Y572D02*
X8Y572D01*
X1961Y572D02*
X1968Y572D01*
X1Y571D02*
X8Y571D01*
X1961Y571D02*
X1968Y571D01*
X1Y570D02*
X8Y570D01*
X1961Y570D02*
X1968Y570D01*
X1Y569D02*
X8Y569D01*
X1961Y569D02*
X1968Y569D01*
X1Y568D02*
X8Y568D01*
X1961Y568D02*
X1968Y568D01*
X1Y567D02*
X8Y567D01*
X1961Y567D02*
X1968Y567D01*
X1Y566D02*
X8Y566D01*
X1961Y566D02*
X1968Y566D01*
X1Y565D02*
X8Y565D01*
X1961Y565D02*
X1968Y565D01*
X1Y564D02*
X8Y564D01*
X1961Y564D02*
X1968Y564D01*
X1Y563D02*
X8Y563D01*
X1961Y563D02*
X1968Y563D01*
X1Y562D02*
X8Y562D01*
X1961Y562D02*
X1968Y562D01*
X1Y561D02*
X8Y561D01*
X1961Y561D02*
X1968Y561D01*
X1Y560D02*
X8Y560D01*
X1961Y560D02*
X1968Y560D01*
X1Y559D02*
X8Y559D01*
X1961Y559D02*
X1968Y559D01*
X1Y558D02*
X8Y558D01*
X1961Y558D02*
X1968Y558D01*
X1Y557D02*
X8Y557D01*
X1961Y557D02*
X1968Y557D01*
X1Y556D02*
X8Y556D01*
X1961Y556D02*
X1968Y556D01*
X1Y555D02*
X8Y555D01*
X1961Y555D02*
X1968Y555D01*
X1Y554D02*
X8Y554D01*
X1961Y554D02*
X1968Y554D01*
X1Y553D02*
X8Y553D01*
X1961Y553D02*
X1968Y553D01*
X1Y552D02*
X8Y552D01*
X1961Y552D02*
X1968Y552D01*
X1Y551D02*
X8Y551D01*
X1961Y551D02*
X1968Y551D01*
X1Y550D02*
X8Y550D01*
X1961Y550D02*
X1968Y550D01*
X1Y549D02*
X8Y549D01*
X1961Y549D02*
X1968Y549D01*
X1Y548D02*
X8Y548D01*
X1961Y548D02*
X1968Y548D01*
X1Y547D02*
X8Y547D01*
X1961Y547D02*
X1968Y547D01*
X1Y546D02*
X8Y546D01*
X1961Y546D02*
X1968Y546D01*
X1Y545D02*
X8Y545D01*
X1961Y545D02*
X1968Y545D01*
X1Y544D02*
X8Y544D01*
X1961Y544D02*
X1968Y544D01*
X1Y543D02*
X8Y543D01*
X1961Y543D02*
X1968Y543D01*
X1Y542D02*
X8Y542D01*
X1961Y542D02*
X1968Y542D01*
X1Y541D02*
X8Y541D01*
X1961Y541D02*
X1968Y541D01*
X1Y540D02*
X8Y540D01*
X1961Y540D02*
X1968Y540D01*
X1Y539D02*
X8Y539D01*
X1961Y539D02*
X1968Y539D01*
X1Y538D02*
X8Y538D01*
X1961Y538D02*
X1968Y538D01*
X1Y537D02*
X8Y537D01*
X1961Y537D02*
X1968Y537D01*
X1Y536D02*
X8Y536D01*
X1961Y536D02*
X1968Y536D01*
X1Y535D02*
X8Y535D01*
X1961Y535D02*
X1968Y535D01*
X1Y534D02*
X8Y534D01*
X1961Y534D02*
X1968Y534D01*
X1Y533D02*
X8Y533D01*
X1961Y533D02*
X1968Y533D01*
X1Y532D02*
X8Y532D01*
X1961Y532D02*
X1968Y532D01*
X1Y531D02*
X8Y531D01*
X1961Y531D02*
X1968Y531D01*
X1Y530D02*
X8Y530D01*
X1961Y530D02*
X1968Y530D01*
X1Y529D02*
X8Y529D01*
X1961Y529D02*
X1968Y529D01*
X1Y528D02*
X8Y528D01*
X1961Y528D02*
X1968Y528D01*
X1Y527D02*
X8Y527D01*
X1961Y527D02*
X1968Y527D01*
X1Y526D02*
X8Y526D01*
X1961Y526D02*
X1968Y526D01*
X1Y525D02*
X8Y525D01*
X1961Y525D02*
X1968Y525D01*
X1Y524D02*
X8Y524D01*
X1961Y524D02*
X1968Y524D01*
X1Y523D02*
X8Y523D01*
X1961Y523D02*
X1968Y523D01*
X1Y522D02*
X8Y522D01*
X1961Y522D02*
X1968Y522D01*
X1Y521D02*
X8Y521D01*
X1961Y521D02*
X1968Y521D01*
X1Y520D02*
X8Y520D01*
X1961Y520D02*
X1968Y520D01*
X1Y519D02*
X8Y519D01*
X1961Y519D02*
X1968Y519D01*
X1Y518D02*
X8Y518D01*
X1961Y518D02*
X1968Y518D01*
X1Y517D02*
X8Y517D01*
X1961Y517D02*
X1968Y517D01*
X1Y516D02*
X8Y516D01*
X1961Y516D02*
X1968Y516D01*
X1Y515D02*
X8Y515D01*
X1961Y515D02*
X1968Y515D01*
X1Y514D02*
X8Y514D01*
X1961Y514D02*
X1968Y514D01*
X1Y513D02*
X8Y513D01*
X1961Y513D02*
X1968Y513D01*
X1Y512D02*
X8Y512D01*
X1961Y512D02*
X1968Y512D01*
X1Y511D02*
X8Y511D01*
X1961Y511D02*
X1968Y511D01*
X1Y510D02*
X8Y510D01*
X1961Y510D02*
X1968Y510D01*
X1Y509D02*
X8Y509D01*
X1961Y509D02*
X1968Y509D01*
X1Y508D02*
X8Y508D01*
X1961Y508D02*
X1968Y508D01*
X1Y507D02*
X8Y507D01*
X1961Y507D02*
X1968Y507D01*
X1Y506D02*
X8Y506D01*
X1961Y506D02*
X1968Y506D01*
X1Y505D02*
X8Y505D01*
X1961Y505D02*
X1968Y505D01*
X1Y504D02*
X8Y504D01*
X1961Y504D02*
X1968Y504D01*
X1Y503D02*
X8Y503D01*
X1961Y503D02*
X1968Y503D01*
X1Y502D02*
X8Y502D01*
X1961Y502D02*
X1968Y502D01*
X1Y501D02*
X8Y501D01*
X1961Y501D02*
X1968Y501D01*
X1Y500D02*
X8Y500D01*
X1961Y500D02*
X1968Y500D01*
X1Y499D02*
X8Y499D01*
X1961Y499D02*
X1968Y499D01*
X1Y498D02*
X8Y498D01*
X1961Y498D02*
X1968Y498D01*
X1Y497D02*
X8Y497D01*
X1961Y497D02*
X1968Y497D01*
X1Y496D02*
X8Y496D01*
X1961Y496D02*
X1968Y496D01*
X1Y495D02*
X8Y495D01*
X1961Y495D02*
X1968Y495D01*
X1Y494D02*
X8Y494D01*
X1961Y494D02*
X1968Y494D01*
X1Y493D02*
X8Y493D01*
X1961Y493D02*
X1968Y493D01*
X1Y492D02*
X8Y492D01*
X1961Y492D02*
X1968Y492D01*
X1Y491D02*
X8Y491D01*
X1961Y491D02*
X1968Y491D01*
X1Y490D02*
X8Y490D01*
X1961Y490D02*
X1968Y490D01*
X1Y489D02*
X8Y489D01*
X1961Y489D02*
X1968Y489D01*
X1Y488D02*
X8Y488D01*
X1961Y488D02*
X1968Y488D01*
X1Y487D02*
X8Y487D01*
X1961Y487D02*
X1968Y487D01*
X1Y486D02*
X8Y486D01*
X1961Y486D02*
X1968Y486D01*
X1Y485D02*
X8Y485D01*
X1961Y485D02*
X1968Y485D01*
X1Y484D02*
X8Y484D01*
X1961Y484D02*
X1968Y484D01*
X1Y483D02*
X8Y483D01*
X1961Y483D02*
X1968Y483D01*
X1Y482D02*
X8Y482D01*
X1961Y482D02*
X1968Y482D01*
X1Y481D02*
X8Y481D01*
X1961Y481D02*
X1968Y481D01*
X1Y480D02*
X8Y480D01*
X1961Y480D02*
X1968Y480D01*
X1Y479D02*
X8Y479D01*
X1961Y479D02*
X1968Y479D01*
X1Y478D02*
X8Y478D01*
X1961Y478D02*
X1968Y478D01*
X1Y477D02*
X8Y477D01*
X1961Y477D02*
X1968Y477D01*
X1Y476D02*
X8Y476D01*
X1961Y476D02*
X1968Y476D01*
X1Y475D02*
X8Y475D01*
X1961Y475D02*
X1968Y475D01*
X1Y474D02*
X8Y474D01*
X1961Y474D02*
X1968Y474D01*
X1Y473D02*
X8Y473D01*
X1961Y473D02*
X1968Y473D01*
X1Y472D02*
X8Y472D01*
X1961Y472D02*
X1968Y472D01*
X1Y471D02*
X8Y471D01*
X1961Y471D02*
X1968Y471D01*
X1Y470D02*
X8Y470D01*
X1961Y470D02*
X1968Y470D01*
X1Y469D02*
X8Y469D01*
X1961Y469D02*
X1968Y469D01*
X1Y468D02*
X8Y468D01*
X1961Y468D02*
X1968Y468D01*
X1Y467D02*
X8Y467D01*
X1961Y467D02*
X1968Y467D01*
X1Y466D02*
X8Y466D01*
X1961Y466D02*
X1968Y466D01*
X1Y465D02*
X8Y465D01*
X1961Y465D02*
X1968Y465D01*
X1Y464D02*
X8Y464D01*
X1961Y464D02*
X1968Y464D01*
X1Y463D02*
X8Y463D01*
X1961Y463D02*
X1968Y463D01*
X1Y462D02*
X8Y462D01*
X1961Y462D02*
X1968Y462D01*
X1Y461D02*
X8Y461D01*
X1961Y461D02*
X1968Y461D01*
X1Y460D02*
X8Y460D01*
X1961Y460D02*
X1968Y460D01*
X1Y459D02*
X8Y459D01*
X1961Y459D02*
X1968Y459D01*
X1Y458D02*
X8Y458D01*
X1961Y458D02*
X1968Y458D01*
X1Y457D02*
X8Y457D01*
X1961Y457D02*
X1968Y457D01*
X1Y456D02*
X8Y456D01*
X1961Y456D02*
X1968Y456D01*
X1Y455D02*
X8Y455D01*
X1961Y455D02*
X1968Y455D01*
X1Y454D02*
X8Y454D01*
X1961Y454D02*
X1968Y454D01*
X1Y453D02*
X8Y453D01*
X1961Y453D02*
X1968Y453D01*
X1Y452D02*
X8Y452D01*
X1961Y452D02*
X1968Y452D01*
X1Y451D02*
X8Y451D01*
X1961Y451D02*
X1968Y451D01*
X1Y450D02*
X8Y450D01*
X1961Y450D02*
X1968Y450D01*
X1Y449D02*
X8Y449D01*
X1961Y449D02*
X1968Y449D01*
X1Y448D02*
X8Y448D01*
X1961Y448D02*
X1968Y448D01*
X1Y447D02*
X8Y447D01*
X1961Y447D02*
X1968Y447D01*
X1Y446D02*
X8Y446D01*
X1961Y446D02*
X1968Y446D01*
X1Y445D02*
X8Y445D01*
X1961Y445D02*
X1968Y445D01*
X1Y444D02*
X8Y444D01*
X1961Y444D02*
X1968Y444D01*
X1Y443D02*
X8Y443D01*
X1961Y443D02*
X1968Y443D01*
X1Y442D02*
X8Y442D01*
X1961Y442D02*
X1968Y442D01*
X1Y441D02*
X8Y441D01*
X1961Y441D02*
X1968Y441D01*
X1Y440D02*
X8Y440D01*
X1961Y440D02*
X1968Y440D01*
X1Y439D02*
X8Y439D01*
X1961Y439D02*
X1968Y439D01*
X1Y438D02*
X8Y438D01*
X1961Y438D02*
X1968Y438D01*
X1Y437D02*
X8Y437D01*
X1961Y437D02*
X1968Y437D01*
X1Y436D02*
X8Y436D01*
X1961Y436D02*
X1968Y436D01*
X1Y435D02*
X8Y435D01*
X1961Y435D02*
X1968Y435D01*
X1Y434D02*
X8Y434D01*
X1961Y434D02*
X1968Y434D01*
X1Y433D02*
X8Y433D01*
X1961Y433D02*
X1968Y433D01*
X1Y432D02*
X8Y432D01*
X1961Y432D02*
X1968Y432D01*
X1Y431D02*
X8Y431D01*
X1961Y431D02*
X1968Y431D01*
X1Y430D02*
X8Y430D01*
X1961Y430D02*
X1968Y430D01*
X1Y429D02*
X8Y429D01*
X1961Y429D02*
X1968Y429D01*
X1Y428D02*
X8Y428D01*
X1961Y428D02*
X1968Y428D01*
X1Y427D02*
X8Y427D01*
X1961Y427D02*
X1968Y427D01*
X1Y426D02*
X8Y426D01*
X1961Y426D02*
X1968Y426D01*
X1Y425D02*
X8Y425D01*
X1961Y425D02*
X1968Y425D01*
X1Y424D02*
X8Y424D01*
X1961Y424D02*
X1968Y424D01*
X1Y423D02*
X8Y423D01*
X1961Y423D02*
X1968Y423D01*
X1Y422D02*
X8Y422D01*
X1961Y422D02*
X1968Y422D01*
X1Y421D02*
X8Y421D01*
X1961Y421D02*
X1968Y421D01*
X1Y420D02*
X8Y420D01*
X1961Y420D02*
X1968Y420D01*
X1Y419D02*
X8Y419D01*
X1961Y419D02*
X1968Y419D01*
X1Y418D02*
X8Y418D01*
X1961Y418D02*
X1968Y418D01*
X1Y417D02*
X8Y417D01*
X1961Y417D02*
X1968Y417D01*
X1Y416D02*
X8Y416D01*
X1961Y416D02*
X1968Y416D01*
X1Y415D02*
X8Y415D01*
X1961Y415D02*
X1968Y415D01*
X1Y414D02*
X8Y414D01*
X1961Y414D02*
X1968Y414D01*
X1Y413D02*
X8Y413D01*
X1961Y413D02*
X1968Y413D01*
X1Y412D02*
X8Y412D01*
X1961Y412D02*
X1968Y412D01*
X1Y411D02*
X8Y411D01*
X1961Y411D02*
X1968Y411D01*
X1Y410D02*
X8Y410D01*
X1961Y410D02*
X1968Y410D01*
X1Y409D02*
X8Y409D01*
X1961Y409D02*
X1968Y409D01*
X1Y408D02*
X8Y408D01*
X1961Y408D02*
X1968Y408D01*
X1Y407D02*
X8Y407D01*
X1961Y407D02*
X1968Y407D01*
X1Y406D02*
X8Y406D01*
X1961Y406D02*
X1968Y406D01*
X1Y405D02*
X8Y405D01*
X1961Y405D02*
X1968Y405D01*
X1Y404D02*
X8Y404D01*
X1961Y404D02*
X1968Y404D01*
X1Y403D02*
X8Y403D01*
X1961Y403D02*
X1968Y403D01*
X1Y402D02*
X8Y402D01*
X1961Y402D02*
X1968Y402D01*
X1Y401D02*
X8Y401D01*
X1961Y401D02*
X1968Y401D01*
X1Y400D02*
X8Y400D01*
X1961Y400D02*
X1968Y400D01*
X1Y399D02*
X8Y399D01*
X1961Y399D02*
X1968Y399D01*
X1Y398D02*
X8Y398D01*
X1961Y398D02*
X1968Y398D01*
X1Y397D02*
X8Y397D01*
X1961Y397D02*
X1968Y397D01*
X1Y396D02*
X8Y396D01*
X1961Y396D02*
X1968Y396D01*
X1Y395D02*
X8Y395D01*
X1961Y395D02*
X1968Y395D01*
X1Y394D02*
X8Y394D01*
X1961Y394D02*
X1968Y394D01*
X1Y393D02*
X8Y393D01*
X1961Y393D02*
X1968Y393D01*
X1Y392D02*
X8Y392D01*
X1961Y392D02*
X1968Y392D01*
X1Y391D02*
X8Y391D01*
X1961Y391D02*
X1968Y391D01*
X1Y390D02*
X8Y390D01*
X1961Y390D02*
X1968Y390D01*
X1Y389D02*
X8Y389D01*
X1961Y389D02*
X1968Y389D01*
X1Y388D02*
X8Y388D01*
X1961Y388D02*
X1968Y388D01*
X1Y387D02*
X8Y387D01*
X1961Y387D02*
X1968Y387D01*
X1Y386D02*
X8Y386D01*
X1961Y386D02*
X1968Y386D01*
X1Y385D02*
X8Y385D01*
X1961Y385D02*
X1968Y385D01*
X1Y384D02*
X8Y384D01*
X1961Y384D02*
X1968Y384D01*
X1Y383D02*
X8Y383D01*
X1961Y383D02*
X1968Y383D01*
X1Y382D02*
X8Y382D01*
X1961Y382D02*
X1968Y382D01*
X1Y381D02*
X8Y381D01*
X1961Y381D02*
X1968Y381D01*
X1Y380D02*
X8Y380D01*
X1961Y380D02*
X1968Y380D01*
X1Y379D02*
X8Y379D01*
X1961Y379D02*
X1968Y379D01*
X1Y378D02*
X8Y378D01*
X1961Y378D02*
X1968Y378D01*
X1Y377D02*
X8Y377D01*
X1961Y377D02*
X1968Y377D01*
X1Y376D02*
X8Y376D01*
X1961Y376D02*
X1968Y376D01*
X1Y375D02*
X8Y375D01*
X1961Y375D02*
X1968Y375D01*
X1Y374D02*
X8Y374D01*
X1961Y374D02*
X1968Y374D01*
X1Y373D02*
X9Y373D01*
X1960Y373D02*
X1968Y373D01*
X2Y372D02*
X9Y372D01*
X1960Y372D02*
X1967Y372D01*
X2Y371D02*
X9Y371D01*
X1960Y371D02*
X1967Y371D01*
X2Y370D02*
X9Y370D01*
X1960Y370D02*
X1967Y370D01*
X2Y369D02*
X9Y369D01*
X1960Y369D02*
X1967Y369D01*
X2Y368D02*
X9Y368D01*
X1960Y368D02*
X1967Y368D01*
X2Y367D02*
X9Y367D01*
X1960Y367D02*
X1967Y367D01*
X2Y366D02*
X9Y366D01*
X1960Y366D02*
X1967Y366D01*
X2Y365D02*
X9Y365D01*
X1960Y365D02*
X1967Y365D01*
X2Y364D02*
X9Y364D01*
X1960Y364D02*
X1967Y364D01*
X2Y363D02*
X9Y363D01*
X1960Y363D02*
X1967Y363D01*
X2Y362D02*
X9Y362D01*
X1960Y362D02*
X1967Y362D01*
X2Y361D02*
X9Y361D01*
X1960Y361D02*
X1967Y361D01*
X2Y360D02*
X9Y360D01*
X1960Y360D02*
X1967Y360D01*
X2Y359D02*
X9Y359D01*
X1959Y359D02*
X1967Y359D01*
X3Y358D02*
X10Y358D01*
X1959Y358D02*
X1966Y358D01*
X3Y357D02*
X10Y357D01*
X1959Y357D02*
X1966Y357D01*
X3Y356D02*
X10Y356D01*
X1959Y356D02*
X1966Y356D01*
X3Y355D02*
X10Y355D01*
X1959Y355D02*
X1966Y355D01*
X3Y354D02*
X10Y354D01*
X1959Y354D02*
X1966Y354D01*
X3Y353D02*
X10Y353D01*
X1959Y353D02*
X1966Y353D01*
X3Y352D02*
X10Y352D01*
X1959Y352D02*
X1966Y352D01*
X3Y351D02*
X10Y351D01*
X1959Y351D02*
X1966Y351D01*
X3Y350D02*
X10Y350D01*
X1959Y350D02*
X1966Y350D01*
X3Y349D02*
X11Y349D01*
X1958Y349D02*
X1966Y349D01*
X4Y348D02*
X11Y348D01*
X1958Y348D02*
X1965Y348D01*
X4Y347D02*
X11Y347D01*
X1958Y347D02*
X1965Y347D01*
X4Y346D02*
X11Y346D01*
X1958Y346D02*
X1965Y346D01*
X4Y345D02*
X11Y345D01*
X1958Y345D02*
X1965Y345D01*
X4Y344D02*
X11Y344D01*
X1958Y344D02*
X1965Y344D01*
X4Y343D02*
X11Y343D01*
X1958Y343D02*
X1965Y343D01*
X4Y342D02*
X11Y342D01*
X1958Y342D02*
X1965Y342D01*
X4Y341D02*
X11Y341D01*
X1958Y341D02*
X1965Y341D01*
X5Y340D02*
X12Y340D01*
X1957Y340D02*
X1964Y340D01*
X5Y339D02*
X12Y339D01*
X1957Y339D02*
X1964Y339D01*
X5Y338D02*
X12Y338D01*
X1957Y338D02*
X1964Y338D01*
X5Y337D02*
X12Y337D01*
X1957Y337D02*
X1964Y337D01*
X5Y336D02*
X12Y336D01*
X1957Y336D02*
X1964Y336D01*
X5Y335D02*
X12Y335D01*
X1957Y335D02*
X1964Y335D01*
X5Y334D02*
X12Y334D01*
X1957Y334D02*
X1964Y334D01*
X6Y333D02*
X13Y333D01*
X1956Y333D02*
X1963Y333D01*
X6Y332D02*
X13Y332D01*
X1956Y332D02*
X1963Y332D01*
X6Y331D02*
X13Y331D01*
X1956Y331D02*
X1963Y331D01*
X6Y330D02*
X13Y330D01*
X1956Y330D02*
X1963Y330D01*
X6Y329D02*
X13Y329D01*
X1956Y329D02*
X1963Y329D01*
X6Y328D02*
X13Y328D01*
X1956Y328D02*
X1963Y328D01*
X7Y327D02*
X14Y327D01*
X1955Y327D02*
X1962Y327D01*
X7Y326D02*
X14Y326D01*
X1955Y326D02*
X1962Y326D01*
X7Y325D02*
X14Y325D01*
X1955Y325D02*
X1962Y325D01*
X7Y324D02*
X14Y324D01*
X1955Y324D02*
X1962Y324D01*
X7Y323D02*
X14Y323D01*
X1955Y323D02*
X1962Y323D01*
X7Y322D02*
X15Y322D01*
X1954Y322D02*
X1962Y322D01*
X8Y321D02*
X15Y321D01*
X1954Y321D02*
X1961Y321D01*
X8Y320D02*
X15Y320D01*
X1954Y320D02*
X1961Y320D01*
X8Y319D02*
X15Y319D01*
X1954Y319D02*
X1961Y319D01*
X8Y318D02*
X15Y318D01*
X1954Y318D02*
X1961Y318D01*
X8Y317D02*
X16Y317D01*
X1953Y317D02*
X1961Y317D01*
X9Y316D02*
X16Y316D01*
X1953Y316D02*
X1960Y316D01*
X9Y315D02*
X16Y315D01*
X1953Y315D02*
X1960Y315D01*
X9Y314D02*
X16Y314D01*
X1953Y314D02*
X1960Y314D01*
X9Y313D02*
X16Y313D01*
X1953Y313D02*
X1960Y313D01*
X9Y312D02*
X17Y312D01*
X1952Y312D02*
X1960Y312D01*
X10Y311D02*
X17Y311D01*
X1952Y311D02*
X1959Y311D01*
X10Y310D02*
X17Y310D01*
X1952Y310D02*
X1959Y310D01*
X10Y309D02*
X17Y309D01*
X1952Y309D02*
X1959Y309D01*
X10Y308D02*
X17Y308D01*
X1952Y308D02*
X1959Y308D01*
X11Y307D02*
X18Y307D01*
X1951Y307D02*
X1958Y307D01*
X11Y306D02*
X18Y306D01*
X1951Y306D02*
X1958Y306D01*
X11Y305D02*
X18Y305D01*
X1951Y305D02*
X1958Y305D01*
X11Y304D02*
X18Y304D01*
X1951Y304D02*
X1958Y304D01*
X11Y303D02*
X19Y303D01*
X1950Y303D02*
X1958Y303D01*
X12Y302D02*
X19Y302D01*
X1950Y302D02*
X1957Y302D01*
X12Y301D02*
X19Y301D01*
X1950Y301D02*
X1957Y301D01*
X12Y300D02*
X19Y300D01*
X1950Y300D02*
X1957Y300D01*
X12Y299D02*
X20Y299D01*
X1949Y299D02*
X1957Y299D01*
X13Y298D02*
X20Y298D01*
X1949Y298D02*
X1956Y298D01*
X13Y297D02*
X20Y297D01*
X1949Y297D02*
X1956Y297D01*
X13Y296D02*
X20Y296D01*
X1949Y296D02*
X1956Y296D01*
X13Y295D02*
X21Y295D01*
X1948Y295D02*
X1956Y295D01*
X14Y294D02*
X21Y294D01*
X1948Y294D02*
X1955Y294D01*
X14Y293D02*
X21Y293D01*
X1948Y293D02*
X1955Y293D01*
X14Y292D02*
X21Y292D01*
X1948Y292D02*
X1955Y292D01*
X15Y291D02*
X22Y291D01*
X1947Y291D02*
X1954Y291D01*
X15Y290D02*
X22Y290D01*
X1947Y290D02*
X1954Y290D01*
X15Y289D02*
X22Y289D01*
X1947Y289D02*
X1954Y289D01*
X15Y288D02*
X23Y288D01*
X1946Y288D02*
X1954Y288D01*
X16Y287D02*
X23Y287D01*
X1946Y287D02*
X1953Y287D01*
X16Y286D02*
X23Y286D01*
X1946Y286D02*
X1953Y286D01*
X16Y285D02*
X23Y285D01*
X1946Y285D02*
X1953Y285D01*
X17Y284D02*
X24Y284D01*
X1945Y284D02*
X1952Y284D01*
X17Y283D02*
X24Y283D01*
X1945Y283D02*
X1952Y283D01*
X17Y282D02*
X24Y282D01*
X1945Y282D02*
X1952Y282D01*
X17Y281D02*
X25Y281D01*
X1944Y281D02*
X1952Y281D01*
X18Y280D02*
X25Y280D01*
X1944Y280D02*
X1951Y280D01*
X18Y279D02*
X25Y279D01*
X1944Y279D02*
X1951Y279D01*
X18Y278D02*
X26Y278D01*
X1943Y278D02*
X1951Y278D01*
X19Y277D02*
X26Y277D01*
X1943Y277D02*
X1950Y277D01*
X19Y276D02*
X26Y276D01*
X1943Y276D02*
X1950Y276D01*
X19Y275D02*
X27Y275D01*
X1942Y275D02*
X1950Y275D01*
X20Y274D02*
X27Y274D01*
X1942Y274D02*
X1949Y274D01*
X20Y273D02*
X27Y273D01*
X1942Y273D02*
X1949Y273D01*
X20Y272D02*
X28Y272D01*
X1941Y272D02*
X1949Y272D01*
X21Y271D02*
X28Y271D01*
X1941Y271D02*
X1948Y271D01*
X21Y270D02*
X28Y270D01*
X1941Y270D02*
X1948Y270D01*
X21Y269D02*
X29Y269D01*
X1940Y269D02*
X1948Y269D01*
X22Y268D02*
X29Y268D01*
X1940Y268D02*
X1947Y268D01*
X22Y267D02*
X29Y267D01*
X1940Y267D02*
X1947Y267D01*
X22Y266D02*
X30Y266D01*
X1939Y266D02*
X1947Y266D01*
X23Y265D02*
X30Y265D01*
X1939Y265D02*
X1946Y265D01*
X23Y264D02*
X30Y264D01*
X1939Y264D02*
X1946Y264D01*
X23Y263D02*
X31Y263D01*
X1938Y263D02*
X1946Y263D01*
X24Y262D02*
X31Y262D01*
X1938Y262D02*
X1945Y262D01*
X24Y261D02*
X31Y261D01*
X1938Y261D02*
X1945Y261D01*
X24Y260D02*
X32Y260D01*
X1937Y260D02*
X1945Y260D01*
X25Y259D02*
X32Y259D01*
X1937Y259D02*
X1944Y259D01*
X25Y258D02*
X33Y258D01*
X1936Y258D02*
X1944Y258D01*
X25Y257D02*
X33Y257D01*
X1936Y257D02*
X1944Y257D01*
X26Y256D02*
X33Y256D01*
X1936Y256D02*
X1943Y256D01*
X26Y255D02*
X34Y255D01*
X1935Y255D02*
X1943Y255D01*
X27Y254D02*
X34Y254D01*
X1935Y254D02*
X1942Y254D01*
X27Y253D02*
X34Y253D01*
X1934Y253D02*
X1942Y253D01*
X27Y252D02*
X35Y252D01*
X1934Y252D02*
X1942Y252D01*
X28Y251D02*
X35Y251D01*
X1934Y251D02*
X1941Y251D01*
X28Y250D02*
X36Y250D01*
X1933Y250D02*
X1941Y250D01*
X29Y249D02*
X36Y249D01*
X1933Y249D02*
X1940Y249D01*
X29Y248D02*
X36Y248D01*
X1933Y248D02*
X1940Y248D01*
X29Y247D02*
X37Y247D01*
X1932Y247D02*
X1940Y247D01*
X30Y246D02*
X37Y246D01*
X1932Y246D02*
X1939Y246D01*
X30Y245D02*
X38Y245D01*
X1931Y245D02*
X1939Y245D01*
X31Y244D02*
X38Y244D01*
X1931Y244D02*
X1938Y244D01*
X31Y243D02*
X38Y243D01*
X1931Y243D02*
X1938Y243D01*
X31Y242D02*
X39Y242D01*
X1930Y242D02*
X1938Y242D01*
X32Y241D02*
X39Y241D01*
X1930Y241D02*
X1937Y241D01*
X32Y240D02*
X40Y240D01*
X1929Y240D02*
X1937Y240D01*
X33Y239D02*
X40Y239D01*
X1929Y239D02*
X1936Y239D01*
X33Y238D02*
X41Y238D01*
X1928Y238D02*
X1936Y238D01*
X34Y237D02*
X41Y237D01*
X1928Y237D02*
X1935Y237D01*
X34Y236D02*
X42Y236D01*
X1927Y236D02*
X1935Y236D01*
X35Y235D02*
X42Y235D01*
X1927Y235D02*
X1934Y235D01*
X35Y234D02*
X43Y234D01*
X1926Y234D02*
X1934Y234D01*
X35Y233D02*
X43Y233D01*
X1926Y233D02*
X1934Y233D01*
X36Y232D02*
X44Y232D01*
X1925Y232D02*
X1933Y232D01*
X36Y231D02*
X44Y231D01*
X1925Y231D02*
X1933Y231D01*
X37Y230D02*
X44Y230D01*
X1925Y230D02*
X1932Y230D01*
X37Y229D02*
X45Y229D01*
X1924Y229D02*
X1932Y229D01*
X38Y228D02*
X45Y228D01*
X1924Y228D02*
X1931Y228D01*
X38Y227D02*
X46Y227D01*
X1923Y227D02*
X1931Y227D01*
X39Y226D02*
X46Y226D01*
X1923Y226D02*
X1930Y226D01*
X39Y225D02*
X47Y225D01*
X1922Y225D02*
X1930Y225D01*
X40Y224D02*
X47Y224D01*
X1922Y224D02*
X1929Y224D01*
X40Y223D02*
X48Y223D01*
X1921Y223D02*
X1929Y223D01*
X40Y222D02*
X48Y222D01*
X1921Y222D02*
X1929Y222D01*
X41Y221D02*
X49Y221D01*
X1920Y221D02*
X1928Y221D01*
X42Y220D02*
X49Y220D01*
X1920Y220D02*
X1927Y220D01*
X42Y219D02*
X50Y219D01*
X1919Y219D02*
X1927Y219D01*
X43Y218D02*
X50Y218D01*
X1919Y218D02*
X1926Y218D01*
X43Y217D02*
X51Y217D01*
X1918Y217D02*
X1926Y217D01*
X44Y216D02*
X51Y216D01*
X1918Y216D02*
X1925Y216D01*
X44Y215D02*
X52Y215D01*
X1917Y215D02*
X1925Y215D01*
X45Y214D02*
X52Y214D01*
X1917Y214D02*
X1924Y214D01*
X45Y213D02*
X53Y213D01*
X1916Y213D02*
X1924Y213D01*
X46Y212D02*
X54Y212D01*
X1915Y212D02*
X1923Y212D01*
X46Y211D02*
X54Y211D01*
X1915Y211D02*
X1923Y211D01*
X47Y210D02*
X55Y210D01*
X1914Y210D02*
X1922Y210D01*
X47Y209D02*
X55Y209D01*
X1914Y209D02*
X1922Y209D01*
X48Y208D02*
X56Y208D01*
X1913Y208D02*
X1921Y208D01*
X48Y207D02*
X56Y207D01*
X1913Y207D02*
X1921Y207D01*
X49Y206D02*
X57Y206D01*
X1912Y206D02*
X1920Y206D01*
X49Y205D02*
X57Y205D01*
X1912Y205D02*
X1920Y205D01*
X50Y204D02*
X58Y204D01*
X1911Y204D02*
X1919Y204D01*
X50Y203D02*
X59Y203D01*
X1910Y203D02*
X1919Y203D01*
X51Y202D02*
X59Y202D01*
X1910Y202D02*
X1918Y202D01*
X52Y201D02*
X60Y201D01*
X1909Y201D02*
X1917Y201D01*
X52Y200D02*
X60Y200D01*
X1909Y200D02*
X1917Y200D01*
X53Y199D02*
X61Y199D01*
X1908Y199D02*
X1916Y199D01*
X53Y198D02*
X62Y198D01*
X1907Y198D02*
X1916Y198D01*
X54Y197D02*
X62Y197D01*
X1907Y197D02*
X1915Y197D01*
X55Y196D02*
X63Y196D01*
X1906Y196D02*
X1914Y196D01*
X55Y195D02*
X63Y195D01*
X1906Y195D02*
X1914Y195D01*
X56Y194D02*
X64Y194D01*
X1905Y194D02*
X1913Y194D01*
X56Y193D02*
X64Y193D01*
X1905Y193D02*
X1913Y193D01*
X57Y192D02*
X65Y192D01*
X1904Y192D02*
X1912Y192D01*
X57Y191D02*
X66Y191D01*
X1903Y191D02*
X1912Y191D01*
X58Y190D02*
X66Y190D01*
X1903Y190D02*
X1911Y190D01*
X59Y189D02*
X67Y189D01*
X1902Y189D02*
X1910Y189D01*
X59Y188D02*
X68Y188D01*
X1901Y188D02*
X1910Y188D01*
X60Y187D02*
X68Y187D01*
X1901Y187D02*
X1909Y187D01*
X61Y186D02*
X69Y186D01*
X1900Y186D02*
X1908Y186D01*
X61Y185D02*
X70Y185D01*
X1899Y185D02*
X1908Y185D01*
X62Y184D02*
X70Y184D01*
X1899Y184D02*
X1907Y184D01*
X62Y183D02*
X71Y183D01*
X1898Y183D02*
X1907Y183D01*
X63Y182D02*
X72Y182D01*
X1897Y182D02*
X1906Y182D01*
X64Y181D02*
X72Y181D01*
X1897Y181D02*
X1905Y181D01*
X64Y180D02*
X73Y180D01*
X1896Y180D02*
X1905Y180D01*
X65Y179D02*
X74Y179D01*
X1895Y179D02*
X1904Y179D01*
X66Y178D02*
X74Y178D01*
X1895Y178D02*
X1903Y178D01*
X66Y177D02*
X75Y177D01*
X1894Y177D02*
X1903Y177D01*
X67Y176D02*
X76Y176D01*
X1893Y176D02*
X1902Y176D01*
X68Y175D02*
X76Y175D01*
X1893Y175D02*
X1901Y175D01*
X68Y174D02*
X77Y174D01*
X1892Y174D02*
X1901Y174D01*
X69Y173D02*
X78Y173D01*
X1891Y173D02*
X1900Y173D01*
X70Y172D02*
X78Y172D01*
X1891Y172D02*
X1899Y172D01*
X70Y171D02*
X79Y171D01*
X1890Y171D02*
X1899Y171D01*
X71Y170D02*
X80Y170D01*
X1889Y170D02*
X1898Y170D01*
X72Y169D02*
X81Y169D01*
X1888Y169D02*
X1897Y169D01*
X73Y168D02*
X81Y168D01*
X1888Y168D02*
X1896Y168D01*
X73Y167D02*
X82Y167D01*
X1887Y167D02*
X1896Y167D01*
X74Y166D02*
X83Y166D01*
X1886Y166D02*
X1895Y166D01*
X75Y165D02*
X84Y165D01*
X1885Y165D02*
X1894Y165D01*
X75Y164D02*
X84Y164D01*
X1885Y164D02*
X1894Y164D01*
X76Y163D02*
X85Y163D01*
X1884Y163D02*
X1893Y163D01*
X77Y162D02*
X86Y162D01*
X1883Y162D02*
X1892Y162D01*
X78Y161D02*
X87Y161D01*
X1882Y161D02*
X1891Y161D01*
X78Y160D02*
X87Y160D01*
X1882Y160D02*
X1891Y160D01*
X79Y159D02*
X88Y159D01*
X1881Y159D02*
X1890Y159D01*
X80Y158D02*
X89Y158D01*
X1880Y158D02*
X1889Y158D01*
X81Y157D02*
X90Y157D01*
X1879Y157D02*
X1888Y157D01*
X81Y156D02*
X90Y156D01*
X1879Y156D02*
X1888Y156D01*
X82Y155D02*
X91Y155D01*
X1878Y155D02*
X1887Y155D01*
X83Y154D02*
X92Y154D01*
X1877Y154D02*
X1886Y154D01*
X84Y153D02*
X93Y153D01*
X1876Y153D02*
X1885Y153D01*
X85Y152D02*
X94Y152D01*
X1875Y152D02*
X1884Y152D01*
X85Y151D02*
X94Y151D01*
X1875Y151D02*
X1884Y151D01*
X86Y150D02*
X95Y150D01*
X1874Y150D02*
X1883Y150D01*
X87Y149D02*
X96Y149D01*
X1873Y149D02*
X1882Y149D01*
X88Y148D02*
X97Y148D01*
X1872Y148D02*
X1881Y148D01*
X88Y147D02*
X98Y147D01*
X1871Y147D02*
X1881Y147D01*
X89Y146D02*
X99Y146D01*
X1870Y146D02*
X1880Y146D01*
X90Y145D02*
X100Y145D01*
X1869Y145D02*
X1879Y145D01*
X91Y144D02*
X100Y144D01*
X1869Y144D02*
X1878Y144D01*
X92Y143D02*
X101Y143D01*
X1868Y143D02*
X1877Y143D01*
X93Y142D02*
X102Y142D01*
X1867Y142D02*
X1876Y142D01*
X93Y141D02*
X103Y141D01*
X1866Y141D02*
X1876Y141D01*
X94Y140D02*
X104Y140D01*
X1865Y140D02*
X1875Y140D01*
X95Y139D02*
X105Y139D01*
X1864Y139D02*
X1874Y139D01*
X96Y138D02*
X106Y138D01*
X1863Y138D02*
X1873Y138D01*
X97Y137D02*
X107Y137D01*
X1862Y137D02*
X1872Y137D01*
X98Y136D02*
X107Y136D01*
X1862Y136D02*
X1871Y136D01*
X99Y135D02*
X108Y135D01*
X1861Y135D02*
X1870Y135D01*
X100Y134D02*
X109Y134D01*
X1860Y134D02*
X1869Y134D01*
X100Y133D02*
X110Y133D01*
X1859Y133D02*
X1869Y133D01*
X101Y132D02*
X111Y132D01*
X1858Y132D02*
X1868Y132D01*
X102Y131D02*
X112Y131D01*
X1857Y131D02*
X1867Y131D01*
X103Y130D02*
X113Y130D01*
X1856Y130D02*
X1866Y130D01*
X104Y129D02*
X114Y129D01*
X1855Y129D02*
X1865Y129D01*
X105Y128D02*
X115Y128D01*
X1854Y128D02*
X1864Y128D01*
X106Y127D02*
X116Y127D01*
X1853Y127D02*
X1863Y127D01*
X107Y126D02*
X117Y126D01*
X1852Y126D02*
X1862Y126D01*
X108Y125D02*
X118Y125D01*
X1851Y125D02*
X1861Y125D01*
X109Y124D02*
X119Y124D01*
X1850Y124D02*
X1860Y124D01*
X110Y123D02*
X120Y123D01*
X1849Y123D02*
X1859Y123D01*
X111Y122D02*
X121Y122D01*
X1848Y122D02*
X1858Y122D01*
X112Y121D02*
X122Y121D01*
X1847Y121D02*
X1857Y121D01*
X113Y120D02*
X123Y120D01*
X1846Y120D02*
X1856Y120D01*
X114Y119D02*
X124Y119D01*
X1845Y119D02*
X1855Y119D01*
X114Y118D02*
X125Y118D01*
X1844Y118D02*
X1855Y118D01*
X115Y117D02*
X126Y117D01*
X1843Y117D02*
X1854Y117D01*
X116Y116D02*
X127Y116D01*
X1842Y116D02*
X1853Y116D01*
X117Y115D02*
X128Y115D01*
X1841Y115D02*
X1852Y115D01*
X118Y114D02*
X129Y114D01*
X1840Y114D02*
X1851Y114D01*
X120Y113D02*
X130Y113D01*
X1839Y113D02*
X1849Y113D01*
X121Y112D02*
X131Y112D01*
X1838Y112D02*
X1848Y112D01*
X122Y111D02*
X132Y111D01*
X1837Y111D02*
X1847Y111D01*
X123Y110D02*
X133Y110D01*
X1836Y110D02*
X1846Y110D01*
X124Y109D02*
X134Y109D01*
X1835Y109D02*
X1845Y109D01*
X125Y108D02*
X135Y108D01*
X1834Y108D02*
X1844Y108D01*
X126Y107D02*
X137Y107D01*
X1832Y107D02*
X1843Y107D01*
X127Y106D02*
X138Y106D01*
X1831Y106D02*
X1842Y106D01*
X128Y105D02*
X139Y105D01*
X1830Y105D02*
X1841Y105D01*
X129Y104D02*
X140Y104D01*
X1829Y104D02*
X1840Y104D01*
X130Y103D02*
X141Y103D01*
X1828Y103D02*
X1839Y103D01*
X131Y102D02*
X142Y102D01*
X1827Y102D02*
X1838Y102D01*
X132Y101D02*
X144Y101D01*
X1825Y101D02*
X1837Y101D01*
X134Y100D02*
X145Y100D01*
X1824Y100D02*
X1835Y100D01*
X135Y99D02*
X146Y99D01*
X1823Y99D02*
X1834Y99D01*
X136Y98D02*
X147Y98D01*
X1822Y98D02*
X1833Y98D01*
X137Y97D02*
X148Y97D01*
X1821Y97D02*
X1832Y97D01*
X138Y96D02*
X150Y96D01*
X1819Y96D02*
X1831Y96D01*
X139Y95D02*
X151Y95D01*
X1818Y95D02*
X1830Y95D01*
X141Y94D02*
X152Y94D01*
X1817Y94D02*
X1828Y94D01*
X142Y93D02*
X153Y93D01*
X1816Y93D02*
X1827Y93D01*
X143Y92D02*
X155Y92D01*
X1814Y92D02*
X1826Y92D01*
X144Y91D02*
X156Y91D01*
X1813Y91D02*
X1825Y91D01*
X145Y90D02*
X157Y90D01*
X1812Y90D02*
X1824Y90D01*
X147Y89D02*
X158Y89D01*
X1811Y89D02*
X1822Y89D01*
X148Y88D02*
X160Y88D01*
X1809Y88D02*
X1821Y88D01*
X149Y87D02*
X161Y87D01*
X1808Y87D02*
X1820Y87D01*
X150Y86D02*
X162Y86D01*
X1807Y86D02*
X1819Y86D01*
X152Y85D02*
X164Y85D01*
X1805Y85D02*
X1817Y85D01*
X153Y84D02*
X165Y84D01*
X1804Y84D02*
X1816Y84D01*
X154Y83D02*
X166Y83D01*
X1803Y83D02*
X1815Y83D01*
X156Y82D02*
X168Y82D01*
X1801Y82D02*
X1813Y82D01*
X157Y81D02*
X169Y81D01*
X1800Y81D02*
X1812Y81D01*
X158Y80D02*
X171Y80D01*
X1798Y80D02*
X1811Y80D01*
X159Y79D02*
X172Y79D01*
X1797Y79D02*
X1810Y79D01*
X161Y78D02*
X173Y78D01*
X1796Y78D02*
X1808Y78D01*
X162Y77D02*
X175Y77D01*
X1794Y77D02*
X1807Y77D01*
X164Y76D02*
X176Y76D01*
X1793Y76D02*
X1805Y76D01*
X165Y75D02*
X178Y75D01*
X1791Y75D02*
X1804Y75D01*
X166Y74D02*
X179Y74D01*
X1790Y74D02*
X1803Y74D01*
X168Y73D02*
X181Y73D01*
X1788Y73D02*
X1801Y73D01*
X169Y72D02*
X182Y72D01*
X1787Y72D02*
X1800Y72D01*
X171Y71D02*
X184Y71D01*
X1785Y71D02*
X1798Y71D01*
X172Y70D02*
X185Y70D01*
X1784Y70D02*
X1797Y70D01*
X174Y69D02*
X187Y69D01*
X1782Y69D02*
X1795Y69D01*
X175Y68D02*
X189Y68D01*
X1780Y68D02*
X1794Y68D01*
X176Y67D02*
X190Y67D01*
X1779Y67D02*
X1793Y67D01*
X178Y66D02*
X192Y66D01*
X1777Y66D02*
X1791Y66D01*
X180Y65D02*
X193Y65D01*
X1776Y65D02*
X1789Y65D01*
X181Y64D02*
X195Y64D01*
X1774Y64D02*
X1788Y64D01*
X183Y63D02*
X197Y63D01*
X1772Y63D02*
X1786Y63D01*
X184Y62D02*
X198Y62D01*
X1771Y62D02*
X1785Y62D01*
X186Y61D02*
X200Y61D01*
X1769Y61D02*
X1783Y61D01*
X187Y60D02*
X202Y60D01*
X1767Y60D02*
X1782Y60D01*
X189Y59D02*
X204Y59D01*
X1765Y59D02*
X1780Y59D01*
X191Y58D02*
X205Y58D01*
X1764Y58D02*
X1778Y58D01*
X192Y57D02*
X207Y57D01*
X1762Y57D02*
X1777Y57D01*
X194Y56D02*
X209Y56D01*
X1760Y56D02*
X1775Y56D01*
X196Y55D02*
X211Y55D01*
X1758Y55D02*
X1773Y55D01*
X198Y54D02*
X213Y54D01*
X1756Y54D02*
X1771Y54D01*
X199Y53D02*
X215Y53D01*
X1754Y53D02*
X1770Y53D01*
X201Y52D02*
X217Y52D01*
X1752Y52D02*
X1768Y52D01*
X203Y51D02*
X219Y51D01*
X1750Y51D02*
X1766Y51D01*
X205Y50D02*
X221Y50D01*
X1748Y50D02*
X1764Y50D01*
X206Y49D02*
X222Y49D01*
X1747Y49D02*
X1763Y49D01*
X208Y48D02*
X224Y48D01*
X1745Y48D02*
X1761Y48D01*
X210Y47D02*
X226Y47D01*
X1743Y47D02*
X1759Y47D01*
X212Y46D02*
X228Y46D01*
X1741Y46D02*
X1757Y46D01*
X214Y45D02*
X231Y45D01*
X1738Y45D02*
X1755Y45D01*
X216Y44D02*
X233Y44D01*
X1736Y44D02*
X1753Y44D01*
X218Y43D02*
X235Y43D01*
X1734Y43D02*
X1751Y43D01*
X220Y42D02*
X237Y42D01*
X1732Y42D02*
X1749Y42D01*
X222Y41D02*
X240Y41D01*
X1729Y41D02*
X1747Y41D01*
X224Y40D02*
X242Y40D01*
X1727Y40D02*
X1745Y40D01*
X226Y39D02*
X244Y39D01*
X1725Y39D02*
X1743Y39D01*
X228Y38D02*
X247Y38D01*
X1722Y38D02*
X1741Y38D01*
X230Y37D02*
X249Y37D01*
X1720Y37D02*
X1739Y37D01*
X233Y36D02*
X252Y36D01*
X1717Y36D02*
X1736Y36D01*
X235Y35D02*
X254Y35D01*
X1715Y35D02*
X1734Y35D01*
X237Y34D02*
X257Y34D01*
X1712Y34D02*
X1732Y34D01*
X239Y33D02*
X259Y33D01*
X1710Y33D02*
X1730Y33D01*
X242Y32D02*
X262Y32D01*
X1707Y32D02*
X1727Y32D01*
X244Y31D02*
X265Y31D01*
X1704Y31D02*
X1725Y31D01*
X246Y30D02*
X268Y30D01*
X1701Y30D02*
X1723Y30D01*
X249Y29D02*
X271Y29D01*
X1698Y29D02*
X1720Y29D01*
X252Y28D02*
X274Y28D01*
X1695Y28D02*
X1717Y28D01*
X254Y27D02*
X277Y27D01*
X1692Y27D02*
X1715Y27D01*
X257Y26D02*
X280Y26D01*
X1689Y26D02*
X1712Y26D01*
X259Y25D02*
X283Y25D01*
X1686Y25D02*
X1710Y25D01*
X262Y24D02*
X286Y24D01*
X1683Y24D02*
X1707Y24D01*
X265Y23D02*
X290Y23D01*
X1679Y23D02*
X1704Y23D01*
X268Y22D02*
X294Y22D01*
X1675Y22D02*
X1701Y22D01*
X271Y21D02*
X297Y21D01*
X1672Y21D02*
X1698Y21D01*
X274Y20D02*
X301Y20D01*
X1668Y20D02*
X1695Y20D01*
X277Y19D02*
X305Y19D01*
X1664Y19D02*
X1692Y19D01*
X280Y18D02*
X310Y18D01*
X1659Y18D02*
X1689Y18D01*
X283Y17D02*
X314Y17D01*
X1655Y17D02*
X1686Y17D01*
X287Y16D02*
X319Y16D01*
X1650Y16D02*
X1682Y16D01*
X290Y15D02*
X325Y15D01*
X1644Y15D02*
X1679Y15D01*
X294Y14D02*
X330Y14D01*
X1639Y14D02*
X1675Y14D01*
X298Y13D02*
X336Y13D01*
X1633Y13D02*
X1671Y13D01*
X302Y12D02*
X343Y12D01*
X1626Y12D02*
X1667Y12D01*
X306Y11D02*
X352Y11D01*
X1617Y11D02*
X1663Y11D01*
X310Y10D02*
X362Y10D01*
X1607Y10D02*
X1659Y10D01*
X315Y9D02*
X376Y9D01*
X1593Y9D02*
X1654Y9D01*
X320Y8D02*
X1649Y8D01*
X325Y7D02*
X1644Y7D01*
X331Y6D02*
X1638Y6D01*
X337Y5D02*
X1632Y5D01*
X344Y4D02*
X1625Y4D01*
X352Y3D02*
X1617Y3D01*
X363Y2D02*
X1606Y2D01*
X377Y1D02*
X1592Y1D01*
D02*
G04 End of Silk0*
M02*